<?xml version="1.0" encoding="UTF-8" standalone="no"?>
<svg
   width="87.820335"
   height="68.854568"
   viewBox="0 0 87.820335 68.854568"
   fill="none"
   version="1.1"
   id="svg22"
   sodipodi:docname="Kit-Group-logo.svg"
   inkscape:version="1.1.2 (0a00cf5339, 2022-02-04)"
   xmlns:inkscape="http://www.inkscape.org/namespaces/inkscape"
   xmlns:sodipodi="http://sodipodi.sourceforge.net/DTD/sodipodi-0.dtd"
   xmlns="http://www.w3.org/2000/svg"
   xmlns:svg="http://www.w3.org/2000/svg">
  <defs
     id="defs26" />
  <sodipodi:namedview
     id="namedview24"
     pagecolor="#ffffff"
     bordercolor="#000000"
     borderopacity="0.25"
     inkscape:pageshadow="2"
     inkscape:pageopacity="0.0"
     inkscape:pagecheckerboard="0"
     showgrid="false"
     fit-margin-top="0"
     fit-margin-left="0"
     fit-margin-right="0"
     fit-margin-bottom="0"
     inkscape:zoom="15.051724"
     inkscape:cx="43.084765"
     inkscape:cy="29.398625"
     inkscape:window-width="3840"
     inkscape:window-height="2111"
     inkscape:window-x="0"
     inkscape:window-y="25"
     inkscape:window-maximized="1"
     inkscape:current-layer="svg22" />
  <path
     fill-rule="evenodd"
     clip-rule="evenodd"
     d="m 63.043851,11.397721 h -22 l -25,24 14,23 h 8.808 l 9.072,-38 h 13.104 z m -22,1 h 20.5 l -1.5,7 h -13 l -9,38 h -7.5 z"
     fill="#004f9f"
     id="path2" />
  <path
     d="m 11.635851,11.397721 h 18.408 l -24.2723105,23.777 z"
     fill="#004f9f"
     id="path4" />
  <path
     d="m 0.04385051,58.397721 5.62641999,-22.8124 15.3735805,22.8124 z"
     fill="#004f9f"
     id="path6" />
  <circle
     cx="47.04385"
     cy="5.3977208"
     r="5"
     fill="#dc092f"
     id="circle8" />
  <path
     d="m 67.902651,20.397721 -2.2486,-4.7571 3.6572,-4.2429 h 2.003 l -4.3744,4.7893 0.1809,-1.215 2.5782,5.4257 z m -5.0132,0 2,-9 h 1.6542 l -2,9 z"
     fill="#004f9f"
     id="path10" />
  <path
     d="m 70.363751,20.397721 0.3101,-1.7486 h 1.68 l -0.3101,1.7486 z"
     fill="#004f9f"
     id="path12" />
  <path
     d="m 73.467751,20.397721 1.5895,-9 h 1.6542 l -1.5895,9 z"
     fill="#004f9f"
     id="path14" />
  <path
     d="m 76.610651,20.397721 0.3102,-1.7486 h 1.6799 l -0.3101,1.7486 z"
     fill="#004f9f"
     id="path16" />
  <path
     d="m 80.830151,20.397721 1.3439,-7.6371 h 1.6542 l -1.344,7.6371 z m -1.1373,-7.4057 0.2843,-1.5943 h 6.539 l -0.2843,1.5943 z"
     fill="#004f9f"
     id="path18" />
  <path
     d="m 85.053451,20.397721 0.3102,-1.7486 h 1.68 l -0.3102,1.7486 z"
     fill="#004f9f"
     id="path20" />
</svg>
