<?xml version="1.0" encoding="UTF-8" standalone="no"?>
<svg
   role="img"
   viewBox="11.37 44.37 299.99999 120"
   version="1.1"
   id="svg40"
   sodipodi:docname="Andes.svg"
   inkscape:version="1.2.2 (1:1.2.2+202212051552+b0a8486541)"
   width="300"
   height="120"
   xmlns:inkscape="http://www.inkscape.org/namespaces/inkscape"
   xmlns:sodipodi="http://sodipodi.sourceforge.net/DTD/sodipodi-0.dtd"
   xmlns="http://www.w3.org/2000/svg"
   xmlns:svg="http://www.w3.org/2000/svg"
   xmlns:rdf="http://www.w3.org/1999/02/22-rdf-syntax-ns#"
   xmlns:cc="http://creativecommons.org/ns#"
   xmlns:dc="http://purl.org/dc/elements/1.1/">
  <defs
     id="defs44" />
  <sodipodi:namedview
     id="namedview42"
     pagecolor="#ffffff"
     bordercolor="#666666"
     borderopacity="1.0"
     inkscape:showpageshadow="2"
     inkscape:pageopacity="0.0"
     inkscape:pagecheckerboard="0"
     inkscape:deskcolor="#d1d1d1"
     showgrid="false"
     inkscape:zoom="4.7173372"
     inkscape:cx="303.56109"
     inkscape:cy="79.493999"
     inkscape:window-width="3840"
     inkscape:window-height="2136"
     inkscape:window-x="3840"
     inkscape:window-y="0"
     inkscape:window-maximized="1"
     inkscape:current-layer="svg40" />
  <title
     id="title2">Andes Logo.svg</title>
  <style
     id="style4">svg {enable-background:new 0 0 400 245}</style>
  <style
     id="style6">.st1{fill:#1c2e6c}</style>
  <g
     id="圖層_1"
     transform="matrix(0.64758631,0,0,0.64758631,33.24505,24.373088)">
    <linearGradient
       id="SVGID_1_"
       x1="231.89799"
       x2="231.862"
       y1="133.408"
       y2="192.69299"
       gradientTransform="matrix(1,0,0,-1,0,246)"
       gradientUnits="userSpaceOnUse">
      <stop
         offset="0"
         stop-color="#fff"
         stop-opacity="0"
         id="stop8" />
      <stop
         offset=".024"
         stop-color="#f4f7f1"
         stop-opacity=".024"
         id="stop10" />
      <stop
         offset=".094"
         stop-color="#d3dfc5"
         stop-opacity=".094"
         id="stop12" />
      <stop
         offset=".17"
         stop-color="#b4c99e"
         stop-opacity=".17"
         id="stop14" />
      <stop
         offset=".25"
         stop-color="#97b77d"
         stop-opacity=".25"
         id="stop16" />
      <stop
         offset=".335"
         stop-color="#7ca964"
         stop-opacity=".335"
         id="stop18" />
      <stop
         offset=".426"
         stop-color="#659e52"
         stop-opacity=".426"
         id="stop20" />
      <stop
         offset=".525"
         stop-color="#509647"
         stop-opacity=".525"
         id="stop22" />
      <stop
         offset=".637"
         stop-color="#3d913f"
         stop-opacity=".637"
         id="stop24" />
      <stop
         offset=".774"
         stop-color="#308e3b"
         stop-opacity=".774"
         id="stop26" />
      <stop
         offset="1"
         stop-color="#2b8d3a"
         id="stop28" />
    </linearGradient>
    <path
       fill="url(#SVGID_1_)"
       d="m 86.7,115.2 c 0,0 29.8,-15.6 39.9,-23.8 4.5,-3.6 8.6,-3 10.4,-5.7 4.6,-1.8 6.7,-2.2 9.2,-5.1 3.7,-0.4 9.2,-9.2 14.6,-9.2 5.4,0 24.1,14.3 34.8,13.4 10.7,-0.9 15.8,-1.8 21.1,-5.4 5.4,-3.6 22.3,-11.6 25.3,-13.1 3,-1.5 8.6,-5.7 11,-8 2.4,-2.4 12.5,-6.3 15.2,-6.6 2.7,-0.3 11.3,1.2 13.7,3.3 2.4,2.1 8.9,5.7 11.6,7.1 2.7,1.5 6.9,4.8 11.6,6.3 4.8,1.5 9.2,6.3 11.6,7.4 2.4,1.2 4.8,1.5 6.8,3.6 2.1,2.1 7.4,5.1 8.9,6.3 1.5,1.2 11.6,8 17,9.8 5.4,1.8 23.5,18.3 27.7,19.8 -10.8,-0.1 -290.4,-0.1 -290.4,-0.1 z"
       id="path31"
       style="fill:url(#SVGID_1_)" />
    <path
       d="m 130.7,105.5 h 17.1 l 22.4,32.9 v -32.9 h 17.3 v 59.4 H 170.2 L 148,132.3 v 32.6 h -17.3 z m 69.3,0 h 27.3 c 5.4,0 9.7,0.7 13,2.2 3.3,1.5 6,3.6 8.2,6.3 2.2,2.7 3.7,5.9 4.7,9.5 1,3.6 1.5,7.5 1.5,11.5 0,6.3 -0.7,11.3 -2.2,14.8 -1.4,3.5 -3.4,6.4 -6,8.8 -2.6,2.4 -5.3,3.9 -8.3,4.7 -4,1.1 -7.7,1.6 -10.9,1.6 H 200 Z m 18.3,13.5 v 32.5 h 4.5 c 3.8,0 6.6,-0.4 8.2,-1.3 1.6,-0.9 2.9,-2.3 3.8,-4.5 0.9,-2.1 1.4,-5.6 1.4,-10.3 0,-6.3 -1,-10.6 -3.1,-12.9 -2.1,-2.3 -5.5,-3.5 -10.2,-3.5 z m 46,-13.5 h 49.2 v 12.7 h -30.8 v 9.4 h 28.6 v 12.1 h -28.6 v 11.7 h 31.7 v 13.5 h -50.1 z m 56.7,39.7 17.5,-1.1 c 0.4,2.8 1.1,5 2.3,6.5 1.9,2.4 4.6,3.6 8.1,3.6 2.6,0 4.6,-0.6 6.1,-1.8 1.4,-1.2 2.1,-2.7 2.1,-4.3 0,-1.5 -0.7,-2.9 -2,-4.1 -1.4,-1.2 -4.5,-2.4 -9.4,-3.4 -8,-1.8 -13.8,-4.2 -17.2,-7.2 -3.5,-3 -5.2,-6.8 -5.2,-11.5 0,-3.1 0.9,-5.9 2.7,-8.7 1.8,-2.7 4.4,-4.8 8,-6.4 3.5,-1.6 8.4,-2.3 14.6,-2.3 7.6,0 13.4,1.4 17.4,4.2 4,2.8 6.4,7.3 7.1,13.5 l -17.3,1 c -0.5,-2.7 -1.4,-4.6 -2.9,-5.8 -1.5,-1.2 -3.5,-1.8 -6.1,-1.8 -2.1,0 -3.7,0.5 -4.8,1.4 -1.1,0.9 -1.6,2 -1.6,3.3 0,0.9 0.4,1.8 1.3,2.6 0.9,0.8 2.9,1.5 6.2,2.2 8,1.7 13.8,3.5 17.2,5.2 3.5,1.8 6,4 7.6,6.6 1.6,2.6 2.4,5.5 2.4,8.8 0,3.8 -1.1,7.3 -3.2,10.5 -2.1,3.2 -5.1,5.7 -8.8,7.3 -3.8,1.7 -8.5,2.5 -14.3,2.5 -10.1,0 -17.1,-1.9 -21,-5.8 -4.1,-4 -6.3,-9 -6.8,-15 z"
       class="st1"
       id="path33" />
    <path
       d="M 85.7,149.5 H 53.2 l -4.5,15.3 H 19.3 L 54.2,72 h 31.3 l 34.9,92.8 h -30 z M 79.8,129.4 69.5,96 59.4,129.4 Z"
       class="st1"
       id="path35" />
    <path
       d="M 30.7,195 V 178.5 H 18.6 v -2.2 h 29 v 2.2 H 35.5 V 195 Z m 22,0 v -18.8 h 26.5 v 2.2 H 57.5 v 5.7 h 20.2 v 2.2 H 57.5 v 6.4 H 80 v 2.2 H 52.7 Z m 60.1,-6.6 4.8,0.6 c -1,2 -2.8,3.6 -5.5,4.7 -2.6,1.1 -5.9,1.6 -9.7,1.6 -3.9,0 -7.1,-0.4 -9.6,-1.2 -2.5,-0.8 -4.4,-2 -5.6,-3.6 -1.3,-1.6 -1.9,-3.2 -1.9,-5 0,-2 0.7,-3.7 2.2,-5.1 1.5,-1.5 3.5,-2.6 6.2,-3.3 2.7,-0.8 5.6,-1.1 8.9,-1.1 3.7,0 6.7,0.5 9.2,1.4 2.5,1 4.2,2.3 5.2,4 l -4.8,0.6 c -0.8,-1.4 -2.1,-2.4 -3.7,-3 -1.6,-0.6 -3.6,-0.9 -6.1,-0.9 -2.8,0 -5.2,0.3 -7,1 -1.9,0.7 -3.2,1.6 -4,2.8 -0.8,1.2 -1.1,2.4 -1.1,3.6 0,1.6 0.5,3 1.4,4.2 0.9,1.2 2.3,2.1 4.2,2.7 1.9,0.6 4,0.9 6.2,0.9 2.7,0 5,-0.4 6.9,-1.2 1.9,-0.9 3.1,-2.1 3.8,-3.7 z m 10.9,6.6 v -18.8 h 4.8 v 7.7 h 19 v -7.7 h 4.8 V 195 h -4.8 v -8.8 h -19 v 8.8 z m 36.8,0 v -18.8 h 5 l 19.2,14.7 v -14.7 h 4.6 V 195 h -5 L 165.1,180.3 V 195 Z m 35.4,-9.1 c 0,-3.1 1.6,-5.6 4.9,-7.3 3.3,-1.8 7.5,-2.6 12.6,-2.6 3.4,0 6.4,0.4 9.1,1.2 2.7,0.8 4.8,2 6.2,3.5 1.4,1.5 2.1,3.2 2.1,5 0,1.9 -0.8,3.6 -2.2,5.1 -1.5,1.5 -3.6,2.6 -6.4,3.4 -2.7,0.8 -5.7,1.2 -8.9,1.2 -3.4,0 -6.5,-0.4 -9.2,-1.3 -2.7,-0.9 -4.8,-2 -6.2,-3.5 -1.3,-1.5 -2,-3.1 -2,-4.7 z m 5,0 c 0,2.3 1.2,4 3.6,5.3 2.4,1.3 5.3,2 8.9,2 3.6,0 6.6,-0.7 9,-2 2.4,-1.3 3.5,-3.2 3.5,-5.6 0,-1.5 -0.5,-2.9 -1.5,-4 -1,-1.1 -2.5,-2 -4.4,-2.6 -1.9,-0.6 -4.1,-0.9 -6.5,-0.9 -3.4,0 -6.4,0.6 -8.8,1.8 -2.5,1.2 -3.8,3.2 -3.8,6 z M 237,195 v -18.8 h 4.8 v 16.5 h 18 v 2.2 H 237 Z m 27.1,-9.1 c 0,-3.1 1.6,-5.6 4.9,-7.3 3.3,-1.8 7.5,-2.6 12.6,-2.6 3.4,0 6.4,0.4 9.1,1.2 2.7,0.8 4.8,2 6.2,3.5 1.4,1.5 2.1,3.2 2.1,5 0,1.9 -0.7,3.6 -2.2,5.1 -1.5,1.5 -3.6,2.6 -6.4,3.4 -2.7,0.8 -5.7,1.2 -8.9,1.2 -3.4,0 -6.5,-0.4 -9.2,-1.3 -2.7,-0.9 -4.8,-2 -6.2,-3.5 -1.3,-1.5 -2,-3.1 -2,-4.7 z m 5,0 c 0,2.3 1.2,4 3.6,5.3 2.4,1.3 5.3,2 8.9,2 3.6,0 6.6,-0.7 9,-2 2.4,-1.3 3.5,-3.2 3.5,-5.6 0,-1.5 -0.5,-2.9 -1.5,-4 -1,-1.1 -2.5,-2 -4.4,-2.6 -1.9,-0.6 -4.1,-0.9 -6.5,-0.9 -3.4,0 -6.4,0.6 -8.8,1.8 -2.6,1.2 -3.8,3.2 -3.8,6 z m 53.4,1.8 v -2.2 H 338 v 7 c -2.4,1 -4.8,1.7 -7.4,2.2 -2.5,0.5 -5.1,0.7 -7.8,0.7 -3.6,0 -6.9,-0.4 -9.8,-1.2 -2.9,-0.8 -5.2,-1.9 -6.7,-3.4 -1.5,-1.5 -2.2,-3.2 -2.2,-5 0,-1.8 0.7,-3.5 2.2,-5.1 1.5,-1.6 3.6,-2.8 6.4,-3.5 2.8,-0.8 6,-1.2 9.7,-1.2 2.6,0 5,0.2 7.2,0.7 2.1,0.4 3.8,1.1 5,1.8 1.2,0.8 2.1,1.8 2.8,3.1 l -4.4,0.6 c -0.5,-1 -1.2,-1.7 -2,-2.3 -0.8,-0.5 -2,-1 -3.5,-1.3 -1.5,-0.3 -3.2,-0.5 -5,-0.5 -2.2,0 -4.1,0.2 -5.7,0.5 -1.6,0.3 -2.9,0.8 -3.9,1.4 -1,0.6 -1.8,1.2 -2.3,1.9 -0.9,1.2 -1.4,2.4 -1.4,3.8 0,1.7 0.6,3.1 1.7,4.2 1.1,1.1 2.8,2 4.9,2.5 2.1,0.5 4.4,0.8 6.8,0.8 2.1,0 4.1,-0.2 6.1,-0.6 2,-0.4 3.5,-0.9 4.5,-1.3 v -3.5 z m 32.9,7.3 v -7.9 l -14.1,-10.8 h 5.9 l 7.2,5.7 c 1.3,1.1 2.6,2.1 3.7,3.2 1.1,-1 2.4,-2.1 4,-3.3 l 7.1,-5.5 h 5.6 l -14.6,10.8 v 7.9 z"
       class="st1"
       id="path37" />
  </g>
  <metadata
     id="metadata148">
    <rdf:RDF>
      <cc:Work
         rdf:about="">
        <dc:title>Andes Logo.svg</dc:title>
      </cc:Work>
    </rdf:RDF>
  </metadata>
</svg>
