<?xml version="1.0" encoding="UTF-8" standalone="no"?>
<!-- Generator: Adobe Illustrator 22.1.0, SVG Export Plug-In . SVG Version: 6.00 Build 0)  -->

<svg
   version="1.1"
   id="Layer_1"
   x="0px"
   y="0px"
   viewBox="0 0 299.99999 120"
   xml:space="preserve"
   sodipodi:docname="antmicro.svg"
   width="300"
   height="120"
   inkscape:version="1.2.2 (1:1.2.2+202212051552+b0a8486541)"
   xmlns:inkscape="http://www.inkscape.org/namespaces/inkscape"
   xmlns:sodipodi="http://sodipodi.sourceforge.net/DTD/sodipodi-0.dtd"
   xmlns="http://www.w3.org/2000/svg"
   xmlns:svg="http://www.w3.org/2000/svg"><defs
   id="defs2987" /><sodipodi:namedview
   id="namedview2985"
   pagecolor="#ffffff"
   bordercolor="#666666"
   borderopacity="1.0"
   inkscape:showpageshadow="2"
   inkscape:pageopacity="0.0"
   inkscape:pagecheckerboard="0"
   inkscape:deskcolor="#d1d1d1"
   showgrid="false"
   inkscape:zoom="4.4256072"
   inkscape:cx="155.57187"
   inkscape:cy="79.311152"
   inkscape:window-width="3840"
   inkscape:window-height="2136"
   inkscape:window-x="3840"
   inkscape:window-y="0"
   inkscape:window-maximized="1"
   inkscape:current-layer="Layer_1" />
<style
   type="text/css"
   id="style2868">
	.st0{fill:#343137;}
	.st1{fill:url(#SVGID_1_);}
	.st2{fill:url(#SVGID_2_);}
	.st3{fill:url(#SVGID_3_);}
	.st4{fill:url(#SVGID_4_);}
</style>








<g
   id="g3541"
   transform="matrix(1.0677996,0,0,1.0677996,-30.688286,-23.907258)"><path
     class="st0"
     d="m 133.17182,93.062171 c -6.59039,0 -10.41444,-2.847698 -10.41444,-8.299005 0,-6.590387 6.50903,-9.193996 15.37757,-10.007624 v -1.708619 c 0,-3.742688 -2.03407,-5.451307 -5.85812,-5.451307 -2.35952,0 -4.96313,0.732265 -6.91584,1.708619 l -1.05771,-2.766336 c 2.27815,-1.139079 5.36994,-1.952707 8.38036,-1.952707 5.93949,0 9.60081,2.766335 9.60081,8.949908 v 17.655727 c -2.11543,1.139079 -5.4513,1.871344 -9.11263,1.871344 z m 4.96313,-15.947108 c -6.9972,0.813628 -11.06534,2.766335 -11.06534,7.56674 0,3.742689 2.27816,5.776759 6.59039,5.776759 1.70862,0 3.4986,-0.325452 4.55631,-0.894991 V 77.115063 Z"
     id="path2870"
     style="stroke-width:0.813628" /><path
     class="st0"
     d="M 163.84559,92.573994 V 73.616463 c 0,-4.149503 -1.70861,-6.183573 -6.18357,-6.183573 -1.87134,0 -3.41724,0.325451 -4.88177,0.894991 v 24.16475 H 148.3053 V 66.456537 c 2.52225,-1.139079 5.93948,-1.952707 9.35672,-1.952707 7.40402,0 10.65853,3.173149 10.65853,9.03127 v 18.957531 h -4.47496 z"
     id="path2872"
     style="stroke-width:0.813628" /><path
     class="st0"
     d="m 181.09451,92.818083 c -3.90542,0 -6.59039,-2.359521 -6.59039,-6.915838 V 67.921067 h -3.17315 v -2.766335 h 3.17315 v -6.346298 l 4.47495,-1.383168 v 7.729466 h 4.80041 v 2.766335 h -4.80041 v 17.981178 c 0,2.359521 1.13908,3.824051 3.41724,3.824051 0.48818,0 0.97635,-0.08136 1.38317,-0.162725 v 2.847698 c -0.73227,0.244088 -1.62726,0.406814 -2.68497,0.406814 z"
     id="path2874"
     style="stroke-width:0.813628" /><path
     class="st0"
     d="M 218.76548,92.573994 V 73.453737 c 0,-3.579963 -1.62725,-5.939484 -5.61403,-5.939484 -2.27816,0 -3.98678,1.057716 -5.36995,2.60361 v 22.537494 h -4.47495 V 72.721472 c 0,-3.173149 -1.70862,-5.288582 -5.77676,-5.288582 -2.11543,0 -3.57996,0.244089 -5.12585,0.894991 v 24.16475 h -4.3936 V 66.456537 c 2.68498,-1.139079 5.6954,-1.952707 9.43809,-1.952707 4.1495,0 6.42766,1.139079 8.21764,3.173149 1.87135,-1.952707 4.63768,-3.173149 7.89219,-3.173149 6.75311,0 9.68218,3.579963 9.68218,8.868544 v 19.120257 h -4.47496 z"
     id="path2876"
     style="stroke-width:0.813628" /><path
     class="st0"
     d="m 229.26128,92.573994 v -9.763535 -8.461731 -9.193996 h 2.44089 2.03407 v 6.9972 6.67175 13.831675 h -2.1968 -2.27816 z"
     id="path2878"
     style="stroke-width:0.813628" /><path
     class="st0"
     d="m 248.54426,93.062171 c -6.59038,0 -10.65852,-5.858121 -10.65852,-14.238489 0,-8.380368 4.06814,-14.23849 10.65852,-14.23849 2.52225,0 4.71905,0.650903 6.18358,1.789982 l -1.05772,2.684972 c -1.05772,-0.813628 -2.68497,-1.383167 -4.31223,-1.383167 -4.39359,0 -6.83447,4.719042 -6.83447,11.06534 0,6.183572 2.52224,11.146703 6.83447,11.146703 1.62726,0 3.17315,-0.488177 4.31223,-1.301805 l 1.13908,2.766335 c -1.54589,1.057717 -3.74269,1.708619 -6.26494,1.708619 z"
     id="path2880"
     style="stroke-width:0.813628" /><path
     class="st0"
     d="m 269.77995,68.165155 c -0.81362,-0.325451 -1.78998,-0.488176 -2.76633,-0.488176 -1.22044,0 -2.52225,0.244088 -3.4986,0.732265 v 24.16475 h -4.47495 V 66.537899 c 2.35952,-1.139079 5.4513,-1.952707 9.35672,-1.952707 1.05771,0 2.11543,0.08136 2.35952,0.162726 z"
     id="path2882"
     style="stroke-width:0.813628" /><path
     class="st0"
     d="m 282.30983,93.062171 c -7.40402,0 -10.82126,-6.020847 -10.82126,-14.238489 0,-8.217643 3.41724,-14.23849 10.82126,-14.23849 7.40401,0 10.82125,6.020847 10.82125,14.23849 0,8.299005 -3.41724,14.238489 -10.82125,14.238489 z m 0,-25.629281 c -4.80041,0 -6.3463,5.125856 -6.3463,11.228066 0,6.10221 1.54589,11.390792 6.3463,11.390792 4.8004,0 6.34629,-5.207219 6.34629,-11.390792 0,-6.183572 -1.54589,-11.228066 -6.34629,-11.228066 z"
     id="path2884"
     style="stroke-width:0.813628" /><g
     id="g2982"
     transform="matrix(0.81362796,0,0,0.81362796,8.4426534,7.3057839)">
	<path
   class="st0"
   d="m 88.3,88.4 h 5.8 3.5 c 0.3,1.2 1.4,2 2.6,2 1.5,0 2.7,-1.2 2.7,-2.7 0,-1.5 -1.2,-2.8 -2.7,-2.8 -1.3,0 -2.3,0.9 -2.6,2.1 H 93 88.3 v -4 h 4.3 c 0,0 0.4,0 0.6,-0.1 0.4,-0.3 1.4,-1.3 1.4,-1.3 l 2.7,-2.7 c 0.4,0.2 0.8,0.3 1.3,0.3 1.5,0 2.7,-1.2 2.7,-2.7 0,-1.5 -1.2,-2.7 -2.7,-2.7 -1.5,0 -2.7,1.2 -2.7,2.7 0,0.5 0.2,1 0.4,1.5 l -3.2,3.2 c 0,0 -0.4,0.4 -0.6,0.4 -0.1,0 -0.3,0 -0.3,0 h -3.9 v -1.7 -4.4 c 1.8,-0.3 3.1,-1.9 3.1,-3.8 0,-2.1 -1.7,-3.9 -3.8,-3.9 -2.1,0 -3.9,1.7 -3.9,3.9 0,1.9 1.4,3.4 3.1,3.8 v 6.1 H 83 c 0,0 -0.2,0 -0.3,0 -0.2,-0.1 -0.6,-0.4 -0.6,-0.4 L 78.9,78 c 0.3,-0.4 0.4,-0.9 0.4,-1.5 0,-1.5 -1.2,-2.7 -2.7,-2.7 -1.5,0 -2.7,1.2 -2.7,2.7 0,1.5 1.2,2.7 2.7,2.7 0.5,0 0.9,-0.1 1.3,-0.3 l 2.7,2.7 c 0,0 1,1 1.4,1.3 0.2,0.2 0.6,0.1 0.6,0.1 h 4.3 v 2.8 1.2 h -4.4 -4.9 c -0.3,-1.2 -1.4,-2.1 -2.6,-2.1 -1.5,0 -2.7,1.3 -2.7,2.8 0,1.5 1.2,2.7 2.7,2.7 1.3,0 2.3,-0.8 2.6,-2 h 4.9 4.4 v 3.9 h -4.3 c 0,0 -0.4,0 -0.6,0.1 -0.4,0.3 -1.4,1.3 -1.4,1.3 l -2.7,2.7 c -0.4,-0.2 -0.8,-0.3 -1.3,-0.3 -1.5,0 -2.7,1.2 -2.7,2.7 0,1.5 1.2,2.7 2.7,2.7 1.5,0 2.7,-1.2 2.7,-2.7 0,-0.5 -0.2,-1 -0.4,-1.5 l 3.2,-3.2 c 0,0 0.4,-0.4 0.6,-0.4 0.1,0 0.3,0 0.3,0 h 3.9 v 2.8 3.3 c -1.8,0.3 -3.1,1.9 -3.1,3.8 0,2.1 1.7,3.9 3.9,3.9 2.1,0 3.8,-1.7 3.8,-3.9 0,-1.9 -1.4,-3.4 -3.1,-3.8 v -6.1 h 3.9 c 0,0 0.2,0 0.3,0 0.2,0.1 0.6,0.4 0.6,0.4 l 3.2,3.2 c -0.3,0.4 -0.4,0.9 -0.4,1.5 0,1.5 1.2,2.7 2.7,2.7 1.5,0 2.7,-1.2 2.7,-2.7 0,-1.5 -1.2,-2.7 -2.7,-2.7 -0.5,0 -0.9,0.1 -1.3,0.3 l -2.7,-2.7 c 0,0 -1,-1 -1.4,-1.3 -0.2,-0.2 -0.6,-0.1 -0.6,-0.1 H 88.4 V 90 88.4 Z m 12,-2.1 c 0.7,0 1.3,0.6 1.3,1.3 0,0.7 -0.6,1.3 -1.3,1.3 -0.7,0 -1.3,-0.6 -1.3,-1.3 -0.1,-0.7 0.5,-1.3 1.3,-1.3 z M 98.6,75.1 c 0.7,0 1.3,0.6 1.3,1.3 0,0.7 -0.6,1.3 -1.3,1.3 -0.7,0 -1.3,-0.6 -1.3,-1.3 0,-0.7 0.6,-1.3 1.3,-1.3 z m -22,2.7 c -0.7,0 -1.3,-0.6 -1.3,-1.3 0,-0.7 0.6,-1.3 1.3,-1.3 0.7,0 1.3,0.6 1.3,1.3 0,0.7 -0.6,1.3 -1.3,1.3 z M 74.9,89 c -0.7,0 -1.3,-0.6 -1.3,-1.3 0,-0.7 0.6,-1.3 1.3,-1.3 0.7,0 1.3,0.6 1.3,1.3 0.1,0.7 -0.5,1.3 -1.3,1.3 z m 1.7,11.2 c -0.7,0 -1.3,-0.6 -1.3,-1.3 0,-0.7 0.6,-1.3 1.3,-1.3 0.7,0 1.3,0.6 1.3,1.3 0,0.7 -0.6,1.3 -1.3,1.3 z m 22,-2.7 c 0.7,0 1.3,0.6 1.3,1.3 0,0.7 -0.6,1.3 -1.3,1.3 -0.7,0 -1.3,-0.6 -1.3,-1.3 0,-0.7 0.6,-1.3 1.3,-1.3 z m -11,8.5 c -1.3,0 -2.4,-1.1 -2.4,-2.4 0,-1.3 1.1,-2.4 2.4,-2.4 1.3,0 2.4,1.1 2.4,2.4 0,1.3 -1,2.4 -2.4,2.4 z m 0,-36.7 c 1.3,0 2.4,1.1 2.4,2.4 0,1.3 -1.1,2.4 -2.4,2.4 -1.3,0 -2.4,-1.1 -2.4,-2.4 0,-1.3 1.1,-2.4 2.4,-2.4 z"
   id="path2886" />
	<linearGradient
   id="SVGID_1_"
   gradientUnits="userSpaceOnUse"
   x1="54.0117"
   y1="107.2878"
   x2="54.0117"
   y2="63.4953">
		<stop
   offset="0"
   style="stop-color:#2D2E32"
   id="stop2888" />
		<stop
   offset="2.350235e-02"
   style="stop-color:#3E4044"
   id="stop2890" />
		<stop
   offset="7.545573e-02"
   style="stop-color:#5C6268"
   id="stop2892" />
		<stop
   offset="0.1331"
   style="stop-color:#778087"
   id="stop2894" />
		<stop
   offset="0.1951"
   style="stop-color:#8E9AA3"
   id="stop2896" />
		<stop
   offset="0.2629"
   style="stop-color:#A1B0BA"
   id="stop2898" />
		<stop
   offset="0.3384"
   style="stop-color:#B0C3CD"
   id="stop2900" />
		<stop
   offset="0.425"
   style="stop-color:#BCD1DB"
   id="stop2902" />
		<stop
   offset="0.5293"
   style="stop-color:#C4DBE6"
   id="stop2904" />
		<stop
   offset="0.6697"
   style="stop-color:#C9E1EC"
   id="stop2906" />
		<stop
   offset="1"
   style="stop-color:#CAE3EE"
   id="stop2908" />
	</linearGradient>
	<path
   class="st1"
   d="m 62.7,52.8 -14.5,8.4 c -1.7,0.9 -2.9,2.6 -2.9,4.7 0,0.2 0,0.3 0,0.5 v 21.1 0.5 3.6 c 3.9,5.6 9.7,10.5 16,13.2 0,0 -0.5,-0.5 -0.6,-0.6 -0.4,-0.5 -0.7,-1.1 -0.8,-1.8 0,-0.1 0,-0.6 0,-0.7 v -0.2 -13.8 0 -14 c 0,-0.1 0,-0.2 0,-0.3 0,-0.4 0.1,-0.7 0.2,-1 -0.2,-1.6 -0.3,-3.2 -0.3,-4.9 0,-5.2 1,-10.2 2.9,-14.7 z"
   id="path2911"
   style="fill:url(#SVGID_1_)" />
	<linearGradient
   id="SVGID_2_"
   gradientUnits="userSpaceOnUse"
   x1="83.439102"
   y1="130.0435"
   x2="42.869099"
   y2="89.473602">
		<stop
   offset="0"
   style="stop-color:#2D2E32"
   id="stop2913" />
		<stop
   offset="2.350235e-02"
   style="stop-color:#3E4044"
   id="stop2915" />
		<stop
   offset="7.545573e-02"
   style="stop-color:#5C6268"
   id="stop2917" />
		<stop
   offset="0.1331"
   style="stop-color:#778087"
   id="stop2919" />
		<stop
   offset="0.1951"
   style="stop-color:#8E9AA3"
   id="stop2921" />
		<stop
   offset="0.2629"
   style="stop-color:#A1B0BA"
   id="stop2923" />
		<stop
   offset="0.3384"
   style="stop-color:#B0C3CD"
   id="stop2925" />
		<stop
   offset="0.425"
   style="stop-color:#BCD1DB"
   id="stop2927" />
		<stop
   offset="0.5293"
   style="stop-color:#C4DBE6"
   id="stop2929" />
		<stop
   offset="0.6697"
   style="stop-color:#C9E1EC"
   id="stop2931" />
		<stop
   offset="1"
   style="stop-color:#CAE3EE"
   id="stop2933" />
	</linearGradient>
	<path
   class="st2"
   d="M 45.3,91.5 V 109 c 0,0.2 0,0.3 0,0.5 0,2 1.2,3.8 2.9,4.7 l 19.1,11 c 0.7,0 1.4,0.1 2,0.1 8.1,0 15.6,-2.7 21.7,-7.3 l -1.5,0.9 c -0.5,0.4 -1.2,0.6 -1.9,0.6 -0.2,0 -0.5,0 -0.7,-0.1 -0.4,-0.1 -0.8,-0.2 -1.2,-0.5 l -24,-13.8 C 61.5,104.8 50.5,99.2 45.3,91.5 Z"
   id="path2936"
   style="fill:url(#SVGID_2_)" />
	<linearGradient
   id="SVGID_3_"
   gradientUnits="userSpaceOnUse"
   x1="67.314903"
   y1="118.8305"
   x2="115.521"
   y2="118.8305">
		<stop
   offset="0"
   style="stop-color:#7E2D2F"
   id="stop2938" />
		<stop
   offset="3.716034e-02"
   style="stop-color:#883031"
   id="stop2940" />
		<stop
   offset="0.1348"
   style="stop-color:#9E3836"
   id="stop2942" />
		<stop
   offset="0.2479"
   style="stop-color:#B13E39"
   id="stop2944" />
		<stop
   offset="0.3843"
   style="stop-color:#BF433C"
   id="stop2946" />
		<stop
   offset="0.5679"
   style="stop-color:#C8463E"
   id="stop2948" />
		<stop
   offset="1"
   style="stop-color:#CA473E"
   id="stop2950" />
	</linearGradient>
	<path
   class="st3"
   d="m 115.2,102.7 c -0.2,0.9 -0.8,1.7 -1.6,2.2 0,0 -22.6,13 -22.6,13 -7,4 -13.6,7.3 -21.7,7.3 -0.7,0 -1.4,0 -2,-0.1 l 17.5,10.1 c 0.8,0.5 1.8,0.8 2.8,0.8 1.1,0 2,-0.3 2.9,-0.9 l 17.1,-9.9 c 0,0 0.3,-0.4 0.4,-0.7 4.5,-6.1 7.4,-15.1 7.5,-23.2 0,0.1 -0.2,1.2 -0.3,1.4 z"
   id="path2953"
   style="fill:url(#SVGID_3_)" />
	<path
   class="st0"
   d="m 129.9,65.8 c 0,-1.9 -1,-3.6 -2.6,-4.5 h -0.1 c 0,0 -0.1,0 -0.1,-0.1 L 108.5,50.5 c -1.1,-0.6 -2.2,-1 -2.2,-1 0,0 -1,-0.4 -1.4,-0.4 -6.7,0.2 -17.6,2.9 -18.5,7 0.1,0 0.4,-0.1 0.4,-0.1 0.2,0 0.4,-0.1 0.7,-0.1 0.7,0 1.3,0.2 1.9,0.6 l 24,13.8 c 0,0 0,0 0.1,0 v 0 c 0.3,0.2 0.6,0.4 0.9,0.7 0.5,0.6 0.8,1.4 0.8,2.2 0,0 0,0 0,0.1 0,0 0,0 0,0 0,0 0,1.2 0,28.3 0,13.9 -7.9,23.6 -7.7,23.6 1.1,-0.7 19.5,-11.3 19.5,-11.3 0,0 0.1,0 0.1,-0.1 h 0.1 c 0,0 0,0 0,0 1.6,-0.9 2.6,-2.6 2.6,-4.5 0.1,0.2 0.1,-43.4 0.1,-43.5 z"
   id="path2955" />
	<linearGradient
   id="SVGID_4_"
   gradientUnits="userSpaceOnUse"
   x1="98.526398"
   y1="44.275902"
   x2="55.484001"
   y2="67.7537">
		<stop
   offset="0"
   style="stop-color:#2D2E32"
   id="stop2957" />
		<stop
   offset="2.350235e-02"
   style="stop-color:#3E4044"
   id="stop2959" />
		<stop
   offset="7.545573e-02"
   style="stop-color:#5C6268"
   id="stop2961" />
		<stop
   offset="0.1331"
   style="stop-color:#778087"
   id="stop2963" />
		<stop
   offset="0.1951"
   style="stop-color:#8E9AA3"
   id="stop2965" />
		<stop
   offset="0.2629"
   style="stop-color:#A1B0BA"
   id="stop2967" />
		<stop
   offset="0.3384"
   style="stop-color:#B0C3CD"
   id="stop2969" />
		<stop
   offset="0.425"
   style="stop-color:#BCD1DB"
   id="stop2971" />
		<stop
   offset="0.5293"
   style="stop-color:#C4DBE6"
   id="stop2973" />
		<stop
   offset="0.6697"
   style="stop-color:#C9E1EC"
   id="stop2975" />
		<stop
   offset="1"
   style="stop-color:#CAE3EE"
   id="stop2977" />
	</linearGradient>
	<path
   class="st4"
   d="m 61.8,70.3 24,-13.8 c 0.3,-0.2 11.7,-6.2 20.3,-6.1 0.9,0 1.7,0 2.5,0.1 L 90.5,40.1 c -0.8,-0.5 -1.8,-0.9 -2.9,-0.9 -1,0 -2,0.3 -2.8,0.8 l -19,11 -3.1,1.8 c -1.9,4.5 -3,9.5 -3,14.7 0,1.7 0.1,3.3 0.3,4.9 0.4,-0.9 1,-1.6 1.8,-2.1 z"
   id="path2980"
   style="fill:url(#SVGID_4_)" />
</g></g>
</svg>
