<?xml version="1.0" encoding="UTF-8" standalone="no"?>
<svg
   role="img"
   viewBox="11.37 44.37 249.99999 100"
   version="1.1"
   id="svg40"
   sodipodi:docname="Gaisler.svg"
   inkscape:version="1.2.2 (1:1.2.2+202212051552+b0a8486541)"
   width="250"
   height="100"
   xml:space="preserve"
   xmlns:inkscape="http://www.inkscape.org/namespaces/inkscape"
   xmlns:sodipodi="http://sodipodi.sourceforge.net/DTD/sodipodi-0.dtd"
   xmlns="http://www.w3.org/2000/svg"
   xmlns:svg="http://www.w3.org/2000/svg"
   xmlns:rdf="http://www.w3.org/1999/02/22-rdf-syntax-ns#"
   xmlns:cc="http://creativecommons.org/ns#"
   xmlns:dc="http://purl.org/dc/elements/1.1/"><defs
     id="defs44"><style
       id="style18453">.b{fill:#fff;}.c{fill:#e35530;}.d{fill:#303030;}</style></defs><sodipodi:namedview
     id="namedview42"
     pagecolor="#ffffff"
     bordercolor="#666666"
     borderopacity="1.0"
     inkscape:showpageshadow="2"
     inkscape:pageopacity="0.0"
     inkscape:pagecheckerboard="0"
     inkscape:deskcolor="#d1d1d1"
     showgrid="false"
     inkscape:zoom="3.3484318"
     inkscape:cx="143.50001"
     inkscape:cy="112.4407"
     inkscape:window-width="1871"
     inkscape:window-height="1251"
     inkscape:window-x="5763"
     inkscape:window-y="15"
     inkscape:window-maximized="0"
     inkscape:current-layer="svg40" /><title
     id="title2">Andes Logo.svg</title><style
     id="style4">svg {enable-background:new 0 0 400 245}</style><style
     id="style6">.st1{fill:#1c2e6c}</style><metadata
     id="metadata148"><rdf:RDF><cc:Work
         rdf:about=""><dc:title>Andes Logo.svg</dc:title></cc:Work></rdf:RDF></metadata><style
     type="text/css"
     id="style16209">
	.st0{fill:#E60019;}
	.st1{fill:#FFFFFF;}
</style><g
     id="g18500"
     transform="matrix(0.11710808,0,0,0.1208577,6.6844446,59.908542)"><rect
       class="b"
       width="2214.46"
       height="554.65002"
       id="rect18457"
       x="0"
       y="0" /><path
       class="d"
       d="M 306.66,224.7 H 184.15 v -38.6 h 122.51 z m 1604.55,-38.6 v 38.6 h 122.5 V 186.1 Z M 906.42,224.7 h 180.46 V 186.1 H 906.42 Z m 0,62.78 h 68.69 v 81.07 h 43.08 v -81.07 h 68.69 V 248.9 H 906.42 Z M 184.16,248.9 v 119.65 h 43.27 v -81.07 h 79.24 V 248.9 Z m 1727.06,119.65 h 122.5 v -38.62 h -79.24 v -42.45 h 79.24 V 248.9 h -122.5 z M 454.98,303.13 499.03,368.55 H 449.25 L 410.41,308.6 h -31.28 v 59.95 H 336.38 V 186.1 h 91.23 c 40.66,0 64.64,31.28 64.64,61.51 0,23.46 -13.03,45.61 -37.27,55.52 z m -4.69,-55.52 c 0,-12.51 -10.69,-22.94 -23.98,-22.94 h -47.18 v 46.13 h 45.35 c 15.38,0 25.8,-10.43 25.8,-23.2 z m 247.65,29.71 c 0,53.95 -40.92,94.87 -96.7,94.87 -55.78,0 -96.7,-40.92 -96.7,-94.87 0,-53.95 40.92,-94.87 96.7,-94.87 55.78,0 96.7,40.92 96.7,94.87 z m -43.79,0 c 0,-31.02 -20.85,-55 -52.91,-55 -32.06,0 -52.91,23.98 -52.91,55 0,31.02 20.85,55 52.91,55 32.06,0 52.91,-23.72 52.91,-55 z m 182.31,13.29 -82.1,-104.52 h -35.19 v 182.45 h 43.27 V 264.02 l 82.1,104.52 h 35.19 V 186.1 h -43.27 v 104.52 z m 610.15,12.51 44.05,65.42 h -49.78 l -38.84,-59.95 h -31.28 v 59.95 h -42.75 V 186.1 h 91.23 c 40.66,0 64.64,31.28 64.64,61.51 0,23.46 -13.03,45.61 -37.27,55.52 z m -4.69,-55.52 c 0,-12.51 -10.69,-22.94 -23.98,-22.94 h -47.18 v 46.13 h 45.35 c 15.38,0 25.8,-10.43 25.8,-23.2 z m 184.87,-61.51 67.51,182.45 h -44.57 l -12.77,-34.93 h -77.15 l -12.77,34.93 h -44.57 l 67.51,-182.45 h 56.82 z m -3.65,109.73 -24.76,-68.29 -24.76,68.29 z m 261.04,-18.51 c 0,52.91 -34.15,91.23 -86.27,91.23 h -84.19 V 186.1 h 84.19 c 51.35,0 86.27,37.01 86.27,91.23 z m -43.79,-0.78 c 0,-32.06 -19.03,-51.61 -43.53,-51.61 h -40.4 V 329.7 h 40.4 c 24.5,0 43.53,-21.11 43.53,-53.17 z m -627.47,25.28 h 47.96 c -3.39,15.12 -17.72,30.23 -44.05,30.23 -38.31,0 -57.86,-26.59 -57.86,-55 0,-28.41 21.37,-53.95 52.91,-53.95 22,0 35.48,8.13 44.3,20.88 h 45.72 c -0.35,-1.48 -0.87,-3.15 -1.65,-4.98 -11.21,-30.23 -42.22,-56.56 -88.88,-56.56 -54.47,0 -96.18,40.92 -96.18,94.87 0,53.95 41.44,94.87 98.26,94.87 56.82,0 92.79,-36.49 92.79,-85.75 v -21.63 h -93.31 v 37.01 z"
       id="path18459" /><rect
       class="c"
       x="184.16"
       y="186.10001"
       width="122.51"
       height="38.599998"
       id="rect18461" /><rect
       class="c"
       x="906.41998"
       y="186.10001"
       width="180.46001"
       height="38.599998"
       id="rect18463" /><rect
       class="c"
       x="1911.22"
       y="186.10001"
       width="122.5"
       height="38.599998"
       id="rect18465" /><g
       id="g18481"><path
         class="c"
         d="m 1711.45,419.45 c -3.9,-6.91 -10.15,-10.37 -18.73,-10.37 -12.15,0 -20.4,7.8 -20.4,25.2 0,15.5 6.91,25.2 20.4,25.2 7.25,0 16.72,-4.24 17.62,-14.38 h -17.62 v -15.39 h 34.34 v 44.26 h -15.39 v -7.14 c -5.24,5.91 -13.27,9.37 -23.08,9.37 -23.97,0 -36.12,-17.5 -36.12,-41.59 0,-24.09 13.04,-42.26 38.91,-42.26 15.72,0 28.65,6.8 36.57,19.85 z"
         id="path18467" /><path
         class="c"
         d="m 1790.73,461.6 c 0,4.12 0.11,8.7 1.56,12.38 h -16.06 c -0.78,-2.12 -1,-4.01 -1.12,-6.13 h -0.22 c -2.9,4.68 -11.6,7.69 -17.84,7.69 -11.26,0 -19.85,-6.35 -19.85,-17.62 0,-14.27 11.37,-19.29 30.44,-21.96 l 6.35,-0.89 v -4.91 c 0,-4.46 -3.46,-6.35 -8.25,-6.35 -5.69,0 -8.25,2.01 -9.14,7.92 h -16.72 c 0.56,-17.06 16.39,-18.62 24.42,-18.62 16.17,0 26.42,3.79 26.42,17.17 v 31.33 z m -16.72,-16.5 -11.71,3.35 c -4.35,1.23 -8.36,2.9 -8.36,7.69 0,4.79 3.79,6.69 8.14,6.69 6.8,0 11.93,-4.57 11.93,-13.6 z"
         id="path18469" /><path
         class="c"
         d="m 1806.78,407.97 v -13.38 h 17.39 v 13.38 z m 17.39,6.69 v 59.32 h -17.39 v -59.32 z"
         id="path18471" /><path
         class="c"
         d="m 1878.25,432.16 c -3.57,-4.13 -10.93,-6.36 -16.39,-6.36 -4.35,0 -7.47,1.56 -7.47,4.57 0,10.26 35.12,1.67 35.12,23.97 0,15.61 -13.83,21.18 -26.76,21.18 -12.93,0 -20.29,-3.68 -28.99,-11.71 l 10.81,-9.37 c 5.35,5.24 10.7,8.36 18.73,8.36 3.01,0 9.48,-0.67 9.48,-6.02 0,-9.25 -35.12,-1.9 -35.12,-22.97 0,-14.94 13.04,-20.74 25.09,-20.74 9.25,0 18.17,3.23 26.2,8.58 l -10.7,10.48 z"
         id="path18473" /><path
         class="c"
         d="m 1901.78,473.97 v -79.38 h 17.39 v 79.38 z"
         id="path18475" /><path
         class="c"
         d="m 1947.94,447.88 c 0,11.37 7.47,14.94 12.93,14.94 6.47,0 9.48,-3.34 14.5,-10.48 l 13.04,6.8 c -6.13,11.15 -15.39,16.39 -28.77,16.39 -18.4,0 -29.1,-12.71 -29.1,-29.43 0,-21.07 10.93,-33 29.1,-33 21.63,0 29.1,16.5 29.1,34.79 h -40.81 z m 23.41,-10.7 c -0.56,-8.58 -6.8,-11.37 -11.82,-11.37 -5.02,0 -10.93,3.57 -11.82,11.37 z"
         id="path18477" /><path
         class="c"
         d="m 2000.9,414.66 h 17.39 v 6.02 c 3.9,-3.57 10.03,-5.8 16.28,-6.24 l 0.11,15.39 -1.9,0.22 c -10.37,1.23 -14.49,3.01 -14.49,9.59 v 34.34 h -17.39 z"
         id="path18479" /></g></g></svg>
