<?xml version="1.0" encoding="UTF-8" standalone="no"?>
<svg
   role="img"
   viewBox="11.37 44.37 199.99999 80"
   version="1.1"
   id="svg40"
   sodipodi:docname="Hipeac.svg"
   inkscape:version="1.2.2 (1:1.2.2+202212051552+b0a8486541)"
   width="200"
   height="80"
   xml:space="preserve"
   xmlns:inkscape="http://www.inkscape.org/namespaces/inkscape"
   xmlns:sodipodi="http://sodipodi.sourceforge.net/DTD/sodipodi-0.dtd"
   xmlns="http://www.w3.org/2000/svg"
   xmlns:svg="http://www.w3.org/2000/svg"
   xmlns:rdf="http://www.w3.org/1999/02/22-rdf-syntax-ns#"
   xmlns:cc="http://creativecommons.org/ns#"
   xmlns:dc="http://purl.org/dc/elements/1.1/"><defs
     id="defs44"><style
       id="style18453">.b{fill:#fff;}.c{fill:#e35530;}.d{fill:#303030;}</style></defs><sodipodi:namedview
     id="namedview42"
     pagecolor="#ffffff"
     bordercolor="#666666"
     borderopacity="1.0"
     inkscape:showpageshadow="2"
     inkscape:pageopacity="0.0"
     inkscape:pagecheckerboard="0"
     inkscape:deskcolor="#d1d1d1"
     showgrid="false"
     inkscape:zoom="1.9216862"
     inkscape:cx="290.1098"
     inkscape:cy="124.63013"
     inkscape:window-width="1871"
     inkscape:window-height="1251"
     inkscape:window-x="5763"
     inkscape:window-y="15"
     inkscape:window-maximized="0"
     inkscape:current-layer="svg40" /><title
     id="title2">Andes Logo.svg</title><style
     id="style4">svg {enable-background:new 0 0 400 245}</style><style
     id="style6">.st1{fill:#1c2e6c}</style><metadata
     id="metadata148"><rdf:RDF><cc:Work
         rdf:about=""><dc:title>Andes Logo.svg</dc:title></cc:Work></rdf:RDF></metadata><style
     type="text/css"
     id="style16209">
	.st0{fill:#E60019;}
	.st1{fill:#FFFFFF;}
</style><g
     fill-rule="evenodd"
     clip-rule="evenodd"
     id="g6"
     transform="matrix(0.21648539,0,0,0.21648539,54.549796,45.309782)"><path
       fill="#005eb8"
       d="M 7.502,251.803 34.273,82.29 h 34.49 L 58.552,146.936 H 98.179 L 108.39,82.29 h 34.49 L 116.107,251.803 H 81.619 L 93.453,176.884 H 53.824 l -11.832,74.919 z m 190.565,109.28 -17.299,-109.241 h 18.717 v -36.027 h 9.637 c 26.395,0 35.85,-7.721 35.85,-38.314 l -0.001,-21.927 c 0,-23.45 -11.597,-31.352 -32.921,-31.352 H 189.104 L 168.906,251.795 H 140.363 L 160.561,124.222 149.342,53.388 457.04,4.665 476.538,127.811 c -5.745,-3.575 -14.338,-5.32 -26.976,-5.32 h -10.709 c -21.945,0 -28.082,10.775 -24.822,31.378 l 11.306,71.401 c 2.657,16.755 12.242,27.71 34.183,27.71 h 10.71 c 12.462,0 20.572,-1.825 25.093,-6.541 l 10.441,65.92 z m 9.854,-168.613 h -8.436 v -44.901 h 8.261 c 4.993,0 6.542,1.218 6.542,5.394 v 30.283 c 0,6.961 -2.237,9.224 -6.367,9.224 m 50.243,-68.248 0.006,127.549 h 58.299 v -23.345 h -29.062 v -31.624 h 25.006 v -22.017 l -25.006,0.003 -0.002,-27.223 h 26.949 l -0.004,-23.344 h -56.186 z m 110.954,17.544 6.908,57.239 h -14.175 l 6.91,-57.242 z m -24.097,-17.614 -19.309,127.689 h 29.942 l 3.716,-30.824 h 19.136 l 3.723,30.824 h 29.94 L 392.856,124.152 Z m 114.094,27.098 2.627,16.586 h 21.135 l 5.777,36.48 h -21.137 l 3.152,19.902 c 0.61,3.842 -1.728,5.413 -6.547,5.413 -4.824,0 -7.657,-1.568 -8.267,-5.413 l -11.559,-72.969 c -0.605,-3.84 1.728,-5.414 6.722,-5.414 4.655,0.001 7.489,1.575 8.097,5.415"
       id="path2" /><path
       fill="#ffe800"
       d="m 167.256,82.192 h 28.479 l -3.981,25.135 h -28.479 z"
       id="path4" /></g></svg>
