<?xml version="1.0" encoding="UTF-8" standalone="no"?>
<svg
   viewBox="0 0 300 120"
   height="120"
   width="300"
   xml:space="preserve"
   id="svg2"
   version="1.1"
   sodipodi:docname="imperas.svg"
   inkscape:version="1.2.2 (1:1.2.2+202212051552+b0a8486541)"
   xmlns:inkscape="http://www.inkscape.org/namespaces/inkscape"
   xmlns:sodipodi="http://sodipodi.sourceforge.net/DTD/sodipodi-0.dtd"
   xmlns="http://www.w3.org/2000/svg"
   xmlns:svg="http://www.w3.org/2000/svg"
   xmlns:rdf="http://www.w3.org/1999/02/22-rdf-syntax-ns#"
   xmlns:cc="http://creativecommons.org/ns#"
   xmlns:dc="http://purl.org/dc/elements/1.1/"><sodipodi:namedview
     id="namedview16"
     pagecolor="#ffffff"
     bordercolor="#666666"
     borderopacity="1.0"
     inkscape:showpageshadow="2"
     inkscape:pageopacity="0.0"
     inkscape:pagecheckerboard="0"
     inkscape:deskcolor="#d1d1d1"
     showgrid="false"
     inkscape:zoom="3.7735213"
     inkscape:cx="284.7473"
     inkscape:cy="68.901161"
     inkscape:window-width="3840"
     inkscape:window-height="2136"
     inkscape:window-x="3840"
     inkscape:window-y="0"
     inkscape:window-maximized="1"
     inkscape:current-layer="svg2" /><metadata
     id="metadata8"><rdf:RDF><cc:Work
         rdf:about=""><dc:format>image/svg+xml</dc:format><dc:type
           rdf:resource="http://purl.org/dc/dcmitype/StillImage" /></cc:Work></rdf:RDF></metadata><defs
     id="defs6" /><g
     transform="matrix(1.904218,0,0,-1.904218,20.477369,95.672478)"
     id="g10"><g
       transform="scale(0.1)"
       id="g12"><path
         id="path14"
         style="fill:#1e59ae;fill-opacity:1;fill-rule:nonzero;stroke:none"
         d="M 554.063,108.438 C 538.047,92.4023 515.859,84.2773 488.105,84.2773 c -10.085,0 -19.765,1.6016 -28.769,4.7852 l -9.988,3.4961 V 81.9727 15 h -40.356 v 255.254 h 40.356 V 257.91 l 11.519,7.324 c 8.762,5.567 18.86,8.399 30,8.399 29.121,0 51.145,-7.949 65.449,-23.594 14.497,-15.859 21.836,-40.254 21.836,-72.559 0,-29.804 -8.101,-53.027 -24.089,-69.042 z m 13.332,151.718 c -17.278,18.887 -43.02,28.477 -76.528,28.477 -9.461,0 -18.301,-1.781 -26.519,-5.028 v 1.649 h -7.5 -55.356 -7.5 v -7.5 V 7.5 0 h 7.5 55.356 7.5 v 7.5 64.5508 c 7.648,-1.7969 15.59,-2.7735 23.757,-2.7735 31.875,0 57.637,9.6094 76.563,28.5547 18.906,18.926 28.484,45.723 28.484,79.648 0,36.153 -8.672,63.985 -25.757,82.676" /><path
         id="path16"
         style="fill:#1e59ae;fill-opacity:1;fill-rule:nonzero;stroke:none"
         d="M 355.652,87.6953 H 315.293 V 202.402 c 0,25.215 -11.5,38.008 -34.18,38.008 -6.804,0 -13.175,-1.953 -19.468,-5.957 -5.5,-3.476 -9.672,-7.695 -12.375,-12.539 l -0.954,-1.699 V 218.262 87.6953 H 207.953 V 209.16 c 0,9.492 -3.004,17.168 -8.93,22.793 -6.019,5.684 -14.16,8.457 -24.902,8.457 -5.715,0 -11.949,-2.129 -18.535,-6.289 -5.699,-3.594 -10.191,-7.793 -13.328,-12.441 l -1.281,-1.895 V 217.48 87.6953 H 100.613 V 270.254 h 27.418 l 4.664,-8.672 4.434,-8.223 7.074,6.114 c 10.852,9.394 24.352,14.16 40.137,14.16 21.523,0 38.535,-5.371 50.566,-15.957 l 4.949,-4.356 4.954,4.336 c 4.855,4.258 11.027,7.832 18.336,10.606 9.484,3.554 19.089,5.371 28.531,5.371 20.144,0 36.023,-5.82 47.191,-17.305 11.145,-11.484 16.785,-27.539 16.785,-47.715 z m -6.023,179.0817 c -14.102,14.493 -33.606,21.856 -57.953,21.856 -11.242,0 -22.621,-2.129 -33.863,-6.348 -6.743,-2.562 -12.497,-5.918 -17.7,-9.644 -14.347,10.578 -33.047,15.992 -55.773,15.992 -16.121,0 -30.281,-4.336 -42.465,-12.442 l -2.754,5.118 -2.125,3.945 c -0.004,0 -4.48,0 -4.48,0 h -39.4027 -7.5 v -7.5 -197.5587 -7.5 h 7.5 55.3637 7.5 v 7.5 134.5627 c 1.918,2.355 4.359,4.617 7.628,6.668 5.18,3.301 8.579,3.984 10.516,3.984 6.731,0 11.5,-1.426 14.586,-4.336 1.816,-1.738 4.246,-4.863 4.246,-11.914 v -128.9647 -7.5 h 7.5 55.363 7.5 v 7.5 135.6327 c 1.497,2.141 3.524,4.168 6.356,5.969 3.887,2.461 7.516,3.613 11.441,3.613 12.149,0 19.18,-3.769 19.18,-23.008 v -122.2067 -7.5 h 7.5 55.359 7.5 v 7.5 128.4177 c 0,24.2 -7.066,43.77 -21.023,58.164" /><path
         id="path18"
         style="fill:#1e59ae;fill-opacity:1;fill-rule:nonzero;stroke:none"
         d="m 675.664,206.406 c 6.746,20.899 19.91,30.801 41.055,30.801 23.242,0 36.289,-9.902 40.761,-30.801 -11.816,0 -68.828,0 -81.816,0 z m 114.57,54.903 c -18.691,18.398 -43.652,27.734 -74.211,27.734 -28.843,0 -53.933,-10.469 -74.539,-31.113 -20.605,-20.664 -31.035,-47.852 -31.035,-80.899 0,-33.515 9.571,-60.136 28.438,-79.1013 18.867,-19.0039 44.707,-28.6328 76.777,-28.6328 33.926,0 59.981,7.1679 77.473,21.289 l 4.09,3.3008 -24.5,48.3013 -6.321,-6.348 c -9.734,-9.727 -24.492,-14.707 -43.867,-14.707 -15.312,0 -27.539,3.926 -36.348,11.621 -7.265,6.367 -11.543,14.902 -13.3,25.664 13.261,0 140.339,0 140.339,0 l 1.145,5.039 c 2.734,12.148 4.063,21.074 4.063,27.305 0,28.379 -9.493,52.109 -28.204,70.547" /><path
         id="path20"
         style="fill:#1e59ae;fill-opacity:1;fill-rule:nonzero;stroke:none"
         d="m 902.18,275.137 c 0,1.23 0,10.273 0,10.273 H 842.637 V 72.9492 H 902.18 V 193.027 c 0,12.676 3.613,23.047 11.023,31.739 7.156,8.359 14.961,12.441 23.867,12.441 8.711,0 16.504,-2.363 23.797,-7.227 l 6.137,-4.062 25.711,51.953 -5.281,3.027 c -9.543,5.489 -22.551,8.145 -39.739,8.145 -17.722,0 -32.968,-4.668 -45.515,-13.906" /><path
         id="path22"
         style="fill:#1e59ae;fill-opacity:1;fill-rule:nonzero;stroke:none"
         d="m 1110.16,154.629 c 0,-24.414 -10.94,-35.313 -35.49,-35.313 -21.73,0 -24.67,10.254 -24.67,20.274 0,12.695 5.05,29.551 48.73,29.551 2.66,0 6.49,-0.43 11.43,-1.309 0,-5.41 0,-13.203 0,-13.203 z m 72.36,-58.5938 c -8.52,5.4488 -13.03,20.8598 -13.03,44.5698 v 42.598 c 0,40.801 -7.6,68.027 -23.2,83.262 -15.36,15 -39.4,22.578 -71.47,22.578 -22.98,0 -43.18,-4.121 -60.03,-12.168 l -4.89,-2.363 13.63,-48.809 7,3.457 c 10.87,5.332 24.7,8.047 41.13,8.047 27.01,0 35.03,-10.273 37.24,-20.684 -4.35,0.743 -8.46,1.231 -12.05,1.231 -33.23,0 -59.41,-7.012 -77.81,-20.84 -18.96,-14.258 -28.591,-34.238 -28.591,-59.336 0,-21.601 6.953,-38.6132 20.681,-50.5663 13.46,-11.7578 31.96,-17.7148 54.96,-17.7148 12.25,0 24.15,2.3828 35.41,7.1094 7.43,3.1054 13.35,6.9726 18.1,11.3671 2.13,-3.2617 4.74,-6.3671 7.88,-9.3164 6.57,-6.0742 14.12,-9.1601 22.48,-9.1601 6.76,0 12.89,0.8984 18.24,2.6758 6.28,2.0507 11.81,7.2265 16.46,15.3906 l 3.07,5.332 -5.21,3.3399" /><path
         id="path24"
         style="fill:#1e59ae;fill-opacity:1;fill-rule:nonzero;stroke:none"
         d="m 1234.51,275.195 c -15.23,-10.351 -23.31,-25.371 -23.97,-44.726 -1.01,-28.418 16.94,-51.25 53.31,-67.813 18.45,-8.457 26.23,-13.945 29.51,-17.031 3.93,-3.73 5.72,-8.281 5.53,-13.945 -0.15,-4.16 -0.45,-12.871 -21.16,-12.129 -16.15,0.527 -30.07,6.015 -42.55,16.679 l -6.36,5.43 -24.21,-49.4139 5.23,-3.0469 c 12.85,-7.4414 23.21,-12.3437 31.67,-14.9609 8.46,-2.6172 19.74,-4.1797 33.51,-4.668 24.94,-0.8789 45.3,4.2383 60.51,15.1758 15.74,11.2891 24.08,27.4219 24.8,47.9299 0.52,15.312 -3.36,28.769 -11.56,39.98 -8.03,10.957 -21.35,20.528 -39.61,28.457 -20.75,8.985 -28.95,14.043 -32.19,16.7 -5.33,4.394 -5.2,7.734 -5.17,8.828 0.23,6.679 2.61,12.773 18.4,12.226 16.48,-0.586 29.24,-4.863 37.93,-12.773 l 6.83,-6.192 20.39,49.473 -5.04,2.793 c -18.77,10.371 -39.26,16.016 -60.92,16.777 -21.8,0.762 -40.27,-3.867 -54.88,-13.75" /><path
         id="path26"
         style="fill:#1e59ae;fill-opacity:1;fill-rule:nonzero;stroke:none"
         d="M 0,72.9102 H 59.8047 V 285.254 H 0 V 72.9102" /><path
         id="path28"
         style="fill:#f68b1a;fill-opacity:1;fill-rule:nonzero;stroke:none"
         d="m 0.03125,358.984 c 0,-3.945 0,-48.027 0,-48.027 H 59.8047 v 63.711 H 0 l 0.03125,-15.684" /><path
         id="path30"
         style="fill:#1e59ae;fill-opacity:1;fill-rule:nonzero;stroke:none"
         d="m 511.563,142.773 c -6.028,-6.562 -17.176,-9.902 -33.157,-9.902 -5.164,0 -9.789,1.152 -14.058,3.418 v 83.547 c 4.457,3.328 9.043,4.988 14.257,4.988 15.887,0 27.403,-3.203 33.297,-9.277 6.008,-6.211 9.192,-18.945 9.192,-36.856 0,-16.933 -3.203,-29.023 -9.531,-35.918 z m 11.105,83.223 c -8.918,9.18 -23.742,13.828 -44.063,13.828 -9.835,0 -18.847,-3.613 -26.781,-10.761 l -2.476,-2.247 v -3.339 -91.446 -3.906 l 3.211,-2.246 c 7.746,-5.391 16.191,-8.008 25.847,-8.008 20.356,0 35.239,4.981 44.211,14.766 8.946,9.746 13.477,25.234 13.477,46.054 0,22.52 -4.395,37.989 -13.426,47.305" /></g></g></svg>
