<?xml version="1.0" encoding="UTF-8" standalone="no"?>
<!-- Created with Inkscape (http://www.inkscape.org/) -->

<svg
   version="1.1"
   id="svg2758"
   width="250"
   height="100"
   viewBox="0 0 250 99.999998"
   sodipodi:docname="microchip.svg"
   inkscape:version="1.2.2 (1:1.2.2+202212051552+b0a8486541)"
   xmlns:inkscape="http://www.inkscape.org/namespaces/inkscape"
   xmlns:sodipodi="http://sodipodi.sourceforge.net/DTD/sodipodi-0.dtd"
   xmlns="http://www.w3.org/2000/svg"
   xmlns:svg="http://www.w3.org/2000/svg">
  <defs
     id="defs2762" />
  <sodipodi:namedview
     id="namedview2760"
     pagecolor="#ffffff"
     bordercolor="#000000"
     borderopacity="0.25"
     inkscape:showpageshadow="2"
     inkscape:pageopacity="0.0"
     inkscape:pagecheckerboard="0"
     inkscape:deskcolor="#d1d1d1"
     showgrid="false"
     inkscape:zoom="2.2497298"
     inkscape:cx="388.4911"
     inkscape:cy="90.01081"
     inkscape:window-width="3840"
     inkscape:window-height="2111"
     inkscape:window-x="0"
     inkscape:window-y="25"
     inkscape:window-maximized="1"
     inkscape:current-layer="g2766" />
  <g
     id="g2766"
     inkscape:groupmode="layer"
     inkscape:label="Page 1"
     transform="matrix(1.3333333,0,0,-1.3333333,0,179.57333)">
    <g
       id="g2768"
       transform="matrix(0.03110291,0,0,0.03110291,3.0072448,77.185883)">
      <path
         d="m 2222.52,434.758 -34.15,427.816 h -1.41 l -131.92,-341.59 c -12.2,-31.816 -39.22,-57.894 -77.06,-57.894 -37.8,0 -67.76,31.453 -77.05,57.894 l -129,337.317 h -1.4 l -37.07,-423.543 -125.85,0.09 64.27,603.062 c 4.22,33.3 31.52,71.21 68.65,71.21 56.93,0 79.72,-33.3 91.06,-66.59 L 1977.3,676.352 h 1.4 l 145.68,366.178 c 12.82,33.29 34.88,66.59 91.09,66.59 37.12,0 64.42,-37.91 68.63,-78.99 l 63.69,-595.282 -125.27,-0.09 v 0"
         style="fill:#231f20;fill-opacity:1;fill-rule:nonzero;stroke:none"
         id="path2770" />
      <path
         d="m 2414.36,944.836 h 117.31 V 434.848 h -117.31 v 509.988 0"
         style="fill:#231f20;fill-opacity:1;fill-rule:nonzero;stroke:none"
         id="path2772" />
      <path
         d="m 5188.68,944.836 h 117.28 V 434.848 h -117.28 v 509.988 0"
         style="fill:#231f20;fill-opacity:1;fill-rule:nonzero;stroke:none"
         id="path2774" />
      <path
         d="m 2596.6,765.91 c 0,149.344 57.16,184.559 153.21,184.559 h 125.36 c 151.74,0 171.46,9.871 170.48,-134.543 l -274.86,0.469 c -56.21,0 -64.69,-35.672 -64.69,-99.098 v -54.942 c 0,-73.941 10.57,-102.132 61.02,-102.132 l 282.84,0.222 c 0,-85.925 -1.13,-131.25 -108.21,-131.25 h -191.94 c -96.05,0 -153.21,35.243 -153.21,184.598 v 152.117 0"
         style="fill:#231f20;fill-opacity:1;fill-rule:nonzero;stroke:none"
         id="path2776" />
      <path
         d="m 3455.5,747.598 c 0,-36.618 -10.54,-53.528 -39.37,-53.528 h -195.26 v 123.985 h 185.67 c 33.6,0 48.96,-8.473 48.96,-53.555 z m 103.73,13.386 v 32.403 c 0,91.578 -22.08,151.449 -104.2,151.449 H 3114.22 V 434.848 h 106.65 v 132.433 h 186.62 c 33.15,0 43.69,-17.64 43.69,-71.156 v -61.277 h 106.65 v 86.621 c 0,83.82 -26.44,104.261 -58.12,112.734 v 1.391 c 48.99,16.926 59.52,57.082 59.52,125.39 v 0"
         style="fill:#231f20;fill-opacity:1;fill-rule:nonzero;stroke:none"
         id="path2778" />
      <path
         d="m 3733.06,662.355 c 0,-73.941 10.59,-102.132 61,-102.132 h 136.38 c 50.43,0 61,28.191 61,102.132 v 54.942 c 0,63.426 -10.57,102.16 -66.77,102.16 h -124.84 c -56.18,0 -66.77,-38.734 -66.77,-102.16 z m -109.5,103.555 c 0,149.344 57.14,184.559 153.2,184.559 h 170.99 c 96.04,0 153.2,-35.215 153.2,-184.559 V 613.793 c 0,-149.355 -57.16,-184.598 -153.2,-184.598 h -170.99 c -96.06,0 -153.2,35.243 -153.2,184.598 v 152.117 0"
         style="fill:#231f20;fill-opacity:1;fill-rule:nonzero;stroke:none"
         id="path2780" />
      <path
         d="m 4675.21,944.836 h 106.58 V 763.094 h 224.79 V 944.836 H 5113.2 V 434.848 H 5006.58 V 627.859 H 4781.79 V 434.848 h -106.58 v 509.988 0"
         style="fill:#231f20;fill-opacity:1;fill-rule:nonzero;stroke:none"
         id="path2782" />
      <path
         d="m 5721.25,744.094 c 0,-30.313 -9.59,-54.231 -34.59,-54.231 h -204.7 v 128.192 h 195.59 c 32.17,0 43.7,-19.735 43.7,-54.254 z m -16.32,200.742 H 5375.35 V 434.848 h 106.61 v 128.199 h 250.82 c 75.4,0 97.97,87.359 97.97,163.406 v 43.699 c 0,100.024 -24.5,174.684 -125.82,174.684 v 0"
         style="fill:#231f20;fill-opacity:1;fill-rule:nonzero;stroke:none"
         id="path2784" />
      <path
         d="m 4158.81,765.129 c 0,149.355 57.16,184.566 153.22,184.566 h 125.36 c 151.77,0 170.8,9.883 169.85,-134.535 l -274.25,0.461 c -56.19,0 -64.66,-35.672 -64.66,-99.074 v -54.93 c 0,-73.972 10.57,-102.156 60.97,-102.156 l 282.88,0.234 c 0,-85.937 -1.11,-131.269 -108.2,-131.269 h -191.95 c -96.06,0 -153.22,35.23 -153.22,184.574 v 152.129 0"
         style="fill:#231f20;fill-opacity:1;fill-rule:nonzero;stroke:none"
         id="path2786" />
      <path
         d="m 916.66,1313.05 c -65.512,18.81 -134.961,29.02 -206.976,29.02 C 318.199,1342.07 0.820313,1042.88 0.820313,673.758 0.820313,304.66 318.199,5.46094 709.684,5.46094 1069.44,5.46094 1366.38,258.16 1412.21,585.496 L 916.66,1313.05"
         style="fill:#ffffff;fill-opacity:1;fill-rule:nonzero;stroke:none"
         id="path2788" />
      <path
         d="m 902.602,467.012 c 0,0 -114.551,-167.043 -126.293,-182.992 -70.071,-95.219 -121.618,14.71 -121.618,14.71 l -364.5,572.977 c 0,0 67.84,95.227 120.946,170.703 58.414,83.09 111.035,25.09 128.574,-2.39 C 665.867,842.219 902.602,467.012 902.602,467.012 Z M 1004.7,1280.36 c -91.227,43.05 -175.583,64.41 -284.149,66.32 C 329.164,1353.49 6.60156,1057.6 0.0976563,685.773 -1,621.379 7.41797,558.953 24.1602,499.664 L 226.477,783.301 363.461,568.898 c 0,0 41.148,-46.668 9.941,-93.875 C 371.461,472.055 187.551,218.02 187.551,218.02 314.563,84.9414 493.266,3.67969 697.055,0.128906 894.766,-3.35156 1071.25,68.7695 1201.94,190.551 L 771.621,869.793 c 0,0 67.856,95.25 120.93,170.727 58.441,83.09 111.029,25.08 128.589,-2.39 126.17,-197.814 362.92,-573.017 362.92,-573.017 l 0.11,2.184 c 24.26,55.781 36.7,72.683 39.3,153.027 L 1004.7,1280.36 v 0"
         style="fill:#ee2223;fill-opacity:1;fill-rule:nonzero;stroke:none"
         id="path2790" />
      <path
         d="m 1171.96,1248.25 c 8.06,0 15.26,0.61 15.26,10.3 0,7.74 -7.06,9.23 -13.72,9.23 h -12.96 v -19.53 z m -11.42,-35.35 H 1151 v 62.98 h 23.97 c 14.86,0 22.25,-5.52 22.25,-17.93 0,-11.27 -7.08,-16.19 -16.31,-17.33 l 17.88,-27.72 h -10.68 l -16.62,27.31 h -10.95 v -27.31 0 m 11.54,-13.99 c 24.69,0 44.18,19.36 44.18,45.59 0,25.86 -19.49,45.36 -44.18,45.36 -24.98,0 -44.48,-19.5 -44.48,-45.36 0,-26.23 19.5,-45.59 44.48,-45.59 v 0 m -55.46,45.59 c 0,31.38 25.43,54.44 55.46,54.44 29.77,0 55.16,-23.06 55.16,-54.44 0,-31.6 -25.39,-54.71 -55.16,-54.71 -30.03,0 -55.46,23.11 -55.46,54.71 v 0"
         style="fill:#231f20;fill-opacity:1;fill-rule:nonzero;stroke:none"
         id="path2792" />
    </g>
  </g>
</svg>
