<svg xmlns="http://www.w3.org/2000/svg" role="img" viewBox="-3.05 -3.55 912.60 205.10"><title>Akeana-logo-outlined.svg</title><style>svg {enable-background:new 0 0 903.64 196.85}</style><style>.st1{fill:#231f20}</style><path d="M17.14 183.08l27.72-34.61.21.22 58.64-78.14-21.75-17.84-37.1 49.47V44.12h62.64V148.9h27.72V16.4H17.14"/><path fill="none" stroke="#ff1d25" stroke-linecap="round" stroke-linejoin="bevel" stroke-miterlimit="10" stroke-width="4.435" d="M17.14 183.08l27.72-34.61.21.22 58.64-78.14-21.75-17.84-37.1 49.47V44.12h62.64V148.9h27.72V16.4H17.14v166.68z"/><path d="M234.08 131.09h-39.34l-5.46 13.51H153.9l42.15-81.85h37.8l42.14 81.85H239.7l-5.62-13.51zm-7.19-17.7l-12.38-29.42-12.25 29.42h24.63zm60.26-50.64h34.65v30.93l36.3-30.93h46.08l-40.92 30.89 42.76 50.96h-42.67l-23.64-33.66-17.9 13.69v19.97h-34.65V62.75zm130.26 0h92.86v17.48h-58.13v13.01h53.93v16.69h-53.93v16.14h59.82v18.54h-94.54V62.75zm182.14 68.34h-39.34l-5.46 13.51h-35.38l42.15-81.85h37.8l42.14 81.85h-36.29l-5.62-13.51zm-7.18-17.7l-12.38-29.42-12.25 29.42h24.63zm60.32-50.64h32.36l42.22 45.28V62.75h32.66v81.85h-32.66l-41.99-44.94v44.94h-32.59V62.75z" class="st1"/><path d="M850.36 131.09h-39.34l-5.47 13.51h-35.38l42.15-81.85h37.8l42.13 81.85h-36.28l-5.61-13.51zm-7.18-17.7L830.8 83.96l-12.25 29.42h24.63z" class="st1"/></svg>