<svg xmlns="http://www.w3.org/2000/svg" role="img" viewBox="-19.70 -19.70 1024.40 417.40"><title>circuit_sutra.svg</title><style>svg {enable-background:new 0 0 986 378.9}</style><style>.st1{fill-rule:evenodd;clip-rule:evenodd;fill:#00aeef}.st2{fill:#2e3192}</style><path fill="#8ed8f8" fill-rule="evenodd" d="M99.5 80.5C336.8-13.8 629.8-59.9 514 141c-61.5 157.2 200.2 125.6 359.4 81.5-146.8 44.9-502.6 132-360-81.1C587.5-.8 319.4 22 99.5 80.5z" clip-rule="evenodd"/><path d="M99.5 80.5C328-5 614.3-44.3 514 141c-61.5 157.2 200.2 125.6 359.4 81.5-141 40.4-480.6 113.7-360-81.1C587.5-.8 319.4 22 99.5 80.5z" class="st1"/><path d="M72.3 164.8v15.8h-31c-6 0-10.4-.2-13.6-.8-10.8-2.2-18.6-8.2-23.2-18.4-3-6.6-4.6-15-4.6-25 0-11.8 2.4-21.6 7-29 3.4-5.4 7.8-9.4 13.4-11.8 5.6-2.6 13-3.8 21.8-3.8h30.2v15.8h-28c-8.4 0-14.6 2.4-18.6 6.8-3.2 3.8-4.8 10.6-4.8 20.4 0 13 2.4 21.6 7.6 25.8 3.6 2.8 9 4.2 16.6 4.2h27.2zm13-48.9h18v64.7h-18zm76.3-24h4.4c12.4 0 21.2 1.6 26 4.8 3.4 2.2 6 5 7.8 8.4 1.8 3.6 2.8 7.4 2.8 11.6 0 8.4-2.2 15-6.4 19.6-2.6 2.6-6.2 4.8-10.6 6.2 3.4 1.2 6.2 2.6 7.8 4 1.8 1.4 3.4 3.4 5 6 1 2.2 1.8 4.2 2.2 6.2.4 2 .8 4.8 1.2 8.6.4 6.4 1.2 11 2.2 13.4h-21.2c-.8-2-1.4-6.2-2-12.6-.6-5.2-1.6-9.2-2.8-11.8-1.4-2.8-3.6-5-6.4-6.6-2.4-1.4-5.8-2.2-10-2.6v-15.8h6.4c4.4 0 7.6-.8 9.4-2 3-2 4.4-5.4 4.4-10.4 0-5.4-2.2-8.8-6.4-10.4-1.6-.4-4-.8-7.4-.8h-6.4V91.9zM141.4 147v33.6h-18.8V91.9h39v15.8h-20.2v23.6h20.2V147h-20.2zm142.9 17.8v15.8h-31c-5.8 0-10.4-.2-13.4-.8-11-2.2-18.6-8.2-23.2-18.4-3.2-6.6-4.6-15-4.6-25 0-11.8 2.2-21.6 7-29 3.2-5.4 7.8-9.4 13.4-11.8 5.6-2.6 12.8-3.8 21.8-3.8h30v15.8h-27.8c-8.6 0-14.8 2.4-18.6 6.8-3.4 3.8-5 10.6-5 20.4 0 13 2.6 21.6 7.6 25.8 3.6 2.8 9.2 4.2 16.6 4.2h27.2zm31.3-72.9V145c0 4.4.2 7.6 1 10 .6 2.4 1.8 4.4 3.6 6 3.8 3.6 9 5.4 15.6 5.4 4.2 0 7.8-.6 11-2s5.4-3.4 6.6-6c1.2-2.4 2-7 2-13.4V91.9h18.8v52.3c0 6.8-.8 12.6-2.2 17-1.4 4.6-3.6 8.2-6.8 11-7 6.2-16.8 9.2-29.8 9.2-13.6 0-23.8-3-30-9-3.4-3.2-5.6-6.8-6.8-10.6-1.4-3.8-2-9.2-2-16.2V91.9h19zm75.7 0h18.8v88.7h-18.8zm56.8 15.8h-28.2V91.9h76.3v15.8H467v72.9h-18.9zm90.8 72.9v-15.8h40.6c6.4 0 10.8-.6 13-1.8 3-2 4.6-4.8 4.6-8.4 0-4.4-1.8-7.6-5.4-9.6-2.2-1-5.4-1.6-10-1.6h-16.4c-10.2 0-17.4-1.8-21.8-5.4-2.8-2.4-5-5.2-6.6-8.8-1.4-3.4-2.2-7.2-2.2-11.2 0-6.2 1.8-11.8 5.4-17 3.6-5 9.2-8 17.2-8.8 2.6-.2 6.6-.4 11.8-.4H613v15.8h-39.8c-5.8.2-9.8.4-11.8.8-4 1-6 4-6 9 0 4.4 1.6 7.2 5 8.6 2.2 1 6 1.6 11.2 1.6h14.2c7.4 0 12.8.6 16.4 1.8 6.4 2.2 10.6 6 13 11.2 1.8 4.4 2.8 9 2.8 13.8 0 5.4-1.2 10.2-3.6 14.6-3.6 6-8.8 9.6-15.8 10.8-3.4.6-8.4.8-15.2.8h-44.5zm110.7-88.7V145c0 4.4.4 7.6 1 10 .6 2.4 1.8 4.4 3.6 6 3.8 3.6 9 5.4 15.6 5.4 4.2 0 8-.6 11-2 3.2-1.4 5.4-3.4 6.6-6 1.4-2.4 2-7 2-13.4V91.9h18.8v52.3c0 6.8-.6 12.6-2.2 17-1.4 4.6-3.6 8.2-6.6 11-7 6.2-17 9.2-30 9.2-13.6 0-23.6-3-30-9-3.4-3.2-5.6-6.8-6.8-10.6-1.4-3.8-2-9.2-2-16.2V91.9h19zm95.5 15.8h-28.2V91.9h76.5v15.8h-29.3v72.9h-19zm97.1-15.8h4.2c12.6 0 21.2 1.6 26.2 4.8 3.4 2.2 5.8 5 7.8 8.4 1.8 3.6 2.8 7.4 2.8 11.6 0 8.4-2.2 15-6.6 19.6-2.6 2.6-6 4.8-10.4 6.2 3.4 1.2 6 2.6 7.8 4s3.4 3.4 4.8 6c1 2.2 1.8 4.2 2.4 6.2.4 2 .8 4.8 1 8.6.6 6.4 1.4 11 2.2 13.4h-21.2c-.6-2-1.4-6.2-2-12.6-.4-5.2-1.4-9.2-2.8-11.8-1.4-2.8-3.4-5-6.2-6.6-2.6-1.4-5.8-2.2-10-2.6v-15.8h6.4c4.4 0 7.6-.8 9.4-2 2.8-2 4.2-5.4 4.2-10.4 0-5.4-2.2-8.8-6.4-10.4-1.4-.4-3.8-.8-7.2-.8h-6.4V91.9zM822 147v33.6h-18.8V91.9h39v15.8H822v23.6h20.2V147H822zm115.3-55.1h11l36.8 88.7h-22.2l-8.6-20.4h-17v-16H950l-12.6-31h-.2V91.9zm-47.6 88.7l36.8-88.7h10.8v21.4l-12.6 31h12.6v16h-16.8l-8.6 20.4h-22.2zm-341 18.2h-7.6v-4.2h20.4v4.2h-7.8v19.6h-5zm47.4-4.2v4.2h-6.6c-1.8 0-3 .2-3.8.4-.8.2-1.4.6-2 1.4-.4.4-.6.8-.8 1.4 0 .4-.2 1.2-.2 2.4h13.4v4.2h-13.4c.2 2 .8 3.6 1.8 4.4s2.8 1.2 5.2 1.2h6.4v4.2h-6.6c-1.8 0-3.4-.2-4.8-.4-2.2-.4-3.8-1.2-5-2.8-1.8-2.2-2.8-5.2-2.8-8.8 0-4.2 1.2-7.4 3.8-9.8.8-.6 1.8-1.2 2.8-1.6 1-.2 2.4-.4 4-.4h8.6zm35.9 19.6v4.2h-8.4c-1.6 0-2.8-.2-3.6-.2-3-.6-5-2.2-6.2-5-.8-1.8-1.2-4-1.2-6.6 0-3.2.6-5.8 1.8-7.8 1-1.6 2.2-2.6 3.6-3.2 1.6-.6 3.4-1 5.8-1h8.2v4.2h-7.6c-2.2 0-3.8.6-5 1.8-.8 1-1.2 2.8-1.2 5.4 0 3.6.6 5.8 2 7 1 .8 2.4 1.2 4.4 1.2h7.4zm37.6-19.6v23.8h-5v-9.8h-9.2v9.8h-5.2v-23.8h5.2v9.6h9.2v-9.6zm23.2 6.4v17.4H688v-23.8h6.4l9.3 17.6v-17.6h4.8v23.8h-6.2zm41.9-6.6c2.4 0 4.4.4 6.2 1.2 2.2 1 3.6 2.6 4.6 5 .6 1.6 1 3.8 1 6.2s-.4 4.6-1.4 6.2c-1 2.2-2.4 3.8-4.6 4.6-1.6.6-3.4.8-5.4.8h-.4v-4c2.2 0 3.6-.6 4.6-1.8 1-1.4 1.6-3.4 1.6-6.2 0-2.4-.4-4.4-1.2-5.6-1-1.6-2.6-2.4-5-2.4v-4zm0 24c-2.6 0-4.8-.4-6.6-1.4-1.6-.8-3-2.2-3.8-4-1-1.8-1.4-3.8-1.4-6.4 0-4.6 1.2-7.8 3.4-9.6 2-1.8 4.8-2.6 8.4-2.6v4c-2.4 0-4 .8-5 2.4-.8 1.2-1.2 3-1.2 5.6 0 2.8.6 4.8 1.6 6.2.8 1.2 2.4 1.8 4.6 1.8v4zm29.4-23.8h5V208c.2 1.6.2 2.8.4 3.2 0 1.2.6 2 1.4 2.4 1 .4 2.4.6 4.8.6h4.8v4.2h-5.4c-2.6 0-4.4-.2-5.6-.4-2.6-.8-4.2-2.6-5-5-.2-1-.4-2.8-.4-5v-13.4zm44.7-.2c2.4 0 4.4.4 6.2 1.2 2.2 1 3.8 2.6 4.6 5 .6 1.6 1 3.8 1 6.2s-.4 4.6-1.2 6.2c-1 2.2-2.6 3.8-4.8 4.6-1.6.6-3.4.8-5.4.8h-.4v-4c2.2 0 3.8-.6 4.8-1.8.8-1.4 1.4-3.4 1.4-6.2 0-2.4-.4-4.4-1.2-5.6-1-1.6-2.6-2.4-5-2.4v-4zm0 24c-2.4 0-4.6-.4-6.6-1.4-1.6-.8-3-2.2-3.8-4s-1.4-3.8-1.4-6.4c0-4.6 1.2-7.8 3.4-9.6 2-1.8 4.8-2.6 8.4-2.6v4c-2.2 0-4 .8-5 2.4-.8 1.2-1.2 3-1.2 5.6 0 2.8.6 4.8 1.6 6.2 1 1.2 2.6 1.8 4.6 1.8v4zm40.6-14.2h11.8v14.2h-10.8c-1.8 0-3.2-.2-4.2-.4-1.2-.4-2.2-.8-3-1.4-2.6-2-3.8-5.4-3.8-10 0-3.2.6-5.6 1.8-7.8.8-1.4 2-2.4 3.6-3.2 1.6-.6 3.4-1 6-1h10.4v4.2h-10c-2 0-3.6.4-4.6 1.4-1 1.2-1.6 3-1.6 5.8 0 1.6.2 2.8.4 4 .4 1.2.8 2 1.2 2.6.6.6 1.2 1 2 1.2s1.8.4 2.8.4h4.6v-5.8h-6.6v-4.2zm36.9-9.6h4.8V209h-4.8zm49.8 0v4.2h-6.6c-1.8 0-3 .2-3.8.4-.8.2-1.4.6-2 1.4-.4.4-.6.8-.6 1.4-.2.4-.4 1.2-.4 2.4h13.4v4.2h-13.4c.2 2 .8 3.6 1.8 4.4s2.8 1.2 5.2 1.2h6.4v4.2h-6.6c-1.8 0-3.4-.2-4.8-.4-2.2-.4-3.8-1.2-5-2.8-1.8-2.2-2.8-5.2-2.8-8.8 0-4.2 1.4-7.4 3.8-9.8 1-.6 1.8-1.2 2.8-1.6 1-.2 2.4-.4 4-.4h8.6zm28.7 23.8v-4.2h10.8c1.8 0 3-.2 3.6-.6.8-.6 1.2-1.2 1.2-2.2 0-1.2-.4-2-1.4-2.6-.6-.2-1.6-.4-2.8-.4h-4.4c-2.6 0-4.6-.6-5.8-1.4-.6-.8-1.2-1.4-1.6-2.4-.6-1-.8-2-.8-3 0-1.6.6-3.2 1.6-4.6.8-1.4 2.4-2 4.6-2.4h14.8v4.2H974c-1.6 0-2.6.2-3.2.2-1 .2-1.6 1.2-1.6 2.4s.6 2 1.4 2.4c.6.2 1.6.4 3 .4h3.8c2 0 3.4.2 4.4.4 1.6.6 2.8 1.6 3.4 3 .6 1.2.8 2.4.8 3.8s-.4 2.6-1 3.8c-1 1.6-2.4 2.6-4.2 3-.8 0-2.2.2-4 .2h-12z" class="st2"/><path d="M93.9 109.1c8 0 14.4-6.6 14.4-14.6 0-7.8-6.4-14.4-14.4-14.4s-14.4 6.6-14.4 14.4c0 8 6.4 14.6 14.4 14.6z" class="st1"/><circle cx="888.7" cy="216.6" r="5.8" class="st1"/><path fill="#2e3192" fill-rule="evenodd" d="M97.5 81.1C308.8 5 585.9-31.5 516.8 141c-44.3 157.2 207.5 124 362 79.7-132.2 44.1-451.7 112.5-362.6-79.3C574.5-.8 310.8 22.4 97.5 81.1z" clip-rule="evenodd"/><g><path d="M32.9 359.5l-16.8-48.3h-.3c.4 7.2.7 13.9.7 20.2v28.1H7.9v-57.8h13.3l16.1 46h.2l16.5-46h13.4v57.8h-9.1v-28.6c0-2.9.1-6.6.2-11.2s.3-7.4.4-8.4h-.3l-17.4 48.2h-8.3zm87.6-22c0 7.1-1.8 12.7-5.5 16.7s-8.8 6-15.3 6c-4.1 0-7.7-.9-10.8-2.8-3.1-1.8-5.6-4.5-7.2-7.9-1.7-3.5-2.5-7.5-2.5-12 0-7.1 1.8-12.6 5.5-16.6 3.6-4 8.8-6 15.4-6 6.3 0 11.3 2 15 6.1 3.5 4.1 5.4 9.6 5.4 16.5zm-31.9 0c0 10.1 3.7 15.1 11.2 15.1 7.4 0 11.1-5 11.1-15.1 0-10-3.7-15-11.2-15-3.9 0-6.7 1.3-8.5 3.9-1.7 2.6-2.6 6.3-2.6 11.1zm57.3 22.8c-5.5 0-9.7-2-12.8-5.9-3.1-4-4.6-9.5-4.6-16.7 0-7.2 1.5-12.8 4.6-16.8 3.1-4 7.4-6 12.9-6 5.7 0 10.1 2.1 13.1 6.4h.5c-.4-3.1-.7-5.6-.7-7.4V298h9.3v61.5h-7.3l-1.6-5.7h-.3c-3 4.3-7.3 6.5-13.1 6.5zm2.5-7.6c3.8 0 6.6-1.1 8.3-3.2 1.7-2.1 2.6-5.6 2.7-10.5v-1.3c0-5.5-.9-9.4-2.7-11.7-1.8-2.3-4.6-3.5-8.4-3.5-3.3 0-5.8 1.3-7.6 4-1.8 2.7-2.6 6.4-2.6 11.3s.9 8.5 2.6 11.1c1.7 2.6 4.3 3.8 7.7 3.8zm52.3 7.6c-6.8 0-12.1-2-16-6-3.8-4-5.8-9.4-5.8-16.4 0-7.1 1.8-12.8 5.3-16.8 3.6-4.1 8.5-6.1 14.7-6.1 5.8 0 10.3 1.8 13.7 5.3 3.3 3.5 5 8.3 5 14.5v5h-29.1c.1 4.2 1.3 7.5 3.4 9.8 2.2 2.3 5.2 3.4 9.1 3.4 2.6 0 5-.2 7.2-.7 2.2-.5 4.6-1.3 7.2-2.4v7.6c-2.3 1.1-4.6 1.8-6.9 2.3-2.2.2-4.8.5-7.8.5zM199 322c-3 0-5.3.9-7.1 2.8-1.8 1.9-2.8 4.6-3.2 8.2h19.9c-.1-3.6-.9-6.3-2.6-8.2-1.7-1.9-4-2.8-7-2.8zm38.6 37.5h-9.3V298h9.3v61.5zm22.6 0h-9.3V298h9.3v61.5zm12.7-55.4c0-1.7.5-2.9 1.4-3.8.9-.9 2.2-1.3 3.9-1.3 1.6 0 2.9.4 3.8 1.3.9.9 1.4 2.2 1.4 3.8 0 1.6-.5 2.8-1.4 3.7-.9.9-2.2 1.4-3.8 1.4-1.7 0-3-.5-3.9-1.4-.9-.8-1.4-2.1-1.4-3.7zm9.8 55.4h-9.3v-43.7h9.3v43.7zm51.8 0h-9.3v-26.9c0-3.4-.7-5.9-2-7.6-1.4-1.7-3.5-2.5-6.5-2.5-3.9 0-6.8 1.2-8.6 3.5s-2.7 6.2-2.7 11.7v21.8H296v-43.7h7.3l1.3 5.7h.5c1.3-2.1 3.2-3.7 5.6-4.8 2.4-1.1 5.1-1.7 8.1-1.7 10.5 0 15.7 5.3 15.7 16v28.5zm49.9-43.8v5.1l-7.5 1.4c.7.9 1.3 2.1 1.7 3.4.4 1.3.7 2.8.7 4.3 0 4.5-1.6 8.1-4.7 10.6-3.1 2.6-7.4 3.9-12.9 3.9-1.4 0-2.7-.1-3.8-.3-2 1.2-3 2.7-3 4.4 0 1 .5 1.8 1.4 2.3.9.5 2.7.8 5.2.8h7.6c4.8 0 8.5 1 11 3.1s3.8 5 3.8 8.9c0 5-2 8.8-6.1 11.5-4.1 2.7-10 4-17.7 4-6 0-10.5-1.1-13.6-3.2-3.1-2.1-4.7-5.1-4.7-9 0-2.7.9-5 2.6-6.8 1.7-1.8 4.1-3.1 7.1-3.8-1.2-.5-2.3-1.4-3.1-2.6s-1.2-2.4-1.2-3.7c0-1.6.5-3 1.4-4.2.9-1.1 2.3-2.3 4.1-3.4-2.3-1-4.1-2.6-5.5-4.8-1.4-2.2-2.1-4.8-2.1-7.7 0-4.7 1.5-8.4 4.5-11 3-2.6 7.3-3.9 12.8-3.9 1.2 0 2.5.1 3.9.3 1.4.2 2.4.4 3.1.5h15zM350 366.3c0 2 .9 3.5 2.7 4.6 1.8 1.1 4.3 1.6 7.6 1.6 5.1 0 8.8-.7 11.3-2.2 2.5-1.4 3.7-3.4 3.7-5.8 0-1.9-.7-3.2-2-4.1s-3.9-1.2-7.6-1.2h-7c-2.7 0-4.8.6-6.3 1.9-1.6 1.3-2.4 3-2.4 5.2zm4-36.4c0 2.7.7 4.9 2.1 6.3 1.4 1.5 3.4 2.2 6.1 2.2 5.4 0 8.1-2.9 8.1-8.6 0-2.8-.7-5-2-6.6-1.3-1.5-3.4-2.3-6.1-2.3-2.7 0-4.7.8-6.1 2.3-1.4 1.5-2.1 3.7-2.1 6.7zm93.9 13.9c0 5.1-1.9 9.2-5.6 12.1-3.7 2.9-8.8 4.4-15.4 4.4-6.5 0-11.9-1-16.1-3v-8.9c2.6 1.2 5.4 2.2 8.4 2.9 3 .7 5.7 1.1 8.3 1.1 3.7 0 6.5-.7 8.3-2.1 1.8-1.4 2.7-3.3 2.7-5.7 0-2.2-.8-4-2.5-5.5-1.6-1.5-5-3.3-10.1-5.3-5.3-2.1-9-4.6-11.2-7.3-2.2-2.7-3.2-6-3.2-9.9 0-4.8 1.7-8.6 5.1-11.4 3.4-2.8 8-4.2 13.8-4.2 5.5 0 11 1.2 16.5 3.6l-3 7.7c-5.1-2.2-9.7-3.2-13.8-3.2-3.1 0-5.4.7-7 2-1.6 1.3-2.4 3.1-2.4 5.3 0 1.5.3 2.8.9 3.9.6 1.1 1.7 2.1 3.1 3 1.4.9 4.1 2.2 7.8 3.8 4.2 1.8 7.4 3.4 9.3 4.9 2 1.5 3.4 3.3 4.4 5.2 1.2 1.7 1.7 3.9 1.7 6.6zm9.6-39.7c0-1.7.5-2.9 1.4-3.8.9-.9 2.2-1.3 3.9-1.3 1.6 0 2.9.4 3.8 1.3.9.9 1.4 2.2 1.4 3.8 0 1.6-.5 2.8-1.4 3.7-.9.9-2.2 1.4-3.8 1.4-1.7 0-3-.5-3.9-1.4-.9-.8-1.4-2.1-1.4-3.7zm9.9 55.4h-9.3v-43.7h9.3v43.7zm22.6 0h-9.3V298h9.3v61.5zm12.7-55.4c0-1.7.5-2.9 1.4-3.8.9-.9 2.2-1.3 3.9-1.3 1.6 0 2.9.4 3.8 1.3.9.9 1.4 2.2 1.4 3.8 0 1.6-.5 2.8-1.4 3.7-.9.9-2.2 1.4-3.8 1.4-1.7 0-3-.5-3.9-1.4-1-.8-1.4-2.1-1.4-3.7zm9.8 55.4h-9.3v-43.7h9.3v43.7zm31 .8c-6.6 0-11.6-1.9-15.1-5.8-3.4-3.9-5.2-9.4-5.2-16.6 0-7.4 1.8-13 5.4-17 3.6-4 8.8-5.9 15.6-5.9 4.6 0 8.8.9 12.5 2.6l-2.8 7.5c-3.9-1.5-7.2-2.3-9.7-2.3-7.6 0-11.4 5-11.4 15.1 0 4.9.9 8.6 2.8 11.1s4.6 3.7 8.3 3.7c4.1 0 8.1-1 11.7-3.1v8.1c-1.7 1-3.4 1.7-5.3 2.1-1.9.2-4.1.5-6.8.5zm61.2-22.8c0 7.1-1.8 12.7-5.5 16.7s-8.8 6-15.3 6c-4.1 0-7.7-.9-10.8-2.8-3.1-1.8-5.6-4.5-7.2-7.9-1.7-3.5-2.5-7.5-2.5-12 0-7.1 1.8-12.6 5.5-16.6 3.6-4 8.8-6 15.4-6 6.3 0 11.3 2 15 6.1 3.6 4.1 5.4 9.6 5.4 16.5zm-31.8 0c0 10.1 3.7 15.1 11.2 15.1 7.4 0 11.1-5 11.1-15.1 0-10-3.7-15-11.2-15-3.9 0-6.7 1.3-8.5 3.9-1.7 2.6-2.6 6.3-2.6 11.1zm81 22h-9.3v-26.9c0-3.4-.7-5.9-2-7.6-1.4-1.7-3.5-2.5-6.5-2.5-3.9 0-6.8 1.2-8.6 3.5-1.8 2.3-2.7 6.2-2.7 11.7v21.8h-9.3v-43.7h7.3l1.3 5.7h.5c1.3-2.1 3.2-3.7 5.6-4.8 2.4-1.1 5.1-1.7 8.1-1.7 10.5 0 15.7 5.3 15.7 16v28.5zm82-29.5c0 9.5-2.6 16.8-7.9 21.9-5.3 5-12.9 7.6-22.9 7.6h-16.2v-57.8h17.9c9.2 0 16.4 2.5 21.5 7.4 5 4.9 7.6 11.9 7.6 20.9zm-10 .3c0-13.8-6.5-20.8-19.4-20.8h-8.2v42h6.7c14 0 20.9-7.1 20.9-21.2zm43.6-15.4c1.9 0 3.4.1 4.6.4l-.9 8.7c-1.3-.3-2.7-.5-4.1-.5-3.7 0-6.7 1.2-9 3.6-2.3 2.4-3.5 5.6-3.5 9.5v22.9h-9.3v-43.7h7.3l1.2 7.7h.5c1.5-2.6 3.3-4.7 5.7-6.2 2.3-1.6 4.8-2.4 7.5-2.4zm31.8 45.4c-6.8 0-12.1-2-16-6s-5.8-9.4-5.8-16.4c0-7.1 1.8-12.8 5.3-16.8 3.6-4.1 8.5-6.1 14.7-6.1 5.8 0 10.3 1.8 13.7 5.3 3.3 3.5 5 8.3 5 14.5v5h-29.1c.1 4.2 1.3 7.5 3.4 9.8s5.2 3.4 9.1 3.4c2.6 0 5-.2 7.2-.7 2.2-.5 4.6-1.3 7.2-2.4v7.6c-2.3 1.1-4.6 1.8-6.9 2.3-2.1.2-4.8.5-7.8.5zm-1.7-38.3c-3 0-5.3.9-7.1 2.8-1.8 1.9-2.8 4.6-3.2 8.2h19.9c-.1-3.6-.9-6.3-2.6-8.2-1.7-1.9-4-2.8-7-2.8zm56.7 37.5l-1.9-6.1h-.3c-2.1 2.7-4.2 4.5-6.4 5.4-2.1 1-4.9 1.4-8.2 1.4-4.3 0-7.7-1.2-10.1-3.5-2.4-2.3-3.6-5.6-3.6-9.8 0-4.5 1.7-7.9 5-10.2 3.3-2.3 8.5-3.5 15.3-3.8l7.6-.2v-2.3c0-2.8-.7-4.9-2-6.3-1.3-1.4-3.3-2.1-6.1-2.1-2.2 0-4.4.3-6.4 1-2.1.7-4 1.4-5.9 2.3l-3-6.6c2.4-1.2 5-2.2 7.8-2.8 2.8-.6 5.5-1 8-1 5.6 0 9.8 1.2 12.6 3.6 2.8 2.4 4.3 6.2 4.3 11.4v29.5h-6.7zm-13.9-6.4c3.4 0 6.1-.9 8.1-2.8s3.1-4.5 3.1-7.9v-3.8l-5.6.2c-4.4.2-7.6.9-9.6 2.2-2 1.3-3 3.3-3 6 0 2 .6 3.5 1.7 4.5 1.3 1.1 3 1.6 5.3 1.6zm70.4 6.4h-9.3v-27c0-3.3-.6-5.8-1.9-7.5-1.3-1.6-3.2-2.5-5.9-2.5-3.6 0-6.2 1.2-7.9 3.5-1.7 2.3-2.5 6.2-2.5 11.6v21.8H876v-43.7h7.3l1.3 5.7h.5c1.2-2.1 3-3.7 5.3-4.8 2.3-1.1 4.8-1.7 7.6-1.7 6.7 0 11.2 2.3 13.4 6.9h.6c1.3-2.2 3.1-3.8 5.5-5.1 2.3-1.2 5-1.8 8.1-1.8 5.2 0 9 1.3 11.4 4s3.6 6.7 3.6 12.1v28.5h-9.3v-27c0-3.3-.6-5.8-1.9-7.5-1.3-1.6-3.3-2.5-6-2.5-3.6 0-6.3 1.1-7.9 3.4-1.7 2.3-2.5 5.7-2.5 10.4v23.2zm69.9-12.5c0 4.3-1.6 7.5-4.7 9.8s-7.6 3.4-13.4 3.4c-5.8 0-10.5-.9-14-2.6v-8c5.1 2.4 9.9 3.6 14.4 3.6 5.7 0 8.6-1.7 8.6-5.2 0-1.1-.3-2-.9-2.8-.6-.7-1.7-1.5-3.1-2.3-1.5-.8-3.5-1.7-6.1-2.7-5-2-8.4-3.9-10.2-5.9s-2.7-4.5-2.7-7.6c0-3.7 1.5-6.7 4.5-8.7 3-2.1 7.1-3.1 12.3-3.1 5.1 0 10 1 14.6 3.1l-3 7c-4.7-2-8.7-2.9-11.9-2.9-4.9 0-7.4 1.4-7.4 4.2 0 1.4.6 2.5 1.9 3.5 1.3.9 4.1 2.3 8.4 3.9 3.6 1.4 6.2 2.7 7.9 3.8s2.8 2.5 3.6 4 1.2 3.4 1.2 5.5z" class="st2"/></g></svg>