<?xml version="1.0" encoding="UTF-8"?>
<svg id="Layer_1" data-name="Layer 1" xmlns="http://www.w3.org/2000/svg" viewBox="0 0 1106 598">
  <defs>
    <style>
      .cls-1, .cls-2 {
        fill: #4d4d4d;
      }

      .cls-3 {
        fill: none;
      }

      .cls-2 {
        isolation: isolate;
      }

      .cls-4 {
        fill: #91b6fc;
      }
    </style>
  </defs>
  <path class="cls-4" d="M268.73,486.24c34.1-5.82,46.5,54.07,17.32,60.31-35.2,7.54-48.92-54.92-17.32-60.31Z"/>
  <path class="cls-4" d="M280.76,330.27c30.56-1.19,32.94,57.97,3.74,60.73-33.56,3.18-34.76-59.53-3.74-60.73Z"/>
  <path class="cls-4" d="M196.74,507.24c30.2-5.03,46.78,49.52,20.29,56.29-31.85,8.14-50.44-51.27-20.29-56.29Z"/>
  <path class="cls-4" d="M217.73,355.23c33.82-6.95,32.86,59.25,2.73,59.81-27.5.51-27.85-54.64-2.73-59.81Z"/>
  <path class="cls-4" d="M162.79,375.21c24.96-1.98,30.09,46.03,8.92,58-17.49,9.89-30.8-10.95-30.8-26.71,0-12.62,7.57-30.15,21.88-31.29Z"/>
  <path class="cls-4" d="M278.28,408.31c23.56-.2,34.4,31.72,21.27,48.84-19.2,25.04-52.88-10.63-37.11-38.17,3-5.25,9.5-10.62,15.84-10.68Z"/>
  <path class="cls-4" d="M206.73,430.24c31.27-5.25,38.31,51.03,11.54,56.53-32.06,6.59-40.31-51.7-11.54-56.53Z"/>
  <path class="cls-4" d="M142.73,447.23c25.17-5.12,39.09,44.39,18.23,57.23-16.01,9.86-30.91-12.07-32.71-26.22-1.33-10.45,2.19-28.51,14.47-31.01Z"/>
  <path class="cls-4" d="M163.79,304.21c12.84-1.11,20.15,15.44,20.28,26.28.17,13.9-11.65,35.28-28,25.94-17.55-10.02-13.89-50.36,7.72-52.22Z"/>
  <path class="cls-4" d="M273.76,261.21c25.76-3.79,28.88,48.93,3.77,51.81-27.37,3.14-28.24-48.21-3.77-51.81Z"/>
  <path class="cls-4" d="M135.72,525.2c18.49-4.18,39.56,34.59,30.13,50.15-4.54,7.49-13.62,5.06-19.78,1.08-11.67-7.54-25.01-33.53-16.52-46.38,1.17-1.77,4.06-4.37,6.17-4.84Z"/>
  <path class="cls-4" d="M161.76,242.22c26.05-3.78,25.55,55.28-1.29,53.86-23.39-1.24-20.67-50.67,1.29-53.86Z"/>
  <path class="cls-4" d="M217.79,285.21c26.14-2.04,24.62,51.74-.28,51.88-25.27.14-24.09-49.98.28-51.88Z"/>
  <path class="cls-4" d="M103.71,398.22c16.88-3.93,21.59,24.28,20.19,36.18-1.11,9.37-7.77,22.22-18.79,16.99-15.57-7.38-17.78-49.36-1.4-53.17Z"/>
  <path class="cls-4" d="M217.76,223.23c12.1-.7,16.9,16.76,16.27,26.31-.81,12.27-11.89,31.99-25.8,21.72-14.18-10.46-8.78-46.98,9.53-48.03Z"/>
  <path class="cls-4" d="M106.74,325.25c15.91-4.15,18.38,21.72,17.15,32.14-1.06,9-8.77,25.5-20.27,19.48-13.56-7.1-11.29-47.87,3.12-51.62Z"/>
  <path class="cls-4" d="M89.31,468.31c3.9-3.47,7.74-2.37,11.62.26,11.41,7.7,18.42,35.18,11.28,47.15-6.31,10.58-16.49.03-20.63-6.8-5.46-9.01-10.97-32.86-2.27-40.6Z"/>
  <path class="cls-4" d="M111.74,267.21c20.21-1.88,19.03,50.91-3.24,48.83-18.2-1.7-15.99-47.04,3.24-48.83Z"/>
  <path class="cls-4" d="M276.77,199.2c18.29-2.54,23.19,33.94,7.19,44.26-12.73,8.21-22-8.73-22.03-19.96-.02-8.62,5.02-22.94,14.84-24.3Z"/>
  <path class="cls-4" d="M126.71,209.22c13.32-3.07,13.06,11.78,10.8,20.79-2.26,9.03-16.56,33.95-27.46,23.45-9.83-9.47,4.11-41.35,16.66-44.24Z"/>
  <path class="cls-4" d="M175.77,192.18c23.17-2.67,12.64,47.07-11.06,41.6-16.93-3.91-7.01-39.52,11.06-41.6Z"/>
  <path class="cls-4" d="M90.71,539.21c12.35-3.63,25.12,20.24,27.57,30.01,5.69,22.66-7.8,23.5-20.26,8.26-5.13-6.27-19.42-34.7-7.31-38.27Z"/>
  <path class="cls-4" d="M225.72,172.23c25.32-5.28,16.72,42.44-6.13,39.74-17.83-2.11-10.91-36.19,6.13-39.74Z"/>
  <path class="cls-4" d="M68.72,344.2c13.1-2.95,14.11,21.91,13.27,30.29s-9.05,26.64-18.85,15.87c-8.15-8.96-7.2-43.28,5.57-46.16Z"/>
  <path class="cls-4" d="M60.74,414.16c10.17-1.84,15.17,20.31,15.29,27.4s-3.29,25.21-13.78,20.69c-12.35-5.32-14.55-45.73-1.52-48.09Z"/>
  <path class="cls-4" d="M67.71,288.2c9.94-3.02,10.64,13.73,10.16,20.18-.55,7.41-6.13,29.08-16.31,27.65-7.2-1.01-7.06-18.05-6.45-23.42.69-6.18,6.05-22.42,12.6-24.41Z"/>
  <path class="cls-4" d="M52.26,481.27c10.15-9.48,20.12,20.38,20.73,27.25.52,5.94.02,23.89-9.89,17.91s-19.3-37.26-10.84-45.16Z"/>
  <path class="cls-4" d="M89.71,224.2c11.59-3.52,7.37,16.19,5.78,21.79-1.91,6.75-10.83,27.53-19.78,24.85-6.68-2-3-19.02-1.44-24.07,1.73-5.58,9.78-20.85,15.44-22.57Z"/>
  <path class="cls-4" d="M40.7,355.16c7.58-2.34,9.95,12.16,10.34,17.31.49,6.46-1.01,31.51-9.69,32.32-6.62.62-9.44-17.42-9.44-22.29,0-5.4,2.92-25.53,8.79-27.34Z"/>
  <path class="cls-4" d="M200.74,140.21c18.3-3.59,9.66,33.39-5.47,36.56-6.41,1.34-10.17-2.34-11.06-8.53-1.26-8.8,7.12-26.18,16.53-28.03Z"/>
  <path class="cls-4" d="M143.32,192.68c-7.24-6.61.41-25.81,7.34-31.53,11.67-9.63,17.92-.27,16.26,12.27-1.17,8.89-14.02,28.01-23.6,19.26Z"/>
  <path class="cls-4" d="M285.76,152.22c17.3-2.52,19.31,24.07,4.14,31.18-20.47,9.59-24.51-28.21-4.14-31.18Z"/>
  <path class="cls-4" d="M243.73,125.23c21.2-4.35,23.4,30.28,2.6,30.4-17.3.1-18.81-27.07-2.6-30.4Z"/>
  <path class="cls-4" d="M30.64,424.16c6.65-1.27,11.78,20.59,12.23,25.47,2.34,25.8-9.56,33.26-16.01,6.01-1.43-6.04-4.59-29.88,3.78-31.47Z"/>
  <path class="cls-4" d="M124.74,171.27c5.67,5.37-1.55,22.99-5.21,28.76-2.34,3.7-9.81,12.91-14.54,10.51-6.38-3.23-.02-20.66,2.46-25.58,2.05-4.05,11.95-18.73,17.28-13.69Z"/>
  <path class="cls-4" d="M292.73,111.23c21.19-4.38,25.21,25.01,5.79,25.83-18.85.79-20.62-22.76-5.79-25.83Z"/>
  <path class="cls-4" d="M60.63,550.08c7.2-2.31,18.77,19.21,20.85,24.93,9.19,25.17-5.99,16.43-14.66,1.66-2.24-3.81-12.58-24.54-6.19-26.59Z"/>
  <path class="cls-4" d="M64.95,237.04c2.96,2.46-.64,18.74-1.69,22.72-1.12,4.2-8.85,25.98-13.64,25.18-5.83-.97-1.1-21.38.12-25.71.99-3.5,9.36-27.06,15.22-22.2Z"/>
  <path class="cls-4" d="M93.92,185.08c1.42.96,1.17,9.1.84,11.18-1,6.34-9.03,22.99-14.26,26.74-8.58,6.15-8.24-2.48-7.24-9.24.86-5.81,13.42-33.57,20.66-28.68Z"/>
  <path class="cls-4" d="M29.09,487.09c5.85-3.95,12.15,15.56,13.18,19.14,2.33,8.09,5.89,20.44,1.19,27.75-4.84,1.38-10.52-14.47-11.72-18.23-1.48-4.64-6.43-26.12-2.65-28.67Z"/>
  <path class="cls-4" d="M157.75,119.15c9.68-1.35.46,17.42-1.92,21.17-2.69,4.24-13.2,17.23-18.89,13.24-6.75-4.74,12.12-33.2,20.81-34.41Z"/>
  <path class="cls-4" d="M222.74,94.21c17.44-3.41,12.49,28.8-3.16,26.77-12.12-1.58-8.7-24.45,3.16-26.77Z"/>
  <path class="cls-4" d="M263.77,79.19c15.21-1.74,16.96,24.17,1.65,24.76-14.65.56-15.66-23.16-1.65-24.76Z"/>
  <path class="cls-4" d="M34.66,307.15c4.91-1.67,5.92,2.36,6.33,6.36.82,8.03-1.36,25.63-7.93,31.06-7.87,6.5-7.46-11.58-7.05-16.05.38-4.22,4.58-19.98,8.65-21.37Z"/>
  <path class="cls-4" d="M307.73,70.23c21.47-4.41,23.4,25.18,1,20.53-11.01-2.28-12.39-18.2-1-20.53Z"/>
  <path class="cls-4" d="M191.5,105.36c8.08.04,2.34,14.09.36,17.99-2.09,4.11-15.56,22.22-18.66,11.94-2.36-7.81,10.52-29.97,18.3-29.93Z"/>
  <path class="cls-4" d="M108,168c-1.23-8.62,12.88-30.84,20.04-33.47,11.22-4.12-.63,16.36-2.63,19.39s-13.53,17.83-17.41,14.08Z"/>
  <path class="cls-4" d="M18.52,367.02c1.27-.42,2.12-.03,2.96,1,2.85,3.51,2.91,18.71,2.56,23.52-.21,2.81-2.36,18.43-6.52,17.46-6.27-4.48-3.69-40.43,1.01-41.98Z"/>
  <path class="cls-4" d="M29,292c-1.86-1.81,1.86-18.13,2.96-21.54,1.05-3.22,7.06-18.8,11.51-17.46s-1.34,20.64-2.7,24.27c-.96,2.56-7.94,18.46-11.77,14.73Z"/>
  <path class="cls-4" d="M15.8,435.22c4.41,2.44,9.37,34.45,3.69,35.78-6.54,1.52-11.25-32.81-7.39-35.89.47-.38,2.97-.29,3.7.12Z"/>
  <path class="cls-4" d="M241.7,62.21c14.6-4.36,14.74,18.54,2.54,19.6-10.94.95-10.53-17.22-2.54-19.6Z"/>
  <path class="cls-4" d="M60.99,589.99c-3.04,2.92-9.23-7.73-10.51-9.98-4.3-7.54-8.43-17.22-8.48-26.01,2.61-2.74,9.57,9.26,10.51,10.98,1.74,3.17,10.33,23.23,8.48,25.01Z"/>
  <path class="cls-4" d="M172,108c-3.54-6.99,13.14-27.05,18.47-26,7.97,1.58-9.91,30.11-18.47,26Z"/>
  <path class="cls-4" d="M203,94.01c-.86-6.19,1-10.16,4.59-14.92,1.89-2.5,10.18-11.03,13.47-8.66,5.79,4.17-9.36,27.82-18.06,23.58Z"/>
  <path class="cls-4" d="M342.72,58.22c5.62-1.22,17.99-.24,20.78,5.8,4.21,9.13-16.7,8.74-22.56,2.53-3.11-3.3-3.01-7.29,1.78-8.33Z"/>
  <path class="cls-4" d="M308.76,41.21c13.19-2.12,24.41,12.53,8.79,13.84-13.77,1.15-22-11.71-8.79-13.84Z"/>
  <path class="cls-4" d="M380.09,48.09c1.16-1.71,11.47-1.1,13.95-.64,4.1.76,18.61,6.93,10.54,10.63-6.71,3.08-28.75-3.71-24.49-10Z"/>
  <path class="cls-4" d="M336.13,34.13c2.28-3.64,26.97-.15,24.81,7.25s-30.18,1.31-24.81-7.25Z"/>
  <path class="cls-4" d="M144.01,118.99c-3.89-3.83,14.84-21.84,18.64-23.84,3.24-1.71,6.14-1.78,4.58,2.57-1.67,4.65-19.38,25.07-23.22,21.28Z"/>
  <path class="cls-4" d="M12,355v-15.5c1.64-3.24,4.15-24.38,8.49-23.49,1.54.32,1.52,3.22,1.59,4.48.31,5.47-4.25,28.59-7.22,32.88-.83,1.19-1.16,1.98-2.86,1.64Z"/>
  <path class="cls-4" d="M71.99,199.01c2.41,2.5-9.15,31.41-15.98,31.99-3.74-2.97,7.96-27.3,11.92-30.56,1.36-1.12,2.13-1.78,4.06-1.43Z"/>
  <path class="cls-4" d="M275.71,52.21c14.75-3.37,16.47,14.48,2.8,13.85-9.59-.44-11.83-11.79-2.8-13.85Z"/>
  <path class="cls-4" d="M110,146.01c2.51,2.48-13.88,25.74-16.95,28.54-.77.7-4.23,3.26-5.04,2.45,1.91-7.61,6.54-15.07,11.18-21.31,1.18-1.59,8.43-12.03,10.81-9.68Z"/>
  <path class="cls-4" d="M20.86,494.14c2.17,1.35,8.65,27.64,8.87,31.64.06,1.12.44,4.28-1.24,4.19-3.03-.16-10.98-30.67-10.51-35.46.08-.97,2.43-.66,2.88-.38Z"/>
  <path class="cls-4" d="M369.66,24.16c3.89-1.22,23.6.9,22.34,6.33s-25.17.4-23.99-4.97c.09-.41,1.1-1.18,1.66-1.36Z"/>
  <path class="cls-4" d="M145.99,104.01c.58,4.98-21.77,27.17-23.99,24.99-.58-4.98,21.77-27.17,23.99-24.99Z"/>
  <path class="cls-4" d="M10,400.5c-.24,2.18-2.58,11.75-4.29,5.34s-1.02-19.71.6-26.06c1.21-4.73,3.69-2.68,3.69-.27,0,6.51.68,14.78,0,21Z"/>
  <path class="cls-4" d="M58,209.01c-3.3,10.69-7.71,22.44-14.99,30.99,1.38-8.88,6.3-18.81,10.83-26.67.91-1.58,1.85-4.88,4.16-4.33Z"/>
  <path class="cls-4" d="M303,26.02c2.81-2.76,16.98-1.74,15.99,2.47-.84,3.57-17.62,4.2-15.99-2.47Z"/>
  <path class="cls-4" d="M21.99,295.99c-1.71.26-1.06-2.38-.97-3.47.49-5.9,3.94-20.26,6.49-25.52.57-1.17.99-2.75,2.49-3-1.33,10.93-4.32,21.65-8,31.99Z"/>
  <path class="cls-4" d="M86.99,165.01c1.21,1.25-9.53,18.22-12.98,18.99-.22-1.7.18-3.16.76-4.73.7-1.92,10.15-16.41,12.23-14.26Z"/>
  <path class="cls-4" d="M260.66,41.21c6-.55,7.49,8.96.69,9.58-6,.55-7.49-8.96-.69-9.58Z"/>
  <path class="cls-4" d="M237.68,49.14c5.99-.54-.63,12.38-6.08,10.81-4.8-1.39,1.5-10.4,6.08-10.81Z"/>
  <path class="cls-4" d="M424.99,39.99c-1.75,1.7-18.77-3.31-14.99-6.99,1.75-1.7,18.77,3.31,14.99,6.99Z"/>
  <path class="cls-4" d="M220.99,54.01c1.29,1.04.1,5.31-2.33,7.97-2.4,2.62-6.5,4.2-7.65,3.02-1.16-1.18.69-5.09,2.88-7.48,2.15-2.35,5.83-4.54,7.11-3.51Z"/>
  <path class="cls-4" d="M480,27.01c.17.17.64.65.53,1.1-.14.56-1.1.82-2.04.92-6.31.64-15.46-3.55-15.46-3.55-4.08-1.95-6.12-2.93-6.02-3.47.44-2.27,20.84,2.82,22.99,5Z"/>
  <path class="cls-4" d="M279.71,33.21c3.74-1.93,9.35-.06,9.61,1.94.21,1.66-3.2,3.92-6.41,4.07-2.48.11-5.7-1.01-5.9-2.74-.17-1.38,1.62-2.7,2.7-3.26Z"/>
  <path class="cls-4" d="M342,20.02c3.73,4.59-12.55,5.53-14.99,1.47-1.02-1.95,3.71-2.43,4.48-2.49,1.67-.13,9.95.33,10.51,1.02Z"/>
  <path class="cls-4" d="M450,33.01c.18.18.67.67.55,1.12-.15.55-1.14.77-2.05.89-9.14,1.14-14.5-3.56-14.51-3.56-1.44-1.26-2.16-1.89-1.99-2.45.72-2.44,15.76,1.77,17.99,4.01Z"/>
  <path class="cls-4" d="M422,7.01c.18.17.69.66.58,1.11-.16.64-1.49.81-2.06.88-2.68.33-15.48.8-15.52-1.01-.04-1.95,14.84-3.04,17-.98Z"/>
  <path class="cls-4" d="M365,15.01c.07.82-3.82,1.95-7.03,2.26-3.58.34-7.82-.21-7.96-1.28-.08-.63,1.19-1.28,1.82-1.59,1.49-.76,2.62-.72,6.07-.72,4.35,0,6.41-.05,7.01,1.03.09.16.09.26.1.31Z"/>
  <path class="cls-4" d="M390,11c.04,1.33-7.06,2.39-8.07,2.54-4.43.66-8.76.36-8.93-.55-.07-.36.47-1.01.66-1.24,0,0,.36-.44.84-.75,1.42-.94,15.45-1.87,15.5,0Z"/>
  <path class="cls-1" d="M377.01,346.12l149.19.22c2.13.85,2.38,3.57,2.54,5.62.38,4.88.41,13.4-.03,18.24-.22,2.4-.6,4.66-3.21,5.43l-138.55.11c-6.01.5-11.46,2.75-14.03,8.52-2.06,4.63-2.29,22.29-1.35,27.48,1.45,8.06,7.99,12.15,15.84,12.47l110.37-.02c23.41,1.94,36.34,16.38,37.69,39.56,2.05,35.15.36,64.74-41.98,66.97l-152.15-.47c-1.83-.71-2.4-2.25-2.61-4.11-.52-4.57-.51-16.05,0-20.63.19-1.74.81-4.04,2.74-4.45l142.39-.11c13.06-.79,18.12-5.07,18.98-18.45,1.06-16.67,1.64-31.32-18.47-32.43-35.65-1.97-73.09,1.53-108.93.02-38.03-3.28-38.77-37.06-36.73-67.43,1.52-22.58,16.44-34.9,38.31-36.54Z"/>
  <path class="cls-1" d="M529.44,168.57c1.16.2,2.05,2.01,2.18,3.1.48,3.98.45,15.2-.01,19.22-.18,1.59-1.47,3.59-3.13,3.59h-157.13c-.08,15.78-1.18,37.64,15.25,45.92,4.45,2.24,9.39,3.19,14.26,3.97,42.93,1.18,85.97.03,128.94.6,1.75.31,2.92,1.2,3.2,3.03.61,3.9.58,19.5.05,23.51-.19,1.43-.92,1.98-1.96,2.84l-128.83.27c-41.03-1.97-60.58-19.73-62.61-61.18-.93-18.91-.93-43.02,0-61.93,1.98-40.48,20.82-58.94,61.2-61.15l130.25.25c1.06.88,1.77,1.42,1.96,2.84.59,4.42.51,18.55-.02,23.06-.26,2.22-1.23,2.79-3.24,3.48l-124.66.09c-13.42,1.21-25.19,4.47-30.46,18-2.8,7.2-4.27,21.19-3.37,28.82.08.7.06,1.23.74,1.65h157.37Z"/>
  <path class="cls-3" d="M596.56,247.1h99.46c26.35,0,33.58-7.75,33.58-31.52v-25.58c0-23.77-7.23-31.52-33.58-31.52h-65.88c-26.1,0-33.58,7.75-33.58,31.52v57.1ZM698.86,132.91c45.99,0,60.72,14.73,60.72,51.41v36.94c0,36.95-14.73,51.41-60.72,51.41h-102.3v52.45c0,3.1-1.55,4.65-4.65,4.65h-20.67c-3.1,0-4.65-1.55-4.65-4.65v-140.8c0-36.68,14.73-51.41,60.72-51.41h71.56Z"/>
  <ellipse class="cls-4" cx="195.06" cy="70.42" rx="11.01" ry="2.17" transform="translate(1.22 144.12) rotate(-40.67)"/>
  <ellipse class="cls-4" cx="178.23" cy="77.51" rx="11.01" ry="2.17" transform="translate(-7.47 134.86) rotate(-40.67)"/>
  <g>
    <path class="cls-1" d="M595.78,245.87h101.38c26.86,0,34.23-7.9,34.23-32.13v-26.07c0-24.23-7.37-32.13-34.23-32.13h-67.15c-26.6,0-34.23,7.9-34.23,32.13v58.2ZM700.06,129.47c46.88,0,61.89,15.01,61.89,52.4v37.66c0,37.66-15.01,52.4-61.89,52.4h-104.28v53.46c0,3.16-1.58,4.74-4.74,4.74h-21.07c-3.16,0-4.74-1.58-4.74-4.74v-143.52c0-37.39,15.01-52.4,61.89-52.4h72.94Z"/>
    <path class="cls-2" d="M817.74,129.97c3.42,0,5.01,1.58,5.01,4.74v132.99c0,3.16-1.58,4.74-5.01,4.74h-20.8c-3.42,0-4.74-1.58-4.74-4.74v-132.99c0-3.16,1.32-4.74,4.74-4.74h20.8ZM818.01,77.57c3.16,0,4.74,1.58,4.74,4.74v24.49c0,3.42-1.58,5-4.74,5h-21.07c-3.16,0-4.74-1.58-4.74-5v-24.49c0-3.16,1.58-4.74,4.74-4.74h21.07Z"/>
    <path class="cls-2" d="M1015.44,129.97c2.9,0,3.95,1.32,3.95,3.95v18.17c0,2.63-1.05,3.95-3.95,3.95h-102.44c-26.86,0-34.23,7.9-34.23,32.13v26.07c0,24.23,7.37,32.13,34.23,32.13h102.44c2.9,0,3.95,1.32,3.95,3.95v18.17c0,2.63-1.05,3.95-3.95,3.95h-105.34c-47.13,0-61.88-15.01-61.88-52.41v-37.66c0-37.65,14.75-52.4,61.88-52.4h105.34Z"/>
    <path class="cls-2" d="M592.09,449.36h117.45c3.69,0,5.53-1.32,5.53-5.53v-12.12c0-14.22-4.74-19.49-20.8-19.49h-67.69c-26.86,0-34.5,7.9-34.5,27.91v9.23ZM700.06,388.26c35.55,0,45.03,11.06,45.03,42.4v23.43c0,11.06-4.74,14.75-15.01,14.75h-137.99v8.16c0,19.75,7.64,27.65,34.5,27.65h110.07c2.63,0,3.95,1.32,3.95,3.95v18.17c0,2.63-1.32,3.95-3.95,3.95h-112.97c-47.14.01-62.15-15-62.15-52.4v-37.66c0-37.65,15.01-52.4,62.15-52.4h76.37Z"/>
    <path class="cls-1" d="M963.71,388.25c46.87,0,61.88,15.01,61.88,52.4v85.32c0,3.16-1.58,4.74-4.74,4.74h-21.06c-3.16,0-4.74-1.58-4.74-4.74v-78.21c0-23.96-6.32-32.13-32.92-32.13h-49.77v110.35c0,3.16-1.58,4.74-4.74,4.74h-21.07c-3.16,0-4.74-1.58-4.74-4.74v-110.34h-48.19c-26.6,0-34.23,8.16-34.23,32.13v78.21c0,3.16-1.58,4.74-4.74,4.74h-21.07c-3.16,0-4.74-1.58-4.74-4.74v-85.33c0-37.39,15.01-52.4,61.89-52.4h132.98Z"/>
    <path class="cls-1" d="M1082.22,388.24c3.42,0,5.01,1.58,5.01,4.74v132.99c0,3.16-1.58,4.74-5.01,4.74h-20.8c-3.42,0-4.74-1.58-4.74-4.74v-132.99c0-3.16,1.32-4.74,4.74-4.74h20.8ZM1082.5,335.85c3.16,0,4.74,1.58,4.74,4.74v24.49c0,3.42-1.58,5-4.74,5h-21.07c-3.16,0-4.74-1.58-4.74-5v-24.49c0-3.16,1.58-4.74,4.74-4.74h21.07Z"/>
  </g>
  <ellipse class="cls-4" cx="468.77" cy="13.26" rx="1.4" ry="16.4" transform="translate(433.98 480.92) rotate(-87.37)"/>
  <ellipse class="cls-4" cx="441.27" cy="17.17" rx="1.53" ry="12.17" transform="translate(395.51 456.39) rotate(-86.28)"/>
  <ellipse class="cls-4" cx="411.22" cy="20.99" rx="2.55" ry="10.72" transform="translate(343.41 427.12) rotate(-83.44)"/>
  <ellipse class="cls-4" cx="236.12" cy="42.91" rx="1.32" ry="1.05" transform="translate(133.34 259.77) rotate(-74.94)"/>
  <ellipse class="cls-4" cx="251.16" cy="37.78" rx="2.19" ry="1.61"/>
  <ellipse class="cls-4" cx="266.24" cy="32.3" rx="2.65" ry="1.89"/>
  <ellipse class="cls-4" cx="281.88" cy="27.82" rx="4.06" ry="1.63"/>
</svg>