<svg xmlns="http://www.w3.org/2000/svg" xml:space="preserve" viewBox="0 0 174 117.18">
  <path fill="#FFF" d="M159.49 113.2 174 0H0l22.82 117.18z"/>
	<g fill-rule="evenodd" clip-rule="evenodd">
    <path fill="#888600"
		  d="m41.984 56.554-6.23-35.17c-.16-.77.34-1.53 1.11-1.69l.25-.03 43.65-2.54 2.92 20.41-24.1 1.4 2.6 14.72-20.2 2.9"/>
		<path fill="#C8DB00"
			  d="M90.744 87.044h-42.13c-.68-.07-1.25-.55-1.44-1.21l-4.04-22.79 20.2-2.89 1.15 6.48h23.35l2.91 20.41"/>
		<path fill="#888600"
			  d="m135.344 49.864-2.93 35.83c-.11.74-.72 1.3-1.46 1.34h-33.55l-2.92-20.41h18.88l1.13-13.78 20.85-2.98"/>
		<path fill="#C8DB00"
			  d="m138.154 15.464-1.55 19-46.33 2.69-2.91-20.4 49.25-2.87c.78-.07 1.47.5 1.55 1.28.01.11 0 .21-.01.3"/>
		<path fill="#888600"
			  d="m56.694 101.284-.06 4.93c-1.09.51-2.28.78-3.49.79a5.36 5.36 0 0 1-5.68-5.02c-.01-.18-.01-.37-.01-.55a5.485 5.485 0 0 1 5.39-5.58h.3c1.15 0 2.28.26 3.32.76l-.51 1.05c-.86-.47-1.82-.71-2.8-.7-2.36 0-4.27 1.91-4.26 4.27v.19a4.27 4.27 0 0 0 4.07 4.46h.19a5.67 5.67 0 0 0 2.15-.45l.06-4.15h1.33m11.76 5.5.09-10.72h1.33l-.09 9.6h4.57v1.12h-5.9m17.27-10.72h1.33l-.09 10.72h-1.33l.09-10.72m12.22.15 1.36-.37 2.62 9.26h.03l2.88-9.05h1.4l2.63 9.05h.03l2.99-9.26 1.24.37-3.62 10.57h-1.26l-2.77-9.05h-.03l-2.93 9.05h-1.26l-3.31-10.57m28.69-.15h1.27l4.26 10.5-1.33.43-1.46-3.78h-4.43l-1.56 3.78-1.24-.39 4.49-10.54zm.6 1.21h-.03l-1.79 4.83h3.51l-1.69-4.83"/>
  </g>
</svg>