<?xml version="1.0" encoding="UTF-8"?>
<svg width="265px" height="67px" viewBox="0 0 265 67" version="1.1" xmlns="http://www.w3.org/2000/svg" xmlns:xlink="http://www.w3.org/1999/xlink">
    <title>lowRISC logo red black</title>
    <defs>
        <polygon id="path-1" points="1.68017285e-15 0 67 0 67 67 1.68017285e-15 67"></polygon>
        <polygon id="path-3" points="0 0 31 0 31 37 0 37"></polygon>
    </defs>
    <g id="Page-1" stroke="none" stroke-width="1" fill="none" fill-rule="evenodd">
        <g id="lowRISC-logo-red-black">
            <g id="Group-3">
                <mask id="mask-2" fill="white">
                    <use xlink:href="#path-1"></use>
                </mask>
                <g id="Clip-2"></g>
                <path d="M40.3364431,0.712356869 C49.5512459,2.56354167 57.7778134,8.54714727 62.4441162,16.7028388 C63.9013815,19.1958259 65.0903179,21.8983811 65.7949536,24.7035373 C57.3175096,33.217241 48.8182502,41.7091146 40.3189909,50.1988053 C39.2456758,49.7272771 38.2705297,49.2251869 37.0750487,49.1291349 C34.9742307,48.9697758 32.7665176,49.8648062 31.4968644,51.5784619 C29.655649,53.8575149 29.7603627,57.4987605 31.7084732,59.6817614 C33.6325869,61.9782784 37.2430269,62.4760027 39.7976041,60.978464 C41.4730227,60.0332246 42.587787,58.2977388 42.8473896,56.398528 C43.1353522,54.7285323 42.6117839,53.2113466 41.7828007,51.783664 C44.5686205,48.9108348 47.4373387,46.1165936 50.249337,43.2699603 C55.6311832,37.915059 60.9628542,32.5099487 66.3686973,27.1790603 C68.175008,36.0747892 66.041467,45.5664773 60.7839683,52.9341055 C56.7852151,58.5225879 51.1023171,62.8602108 44.6035251,65.1152508 C40.0572067,66.7437695 35.118212,67.2960687 30.3166541,66.8529196 C24.5246793,66.3202673 18.8461444,64.2202204 14.1340293,60.8016409 C14.9826463,59.8411205 15.9097986,58.9657371 16.8085909,58.0532427 C25.0635184,49.7971332 33.3184459,41.5388406 41.5711918,33.278365 C42.2038369,32.6278307 42.963011,31.9925774 43.4451302,31.2176121 C44.0057846,30.3771567 43.7701788,29.0979182 43.8138095,28.1221168 C43.8487141,24.8236023 43.7265481,21.5141729 43.8923448,18.2200245 C45.5481296,17.7921563 47.0621148,16.9495179 48.0263531,15.5021883 C49.5839689,13.3148213 49.5076152,10.0665159 47.8234704,7.97083502 C46.9639457,6.80511251 45.6419356,6.02578117 44.2544795,5.66776902 C42.1078494,5.13293379 39.7408842,5.83804309 38.2159914,7.43599978 C37.3564667,8.30701716 36.77836,9.41816464 36.5056681,10.6079002 C36.1042657,12.539856 36.656194,14.6180729 37.9825672,16.0806835 C38.9620763,17.233308 40.2775417,17.8467313 41.7086285,18.2418545 C41.706447,21.8940151 41.71081,25.5701886 41.7086285,29.2201662 C41.7544407,30.3400457 40.984359,30.8421359 40.2971755,31.5690753 C31.7455593,40.111158 23.2070323,48.6663387 14.6597792,57.2127874 C13.9093312,57.9724717 13.1523387,58.725607 12.3735308,59.4569123 C9.73169221,57.3437674 7.46289607,54.8071203 5.58023159,51.9975981 C5.08938627,51.2924888 4.65962392,50.5611835 4.31494144,49.7731201 C6.48993158,47.6359622 8.63438023,45.4616933 10.7897366,43.3027053 C11.0122531,43.1062353 11.2456773,42.8158961 11.5445476,42.7569551 C12.6004104,43.0582092 13.4533905,43.6498025 14.6008778,43.6650835 C16.4857238,43.8506386 18.3247576,43.2743263 19.6816722,41.9383297 C21.4530784,40.235589 22.0966311,37.5199358 21.2480141,35.2103208 C20.5455599,33.1102739 18.6868923,31.5232322 16.5228099,31.104096 C15.0306401,30.8290379 13.4664797,31.014593 12.133562,31.7633623 C9.92148573,32.9334508 8.64746944,35.4722809 8.89398286,37.949987 C8.92670589,39.1331735 9.50481259,40.0041909 9.94330108,41.0476654 C9.63352314,41.5344746 9.1535855,41.9383297 8.75218311,42.3509169 C6.90660471,44.1584417 5.12865389,46.0358225 3.24380788,47.8040533 C1.08408848,43.2612283 -0.0983033535,38.1792021 0.00641031422,33.1408359 C0.0456779396,32.6911377 -0.0350388459,32.2960146 0.322732852,31.9576494 C2.91657766,29.3314993 5.57368698,26.7140811 8.17189486,24.087931 C8.57111572,23.6928078 8.96161044,23.2540246 9.4175512,22.9265745 C9.8189536,22.6384184 10.4210572,22.6449674 10.8944502,22.6253204 C13.4817504,22.6275034 16.0712322,22.6493334 18.6585324,22.6165884 C19.0773871,23.7539319 19.4242511,24.8192363 20.2401451,25.7470117 C21.8370285,27.6156605 24.4723225,28.3884429 26.8305615,27.7051636 C29.153896,27.0480803 30.9427545,25.0375364 31.3616092,22.6646144 C31.6604795,20.6759005 31.1369111,18.5998666 29.7320027,17.128524 C27.5744649,14.836373 23.7567791,14.5460339 21.2523772,16.4430617 C19.9041887,17.4341441 19.1559223,18.8596437 18.7217969,20.4466854 C15.9665185,20.4947114 13.2112401,20.4576004 10.4559617,20.4663324 C9.81677206,20.4706984 9.2037608,20.5318225 8.63001716,20.8374426 C7.96901213,21.1889057 7.42362845,21.848172 6.8935155,22.3699093 C4.73379611,24.5245312 2.59589206,26.6944341 0.412175777,28.8206771 C0.505981771,27.9627577 0.593243161,27.1070213 0.787399753,26.2621999 C1.92616089,21.3046048 4.16005247,16.5434797 7.35600087,12.581333 C10.4188757,8.74143435 14.3216413,5.59791299 18.72616,3.43237605 C25.3492994,0.149142625 33.106837,-0.826658799 40.3364431,0.712356869" id="Fill-1" fill="#E0384F" mask="url(#mask-2)"></path>
            </g>
            <path d="M78.5748666,13.0262375 C80.0211671,12.9847006 81.5246419,12.9584668 82.9497667,13.2229912 C83.0492925,17.9210308 82.9794127,22.6300012 82.9243559,27.330227 C82.8036544,32.8327704 82.7867138,38.3331277 82.5749568,43.8312988 C82.5410757,46.5552436 82.4373147,49.2748161 82.3250835,51.998761 C79.9766981,51.9659687 77.592314,52.0883932 75.2587515,51.8304273 C75.1846366,51.0958804 75.1316973,50.3613335 75.123227,49.6224142 C74.926293,40.0055336 74.985585,30.3799084 75.1592257,20.7630278 C75.2714569,18.5943655 75.2333407,16.3623048 75.4662734,14.2045732 C75.5552114,13.8482305 75.4323923,13.480957 75.8495536,13.349788 C76.705052,13.0743329 77.685487,13.061216 78.5748666,13.0262375" id="Fill-4" fill="#000000"></path>
            <path d="M220.362451,16.0452301 C223.187223,16.2113146 226.161595,16.7009403 228.757569,17.8419623 C229.454963,18.187073 230.330554,18.5321836 230.823349,19.142598 C230.76835,20.0959661 230.354754,21.0622759 230.007157,21.9487788 C229.415363,23.3292213 228.775169,24.7571165 227.890778,25.9865732 C224.885607,24.5867182 221.744037,23.6549195 218.38467,23.7606096 C217.33088,23.8166901 216.083492,24.0453259 215.2673,24.7484888 C214.393909,25.4624364 214.147511,26.7846415 214.684306,27.761736 C215.060502,28.3829351 215.830495,28.7517721 216.486089,29.0192328 C218.466069,29.7957317 220.575849,30.0761341 222.676828,30.7124318 C225.220004,31.4738321 227.919378,32.5997556 229.69916,34.607868 C230.823349,35.7834011 231.443743,37.2501213 231.78694,38.8095899 C232.284135,41.3396822 231.925539,43.9948771 230.559352,46.2165268 C229.373563,48.0585548 227.66638,49.5446874 225.6446,50.4527598 C222.346832,51.9841882 218.446269,52.2149809 214.864704,51.8461439 C211.426138,51.4104418 207.903972,50.3513835 205,48.457589 C205.092399,47.3446072 205.450996,46.3092753 205.831592,45.2653156 C206.359587,43.8633037 206.898582,42.415996 207.782973,41.1973241 C209.560556,42.2995212 211.465737,43.4276015 213.483118,44.038016 C215.487298,44.6915692 217.667477,44.8878509 219.731057,44.404696 C220.538449,44.2041005 221.409641,43.7964385 221.862836,43.078177 C222.382031,42.230499 222.445831,41.0031994 221.810037,40.1965033 C221.279842,39.5386361 220.48565,39.102934 219.700257,38.8031191 C217.581678,38.0072077 215.478498,37.7613164 213.28952,37.112077 C211.716535,36.6655902 210.207349,35.9236023 208.887362,34.9745481 C207.318777,33.7645039 206.150589,32.0432647 205.695193,30.1300576 C205.118799,27.8825247 205.074799,25.3330199 205.939391,23.1501952 C206.830382,20.7171652 208.900562,18.700425 211.241339,17.5701877 C214.046312,16.1875882 217.264881,15.866204 220.362451,16.0452301" id="Fill-6" fill="#000000"></path>
            <g id="Group-10" transform="translate(234, 16)">
                <mask id="mask-4" fill="white">
                    <use xlink:href="#path-3"></use>
                </mask>
                <g id="Clip-9"></g>
                <path d="M25.9382822,0.915114488 C27.6409825,1.45300093 29.4694003,2.15355465 30.8236205,3.33126569 C30.3758898,5.23989501 29.5907067,7.08128852 28.7106841,8.83375725 C28.3511762,9.57552001 27.8990342,10.2392025 27.3719029,10.8725204 C24.3348325,9.2241587 20.9095818,8.04644766 17.4005193,8.5886719 C14.2289091,9.11571386 11.5844303,11.3626911 10.4375337,14.2950398 C9.40532673,16.9584452 9.46928827,19.9038073 10.3294607,22.604084 C10.8345363,24.2502768 11.9108547,25.7489846 13.2893361,26.7987307 C15.055998,28.1195889 17.2461294,28.5967463 19.4384663,28.4362479 C22.1998404,28.2627361 24.5642118,27.0763495 26.7499321,25.4843791 C28.5849666,27.3344482 29.7980303,29.8547065 31.0000662,32.1320483 C29.6965741,33.4702577 28.1063578,34.4657814 26.3882185,35.211882 C22.6100765,36.8884393 18.4591931,37.3070364 14.3678601,36.7951767 C11.3153507,36.3397084 8.43487577,35.2400776 6.0881489,33.2338479 C3.34441937,30.9413239 1.62407449,27.7443698 0.772724325,24.3370327 C0.0735585192,21.4849332 -0.197726636,18.478842 0.152959052,15.5573378 C0.598484266,12.0198669 1.9725546,8.64289432 4.38765415,5.95996879 C7.14902825,2.84543277 11.010982,0.958492427 15.133193,0.303485548 C18.6797501,-0.251752072 22.4777423,-0.0435379644 25.9382822,0.915114488" id="Fill-8" fill="#000000" mask="url(#mask-4)"></path>
            </g>
            <path d="M169.610432,23.9652052 C170.965866,23.9530678 172.315883,24.0724556 173.491921,24.6272448 C174.867721,25.2252872 175.602419,26.5999021 175.684751,28.080664 C175.840747,29.7181086 175.377092,31.3268648 173.93846,32.2206182 C171.828178,33.516009 168.868367,33.0900969 166.51759,32.9488618 C166.53709,29.9939584 166.53709,27.0414825 166.51759,24.088786 C167.498633,24.0636284 168.556157,23.9746945 169.610432,23.9652052 M169.236908,16.0006483 C165.332669,16.0447843 161.384882,16.1090021 157.502309,16.5658094 C157.149151,21.3589761 157.240366,26.1585424 157.073537,30.9583294 C157.030204,36.4025016 156.990989,41.8446877 157.001822,47.2888599 C157.045154,48.9527861 156.956323,50.6716615 157.153485,52.3201401 C158.121961,52.507718 159.155653,52.4439415 160.137129,52.4417347 C161.996084,52.3843579 163.887321,52.408412 165.733276,52.167871 C166.047435,48.968013 165.887106,45.8566476 165.978103,42.652376 C166.012769,41.8137925 166.019269,40.9771951 166.017102,40.1408185 C167.124242,40.1937816 168.224882,40.2070224 169.332022,40.1805408 C172.194119,43.9784413 174.807055,48.0148966 177.37016,52.0246497 C177.597654,52.3556695 177.816699,52.759293 178.137358,52.9999181 C179.056002,53.0064544 180.026429,52.6204854 180.890908,52.329188 C182.641532,51.682596 184.437871,50.9475113 186,49.9036956 C185.755173,49.3453755 185.480013,48.8047099 185.159354,48.288319 C183.085904,44.9339851 180.808576,41.7120591 178.351636,38.6379886 C180.288589,37.7773371 182.002381,36.5947138 183.152853,34.7476233 C184.483154,32.6732326 184.847361,30.0822303 184.760697,27.6481315 C184.628533,25.2007918 183.950167,22.5683017 182.401037,20.6395597 C180.981905,18.8101236 178.882456,17.6182317 176.718009,16.9451581 C174.269735,16.1727786 171.787012,15.9874075 169.236908,16.0006483" id="Fill-11" fill="#000000"></path>
            <path d="M197.23623,16.0310573 C198.067417,16.0397214 198.887219,16.1220302 199.707021,16.2368293 C200.055436,19.8215939 199.845932,23.3522079 199.989397,26.9391385 C200.009892,30.1166911 199.993951,33.2942437 199.996228,36.4717963 C199.85504,41.5077949 200.016724,46.5372954 199.666031,51.5689618 C198.185833,52.0324903 196.514349,51.997834 194.96128,52 C193.346727,51.9371854 191.818707,51.9761738 190.23148,51.692425 C189.942273,41.7655514 189.965045,31.8213495 190.078906,21.8923098 C190.09257,20.0338639 190.181381,18.1819161 190.279302,16.3234702 C192.586133,15.9292544 194.888409,15.9877369 197.23623,16.0310573" id="Fill-13" fill="#000000"></path>
            <path d="M145.653872,26 C148.114152,26.3516285 150.624332,26.9362379 153,27.6761678 C152.544393,29.4084235 152.004172,31.1147925 151.431409,32.8125326 C149.537383,38.5011484 147.558745,44.1638774 145.519359,49.8028768 C145.263351,50.4565175 145.057243,51.164089 144.699266,51.7702707 C144.323932,52.0097232 143.716455,51.9579497 143.280374,51.9967798 C141.104306,51.9838364 138.904372,51.8824466 136.75217,51.5588621 C135.435247,47.7168353 134.326602,43.8122488 133.313418,39.8796184 C132.877336,40.8935165 132.558411,41.9246725 132.174399,42.9536713 C131.148198,45.7688565 130.033044,48.5495261 128.859312,51.3086234 C128.711782,51.5653338 128.6749,51.8695032 128.323431,51.8975472 C127.752837,51.998937 127.156208,52.0032515 126.576936,51.998937 C124.589619,51.9450063 122.61532,51.8846038 120.64753,51.5825916 C119.031208,46.1463718 117.440921,40.7036803 115.928738,35.2394165 C115.251836,32.665841 114.440421,30.0965799 114,27.4733882 C116.41472,26.7636595 118.944426,26.3688863 121.441589,26.0798175 C121.847296,27.1001873 122.151035,28.1486012 122.426569,29.2099584 C123.615487,33.6430662 124.563585,38.1279476 125.628838,42.5869422 C126.809079,38.9520095 128.366822,35.4745546 129.690254,31.8957098 C129.852971,31.3844463 130.115487,30.9271135 129.926736,30.387806 C129.581776,29.2034867 129.041555,28.1421295 128.943925,26.8887788 C130.631842,26.4292888 132.423899,26.2459242 134.166055,26.1466916 C134.704105,26.14022 135.32026,26.0690314 135.836615,26.2351381 C136.179406,26.6212823 136.300901,27.2555079 136.472296,27.7365702 C137.936749,32.6356398 139.225467,37.5907973 140.518525,42.5373259 C142.169559,37.3340869 143.620995,32.0682882 145.293725,26.8693637 C145.393525,26.5759804 145.504172,26.2739682 145.653872,26" id="Fill-15" fill="#000000"></path>
            <path d="M100.201239,26.0029824 C103.097205,26.0314716 105.918408,26.9058696 108.240459,28.6480912 C106.529706,30.3968872 104.78377,32.1106196 103.055426,33.8396923 C102.193453,33.4759077 101.37106,33.1362293 100.42113,33.0858254 C98.4750938,32.9543369 96.5026705,33.7717566 95.2602856,35.2751076 C94.3939146,36.2831855 93.9057563,37.5608146 93.7980097,38.8778903 C93.6704728,41.0058113 94.7017622,43.1446896 96.4718857,44.3478086 C98.4311156,45.7218626 101.212738,45.8073301 103.24893,44.5472327 C105.403863,43.2871354 106.584678,40.6705158 106.149294,38.2226397 C106.008564,37.3482417 105.628152,36.6162895 105.234547,35.8383163 C106.938703,34.1552645 108.612075,32.4437236 110.320629,30.7672462 C112.631684,33.8265435 113.366121,37.7295581 112.836183,41.4747866 C112.49975,43.4164323 111.807092,45.2726105 110.608686,46.8548545 C109.016674,49.0813918 106.62206,50.7096567 103.983366,51.4350345 C100.636624,52.390517 96.8720875,52.1538379 93.7518325,50.5737853 C91.388003,49.3991555 89.4639557,47.3588935 88.3249197,44.9942934 C86.9967773,41.9547194 86.5657907,38.4242553 87.500328,35.2093634 C88.2743447,32.3823623 90.1082367,29.8314869 92.5358346,28.1791158 C94.7853208,26.6472757 97.4921805,25.9481956 100.201239,26.0029824" id="Fill-17" fill="#000000"></path>
        </g>
    </g>
</svg>