<svg xmlns="http://www.w3.org/2000/svg" role="img" viewBox="2.84 9.84 606.32 157.82"><title>Microchip.svg</title><style>svg {enable-background:new 0 0 612 178.7}</style><path d="M237 112.8L233.6 70h-.1l-13.2 34.2c-1.2 3.2-3.9 5.8-7.7 5.8-3.8 0-6.8-3.1-7.7-5.8L192 70.5h-.1l-3.7 42.4h-12.6l6.4-60.3c.4-3.3 3.2-7.1 6.9-7.1 5.7 0 8 3.3 9.1 6.7l14.6 36.6h.1L227.2 52c1.3-3.3 3.5-6.7 9.1-6.7 3.7 0 6.4 3.8 6.9 7.9l6.4 59.5-12.6.1zm19.2-51h11.7v51h-11.7v-51zm277.4 0h11.8v51h-11.8v-51zM274.4 79.7c0-14.9 5.7-18.5 15.3-18.5h12.5c15.2 0 17.1-1 17 13.5h-27.5c-5.6 0-6.5 3.6-6.5 9.9V90c0 7.4 1.1 10.2 6.1 10.2h28.3c0 8.6-.1 13.1-10.8 13.1h-19.2c-9.6 0-15.3-3.5-15.3-18.5V79.7h.1zm96.3.5V77c0-9.2-2.2-15.1-10.4-15.1h-34.1v51h10.7V99.6h18.7c3.3 0 4.4 1.8 4.4 7.1v6.1h10.7v-8.7c0-8.4-2.6-10.4-5.8-11.3v-.1c4.7-1.7 5.8-5.7 5.8-12.5m-10.4 1.3c0 3.7-1.1 5.4-3.9 5.4h-19.5V74.5h18.6c3.4 0 4.9.8 4.9 5.4v1.6h-.1zm16.8-1.8c0-14.9 5.7-18.5 15.3-18.5h17.1c9.6 0 15.3 3.5 15.3 18.5v15.2c0 14.9-5.7 18.5-15.3 18.5h-17.1c-9.6 0-15.3-3.5-15.3-18.5V79.7m11 10.3c0 7.4 1.1 10.2 6.1 10.2h13.6c5 0 6.1-2.8 6.1-10.2v-5.5c0-6.3-1.1-10.2-6.7-10.2h-12.5c-5.6 0-6.7 3.9-6.7 10.2V90h.1zm94.2-28.2h10.6V80h22.5V61.8h10.7v51h-10.7V93.5h-22.5v19.3h-10.6v-51zm103 0h-33v51H563V100h25c7.5 0 9.8-8.7 9.8-16.3v-4.4c0-10-2.4-17.5-12.5-17.5m1.6 20.1c0 3-1 5.4-3.5 5.4H563V74.5h19.6c3.2 0 4.4 2 4.4 5.4v2h-.1zm-156.3-2.1c0-14.9 5.7-18.5 15.3-18.5h12.5c15.2 0 17.1-1 17 13.5H448c-5.6 0-6.5 3.6-6.5 9.9v5.5c0 7.4 1.1 10.2 6.1 10.2h28.3c0 8.6-.1 13.1-10.8 13.1H446c-9.6 0-15.3-3.5-15.3-18.5V79.8h-.1z"/><path fill="#fff" d="M106.4 25c-6.6-1.9-13.5-2.9-20.7-2.9-39.1 0-70.9 29.9-70.9 66.8s31.7 66.8 70.9 66.8c36 0 65.7-25.3 70.3-58L106.4 25z"/><path fill="#ee2a24" d="M115.2 28.2c-9.1-4.3-17.6-6.4-28.4-6.6-39.1-.7-71.4 28.9-72 66.1-.1 6.4.7 12.7 2.4 18.6L37.4 78l13.7 21.4s4.1 4.7 1 9.4c-.2.3-18.6 25.7-18.6 25.7 12.7 13.3 30.6 21.4 51 21.8 19.8.3 37.4-6.9 50.5-19L92 69.4s6.8-9.5 12.1-17.1c5.8-8.3 11.1-2.5 12.9.2 12.6 19.8 36.3 57.3 36.3 57.3v-.2c2.4-5.6 3.7-7.3 3.9-15.3l-42-66.1M105 109.6s-11.5 16.7-12.6 18.3c-7 9.5-12.2-1.5-12.2-1.5L43.8 69.1s6.8-9.5 12.1-17.1c5.8-8.3 11.1-2.5 12.9.2 12.5 19.9 36.2 57.4 36.2 57.4z"/><path d="M126.4 31.8c0-3.1 2.5-5.4 5.5-5.4s5.5 2.3 5.5 5.4c0 3.2-2.5 5.5-5.5 5.5-2.9 0-5.5-2.3-5.5-5.5m5.6 4.6c2.5 0 4.4-1.9 4.4-4.6 0-2.6-1.9-4.5-4.4-4.5-2.5 0-4.4 2-4.4 4.5-.1 2.7 1.9 4.6 4.4 4.6m-1.2-1.4h-1v-6.3h2.4c1.5 0 2.2.6 2.2 1.8 0 1.1-.7 1.6-1.6 1.7l1.8 2.8h-1.1l-1.7-2.7h-1.1V35h.1m1.2-3.5c.8 0 1.5-.1 1.5-1 0-.8-.7-.9-1.4-.9h-1.3v2h1.2v-.1z"/></svg>