<svg xmlns="http://www.w3.org/2000/svg" id="Layer_2" data-name="Layer 2" viewBox="0 0 391.19 154.05"><defs><style>      .cls-1 {        fill: #ff6012;      }      .cls-2 {        fill: #101820;      }    </style></defs><g id="Layer_1-2" data-name="Layer 1"><g id="uuid-5c230950-e70e-4e96-961f-d7068a5cc147" data-name="Layer 1-2"><polygon class="cls-2" points="192.1 114.5 191.97 27.04 171.61 27.04 141.56 67.57 110.88 27.04 90.52 27.04 90.52 114.5 113.26 114.5 113.26 69.39 135.62 95.88 146.62 95.88 169.14 68.1 169.36 114.5 192.1 114.5"></polygon><path class="cls-2" d="M201.31,114.5V27.04h24.74v87.47h-24.74Z"></path><path class="cls-2" d="M309.35,42.09c-3.12-4.87-7.6-8.6-13.43-11.18-5.83-2.58-12.74-3.87-20.74-3.87h-39.86v87.47h24.74v-22.87h15.12c8,0,14.91-1.31,20.74-3.94,5.83-2.62,10.31-6.33,13.43-11.12,3.12-4.79,4.68-10.56,4.68-17.31s-1.56-12.31-4.68-17.18ZM285.3,68.7c-2.58,2.21-6.46,3.31-11.62,3.31h-13.62v-25.49h13.62c5.16,0,9.04,1.15,11.62,3.44,2.58,2.29,3.87,5.39,3.87,9.31s-1.29,7.23-3.87,9.43Z"></path><path class="cls-2" d="M352.32,116.25c-7.25,0-14.18-.9-20.8-2.69-6.62-1.79-11.98-4.06-16.06-6.81l8.12-18.37c3.91,2.5,8.43,4.56,13.56,6.19,5.12,1.62,10.22,2.44,15.31,2.44,3.5,0,6.27-.29,8.31-.87,2.04-.58,3.54-1.42,4.5-2.5.96-1.08,1.44-2.37,1.44-3.87,0-1.91-.92-3.44-2.75-4.56-1.83-1.12-4.23-2.08-7.18-2.87-2.96-.79-6.16-1.54-9.62-2.25-3.46-.71-6.98-1.64-10.56-2.81-3.58-1.17-6.83-2.7-9.75-4.62-2.92-1.91-5.27-4.41-7.06-7.5-1.79-3.08-2.69-6.95-2.69-11.62,0-5.16,1.42-9.87,4.25-14.12,2.83-4.25,7.12-7.66,12.87-10.25,5.75-2.58,12.91-3.87,21.49-3.87,5.75,0,11.39.65,16.93,1.94,5.54,1.29,10.43,3.23,14.68,5.81l-7.5,18.24c-4.16-2.33-8.29-4.04-12.37-5.12-4.08-1.08-8.04-1.62-11.87-1.62-3.42,0-6.16.37-8.24,1.12-2.08.75-3.58,1.71-4.5,2.87-.92,1.17-1.37,2.42-1.37,3.75,0,2,.91,3.56,2.75,4.69,1.83,1.12,4.21,2.04,7.12,2.75,2.91.71,6.14,1.44,9.68,2.19,3.54.75,7.06,1.69,10.56,2.81,3.5,1.12,6.73,2.62,9.68,4.5,2.96,1.87,5.35,4.33,7.19,7.37,1.83,3.04,2.75,6.85,2.75,11.43,0,5.08-1.44,9.77-4.31,14.06-2.87,4.29-7.18,7.73-12.93,10.31-5.75,2.58-12.95,3.87-21.62,3.87v-.02Z"></path><polygon class="cls-1" points="106.68 21.37 90.52 21.37 90.52 .03 106.68 21.37"></polygon><polygon class="cls-2" points="85.52 58.18 56.43 29.09 85.52 0 85.52 58.18"></polygon><polygon class="cls-2" points="36.57 108.9 56.43 89.04 36.57 69.18 36.57 108.9"></polygon><rect class="cls-1" x="29.01" y="11.82" width="5.4" height="84.29" transform="translate(-28.87 38.23) rotate(-45)"></rect><rect class="cls-1" x="35.53" y="5.3" width="5.4" height="84.29" transform="translate(-22.35 40.93) rotate(-45)"></rect><rect class="cls-1" x="42.05" y="-1.23" width="5.4" height="84.29" transform="translate(-15.82 43.63) rotate(-45)"></rect><rect class="cls-1" x="48.58" y="-7.75" width="5.4" height="84.29" transform="translate(-9.3 46.33) rotate(-45)"></rect></g><g><path d="M37.61,136.75c.56-1.08,1.32-1.92,2.27-2.5.96-.58,2.03-.88,3.21-.88,1.03,0,1.94.21,2.71.62.78.42,1.4.94,1.86,1.58v-1.97h3.52v13.85h-3.52v-2.03c-.45.65-1.07,1.19-1.86,1.61-.79.42-1.7.64-2.74.64-1.17,0-2.23-.3-3.19-.9-.96-.6-1.72-1.45-2.27-2.54-.56-1.09-.84-2.35-.84-3.76s.28-2.64.84-3.73ZM47.18,138.34c-.33-.61-.78-1.08-1.35-1.4-.57-.33-1.17-.49-1.83-.49s-1.25.16-1.8.47c-.55.32-1,.78-1.34,1.39-.34.61-.51,1.33-.51,2.16s.17,1.56.51,2.19c.34.62.79,1.1,1.35,1.44.56.33,1.15.5,1.79.5s1.26-.16,1.83-.49c.57-.32,1.02-.79,1.35-1.4.33-.61.5-1.34.5-2.19s-.17-1.58-.5-2.19Z"></path><path d="M72.67,135.25c-.4-.73-.95-1.29-1.65-1.67-.7-.38-1.52-.58-2.45-.58-1.03,0-1.95.23-2.75.7-.8.47-1.42,1.13-1.88,2-.45.87-.67,1.87-.67,3s.23,2.18.69,3.05c.46.87,1.1,1.53,1.91,2,.82.47,1.77.7,2.85.7,1.33,0,2.43-.35,3.28-1.06.85-.71,1.41-1.7,1.67-2.96h-6v-2.67h9.45v3.05c-.23,1.22-.73,2.34-1.5,3.38-.77,1.03-1.75,1.86-2.96,2.49s-2.56.94-4.06.94c-1.68,0-3.2-.38-4.56-1.14s-2.42-1.81-3.2-3.16c-.77-1.35-1.16-2.88-1.16-4.6s.39-3.25,1.16-4.61,1.84-2.42,3.2-3.17c1.36-.76,2.87-1.14,4.54-1.14,1.97,0,3.68.48,5.12,1.44,1.45.96,2.45,2.3,3,4.04h-4.02Z"></path><path d="M83.29,128.95v18.5h-3.5v-18.5h3.5Z"></path><path d="M89.17,146.79c-1.07-.59-1.9-1.43-2.51-2.51-.61-1.08-.91-2.33-.91-3.75s.31-2.67.94-3.75,1.48-1.92,2.56-2.51c1.08-.59,2.29-.89,3.62-.89s2.54.3,3.62.89c1.08.59,1.94,1.43,2.56,2.51s.94,2.33.94,3.75-.32,2.67-.96,3.75c-.64,1.08-1.51,1.92-2.6,2.51-1.09.59-2.31.89-3.66.89s-2.53-.29-3.6-.89ZM94.55,144.16c.56-.31,1-.77,1.34-1.39.33-.62.5-1.37.5-2.25,0-1.32-.35-2.33-1.04-3.04-.69-.71-1.54-1.06-2.54-1.06s-1.84.35-2.51,1.06c-.68.71-1.01,1.72-1.01,3.04s.33,2.33.99,3.04c.66.71,1.49,1.06,2.49,1.06.63,0,1.23-.15,1.79-.46Z"></path><path d="M107.75,134c.79-.42,1.7-.62,2.71-.62,1.18,0,2.25.29,3.21.88.96.58,1.72,1.41,2.27,2.49.56,1.08.84,2.32.84,3.74s-.28,2.67-.84,3.76c-.56,1.09-1.32,1.94-2.27,2.54-.96.6-2.03.9-3.21.9-1.03,0-1.94-.2-2.71-.61s-1.4-.94-1.86-1.59v1.97h-3.5v-18.5h3.5v6.67c.45-.67,1.07-1.21,1.86-1.62ZM112.7,138.31c-.34-.61-.79-1.07-1.35-1.39-.56-.32-1.16-.47-1.81-.47s-1.23.16-1.79.49c-.56.33-1.01.8-1.35,1.41-.34.62-.51,1.34-.51,2.17s.17,1.56.51,2.17c.34.62.79,1.09,1.35,1.41.56.33,1.15.49,1.79.49s1.25-.17,1.81-.5c.56-.33,1.01-.81,1.35-1.43.34-.62.51-1.35.51-2.2s-.17-1.55-.51-2.16Z"></path><path d="M119.24,136.75c.56-1.08,1.32-1.92,2.27-2.5.96-.58,2.03-.88,3.21-.88,1.03,0,1.94.21,2.71.62.78.42,1.4.94,1.86,1.58v-1.97h3.52v13.85h-3.52v-2.03c-.45.65-1.07,1.19-1.86,1.61-.79.42-1.7.64-2.74.64-1.17,0-2.23-.3-3.19-.9-.96-.6-1.72-1.45-2.27-2.54-.56-1.09-.84-2.35-.84-3.76s.28-2.64.84-3.73ZM128.8,138.34c-.33-.61-.78-1.08-1.35-1.4-.57-.33-1.17-.49-1.83-.49s-1.25.16-1.8.47c-.55.32-1,.78-1.34,1.39-.34.61-.51,1.33-.51,2.16s.17,1.56.51,2.19c.34.62.79,1.1,1.35,1.44.56.33,1.15.5,1.79.5s1.26-.16,1.83-.49c.57-.32,1.02-.79,1.35-1.4.33-.61.5-1.34.5-2.19s-.17-1.58-.5-2.19Z"></path><path d="M139.53,128.95v18.5h-3.5v-18.5h3.5Z"></path><path d="M153.66,130v2.83h-7.27v4.47h5.57v2.78h-5.57v7.38h-3.5v-17.45h10.77Z"></path><path d="M157.75,146.79c-1.07-.59-1.9-1.43-2.51-2.51-.61-1.08-.91-2.33-.91-3.75s.31-2.67.94-3.75,1.48-1.92,2.56-2.51c1.08-.59,2.29-.89,3.62-.89s2.54.3,3.62.89c1.08.59,1.94,1.43,2.56,2.51s.94,2.33.94,3.75-.32,2.67-.96,3.75c-.64,1.08-1.51,1.92-2.6,2.51-1.09.59-2.31.89-3.66.89s-2.53-.29-3.6-.89ZM163.14,144.16c.56-.31,1-.77,1.34-1.39.33-.62.5-1.37.5-2.25,0-1.32-.35-2.33-1.04-3.04-.69-.71-1.54-1.06-2.54-1.06s-1.84.35-2.51,1.06c-.68.71-1.01,1.72-1.01,3.04s.33,2.33.99,3.04c.66.71,1.49,1.06,2.49,1.06.63,0,1.23-.15,1.79-.46Z"></path><path d="M184.01,133.6v13.85h-3.52v-1.75c-.45.6-1.04,1.07-1.76,1.41-.73.34-1.51.51-2.36.51-1.08,0-2.04-.23-2.88-.69-.83-.46-1.49-1.13-1.96-2.02s-.71-1.95-.71-3.19v-8.12h3.5v7.62c0,1.1.27,1.95.82,2.54.55.59,1.3.89,2.25.89s1.73-.3,2.28-.89c.55-.59.82-1.44.82-2.54v-7.62h3.52Z"></path><path d="M198.9,134.96c1.02,1.04,1.52,2.5,1.52,4.36v8.12h-3.5v-7.65c0-1.1-.27-1.95-.82-2.54-.55-.59-1.3-.89-2.25-.89s-1.73.3-2.29.89c-.56.59-.84,1.44-.84,2.54v7.65h-3.5v-13.85h3.5v1.72c.47-.6,1.06-1.07,1.79-1.41.72-.34,1.52-.51,2.39-.51,1.65,0,2.98.52,4,1.56Z"></path><path d="M203.57,136.75c.56-1.08,1.32-1.92,2.29-2.5.97-.58,2.04-.88,3.22-.88.9,0,1.76.2,2.58.59.82.39,1.47.91,1.95,1.56v-6.58h3.55v18.5h-3.55v-2.05c-.43.68-1.04,1.23-1.83,1.65-.78.42-1.69.62-2.73.62-1.17,0-2.23-.3-3.2-.9-.97-.6-1.73-1.45-2.29-2.54-.56-1.09-.84-2.35-.84-3.76s.28-2.64.84-3.73ZM213.13,138.34c-.33-.61-.78-1.08-1.35-1.4-.57-.33-1.17-.49-1.83-.49s-1.25.16-1.8.47c-.55.32-1,.78-1.34,1.39-.34.61-.51,1.33-.51,2.16s.17,1.56.51,2.19c.34.62.79,1.1,1.35,1.44.56.33,1.15.5,1.79.5s1.26-.16,1.83-.49c.57-.32,1.02-.79,1.35-1.4.33-.61.5-1.34.5-2.19s-.17-1.58-.5-2.19Z"></path><path d="M225.63,134.03c.72-.42,1.55-.62,2.49-.62v3.67h-.92c-1.1,0-1.93.26-2.49.78-.56.52-.84,1.42-.84,2.7v6.9h-3.5v-13.85h3.5v2.15c.45-.73,1.04-1.31,1.76-1.72Z"></path><path d="M230.23,131.36c-.41-.39-.61-.88-.61-1.46s.2-1.07.61-1.46.92-.59,1.54-.59,1.13.2,1.54.59.61.88.61,1.46-.2,1.07-.61,1.46c-.41.39-.92.59-1.54.59s-1.13-.2-1.54-.59ZM233.5,133.6v13.85h-3.5v-13.85h3.5Z"></path><path d="M249.51,141.58h-10.12c.08,1,.43,1.78,1.05,2.35.62.57,1.38.85,2.28.85,1.3,0,2.22-.56,2.77-1.67h3.78c-.4,1.33-1.17,2.43-2.3,3.29-1.13.86-2.53,1.29-4.18,1.29-1.33,0-2.53-.29-3.59-.89-1.06-.59-1.88-1.43-2.48-2.51s-.89-2.33-.89-3.75.29-2.69.88-3.78c.58-1.08,1.4-1.92,2.45-2.5,1.05-.58,2.26-.88,3.62-.88s2.5.28,3.54.85c1.04.57,1.85,1.37,2.42,2.41.58,1.04.86,2.24.86,3.59,0,.5-.03.95-.1,1.35ZM245.98,139.23c-.02-.9-.34-1.62-.97-2.16-.63-.54-1.41-.81-2.33-.81-.87,0-1.6.26-2.19.79-.59.52-.95,1.25-1.09,2.19h6.58Z"></path><path d="M254.17,147.06c-.9-.41-1.61-.96-2.14-1.66-.53-.7-.81-1.48-.86-2.33h3.52c.07.53.33.97.79,1.33.46.35,1.03.52,1.71.52s1.19-.13,1.56-.4.56-.61.56-1.03c0-.45-.23-.79-.69-1.01-.46-.22-1.19-.47-2.19-.74-1.03-.25-1.88-.51-2.54-.77-.66-.27-1.23-.68-1.7-1.23s-.71-1.29-.71-2.22c0-.77.22-1.47.66-2.1.44-.63,1.08-1.13,1.9-1.5.83-.37,1.8-.55,2.91-.55,1.65,0,2.97.41,3.95,1.24.98.83,1.52,1.94,1.62,3.34h-3.35c-.05-.55-.28-.99-.69-1.31s-.95-.49-1.64-.49c-.63,0-1.12.12-1.46.35-.34.23-.51.56-.51.98,0,.47.23.82.7,1.06.47.24,1.19.49,2.17.74,1,.25,1.83.51,2.47.77.65.27,1.21.68,1.69,1.24.48.56.72,1.3.74,2.21,0,.8-.22,1.52-.66,2.15s-1.08,1.13-1.9,1.49c-.83.36-1.79.54-2.89.54s-2.15-.2-3.05-.61Z"></path><path d="M271.42,136.76c.58-1.08,1.39-1.91,2.42-2.5s2.22-.89,3.55-.89c1.72,0,3.14.43,4.26,1.29s1.88,2.06,2.26,3.61h-3.78c-.2-.6-.54-1.07-1.01-1.41-.48-.34-1.06-.51-1.76-.51-1,0-1.79.36-2.38,1.09-.58.73-.88,1.75-.88,3.09s.29,2.34.88,3.06c.58.72,1.38,1.09,2.38,1.09,1.42,0,2.34-.63,2.77-1.9h3.78c-.38,1.5-1.14,2.69-2.28,3.58-1.13.88-2.55,1.32-4.25,1.32-1.33,0-2.52-.29-3.55-.89s-1.84-1.43-2.42-2.5c-.58-1.08-.88-2.33-.88-3.76s.29-2.69.88-3.76Z"></path><path d="M288.82,146.79c-1.07-.59-1.9-1.43-2.51-2.51-.61-1.08-.91-2.33-.91-3.75s.31-2.67.94-3.75,1.48-1.92,2.56-2.51,2.29-.89,3.62-.89,2.54.3,3.62.89,1.94,1.43,2.56,2.51.94,2.33.94,3.75-.32,2.67-.96,3.75c-.64,1.08-1.51,1.92-2.6,2.51s-2.31.89-3.66.89-2.53-.29-3.6-.89ZM294.2,144.16c.56-.31,1-.77,1.34-1.39.33-.62.5-1.37.5-2.25,0-1.32-.35-2.33-1.04-3.04-.69-.71-1.54-1.06-2.54-1.06s-1.84.35-2.51,1.06c-.67.71-1.01,1.72-1.01,3.04s.33,2.33.99,3.04c.66.71,1.49,1.06,2.49,1.06.63,0,1.23-.15,1.79-.46Z"></path><path d="M323.35,134.96c1.04,1.04,1.56,2.5,1.56,4.36v8.12h-3.5v-7.65c0-1.08-.27-1.91-.83-2.49-.55-.58-1.3-.86-2.25-.86s-1.7.29-2.26.86c-.56.58-.84,1.4-.84,2.49v7.65h-3.5v-7.65c0-1.08-.28-1.91-.83-2.49s-1.3-.86-2.25-.86-1.73.29-2.29.86c-.56.58-.84,1.4-.84,2.49v7.65h-3.5v-13.85h3.5v1.67c.45-.58,1.03-1.04,1.74-1.38.71-.33,1.49-.5,2.34-.5,1.08,0,2.05.23,2.9.69.85.46,1.51,1.11,1.97,1.96.45-.8,1.1-1.44,1.96-1.92.86-.48,1.79-.72,2.79-.72,1.7,0,3.07.52,4.11,1.56Z"></path><path d="M333.4,134.01c.79-.42,1.7-.64,2.71-.64,1.18,0,2.25.29,3.21.88.96.58,1.72,1.41,2.27,2.49.56,1.08.84,2.32.84,3.74s-.28,2.67-.84,3.76c-.56,1.09-1.32,1.94-2.27,2.54-.96.6-2.03.9-3.21.9-1.02,0-1.91-.21-2.69-.62-.78-.42-1.4-.94-1.89-1.57v8.57h-3.5v-20.45h3.5v2c.45-.63,1.07-1.16,1.86-1.59ZM338.35,138.31c-.34-.61-.79-1.07-1.35-1.39-.56-.32-1.16-.47-1.81-.47s-1.23.16-1.79.49-1.01.8-1.35,1.41c-.34.62-.51,1.34-.51,2.17s.17,1.56.51,2.17c.34.62.79,1.09,1.35,1.41.56.33,1.15.49,1.79.49s1.25-.17,1.81-.5c.56-.33,1.01-.81,1.35-1.43.34-.62.51-1.35.51-2.2s-.17-1.55-.51-2.16Z"></path><path d="M344.89,136.75c.56-1.08,1.32-1.92,2.27-2.5.96-.58,2.03-.88,3.21-.88,1.03,0,1.94.21,2.71.62.78.42,1.4.94,1.86,1.58v-1.97h3.52v13.85h-3.52v-2.03c-.45.65-1.07,1.19-1.86,1.61-.79.42-1.7.64-2.74.64-1.17,0-2.23-.3-3.19-.9-.96-.6-1.72-1.45-2.27-2.54-.56-1.09-.84-2.35-.84-3.76s.28-2.64.84-3.73ZM354.45,138.34c-.33-.61-.78-1.08-1.35-1.4s-1.17-.49-1.83-.49-1.25.16-1.8.47c-.55.32-1,.78-1.34,1.39-.34.61-.51,1.33-.51,2.16s.17,1.56.51,2.19c.34.62.79,1.1,1.35,1.44.56.33,1.15.5,1.79.5s1.26-.16,1.83-.49c.57-.32,1.02-.79,1.35-1.4.33-.61.5-1.34.5-2.19s-.17-1.58-.5-2.19Z"></path><path d="M373.36,134.96c1.02,1.04,1.53,2.5,1.53,4.36v8.12h-3.5v-7.65c0-1.1-.28-1.95-.83-2.54s-1.3-.89-2.25-.89-1.73.3-2.29.89c-.56.59-.84,1.44-.84,2.54v7.65h-3.5v-13.85h3.5v1.72c.47-.6,1.06-1.07,1.79-1.41.72-.34,1.52-.51,2.39-.51,1.65,0,2.98.52,4,1.56Z"></path><path d="M390.63,133.6l-8.58,20.4h-3.72l3-6.9-5.55-13.5h3.92l3.58,9.67,3.62-9.67h3.72Z"></path></g></g></svg>