<?xml version="1.0" encoding="UTF-8"?>
<svg id="Layer_1" data-name="Layer 1" xmlns="http://www.w3.org/2000/svg" viewBox="0 0 293.786 66.591">
  <defs>
    <style>
      .cls-1 {
        fill: none;
      }

      .cls-2 {
        fill: #ff6012;
      }

      .cls-3 {
        fill: #101820;
      }
    </style>
  </defs>
  <g>
    <path class="cls-3" d="M256.167,55.871c.455-.229.961-.344,1.52-.344.657,0,1.252.158,1.783.473.531.315.95.763,1.256,1.344.306.581.459,1.245.459,1.993s-.153,1.416-.459,2.006-.728,1.049-1.263,1.378c-.536.329-1.128.493-1.776.493-.577,0-1.087-.113-1.533-.338-.446-.225-.799-.513-1.061-.864v1.081h-1.54v-9.997h1.54v3.661c.261-.36.619-.655,1.074-.885ZM259.301,58.006c-.211-.374-.491-.657-.837-.851-.347-.193-.718-.29-1.115-.29-.387,0-.754.099-1.101.297-.347.198-.626.486-.838.865s-.317.824-.317,1.337.106.961.317,1.344.491.673.838.871c.346.198.713.297,1.101.297.396,0,.768-.102,1.115-.304s.626-.497.837-.885c.211-.387.317-.837.317-1.351s-.106-.957-.317-1.331Z"/>
    <path class="cls-3" d="M269.277,55.649l-4.566,10.942h-1.594l1.513-3.621-2.931-7.322h1.715l2.094,5.674,2.175-5.674h1.594Z"/>
    <path class="cls-3" d="M280.476,56.405c-.243-.468-.581-.822-1.013-1.061-.432-.238-.932-.358-1.5-.358-.621,0-1.175.14-1.662.419s-.867.675-1.141,1.188c-.275.514-.412,1.108-.412,1.783s.137,1.272.412,1.79c.274.518.655.917,1.141,1.196s1.041.418,1.662.418c.838,0,1.518-.234,2.04-.702s.842-1.103.959-1.905h-3.526v-1.229h5.174v1.202c-.099.729-.358,1.401-.777,2.013s-.964,1.101-1.635,1.465-1.416.547-2.236.547c-.882,0-1.688-.205-2.418-.615-.729-.41-1.308-.979-1.736-1.709s-.642-1.553-.642-2.472.214-1.743.642-2.472,1.008-1.299,1.743-1.709c.734-.41,1.538-.614,2.411-.614,1,0,1.889.245,2.668.736.779.491,1.344,1.187,1.695,2.087h-1.851Z"/>
    <path class="cls-3" d="M289.514,53.703v1.256h-3.985v2.769h3.107v1.256h-3.107v4.107h-1.54v-9.389h5.525Z"/>
  </g>
  <path class="cls-3" d="M253.29,12.17c1.77,1.537,2.655,3.532,2.655,5.985,0,.714-.063,1.382-.187,2.003-.373,2.174-1.32,4.114-2.841,5.821-1.521,1.708-3.556,2.919-6.101,3.633l5.263,12.947h-8.989l-4.611-12.342h-1.909l-2.189,12.342h-7.964l5.775-32.694h13.366c3.384,0,5.961.768,7.731,2.305ZM247.702,19.505c0-.993-.319-1.762-.955-2.305-.637-.543-1.576-.815-2.818-.815h-4.937l-1.444,8.197h4.937c1.459,0,2.615-.356,3.47-1.071.854-.714,1.405-1.723,1.654-3.027.062-.496.093-.823.093-.978Z"/>
  <path class="cls-3" d="M261.976,17.526c1.847-2.53,4.137-4.501,6.87-5.915,2.732-1.412,5.682-2.119,8.849-2.119,3.881,0,7.025,1.025,9.431,3.074,2.406,2.049,3.764,4.843,4.075,8.383h-8.756c-.404-1.335-1.141-2.352-2.212-3.051-1.071-.698-2.383-1.048-3.935-1.048-2.453,0-4.58.846-6.381,2.538-1.801,1.693-2.95,3.952-3.446,6.777-.156.87-.233,1.63-.233,2.282,0,2.174.606,3.897,1.816,5.17,1.211,1.273,2.872,1.909,4.983,1.909,1.521,0,2.941-.357,4.261-1.071,1.32-.714,2.429-1.739,3.33-3.074h8.756c-1.553,3.54-3.897,6.327-7.033,8.36-3.136,2.034-6.644,3.051-10.526,3.051-2.794,0-5.232-.543-7.312-1.63-2.081-1.086-3.679-2.623-4.797-4.611-1.118-1.987-1.676-4.3-1.676-6.939,0-1.179.108-2.329.326-3.446.559-3.229,1.762-6.109,3.609-8.64Z"/>
  <path class="cls-1" d="M212.538,30.729l-1.909-12.109-6.331,12.284c.575.153,1.166.3,1.79.435,2.094.452,4.337.71,6.666.864l-.231-1.474h.016Z"/>
  <path class="cls-1" d="M203.052,18.226s-2.286,1.069-3.518,1.632c-1.375.629-2.479,1.35-3.243,2.163-.01.011-.02.022-.03.032-.01.011-.02.022-.03.032-.837.918-1.202,1.905-.99,2.938.216,1.053,1.027,2.104,2.479,3.105l6.177-11.471-.845,1.568Z"/>
  <path class="cls-3" d="M213.356,36.053l.114.731.932,5.775h8.43l-1.358-7.332c-2.213.381-4.88.672-8.118.826Z"/>
  <path class="cls-3" d="M203.897,16.658l-6.177,11.471c.122.084.241.169.373.253,1.547.982,3.635,1.839,6.205,2.523l6.331-12.284,1.909,12.109h-.016l.231,1.474c1.888.125,3.832.184,5.807.213.75.011,1.562.033,2.403.055l-4.186-22.606h-9.222l-3.544,6.582h0s-.114.211-.114.211Z"/>
  <path class="cls-3" d="M189.95,42.559h8.337l2.981-5.775.492-.955c-2.882-.29-5.362-.759-7.453-1.361l-4.357,8.091Z"/>
  <path class="cls-2" d="M232.368,31.366c-2.408,1.305-7.286,1.211-11.405,1.105-.841-.022-1.653-.044-2.403-.055-1.975-.029-3.918-.087-5.807-.213-2.328-.155-4.571-.412-6.666-.864-.624-.135-1.215-.282-1.79-.435-2.57-.683-4.658-1.541-6.205-2.523-.132-.084-.25-.168-.373-.253-1.452-1.001-2.263-2.052-2.479-3.105-.212-1.033.153-2.021.99-2.938.01-.011.02-.022.03-.032.01-.011.02-.022.03-.032.764-.813,1.868-1.534,3.243-2.163,1.231-.563,3.518-1.632,3.518-1.632l.845-1.568.114-.211h0s-11.621,3.324-15.058,5.8c-5.596,4.032-4.118,9.493,5.354,12.221,2.091.602,4.571,1.071,7.453,1.361,2.809.283,5.991.4,9.57.303.704-.019,1.37-.048,2.025-.079,3.238-.154,5.905-.445,8.118-.826,5.841-1.006,8.604-2.62,10.894-3.861Z"/>
  <polygon class="cls-3" points="13.671 40.716 21.098 33.29 13.671 25.865 13.671 40.716 13.671 40.716"/>
  <polygon class="cls-2" points="39.883 7.99 33.842 7.99 33.842 .011 39.883 7.99 39.883 7.99"/>
  <polygon class="cls-3" points="31.974 21.752 21.095 10.876 31.974 0 31.974 21.752 31.974 21.752"/>
  <polygon class="cls-2" points="0 9.749 1.426 8.321 23.712 30.606 22.282 32.033 0 9.749 0 9.749"/>
  <polygon class="cls-2" points="2.435 7.311 3.865 5.883 26.147 28.168 24.721 29.595 2.435 7.311 2.435 7.311"/>
  <polygon class="cls-2" points="4.874 4.868 6.301 3.44 28.586 25.725 27.156 27.152 4.874 4.868 4.874 4.868"/>
  <polygon class="cls-2" points="7.317 2.429 8.743 1.002 31.029 23.287 29.599 24.714 7.317 2.429 7.317 2.429"/>
  <path class="cls-3" d="M72.144,10.003v32.773h-9.111v-18.084l-6.183,18.084h-7.624l-6.229-18.223v18.223h-9.111V10.003h11.017l8.228,21.291,8.042-21.291h10.971Z"/>
  <path class="cls-3" d="M84.835,10.003v32.773h-9.111V10.003h9.111Z"/>
  <path class="cls-3" d="M112.936,26.343c-.914,1.627-2.294,2.929-4.137,3.905-1.844.976-4.099,1.464-6.764,1.464h-4.509v11.064h-9.111V10.003h13.62c2.634,0,4.873.465,6.717,1.394,1.844.93,3.231,2.216,4.161,3.859.93,1.643,1.395,3.533,1.395,5.671,0,1.984-.458,3.789-1.372,5.416ZM105.01,20.928c0-2.386-1.286-3.579-3.859-3.579h-3.626v7.112h3.626c2.572,0,3.859-1.177,3.859-3.533Z"/>
  <path class="cls-3" d="M119.56,40.382c-2.449-1.813-3.766-4.408-3.951-7.787h9.716c.093,1.147.434,1.984,1.023,2.51.588.527,1.348.79,2.278.79.837,0,1.526-.209,2.069-.628.542-.418.814-.999.814-1.743,0-.96-.45-1.704-1.348-2.231-.899-.527-2.356-1.116-4.37-1.767-2.138-.713-3.866-1.402-5.183-2.069-1.317-.666-2.464-1.642-3.44-2.929-.976-1.286-1.465-2.967-1.465-5.044,0-2.107.527-3.912,1.581-5.416,1.053-1.503,2.51-2.642,4.37-3.417,1.859-.774,3.967-1.162,6.322-1.162,3.812,0,6.857.891,9.135,2.673,2.278,1.783,3.494,4.285,3.649,7.508h-9.901c-.031-.991-.333-1.735-.907-2.231-.573-.495-1.309-.744-2.208-.744-.682,0-1.24.202-1.673.604-.434.403-.651.976-.651,1.72,0,.62.24,1.155.72,1.604.48.449,1.076.837,1.79,1.162.713.325,1.767.736,3.161,1.232,2.076.713,3.789,1.418,5.136,2.115,1.348.697,2.511,1.673,3.487,2.929.976,1.255,1.465,2.844,1.465,4.765,0,1.953-.488,3.704-1.465,5.253-.976,1.55-2.387,2.774-4.23,3.673-1.844.899-4.021,1.348-6.532,1.348-3.812,0-6.943-.906-9.39-2.719Z"/>
  <path class="cls-3" d="M144.99,9.799v2.106h-.578l-.014-1.323-.542,1.323h-.428l-.542-1.371v1.371h-.563v-2.106h.831l.51,1.352.549-1.352h.777ZM140.408,9.799h1.587v.491h-.478v1.616h-.631l.007-1.616h-.485v-.491h0Z"/>
  <path id="GlobalFoundries-2" class="cls-2" d="M157.955,24.514h13.024v-13.024h-13.024v13.024ZM157.955,40.794h13.024v-13.024h-13.024v13.024Z"/>
  <path class="cls-3" d="M292.977,9.949c.255.145.454.345.597.6.142.255.213.543.213.866s-.071.611-.213.866c-.143.255-.342.455-.597.6s-.544.217-.866.217-.61-.072-.865-.217c-.256-.145-.455-.345-.601-.6-.145-.255-.218-.544-.218-.866s.073-.611.218-.866c.146-.255.345-.455.601-.6.255-.145.543-.218.865-.218s.611.073.866.218ZM293.041,12.365c.233-.242.351-.559.351-.951s-.117-.708-.351-.95-.544-.363-.931-.363c-.392,0-.703.121-.934.363-.231.242-.347.559-.347.95s.115.709.347.951c.23.242.542.362.934.362.387,0,.697-.121.931-.362ZM292.764,11.403c-.06.088-.141.154-.242.197l.427.661h-.612l-.354-.604h-.056v.604h-.508v-1.732h.813c.188,0,.339.052.451.157.113.105.169.241.169.407,0,.118-.029.222-.088.311ZM291.926,11.245h.273c.043,0,.079-.012.109-.036.029-.024.044-.058.044-.101,0-.043-.015-.075-.044-.097-.03-.021-.066-.032-.109-.032h-.273v.266Z"/>
</svg>