<svg xmlns="http://www.w3.org/2000/svg" viewBox="0 0 291.15 38.62"><defs><style>.cls-1{fill:#2f2f3b;}</style></defs><g id="Layer_2" data-name="Layer 2"><g id="Layer_1-2" data-name="Layer 1"><g id="Artwork_124" data-name="Artwork 124"><path class="cls-1" d="M93.15,8V30.32H88.76L80.88,19.1V30.32H75.17V8H79.6l7.88,11.23V8Z"/><path class="cls-1" d="M112.66,25v5.36H98.31V8H112.5v5.33H104v3.09h7.69v5.26H104V25Z"/><path class="cls-1" d="M130.69,30.32l-3.51-5.93-3.5,5.93h-6.41L124,18.94,117.52,8h6.41l3.25,5.52L130.43,8h6.41l-6.47,11,6.7,11.35Z"/><path class="cls-1" d="M157.8,13.52h-5.51v16.8h-5.71V13.52h-5.51V8H157.8Z"/><path class="cls-1" d="M162,25.25l1.92-1.11c.79,2.67,2.9,4.4,6.4,4.4s5.27-1.63,5.27-4c0-2.58-2.21-3.41-5.49-4.5-3.63-1.21-7.14-2.17-7.14-6.28,0-3.92,3.16-6.12,6.85-6.12a7.85,7.85,0,0,1,7.37,4.81l-1.88,1.06a5.65,5.65,0,0,0-5.49-3.7c-2.67,0-4.62,1.4-4.62,3.86s1.91,3.18,4.94,4.17c4,1.34,7.69,2.49,7.69,6.63,0,3.83-3.06,6.25-7.53,6.25C166.13,30.7,163.1,28.63,162,25.25Z"/><path class="cls-1" d="M185.29,8V30.32h-2.24V8Z"/><path class="cls-1" d="M205.37,28.22v2.1H192.94V8h2.23V28.22Z"/><path class="cls-1" d="M213.35,8V30.32h-2.23V8Z"/><path class="cls-1" d="M219.73,19.16a11.38,11.38,0,0,1,11.7-11.54,11,11,0,0,1,9.66,5.48l-2,1.15a8.55,8.55,0,0,0-7.68-4.46A9.15,9.15,0,0,0,222,19.16a9.16,9.16,0,0,0,9.47,9.38,8.56,8.56,0,0,0,7.68-4.47l2,1.12a10.94,10.94,0,0,1-9.66,5.51A11.37,11.37,0,0,1,219.73,19.16Z"/><path class="cls-1" d="M246,19.16A11.54,11.54,0,1,1,257.58,30.7,11.46,11.46,0,0,1,246,19.16Zm20.85,0a9.31,9.31,0,1,0-18.62,0,9.31,9.31,0,1,0,18.62,0Z"/><path class="cls-1" d="M291.15,8V30.32h-1.92L276.8,12.15V30.32h-2.23V8h1.91l12.43,18.18V8Z"/><polygon class="cls-1" points="15.4 17.68 3.93 12.56 32.1 0 60.27 12.56 48.8 17.67 32.1 10.23 15.4 17.68"/><polygon class="cls-1" points="63.9 14.11 63.9 24.38 31.95 38.62 0 24.38 0 14.11 31.95 28.35 63.9 14.11"/></g></g></g></svg>