<svg xmlns="http://www.w3.org/2000/svg" role="img" viewBox="-5.22 -10.22 1155.44 280.44"><title>nuclei-logo（纯英文）.svg</title><path d="M138 13.6c-20.7 4.4-37.1 21-41.5 41.9-.8 3.8-1.5 9.2-1.5 12 0 11 4.6 24.3 11.4 33.4 2.1 2.8 2.3 3.8 1.4 5.5-2 3.9-17 31.1-18.4 33.2-1.2 2-1.5 2.1-6.6.8-6.8-1.8-18.9-1.8-25.7.1-18.5 4.9-33.6 20.3-38.5 39.1-2 7.8-2 20.3-.1 27.8 10.9 41.8 62.6 55 91 23.3 3.9-4.2 10-15.1 11.9-21 .5-1.6 2.7-1.7 26.5-1.7h25.9l1.7 4.9c2.1 6.4 8.1 15.5 13.6 20.8 10.3 9.7 21.9 14.4 35.9 14.5 14.3.2 25.5-4.2 35.8-13.7 11.1-10.2 17-22.6 17.9-37.5 1.6-26-14.5-48.9-39.6-56.4-6.8-2-20.2-2.1-26.6-.1-2.7.8-5.2 1.2-5.6 1-.3-.3-5-8.3-10.3-18l-9.7-17.5 3.5-4.6c17.2-22.5 14.9-54.2-5.2-73.7C177 19.9 167 14.6 157 13c-8.2-1.3-10.9-1.2-19 .6zm23.2 24.2c6.5 2.8 13.3 9.4 16.5 16 2.2 4.6 2.8 7 2.8 13.2 0 13.3-7 24.1-19.3 29.8-4.8 2.1-6.4 2.4-14 2-10.1-.5-15-2.6-21.3-8.9-17-17-9.7-45.9 13.4-53.5 5.7-1.9 16.1-1.2 21.9 1.4zM136 120.6c7.2 1.9 17.8 1.8 25.8-.2 3.5-.9 6.5-1.4 6.7-1.3.1.2 4.6 8.2 9.9 17.7L188 154l-3.9 5c-4.7 6-8.7 14.1-10.3 21l-1.1 5h-49.4l-1.7-6.1c-2.1-7.8-5.4-14.1-10.3-20.3l-4-4.9 10-17.9c7.9-14.2 10.3-17.8 11.6-17.3.9.4 4.1 1.3 7.1 2.1zm-52.1 44.1c11 5.2 17.3 14.7 17.9 26.8.5 8.4-.7 13.4-4.7 19.7-6 9.5-19.2 15.8-30.3 14.5-10.8-1.3-20.9-8.6-25.7-18.7-3.5-7.3-3.7-19.1-.4-26.2 7.6-16.7 26.9-23.8 43.2-16.1zm155.8.4c20 9.6 24.1 36.8 7.7 51.9-6.8 6.3-12.3 8.4-21.9 8.5-6.8 0-8.9-.4-13.7-2.8-3.3-1.6-7.6-4.9-10.2-7.8-13.6-15.1-9.5-39.6 8.3-49.3 9.8-5.3 19.4-5.5 29.8-.5zM357 139.5V211h29v-51.7c0-31 .4-51.3.9-50.7.5.5 13.6 23.7 29.2 51.6l28.2 50.8H481V68h-28v52.7c0 44.3-.2 52.5-1.3 51.3-.8-.8-13.7-24.6-28.6-52.8L395.8 68H357v71.5zm163.2-19.8c.4 45.2.7 52.6 2.2 57.8 4.7 16.4 15.9 26.4 35.4 31.7 11.2 3 37.3 3 48.3 0 15.8-4.3 26.7-11.9 32-22.4 6-12 6.2-13.6 6.6-68.6l.4-50.2H614v49.3c0 54.8-.2 56.6-6.2 62.4-5.3 5.1-12 7.5-22.3 8-14.8.8-25.6-3.8-31.1-13.3-3.7-6.3-4.3-16.1-4.4-64.7V68h-30.2l.4 51.7zm207.3-50.6c-14.8 2.2-24.4 6.6-33.1 15.3-10.6 10.6-16.6 26.8-18 48.5-1.1 18.4 1.8 35.8 8.1 48.8 4.8 9.7 11.8 17.1 20.3 21.6 12.5 6.6 14.9 6.9 53 7.4l34.2.5V185h-26.7c-28.6 0-33.8-.7-40.9-5-5-3.2-9.1-9.2-11.7-17.4-1.9-6.2-2.2-9.3-2.2-24.6 0-14.5.3-18.5 1.9-23.3 2.5-7.5 8.8-14.6 15.8-17.8 5.1-2.3 6.2-2.4 34.6-2.7l29.2-.3V68l-29.2.1c-16.1.1-32 .5-35.3 1zm95.8 50.1c.4 43 .7 52.3 2.1 57.6 2.1 8.2 4.8 13.4 9.9 18.9 11.5 12.5 23.5 15.3 66 15.3H921v-26h-21.3c-30.4 0-38-1.8-42.8-10.4-2.2-3.9-2.4-5.4-3-30.1-.4-14.3-.8-37.4-.8-51.3L853 68h-30.2l.5 51.2zM989 69.1c-14.8 2.4-30.5 15.3-38.1 31.3-6.4 13.5-7.4 18.6-7.4 39.1 0 15.6.3 19 2.3 25.8 6.1 21.1 17.5 35.1 33.3 40.6 9.7 3.4 17.6 4.2 48.2 4.8l29.7.6V185h-24.2c-34.1 0-42.8-2.3-49.6-12.6-2.6-3.8-6.2-15.2-6.2-19.3 0-.8 12.7-1.1 40-1.1h40v-25h-40c-22 0-40-.3-40-.8.1-4.6 2.4-15.1 3.9-18 2.3-4.4 7.3-9.3 11.9-11.6 4.5-2.3 19.4-3.5 43.5-3.6h20.7V68l-31.2.1c-17.2.1-33.8.5-36.8 1zm110 70.4V211h30V68h-30v71.5z"/></svg>