<svg width="406" height="79" viewBox="0 0 406 79" fill="none" xmlns="http://www.w3.org/2000/svg">
<g clip-path="url(#clip0_3526_13080)">
<path d="M93.49 41.42C93.49 24.5 100.58 16.51 113.69 16.51C126.8 16.51 133.85 24.5 133.85 41.42C133.85 58.34 126.8 66.33 113.69 66.33C100.58 66.33 93.49 58.34 93.49 41.42ZM126.35 41.38C126.35 28.72 122.83 22.13 113.69 22.13C104.55 22.13 101.03 28.73 101.03 41.38C101.03 54.03 104.55 60.72 113.69 60.72C122.83 60.72 126.35 54.12 126.35 41.38Z" fill="#231F20"/>
<path d="M147.81 28.96L148.02 31.46C148.06 32.07 148.27 32.36 148.72 32.36C149.13 32.36 149.33 32.16 149.62 31.87C151.05 30.52 153.51 28.39 158.55 28.39C164.53 28.39 167.44 31.22 168.71 34.78C169.98 32.12 172.64 28.39 179.61 28.39C191.2 28.39 191.2 38.67 191.2 43.14V65.51H184.15V43.92C184.15 40.52 184.15 33.88 177.72 33.88C173.05 33.88 170.02 37.32 170.02 45.97V65.51H162.97V43.92C162.97 40.44 162.97 33.88 156.5 33.88C151.83 33.92 148.84 37.32 148.84 45.97V65.51H141.79V28.96H147.81Z" fill="#231F20"/>
<path d="M205.6 28.96L205.8 31.46C205.84 32.16 206.09 32.4 206.54 32.4C206.91 32.4 207.11 32.24 207.48 31.91C209.2 30.31 211.82 28.39 216.74 28.39C227.23 28.39 228.42 36.46 228.42 43.22V65.51H221.37V44.33C221.37 40.27 221.25 33.88 215.02 33.88C209.24 33.88 206.62 37.57 206.62 45.56V65.51H199.57V28.96H205.59H205.6Z" fill="#231F20"/>
<path d="M244.84 65.51H237.79V34.37V28.96H244.84V60.1V65.51ZM236.56 16.8C236.56 14.42 238.36 12.58 240.82 12.58C243.28 12.58 245.04 14.42 245.04 16.8C245.04 19.18 243.24 21.02 240.82 21.02C238.4 21.02 236.56 19.22 236.56 16.8Z" fill="#231F20"/>
<path d="M271.96 22.94V65.51H264.63V22.94H250.46L251.12 17.37H286.07L285.45 22.94H271.97H271.96Z" fill="#231F20"/>
<path d="M294.23 28.96L294.52 31.79C294.56 32.2 294.6 32.73 295.18 32.73C295.47 32.73 295.71 32.52 296 32.24C297.76 30.44 300.22 28.39 304.73 28.39C305.71 28.39 306.86 28.47 307.52 28.64L306.91 34.95C306.17 34.87 305.23 34.79 304.33 34.79C297.24 34.79 295.23 39.87 295.23 47.45V65.52H288.22V28.96H294.24H294.23Z" fill="#231F20"/>
<path d="M311.8 52.03V28.97H318.85V50.36C318.85 55.56 319.46 60.56 325.36 60.56C331.26 60.56 333.31 57.12 333.31 49.58V28.97H340.36V65.51H334.34L334.09 63.01C334.05 62.44 333.88 62.11 333.43 62.11C333.06 62.11 332.86 62.4 332.53 62.72C330.64 64.6 328.19 66.08 323.68 66.08C314.18 66.08 311.8 58.95 311.8 52.03Z" fill="#231F20"/>
<path d="M347.03 64.4L347.64 58.99C349.61 59.56 354.89 61.04 359.48 61.04C364.07 61.04 367.47 59.85 367.47 55.39C367.47 51.83 365.05 50.68 360.63 49.7C353.26 48.14 347.48 46.71 347.48 38.93C347.48 31.15 353.87 28.4 361.53 28.4C367.06 28.4 371.36 29.67 373.13 30.24L372.6 35.36C370.63 34.75 366.45 33.52 361.83 33.52C357.21 33.52 354.58 34.91 354.58 38.35C354.58 42.49 358.1 42.77 363.1 43.88C370.11 45.35 374.65 47.36 374.65 54.78C374.65 64.16 367.24 66.25 359.66 66.25C354.09 66.25 348.64 64.94 347.04 64.41L347.03 64.4Z" fill="#231F20"/>
<path d="M393.03 65.9201C381.56 65.9201 381.56 57.1501 381.56 53.7101V19.6701L388.61 18.5601V28.9701H398.11L397.5 34.3801H388.61V52.7701C388.61 57.7701 389.55 60.5501 394.43 60.5501C396.4 60.5501 398.04 60.1001 399.1 59.7301L399.67 64.8501C398.2 65.4201 395.74 65.9201 393.03 65.9201Z" fill="#231F20"/>
<path d="M46.7999 46.8V15.81C49.6299 16.69 52.2499 18.07 54.5499 19.84L64.9899 9.4C58.0899 3.55 49.1799 0 39.4499 0C29.7199 0 20.8099 3.55 13.9199 9.41L24.3599 19.85C26.6599 18.08 29.2699 16.7 32.1099 15.82V46.81H46.7999V46.8Z" fill="#231F20"/>
<path d="M59.62 25.15C62.5 29.19 64.21 34.12 64.21 39.45C64.21 53.1 53.1 64.21 39.45 64.21C25.8 64.21 14.69 53.1 14.69 39.45C14.69 34.12 16.4 29.19 19.28 25.15L8.8 14.67C3.31 21.45 0 30.07 0 39.45C0 61.2 17.7 78.9 39.45 78.9C61.2 78.9 78.9 61.2 78.9 39.45C78.9 30.07 75.59 21.45 70.1 14.67L59.62 25.15Z" fill="#231F20"/>
<path d="M399.97 22.6H399.4V19.05H398.1V18.55H401.26V19.05H399.96V22.6H399.97Z" fill="#231F20"/>
<path d="M403.89 21.66H403.9L405.09 18.55H405.97V22.59H405.4V19.21H405.39L404.05 22.59H403.69L402.35 19.21H402.34V22.59H401.79V18.55H402.67L403.88 21.66H403.89Z" fill="#231F20"/>
</g>
<defs>
<clipPath id="clip0_3526_13080">
<rect width="405.97" height="78.9" fill="white"/>
</clipPath>
</defs>
</svg>
