<svg xmlns="http://www.w3.org/2000/svg" role="img" viewBox="79.02 299.02 466.96 124.96"><title>Real Intent logo 4c.pdf.svg</title><defs><clipPath id="6961a8f041"><path d="M 87.898438 308.503906 L 254.933594 308.503906 L 254.933594 414.429688 L 87.898438 414.429688 Z M 87.898438 308.503906"/></clipPath><clipPath id="cfa7790b88"><path d="M 115.101562 349.246094 C 131.699219 317.925781 178.410156 309.074219 219.429688 329.472656 C 232.667969 336.054688 243.691406 344.894531 251.988281 354.875 L 254.679688 352.945312 C 245.339844 340.175781 232.800781 328.703125 216.640625 320.664062 C 169.550781 297.246094 115.210938 308.746094 95.269531 346.34375 C 84.039062 367.535156 86.121094 392.472656 98.5 414.402344 L 124.300781 414.402344 C 108.820312 394.015625 104.390625 369.433594 115.101562 349.246094"/></clipPath><clipPath id="fcfa88130e"><path d="M 0.898438 0.503906 L 167.878906 0.503906 L 167.878906 106.429688 L 0.898438 106.429688 Z M 0.898438 0.503906"/></clipPath><clipPath id="40b4841f84"><path d="M 28.101562 41.246094 C 44.699219 9.925781 91.410156 1.074219 132.429688 21.472656 C 145.667969 28.054688 156.691406 36.894531 164.988281 46.875 L 167.679688 44.945312 C 158.339844 32.175781 145.800781 20.703125 129.640625 12.664062 C 82.550781 -10.753906 28.210938 0.746094 8.269531 38.34375 C -2.960938 59.535156 -0.878906 84.472656 11.5 106.402344 L 37.300781 106.402344 C 21.820312 86.015625 17.390625 61.433594 28.101562 41.246094"/></clipPath><clipPath id="1f2b60067e"><path d="M0 0H168V107H0z"/></clipPath><clipPath id="a6a1527960"><path d="M 155 346.527344 L 215 346.527344 L 215 414.429688 L 155 414.429688 Z M 155 346.527344"/></clipPath><clipPath id="56b2e6e664"><path d="M 158.621094 364.585938 C 150.410156 380.0625 157.960938 400.335938 175.578125 414.414062 L 195.058594 414.414062 C 173.96875 402.914062 163.539062 381.875 171.679688 366.535156 C 178.417969 353.804688 195.890625 348.863281 214.167969 353.175781 L 214.71875 350.175781 C 191.140625 342.496094 167.378906 348.085938 158.628906 364.585938"/></clipPath><clipPath id="42b6d4beb5"><path d="M 0 0.527344 L 59.800781 0.527344 L 59.800781 68.429688 L 0 68.429688 Z M 0 0.527344"/></clipPath><clipPath id="6ffa1cb1ce"><path d="M 3.621094 18.585938 C -4.589844 34.0625 2.960938 54.335938 20.578125 68.414062 L 40.058594 68.414062 C 18.96875 56.914062 8.539062 35.875 16.679688 20.535156 C 23.417969 7.804688 40.890625 2.863281 59.167969 7.175781 L 59.71875 4.175781 C 36.140625 -3.503906 12.378906 2.085938 3.628906 18.585938"/></clipPath><clipPath id="76da8dce90"><path d="M0 0H60V69H0z"/></clipPath><clipPath id="baabd2cde7"><path d="M 124.113281 328.421875 L 235.46875 328.421875 L 235.46875 414.429688 L 124.113281 414.429688 Z M 124.113281 328.421875"/></clipPath><clipPath id="7c912177e5"><path d="M 129.371094 355.5625 C 119.640625 373.902344 124.128906 396.355469 138.859375 414.402344 L 159.390625 414.402344 C 141.769531 397.804688 134.941406 375.585938 144.160156 358.175781 C 156.351562 335.203125 191.878906 329.34375 223.53125 345.085938 C 227.28125 346.953125 230.800781 349.042969 234.078125 351.3125 L 235.429688 348.285156 C 230.609375 344.414062 225.230469 340.933594 219.320312 337.996094 C 184.089844 320.472656 143.808594 328.335938 129.371094 355.574219"/></clipPath><clipPath id="2115d1f15a"><path d="M 0.113281 0.421875 L 111.441406 0.421875 L 111.441406 86.429688 L 0.113281 86.429688 Z M 0.113281 0.421875"/></clipPath><clipPath id="50b9332a31"><path d="M 5.371094 27.5625 C -4.359375 45.902344 0.128906 68.355469 14.859375 86.402344 L 35.390625 86.402344 C 17.769531 69.804688 10.941406 47.585938 20.160156 30.175781 C 32.351562 7.203125 67.878906 1.34375 99.53125 17.085938 C 103.28125 18.953125 106.800781 21.042969 110.078125 23.3125 L 111.429688 20.285156 C 106.609375 16.414062 101.230469 12.933594 95.320312 9.996094 C 60.089844 -7.527344 19.808594 0.335938 5.371094 27.574219"/></clipPath><clipPath id="89d912b497"><path d="M0 0H112V87H0z"/></clipPath><clipPath id="bf8bb2658f"><path d="M 221.4375 380.027344 L 245.882812 380.027344 L 245.882812 414.429688 L 221.4375 414.429688 Z M 221.4375 380.027344"/></clipPath><clipPath id="5af8fccd99"><path d="M 239.570312 390.222656 C 238.859375 393.503906 236.609375 394.882812 231.859375 394.953125 L 233.820312 385.945312 L 233.910156 385.945312 C 236.199219 385.945312 238.441406 386.09375 239.300781 387.152344 C 239.789062 387.765625 239.878906 388.792969 239.570312 390.214844 M 237.308594 380.414062 L 229.050781 380.414062 L 221.648438 414.375 L 227.628906 414.375 L 230.398438 401.675781 L 236.378906 414.375 L 243.398438 414.375 L 236.269531 399.902344 C 240.898438 398.875 244.449219 395.324219 245.5 390.472656 C 246.140625 387.535156 245.769531 385.175781 244.378906 383.453125 C 242.988281 381.734375 240.667969 380.742188 237.308594 380.414062"/></clipPath><clipPath id="564a004324"><path d="M 0.519531 0.398438 L 24.882812 0.398438 L 24.882812 34.429688 L 0.519531 34.429688 Z M 0.519531 0.398438"/></clipPath><clipPath id="48914c8fcb"><path d="M 18.570312 10.222656 C 17.859375 13.503906 15.609375 14.882812 10.859375 14.953125 L 12.820312 5.945312 L 12.910156 5.945312 C 15.199219 5.945312 17.441406 6.09375 18.300781 7.152344 C 18.789062 7.765625 18.878906 8.792969 18.570312 10.214844 M 16.308594 0.414062 L 8.050781 0.414062 L 0.648438 34.375 L 6.628906 34.375 L 9.398438 21.675781 L 15.378906 34.375 L 22.398438 34.375 L 15.269531 19.902344 C 19.898438 18.875 23.449219 15.324219 24.5 10.472656 C 25.140625 7.535156 24.769531 5.175781 23.378906 3.453125 C 21.988281 1.734375 19.667969 0.742188 16.308594 0.414062"/></clipPath><clipPath id="161d348be5"><path d="M0 0H25V35H0z"/></clipPath><clipPath id="c12d374d0f"><path d="M 276.664062 380.027344 L 309.707031 380.027344 L 309.707031 414.429688 L 276.664062 414.429688 Z M 276.664062 380.027344"/></clipPath><clipPath id="a18dcb4727"><path d="M 292.910156 399.714844 L 298.320312 391.34375 L 299.988281 399.714844 Z M 299.058594 380.425781 L 276.691406 414.382812 L 283.429688 414.382812 L 289.21875 405.382812 L 301.128906 405.382812 L 302.910156 414.382812 L 309.28125 414.382812 L 302.109375 380.425781 Z M 299.058594 380.425781"/></clipPath><clipPath id="611aaf0d38"><path d="M 0.664062 0.398438 L 33.359375 0.398438 L 33.359375 34.429688 L 0.664062 34.429688 Z M 0.664062 0.398438"/></clipPath><clipPath id="28e441a64c"><path d="M 16.910156 19.714844 L 22.320312 11.34375 L 23.988281 19.714844 Z M 23.058594 0.425781 L 0.691406 34.382812 L 7.429688 34.382812 L 13.21875 25.382812 L 25.128906 25.382812 L 26.910156 34.382812 L 33.28125 34.382812 L 26.109375 0.425781 Z M 23.058594 0.425781"/></clipPath><clipPath id="b3a99e3b4a"><path d="M0 0H34V35H0z"/></clipPath><clipPath id="2ad9bcb820"><path d="M 251 380.027344 L 277.570312 380.027344 L 277.570312 414.429688 L 251 414.429688 Z M 251 380.027344"/></clipPath><clipPath id="ef96c8c6c3"><path d="M 276.269531 385.953125 L 277.480469 380.425781 L 258.578125 380.425781 L 251.179688 414.382812 L 270.078125 414.382812 L 271.320312 408.714844 L 258.390625 408.714844 L 260.578125 398.664062 L 273.121094 398.664062 L 274.359375 392.992188 L 261.820312 392.992188 L 263.351562 385.964844 Z M 276.269531 385.953125"/></clipPath><clipPath id="d0a5362dfc"><path d="M 0.0390625 0.398438 L 26.570312 0.398438 L 26.570312 34.429688 L 0.0390625 34.429688 Z M 0.0390625 0.398438"/></clipPath><clipPath id="d2956acc06"><path d="M 25.269531 5.953125 L 26.480469 0.425781 L 7.578125 0.425781 L 0.179688 34.382812 L 19.078125 34.382812 L 20.320312 28.714844 L 7.390625 28.714844 L 9.578125 18.664062 L 22.121094 18.664062 L 23.359375 12.992188 L 10.820312 12.992188 L 12.351562 5.964844 Z M 25.269531 5.953125"/></clipPath><clipPath id="f7204ab75f"><path d="M0 0H27V35H0z"/></clipPath><clipPath id="3e0a9094f9"><path d="M 316.5 380.027344 L 338 380.027344 L 338 414.429688 L 316.5 414.429688 Z M 316.5 380.027344"/></clipPath><clipPath id="0d8be57cc9"><path d="M 329.890625 380.425781 L 323.910156 380.425781 L 316.507812 414.382812 L 336.691406 414.382812 L 337.929688 408.714844 L 323.71875 408.714844 Z M 329.890625 380.425781"/></clipPath><clipPath id="0e5cd855ee"><path d="M 0.5 0.398438 L 22 0.398438 L 22 34.429688 L 0.5 34.429688 Z M 0.5 0.398438"/></clipPath><clipPath id="b79b3220a0"><path d="M 13.890625 0.425781 L 7.910156 0.425781 L 0.507812 34.382812 L 20.691406 34.382812 L 21.929688 28.714844 L 7.71875 28.714844 Z M 13.890625 0.425781"/></clipPath><clipPath id="205ef73c96"><path d="M0 0H22V35H0z"/></clipPath><clipPath id="43e888a4fa"><path d="M 357.554688 380.25 L 369 380.25 L 369 414.824219 L 357.554688 414.824219 Z M 357.554688 380.25"/></clipPath><clipPath id="6617079454"><path d="M 361.394531 414.742188 L 357.5625 414.742188 L 365.042969 380.421875 L 368.863281 380.421875 Z M 361.394531 414.742188"/></clipPath><clipPath id="871fdae567"><path d="M 0.554688 0.398438 L 11.878906 0.398438 L 11.878906 34.824219 L 0.554688 34.824219 Z M 0.554688 0.398438"/></clipPath><clipPath id="707aa321bd"><path d="M 4.394531 34.742188 L 0.5625 34.742188 L 8.042969 0.421875 L 11.863281 0.421875 Z M 4.394531 34.742188"/></clipPath><clipPath id="92cf8316ec"><path d="M0 0H12V35H0z"/></clipPath><clipPath id="a81ba97dbf"><path d="M 373.085938 378.953125 L 411.359375 378.953125 L 411.359375 416.300781 L 373.085938 416.300781 Z M 373.085938 378.953125"/></clipPath><clipPath id="d67f640cc1"><path d="M 380.933594 378.960938 L 401.582031 407.003906 L 407.382812 380.421875 L 411.203125 380.421875 L 403.382812 416.292969 L 382.714844 388.292969 L 376.953125 414.742188 L 373.132812 414.742188 Z M 380.933594 378.960938"/></clipPath><clipPath id="2d8910ab6e"><path d="M 0.0859375 0.960938 L 38.359375 0.960938 L 38.359375 38.300781 L 0.0859375 38.300781 Z M 0.0859375 0.960938"/></clipPath><clipPath id="7b7e3f49a7"><path d="M 7.933594 0.960938 L 28.582031 29.003906 L 34.382812 2.421875 L 38.203125 2.421875 L 30.382812 38.292969 L 9.714844 10.292969 L 3.953125 36.742188 L 0.132812 36.742188 Z M 7.933594 0.960938"/></clipPath><clipPath id="fc2d8e69f0"><path d="M0 0H39V39H0z"/></clipPath><clipPath id="a8bff199e5"><path d="M 419.121094 380.25 L 440.386719 380.25 L 440.386719 414.824219 L 419.121094 414.824219 Z M 419.121094 380.25"/></clipPath><clipPath id="89b3195dd9"><path d="M 424.523438 414.742188 L 420.703125 414.742188 L 427.414062 383.972656 L 419.125 383.972656 L 419.894531 380.421875 L 440.382812 380.421875 L 439.613281 383.972656 L 431.234375 383.972656 Z M 424.523438 414.742188"/></clipPath><clipPath id="45b2d2e4e9"><path d="M 0.121094 0.398438 L 21.386719 0.398438 L 21.386719 34.824219 L 0.121094 34.824219 Z M 0.121094 0.398438"/></clipPath><clipPath id="f2028ecf71"><path d="M 5.523438 34.742188 L 1.703125 34.742188 L 8.414062 3.972656 L 0.125 3.972656 L 0.894531 0.421875 L 21.382812 0.421875 L 20.613281 3.972656 L 12.234375 3.972656 Z M 5.523438 34.742188"/></clipPath><clipPath id="137cedd3bd"><path d="M0 0H22V35H0z"/></clipPath><clipPath id="8df76b9ee4"><path d="M 441.308594 380.25 L 466.824219 380.25 L 466.824219 414.824219 L 441.308594 414.824219 Z M 441.308594 380.25"/></clipPath><clipPath id="e7c44682c6"><path d="M 448.855469 380.421875 L 466.652344 380.421875 L 465.875 383.972656 L 451.902344 383.972656 L 449.671875 394.171875 L 463.242188 394.171875 L 462.472656 397.722656 L 448.902344 397.722656 L 445.964844 411.191406 L 459.945312 411.191406 L 459.164062 414.742188 L 441.363281 414.742188 Z M 448.855469 380.421875"/></clipPath><clipPath id="a4dc3f1e16"><path d="M 0.359375 0.398438 L 25.800781 0.398438 L 25.800781 34.824219 L 0.359375 34.824219 Z M 0.359375 0.398438"/></clipPath><clipPath id="0e2cc19ca2"><path d="M 7.855469 0.421875 L 25.652344 0.421875 L 24.875 3.972656 L 10.902344 3.972656 L 8.671875 14.171875 L 22.242188 14.171875 L 21.472656 17.722656 L 7.902344 17.722656 L 4.964844 31.191406 L 18.945312 31.191406 L 18.164062 34.742188 L 0.363281 34.742188 Z M 7.855469 0.421875"/></clipPath><clipPath id="125ce5f81e"><path d="M0 0H26V35H0z"/></clipPath><clipPath id="d9b8f7120b"><path d="M 470.335938 378.953125 L 508.609375 378.953125 L 508.609375 416.300781 L 470.335938 416.300781 Z M 470.335938 378.953125"/></clipPath><clipPath id="454509d709"><path d="M 478.253906 378.960938 L 498.914062 407.003906 L 504.703125 380.421875 L 508.523438 380.421875 L 500.703125 416.292969 L 480.035156 388.292969 L 474.261719 414.742188 L 470.445312 414.742188 Z M 478.253906 378.960938"/></clipPath><clipPath id="ec363386f7"><path d="M 0.398438 0.960938 L 38.558594 0.960938 L 38.558594 38.300781 L 0.398438 38.300781 Z M 0.398438 0.960938"/></clipPath><clipPath id="dc58a9ef31"><path d="M 8.253906 0.960938 L 28.914062 29.003906 L 34.703125 2.421875 L 38.523438 2.421875 L 30.703125 38.292969 L 10.035156 10.292969 L 4.261719 36.742188 L 0.445312 36.742188 Z M 8.253906 0.960938"/></clipPath><clipPath id="0b79976cc3"><path d="M0 0H39V39H0z"/></clipPath><clipPath id="456e643ea2"><path d="M 516.375 380.25 L 537.820312 380.25 L 537.820312 414.824219 L 516.375 414.824219 Z M 516.375 380.25"/></clipPath><clipPath id="db32dc1878"><path d="M 521.84375 414.742188 L 518.011719 414.742188 L 524.722656 383.972656 L 516.433594 383.972656 L 517.214844 380.421875 L 537.703125 380.421875 L 536.921875 383.972656 L 528.542969 383.972656 Z M 521.84375 414.742188"/></clipPath><clipPath id="002484da57"><path d="M 0.375 0.398438 L 21.820312 0.398438 L 21.820312 34.824219 L 0.375 34.824219 Z M 0.375 0.398438"/></clipPath><clipPath id="6337a1bbc7"><path d="M 5.84375 34.742188 L 2.011719 34.742188 L 8.722656 3.972656 L 0.433594 3.972656 L 1.214844 0.421875 L 21.703125 0.421875 L 20.921875 3.972656 L 12.542969 3.972656 Z M 5.84375 34.742188"/></clipPath><clipPath id="3400f10068"><path d="M0 0H22V35H0z"/></clipPath></defs><path fill="#fff" d="M-61.2 -79.2H673.1999999999999V871.1999999999999H-61.2z"/><g clip-path="url(#6961a8f041)"><g clip-path="url(#cfa7790b88)"><g><g clip-path="url(#1f2b60067e)" transform="translate(87 308)"><g clip-path="url(#fcfa88130e)"><g clip-path="url(#40b4841f84)"><path fill="#4076bb" d="M-221.64 -482.24H659.64V658.24H-221.64z"/></g></g></g></g></g></g><g clip-path="url(#a6a1527960)"><g clip-path="url(#56b2e6e664)"><g><g clip-path="url(#76da8dce90)" transform="translate(155 346)"><g clip-path="url(#42b6d4beb5)"><g clip-path="url(#6ffa1cb1ce)"><path fill="#4076bb" d="M-289.64 -520.24H591.64V620.24H-289.64z"/></g></g></g></g></g></g><g clip-path="url(#baabd2cde7)"><g clip-path="url(#7c912177e5)"><g><g clip-path="url(#89d912b497)" transform="translate(124 328)"><g clip-path="url(#2115d1f15a)"><g clip-path="url(#50b9332a31)"><path fill="#4076bb" d="M-258.64 -502.24H622.64V638.24H-258.64z"/></g></g></g></g></g></g><g clip-path="url(#bf8bb2658f)"><g clip-path="url(#5af8fccd99)"><g><g clip-path="url(#161d348be5)" transform="translate(221 380)"><g clip-path="url(#564a004324)"><g clip-path="url(#48914c8fcb)"><path fill="#58585a" d="M-355.64 -554.24H525.64V586.24H-355.64z"/></g></g></g></g></g></g><g clip-path="url(#c12d374d0f)"><g clip-path="url(#a18dcb4727)"><g><g clip-path="url(#b3a99e3b4a)" transform="translate(276 380)"><g clip-path="url(#611aaf0d38)"><g clip-path="url(#28e441a64c)"><path fill="#58585a" d="M-410.64 -554.24H470.64V586.24H-410.64z"/></g></g></g></g></g></g><g clip-path="url(#2ad9bcb820)"><g clip-path="url(#ef96c8c6c3)"><g><g clip-path="url(#f7204ab75f)" transform="translate(251 380)"><g clip-path="url(#d0a5362dfc)"><g clip-path="url(#d2956acc06)"><path fill="#58585a" d="M-385.64 -554.24H495.64V586.24H-385.64z"/></g></g></g></g></g></g><g clip-path="url(#3e0a9094f9)"><g clip-path="url(#0d8be57cc9)"><g><g clip-path="url(#205ef73c96)" transform="translate(316 380)"><g clip-path="url(#0e5cd855ee)"><g clip-path="url(#b79b3220a0)"><path fill="#58585a" d="M-450.64 -554.24H430.64V586.24H-450.64z"/></g></g></g></g></g></g><g clip-path="url(#43e888a4fa)"><g clip-path="url(#6617079454)"><g><g clip-path="url(#92cf8316ec)" transform="translate(357 380)"><g clip-path="url(#871fdae567)"><g clip-path="url(#707aa321bd)"><path fill="#58585a" d="M-491.64 -554.24H389.64V586.24H-491.64z"/></g></g></g></g></g></g><g clip-path="url(#a81ba97dbf)"><g clip-path="url(#d67f640cc1)"><g><g clip-path="url(#fc2d8e69f0)" transform="translate(373 378)"><g clip-path="url(#2d8910ab6e)"><g clip-path="url(#7b7e3f49a7)"><path fill="#58585a" d="M-507.64 -552.24H373.64V588.24H-507.64z"/></g></g></g></g></g></g><g clip-path="url(#a8bff199e5)"><g clip-path="url(#89b3195dd9)"><g><g clip-path="url(#137cedd3bd)" transform="translate(419 380)"><g clip-path="url(#45b2d2e4e9)"><g clip-path="url(#f2028ecf71)"><path fill="#58585a" d="M-553.64 -554.24H327.64V586.24H-553.64z"/></g></g></g></g></g></g><g clip-path="url(#8df76b9ee4)"><g clip-path="url(#e7c44682c6)"><g><g clip-path="url(#125ce5f81e)" transform="translate(441 380)"><g clip-path="url(#a4dc3f1e16)"><g clip-path="url(#0e2cc19ca2)"><path fill="#58585a" d="M-575.64 -554.24H305.64V586.24H-575.64z"/></g></g></g></g></g></g><g clip-path="url(#d9b8f7120b)"><g clip-path="url(#454509d709)"><g><g clip-path="url(#0b79976cc3)" transform="translate(470 378)"><g clip-path="url(#ec363386f7)"><g clip-path="url(#dc58a9ef31)"><path fill="#58585a" d="M-604.64 -552.24H276.64V588.24H-604.64z"/></g></g></g></g></g></g><g clip-path="url(#456e643ea2)"><g clip-path="url(#db32dc1878)"><g><g clip-path="url(#3400f10068)" transform="translate(516 380)"><g clip-path="url(#002484da57)"><g clip-path="url(#6337a1bbc7)"><path fill="#58585a" d="M-650.64 -554.24H230.64V586.24H-650.64z"/></g></g></g></g></g></g></svg>