<svg xmlns="http://www.w3.org/2000/svg" role="img" viewBox="-19.42 -11.42 1477.84 408.84"><title>SpacemiT logo.ai.svg</title><defs><clipPath id="a"><path d="M.91797 0h1438.16406v391H.91797zm0 0"/></clipPath><clipPath id="b"><path d="M9 181.04688h141.57031v188.91796H9zm0 0"/></clipPath><clipPath id="c"><path d="M122.80078 367.45703L19.76562 315.9297c-6.5039-3.2461-10.60937-9.88672-10.60937-17.16016v-98.50781c0-14.26172 15.01172-23.54297 27.76953-17.16016l103.03906 51.51953c6.5 3.25 10.60547 9.89453 10.60547 17.16016v98.51172c0 14.26172-15.01172 23.53515-27.76953 17.16406"/></clipPath><clipPath id="e"><path d="M.0664.04688h141.50391v188.91796H.06641zm0 0"/></clipPath><clipPath id="f"><path d="M113.80078 186.45703L10.76562 134.9297c-6.5039-3.2461-10.60937-9.88672-10.60937-17.16016V19.26172C.15625 5 15.16797-4.28125 27.92578 2.10156L130.96484 53.6211c6.5 3.25 10.60547 9.89453 10.60547 17.16016v98.51172c0 14.26172-15.01172 23.53516-27.76953 17.16406"/></clipPath><clipPath id="d"><path d="M0 0h142v189H0z"/></clipPath><clipPath id="g"><path d="M168 16.48047h115.84766v152.4375H168zm0 0"/></clipPath><clipPath id="h"><path d="M192.8711 166.89063l79.98046-39.9922c6.5039-3.25 10.60938-9.89452 10.60938-17.16015V33.91797c0-12.64844-13.32031-20.88281-24.63672-15.22656l-79.98438 39.99218c-6.5 3.25-10.60547 9.89453-10.60547 17.16016v75.82422c0 12.65234 13.31641 20.88281 24.63672 15.23047"/></clipPath><clipPath id="j"><path d="M.22656.48047h115.28906v152.4375H.22656zm0 0"/></clipPath><clipPath id="k"><path d="M24.8711 150.89063l79.98046-39.9922c6.5039-3.25 10.60938-9.89452 10.60938-17.16015V17.91797c0-12.64844-13.32031-20.88281-24.63672-15.22656L10.83984 42.68359c-6.5 3.25-10.60547 9.89453-10.60547 17.16016v75.82422c0 12.65234 13.31641 20.88281 24.63672 15.23047"/></clipPath><clipPath id="i"><path d="M0 0h116v153H0z"/></clipPath><clipPath id="l"><path d="M168 171h75v94.7461h-75zm0 0"/></clipPath><clipPath id="m"><path d="M189.07813 263.83594L232.375 242.1914c6.5-3.25 10.60547-9.89453 10.60547-17.16016v-39.58984c0-10.71094-11.26563-17.66797-20.84375-12.88282l-43.29688 21.64844c-6.5 3.25-10.60547 9.89453-10.60547 17.16016v39.58594c0 10.70312 11.26563 17.67187 20.84375 12.8828"/></clipPath><clipPath id="o"><path d="M.22656 0H75v94.7461H.22656zm0 0"/></clipPath><clipPath id="p"><path d="M21.07813 92.83594L64.375 71.1914c6.5-3.25 10.60547-9.89454 10.60547-17.16016V14.44141c0-10.71094-11.26563-17.66797-20.84375-12.88282L10.83984 23.20703c-6.5 3.25-10.60547 9.89453-10.60547 17.16016v39.58593C.23438 90.65626 11.5 97.625 21.07813 92.83594"/></clipPath><clipPath id="n"><path d="M0 0h75v95H0z"/></clipPath><clipPath id="q"><path d="M365.08203 252.9961H380.25v18.91406h-15.16797zm0 0"/></clipPath><clipPath id="s"><path d="M.08203.9961H15.25v18.91406H.08203zm0 0"/></clipPath><clipPath id="r"><path d="M0 0h16v20H0z"/></clipPath><clipPath id="t"><path d="M357.04297 84.77734H495.5v121.80079H357.04297zm0 0"/></clipPath><clipPath id="u"><path d="M495.28516 134.5586H381.8125V107.0078h113.48047V84.77734H364.64453c-4.19531 0-7.60156 3.66016-7.60156 8.15625v63.86329h113.48047v27.55078H357.04297v22.23047H487.6914c4.1953 0 7.60156-3.66407 7.60156-8.15625zm0 0"/></clipPath><clipPath id="w"><path d="M.04297.77734h138.36328v121.80079H.04297zm0 0"/></clipPath><clipPath id="x"><path d="M138.28516 50.5586H24.8125V23.0078h113.48047V.77734H7.64453C3.44922.77734.04297 4.4375.04297 8.9336v63.86328h113.48047v27.55079H.04297v22.23046H130.6914c4.1953 0 7.60156-3.66406 7.60156-8.15624zm0 0"/></clipPath><clipPath id="v"><path d="M0 0h139v123H0z"/></clipPath><clipPath id="y"><path d="M357 283h146.44922v86.85547H357zm0 0"/></clipPath><clipPath id="z"><path d="M374.26172 283.01172h-17.21875V296h8.03515v61.32422h-8.03515v12.17969h146.3711v-12.1797H380.25v-68.22265c0-3.35547-2.6914-6.08984-5.9961-6.08984"/></clipPath><clipPath id="B"><path d="M0 0h146.44922v86.60938H0zm0 0"/></clipPath><clipPath id="C"><path d="M17.26172.01172H.04297V13h8.03515v61.32422H.04298V86.5039h146.3711V74.3242H23.25V6.10157c0-3.35547-2.6914-6.08984-5.9961-6.08984"/></clipPath><clipPath id="A"><path d="M0 0h147v87H0z"/></clipPath><clipPath id="D"><path d="M391.5625 252.64063H500v98.32421H391.5625zm0 0"/></clipPath><clipPath id="E"><path d="M433.0039 276.2461h32.64844v26.76171h-32.64843zm-16.66015 62.875c7.49219-5.39454 12.92969-13.35548 15.3125-22.4336l.39453-1.5h33.60156v35.49219h15.16797V315.1875h18.9375v-12.17969h-18.9414V276.2461H499.75v-12.17968h-18.9336v-11.07032h-15.16796v11.07032H433.0039v-11.07032h-15.16797v11.07032h-24.1211v12.17968h24.1211v26.76172h-24.1211v12.17969h22.73438l-1.59375 2.99219c-1.78516 3.32422-4.29297 6.21484-7.27344 8.35156l-15.73047 11.3164 8.76172 12.58985zm0 0"/></clipPath><clipPath id="G"><path d="M.6211.8789h108.33984v98.03126H.62109zm0 0"/></clipPath><clipPath id="H"><path d="M42.0039 24.2461h32.64844V51.0078H42.00391zm-16.66015 62.875c7.49219-5.39454 12.92969-13.35547 15.3125-22.4336l.39453-1.5h33.60156v35.49219h15.16797V63.1875h18.9375V51.00781h-18.9414V24.2461H108.75V12.06641H89.8164V.99609H74.64845v11.07032H42.0039V.99609H26.83594v11.07032H2.71484v12.17968h24.1211v26.76172H2.71484V63.1875h22.73438l-1.59375 2.99219c-1.78516 3.32422-4.29297 6.21484-7.27344 8.35156L.85156 85.84765 9.61328 98.4375zm0 0"/></clipPath><clipPath id="F"><path d="M0 0h109v99H0z"/></clipPath><clipPath id="I"><path d="M527.92578 252.9961h15.16797v18.91406h-15.16797zm0 0"/></clipPath><clipPath id="K"><path d="M.92578.9961h15.16797v18.91406H.92578zm0 0"/></clipPath><clipPath id="J"><path d="M0 0h17v20H0z"/></clipPath><clipPath id="L"><path d="M519.53125 283h146.76172v86.85547H519.53125zm0 0"/></clipPath><clipPath id="M"><path d="M537.10547 283.00781h-17.21875v12.98828h8.03516v61.32422h-8.03516V369.5h146.3711v-12.17969H543.08983v-68.22265c0-3.35547-2.6875-6.08985-5.98437-6.08985"/></clipPath><clipPath id="O"><path d="M.85547 0h146.4375v86.60938H.85547zm0 0"/></clipPath><clipPath id="P"><path d="M18.10547.00781H.88672V12.9961h8.03516v61.32422H.88672V86.5h146.3711V74.32031H24.08983V6.09766c0-3.35547-2.6875-6.08985-5.98437-6.08985"/></clipPath><clipPath id="N"><path d="M0 0h148v87H0z"/></clipPath><clipPath id="Q"><path d="M555 252.64063h107.90234v98.32421H555zm0 0"/></clipPath><clipPath id="R"><path d="M594.76953 334.58203c4.97266-2.44922 9.30078-5.90234 12.88281-10.26953l1.52735-1.86719 1.52734 1.86719c3.58203 4.36719 7.91797 7.82813 12.88281 10.26953l32.39063 15.94531 6.60547-13.88671-32.38672-15.94532c-3.94922-1.9414-7.29688-4.98828-9.67969-8.8086l-1.9375-3.10155h43.6914v-12.98829h-45.51171V276.2461h45.5039v-12.17968h-45.5039v-11.07032h-15.16797v11.07032h-30.33203v-11.07032h-15.16797v17.16016c0 3.35547 2.6914 6.08984 5.98438 6.08984h39.51562v19.55079h-46.30078v12.98828h44.48437l-1.9375 3.10156c-2.39062 3.82031-5.73828 6.85937-9.67968 8.8086l-32.38672 15.9453 6.60547 13.88672zm0 0"/></clipPath><clipPath id="T"><path d="M.08984.8789h107.625v97.79297H.08984zm0 0"/></clipPath><clipPath id="U"><path d="M39.76953 82.58203c4.97266-2.44922 9.30078-5.90234 12.88281-10.26953l1.52735-1.86719 1.52734 1.86719c3.58203 4.36719 7.91797 7.82813 12.88281 10.26953l32.39063 15.94531 6.60547-13.88671L75.19922 68.6953c-3.94922-1.9414-7.29688-4.98828-9.67969-8.8086l-1.9375-3.10155h43.6914V43.79688H61.76173V24.24609h45.5039V12.06641h-45.5039V.99609H46.59375v11.07032H16.26172V.99609H1.09375v17.16016c0 3.35547 2.6914 6.08984 5.98438 6.08984h39.51562v19.55079H.29297v12.98828h44.48437l-1.9375 3.10156c-2.39062 3.82031-5.73828 6.85937-9.67968 8.8086L.77344 84.64061 7.3789 98.52734zm0 0"/></clipPath><clipPath id="S"><path d="M0 0h108v99H0z"/></clipPath><clipPath id="V"><path d="M512.11719 84.5664H651v122.22266H512.11719zm0 0"/></clipPath><clipPath id="W"><path d="M642.96875 84.77734H512.32812v22.23047h113.47266v27.55078H512.32812v72.01953h24.76954v-49.78125h105.87109c4.19531 0 7.60156-3.66406 7.60156-8.15625V92.9336c.00782-4.49609-3.40625-8.15625-7.60156-8.15625"/></clipPath><clipPath id="Y"><path d="M.1836.61328h138.54296v122.0039H.1836zm0 0"/></clipPath><clipPath id="Z"><path d="M130.96875.77734H.32812v22.23047h113.47266V50.5586H.32812v72.01953h24.76954V72.79689h105.87109c4.19531 0 7.60156-3.66407 7.60156-8.15626V8.9336c.00781-4.49609-3.40625-8.15625-7.60156-8.15625"/></clipPath><clipPath id="X"><path d="M0 0h139v123H0z"/></clipPath><clipPath id="aa"><path d="M649.49219 84.5664H801v122.22266H649.49219zm0 0"/></clipPath><clipPath id="ab"><path d="M676.96875 206.57813l48.26563-100.04297 48.26953 100.05078h27.21875L744.71875 90.49219c-1.6875-3.49219-5.22266-5.70703-9.09375-5.70703h-20.76953c-3.875 0-7.41016 2.21484-9.09375 5.70703l-56.01563 116.08594zm0 0"/></clipPath><clipPath id="ad"><path d="M.53125.61328h151.2461v122.0039H.53124zm0 0"/></clipPath><clipPath id="ae"><path d="M27.96875 122.57813L76.23438 22.53516l48.26953 100.05078h27.21875L95.71875 6.49219C94.03125 3 90.49609.78516 86.625.78516H65.85547c-3.875 0-7.41016 2.21484-9.09375 5.70703L.74609 122.57813zm0 0"/></clipPath><clipPath id="ac"><path d="M0 0h152v123H0z"/></clipPath><clipPath id="af"><path d="M725.23438 184.35547h59.8203v22.22266h-59.8203zm0 0"/></clipPath><clipPath id="ah"><path d="M.23438.35547h59.8203v22.22265H.23439zm0 0"/></clipPath><clipPath id="ag"><path d="M0 0h61v23H0z"/></clipPath><clipPath id="ai"><path d="M757.39063 252.64063h73.14062v117.21484h-73.14063zm0 0"/></clipPath><clipPath id="aj"><path d="M819.16797 276.2461h11.15234v-12.1797h-11.15234v-11.0703H804v11.0703h-46.59766v12.1797H804v81.07812h-31.76953v12.17969h36.96094c5.49609 0 9.97656-4.5547 9.97656-10.14454zm0 0"/></clipPath><clipPath id="al"><path d="M.39063.8789H73.5v116.73047H.39062zm0 0"/></clipPath><clipPath id="am"><path d="M62.16797 24.2461H73.3203V12.0664H62.16797V.9961H47v11.0703H.40234v12.1797H47v81.07812H15.23047v12.17969H52.1914c5.49609 0 9.97656-4.5547 9.97656-10.14454zm0 0"/></clipPath><clipPath id="ak"><path d="M0 0h74v118H0z"/></clipPath><clipPath id="an"><path d="M700.74219 303.00781H804V316H700.74219zm0 0"/></clipPath><clipPath id="ap"><path d="M.74219.00781H104V13H.74219zm0 0"/></clipPath><clipPath id="ao"><path d="M0 0h104v13H0z"/></clipPath><clipPath id="aq"><path d="M685.22266 256.03125h63.93359v113.82422h-63.9336zm0 0"/></clipPath><clipPath id="ar"><path d="M733.875 323.51172v33.80469h-33.13281v-88.76954H733.875v26.94922h15.16797v-39.13671h-63.46875V369.5039h57.47656c3.30078 0 5.99219-2.73438 5.99219-6.08985v-39.90234zm0 0"/></clipPath><clipPath id="at"><path d="M.48438.23438h63.67187v113.375H.48437zm0 0"/></clipPath><clipPath id="au"><path d="M48.875 67.51172v33.80469H15.74219V12.54687H48.875V39.4961h15.16797V.35937H.57422v113.14454h57.47656c3.30078 0 5.99219-2.73438 5.99219-6.08985V67.51172zm0 0"/></clipPath><clipPath id="as"><path d="M0 0h65v114H0z"/></clipPath><clipPath id="av"><path d="M809.7461 84.77734H940v121.8047H809.7461zm0 0"/></clipPath><clipPath id="aw"><path d="M939.73438 107.00781V84.77734H817.34766c-4.1875 0-7.60157 3.66016-7.60157 8.15625v105.48829c0 4.49218 3.41407 8.15625 7.60157 8.15625h122.38671v-22.23047H834.51563V107.0078zm0 0"/></clipPath><clipPath id="ay"><path d="M.7461.77734h130.05468v121.8047H.7461zm0 0"/></clipPath><clipPath id="az"><path d="M130.73438 23.00781V.77734H8.34766C4.16016.77734.74609 4.4375.74609 8.9336v105.48829c0 4.49218 3.41407 8.15624 7.60157 8.15624h122.38671v-22.23046H25.51563V23.0078zm0 0"/></clipPath><clipPath id="ax"><path d="M0 0h131v123H0z"/></clipPath><clipPath id="aA"><path d="M848.14844 288H987v81.85547H848.14844zm0 0"/></clipPath><clipPath id="aB"><path d="M986.65625 325.83203v-12.17969h-7.54688l-24.08984-25.32421h-19.16016l24.09375 25.32421h-84.61718l24.08984-25.32421h-19.16797l-24.08203 25.32421h-7.54297v12.1797h61.42969v31.48437h-61.27344v12.17578h138.02735V357.3203h-61.58594v-31.48828zm0 0"/></clipPath><clipPath id="aD"><path d="M.47656.11328H139v81.4961H.47656zm0 0"/></clipPath><clipPath id="aE"><path d="M138.65625 37.83203V25.65234h-7.54688L107.01954.32813H87.85937l24.09376 25.32421h-84.6172L51.42579.32813H32.25781L8.17578 25.65234H.63281v12.1797H62.0625V69.3164H.78906v12.17578h138.02735V69.3203H77.23047V37.83203zm0 0"/></clipPath><clipPath id="aC"><path d="M0 0h139v82H0z"/></clipPath><clipPath id="aF"><path d="M845.24219 252.64063H990v35.84375H845.24219zm0 0"/></clipPath><clipPath id="aG"><path d="M845.59766 270.15625v18.17188h15.16796v-12.08204h113.75782v12.08204h15.16797v-18.17188c0-3.35547-2.6875-6.08984-5.9922-6.08984h-58.46874v-11.07032H910.0625v11.07032h-58.47266c-3.30468 0-5.99218 2.73437-5.99218 6.08984"/></clipPath><clipPath id="aI"><path d="M.35938.8789h144.53515v35.47266H.35937zm0 0"/></clipPath><clipPath id="aJ"><path d="M.59766 18.15625v18.17188h15.16796V24.24609h113.75782v12.08204h15.16797V18.15624c0-3.35547-2.6875-6.08984-5.9922-6.08984H80.23048V.99609H65.0625v11.07032H6.58984c-3.30468 0-5.99218 2.73437-5.99218 6.08984"/></clipPath><clipPath id="aH"><path d="M0 0h145v37H0z"/></clipPath><clipPath id="aK"><path d="M956.76563 84.77734h130.01171v22.23047H956.76562zm0 0"/></clipPath><clipPath id="aL"><path d="M964.36719 84.77734c-4.1875 0-7.60157 3.66016-7.60157 8.15625v14.07422h129.98829V84.77734zm0 0"/></clipPath><clipPath id="aN"><path d="M.76563.77734h130.01171v22.23047H.76562zm0 0"/></clipPath><clipPath id="aO"><path d="M8.36719.77734C4.17969.77734.76562 4.4375.76562 8.9336v14.07422h129.98829V.77734zm0 0"/></clipPath><clipPath id="aM"><path d="M0 0h131v24H0z"/></clipPath><clipPath id="aP"><path d="M956.76563 134.5625H1087v72.29688H956.76562zm0 0"/></clipPath><clipPath id="aQ"><path d="M956.76563 134.5625v63.86328c0 4.5 3.40625 8.15625 7.60156 8.15625h122.38672v-22.23828H981.53516v-27.55078h105.21875V134.5625zm0 0"/></clipPath><clipPath id="aS"><path d="M.76563.5625h130.20703v72.05469H.76563zm0 0"/></clipPath><clipPath id="aT"><path d="M.76563.5625v63.86328c0 4.5 3.40625 8.15625 7.60156 8.15625H130.7539V50.34375H25.53516V22.79297H130.7539V.5625zm0 0"/></clipPath><clipPath id="aR"><path d="M0 0h131v73H0z"/></clipPath><clipPath id="aU"><path d="M1103.77344 84.78125h138.45703v121.80469h-138.45703zm0 0"/></clipPath><clipPath id="aV"><path d="M1220.3164 84.78125l-47.41406 70.63672-47.41406-70.63672h-21.71484v121.80078h24.76953v-79.15625l36.375 54.23047c1.1211 1.67578 3.01172 2.67969 5.03125 2.67969h5.91016c2.01562 0 3.90234-1.0039 5.02734-2.67969l36.375-54.20703v79.13281h24.76953V84.78125zm0 0"/></clipPath><clipPath id="aX"><path d="M.77344.78125h138.28125v121.80469H.77344zm0 0"/></clipPath><clipPath id="aY"><path d="M117.3164.78125L69.90235 71.41797 22.48828.78125H.77344v121.80078h24.76953V43.42578l36.375 54.23047c1.1211 1.67578 3.01172 2.67969 5.03125 2.67969h5.91016c2.01562 0 3.90234-1.0039 5.02734-2.67969l36.375-54.20703v79.13281h24.76953V.78125zm0 0"/></clipPath><clipPath id="aW"><path d="M0 0h140v123H0z"/></clipPath><clipPath id="aZ"><path d="M1259.0586 84.77734h24.77343v121.80079h-24.77344zm0 0"/></clipPath><clipPath id="bb"><path d="M.0586.77734h24.77343v121.80079H.0586zm0 0"/></clipPath><clipPath id="ba"><path d="M0 0h25v123H0z"/></clipPath><clipPath id="bc"><path d="M1300.85547 84.77734H1431v121.8047h-130.14453zm0 0"/></clipPath><clipPath id="bd"><path d="M1430.84375 84.77734h-129.98828v22.23047h52.60547v99.57031h24.76953v-99.5703h52.60547zm0 0"/></clipPath><clipPath id="bf"><path d="M.85547.77734h130.07812v121.8047H.85547zm0 0"/></clipPath><clipPath id="bg"><path d="M130.84375.77734H.85547v22.23047h52.60547v99.57031h24.76953v-99.5703h52.60547zm0 0"/></clipPath><clipPath id="be"><path d="M0 0h131v123H0z"/></clipPath></defs><g clip-path="url(#a)"><path fill="#fff" d="M.91797 0h1438.16406v391H.91797zm0 0"/></g><g clip-path="url(#b)"><g clip-path="url(#c)"><g clip-path="url(#d)" transform="translate(9 181)"><g clip-path="url(#e)"><g clip-path="url(#f)"><path fill="#b0e237" d="M.15625.04688h141.41406v188.36718H.15625zm0 0"/></g></g></g></g></g><g clip-path="url(#g)"><g clip-path="url(#h)"><g clip-path="url(#i)" transform="translate(168 16)"><g clip-path="url(#j)"><g clip-path="url(#k)"><path fill="#c0e767" d="M-484.8-102.13h2073.6v563.76H-484.8z"/></g></g></g></g></g><g clip-path="url(#l)"><g clip-path="url(#m)"><g clip-path="url(#n)" transform="translate(168 171)"><g clip-path="url(#o)"><g clip-path="url(#p)"><path fill="#d0ee90" d="M-484.8-257.13h2073.6v563.76H-484.8z"/></g></g></g></g></g><g clip-path="url(#q)"><g clip-path="url(#r)" transform="translate(365 252)"><g clip-path="url(#s)"><path fill="#666" d="M.08203.9961H15.25v18.90234H.08203zm0 0"/></g></g></g><g clip-path="url(#t)"><g clip-path="url(#u)"><g clip-path="url(#v)" transform="translate(357 84)"><g clip-path="url(#w)"><g clip-path="url(#x)"><path fill="#666" d="M.04297.77734H138.5v121.80079H.04297zm0 0"/></g></g></g></g></g><g clip-path="url(#y)"><g clip-path="url(#z)"><g clip-path="url(#A)" transform="translate(357 283)"><g clip-path="url(#B)"><g clip-path="url(#C)"><path fill="#666" d="M-673.8-369.13h2073.6v563.76H-673.8z"/></g></g></g></g></g><g clip-path="url(#D)"><g clip-path="url(#E)"><g clip-path="url(#F)" transform="translate(391 252)"><g clip-path="url(#G)"><g clip-path="url(#H)"><path fill="#666" d="M-707.8-338.13h2073.6v563.76H-707.8z"/></g></g></g></g></g><g clip-path="url(#I)"><g clip-path="url(#J)" transform="translate(527 252)"><g clip-path="url(#K)"><path fill="#666" d="M.92578.9961h15.16797v18.89843H.92578zm0 0"/></g></g></g><g clip-path="url(#L)"><g clip-path="url(#M)"><g clip-path="url(#N)" transform="translate(519 283)"><g clip-path="url(#O)"><g clip-path="url(#P)"><path fill="#666" d="M-835.8-369.13h2073.6v563.76H-835.8z"/></g></g></g></g></g><g clip-path="url(#Q)"><g clip-path="url(#R)"><g clip-path="url(#S)" transform="translate(555 252)"><g clip-path="url(#T)"><g clip-path="url(#U)"><path fill="#666" d="M-871.8-338.13h2073.6v563.76H-871.8z"/></g></g></g></g></g><g clip-path="url(#V)"><g clip-path="url(#W)"><g clip-path="url(#X)" transform="translate(512 84)"><g clip-path="url(#Y)"><g clip-path="url(#Z)"><path fill="#666" d="M-828.8-170.13h2073.6v563.76H-828.8z"/></g></g></g></g></g><g clip-path="url(#aa)"><g clip-path="url(#ab)"><g clip-path="url(#ac)" transform="translate(649 84)"><g clip-path="url(#ad)"><g clip-path="url(#ae)"><path fill="#666" d="M-965.8-170.13h2073.6v563.76H-965.8z"/></g></g></g></g></g><g clip-path="url(#af)"><g clip-path="url(#ag)" transform="translate(725 184)"><g clip-path="url(#ah)"><path fill="#666" d="M-1041.8-270.13h2073.6v563.76h-2073.6z"/></g></g></g><g clip-path="url(#ai)"><g clip-path="url(#aj)"><g clip-path="url(#ak)" transform="translate(757 252)"><g clip-path="url(#al)"><g clip-path="url(#am)"><path fill="#666" d="M-1073.8-338.13H999.8v563.76h-2073.6z"/></g></g></g></g></g><g clip-path="url(#an)"><g clip-path="url(#ao)" transform="translate(700 303)"><g clip-path="url(#ap)"><path fill="#666" d="M-1016.8-389.13h2073.6v563.76h-2073.6z"/></g></g></g><g clip-path="url(#aq)"><g clip-path="url(#ar)"><g clip-path="url(#as)" transform="translate(685 256)"><g clip-path="url(#at)"><g clip-path="url(#au)"><path fill="#666" d="M-1001.8-342.13h2073.6v563.76h-2073.6z"/></g></g></g></g></g><g clip-path="url(#av)"><g clip-path="url(#aw)"><g clip-path="url(#ax)" transform="translate(809 84)"><g clip-path="url(#ay)"><g clip-path="url(#az)"><path fill="#666" d="M.7461.77734h129.89062v121.8047H.74609zm0 0"/></g></g></g></g></g><g clip-path="url(#aA)"><g clip-path="url(#aB)"><g clip-path="url(#aC)" transform="translate(848 288)"><g clip-path="url(#aD)"><g clip-path="url(#aE)"><path fill="#666" d="M-1164.8-374.13H908.8v563.76h-2073.6z"/></g></g></g></g></g><g clip-path="url(#aF)"><g clip-path="url(#aG)"><g clip-path="url(#aH)" transform="translate(845 252)"><g clip-path="url(#aI)"><g clip-path="url(#aJ)"><path fill="#666" d="M-1161.8-338.13H911.8v563.76h-2073.6z"/></g></g></g></g></g><g clip-path="url(#aK)"><g clip-path="url(#aL)"><g clip-path="url(#aM)" transform="translate(956 84)"><g clip-path="url(#aN)"><g clip-path="url(#aO)"><path fill="#666" d="M.76563.77734h130.01171v22.23047H.76562zm0 0"/></g></g></g></g></g><g clip-path="url(#aP)"><g clip-path="url(#aQ)"><g clip-path="url(#aR)" transform="translate(956 134)"><g clip-path="url(#aS)"><g clip-path="url(#aT)"><path fill="#666" d="M.76563.5625h129.96875v72.01563H.76563zm0 0"/></g></g></g></g></g><g clip-path="url(#aU)"><g clip-path="url(#aV)"><g clip-path="url(#aW)" transform="translate(1103 84)"><g clip-path="url(#aX)"><g clip-path="url(#aY)"><path fill="#666" d="M.77344.78125h138.45703v121.80469H.77344zm0 0"/></g></g></g></g></g><g clip-path="url(#aZ)"><g clip-path="url(#ba)" transform="translate(1259 84)"><g clip-path="url(#bb)"><path fill="#666" d="M.0586.77734h24.76952v121.81641H.0586zm0 0"/></g></g></g><g clip-path="url(#bc)"><g clip-path="url(#bd)"><g clip-path="url(#be)" transform="translate(1300 84)"><g clip-path="url(#bf)"><g clip-path="url(#bg)"><path fill="#666" d="M.85547.77734H130.75v121.8047H.85547zm0 0"/></g></g></g></g></g></svg>