<?xml version="1.0" encoding="UTF-8" standalone="no"?>
<svg
   viewBox="0 0 250 100"
   version="1.1"
   id="svg22"
   sodipodi:docname="Terapines-logo-latest.svg"
   width="250"
   height="100"
   inkscape:version="1.3.2 (1:1.3.2+202311252150+091e20ef0f)"
   xmlns:inkscape="http://www.inkscape.org/namespaces/inkscape"
   xmlns:sodipodi="http://sodipodi.sourceforge.net/DTD/sodipodi-0.dtd"
   xmlns="http://www.w3.org/2000/svg"
   xmlns:svg="http://www.w3.org/2000/svg">
  <sodipodi:namedview
     id="namedview22"
     pagecolor="#ffffff"
     bordercolor="#000000"
     borderopacity="0.25"
     inkscape:showpageshadow="2"
     inkscape:pageopacity="0.0"
     inkscape:pagecheckerboard="0"
     inkscape:deskcolor="#d1d1d1"
     inkscape:zoom="2.2109424"
     inkscape:cx="249.215"
     inkscape:cy="59.929196"
     inkscape:window-width="1920"
     inkscape:window-height="1031"
     inkscape:window-x="0"
     inkscape:window-y="25"
     inkscape:window-maximized="1"
     inkscape:current-layer="svg22" />
  <defs
     id="defs1">
    <style
       id="style1">.cls-1{fill:#06524c;}.cls-2{fill:#04514b;}.cls-3{fill:#492d21;}</style>
  </defs>
  <g
     id="Layer_2"
     data-name="Layer 2"
     transform="matrix(0.50159837,0,0,0.50159837,-0.00134174,19.981107)">
    <g
       id="Layer_1-2"
       data-name="Layer 1">
      <path
         class="cls-1"
         d="M 124.67,89.77 A 64.44,64.44 0 0 0 129,73.33 50.14,50.14 0 0 1 94.15,58.38 46.43,46.43 0 0 0 124.67,89.77 Z"
         id="path1" />
      <path
         class="cls-1"
         d="m 94.39,87.08 a 46.48,46.48 0 0 0 16.44,23.49 64.89,64.89 0 0 0 6.69,-8 61,61 0 0 1 -23.13,-15.49 z"
         id="path2" />
      <path
         class="cls-1"
         d="M 75.07,86.64 A 60.35,60.35 0 0 1 30.65,106.17 V 91.75 A 46.57,46.57 0 0 0 75.32,58 50.14,50.14 0 0 1 39.67,73 V 60.79 A 38.76,38.76 0 0 0 78.4,22 H 90.57 A 38.88,38.88 0 0 0 129.06,60.9 64.57,64.57 0 0 0 62.38,0 C 27.93,1.21 -0.32,30.76 0,65.23 a 64.52,64.52 0 0 0 30.84,54.41 46.54,46.54 0 0 0 44.23,-33 z"
         id="path3" />
      <path
         class="cls-1"
         d="M 182.16,87.78 H 170.74 V 51.65 a 4.2,4.2 0 0 0 -4.2,-4.2 H 156 l 1.26,-7.05 H 197 l -1.26,7.05 h -9.41 a 4.2,4.2 0 0 0 -4.2,4.2 v 36.13 z"
         id="path4" />
      <path
         class="cls-1"
         d="m 227.88,84.19 a 20.76,20.76 0 0 1 -3.57,2 23.45,23.45 0 0 1 -3.64,1.31 24.47,24.47 0 0 1 -3.56,0.68 30.46,30.46 0 0 1 -3.37,0.19 23.26,23.26 0 0 1 -7.47,-1.12 15.63,15.63 0 0 1 -5.66,-3.22 13.94,13.94 0 0 1 -3.61,-5.12 18.58,18.58 0 0 1 -1.24,-7 19.87,19.87 0 0 1 1.55,-8 17.92,17.92 0 0 1 4.16,-6 18.24,18.24 0 0 1 6,-3.75 20,20 0 0 1 7.18,-1.31 17.24,17.24 0 0 1 6,1 12.87,12.87 0 0 1 7.81,7.81 18.78,18.78 0 0 1 1.1,6.68 22.72,22.72 0 0 1 -0.11,2.27 14.76,14.76 0 0 1 -0.27,1.71 h -21.82 a 8.72,8.72 0 0 0 0.8,3.88 7,7 0 0 0 2.26,2.67 10,10 0 0 0 3.58,1.53 20.49,20.49 0 0 0 4.62,0.48 c 0.61,0 1.28,0 2,-0.06 0.72,-0.06 1.52,-0.13 2.33,-0.24 0.81,-0.11 1.63,-0.27 2.47,-0.45 a 18.6,18.6 0 0 0 2.49,-0.73 v 4.79 z m -8.47,-15.81 a 15,15 0 0 0 -0.43,-3.85 8,8 0 0 0 -1.21,-2.66 5,5 0 0 0 -1.85,-1.56 5.77,5.77 0 0 0 -4.87,0.08 5.73,5.73 0 0 0 -2,1.68 8.14,8.14 0 0 0 -1.28,2.68 13.31,13.31 0 0 0 -0.46,3.62 h 12.07 z"
         id="path5" />
      <path
         class="cls-1"
         d="m 237.33,53.5 h 9.48 l 1.36,10.06 c 0.35,-0.62 0.7,-1.26 1.05,-1.91 0.35,-0.65 0.69,-1.24 1,-1.8 0.31,-0.56 0.59,-1 0.84,-1.44 0.25,-0.44 0.43,-0.71 0.53,-0.9 a 12.17,12.17 0 0 1 1.41,-1.86 9.12,9.12 0 0 1 1.71,-1.47 8.25,8.25 0 0 1 2.1,-1 8.76,8.76 0 0 1 2.59,-0.36 9.72,9.72 0 0 1 2.05,0.24 6.94,6.94 0 0 1 2.05,0.79 L 262.25,64 a 5.18,5.18 0 0 0 -0.78,-0.11 l -1,-0.08 -1,-0.05 h -0.89 a 13,13 0 0 0 -5.89,1.24 12.14,12.14 0 0 0 -4.16,3.23 v 19.55 h -11.2 z"
         id="path6" />
      <path
         class="cls-1"
         d="m 288.45,82.83 c -0.65,0.54 -1.38,1.13 -2.2,1.78 a 22.62,22.62 0 0 1 -2.69,1.83 16.47,16.47 0 0 1 -3.1,1.42 10.6,10.6 0 0 1 -3.49,0.57 8.28,8.28 0 0 1 -6.71,-3.1 9.9,9.9 0 0 1 -1.68,-3.14 11.18,11.18 0 0 1 -0.58,-3.49 9.62,9.62 0 0 1 1.09,-4.5 10.1,10.1 0 0 1 3.38,-3.67 18.41,18.41 0 0 1 5.85,-2.47 34.41,34.41 0 0 1 8.47,-0.9 h 1.26 v -2 a 4.93,4.93 0 0 0 -1.61,-4 6.55,6.55 0 0 0 -4.33,-1.36 11.87,11.87 0 0 0 -2.51,0.29 19.31,19.31 0 0 0 -2.64,0.79 20.81,20.81 0 0 0 -2.59,1.18 21.88,21.88 0 0 0 -2.37,1.47 l -0.58,-0.33 -1.91,-6.82 a 36.94,36.94 0 0 1 7.89,-2.73 35,35 0 0 1 7.31,-0.8 26.78,26.78 0 0 1 5.74,0.58 13.36,13.36 0 0 1 4.62,1.89 9.39,9.39 0 0 1 3.09,3.41 10.74,10.74 0 0 1 1.13,5.17 v 13.77 a 6.3,6.3 0 0 0 0.1,1.15 3,3 0 0 0 0.35,1 2.21,2.21 0 0 0 0.71,0.75 2.14,2.14 0 0 0 1.16,0.29 6.54,6.54 0 0 0 0.89,-0.06 4.81,4.81 0 0 0 1,-0.29 v 4.79 a 20.48,20.48 0 0 1 -4.21,2.28 11.11,11.11 0 0 1 -4.08,0.82 A 6.07,6.07 0 0 1 291,87 9.62,9.62 0 0 1 288.45,82.83 Z M 288.06,71.1 h -1.23 a 19.69,19.69 0 0 0 -4.22,0.37 7.85,7.85 0 0 0 -2.66,1 3.74,3.74 0 0 0 -1.38,1.63 5.68,5.68 0 0 0 -0.38,2.15 5.6,5.6 0 0 0 0.35,2.09 4.26,4.26 0 0 0 0.95,1.42 3.56,3.56 0 0 0 1.39,0.82 5.34,5.34 0 0 0 1.66,0.26 7.58,7.58 0 0 0 2.57,-0.5 10.09,10.09 0 0 0 2.89,-1.74 v -7.5 z"
         id="path7" />
      <path
         class="cls-2"
         d="M 335.11,87.78 H 323.69 V 40.41 h 17 a 29.86,29.86 0 0 1 8.31,1.05 17.36,17.36 0 0 1 6.1,3 12.84,12.84 0 0 1 3.74,4.75 14.85,14.85 0 0 1 1.26,6.27 16.5,16.5 0 0 1 -1.38,6.85 15.48,15.48 0 0 1 -3.72,5.25 16.77,16.77 0 0 1 -5.51,3.32 19.35,19.35 0 0 1 -6.71,1.16 c -0.35,0 -0.68,0 -1,0 a 11.23,11.23 0 0 1 -1.13,-0.13 l 0.55,-6.47 a 3.48,3.48 0 0 0 0.65,0.08 h 0.71 a 5.53,5.53 0 0 0 2.83,-0.7 5.83,5.83 0 0 0 2,-1.89 9,9 0 0 0 1.2,-2.78 13.58,13.58 0 0 0 0.4,-3.39 12.86,12.86 0 0 0 -0.63,-4.29 7.32,7.32 0 0 0 -1.81,-2.88 7,7 0 0 0 -2.86,-1.61 12.76,12.76 0 0 0 -3.74,-0.52 h -4.85 v 40.3 z"
         id="path8" />
      <path
         class="cls-1"
         d="m 389,53.5 h 9.48 l 1.36,5.63 c 0.73,-0.65 1.56,-1.33 2.47,-2.07 a 26,26 0 0 1 3,-2 18.82,18.82 0 0 1 3.41,-1.55 11.72,11.72 0 0 1 3.79,-0.62 10.76,10.76 0 0 1 4.35,0.86 9.87,9.87 0 0 1 3.36,2.41 10.93,10.93 0 0 1 2.18,3.73 14.33,14.33 0 0 1 0.77,4.84 V 87.78 H 411.92 V 66.31 a 7.69,7.69 0 0 0 -0.4,-2.56 5.54,5.54 0 0 0 -1.1,-1.85 4.51,4.51 0 0 0 -1.63,-1.11 5.36,5.36 0 0 0 -2,-0.38 7,7 0 0 0 -3.38,0.87 18.34,18.34 0 0 0 -3.15,2.2 V 87.76 H 389 Z"
         id="path9" />
      <path
         class="cls-1"
         d="m 462.88,84.19 a 20.76,20.76 0 0 1 -3.57,2 23.45,23.45 0 0 1 -3.64,1.31 24.47,24.47 0 0 1 -3.56,0.68 30.46,30.46 0 0 1 -3.37,0.19 23.26,23.26 0 0 1 -7.47,-1.12 15.63,15.63 0 0 1 -5.66,-3.22 13.94,13.94 0 0 1 -3.61,-5.12 18.58,18.58 0 0 1 -1.24,-7 19.87,19.87 0 0 1 1.55,-8 17.92,17.92 0 0 1 4.16,-6 18.24,18.24 0 0 1 6,-3.75 20,20 0 0 1 7.18,-1.31 17.24,17.24 0 0 1 6,1 12.87,12.87 0 0 1 7.81,7.81 18.78,18.78 0 0 1 1.1,6.68 22.72,22.72 0 0 1 -0.11,2.27 14.76,14.76 0 0 1 -0.27,1.71 h -21.82 a 8.72,8.72 0 0 0 0.8,3.88 7,7 0 0 0 2.26,2.67 10,10 0 0 0 3.58,1.53 20.49,20.49 0 0 0 4.62,0.48 c 0.61,0 1.28,0 2,-0.06 0.72,-0.06 1.52,-0.13 2.33,-0.24 0.81,-0.11 1.63,-0.27 2.47,-0.45 a 18.6,18.6 0 0 0 2.49,-0.73 v 4.79 z m -8.47,-15.81 a 15,15 0 0 0 -0.43,-3.85 8,8 0 0 0 -1.21,-2.66 5,5 0 0 0 -1.85,-1.56 5.77,5.77 0 0 0 -4.87,0.08 5.73,5.73 0 0 0 -2,1.68 8.14,8.14 0 0 0 -1.28,2.68 13.31,13.31 0 0 0 -0.46,3.62 h 12.07 z"
         id="path10" />
      <path
         class="cls-1"
         d="m 471.71,78.73 0.58,-0.32 a 27.15,27.15 0 0 0 5.56,2.26 19.56,19.56 0 0 0 5.27,0.81 8.22,8.22 0 0 0 2.3,-0.28 5.05,5.05 0 0 0 1.6,-0.73 3,3 0 0 0 0.94,-1 2.74,2.74 0 0 0 0.31,-1.24 2.29,2.29 0 0 0 -0.73,-1.75 6.08,6.08 0 0 0 -1.94,-1.16 19.51,19.51 0 0 0 -2.75,-0.85 c -1,-0.25 -2.07,-0.53 -3.13,-0.84 a 29.32,29.32 0 0 1 -3.14,-1.12 10.51,10.51 0 0 1 -2.75,-1.68 7.56,7.56 0 0 1 -1.94,-2.57 8.75,8.75 0 0 1 -0.73,-3.74 10.48,10.48 0 0 1 1,-4.69 10.16,10.16 0 0 1 3.11,-3.67 15.43,15.43 0 0 1 5.06,-2.39 25.45,25.45 0 0 1 6.95,-0.86 c 0.66,0 1.42,0 2.26,0.07 0.84,0.07 1.7,0.11 2.57,0.19 0.87,0.08 1.72,0.2 2.55,0.35 0.83,0.15 1.58,0.33 2.25,0.52 l -1.65,7.27 -0.62,0.36 a 22.42,22.42 0 0 0 -4.61,-1.39 22,22 0 0 0 -3.9,-0.42 8.67,8.67 0 0 0 -2.26,0.26 4.56,4.56 0 0 0 -1.52,0.69 2.75,2.75 0 0 0 -0.85,1 2.66,2.66 0 0 0 -0.28,1.21 2.36,2.36 0 0 0 0.78,1.78 6.07,6.07 0 0 0 2,1.2 21.57,21.57 0 0 0 2.75,0.84 q 1.56,0.38 3.15,0.81 a 27.16,27.16 0 0 1 3.1,1.04 10,10 0 0 1 2.75,1.66 8.06,8.06 0 0 1 1.94,2.54 8.35,8.35 0 0 1 0.74,3.7 11.09,11.09 0 0 1 -0.95,4.51 10.34,10.34 0 0 1 -2.89,3.77 14.76,14.76 0 0 1 -4.9,2.59 22.65,22.65 0 0 1 -7,1 c -1,0 -2.06,-0.05 -3.15,-0.14 -1.09,-0.09 -2.18,-0.24 -3.27,-0.44 a 32.15,32.15 0 0 1 -3.23,-0.74 22.32,22.32 0 0 1 -3,-1.07 z"
         id="path11" />
      <polygon
         class="cls-1"
         points="375.98,60.6 377.99,87.78 366.46,87.78 368.47,60.6 "
         id="polygon11" />
      <path
         class="cls-1"
         d="m 372.22,87.78 h 7 c 0.45,0 0.65,-0.35 0.32,-0.54 a 3.62,3.62 0 0 1 -1.8,-3 z"
         id="path12" />
      <path
         class="cls-1"
         d="m 372.22,87.78 h -7 c -0.45,0 -0.65,-0.35 -0.32,-0.54 a 3.62,3.62 0 0 0 1.8,-3 z"
         id="path13" />
      <path
         class="cls-3"
         d="m 378.91,52.64 a 5.67,5.67 0 0 0 0.24,-4 4.35,4.35 0 0 0 -1.46,-2 7.64,7.64 0 0 0 -1.1,-0.79 7.09,7.09 0 0 0 -3.71,-1 4.31,4.31 0 0 0 -3.23,1.56 c -0.34,0.41 -0.65,0.85 -1,1.28 a 2.16,2.16 0 0 0 -0.17,0.34 c -0.08,0.19 0,0.26 0.15,0.33 a 6.91,6.91 0 0 0 3.77,0.27 3.43,3.43 0 0 0 1.79,-1 0.36,0.36 0 0 1 0.53,-0.08 2.52,2.52 0 0 0 0.29,0.12 0.64,0.64 0 0 1 0.41,0.56 0.81,0.81 0 0 1 0,0.16 3.93,3.93 0 0 0 1.06,2.82 9,9 0 0 0 2,1.72 0.18,0.18 0 0 0 0.29,-0.08 0.39,0.39 0 0 1 0.14,-0.21 z"
         id="path14" />
      <path
         class="cls-3"
         d="m 378,44.27 -0.94,-0.86 a 0.34,0.34 0 0 0 -0.51,0.05 5.7,5.7 0 0 0 -1.23,2.74 0.34,0.34 0 0 0 0.59,0.24 10.21,10.21 0 0 1 2,-1.61 0.35,0.35 0 0 0 0.09,-0.56 z"
         id="path15" />
      <path
         class="cls-3"
         d="m 370.18,58.09 a 0.75,0.75 0 0 0 0.24,0 9.67,9.67 0 0 0 1.33,-0.16 3.61,3.61 0 0 0 0.81,-0.35 0.17,0.17 0 0 0 0.09,-0.26 7.23,7.23 0 0 1 -0.47,-1.77 c -0.05,-0.29 -0.1,-0.33 -0.39,-0.33 a 0.75,0.75 0 0 1 -0.64,-0.29 0.24,0.24 0 0 0 -0.35,-0.07 7.05,7.05 0 0 1 -1.67,0.78 0.23,0.23 0 0 0 -0.13,0.36 5.59,5.59 0 0 0 0.37,1 7.74,7.74 0 0 0 0.62,0.88 1,1 0 0 0 0.19,0.21 z"
         id="path16" />
      <path
         class="cls-3"
         d="m 373.05,51.72 a 1.87,1.87 0 0 0 0.47,0 c 0.53,-0.12 1.05,-0.26 1.57,-0.42 0.25,-0.07 0.27,-0.14 0.13,-0.36 a 5,5 0 0 1 -0.69,-2.09 c 0,-0.25 -0.06,-0.26 -0.26,-0.12 a 4.69,4.69 0 0 1 -2.07,0.83 c -0.23,0 -0.27,0.09 -0.17,0.3 0.22,0.5 0.46,1 0.7,1.48 a 1.85,1.85 0 0 0 0.32,0.38 z"
         id="path17" />
      <path
         class="cls-3"
         d="m 368.28,50.26 a 4.94,4.94 0 0 0 -0.45,1.36 c -0.05,0.25 0,0.3 0.25,0.29 a 6.46,6.46 0 0 0 2.91,-0.85 c 0.45,-0.24 0.44,-0.24 0.26,-0.71 a 5.05,5.05 0 0 1 -0.18,-0.55 c 0,-0.11 -0.08,-0.16 -0.19,-0.16 a 7,7 0 0 1 -1.87,-0.29 c -0.15,-0.05 -0.24,0 -0.3,0.15 a 7.07,7.07 0 0 0 -0.43,0.76 z"
         id="path18" />
      <path
         class="cls-3"
         d="m 377.29,54.55 c 0,0 0,0 0,0 v 0 0.07 c 0,0 0,0 0,0.05 v 0.07 l -0.53,0.91 c -0.15,0.25 -0.24,0.24 -0.41,0 a 7.48,7.48 0 0 1 -1.31,-3.13 c 0,-0.18 0,-0.25 0.2,-0.31 l 0.51,-0.18 c 0.28,-0.12 0.34,-0.12 0.55,0.11 a 6.18,6.18 0 0 0 1.33,1.12 0.29,0.29 0 0 1 0.13,0.44 c -0.11,0.26 -0.23,0.51 -0.35,0.76 v 0 z"
         id="path19" />
      <path
         class="cls-3"
         d="m 371.84,54.33 c 0.11,0 0.2,0 0.28,0 a 4.56,4.56 0 0 0 1.94,-0.58 0.21,0.21 0 0 0 0.12,-0.27 c -0.05,-0.21 -0.09,-0.42 -0.15,-0.63 a 0.29,0.29 0 0 0 -0.31,-0.23 2.34,2.34 0 0 0 -0.38,0 1.27,1.27 0 0 1 -1.28,-0.65 2,2 0 0 0 -0.12,-0.19 0.23,0.23 0 0 0 -0.36,-0.07 l -0.57,0.33 a 0.28,0.28 0 0 0 -0.15,0.35 5.1,5.1 0 0 0 0.73,1.63 c 0.07,0.15 0.17,0.23 0.25,0.31 z"
         id="path20" />
      <path
         class="cls-3"
         d="m 375.41,56.2 a 0.58,0.58 0 0 0 -0.05,-0.16 c -0.22,-0.4 -0.46,-0.8 -0.68,-1.2 -0.09,-0.17 -0.19,-0.22 -0.37,-0.15 l -1.08,0.4 c -0.16,0.06 -0.22,0.15 -0.16,0.37 0.16,0.6 0.34,1.2 0.52,1.79 0,0.09 0.07,0.17 0.1,0.26 0.03,0.09 0.1,0.11 0.18,0.05 a 7,7 0 0 0 1.46,-1.26 0.22,0.22 0 0 0 0.08,-0.1 z"
         id="path21" />
      <path
         class="cls-3"
         d="m 368.18,52.91 a 3.89,3.89 0 0 0 -0.07,0.56 q 0,0.6 0,1.2 c 0,0.28 0.09,0.33 0.36,0.27 a 5.55,5.55 0 0 0 1.84,-0.83 0.19,0.19 0 0 0 0.07,-0.26 c -0.15,-0.37 -0.29,-0.75 -0.42,-1.13 a 0.21,0.21 0 0 0 -0.26,-0.16 l -1.34,0.24 a 2,2 0 0 0 -0.18,0.11 z"
         id="path22" />
    </g>
  </g>
</svg>
