<?xml version="1.0" encoding="UTF-8" standalone="no"?>
<svg
   id="_图层_1"
   data-name="图层 1"
   version="1.1"
   viewBox="0 0 250 100"
   sodipodi:docname="Alibaba_Damo_logo.svg"
   width="250"
   height="100"
   inkscape:version="1.1.2 (0a00cf5339, 2022-02-04)"
   xmlns:inkscape="http://www.inkscape.org/namespaces/inkscape"
   xmlns:sodipodi="http://sodipodi.sourceforge.net/DTD/sodipodi-0.dtd"
   xmlns="http://www.w3.org/2000/svg"
   xmlns:svg="http://www.w3.org/2000/svg">
  <sodipodi:namedview
     id="namedview63"
     pagecolor="#ffffff"
     bordercolor="#000000"
     borderopacity="0.25"
     inkscape:pageshadow="2"
     inkscape:pageopacity="0.0"
     inkscape:pagecheckerboard="0"
     showgrid="false"
     width="250px"
     inkscape:zoom="1.075"
     inkscape:cx="633.02326"
     inkscape:cy="328.37209"
     inkscape:window-width="3840"
     inkscape:window-height="2136"
     inkscape:window-x="3840"
     inkscape:window-y="0"
     inkscape:window-maximized="1"
     inkscape:current-layer="_图层_1" />
  <defs
     id="defs4">
    <style
       id="style2">
      .cls-1 {
        fill: #000;
      }

      .cls-1, .cls-2 {
        stroke-width: 0px;
      }

      .cls-2 {
        fill: red;
      }
    </style>
  </defs>
  <g
     id="g93"
     transform="matrix(0.15926294,0,0,0.15926294,24.525828,-2.4971024)"
     style="stroke-width:6.27893">
    <g
       id="g22"
       style="stroke-width:6.27893">
      <path
         class="cls-1"
         d="m 522.7,260.2 c 0.3,-0.4 0.5,-0.7 0.8,-1.1 0.3,-0.4 1,-1.1 0.9,-1.3 -2,-2.9 -0.1,-5.6 0.4,-8.3 0.6,-3.4 1,-6.8 1.6,-10.1 0.7,-4.1 1.5,-8.2 2.3,-12.3 1.4,-7.5 2.9,-15.1 4.3,-22.6 0.6,-3 0.9,-6 1.4,-9.1 0,-0.6 0.4,-1.2 0.5,-1.8 0.1,0.3 0.3,0.5 0.4,0.8 -0.1,-1.3 -0.6,-2.7 -0.4,-4 1,-5.6 2.2,-11.3 3.4,-16.9 1.3,-6.5 2.7,-13 4.1,-19.4 0.5,-2.3 0,-4.2 -1.5,-6 -0.7,-0.9 -1.3,-1.9 -2,-3 2.2,-1.6 3.7,-3.5 3.2,-6.4 2,0 3.6,-0.4 5.1,-2.2 1,-1.2 3,-2.4 5.3,-1.6 1.2,0.4 2.7,-0.3 4.1,-0.4 0.8,0 1.8,0 2.5,0.3 6.7,4.1 13.3,8.2 19.8,12.5 0.9,0.6 1.7,1.9 2,3 1.2,3.6 2.1,7.4 3.2,11 0.3,1.2 0.9,2.3 1.5,3.6 1,-0.6 1.7,-1.1 2.8,-1.8 -0.9,3.8 -1.7,7.2 -2.6,10.8 3.8,0.5 6.9,-0.8 10,-2.4 3.8,-2 7.4,-4.4 11.3,-6 3.4,-1.4 4.5,-3.5 4.2,-6.8 -0.3,-2.8 -0.2,-5.8 -2.5,-8 -1.4,-1.3 -3,-2.2 -4.7,-3.4 1.3,-1.6 2.9,-3.5 4.9,-6 0.6,-0.5 1.8,-1.6 3,-2.7 -0.2,-0.3 -0.3,-0.5 -0.5,-0.8 -3,1.1 -6.1,2.1 -9.1,3.2 -2.1,0.8 -4.2,2 -6.3,2.7 -4.5,1.4 -8.8,1.4 -12.9,-1.6 -1,-0.7 -2.6,-1 -3.9,-1.1 -5.1,-0.2 -9.5,-1.7 -13.4,-5 -3.7,-3.2 -7.2,-6.6 -11.1,-9.5 -6,-4.6 -10.5,-10.5 -15.8,-15.8 -0.5,-0.5 -0.2,-1.6 -0.4,-2.7 1.2,0.2 2,0.4 3.1,0.6 -1.1,-1.6 -0.5,-2.2 0.9,-2.5 1,-0.3 1.9,-1.1 2.9,-1.4 1.9,-0.5 3.9,-0.7 5.8,-1.1 0.7,-0.1 1.3,-0.5 2.5,-1 5,1.1 10.5,-0.5 15.9,-1.6 6.3,-1.3 12.5,-3.1 18.6,-5.1 7.7,-2.5 15.4,-4.5 23.5,-5.4 4.4,-0.5 8.7,-2.3 13,-3.7 3.9,-1.2 7.6,-2.8 11.5,-4 2,-0.6 3.2,-1.6 3.6,-3.7 -0.6,-0.4 -1.1,-0.7 -1.9,-1.2 2.5,-1 4.7,-2 7.6,-3.2 -4.1,-4 -7.8,-7.6 -11.5,-11.1 -0.8,-0.8 -1.7,-1.2 -0.7,-2.5 0.3,-0.4 0.1,-1.4 -0.1,-1.9 -1,-1.8 -2.1,-3.5 -3.3,-5.5 1.7,0.1 3.4,2.1 4.1,-0.6 2.4,0.9 3.7,-0.1 3.3,-2.4 -0.2,-1.2 -0.8,-2.4 -1.2,-3.5 -0.2,-0.8 -0.4,-1.6 -0.6,-2.5 0.8,-0.2 1.6,-0.5 2.4,-0.5 1.9,0 3.8,0 5.9,0 -0.5,-0.8 -0.9,-1.4 -1.5,-2.3 1.5,-0.4 2.9,-0.8 4.5,-1.1 -1.2,-2.1 -2.2,-4 -3.2,-5.9 0.1,-0.2 0.3,-0.3 0.4,-0.5 0.7,0.2 1.5,0.3 2.2,0.5 8.4,2.9 17.2,2.7 25.9,3.5 5.1,-2 9.8,0.6 14.4,1.7 4.7,1.1 9.1,3.5 13.6,5.2 4.6,1.7 7.8,4.6 9.7,9.1 0,0.2 0.2,0.4 0.4,0.5 1.7,1.1 1.8,2.9 1.6,4.6 -0.1,2 -0.2,4 -0.7,5.8 -0.5,1.9 -1.6,3.6 -2.5,5.5 0.5,0 1.2,0 2,0 7.2,-0.9 14.5,-1.2 21.5,-2.8 4.7,-1.1 9.3,-2.1 14,-2.9 1.9,-0.3 3.6,-1.7 5.2,-2.9 1.5,-1.1 4.1,-1.7 5.7,-0.7 1.8,1.1 3.5,2.5 5.1,3.8 3.7,3 7.3,6 10.9,8.9 1.2,1 2.7,1.8 3.7,3.1 3.9,4.9 7.6,10 11.6,14.9 1,1.2 2.6,2 4,2.9 0.4,0.3 1.1,0.5 1.2,0.8 1,3.2 3.2,6.4 1.8,9.9 -0.6,1.5 -1.9,2.6 -3,3.9 -0.8,1 -1.7,1.9 -2.6,2.8 -0.4,0.4 -0.9,0.9 -1.5,1 -2.7,0.5 -5.3,0.8 -8,1.2 -0.3,0 -0.8,0.2 -1,0.5 -1.6,2.4 -4.2,2.4 -6.7,2.6 -0.2,0 -0.5,-0.2 -0.6,0 -4.1,3.5 -9.4,1 -13.8,2.8 -0.5,0.2 -1.4,0 -1.9,-0.3 -4.1,-2.6 -8.8,-2.4 -13.3,-3.1 -1.7,-0.3 -3.5,-0.2 -5.7,-0.4 2.4,2.7 4.6,5.3 6.9,7.7 2.1,2.1 2.8,4.8 1.9,7.6 -0.3,0.9 0.1,2 0.3,3.6 5.3,-0.8 10.3,-1.6 15.3,-2.4 1.5,-0.2 3.1,-0.3 4.6,-0.6 0.9,-0.2 2,-0.3 2.7,-0.9 2,-1.8 3.1,-1 4.5,0.9 2.3,3.4 4.6,6.9 7.5,9.7 2.2,2.1 3.7,4.5 5,7.1 0.7,1.4 0.9,2.9 1.4,4.3 0.5,1.3 1.1,2.6 1.9,3.7 3,3.9 2.6,6.4 -1,9.7 -2.8,2.5 -5.6,4.2 -9.5,3.7 -0.6,0 -1.4,0 -1.9,0.3 -5.6,3.3 -12,1.8 -18,3 -4.3,0.9 -8.6,1.6 -12.9,2.4 0,0.3 0,0.6 0,0.9 1,0.4 1.9,0.9 2.9,1.2 3.8,0.9 7.5,1.8 10.7,4.4 1.5,1.2 4.2,0.9 6.3,1.2 1.1,0.2 2.3,0.1 3.4,0.4 2.7,0.5 5.3,1.3 8,1.7 0.9,0.1 1.9,-0.5 3.3,-0.8 1.2,2.3 3.8,3.2 6.5,4.1 2.6,0.9 5.2,1.9 8.4,3.1 1.9,4.3 5.9,7.8 10.3,10.6 6.2,4 10.5,9.6 14.3,15.7 0.3,0.5 0.6,1 0.8,1.6 1,3.1 2,6.1 2.9,9.2 1.2,4.3 -2.8,10.5 -7.3,10.8 -7.1,0.5 -13.7,-0.9 -19.1,-6 -2.7,-2.6 -5.5,-4.1 -9.4,-4.3 -8.7,-0.4 -17.4,-1.3 -26.1,-1.9 5.7,-1.1 11.2,-2.1 16.7,-3.3 0.5,-0.1 1.3,-0.6 1.4,-1 0.1,-0.5 -0.3,-1.4 -0.7,-1.6 -4.9,-2.9 -9.7,-6 -15.4,-6.8 -1.2,-0.2 -2.5,0.3 -3.7,0.7 -1.1,0.4 -2.1,0.8 -3,-0.3 -1.8,-2.5 -4.3,-2.8 -7.5,-2.3 0,1.2 0.2,2.5 0.3,3.7 0,2.1 -0.5,4.3 0,6.2 0.9,3.7 -1.9,3.9 -3.9,5.1 -1.2,0.7 -2.2,1.8 -3.5,2.2 -2.4,0.9 -5,1.4 -7.6,2.1 1.4,1.3 3,2.6 4.4,4 2,2 3.9,4.1 5.9,6.2 0.3,0.3 0.4,0.8 0.7,1.1 3.3,2.4 4.5,6.1 4.8,9.7 0.3,3.1 -0.7,6.3 -1.2,9.5 0,0.3 -0.8,0.5 -1.2,0.6 -1.8,0.3 -3.5,0.5 -5.3,0.8 -0.4,0 -0.8,0.4 -1.2,0.8 -0.3,0.2 -0.3,0.7 -0.6,0.9 -3.5,2.1 -13.3,5.5 -17.1,7.4 -2.5,1.2 -5,1.8 -7.6,2.5 -0.9,0.3 -1.6,1.4 -2.4,2.1 -0.5,0.4 -1.1,0.7 -1.7,0.9 -1.7,0.6 -3.4,0.9 -5.1,1.6 -0.6,0.2 -1.4,1.2 -1.3,1.7 0.3,3.1 0.8,6.2 1.2,9.6 7.2,-3 14.6,-5.3 21.6,-9.4 0.9,0.4 2.4,1.7 3.4,-0.7 0,-0.1 1.1,0 1.6,0.2 0.9,0.4 1.6,0.9 2.9,1.7 -0.9,-2.7 0.5,-3.4 1.9,-4 1.2,-0.5 2.9,-0.2 3.3,-2 0,-0.1 1,-0.3 1.3,0 0.8,0.6 1.5,1.4 2.3,2 1,0.9 2.1,1.7 3.1,2.5 0.9,0.7 1.8,1.4 2.7,2.1 3.6,2.8 7.4,5.4 10.8,8.4 3,2.6 6.2,5.1 5.6,9.9 -0.5,4.1 -2.2,7.3 -5.3,8.4 -0.7,2.7 -1.5,5.3 -2.2,8 -2.3,-0.6 -3.9,0.4 -5.3,2 -0.4,0.5 -1.2,0.9 -1.9,1 -2.8,0.4 -5.7,0.6 -8.6,0.8 -0.7,0 -1.4,-0.2 -2.2,-0.3 -1.1,0 -2.2,-0.3 -3.2,0 -2.6,0.9 -5,1 -7.8,0.4 -2.3,-0.5 -5,0.2 -7.4,0.5 -2.8,0.3 -5.6,0.9 -8.3,0.9 -2.6,0 -5.4,2.1 -5.6,4.9 -0.2,3 -0.3,6 -0.2,9.1 0,1.1 0.5,2.4 1.2,3.2 0.4,0.5 1.7,0.5 2.6,0.5 0.4,0 0.8,-0.4 1.2,-0.4 7.9,-1 15.8,-2.1 23.7,-3.1 0.7,0 1.4,-0.1 2,-0.3 3.5,-1.4 6.9,-2.8 10.4,-4.2 1.2,-0.5 2.5,-0.8 3.6,-1.5 0.8,-0.4 1.3,-1.3 1.9,-2 0.6,-0.8 1.2,-1.6 1.8,-2.4 1.1,0.9 2.1,1.7 3.7,3 -1.4,0.4 -2,0.5 -2.6,0.7 1.4,1.4 2.3,1.1 4.8,-1.1 -0.4,-0.7 -0.9,-1.4 -1.3,-2 1.8,-2.5 4.3,-3.1 7,-3.6 0.3,0 0.8,-0.5 0.8,-0.8 0.3,-2.2 1.5,-2.2 2.9,-1 1.1,0.9 1.9,2.2 2.9,3.1 1.2,1.1 2.6,1.9 3.9,2.9 1.9,1.4 3.8,2.9 5.6,4.3 0.5,0.4 0.8,0.9 1.3,1.2 4.6,3.4 9.2,6.6 13.7,10.1 1.9,1.5 3.7,3.4 5.1,5.4 2.4,3.5 2.5,7.4 0.9,11.3 -0.4,1.1 -0.8,2.2 -1,3.3 -0.5,2.7 -2.1,4.3 -4.7,5 -4.1,1.1 -8.1,2.3 -12.1,3.4 -2.8,0.8 -5.5,1.6 -8.4,0.2 -0.9,-0.4 -2.1,-0.2 -3.2,-0.1 -1.7,0.1 -3.4,0.4 -4.7,0.5 -2.5,-3.2 -5.3,-1.5 -7.6,-1.9 -0.8,-0.5 -1.7,-1.3 -2.5,-1.3 -6,-0.1 -12,0 -17.9,0 0,0.4 0.2,0.8 0.2,1.2 -0.7,0.4 -1.3,1 -2,1.1 -3.2,0.7 -6.5,1.3 -9.8,1.8 -2.5,0.4 -5,0.8 -7.5,1 -4.4,0.4 -8.8,0.6 -13.2,1 -0.7,0 -1.4,0.5 -2.4,1 3.3,1.7 3.2,4.8 3.5,7.6 0.3,2.7 1.8,5.5 -0.4,8.2 0.5,0.2 1.1,0.4 1.4,0.5 -2.2,6.4 -0.6,12.6 0.5,19.1 0,0 -0.6,0.4 -1.2,0.7 1.4,1.5 2.6,2.9 0.7,4.8 -0.3,0.3 0,1.3 -0.1,1.9 -0.1,1.1 -0.3,2.1 -0.5,3.2 0,0.3 -0.5,0.7 -0.9,0.8 -0.2,0 -0.8,-0.4 -0.8,-0.5 0,-0.4 0.4,-0.8 0.1,-1.1 -0.1,-0.8 -0.3,-1.6 -0.4,-2.4 -0.2,-2.6 -0.4,-5.3 -0.7,-7.9 0,-0.4 -0.6,-0.8 -1.3,-0.8 0.2,0.3 0.5,0.7 0.8,1.2 -0.6,0 -1.1,0 -1.6,0 0.7,1.5 -1.6,3.8 1.3,4.6 -2.3,2.2 -2.3,8.1 0.1,11 -1.8,1.5 -2.2,5.2 -0.8,8.3 0.2,-0.6 0.5,-1.2 0.7,-1.8 0.3,0.4 0.7,0.8 1.3,1.6 0.1,-1.3 0.2,-2.3 0.3,-3.3 0,-2.1 -0.1,-4.1 0,-6.2 0,-0.6 0.8,-1.2 1.2,-1.8 0.4,0.6 1.2,1.2 1.3,1.9 0,2.6 -0.2,5.2 -0.2,7.8 0,1.8 0.4,3.6 0.7,5.7 -1.6,1.5 -0.7,4 -1,6.1 -0.3,1.9 -0.2,3.8 -0.3,5.7 -0.1,1.1 -1.1,2.3 0.6,3.2 0.1,0 0.1,1 -0.1,1.2 -1.8,1.2 -0.4,2.8 -0.5,4.2 0,1.4 0,2.9 0,4.3 0,2.6 -1.1,4.4 -3.3,5.9 -1.1,0.7 -1.8,2.2 -2.4,3.4 -2.2,3.9 -4.2,7.9 -6.3,11.9 -0.2,0.3 -0.3,0.7 -0.6,0.9 -2.6,2.4 -5.2,4.8 -7.8,7.2 -1.1,1 -2.1,1.3 -3.5,0.1 -0.7,-0.6 -2.3,-0.7 -3.2,-0.3 -3.6,1.7 -6.5,0.5 -9.6,-1.4 -2.1,-1.4 -4.7,-2 -6.9,-3.2 -2.1,-1.2 -4.3,-2.5 -6,-4.1 -1.4,-1.4 -3,-1.4 -4.6,-1.7 -2.4,-0.5 -4.9,-0.9 -7.2,-1.8 -1.2,-0.5 -1.9,-2 -3.1,-2.7 -3.3,-1.9 -6.8,-3.7 -10.2,-5.5 -1,-0.5 -2.3,-0.7 -2.3,-2.3 0,-0.3 -1.2,-0.6 -1.9,-0.9 0.4,-1.4 -0.1,-1.9 -1.8,-2.4 -3.8,-1.1 -7.5,-2.8 -11.3,-4.2 -0.6,-0.2 -1.3,-0.7 -1.9,-0.6 -2.3,0.2 -3.3,-1.4 -4.5,-3 -0.8,-1 -1.8,-1.9 -2.9,-2.7 -0.8,-0.5 -1.8,-0.5 -2.7,-0.8 0.3,-0.4 0.7,-0.7 1,-1.1 -0.3,0.4 -0.6,0.8 -1,1.2 l -0.5,-0.3 c 0.4,-0.6 0.8,-1.2 1.4,-2.2 -1.3,-0.3 -2.4,-1 -3.5,-0.9 -2.4,0 -3.7,-1 -3.7,-3.5 0,-0.5 -0.1,-1.2 -0.4,-1.3 -1.4,-0.8 -1.7,-1.6 -0.5,-2.9 0.2,-0.2 -0.4,-1.6 -0.6,-1.5 -0.9,0.1 -2,0.2 -2.6,0.8 -0.8,0.7 -1.3,1.8 -1.9,2.7 -0.1,-0.2 -0.2,-0.5 -0.3,-0.7 -1.2,-0.3 -2.4,-0.6 -3.2,-0.8 -0.3,-1.2 -0.5,-2.3 -0.8,-3.7 -1.1,0.6 -1.7,0.9 -2.2,1.2 -0.2,-0.7 -0.3,-1.3 -0.5,-2 -0.2,-0.6 -0.3,-1.6 -0.8,-1.8 -2.6,-1.3 -5.3,-2.4 -8,-3.6 v -0.8 c 1.4,-0.6 2.9,-1.5 4.4,-1.6 1.4,-0.2 3.1,0.1 4.2,0.8 2.1,1.3 4.1,0.7 6.3,0.6 1.7,0 3.3,0 5.2,0 -0.2,-0.7 -0.4,-1.3 -0.7,-2.2 2.6,-0.6 5.2,-1.1 7.8,-1.7 0,0.2 0.2,0.4 0.3,0.6 -0.5,0.5 -0.9,1 -1.6,1.7 0.6,0 0.9,0.2 1.2,0 2.1,-0.8 3.7,0.7 5.6,1.1 1.2,0.2 2.6,0.4 3.6,0 2.2,-0.8 4.3,-1.7 6.8,-1.1 0.8,0.2 1.7,-0.2 2.5,-0.6 -0.9,-0.3 -1.7,-0.7 -2.6,-1 0,-0.3 0.2,-0.7 0.2,-1 3.8,0.3 8,-0.2 11.5,1 3,1.1 5.4,0 8.3,0.4 -0.6,-0.9 -0.9,-1.5 -1.5,-2.5 2.6,-0.6 5.1,-1.2 7.5,-1.9 2.2,-0.6 4.5,-1.3 6.6,-2.3 0.7,-0.3 1,-1.8 1.1,-2.8 0,-1 -0.3,-2 -0.6,-3.1 2.2,-0.9 2.4,-2.3 1.4,-4.4 -0.5,-1 -0.4,-2.3 -0.3,-3.5 0.2,-1.9 0.7,-3.6 0.5,-5.7 -0.5,-3.8 -0.2,-7.7 -0.6,-11.6 -0.3,-2.9 -1.2,-5.7 -1.9,-8.8 -1.6,0.9 -3.3,1.8 -4.9,2.7 -1,0.5 -2,1.3 -3,1.6 -8.6,2.5 -17.2,5 -25.8,7.4 -0.9,0.3 -1.9,0.4 -2.9,0.6 0,-0.2 -0.1,-0.4 -0.2,-0.6 9.7,-3.4 19.4,-6.8 29.1,-10.2 0,-0.3 0,-0.6 0,-0.8 -0.5,0 -1.2,-0.4 -1.5,-0.1 -2,1.6 -3.9,3.2 -6.7,1.9 -0.2,-0.1 -0.7,0.1 -0.9,0.3 -1.6,1.6 -1.6,1.6 -3.7,0.9 -1,0.9 -1.9,3 -3.4,0.5 -4,3.4 -6.9,4.4 -9.9,3.6 -0.8,2.2 -3,2.5 -4.9,3.2 -0.7,0.3 -1.3,1 -2,1.6 0.8,0.4 1.8,1.3 2.4,1.1 2.9,-0.9 6.3,0.8 8.9,-1.9 1,-1 2,-0.4 1.9,1.1 h 4.1 c 0,0.2 0.1,0.4 0.2,0.7 -0.5,0.3 -1,0.6 -1.6,0.7 -5.3,1.2 -10.6,2.1 -15.8,3.6 -5.7,1.6 -11.2,3.6 -16.8,5.4 -0.9,0.3 -2,0.4 -3,0.5 -0.9,0 -1.9,0.1 -2.8,0.1 -0.7,0 -1.5,0 -2.1,-0.2 -3.8,-1.5 -7.7,-2.9 -11.4,-4.7 -3.1,-1.5 -6,-3.5 -8.9,-5.4 -0.6,-0.4 -0.7,-1.5 -1.1,-2.5 -6.8,0.5 -9.3,-6.3 -12.3,-10.1 0.3,-0.5 0.4,-0.7 0.5,-0.7 7.6,-1 15.2,-4.8 22.2,-7.2 6.3,-2.2 12.5,-4.7 18.8,-6.9 9.6,-3.4 19.3,-6.9 29,-10.1 4.3,-1.4 8.7,-2.4 13,-3.6 1.6,-0.4 3.3,-0.9 4.9,-1.3 3.1,-0.7 6.1,-1.5 9.2,-2 3.5,-0.6 3.8,-0.8 3.1,-4.7 -1.4,0.2 -2.7,0.4 -4.1,0.7 1.9,-1.9 3.6,-3.7 2.2,-6.8 h -2.4 c -0.2,-0.2 -0.3,-0.4 -0.5,-0.6 0.9,-0.5 1.9,-1 2.8,-1.5 -0.2,-0.2 -0.4,-0.5 -0.5,-0.7 -8.2,2.7 -16.3,5.5 -24.5,8.2 -1.7,0.6 -3.6,1 -5.3,1.6 -3.1,1.1 -6,2.8 -9.2,3.4 -2.2,0.4 -4.8,-0.2 -6.8,-1.2 -3.2,-1.6 -6.1,-3.7 -9.9,-3.6 -2.7,0 -4.4,-2.8 -3.1,-5.1 -1.6,-0.9 -3.3,-1.6 -4.8,-2.6 -2,-1.2 -4,-2.4 -5.7,-4 -0.8,-0.8 -0.9,-2.4 -1.2,-3.7 -0.2,-0.9 -0.4,-1.9 -1.1,-2.8 0.7,-1.6 1.3,-3.3 2.2,-4.8 0.5,-0.8 1.5,-1.4 2.4,-1.8 3.3,-1.2 6.8,-2 10,-3.5 9.2,-4.3 19,-6.5 28.7,-9.4 7.4,-2.2 14.8,-4.7 22.1,-7.2 1.5,-0.5 2.8,-1.3 4.1,-2.2 1.3,-0.9 1.8,-2 1.5,-3.8 -0.4,-1.8 0,-3.8 0,-5.8 -0.7,0.2 -1.5,0.4 -2.3,0.6 -4.7,0.8 -9.1,2.5 -13.5,4.3 -3.4,1.3 -7.2,1.5 -10.8,2.3 -2.3,0.5 -4.6,1 -6.9,1.6 -5.5,1.3 -11.1,2.6 -16.6,3.9 -0.4,0 -0.9,0.2 -1.1,0 -2.1,-2.3 -4.7,-0.8 -7,-0.9 -3.6,0 -7.2,0 -10.8,0.3 -2.1,0.1 -4.1,0.6 -6.2,0.9 0,0 0.1,-0.6 0.2,-1.3 h -5.7 c 4,-2.2 7.7,-4 11,-6.2 4.2,-2.8 8.8,-5.4 12.2,-9 2.7,-2.8 5.7,-4.7 9,-6.5 7.2,-4 21.8,-8 29,-12 0.3,-0.1 0.6,-0.3 0.7,-0.5 1.8,-3.8 6,-3.8 9,-5.6 3.2,-1.9 6.6,-3.6 10,-5.2 5,-2.3 10.3,-4.1 15.2,-6.6 4,-2.1 7.7,-5 11.5,-7.5 2.8,-1.8 5.7,-3.4 9,-5.3 -0.4,0.8 -0.5,1.1 -0.7,1.5 3.8,0.3 6.9,-1.1 9.5,-3.7 0.7,-0.7 1.4,-1.4 2.2,-1.8 3.2,-1.6 6.4,-3.1 9.8,-4.8 -0.8,-0.9 -1.1,-1.4 -1.6,-1.9 -2.2,-2 -3.3,-4.1 -3.7,-7.4 -0.4,-3.2 -0.2,-6.3 -0.3,-9.5 0,-1.1 0,-2.2 0,-4 -4.1,2.8 -7.7,5.4 -11.6,8 0.5,0.9 0.9,1.7 1.4,2.3 2.1,2.2 2,4.6 0.9,7.3 -0.6,1.5 -1,3.1 -1.1,4.7 -0.3,6 -4.1,8.9 -10.5,8.7 -1.4,0 -2.8,-0.2 -4.2,-0.3 -1.9,0 -3.6,-0.5 -5,-2 -0.4,-0.4 -1,-0.6 -1.5,-0.9 -1.1,-0.6 -2.2,-1.1 -3.5,-1.8 -5.2,3.8 -11.5,7 -17.7,10.4 -0.6,-2.4 0.8,-3.4 2.1,-4.7 2.1,-2.2 4.1,-4.5 6,-6.9 0.7,-0.9 1.8,-2.3 1.5,-3.1 -0.6,-2.1 -1.6,-4.3 -2.9,-6.1 -1.4,-1.8 -3.5,-3.1 -5.1,-4.8 -1.1,-1.1 -1.9,-2.4 -2.8,-3.6 -0.6,-0.8 -1.4,-1.5 -2,-2.2 -0.3,0.1 -0.5,0.3 -0.8,0.4 0.5,4.7 1.1,9.4 1.6,14.1 0,0.2 0.2,0.5 0.1,0.6 -1.1,3.7 1.3,6.9 1.5,10.4 0.2,2.5 -1.3,4.3 -2.9,5.6 -2,1.6 -3.2,3.5 -3.7,6 -0.5,2.3 -1.7,3.6 -4.1,4.5 -3.9,1.5 -8,7.5 -11.7,9.6 -3.1,1.8 -4.7,1.8 -7.1,-0.9 -1.6,-1.7 -2.9,-3.7 -4.6,-5.3 -1.2,-1.2 -2.6,-2.2 -4,-3.1 -1,-0.7 -2.2,-1.2 -3.3,-1.8 0.2,-0.1 0.4,-0.2 0.6,-0.3 -0.5,-1.9 -1.1,-3.8 -1.6,-5.7 1.9,0.3 2.2,-1 2.2,-2.7 0,-3 0.5,-9.8 0.5,-13.3 -2.8,2.4 -6.2,3.2 -7.7,6.6 -0.7,1.6 -1.8,3.1 -3.1,4.3 -1.9,1.8 -4.2,3.2 -6.3,4.7 -0.2,-0.1 -0.4,-0.3 -0.6,-0.4 0.4,-0.8 0.8,-1.6 1.4,-2.7 -1.4,-1.4 -1.5,1.4 -2.5,1 0.6,2.5 -1.7,3.5 -2.8,5.1 -0.2,0.2 -0.3,0.5 -0.2,1.1 1.9,-1.2 3.8,-2.5 5.8,-3.7 -1.1,2.6 -2.7,4.6 -5.5,5.4 -1,0.3 -1.9,1 -2.8,1.6 -3.9,2.9 -7.7,5.9 -11.7,8.7 -1,0.7 -2.7,0.7 -4.1,0.7 -2.2,0 -3.7,0.9 -5,2.7 -1.1,1.5 -2.9,2.4 -4.2,3.7 -2.1,2 -2.2,4.5 -1.6,7.1 0.2,0.8 0,1.8 -0.1,2.6 -1,5 -3.5,20 -4.5,25 -0.6,3.3 -0.7,6.6 -1.3,9.9 -0.4,2.3 -1.6,4.4 -2,6.7 -0.8,3.9 -1.3,7.9 -2,11.8 -0.2,1 -0.5,2 -0.8,3 -0.2,0.6 -0.8,1.4 -0.6,1.8 1.2,2.8 -1.4,4.3 -2.1,6.4 -0.7,2.3 -1.6,4.5 -2.5,6.7 -0.2,0.5 -0.8,0.8 -1.2,1.1 -0.5,0.4 -1.2,0.6 -1.7,0.9 0.6,0.3 1.3,0.6 2.3,1 -0.2,0.5 -0.6,1.2 -0.8,1.9 -0.3,0.9 -0.6,1.9 -0.9,2.8 -0.2,0.5 -0.6,1 -0.9,1.5 -0.1,0.2 -0.6,0.4 -0.6,0.5 0.7,2.5 -1.6,3.1 -2.7,4.5 -0.8,1 -1,2.5 -1.4,3.9 -0.9,3.2 -1.7,6.5 -2.6,9.7 -0.3,1.2 -0.6,2.4 -0.9,3.7 h 2.4 c -3.9,3.5 -3.9,9.1 -8.4,11.2 -0.9,-0.6 -1.6,-1.4 -2.2,-1.3 -0.5,0 -1,1 -1.3,1.7 -0.8,1.9 -1.4,3.8 -2.3,6.1 1.8,2.4 -3.3,3.4 -1.7,6.3 h -3.9 c -0.7,0.9 -1.2,1.4 -1.6,2 -0.4,0.5 -0.6,1.2 -0.9,1.8 -0.4,0.9 -0.8,2.3 -1.4,2.4 -2.5,0.4 -2.4,2.6 -3.2,3.8 0.7,1 2,2.3 1.7,2.7 -0.5,0.9 -1.8,1.5 -2.7,2.2 -0.5,0.4 -1.1,0.9 -1.3,1.4 -0.4,1.1 -0.7,2.4 -1,3.8 0.2,0.2 0.7,0.6 1.3,1.2 -1,0.5 -1.8,0.9 -2.8,1.3 0.3,0.6 0.5,1 0.7,1.6 -3.2,0 -3.3,0.5 -4.5,3.4 -0.5,1.4 -2.3,2.2 -3.6,3.4 0.8,1.8 0.1,2.9 -2.6,3.1 0.7,-0.6 1.2,-1.1 1.8,-1.6 -1.2,-1.4 -3.2,2.5 -4.2,-0.9 -0.2,0.9 -0.4,1.8 -0.7,3.1 -0.6,0.8 -3.1,0.3 -3.2,2.9 -3.3,-0.9 -6.3,-0.3 -8.5,3.1 -0.1,-0.2 -0.2,-0.5 -0.3,-0.7 0.2,0.6 0.4,1.2 0.8,2.3 -1.6,-0.3 -2.9,-0.6 -4,-0.8 -0.8,0.7 -1.9,1.3 -2.6,2.2 -0.7,0.9 -1.1,2.1 -1.6,3.2 0,0.1 0.2,0.6 0.2,0.6 -2.6,1.2 -2.4,6.1 -6.7,5.2 -0.3,0 -0.7,0.6 -1.1,0.9 -0.5,0.4 -1,0.7 -1.5,1.1 -0.3,-0.6 -0.7,-1.2 -1,-1.8 -0.1,-0.3 -0.2,-0.7 -0.4,-1.4 -2.4,2.5 -4.5,4.7 -6.7,7 -0.1,0 -0.2,-0.1 -0.4,-0.2 0.3,-0.8 0.6,-1.6 1,-2.5 -3.1,0.3 -5.7,1.3 -7.7,3.6 -0.7,0.8 -1.9,1.2 -2.9,1.8 l -0.6,-0.8 c 0.9,-0.9 1.9,-1.8 2.7,-2.9 0.6,-0.7 0.8,-1.7 1.2,-2.5 0.3,-0.6 0.6,-1.2 1.1,-1.7 1.4,-1.9 2.9,-3.7 4.3,-5.6 -0.3,-0.2 -0.6,-0.4 -0.8,-0.7 -3.2,2.8 -5.3,6.7 -8.3,9.7 -0.2,0 -0.3,-0.2 -0.5,-0.3 0.2,-0.6 0.4,-1.3 0.7,-1.7 1.7,-2.2 3.2,-4.7 5.2,-6.6 2.3,-2.1 2.3,-5.3 4.3,-7.5 2,-2.2 4.3,-4.2 5.9,-6.6 3.2,-5 5.7,-10.5 9.2,-15.4 1.9,-2.7 2.6,-5.9 4.2,-8.6 0.2,0.1 0.5,0.2 0.7,0.3 -0.6,1.5 -1.1,3.1 -1.7,4.6 0.2,0.1 0.4,0.3 0.5,0.4 0.4,-0.4 1,-0.6 1.2,-1.1 2.6,-6.5 5.1,-13 7.6,-19.6 0,0 -0.1,-0.2 -0.3,-0.6 -0.7,1.9 -1.5,3.5 -3.8,3.2 -0.1,-3.5 1.3,-6.4 3.2,-6.2 -0.3,1 -0.7,2 -1.1,3.3 5,-2.7 4.3,-8 6.6,-11.8 q -2.4,-0.5 -3.2,2.3 c -0.6,0 -1.1,-0.2 -1.3,-0.2 0.4,-1.6 0.8,-3 1.2,-4.5 1.1,0.2 2.1,0.5 3.3,0.7 -0.2,-4.5 2.3,-8 3.4,-11.9 0.5,-1.9 0.8,-3.8 2.2,-5.3 -1.2,-1 0,-1.9 0.3,-2.7 0.3,-0.6 0.8,-1.1 1,-1.7 0.4,-1 0.7,-2 1.1,-3 0.6,-2 2.8,-3.5 1.7,-6 0,0 0.6,-0.5 0.7,-1.3 -0.7,0.2 -1.4,0.2 -1.9,0.6 -0.6,0.5 -1.1,1.2 -1.8,2.1 -0.4,-2.7 0.7,-3.7 2.9,-3.8 1,0 2.2,-0.9 2.7,-1.7 0.8,-1.4 0.9,-3 1.4,-4.7 -0.7,0.1 -1.1,0.2 -1.8,0.3 0.9,-2.1 1.4,-4.2 2.6,-5.8 1.2,-1.5 1.3,-2.9 0.4,-4.2 -1,-1.5 -0.2,-3 -0.3,-4.3 1.3,-0.3 2.5,-0.5 3.7,-0.7 -0.3,-1.2 -0.6,-2.4 -0.9,-3.8 -0.9,1.1 -1.6,2 -2.2,2.8 -0.2,0 -0.4,-0.2 -0.6,-0.3 1,-3.3 1.9,-6.6 2.9,-9.8 0,-0.2 0.5,-0.3 0.8,-0.5 0.2,0.3 0.4,0.7 0.5,1 0,0.5 0,1.1 0.4,1.7 0.9,-1.6 2.1,-3.1 2.7,-4.8 1.2,-3.5 2.2,-7.2 3.2,-10.8 0.6,-2.3 1.7,-4.8 1.4,-6.9 -0.4,-2.2 -0.2,-3.6 1.4,-5 0.1,-0.1 0,-0.5 0,-0.8 0,-1.4 -0.6,-2.5 1,-4.1 1.6,-1.6 2.7,-14.9 3.4,-17.5 0.2,-0.6 0.3,-1.2 0.5,-1.8 0,-0.1 0.3,-0.2 0.3,-0.3 0.8,-2.6 1.7,-5.3 2.3,-7.9 0.4,-1.5 0.3,-3.1 0.4,-4.6 0,-1 0,-2 -1.4,-1.9 v 0 z M 702.2,117.8 c -4.3,-0.6 -8.1,0 -11.7,1.1 -9.7,2.7 -19.4,5.5 -29.1,8.4 -5.9,1.8 -11.7,3.7 -17.5,5.5 -0.9,0.3 -1.8,0.5 -2.8,0.7 1.4,2.6 4,3 6.1,4.2 0.7,0.4 1.4,1.1 1.7,1.9 2.3,5.4 0.7,11.1 1.6,16.7 1.8,-0.6 2.9,-2.2 5.4,-2.1 3.8,0.2 7.7,-0.9 11.5,-1.4 0.6,0 1.4,0.4 2,0.7 2.3,1.2 4.6,2.6 7,3.6 0.7,0.3 1.8,-0.5 2.7,-0.7 -0.9,-1.6 0.7,-1.2 1.3,-1.5 4,-1.9 8,-3.7 12,-5.5 2.1,-0.9 4.2,-1.6 6.3,-2.5 1.2,-0.5 2.4,-1.1 3.5,-1.8 1,-0.6 1.8,-1.5 2.8,-2.1 1,-0.5 1.3,-1 1.3,-2.2 0,-3.5 0.4,-7 0.5,-10.5 0,-1.8 0,-3.6 -0.4,-5.4 -0.1,-0.7 -1.4,-1.6 -2,-1.5 -2.8,0.4 -3.9,-1.3 -5.3,-3.2 1,-0.8 1.9,-1.5 3.1,-2.4 z M 598,206 c -5.9,-0.6 -8.9,-3.3 -12.4,-6.7 -3.6,-3.5 -5.8,-8.3 -8.8,-12.9 0,2.6 3.6,1.1 3.6,3.9 -0.2,0.2 -0.9,0.8 -1.1,1.5 -1.7,4.6 -5.5,8.8 -3.5,14.3 0,0.2 0,0.4 -0.1,0.6 -0.5,1.8 -0.9,3.6 -1.4,5.4 -0.7,2.4 1.1,5.5 -1.9,7.3 -0.1,0 0,0.4 -0.1,0.6 -0.4,2.9 -0.7,5.8 -1.1,8.8 -0.7,5.5 -1.5,11 -2.3,16.6 -0.3,2 -0.7,4 -1,5.9 1,-0.9 1.5,-2 2.2,-3.1 1.1,-1.8 2.1,-3.7 3.5,-5.3 2.9,-3.4 3.3,-7 6.3,-10.2 0.2,-0.2 0.5,-0.6 0.5,-0.9 -0.5,-1.9 1,-2.6 2.1,-3.4 0.4,-0.3 1.2,-0.4 1.3,-0.8 0.5,-2.2 2.2,-3.6 3.6,-5.2 0.8,-0.9 1.4,-1.9 2,-2.9 3.7,-5.8 4.9,-7.5 8.7,-13.7 z m 83.5,-39.8 c -0.5,2 -1.2,3.7 -1.4,5.5 -0.7,6.2 -2.8,12 -6.2,17.2 -0.4,0.6 -1.4,1 -2.2,1.1 -3.9,0.2 -7.4,1.6 -11,3.1 1.6,0.9 3,1.8 4.4,2.5 2.3,1.2 4.7,2.3 7.2,3.3 1.9,0.7 4,1.1 5.9,1.8 2.2,0.7 4.4,1.6 6.6,2.3 0.5,0.2 1.2,0 1.6,-0.2 2.3,-2.1 4.6,-4.2 6.8,-6.3 0.3,-0.3 0.7,-0.9 0.7,-1.3 -0.4,-2 1.1,-2.5 2.4,-3.1 0.6,-0.3 1.3,-0.5 1.7,-0.9 2.6,-2.4 5.1,-4.9 7.6,-7.4 0.9,-0.8 1.6,-1.8 2.7,-3 -5.6,-0.7 -10.6,-1.5 -15.7,-2.1 -2.5,-0.3 -4.3,-1 -5.1,-3.7 -1,-3.4 -2.8,-6.3 -6,-8.8 z M 577.8,262 c 0.1,0.2 0.2,0.3 0.4,0.5 3.9,-1.7 16.4,-13.3 16.5,-16.1 -5.6,5.2 -11.2,10.4 -16.9,15.6 z m 132.4,136.6 c -1,1.9 -1.9,3.7 -2.9,5.6 0.1,0.2 0.3,0.5 0.4,0.7 1.3,-2.5 2.2,-0.7 2.5,0 0.6,1.1 0.8,2.5 1.1,3.8 0.7,-1 1.5,-2.2 1.2,-2.9 -0.9,-2 -1.1,-3.7 -0.1,-5.7 0.3,-0.6 0,-1.6 0,-2.6 -1.3,0.1 -2.3,0.2 -3.8,0.4 0.8,0.4 1.1,0.6 1.5,0.7 z m 3.9,-23.3 c 3,-0.5 6.1,-1.1 9.2,-1.6 0,-0.2 0,-0.5 0,-0.7 -0.7,-0.3 -1.4,-0.7 -2.1,-0.8 -0.8,0 -1.6,0.3 -2.4,0.5 -0.1,-0.1 -0.2,-0.3 -0.4,-0.4 0.7,-0.6 1.3,-1.1 1.9,-1.6 -3.2,-0.3 -6.1,0 -6.4,4.6 z m -182.2,7.1 c 0,1.1 -0.1,1.9 -0.2,2.7 0.8,-0.5 2.1,-0.7 2.3,-1.4 0.8,-2.2 1.4,-4.5 1.9,-6.7 0,-0.3 -0.4,-0.8 -0.8,-1.3 -1.5,2.4 -2.8,4.4 -4.1,6.5 0.4,0.1 0.7,0.2 0.8,0.3 z m 93.5,77.8 c -0.4,-0.8 -0.8,-1.6 -1.3,-2.3 -0.2,-0.3 -0.5,-0.5 -0.9,-0.6 -0.7,-0.3 -1.4,-0.4 -2,-0.6 -0.3,0.7 -0.7,1.6 -1.1,2.6 1.4,1.5 3.7,1.8 5.3,0.9 z m 5.1,6.8 c 0,-0.1 0.1,-0.3 0.2,-0.4 -2.4,-1.4 -4.9,-2.8 -7.6,-4.4 -0.2,0.1 -0.7,0.5 -1.6,1.1 3.3,1.4 6.1,2.6 9,3.7 z M 614,400.9 c -2.1,0.5 -3.8,1 -5.6,1.4 0,2 1.4,1.7 2.6,1.2 1.2,-0.5 3.2,-0.3 3,-2.7 z m 99.6,40.5 c -0.2,-0.2 -0.3,-0.4 -0.5,-0.6 -0.5,0.4 -1.3,0.9 -1.3,1.3 0.3,1.7 0.8,3.3 1.2,4.9 0.2,0 0.4,0 0.6,0 z m 34.6,-75.1 H 742 c 1.1,1.4 4.5,1.6 6.2,0 z m -142,75.2 c 0,-0.2 0.1,-0.5 0.2,-0.7 -2.4,-0.9 -4.9,-1.9 -7.3,-2.8 -0.1,0.3 -0.2,0.6 -0.3,0.9 2.5,0.9 5,1.8 7.5,2.7 z m 64.3,-31.1 c -0.2,0 -0.4,0 -0.6,0 -0.7,0.9 -1.4,1.9 -2.1,2.8 1,0 2,-0.2 2.7,-0.8 0.3,-0.3 0,-1.3 0,-2 z m -195.7,15.3 c -1,0.8 -2.1,1.5 -3.4,2.5 3.3,1.6 2.9,-1 3.4,-2.5 z"
         id="path6" />
      <g
         id="g12"
         style="stroke-width:6.27893">
        <path
           class="cls-1"
           d="m 197.5,224.9 c -3.9,-1.6 -6.9,-3 -7.5,-7.2 -0.2,-1.6 -1.1,-3.3 -2.1,-4.6 -1.7,-2.2 -2.6,-4.5 -2.6,-7.2 0,-0.4 -0.2,-0.8 -0.3,-1.2 -0.2,-0.1 -0.4,-0.3 -0.5,-0.2 -3,0.8 -6,1.7 -9.1,2.4 -1.6,0.3 -3.3,0.6 -4.9,0.4 -7.5,-1 -14.1,-4.2 -19.9,-8.8 -6.7,-5.3 -13.1,-10.9 -19.7,-16.4 -1.4,-1.2 -1.9,-2.7 -0.6,-4.3 2.7,0.4 2.8,0.2 1.8,-2.4 -0.5,-1.3 -0.9,-2.7 -1.2,-3.5 4.1,-1.4 8.1,-2.6 12,-4.1 12.8,-5.2 25.8,-9.6 39.3,-12.6 8,-1.7 16.1,-3.1 24.2,-4.5 2,-0.4 4,-0.5 6,-0.6 4.3,-0.3 7.8,-6.5 5.9,-10.7 -1.8,0.3 -3.6,0.9 -5.4,0.9 -7.8,0 -16,0.9 -22.3,-5 -6.6,-6.2 -12.9,-12.7 -19.1,-19.2 -1.5,-1.5 -2.1,-3.9 -2.8,-6 -0.2,-0.6 0.5,-1.6 0.7,-2.4 0,-0.2 0.3,-0.4 0.3,-0.5 -1,-2.5 1,-2.5 2.5,-3.2 2.5,-1.1 4.9,-2.6 7.4,-3.6 4.2,-1.6 8.5,-3.3 12.9,-4.5 3.2,-0.9 6.6,-1 9.9,-1.4 3,-0.4 5.9,-0.6 8.8,-1.2 0.8,-0.2 2.1,-1.1 2.1,-1.8 0.2,-2.6 0.2,-5.3 0,-8 0,-0.9 -1.1,-1.7 -1.8,-2.4 -2.8,-2.5 -5.8,-4.8 -8.6,-7.2 -0.8,-0.7 -1.3,-1.6 -1.8,-2.5 -1.7,-3 -1.2,-5.6 0.3,-8.8 1.6,-3.4 4.1,-6.1 6,-9.2 1.7,-2.8 4.6,-3.6 7.6,-4.1 5.4,-0.9 10.7,-2.1 15.8,-3.2 0.7,-3.5 4.5,-5.3 7.4,-4 0.4,0.2 1,0.4 1.4,0.3 2.5,-1 4.1,1 6.1,1.6 0.3,0.1 0.5,0.7 0.8,1.2 -0.7,0.4 -1.3,0.7 -2.1,1.2 0.3,0.5 0.5,1.1 0.9,1.4 4.8,3.8 9.5,7.7 15.7,9.8 4.1,1.4 7.7,4.2 11.5,6.5 0.6,0.4 1.2,1.8 0.9,2.5 -0.5,1.4 -0.4,2.6 -0.4,4 0,2.7 -0.7,5.5 -1.1,8.4 2.7,-0.4 5.7,-1 8.7,-1.4 1.2,-0.2 2.4,-0.2 3.5,-0.4 1.9,-0.4 3.8,-1 5.7,-1.6 1.1,-0.3 2.3,-1.2 3.3,-1 2.5,0.6 3.8,-0.5 4.6,-2.6 2.5,1 4.9,1.9 7.2,3 0.7,0.3 1.2,1 1.6,1.7 1.8,3.3 3.9,6.2 7.3,8.2 5.7,3.4 11.1,7.1 16.6,10.7 1.8,1.2 2.8,2.6 2.8,5 -0.1,4.7 0,4.8 -2.5,8.7 -1,1.5 -1.7,3.2 -3,4.4 -1.9,1.8 -4,3.8 -6.4,4.6 -6.2,2.2 -12.5,3.8 -19.2,4.4 -4.7,0.4 -9.3,1.7 -13.9,2.7 -5.2,1.1 -10.3,2.4 -15.4,3.7 -2.3,0.6 -4.8,4.3 -4.5,6.6 0.3,2 2,2.5 3.7,2.7 4.3,0.6 8.6,0.4 12.8,-1 2.8,-0.9 5.8,-1.2 8.8,-1.5 4.5,-0.4 9,-0.4 13.4,-1 2.8,-0.3 5.5,-1.4 8.3,-1.9 3.4,-0.6 6.9,-0.9 10.3,-1.3 0.7,0 1.5,0.6 2.3,0.8 0.8,0.2 1.7,0.4 2.6,0.5 0,-0.2 0.2,-0.4 0.3,-0.6 -0.8,-0.9 -1.6,-1.8 -2.7,-3.2 1.1,0 1.6,0 2.1,0 2.5,0.6 4.9,1.3 7.4,1.8 3.3,0.6 5.9,2.1 7.9,4.9 0.8,1.1 2.4,1.6 3.6,2.3 0.6,0.3 1.3,0.5 1.8,0.9 4.8,3.9 10.1,7.4 14.3,11.9 3.6,3.8 6.3,8.6 4.8,14.4 -0.4,1.4 -1.4,2.7 -2.2,4.1 0.8,0.5 1.4,0.9 2.3,1.5 -0.6,0.7 -1.1,1.3 -1.5,1.9 -0.5,0.7 -1.1,1.5 -1.1,2.3 0,2.5 -1.6,3.5 -3.5,4.4 -4.8,2.2 -9.6,2.5 -14.5,0.4 -1.6,-0.7 -3.1,-0.9 -4.6,0.5 -0.4,0.3 -1.1,0.5 -1.7,0.4 -5.8,-1.1 -11.8,-1.6 -17.4,-4.1 -2.2,-1 -5.1,-0.7 -7.7,-0.8 -3,-0.1 -5.9,0 -9.2,0 0.9,0.7 1.7,1.6 2.7,2.1 2,0.9 3.7,1.9 4.3,4.2 0,0 0,0.1 0.1,0.2 2.8,2.5 2.9,5.3 0.9,8.3 -0.4,0.6 -0.7,1.4 -1.2,1.8 -2.4,1.6 -4.9,3.1 -7.4,4.7 -1.9,1.2 -3.7,2.8 -5.8,3.8 -3.2,1.5 -6.5,2.5 -9.1,3.4 1.9,-0.1 4.8,-0.3 7.6,-0.4 0.6,0 1.5,-0.2 1.7,0 2.1,3.1 5.7,1.6 8.5,2.7 1.8,0.8 3.9,0.9 5.9,1.5 0.3,0 0.5,0.5 0.7,0.8 1.6,2.7 3.2,5.5 4.9,8.2 0.2,0.4 0.8,0.9 1.1,0.9 1.9,-0.3 2,1 2.4,2.2 0.5,1.3 1.2,2.5 1.9,3.8 0.8,1.4 2,2.7 2.4,4.2 0.8,3 1.4,6.2 1.7,9.3 0,0.9 -1.2,1.8 -1.7,2.8 -2.3,4.8 -6.9,4.1 -11.1,4.7 -3.4,0.5 -6.7,1.3 -10.6,2.1 1,0.8 1.5,1.2 2.2,1.8 -0.4,0.3 -0.6,0.6 -0.9,0.6 -4.4,0.6 -8.9,1.3 -13.3,1.7 -2.7,0.2 -5.4,-0.2 -8,0 -2.6,0.3 -5.2,1.3 -7.8,1.9 -0.7,0.2 -1.4,0.3 -2.3,0.4 0.2,3.7 0.3,7.5 0.5,11.5 0.4,-0.2 0.9,-0.2 1.2,-0.5 1.7,-1.8 3.7,-2.7 6.3,-2.8 1.7,0 3.7,-0.6 4.7,-2.5 0.7,-1.2 1.6,-0.9 2.7,-0.3 1.2,0.6 2.6,0.8 3.9,1.1 3.3,0.8 6.6,-0.9 10.1,0.2 2.6,0.9 5.7,0 8.3,0.8 3,0.9 5.9,2.6 8.6,4.2 2.4,1.4 4.5,3.1 6.8,4.6 0.3,0.2 1,0 1,0 1.4,1.1 2.6,1.9 3.7,2.9 0.8,0.7 1.8,1.6 1.9,2.5 0.1,1.6 0.8,2.5 2.1,3.1 2.7,1.3 2.3,4 2.9,6.2 0.2,0.6 -1.1,1.7 -1.9,2.3 -1.1,0.8 -1.9,1.6 -1.4,3.2 0.1,0.5 0.1,1.2 -0.1,1.5 -2.9,3.1 -4.3,7.3 -8.6,9.5 -5.4,2.8 -11.2,4.1 -16.9,5.8 -2.3,0.7 -5.1,-0.2 -7.6,-0.4 -2.4,-0.2 -4.8,-0.6 -7.2,-0.8 -0.4,0 -0.8,0.2 -1.1,0 -5.9,-2 -11.1,1.3 -16.6,2.3 -1.1,0.2 -2.3,0.5 -3.4,0.7 -0.2,4.1 -0.5,8.3 -0.7,12 3,-0.6 5.8,-1.2 8.7,-1.8 3.5,-0.8 7,-1.8 10.5,-2.3 2.5,-0.4 5,-0.3 7.5,0 4.3,0.5 8.5,1.3 12.6,-0.7 0.5,-0.2 1,-0.5 1.5,-0.4 3.4,0.8 7.1,0.7 9.8,3.3 0.5,0.5 1.2,1 1.5,1.6 2.7,4.5 6.5,8 10.6,11.4 3,2.5 5.5,5.8 7.8,9 0.8,1 0.7,3.1 0.3,4.4 -1.1,3.5 -2.6,6.8 -4,10.1 -1.2,2.8 -3,4.7 -6.4,5 -3.5,0.4 -6.8,1.8 -10.3,2.2 -6.1,0.8 -12.2,1.3 -18.3,1.8 -0.4,0 -0.9,0.1 -1.3,0 -4.4,-1.6 -8.8,-0.9 -13.3,-0.5 -0.2,0 -0.5,0.1 -0.7,0 -4.1,-1.8 -7.3,1.5 -11,2 -1.3,0.2 -2.5,1 -3.8,1.4 -0.9,0.3 -1.8,0.4 -3,0.6 0,0.1 -0.2,0.5 -0.2,1 0.4,7.8 -1.6,15.2 -2.9,22.7 -0.4,2.2 0.4,4.5 0.3,6.7 0,2.4 -0.5,4.8 -0.8,7.5 2.8,0.3 6,0.6 9.1,0.9 4.9,0.6 9.8,1.2 14.7,1.8 0.6,0 1.3,-0.2 1.9,-0.3 0.7,0 1.4,-0.2 2.2,-0.1 0.4,0 0.9,0.4 1.2,0.4 3,-0.4 5.9,0.3 8.8,1 2.2,0.5 4.6,-0.1 6.8,0 1.5,0 2.9,0.3 4.4,0.5 0.5,0 1,0.4 1.5,0.4 2.7,-0.4 5.2,0.4 7.8,0.7 1.6,0.2 3.5,-0.8 5.3,0 2.1,1 4.2,1.9 6.3,2.7 0.6,0.2 1.3,0 1.9,0.1 2.7,0.2 5.5,0.2 8.2,0.5 1.6,0.2 3.2,0.7 4.9,0.8 3.5,0.3 6.6,1.9 9.9,2.5 4.7,0.8 9,2.8 13.6,3.9 4.5,1 9,2.5 13.4,3.9 1.4,0.4 3,1.7 4,1.3 2.6,-1 4.4,1.8 6.9,0.9 0.5,-0.2 1.2,-0.1 1.8,0 2.6,0.9 5.1,1.9 8.2,3.1 -1.2,0.3 -1.8,0.7 -2.5,0.7 -2.5,0.1 -4.9,0.1 -7.4,0.2 -1.4,0 -2.3,1.3 -2.2,2.8 0.1,1.5 0,3.1 -0.2,5.4 1.2,0.7 3.2,1.8 5.5,3.1 -3.9,0 -7.8,-0.3 -11.2,1.9 -1.6,-0.9 -3.2,-1.8 -4.6,0.6 -0.3,0.6 -2.1,0.6 -3.1,0.5 -3.2,-0.5 -4.5,0 -6.4,2.6 -0.3,0.4 -1.3,0.3 -2,0.5 -0.7,0.2 -1.8,0.1 -2.1,0.6 -3.2,4.7 -8,6.6 -13.4,8.1 0.2,1.1 0.3,2.3 0.6,3.7 -0.9,0 -2.3,-0.3 -3.4,0 -1,0.3 -1.7,1.4 -2.8,2.4 -0.4,-0.7 -0.9,-1.5 -1.4,-2.3 -2.5,2.2 -2.7,3.4 -1.2,6.4 -3.9,3.7 -9,2.5 -14.2,3.3 1,0.8 1.6,1.3 2.2,1.7 -2.9,1.1 -4.2,0.8 -4.9,-1.2 -0.6,0.7 -1.2,1.3 -1.6,1.9 -1,1.3 -2.1,1.9 -3.7,1 -0.1,0 -0.3,-0.2 -0.4,-0.2 -2.2,1.8 -5.7,-0.8 -7.7,2.3 -0.8,1.2 -2.9,0.3 -3.7,-1.4 -1.1,0.1 -2.2,0.3 -3.6,0.4 -0.1,0.2 -0.5,0.8 -0.5,0.9 -2.6,0.2 -4.8,0.4 -7,0.5 -0.7,0 -1.5,0 -2.2,0 -3.7,-0.6 -7.4,-1.4 -11.1,-2 -1.7,-0.3 -3.2,0 -3.6,2.1 -1,-0.6 -2.9,0.4 -2.6,-1.9 -1.1,0 -2.3,-0.2 -3.8,-0.3 -0.5,-1.9 -2.8,-1.4 -4.6,-1.8 -2.4,-0.5 -4.8,-0.8 -7.2,-1.1 -0.2,0 -0.4,-0.2 -0.6,-0.3 -1.9,-1.1 -3.8,-2.2 -6,-2.9 -0.1,-0.6 -0.2,-1.3 -0.4,-1.9 -1,0.4 -2,0.7 -3,1.1 -2.1,-1.3 -4.5,-2.8 -7,-4.3 -0.2,0.3 -0.5,0.8 -0.9,1.4 -1.1,-0.4 -2.3,-0.6 -3.3,-1.1 -0.8,-0.4 -1.7,-1 -2,-1.8 -1.8,-3.8 -5,-2.7 -8,-2.5 -0.1,0 -0.3,0 -0.7,-0.2 0.4,-0.5 0.7,-0.9 1.1,-1.4 -0.9,-0.3 -1.7,-0.7 -2.5,-1 -2.2,-0.6 -4.5,-1.1 -6.7,-1.7 -0.6,-0.2 -1.4,-0.5 -1.7,-1 -2,-2.8 -5,-2.1 -7.7,-2.5 -0.2,0 -0.5,0 -0.7,0 -3.7,-2.3 -8.1,-1.9 -12.1,-2.9 -1.1,-0.3 -2.1,-1.2 -3,-1.8 h -8.9 c 0,-0.2 0,-0.3 -0.1,-0.5 0.8,-0.4 1.6,-0.8 2.6,-1.3 -5.9,-0.1 -11.3,-0.8 -16.5,-2.9 -0.3,-0.1 -0.8,-0.2 -1.1,0 -3.7,1.1 -7.4,0.6 -11.1,-0.2 -0.7,-0.1 -1.5,-0.1 -2.4,-0.2 0.1,-0.6 0.3,-1.2 0.4,-1.7 -0.2,-0.2 -0.4,-0.3 -0.6,-0.5 -0.4,0.9 -0.9,1.9 -1.3,2.8 -0.2,-0.1 -0.4,-0.3 -0.7,-0.4 -0.6,-2.9 -2.9,-2.3 -4.9,-2.7 v 2.1 c -1.1,0 -2.2,0 -3.1,-0.3 -0.4,-0.1 -0.8,-0.9 -0.9,-1.5 -0.5,-2.3 -2.2,-3.3 -4.5,-2.7 -0.8,0.2 -1.8,0 -2.6,-0.2 -0.1,0 -0.3,-0.2 -0.4,-0.2 -2.9,0 -5.7,0 -8.8,0 0,0.7 0.1,1.3 0.3,2.7 -1.7,-0.8 -3,-1.4 -4.7,-2.2 -0.6,0.7 -1.7,2.3 -4,1 1.9,-0.6 2.4,-1.5 1.3,-3.1 -2.4,0.1 -4.9,-0.4 -6.8,2.1 -1,1.3 -2.3,1.6 -3.9,0.3 -0.7,-0.5 -2,-0.2 -3,-0.4 -1.1,-0.2 -2.1,-0.6 -3.2,-0.7 -2.8,-0.2 -5.6,-0.4 -8.4,-0.4 -0.6,0 -1.3,0.6 -2,0.9 -0.7,-0.5 -1.1,-2.4 -2.7,-0.7 1.4,2.5 -1.3,2.5 -2.1,3.9 -0.6,-0.8 -1.1,-1.4 -1.7,-2.2 -0.5,0.6 -0.8,1.1 -1.3,1.7 -1.3,-0.9 -2.5,-1.7 -3.8,-2.6 -2.1,2.8 -5.6,1 -8.5,2 -2.5,0.9 -5.8,1.1 -7.3,2.9 -1.7,2 -4,3.2 -5.6,5.2 -2.9,3.5 -6.5,3.7 -10.4,1.5 -1.8,-1 -3.9,-1.4 -5.9,-1.9 -2.1,-0.6 -4.4,-0.6 -6.3,-1.5 -1.4,-0.6 -2.3,-2.1 -3.4,-3.3 -1.1,-1.1 -2.1,-2.3 -3.1,-3.5 -0.4,-0.4 -0.7,-0.9 -0.9,-1.4 -1.6,-4.9 -3.2,-9.8 -4.6,-14.7 -0.9,-3.2 -1.2,-6.6 -1.8,-9.8 -0.3,-1.9 -0.6,-3.8 -1.1,-5.6 -0.8,-2.6 -1.5,-5 0.9,-7.2 0.5,-0.5 0.8,-1.3 1,-2 0.6,-1.6 1.4,-2.6 3.3,-1.7 0.3,0.1 1,0.1 1,0 1,-2.2 3.5,-3.5 3.7,-6.2 0,-1.4 0.5,-2.2 2.1,-1.8 0.4,0.1 1.1,-0.5 1.6,-0.8 0.6,-0.3 1.4,-1 1.8,-0.8 6.7,2.3 13.1,0.8 19.3,-1.8 3.4,-1.4 6.2,-3.6 8.6,-6.5 3.9,-4.9 8.7,-9.1 11.2,-15 1.5,-3.6 1.2,-6.9 0,-10.6 -1.8,-5.6 -5.5,-8.5 -10.7,-10.8 -6.6,-3 -11.8,-7.6 -15.5,-14.3 -3,-5.5 -3.7,-10.8 -3.1,-16.7 0.4,-4.1 -0.4,-8.3 -0.2,-12.5 0.2,-5.7 0.7,-11.3 1,-17 0.2,-3.1 -0.3,-3.4 -3.1,-2.2 -1.5,0.7 -3,1.4 -4.4,2.2 -4.9,2.7 -10,1.2 -12.6,-3.7 -1.4,-2.7 -2.8,-5.4 -4.5,-8 -5.7,-9 -8,-19.1 -9.3,-29.4 -0.3,-2.1 -0.7,-4.3 -0.7,-6.4 0,-2.8 1.3,-5.3 3.2,-7.4 0.8,-0.8 1.3,-1.9 2,-2.9 2.3,-3.4 4.6,-6.8 7,-10.1 0.3,-0.4 1.1,-0.8 1.5,-0.6 2.4,0.8 3.5,-0.6 4.2,-2.5 0.5,-1.2 0.7,-2.4 1.2,-3.8 2,2 3.8,3.9 5.9,6 0.5,-0.9 1.2,-1.6 1.1,-2.2 0,-1.7 1,-1.9 2.3,-2.3 3.3,-1 6.6,-2.1 9.7,-3.6 7.1,-3.5 14.1,-7.2 21,-11.1 1.4,-0.8 2.5,-2.1 3.4,-3.5 1.1,-1.7 2.5,-2.3 4.4,-2 1.7,0.3 2.7,-0.2 3.3,-1.9 0.6,-1.6 1.9,-1.9 3.5,-1.7 1.5,0.2 3,0.1 4.4,-0.2 2.6,-0.5 4.1,0.1 5.8,2.2 6.1,7.9 12.3,15.8 18.5,23.6 2,2.6 4.3,4.9 6.5,7.4 1.9,2.2 2.5,4.9 2.2,7.7 -0.3,3.7 -0.6,7.5 -1,11.2 -0.5,3.7 -2.6,6.2 -5.7,8.1 -2.3,1.4 -4.5,3.1 -6.8,4.6 -0.4,0.3 -1.2,0.1 -1.9,0.2 -1.7,2.6 -3.5,5.2 -5.1,8 -1.1,1.9 -2.1,3.8 -3.3,6.2 0.2,0.3 0.8,1.1 1.3,2 -2.7,1.9 -4,5.9 -3.3,9.4 0,0.4 -0.3,0.8 -0.4,1.2 -0.3,1.4 -0.3,3 -0.9,4.1 -1.2,2 -1.3,4.1 -1.4,6.3 0,0.5 -0.9,0.8 -1.7,1.5 1.4,2.3 2.8,4.8 4.6,7.1 3.9,5 8.2,9.8 12,14.8 2,2.7 3.4,5.9 5.3,8.7 1.1,1.6 2.3,3.4 3.9,4.5 2.6,1.8 2.8,4.8 4.5,7 0.7,0.9 0.9,2 1.5,2.9 1,1.5 1.1,3 -0.3,4.1 -1.5,1.1 -1.4,2.4 -0.6,3.7 0.8,1.3 0.2,2 -0.4,3.2 -1.8,3.5 -3.2,7.3 -4.8,10.9 -0.4,0.9 -0.5,1.9 -0.9,2.7 -1.5,3.2 -3.3,6.4 -4.7,9.7 -0.7,1.8 -0.8,3.9 -1.2,5.8 0.2,0 0.4,0.2 0.6,0.3 0.7,-1 1.4,-2 2,-3 0.2,0 0.4,0.2 0.7,0.3 -1.5,3.8 -3.1,7.6 -4.4,11.1 1.7,1 2.9,1.8 4.2,2.5 1.7,0.9 3.4,2.1 5.3,2.6 2.3,0.6 4.8,0.8 7.3,1.1 0.2,0 0.5,0 0.6,0.2 1,2.5 3.4,1.7 5.2,1.9 9,0.9 17.9,1.6 26.9,2.4 0.8,0 1.6,0 2.5,0 0.7,0 1.8,0 2.1,0.4 1.2,1.8 3.1,2 4.9,2.3 1.2,0.2 1.5,1.3 2.2,1.9 1.4,1.2 3.5,1.6 5.5,2.4 0.4,-3.4 2.6,-1.6 4.5,-1.9 -1.6,-1 -2.8,-1.7 -4.1,-2.5 0,-0.2 0.1,-0.5 0.2,-0.7 2.6,0.5 5.2,1 7.8,1.5 0.7,0.2 1.3,0.6 2,0.8 4.5,1.3 9,2.7 13.5,3.8 1.8,0.4 3.8,0 5.7,0 0.1,-0.2 0.3,-0.4 0.4,-0.7 -1,-1.3 -1.9,-2.7 -2.9,-4 -0.5,-0.8 -1.4,-1.6 -1.3,-2.4 0,-4.8 -1.9,-9 -4.1,-13.1 -0.3,-0.5 -0.3,-1.3 -0.4,-1.7 -2.2,1.2 -4.5,2.2 -6.6,3.4 -4.1,2.5 -8.7,2.4 -13.2,3.1 -6.9,1 -12.8,-2.4 -19.2,-3.6 -2.6,-0.5 -5.1,-1.2 -7.6,-2.1 -3.5,-1.3 -7.1,-2.5 -9.1,-6.3 -1.2,-2.2 -3.5,-3.8 -4.7,-6 -1.6,-2.9 -2.8,-6.1 -3.9,-9.2 -0.2,-0.6 0.5,-2.1 1.2,-2.5 3.9,-2.2 7.9,-4.2 11.8,-6.4 4.8,-2.7 9.9,-3.8 15.3,-4.7 2.7,-0.4 5.3,-2.1 8,-2.9 4.2,-1.3 8.1,-4 12.8,-3.6 0.2,0 0.5,0 0.7,0 2.5,-2.7 6.4,-2 9.4,-3.6 0.6,-0.3 1.6,0 2.4,0.2 v -8.4 c -4.1,0.6 -7.9,1.1 -11.6,1.7 -1,0.1 -2.1,0.2 -2.8,0.7 -3.2,2.3 -6.5,1.6 -9.9,0.9 -3.5,-0.8 -7.1,-1.3 -10.6,-2.1 -7.1,-1.5 -13.3,-5.1 -19,-9.3 -2.2,-1.6 -3.4,-4.6 -4.8,-7 -1.2,-2 -2.3,-4.1 -3.2,-6.3 -0.3,-0.7 0,-2.3 0.5,-2.6 4.4,-2.6 9,-5 13.5,-7.5 3.4,-1.9 6.9,-3.6 10.1,-5.8 5.8,-4 11.4,-8.2 17,-12.4 0.9,-0.7 1.8,-1.6 2.6,-2.3 -1.8,-1.1 -3.4,-2.3 -5.3,-3.1 -4.1,-1.8 -8.3,-3.4 -12.4,-5 -0.4,-0.2 -0.9,-0.3 -1.3,-0.3 -2.6,0.1 -4.7,-0.3 -5.6,-3.2 -0.2,-0.7 -1.3,-1.1 -2.1,-1.6 -2.5,-1.7 -5,-3.3 -7.5,-4.9 -1,-0.6 -2.1,-1.1 -3.2,-1.6 -0.8,-0.4 -1.6,-0.9 -2.2,-1.2 1.4,-4.1 0,-7.9 0.5,-11.7 7,-1.4 12.8,-6.1 19.5,-8.8 4.8,-1.9 9.6,-3.7 14.4,-5.6 0.7,-0.3 1.2,-1 2.1,-1.7 z M 231,214.7 c 2.7,-0.5 4.9,-0.9 7.1,-1.4 3.6,-0.9 7.2,-1.8 10.9,-2.7 3.2,-0.8 6,-1.9 6.8,-5.6 0,-0.3 0.3,-0.7 0.5,-1 3.7,-5 6.9,-10.3 9.4,-16.1 0.9,-2 0.3,-3.4 -1.9,-3.8 -1.2,-0.2 -2.8,-0.2 -3.9,0.4 -3,1.6 -5.9,3.4 -8.9,5.2 -1.2,0.7 -2.6,1.3 -3.6,2.3 -2.4,2.5 -4.4,5.6 -7.1,7.6 -5.1,3.7 -6.3,9.5 -9.4,15 z m -29.9,-17.4 c 2.8,0 5,-0.2 7.2,0 2.8,0.3 5.7,0.7 8.3,1.6 4.5,1.6 9.9,2.1 12,7.6 2,-0.9 8.6,-8.9 9.8,-11.7 0.4,-1 1.1,-2.3 1.9,-2.6 2.6,-1 1.8,-3.7 3.4,-5.3 -7.1,1.6 -14,3.6 -20.9,5.4 -7,1.7 -14.1,3.1 -21.8,4.8 z m 16.6,74.9 c -1.7,-0.2 -3.6,-1 -5.1,-0.6 -6.6,1.8 -11.3,6.7 -16.6,10.7 -1,0.8 -1.7,2 -2.7,3.2 2.5,0.4 4.3,-0.4 6.2,-1.2 3.9,-1.6 8.3,-2 12.3,-3.5 1.4,-0.5 2.8,-0.9 4.2,-1.5 1.5,-0.6 2.2,-1.6 2,-3.3 -0.2,-1.2 -0.2,-2.3 -0.4,-3.9 z m 45.1,119.6 c -0.3,-0.7 -0.3,-0.9 -0.5,-1.2 -0.3,-0.5 -0.6,-0.9 -0.9,-1.3 0,0.5 -0.3,1.1 -0.1,1.5 1.1,2.1 1.4,4.2 -0.2,6.2 -0.1,0.2 0,0.7 0.2,1.3 0.9,-0.5 2.2,-0.8 2.2,-1.3 0.3,-2.4 0.4,-4.9 0.5,-7.9 -0.5,1.1 -0.8,1.6 -1.2,2.6 z m 134.6,44 c 0.9,0.6 1.2,0.8 1.5,1 2.6,1.5 2.7,1.5 2.9,-1.5 0,-0.3 0.4,-0.7 0.8,-1.4 -1.9,0.7 -3.3,1.2 -5.2,2 z"
           id="path8" />
        <path
           class="cls-1"
           d="m 69.3,179.4 c -1.5,-0.3 -2.2,-1.2 -1.8,-2.8 1,-4 2,-8 3.1,-12.1 0.8,-3.2 1.9,-6.3 2.6,-9.5 0.5,-2.3 -2.4,-4.4 -4.6,-3.5 -0.5,0.2 -1.1,0.4 -1.6,0.6 -0.6,-1.7 -0.9,-3.3 -1.7,-4.6 -0.9,-1.3 -2.5,-2.1 -3.6,-3.3 -1.7,-1.9 -3.5,-3.8 -4.8,-5.9 -2,-3.2 -3.5,-6.7 -5.4,-10 -3,-5.2 -3.2,-11.4 -6.1,-16.6 -1.6,-2.9 1,-6.3 3.3,-7.7 9.5,-5.9 19.6,-10.6 29.5,-15.7 2.6,-1.3 6,-1.4 9,-2 0.3,0 0.8,0.1 1,0.4 1.6,1.4 3.2,2.9 4.7,4.4 4.5,4.7 8.8,9.6 13.5,14.1 3.9,3.8 8.2,7.1 12.3,10.7 0.5,0.4 1,0.8 1.3,1.2 3.8,6.4 6.3,13.2 6.2,20.6 0,2.2 -1.7,4.4 -2.8,6.5 -0.9,1.8 -1.9,3.5 -3.1,5.2 -0.6,0.9 -1.4,1.7 -2.3,2.3 -4.2,2.8 -8.7,5.3 -12.8,8.2 -2.7,1.9 -5.4,3.3 -8.7,2.9 -3.5,-0.4 -7.1,0 -10.3,-1.7 -1.6,-0.8 -2.9,0 -3.8,1.4 -0.5,0.7 -1.1,1.4 -1.6,2.1 -2.1,-0.5 -3.6,0.2 -3.7,2.8 -0.1,2.4 -1.4,3.5 -3,4.5 -1.3,0.8 -1.2,2 -1.7,3.1 -0.7,1.6 -2,2.9 -3.2,4.4 z"
           id="path10" />
      </g>
      <g
         id="g20"
         style="stroke-width:6.27893">
        <path
           class="cls-1"
           d="m 1094.6,330.7 c -0.5,0.5 -0.8,0.7 -0.9,0.9 -1.8,4.1 -3.6,8.2 -5.5,12.3 -1.8,3.8 -3.7,7.6 -5.5,11.4 -1.1,2.4 -2,5 -3.1,7.4 -0.9,1.8 -0.7,4.2 -3,5.2 -0.2,0 -0.2,0.5 -0.2,0.8 0,3.2 -1.8,5.6 -3.9,7.8 0,0.1 -0.2,0.2 -0.3,0.4 -0.6,2.7 -1.2,5.5 -1.8,8.3 -2.3,0.4 -3.7,4.7 -3.5,6.4 -0.9,1 -1.8,1.6 -2.2,2.5 -1.6,3.3 -2.9,6.7 -4.4,9.9 -1,2.1 -2.2,4.2 -3.6,6.2 -0.5,0.7 -1.7,0.8 -2.8,1.3 0.6,0.5 1.1,1 1.4,1.3 -0.7,1.1 -1.5,2 -1.9,3.1 -1,2.4 -2.1,4.8 -3.6,6.9 -0.4,0.6 0.2,1.9 0.3,2.3 -1.9,1.9 -3.6,3.4 -5.1,5.2 -1.5,1.8 -2.7,4 -4.2,5.8 -0.4,0.5 -1.6,0.4 -2.5,0.6 0,-0.2 -0.1,-0.5 -0.2,-0.7 0.5,-0.2 1.1,-0.4 1.9,-0.6 -0.3,-0.8 -0.5,-1.6 -0.7,-2.1 -1.4,0.6 -2.6,1.1 -3.9,1.6 -0.2,-1.5 -0.4,-2.6 -0.6,-3.7 -0.3,0 -0.6,-0.2 -0.9,-0.3 -2.7,3.4 -5.3,6.9 -8.1,10.4 -1.7,-2.2 -1.9,2.1 -4,1 0.5,1.3 0.8,2.1 1.2,3.4 -0.6,0.1 -1.5,0 -2,0.4 -1.2,0.8 -2.2,1.8 -3.1,2.9 -1,1.1 -1.2,3.4 -3.7,2.4 -0.2,-0.1 -0.9,0.6 -1.3,1 -1.3,1.5 -1.5,4.6 -4.9,3.3 -0.3,-0.1 -1.3,0.6 -1.4,1.1 -0.5,2.1 -2,2.4 -3.8,2.6 -0.5,0 -1.1,0.4 -2,0.3 0.6,-0.8 1.1,-1.6 1.8,-2.5 -0.4,-0.3 -1,-0.8 -1.7,-1.3 -1.6,1.8 -3.5,1.7 -5.6,1.6 -1.3,-0.1 -2.8,0 -2.6,2.1 0,0.6 -0.3,1.2 -0.8,1.8 -0.1,-0.7 -0.2,-1.4 -0.4,-2.3 -4.1,0.9 -7.3,3.2 -10.6,5.6 0.3,-0.5 0.8,-1 0.7,-1.4 0,-0.5 -0.7,-1.4 -0.8,-1.4 -1.8,0.5 -3.4,0.4 -4.7,-1.2 -0.2,-0.2 -0.8,-0.1 -1.7,-0.2 1.5,-0.9 2.7,-1.4 3.5,-2.3 0.4,-0.5 0.4,-1.7 0.1,-2.4 -0.1,-0.3 -1.3,-0.6 -1.9,-0.4 -2.3,0.7 -4.6,1.6 -7.2,2.6 0.4,-0.5 0.5,-0.8 0.7,-0.9 4.7,-2.3 9.4,-4.5 14,-6.8 1.3,-0.7 2.3,-1.8 3.4,-2.8 2.3,-2.2 4.7,-4.3 6.6,-6.8 3.5,-4.8 7,-9.7 10,-14.8 6.3,-10.6 12.4,-21.3 18.4,-32.1 5.9,-10.7 11.6,-21.6 17.2,-32.5 2.1,-4.1 3.5,-8.5 5.2,-12.8 -0.1,-0.1 -0.3,-0.2 -0.4,-0.4 -0.6,0.4 -1.1,0.7 -1.7,1.1 -4.3,3.4 -8.9,2.9 -12.2,-1.4 -4.1,-5.5 -8.2,-10.9 -12.4,-16.3 -2.7,-3.4 -5,-7.1 -8.8,-9.6 -2.9,-1.9 -3.1,-4.6 -1.8,-7.9 0.5,-1.1 0.5,-2.4 0.5,-3.7 0,-3.2 1.2,-5.5 4.2,-7.2 2.6,-1.6 4.7,-4 7,-6.1 1.4,-1.2 2.8,-2.4 4,-3.8 1,-1.2 1.8,-2.6 3,-4.2 0.1,0.8 0.2,1.2 0.3,1.6 0.1,0 0.3,0 0.4,-0.1 3.1,-2.4 6.3,-4.7 9.3,-7.2 1.5,-1.2 2.5,-2.9 3.9,-4.3 1.2,-1.3 2.6,-2.5 3.8,-3.9 1.5,-1.6 2.9,-3.3 4.3,-5 2,-2.4 4.1,-4.8 6,-7.3 0.4,-0.6 0.7,-1.7 0.5,-2.3 -0.9,-2 -2.3,-3.9 -3.2,-5.9 -1.3,-3 -2.4,-6.1 -3.6,-9.2 -0.7,-1.7 -1.5,-3.4 -2.1,-5.2 -1,-2.9 -2.2,-5.8 -2.7,-8.7 -0.6,-4.3 -0.7,-8.7 -0.9,-13 -0.1,-2.7 3.1,-6.2 5.7,-6.7 1.6,-0.3 3.2,-1.2 4.8,-1.8 5.9,-2.1 11.8,-4.1 17.8,-6.1 3.2,-1.1 6.5,-2 9.8,-3 0.4,-0.1 0.9,-0.2 1.2,-0.5 6.8,-5.1 15.2,-7.1 22.8,-12 -0.5,-0.3 -1.1,-0.6 -1.6,-0.9 0,-0.1 0,-0.2 0.1,-0.3 0.7,0.1 1.4,0.2 2.1,0.3 0,-0.2 -0.1,-0.3 -0.2,-0.5 0.7,-0.4 1.4,-1 2.2,-1.1 3.5,-0.6 6.2,-2.5 8.4,-4.8 2.2,0.5 4.3,0.9 6.5,1.4 2.3,-2.8 4.8,0.8 7.2,0 0.5,-0.2 1.8,1.4 2.4,2.4 1.1,1.8 2.5,1.6 3.9,0.7 4.9,-3 8,-7.5 10.6,-12.4 1.1,-2 1.5,-4.4 2.2,-6.6 0.6,-2.1 -0.2,-3.6 -2.4,-4.3 -0.6,-0.2 -1.3,-0.3 -1.6,-0.7 -1.9,-2.1 -4.1,-0.8 -6.2,-0.5 -0.5,0 -0.9,0.8 -1.3,1.3 -0.6,-0.7 -1.1,-1.3 -1.6,-1.9 0,0.2 -0.1,0.4 -0.2,0.6 -1.1,-0.2 -2.3,-0.4 -3.4,-0.5 -0.6,0 -1.4,0 -1.9,0.2 -1,0.6 -1.8,1.7 -2.9,2.2 -1,0.5 -2.3,0.6 -3.6,0.9 -0.1,-0.6 -0.2,-1.2 -0.4,-2 -0.5,0.5 -0.9,0.9 -1.7,1.6 0,-1 0.1,-1.7 0,-2.2 -0.2,-0.6 -0.7,-1.1 -1.1,-1.6 -0.4,0.3 -0.8,0.6 -1.2,0.9 -1.1,0.9 -2.6,1.5 -3.3,2.6 -2,3.5 -5.2,3.9 -8.8,4.3 -1.9,0.2 -3.9,1 -5.6,1.9 -3.8,2 -7.5,4.1 -11.3,6.2 -0.6,0.3 -1,0.8 -1.7,1.4 0.9,0.4 1.6,0.7 2.9,1.2 -1.8,0.7 -3.3,1.2 -4.6,1.8 -1.1,0.5 -2.2,1.2 -3.3,1.7 -0.9,0.5 -1.8,1.2 -2.7,1.3 -2.5,0.5 -5,0.8 -7.6,0.9 -0.9,0 -1.9,-0.7 -2.8,-1.1 -1.8,-0.7 -3.6,-1.7 -5.5,-2.2 -3.5,-0.8 -6.4,-2.2 -8.6,-5.1 -2.3,-3.1 -4.8,-6 -7.3,-8.9 -1,-1.1 -2.4,-1.9 -3.6,-2.9 -0.5,-0.4 -1,-0.6 -1.3,-1.1 -4,-5.4 -5.8,-11.6 -6.8,-18 -0.2,-1.3 0.1,-2.9 0.8,-4 0.4,-0.7 2.2,-1.3 2.9,-0.9 2.9,1.3 5.8,0.2 7.5,-1.3 2.3,-2.1 5,-1.8 7.4,-2.9 3.7,-1.9 7.6,-3.4 11.3,-5.3 0.7,-0.4 1.4,-1.4 1.5,-2.3 1.1,-5.7 2.1,-11.4 3.1,-17.1 0,-0.4 -0.2,-0.8 -0.4,-1.2 -3.1,-5.1 -6.3,-10.2 -9.2,-15.4 -1.7,-3.1 -3.9,-6.4 -4,-9.7 -0.2,-3.8 -2.6,-5 -4.8,-6.7 -0.9,-0.8 -1.5,-1.3 -1,-2.7 0.2,-0.8 -0.7,-1.9 -1.1,-2.9 2,-2 5.8,-1.9 7.3,-5.2 1,0 2.3,-0.2 3.6,-0.3 1.9,-0.2 2.3,-1.1 0.7,-2.7 2.9,0 5.5,-0.2 7.3,-2.4 0.4,-0.5 0.6,-1.2 1,-1.7 0.4,-0.6 0.8,-1.2 1.4,-1.5 3.1,-1.4 4.7,-4.3 6.7,-6.7 0.7,-0.8 1.8,-1.4 2.8,-1.9 1,-0.5 2,-1 3,-1.3 0.9,-0.3 2.3,-0.7 2.8,-0.3 2.1,1.7 3.9,0.6 5.8,0 2,-0.7 2,-0.7 3,1.6 0.5,-2.1 1.5,-1.9 3.1,-1.3 4,1.5 6.4,4.7 9.1,7.7 0.9,1 1.9,2.1 3,3 8.1,6.3 13.6,14.4 17.5,23.7 0.8,2 1.3,4.4 -0.1,6.6 -0.3,0.4 -0.5,1.2 -0.3,1.6 2.8,6.2 -0.5,10.8 -4.1,15.3 -1,1.3 -1.6,2.8 -2.6,4.1 -1.4,1.9 -3,3.7 -4.6,5.5 -0.5,0.6 -1.1,1 -1.7,1.6 0,0.2 0.1,0.4 0.2,0.5 2.9,-0.3 5.7,-0.7 8.6,-1 2.2,-0.2 4.4,-0.3 6.6,-0.7 2,-0.4 4.5,-0.2 5,-3.1 0,-0.4 1.5,-0.8 2.3,-0.8 1.9,0 3.8,0.2 5.7,0 0.8,0 1.5,-1.5 2.3,-1.6 1.4,-0.3 2.9,0 4.4,0 2.7,0 5.5,0.2 8.2,-0.4 4.2,-0.9 8.3,-2.5 12.5,-3.6 3.4,-0.8 6.8,-1.2 10.2,0.6 4,2.1 7.1,5.1 10,8.4 1.4,1.6 3,3.1 4.6,4.5 0.4,0.3 1.2,0.1 1.6,0.1 0.2,0.8 0.2,1.6 0.6,2.2 1.5,2.3 3.2,4.4 4.8,6.7 2.9,4.1 5.4,8.5 8.6,12.4 3.1,3.8 6.9,7.1 10.4,10.7 0.6,0.6 0.7,1.6 1.1,2.4 0.1,0.3 0.3,0.7 0.5,0.9 2.3,2.3 2.7,2.7 0.4,4.7 -2.3,2 -1.1,3.6 -0.5,5.5 1.1,3.7 0.2,6 -3.2,8.4 -1.3,0.9 -2.2,2.4 -3.2,3.7 -2.1,2.8 -4.6,4.5 -8.2,5.1 -6.2,1 -12.3,2.6 -18.4,3.6 -6.1,1 -12.2,1.6 -18.3,2.4 -1.8,0.3 -3.6,1 -5.4,1.4 -3.9,0.8 -7.1,3.9 -11.4,3 -0.1,0 -0.4,0 -0.4,0 -2,3.1 -5.2,1.1 -8.1,2 2.8,2.2 2.9,6.2 6.4,7.7 0.2,0.1 0.5,0.4 0.6,0.6 1.2,2.6 2.3,5.2 3.5,7.8 2.1,4.5 1.4,8.9 0,13.3 -1.3,3.8 -4.8,5.1 -8.3,6 -1.6,0.4 -2.8,1 -3.2,2.6 -1,3.5 -4.6,4.6 -7,6.9 -0.7,0.7 -2.8,-0.1 -4.3,0 -0.8,0 -1.6,0.4 -2.4,0.7 -0.8,0.3 -1.6,0.9 -2.4,1.1 -2.3,0.4 -4.6,0.6 -6.9,1 -0.7,0.1 -1.4,0.7 -2.1,0.9 -3.2,1 -6.5,2 -9.8,2.9 -1.1,0.3 -2,2.3 -3.2,0.6 -4.2,3 -9,4.1 -13.7,5.7 -2.7,1 -5.3,2.2 -8,3.4 -0.3,0.1 -0.7,0.4 -0.8,0.8 -0.7,2.8 -3.2,3 -5.4,3.7 -1.7,0.6 -3.4,1 -5.2,1.5 -2.1,0.6 -3.6,1.7 -4.8,3.8 -1.1,2 -3.8,2.4 -6.2,2.2 -0.7,0 -1.3,-0.2 -2,-0.4 -2.1,-0.9 -3.7,-0.5 -4.8,1.6 -0.2,0.3 -1.2,0.2 -1.8,0.3 0,-0.2 0,-0.4 0,-0.6 -2.8,2.8 -5.5,5.7 -8.5,8.2 -3.2,2.7 -5.3,6 -7.2,9.7 0.4,0.1 0.6,0.3 0.8,0.2 4.8,-1.5 10.1,-1.6 14.3,-4.9 0.6,-0.4 1.5,-0.4 2.3,-0.6 5.2,-2 10.3,-4.1 15.8,-5.4 0.9,-0.2 1.6,-0.9 2.5,-1.3 1.2,-0.5 2.4,-1.2 3.7,-1.4 3.4,-0.6 6.3,-2.2 9.1,-4 0.8,-0.5 2,-0.5 3.6,-0.8 0.5,-1.7 2.3,-1.5 4.5,-1.7 2.5,-0.2 4.9,-1.4 7.3,-2.3 3.4,-1.3 6.8,-2.7 10.2,-4 5.4,-2 10.4,-4.6 15.1,-8 2.3,-1.6 5.7,-1.8 8.5,-2.8 2.6,-0.9 5.2,-1.9 7.8,-2.8 1,-0.3 2,-0.5 3,-0.8 1.2,-0.3 2.4,-0.7 3.6,-1.1 2.2,-0.8 4.4,-2.2 6.7,-2.3 1.9,0 4,1.2 5.9,2 1.6,0.6 3.1,1.4 4.6,2.2 0.4,0.2 1,0.3 1.3,0.7 4,5.4 7.7,10.9 10.1,17.3 1.4,3.7 3.5,7.1 5.1,10.7 0.6,1.3 0.9,2.7 1.4,4.1 0.1,0.4 0.2,0.9 0.5,1.2 2.4,2.6 2.5,6.7 0.3,9.6 -0.5,0.6 -0.6,1.5 -1,2.2 -2,3.6 -4.1,7.2 -6.2,10.7 -1.1,1.8 -7.5,4.2 -9.6,3.8 -5.3,-1.1 -10.2,0.3 -15,2.3 -4,1.7 -7.9,3.6 -12,5.3 -1.5,0.7 -3.4,0.9 -4.7,1.8 -0.8,0.6 -1.4,2.1 -1.3,3.2 0.3,3.9 1,7.9 1.3,11.8 0.2,1.6 0,3.1 -0.1,4.7 0,0.2 -0.2,0.4 -0.2,0.6 -0.5,4 -1.1,8 -1.5,12 -0.1,1.2 0.5,2.5 0.4,3.7 -0.3,2.3 -0.9,4.7 -1.4,7.3 0.1,0.5 0.6,1.4 0.6,2.3 0,2.5 0,5 -0.2,8.1 1.1,0.9 0.8,2.4 -1,3.8 0.4,0.6 0.8,1.1 1.2,1.6 -0.9,0.9 -3.9,0.1 -2.1,2.9 0.1,0.2 -1,1.1 -1.3,1.8 -0.4,0.7 -0.6,1.5 -1,2.4 1,0 1.6,0.1 2.5,0.2 0.2,2.5 0.8,4.9 0.5,7.5 -0.3,2.8 -0.4,6.2 1,8.4 1.3,2 0.8,3.9 1.4,5.7 0.5,1.4 1.7,2.5 2.8,3.6 1,1 2,1.5 3.8,1.3 2.1,-0.2 4.4,1.4 6.6,1.5 1.9,0.2 3.3,3 5.6,0.9 0.6,-0.5 2,-0.2 3.1,-0.3 2.2,-0.2 4.4,-0.4 6.6,-0.6 0,0.2 0.1,0.5 0.2,0.7 -1.4,0.4 -2.7,0.7 -4.1,1.1 0,0.2 0,0.4 0,0.7 2.4,0.3 4.7,0.6 7.9,0.9 -0.9,-1.2 -1.3,-1.8 -1.8,-2.4 1.8,-1.8 4.8,-2.2 5.7,-0.8 -0.9,0.5 -1.7,0.9 -3.1,1.6 3.4,0.4 5.8,-0.6 6.3,-2.2 1.4,-0.4 2.8,-0.8 4.4,-1.3 0.6,1 3.8,-0.1 3.7,2.2 1.7,0 3.3,-0.3 4.9,-0.1 6.2,0.6 10.9,-3.2 11.6,-9.2 0.3,-2.4 1.2,-4.7 1.5,-7.1 0.2,-1.7 0.2,-3.5 -0.2,-5 -0.5,-1.7 -1.3,-3.1 -0.3,-5 0.6,-1.2 0.9,-3 -0.7,-3.7 0.3,-1.7 0.8,-3.4 0.9,-5.1 0,-8.1 0,-16.2 0,-24.3 0,-3.3 -0.6,-6.5 -0.6,-9.8 0,-5.2 0.2,-10.4 0.4,-15.7 0,-1.4 0.3,-2.8 1.1,-4.5 0.9,3.4 1.8,6.8 2.6,10.3 0.1,0 0.2,0 0.4,0 0,-0.5 0,-1 -0.1,-1.5 0,-0.6 -0.3,-1.1 -0.4,-1.7 -0.3,-1.4 -0.6,-2.6 0.5,-4 0.6,-0.7 0.3,-2.1 0.5,-3.8 0.8,2.3 1.5,4.1 2.2,5.9 0.4,0 0.7,-0.1 1.1,-0.2 v -19.7 c 1.6,5.5 0.9,11.5 3.6,16.9 -0.3,-1.8 -0.5,-3.6 -0.8,-5.4 0.2,0 0.3,0 0.5,-0.1 0.7,2.1 1.3,4.1 2,6.2 0.2,0 0.3,0 0.5,0 -0.8,-4.8 -1.7,-9.5 -2.5,-14.3 0.2,0 0.5,-0.1 0.7,-0.2 0.9,3.7 1.7,7.4 2.6,11.1 0.8,-4 -1.8,-7.8 -0.7,-11.9 2.9,1 3.9,3.1 4.5,5.5 1,4.1 1.8,8.2 2.9,12.2 0.9,3.3 2.3,6.6 3.4,9.9 0.6,1.9 1.1,3.8 1.7,5.7 1.3,4 2.6,8.1 3.8,12.1 0.2,0.8 0,1.7 0.3,2.6 0.3,1.2 0.8,2.3 1.1,3.5 1.9,8.5 3.8,17.1 5.8,25.6 1.7,7.2 3.6,14.4 5.3,21.7 1.4,5.9 1.7,12 0.6,18 -0.6,3 -1.4,6.2 -3,8.8 -2.6,4.3 -6,8 -8.9,12.1 -2,2.8 -4,5.6 -5.6,8.7 -1.7,3.2 -4.1,5.3 -7.3,6.8 -9,4.1 -18.6,5.8 -28.4,6.9 -3.6,0.4 -7.2,-0.1 -10.9,0 -6.8,0.2 -13.7,-0.2 -20.3,0.9 -7.6,1.2 -15,-0.6 -22.5,-0.3 -4.4,0.2 -8.4,-1 -12.4,-2.6 -6.6,-2.6 -11.7,-7.1 -16,-12.6 -1.1,-1.4 -2.9,-2.5 -2.9,-4.7 -3.5,-2.1 -4.3,-6 -6.6,-9 -0.2,-0.3 -0.5,-0.6 -0.6,-1 -0.9,-3.3 -2.1,-6.5 -2.5,-9.9 -1,-6.9 -1.7,-13.9 -2.3,-20.8 -0.4,-5.6 -0.6,-11.2 -0.5,-16.8 0.3,-13.7 1,-27.4 1.3,-41 0.2,-6.6 -0.1,-13.3 -0.2,-19.9 0,-0.8 -0.2,-1.6 -0.4,-2.8 z m 108.8,6.6 c 0.1,1.9 -1.2,3.6 0.5,5.1 0.2,0.2 0.3,0.7 0.3,1 0,2.2 -0.1,4.4 -0.1,6.6 0,1.9 1,3.2 2.7,4 -0.2,-3.6 -0.5,-7 -0.4,-10.4 0,-2.8 -0.7,-5.3 -2.9,-6.4 z"
           id="path14" />
        <path
           class="cls-1"
           d="m 906.1,466.8 c 0.3,-0.5 0.7,-1 1,-1.5 -0.6,-0.8 -1,-1.5 -1.5,-2.2 -0.6,-0.8 -1,-1.9 -1.8,-2.2 -3,-1.3 -3.8,-4 -4.7,-6.8 -0.7,-2.2 -1.9,-4.2 -2.9,-6.3 -0.2,-0.3 -0.3,-0.7 -0.3,-1.1 0,-1.6 -0.7,-2.1 -1.8,-2.4 -1,-0.8 -2,-1.5 -2.9,-2.4 -0.9,-0.9 -2.3,-1.8 -2.4,-2.9 -0.3,-2.3 0.1,-4.7 0.1,-7 0,-0.6 -0.3,-1.3 -0.6,-2.3 0.8,0.3 1.8,0.5 2.4,1.1 1.7,1.9 3.2,-0.2 4.7,-0.3 0.2,0 0.6,-1.7 0.5,-2.5 -0.4,-3.2 0.3,-5.9 1.5,-9 1.4,-3.4 1.4,-7.4 1.8,-11.2 0.3,-2.5 0,-5.1 0.3,-7.5 0.2,-1.5 1.3,-2.9 1.9,-4.4 0.2,-0.4 0.4,-0.9 0.2,-1.2 -2.2,-4.5 -0.2,-9.1 -0.5,-13.7 -0.2,-2.6 0.2,-5.2 0,-7.7 -0.3,-3.6 -1,-7.2 -1.5,-10.9 0.3,0 0.6,0 0.9,0 0.2,-0.7 0.5,-1.3 0.4,-2 -0.1,-1.1 -0.7,-2.1 -0.6,-3.2 0,-2.2 0.5,-4.4 0.7,-6.6 0,-0.3 0.1,-0.6 0,-0.9 -2.5,-4.7 -0.3,-9.5 -0.6,-14.3 -0.2,-4.1 0.1,-8.1 0.2,-12.2 0,-8 0,-15.9 0.1,-23.9 0,-0.7 0.6,-1.4 0.9,-2.1 0.6,-1.6 1.5,-3.1 0,-4.8 0,0 0,-0.5 0.1,-0.6 2.1,-2.1 1.4,-4.5 1.1,-7.1 -0.6,-4.3 -0.7,-8.7 -0.8,-13 -0.1,-5 -0.3,-10 0.1,-14.9 0.3,-3.2 0.6,-6.4 0.5,-9.7 -0.4,-16.1 -0.7,-32.1 -0.9,-48.2 0,-3.9 0.9,-7.9 0.9,-11.8 0,-6.9 -0.4,-13.7 -0.8,-20.6 -0.2,-2.9 -3,-5.9 -5.8,-6.8 -0.5,-0.1 -0.9,-0.5 -1.3,-0.8 -2.3,-2.2 -4.6,-4.5 -6.9,-6.7 -2.5,-2.3 -3.3,-5.2 -3.3,-8.5 0,-3.6 0,-7.2 1.2,-10.8 1,-3 1.3,-6.4 1.8,-9.6 0.2,-1.2 0.6,-1.7 1.8,-1.7 1.5,0 2.4,-0.7 2.3,-2.3 -0.1,-1.6 0.8,-2.1 2.2,-2.1 3.5,0 7,0.2 10.4,-0.2 2.4,-0.3 4.7,-1.7 7,-2.7 2.8,-1.2 5.5,-2.5 8.2,-3.8 1.5,-0.7 2.9,-1.4 4.4,-2.2 1.7,-1 3.4,-2 5.2,-3 2.4,-1.3 4.9,-2.4 7.3,-3.8 1.5,-0.9 3,-1.9 4.3,-3.1 0.3,-0.3 0.1,-1.1 0.1,-1.8 1.7,1.2 2.8,0.1 4.1,-0.8 2.3,-1.6 4.7,-3.1 6.9,-4.8 1.7,-1.4 3.1,-3.1 4.7,-4.6 0.5,-0.5 1.3,-1.1 1.9,-1.1 2.1,0 6,-1.8 6.6,-3.8 0.3,-1 -0.3,-2.2 -0.5,-3.4 1.6,-0.3 3.3,-0.4 5,0.9 1.4,1.1 3.4,-0.2 4.3,-2.5 -0.8,-0.2 -1.6,-0.4 -2.5,-0.7 0.4,-1.1 0.8,-2 1.1,-2.8 1.3,1 2.7,2.1 4,3.1 0,0.4 0,1.1 0.4,1.5 2.9,3.3 5.9,6.5 8.9,9.7 0.2,0.3 0.6,0.6 0.9,0.6 7.8,0.9 10.5,8 14.9,12.8 2.6,2.8 4,6.6 6,9.9 0.5,0.8 1.1,1.6 1.8,2.3 5.4,5.6 8.5,12.3 10,19.9 0.6,3.3 -0.1,6.3 -2.7,8.6 -3.6,3.2 -5.7,7.4 -7.4,11.8 -1.3,3.3 -2.4,6.6 -3.6,9.9 -0.6,1.5 -1.3,2.9 -2.1,4.7 -0.3,-1.1 -0.3,-1.9 -0.6,-2.5 -0.9,-1.9 -1.9,-2 -3.1,-0.3 -4.7,7.3 -9.4,14.6 -14.2,21.9 -1.2,1.8 -2.5,3.4 -3.8,5.2 -0.9,1.3 -2,2.6 -2.7,4.1 -1.7,3.9 -4.7,7 -7.1,10.4 -1.1,1.6 -1.6,4.1 -2.2,6.2 -0.1,0.4 1.1,1.5 1.9,1.9 6.9,3.4 13.1,7.9 18.3,13.5 4.2,4.4 8.1,9 11.7,13.8 4.4,5.9 8.1,12.3 10.6,19.4 2.1,6 2.9,12.1 1.5,18.3 -0.6,2.7 -2.2,5.1 -3.3,7.6 -0.4,0.9 -0.7,1.8 -1.1,2.7 -2.4,4.6 -4.7,9.2 -7.3,13.8 -0.6,1.2 -1.3,2.6 -3.3,2.3 -0.6,0 -1.4,1.2 -2,2 -3.8,5.5 -8.8,9.8 -14,13.9 -4.4,3.5 -9.9,4.8 -15.4,5.4 -3.6,0.4 -6.6,-1.1 -9.1,-3.9 -1.1,-1.3 -2.7,-2 -4,-3.1 -1.2,-1 -2.5,-2.1 -3.4,-3.4 -0.8,-1.1 -1,-2.5 -1.7,-3.7 -0.3,-0.6 -1.1,-0.9 -1.7,-1.3 -0.5,-1.2 -1.1,-2.6 -1.6,-3.9 -0.1,0 -0.3,0.1 -0.4,0.2 -0.2,4.4 -0.5,8.8 -0.7,13.1 0.2,0 0.4,0 0.7,0.1 l 1.4,-1.1 c 0.1,0.1 0.3,0.2 0.4,0.3 -0.7,1 -1.4,2 -2.2,3.2 h 2.5 c 0,0.1 0,0.2 0,0.3 -0.8,0.2 -1.5,0.4 -2,0.5 -0.3,5.1 -0.7,10.1 -1,15.1 -0.1,2.2 0,4.5 0,6.7 0,10.8 0,21.6 0,32.6 0.6,0.2 1.2,0.3 2,0.5 -0.3,0.2 -0.4,0.5 -0.6,0.5 -1.2,-0.1 -1.4,0.5 -1.4,1.5 0,3.5 0.2,7 0.2,10.5 0,2.3 -0.3,4.7 -0.2,7 0,3.4 0.4,6.7 0.6,10.1 0,0.3 -0.2,0.7 -0.3,1 -0.2,0.6 -0.7,1.3 -0.5,1.6 0.9,1.4 0.4,2.6 0,4 -0.3,1.1 0,2.3 0,3.4 0,0.9 -0.2,1.7 -0.3,2.5 -0.2,1.6 -0.9,3.3 -0.5,4.8 0.8,3.5 0,6.8 -0.4,10.2 0,0.4 -0.2,0.8 0,1.1 0.8,1.3 1.1,2.5 -0.4,3.6 -0.3,0.3 0,1.5 0.1,2.3 0,0.3 0.6,0.6 0.6,0.9 -0.4,4.6 1,9.6 -2.9,13.4 -0.2,0.2 -0.5,0.5 -0.5,0.6 1.6,2.6 -1,1.5 -2,2.2 -0.2,1.1 -0.4,2.5 -0.7,3.9 -0.3,-0.5 -0.6,-1 -1.1,-1.9 -0.8,1.8 -1.1,3.4 -2.1,4.5 -0.8,0.9 -2.4,1.1 -4,1.8 0,0 -0.4,-0.5 -0.8,-0.9 -3.2,0.7 -2.8,4.4 -5,6.5 -0.1,-1.1 -0.2,-1.9 -0.3,-3 -0.6,0 -1.1,0 -1.6,0.2 -0.3,0 -0.5,0.6 -0.7,0.5 -3.4,-1.5 -2.9,1.6 -3.8,3.7 -2.2,-6 -7.4,-7.3 -12.3,-9.7 z m 43.7,-228.3 c -0.4,0.1 -0.8,0.2 -1.1,0.4 0,7.5 0,15.1 0,22.6 0,4.6 0.3,9.2 0.6,13.8 0,0.7 0.6,1.7 1.1,1.9 3.4,1.6 6.8,3.1 10.2,4.4 1.2,0.5 2.3,-0.2 2.4,-1.6 0,-1.2 0.5,-1.8 1.5,-2.3 0.7,-0.4 1,-1.6 1.3,-2.4 0.3,-0.7 0.5,-1.5 0.6,-2.2 0.3,-3 2,-6 0.4,-9.2 -0.6,-1.2 -0.7,-2.6 -1.2,-3.8 -1.4,-3.3 -2.4,-7.1 -4.6,-9.9 -3.3,-4.3 -7.6,-7.8 -11.4,-11.7 z M 947,213.4 c 0.2,0 0.5,0 0.7,0 0.2,-0.8 0.6,-1.5 0.6,-2.3 0.2,-3.6 1.5,-6.7 3.4,-9.8 1.2,-1.9 1.8,-4.4 2.3,-6.6 0.8,-3.7 1,-7.5 1.9,-11 2.4,-8.7 5.1,-17.4 7.6,-26.1 0.1,-0.5 0,-1.3 -0.3,-1.5 -0.5,-0.4 -1.3,-0.5 -1.9,-0.4 -0.5,0 -1,0.3 -1.4,0.6 -3,1.9 -5.7,4 -9.6,4.2 -2.6,0.1 -4.8,3.5 -4.8,5.6 0,5.3 0,10.6 -0.1,15.8 0,3.3 -0.7,6.6 -0.6,9.8 0.3,5.8 1.1,11.5 1.7,17.3 0.2,1.5 0.4,3 0.6,4.5 z"
           id="path16" />
        <path
           class="cls-1"
           d="m 1024.4,244.9 c -4.6,1.6 -8.1,-1.1 -11.7,-3.7 -0.9,-0.7 -2,-1.2 -3,-1.7 -0.3,-0.2 -0.8,-0.2 -1,-0.4 -4.1,-5 -10.1,-8.5 -11.1,-15.7 -0.6,-4.6 -1.8,-9.1 -2.7,-13.6 0,-0.4 -0.1,-1.1 0,-1.3 3.1,-1.9 1.7,-5.3 2.5,-7.9 0.2,-0.6 -0.8,-1.6 -1.4,-2.6 2,-0.5 1.4,-2.1 1.5,-3.6 0,-1 0.9,-2 1.5,-3 h 0.8 c -0.6,-0.8 -1.3,-1.6 -1.8,-2.3 1.5,-0.1 2.9,-0.3 4.3,-0.4 -0.3,-0.7 -0.5,-1.4 -0.6,-1.6 7.6,-13.7 13.4,-27.7 16.1,-42.8 0.7,0.2 1.6,0.8 2.7,0.9 2,0 3.2,1.2 4.1,2.7 2.3,3.6 4.5,7.2 6.7,10.8 2.3,3.8 4.3,7.8 6.6,11.6 1.2,2 3.2,3.7 4.1,5.8 1.6,3.7 2.6,7.6 3.9,11.4 0.2,0.6 0.2,1.5 0.6,1.9 3.9,4.2 2,9 1,13.5 -0.7,3.3 -2.6,6.4 -4.1,9.5 -0.4,0.9 -1.3,1.5 -0.2,2.5 0.1,0.1 -0.3,0.9 -0.6,1.3 -2.3,3.2 -4.7,6.5 -7.1,9.7 -0.3,0.4 -0.8,0.8 -0.9,1.3 -0.4,2.8 -2.8,4.4 -4.1,6.6 -1.4,2.3 -3.1,4.5 -4.7,6.8 -0.7,0.9 -1.5,1.8 -2,2.8 -0.2,0.4 0.3,1.2 0.6,1.9 z"
           id="path18" />
      </g>
    </g>
    <g
       id="g46"
       style="stroke-width:6.27893">
      <path
         class="cls-1"
         d="m 121.7,577.3 c 0,17.5 -13.2,30.1 -31.8,30.1 H 65.3 v -60.2 h 25 c 18.2,0 31.4,12.5 31.4,30.1 z m -11.8,0.1 c 0,-11.8 -8.5,-20 -19.8,-20 H 76.8 v 39.9 h 13.8 c 11.1,0 19.4,-8.2 19.4,-19.9 z"
         id="path24" />
      <path
         class="cls-1"
         d="m 199.9,594.7 h -29.4 l -5.3,12.7 h -12 l 26.4,-60.2 h 12 l 26.1,60.2 H 205.3 L 200,594.7 Z m -4.2,-9.9 -10.5,-25.3 -10.7,25.3 z"
         id="path26" />
      <path
         class="cls-1"
         d="m 268.6,547.2 18.9,38.6 18.8,-38.6 h 13.2 v 60.2 H 309 v -43 c 0,0 -17.9,36.8 -17.9,36.8 h -7.5 l -17.8,-36.8 v 43 h -10.7 v -60.2 h 13.3 z"
         id="path28" />
      <path
         class="cls-1"
         d="m 424.3,577.3 c 0,17.3 -13.9,30.6 -32.1,30.6 -18.2,0 -32.1,-13.3 -32.1,-30.6 0,-17.3 13.9,-30.4 32.1,-30.4 18.2,0 32.1,13.2 32.1,30.4 z m -52.3,0 c 0,11.3 9.4,20.3 20.5,20.3 11.1,0 20.1,-8.9 20.1,-20.3 0,-11.4 -9.1,-20.1 -20.1,-20.1 -11,0 -20.5,8.8 -20.5,20.1 z"
         id="path30" />
      <path
         class="cls-1"
         d="m 560.3,594.7 h -29.4 l -5.3,12.7 h -12 L 540,547.2 h 12 l 26.1,60.2 h -12.4 l -5.3,-12.7 z m -4.1,-9.9 -10.5,-25.3 -10.7,25.3 z"
         id="path32" />
      <path
         class="cls-1"
         d="m 641.4,557.1 c -11.4,0 -20.2,8.8 -20.2,19.9 0,11.1 8.9,20 20.2,20 11.3,0 11.9,-2.7 16.3,-7 l 6.8,7.6 c -6.2,6.3 -15.1,10.3 -23.7,10.3 -17.7,0 -31.4,-13.3 -31.4,-30.7 0,-17.4 13.8,-30.3 31.8,-30.3 18,0 17.4,3.7 23.2,9.6 l -6.7,8.4 c -4.3,-4.8 -10.4,-7.8 -16.3,-7.8 z"
         id="path34" />
      <path
         class="cls-1"
         d="m 743.1,594.7 h -29.4 l -5.3,12.7 h -12 l 26.4,-60.2 h 12 l 26.1,60.2 h -12.4 l -5.3,-12.7 z m -4.1,-9.9 -10.5,-25.3 -10.7,25.3 z"
         id="path36" />
      <path
         class="cls-1"
         d="m 855,577.3 c 0,17.5 -13.2,30.1 -31.8,30.1 h -24.6 v -60.2 h 25 c 18.2,0 31.4,12.5 31.4,30.1 z m -11.8,0.1 c 0,-11.8 -8.5,-20 -19.8,-20 h -13.3 v 39.9 h 13.8 c 11.1,0 19.4,-8.2 19.4,-19.9 z"
         id="path38" />
      <path
         class="cls-1"
         d="m 939.6,547.2 v 10.1 H 907 v 14.9 h 29.2 v 10.1 H 907 v 15.1 h 33.6 v 10.1 h -45.2 v -60.2 h 44.1 z"
         id="path40" />
      <path
         class="cls-1"
         d="m 996,547.2 18.9,38.6 18.8,-38.6 h 13.2 v 60.2 h -10.5 v -43 c 0,0 -17.9,36.8 -17.9,36.8 h -7.5 l -17.8,-36.8 v 43 h -10.7 v -60.2 h 13.3 z"
         id="path42" />
      <path
         class="cls-1"
         d="m 1118.8,587.7 v 19.7 h -11.5 v -19.3 l -22.5,-40.9 h 11.7 l 16.4,28.3 16.2,-28.3 h 11.6 z"
         id="path44" />
    </g>
    <g
       id="g60"
       style="stroke-width:6.27893">
      <path
         class="cls-2"
         d="m 1190.7,597.1 c -0.2,-2.7 -0.5,-5.4 -0.7,-8.1 -0.2,-2.7 -0.4,-5.3 -2.5,-7.3 -1.2,-1.1 -2.7,-1.1 -3.7,0.1 -0.2,-0.5 -0.5,-0.9 -0.7,-1.3 -0.2,-0.4 -0.3,-0.8 -0.5,-1.2 -3.7,1 -3.6,4.3 -4.1,7.1 -0.8,4.2 -1.5,8.5 -2.3,12.8 -0.3,1.5 -0.4,3 -0.7,4.6 -0.2,1.1 -0.6,2.1 -0.9,3.3 -4.1,-5.8 -5.4,-54.8 1.1,-64.1 0.8,0.6 1.7,1.1 2.5,1.8 0.3,0.3 0.6,0.8 0.6,1.2 0,1.7 0,3.5 0,5.2 0,3.3 -0.3,6.6 0,9.8 0.2,3.4 -0.5,6.3 -3.2,8.7 -0.9,0.8 -1.5,1.9 0,3 0.3,0.2 0.2,1 0.4,1.4 0.5,0.7 1,1.7 1.7,1.9 1.9,0.5 3.9,0.8 5.9,0.8 3.3,0 6.6,-0.3 9.7,-0.9 3.2,-0.6 5.2,-3.5 7.9,-5.2 0.8,-0.5 1.5,-1.2 2.3,-1.7 1.1,-0.8 2.3,-1.7 3.5,-2.5 -0.3,-0.2 -0.5,-0.3 -0.8,-0.5 0,-0.6 -0.1,-1.4 0.2,-1.7 1.3,-1.5 2.1,-5.2 1.3,-7 -0.3,-0.6 -0.2,-1.3 -0.3,-2 0.2,0 0.4,0 0.5,0 0.1,1 0.3,2 0.4,3 0.4,-4.8 0,-9.4 -3.8,-12.9 -1.8,-1.6 -3.4,-3.6 -5.5,-4.7 -2.7,-1.3 -5.8,-1.7 -8.6,-2.8 -4,-1.5 -7.9,-0.5 -12.2,0.3 1.6,-1.1 2.8,-2.2 4.3,-2.8 1.7,-0.7 3.6,-1.1 5.4,-1.6 0.1,0 0.3,0 0.4,0 7.5,-3.7 15.3,-0.3 22.9,-1 1.5,-0.1 3.1,-0.3 4.6,-0.2 1.5,0 3.1,0.5 4.6,0.6 1.8,0.1 3.6,0 5.4,0.3 1.4,0.2 2.7,0.8 4.1,1.2 0,0.2 0,0.4 0,0.6 -0.8,0 -1.5,0 -2.3,0 -3.3,-0.4 -4.8,0.7 -5.2,4 -0.1,0.8 -0.5,1.6 -1.1,2.2 -1.4,1.4 -2.3,2.9 -2.2,5 0,1.1 -0.9,2.1 -1.2,3.2 -1.6,5 -3,10 -4.7,14.9 -0.8,2.2 -2.1,4.2 -3.1,6.2 -0.7,0 -1.6,-0.2 -1.7,0 -0.3,0.6 -0.4,1.3 -0.4,2 0,2.3 1.6,2.7 3.3,2.8 2.2,0.2 4.4,0.3 6,-1.6 0.2,-0.2 0.3,-0.6 0.4,-0.9 0.4,-1.5 0.7,-3 1.1,-4.4 0.5,-2.2 2.3,-2.6 4.1,-3.2 3.2,-1.1 6.4,-0.7 9.7,-0.7 0.8,0 1.6,0.9 2.1,1.2 0.3,1.4 0.6,2.5 0.9,3.5 0.3,1.5 0.8,3.1 0.9,4.6 0,1.3 0.3,2 1.8,1.8 0.9,0 1.8,0.1 2.7,0.2 1.6,0.2 3.1,0.2 4.2,-1.5 -0.3,5.6 -0.6,11.2 -0.9,16.1 -1.5,-1.9 -3.4,-4.1 -5,-6.4 -0.8,-1.2 -1.2,-2.7 -2,-4.7 -2,-0.1 -4.7,-0.3 -7.4,-0.5 -1.6,-0.1 -2.9,-0.8 -2.9,-3 -1.1,1.2 -2.1,2.2 -3.4,3.4 -2.6,-0.7 -4.8,0.9 -6.4,3.3 -1.9,2.7 -4.1,5.4 -5.4,8.4 -2.4,5.3 -1.2,10.3 2.2,14.9 0.1,0.2 0.4,0.3 0.4,0.5 0.3,3.3 3.5,5.2 4.1,7.9 0.6,3.2 3,2.4 4.2,2.6 3.1,0.3 6.4,0.2 9.5,-0.5 2.7,-0.7 5.2,-2.4 7.7,-3.7 0.4,-0.2 0.5,-0.9 0.7,-1.4 1,-2.6 2,-5.2 3,-7.8 0.3,0 0.6,0.2 1,0.3 -0.5,3.5 -1,6.9 -1.6,10.4 0,0.3 -0.4,0.7 -0.6,0.8 -3.9,2.2 -6.9,6.2 -12.2,5.8 -3.1,-0.2 -6.4,1.3 -9.5,1 -6.3,-0.7 -12.4,1.2 -18.6,0.9 -4.8,-0.2 -9.7,-0.3 -14.4,-1.2 -3.2,-0.6 -6.1,-2.4 -9.8,-4 2.5,-0.4 3,-1.4 2.7,-3.4 -0.2,-1.5 0.4,-3.2 0.8,-4.7 1,-4.4 2,-8.9 3,-13.3 0.7,2.4 1.5,5.1 2.4,7.8 0.8,2.6 1.6,5.3 2.7,7.8 1,2.1 2.1,1.8 4,0.5 1.8,-1.3 2.4,-2.7 2.6,-4.9 0.4,-3.5 1.6,-6.8 2.8,-10.3 0.8,3.3 1.6,6.5 2.5,9.8 0.3,1.1 0.7,2.1 1.1,3.1 0.1,0.3 0.4,0.6 0.5,0.9 0.6,2.1 1.1,4.2 1.7,6.3 0.4,1.3 0.9,1.7 2.4,0.9 3.2,-1.6 4.4,-4.1 4.4,-7.5 0,-0.4 0,-1 -0.3,-1.2 -1.7,-1.1 -1.7,-2.9 -2.1,-4.6 -0.6,-2.3 -1.1,-4.8 -2.5,-6.6 -1,-1.4 -1.3,-2.6 -1.4,-4.1 -0.3,-3 -0.2,-6.2 -3,-8.5 0.9,-0.3 1.5,-0.5 2.4,-0.8 -2.2,-2.1 -3.6,-4.7 -6.8,-5.1 -1.5,-0.1 -3.1,1.5 -3.2,3.5 0,3.4 -0.2,6.7 -1.8,9.8 -0.7,1.3 -0.6,3.1 -0.9,4.6 -0.3,0 -0.6,0 -1,0"
         id="path48" />
      <path
         class="cls-2"
         d="m 1230.2,609 c -2.1,-0.7 -4.1,-1.3 -6.1,-2.1 -0.4,-0.1 -0.9,-0.5 -1.1,-0.9 -1,-1.9 -2,-3.9 -2.7,-5.9 -1.4,-3.7 1.3,-11 4.7,-13.1 0.5,-0.3 1.4,-0.6 2,-0.4 6.3,2 10.7,4.9 11.6,12.6 0,0.4 0,1 -0.3,1.4 -1.7,2.6 -2.7,5.8 -5.3,7.8 -0.6,0.5 -1.7,0.5 -2.7,0.7"
         id="path50" />
      <path
         class="cls-2"
         d="m 1187.2,543.9 c 9.3,-0.7 16.4,8.2 13.6,16.7 0,0.3 -0.1,0.6 -0.3,0.8 -2.6,2.9 -4.6,6.4 -8.5,8 -2.1,0.8 -3.6,0.7 -4.7,-1.1 -1.7,-2.9 -2.7,-5.9 -0.6,-9.3 1,-1.8 1.3,-3.6 0.8,-6 -0.6,-2.9 -0.2,-6 -0.2,-9.1"
         id="path52" />
      <path
         class="cls-2"
         d="m 1243.4,570.5 c -0.6,-2.2 -1.2,-4.4 -1.9,-6.8 0.2,0 -0.3,0.1 -0.3,0 -0.7,-1.5 -1.6,-2.9 -1.8,-4.4 -0.1,-1.8 -0.5,-2.4 -2.4,-3.1 -0.8,-0.3 -1.2,-1.7 -1.8,-2.6 0.5,-0.3 0.9,-0.6 1.2,-0.7 -0.5,-1.2 -1.5,-2.4 -1.3,-3.3 0.7,-3.2 -1.5,-5.6 -2.1,-8.4 -0.3,-1.4 -1.6,-2.6 -2.3,-3.9 -0.2,-0.4 0,-1.1 0,-1.7 0.6,0 1.4,-0.2 1.7,0.1 1.9,1.6 3.7,3.3 5.4,5.1 1.3,1.5 2.5,3.2 3.5,5 0.8,1.4 1.3,3.1 1.5,4.7 0.2,1.5 -0.2,3 1.2,4.3 0.5,0.4 0,1.8 0,2.8 0.2,3.4 0.4,6.9 0.6,10.3 0,0.9 -0.2,1.8 -0.3,2.7 -0.3,0 -0.5,0 -0.8,0"
         id="path54" />
      <path
         class="cls-2"
         d="m 1222,557.1 c 1.9,-3.4 3.8,-6.6 5.6,-9.9 0.2,0 0.4,0 0.6,0 1.1,3.1 2.1,6.2 3.4,9.8 h -9.6 z"
         id="path56" />
      <path
         class="cls-2"
         d="m 1222.8,581.8 c -4.8,3.5 -8,8.1 -10,13.7 -0.2,0 -0.4,-0.2 -0.6,-0.3 1.2,-3.4 2.4,-6.9 3.8,-10.2 0.2,-0.6 1.4,-0.7 2.2,-1.1 0.6,-0.3 1,-0.8 1.6,-1.1 0.9,-0.5 1.9,-1 2.9,-1.6 0,0.2 0.1,0.4 0.2,0.6"
         id="path58" />
    </g>
  </g>
</svg>
