<svg xmlns="http://www.w3.org/2000/svg" role="img" xmlns:xlink="http://www.w3.org/1999/xlink" viewBox="-4.41 -4.66 186.83 229.58"><title>资源 1 (1).svg</title><defs><linearGradient id="linear-gradient" x1="125.16" x2="119.51" y1="90.9" y2="57.4" gradientUnits="userSpaceOnUse"><stop offset="0" stop-color="#62c0b4"/><stop offset="1" stop-color="#008698"/></linearGradient><linearGradient id="linear-gradient-2" x1="97.18" x2="23.41" y1="99.67" y2="-.08" gradientUnits="userSpaceOnUse"><stop offset="0" stop-color="#009dda"/><stop offset=".24" stop-color="#088ccc"/><stop offset=".72" stop-color="#1e60a7"/><stop offset="1" stop-color="#2d4390"/></linearGradient><linearGradient id="linear-gradient-3" x1="55.7" x2="50.06" y1="102.6" y2="69.1" xlink:href="#linear-gradient"/><linearGradient id="linear-gradient-4" x1="100.7" x2="126.68" y1="21.64" y2="96.74" xlink:href="#linear-gradient"/><linearGradient id="linear-gradient-5" x1="36.91" x2="62.88" y1="43.71" y2="118.8" xlink:href="#linear-gradient"/><linearGradient id="linear-gradient-6" x1="90.77" x2="155.97" y1="87.6" y2="160.43" gradientTransform="translate(-47.35 -49.38)" gradientUnits="userSpaceOnUse"><stop offset="0" stop-color="#2c9ccf"/><stop offset=".24" stop-color="#2b8bc2"/><stop offset=".72" stop-color="#285fa3"/><stop offset="1" stop-color="#27438f"/></linearGradient><linearGradient id="linear-gradient-7" x1="133.33" x2="116.38" y1="68.55" y2="118.31" gradientUnits="userSpaceOnUse"><stop offset="0" stop-color="#fff"/><stop offset="1" stop-color="#fff" stop-opacity="0"/></linearGradient><linearGradient id="linear-gradient-8" x1="48.32" x2="66.95" y1="170.1" y2="210.75" xlink:href="#linear-gradient-2"/><linearGradient id="linear-gradient-9" x1="10.62" x2="29.25" y1="187.38" y2="228.03" xlink:href="#linear-gradient-2"/><linearGradient id="linear-gradient-10" x1="6.38" x2="25.01" y1="189.32" y2="229.97" xlink:href="#linear-gradient-2"/><linearGradient id="linear-gradient-11" x1="82.51" x2="101.14" y1="154.43" y2="195.07" xlink:href="#linear-gradient-2"/><linearGradient id="linear-gradient-12" x1="124.46" x2="143.09" y1="135.2" y2="175.85" xlink:href="#linear-gradient-2"/><linearGradient id="linear-gradient-13" x1="104.59" x2="112.56" y1="185.7" y2="200.04" gradientUnits="userSpaceOnUse"><stop offset="0" stop-color="#eddc44"/><stop offset=".19" stop-color="#e8cb41"/><stop offset=".58" stop-color="#dc9e3a"/><stop offset=".99" stop-color="#cd6832"/></linearGradient><clipPath id="clippath"><path d="M32.97,10.99h109.89c12.09,0,21.98,9.89,21.98,21.98v109.89c0,12.09-9.89,21.98-21.98,21.98H32.97c-12.09,0-21.98-9.89-21.98-21.98V32.97c0-12.09,9.89-21.98,21.98-21.98" class="cls-4"/></clipPath><clipPath id="clippath-1"><path d="M153.84,76.92v-43.95c0-6.04-4.95-10.99-10.99-10.99h-38.46c-6.04,0-10.99,4.95-10.99,10.99v43.95l49.45,28.44v37.49h-38.46v-37.63l-10.99-6.32v43.95c0,6.04,4.94,10.99,10.99,10.99h38.46c6.04,0,10.99-4.95,10.99-10.99v-43.95l-49.45-28.44v-37.49h38.46v37.63l10.99,6.32ZM32.97,22.77c-6.04,0-10.99,4.94-10.99,10.99v109.89c0,6.04,4.95,10.99,10.99,10.99h38.46c6.04,0,10.99-4.94,10.99-10.99V33.76c0-6.04-4.95-10.99-10.99-10.99h-38.46ZM71.43,143.64h-38.46V33.76h38.46v109.89ZM164.83,76.96v-.04l10.99-6.32V0H8.8C4.37.88.88,4.37,0,8.8v167.02h165.92c5.54-.68,9.83-5.39,9.83-11.11,0-.11.03-.21.06-.29v-52.88l-10.99-6.32v-.15h0s0,37.79,0,37.79c0,12.09-9.89,21.98-21.98,21.98H32.97c-12.09,0-21.98-9.89-21.98-21.98V32.97c0-12.09,9.89-21.98,21.98-21.98h109.89c12.09,0,21.98,9.89,21.98,21.98v43.99h0ZM21.98,170.33H5.49v-16.48l16.48,16.48Z" class="cls-4"/></clipPath><style>.cls-12,.cls-4{stroke-width:0}.cls-12{fill-rule:evenodd}.cls-4{clip-rule:evenodd;fill:none}.cls-12{fill:#d7e3e3}</style></defs><g id="_图层_1-2" data-name="图层 1"><g><g clip-path="url(#clippath)"><path d="M127.34,148.13c-.68,0-1.24-.55-1.24-1.24s.55-1.24,1.24-1.24,1.24.55,1.24,1.24-.55,1.24-1.24,1.24M127.34,149.37c-1.37,0-2.47-1.11-2.47-2.47s1.11-2.47,2.47-2.47,2.47,1.11,2.47,2.47-1.11,2.47-2.47,2.47Z" class="cls-12"/><path d="M107.84,152.58l-3.89,3.89h-8.46l-4.65-4.65h-28.55l-2.55,2.55H7.18l-10.96-10.75h-28.55l-2.55,2.55h-63.33v-1.24h62.82l1.31-1.31,1.24-1.24H-3.27l10.96,10.75h51.54l1.31-1.31,1.24-1.24h29.57l4.65,4.65h7.44l3.89-3.89h14.68l3.69-3.69c.18.38.49.69.87.87l-4.05,4.05h-14.68Z" class="cls-12"/><path d="M118.47,147.93c-.68,0-1.24-.55-1.24-1.24s.55-1.24,1.24-1.24,1.24.55,1.24,1.24-.55,1.24-1.24,1.24M118.47,149.17c-1.37,0-2.47-1.11-2.47-2.47s1.11-2.47,2.47-2.47,2.47,1.11,2.47,2.47-1.11,2.47-2.47,2.47Z" class="cls-12"/><path d="M114.98,144.08h-1.74l-4.45,4.45h-5.43l-4.45-4.45h-29.77l-5.73-5.73h-12.65l-2.55,2.55H12.05l-10.96-10.75H-31.38l-2.55,2.55h-59.4v-1.24h58.89l1.31-1.31,1.24-1.24H1.6l10.96,10.75h35.14l2.55-2.55h13.67l5.73,5.73h29.77l4.45,4.45h4.41l4.45-4.45h2.77l2.26,2.26c-.39.17-.7.49-.87.87l-1.9-1.9Z" class="cls-12"/><path d="M106.07,144.34c-.68,0-1.24-.55-1.24-1.24s.55-1.24,1.24-1.24,1.24.55,1.24,1.24-.55,1.24-1.24,1.24M106.07,145.58c-1.37,0-2.47-1.11-2.47-2.47s1.11-2.47,2.47-2.47,2.47,1.11,2.47,2.47-1.11,2.47-2.47,2.47Z" class="cls-12"/><path d="M103.02 140.78h-32.4l-5.73-5.73h-16.97l-2.55 2.55H14.96l-10.97-10.75h-38.01l-2.55 2.55h-55.3v-1.24h54.79l1.31-1.31 1.24-1.24H4.51l10.96 10.75h29.38l2.55-2.55h17.99l5.73 5.73h32.4l2.26 2.26c-.39.17-.7.49-.87.87l-1.9-1.9zM98.92 152.12c-.68 0-1.24-.55-1.24-1.24s.55-1.24 1.24-1.24 1.24.55 1.24 1.24-.55 1.24-1.24 1.24M98.92 153.35c-1.37 0-2.47-1.11-2.47-2.47s1.11-2.47 2.47-2.47 2.47 1.11 2.47 2.47-1.11 2.47-2.47 2.47z" class="cls-12"/><path d="M95.87,148.55h-28.96l-5.73-5.73h-8.9l-2.55,2.55H9.82l-10.96-10.75h-28.55l-2.55,2.55h-63.33v-1.24h62.82l1.31-1.31,1.24-1.24H-.64l10.96,10.75h38.89l2.55-2.55h9.92l5.73,5.73h28.96l2.26,2.26c-.39.17-.7.49-.87.87l-1.9-1.9Z" class="cls-12"/><path d="M56.74 149.25c-.68 0-1.24-.55-1.24-1.24s.55-1.24 1.24-1.24 1.24.55 1.24 1.24-.55 1.24-1.24 1.24M56.74 150.49c-1.37 0-2.47-1.11-2.47-2.47s1.11-2.47 2.47-2.47 2.47 1.11 2.47 2.47-1.11 2.47-2.47 2.47zM136.24 137.87c-.68 0-1.24-.55-1.24-1.24s.55-1.24 1.24-1.24 1.24.55 1.24 1.24-.55 1.24-1.24 1.24M136.24 139.11c-1.37 0-2.47-1.11-2.47-2.47s1.11-2.47 2.47-2.47 2.47 1.11 2.47 2.47-1.11 2.47-2.47 2.47zM146.17 135.4c-.68 0-1.24.55-1.24 1.24s.55 1.24 1.24 1.24 1.24-.55 1.24-1.24-.55-1.24-1.24-1.24M146.17 134.16c-1.37 0-2.47 1.11-2.47 2.47s1.11 2.47 2.47 2.47 2.47-1.11 2.47-2.47-1.11-2.47-2.47-2.47z" class="cls-12"/><path d="M-15.33 118.35L-18.36 118.35 -86.11 118.35 -86.11 117.12 -18.36 117.12 -15.33 117.12 -11.78 117.12 -6.92 121.9 3.64 121.9 7.54 121.9 10.21 121.9 20.33 131.93 27.3 131.93 34.79 131.93 41.76 131.93 43.78 129.99 47.5 129.99 50.36 129.99 69.56 129.99 73.57 133.91 88.03 133.91 90.76 133.91 92.76 135.87 107.22 135.87 115.87 135.87 120.52 140.52 131.84 140.52 134.96 137.4 135.48 138.63 132.35 141.76 120.01 141.76 115.36 137.11 107.22 137.11 92.25 137.11 90.24 135.15 88.03 135.15 73.06 135.15 69.05 131.22 50.36 131.22 47.5 131.22 44.3 131.22 42.27 133.16 34.79 133.16 27.3 133.16 19.81 133.16 9.7 123.13 7.54 123.13 3.64 123.13 -7.44 123.13 -12.29 118.35 -15.33 118.35z" class="cls-12"/><path d="M-15.33 114.24L-16.66 114.24-86.11 114.24-86.11 113-16.66 113-15.33 113-10.08 113-5.22 117.78 5.97 117.78 9.24 117.78 12.55 117.78 22.66 127.81 26.43 127.81 37.12 127.81 40.89 127.81 42.91 125.87 47.5 125.87 50.36 125.87 69.56 125.87 73.57 129.8 75.96 129.8 88.03 129.8 91.78 129.8 94.5 132.43 101.63 132.43 108.96 132.43 119.33 132.43 123.1 136.16 128.21 136.16 128.56 136.16 133.21 131.51 142.28 131.51 145.33 134.55 144.82 135.79 141.77 132.75 133.72 132.75 129.07 137.4 128.21 137.4 122.59 137.4 118.82 133.67 108.96 133.67 101.63 133.67 93.99 133.67 91.27 131.03 88.03 131.03 75.96 131.03 73.06 131.03 69.05 127.11 50.36 127.11 47.5 127.11 43.42 127.11 41.4 129.05 37.12 129.05 26.43 129.05 22.15 129.05 12.04 119.02 9.24 119.02 5.97 119.02-5.73 119.02-10.59 114.24-15.33 114.24zM135.96 126.21c-.68 0-1.24.55-1.24 1.24s.55 1.24 1.24 1.24 1.24-.55 1.24-1.24-.55-1.24-1.24-1.24M135.96 124.97c-1.37 0-2.47 1.11-2.47 2.47s1.11 2.47 2.47 2.47 2.47-1.11 2.47-2.47-1.11-2.47-2.47-2.47z" class="cls-12"/><path d="M130.92 128.06L126.65 132.33 123.53 132.33 121.11 129.35 96.76 129.35 93.6 125.46 73.27 125.46 69.76 121.14 25.21 121.14 18.04 112.31 -1.88 112.31 -6.68 106.4 -75.74 106.4 -75.74 105.17 -6.09 105.17 -1.29 111.07 18.63 111.07 25.8 119.9 70.35 119.9 73.86 124.22 94.19 124.22 97.35 128.11 121.69 128.11 124.12 131.1 126.14 131.1 130.41 126.82 134.29 126.82 134.29 128.06 130.92 128.06z" class="cls-12"/><path d="M130.92 120.29L126.17 125.05 98.82 125.05 95.43 120.88 75.86 120.88 71.62 115.66 28.71 115.66 21.86 107.23 0.31 107.23 -5.5 100.1 -74.56 100.1 -74.56 98.86 -4.91 98.86 0.89 106 22.45 106 29.3 114.42 72.21 114.42 76.45 119.65 96.02 119.65 99.41 123.81 125.65 123.81 130.41 119.06 134.4 119.06 134.4 120.29 130.92 120.29z" class="cls-12"/><path d="M135.96 118.44c-.68 0-1.24.55-1.24 1.24s.55 1.24 1.24 1.24 1.24-.55 1.24-1.24-.55-1.24-1.24-1.24M135.96 117.2c-1.37 0-2.47 1.11-2.47 2.47s1.11 2.47 2.47 2.47 2.47-1.11 2.47-2.47-1.11-2.47-2.47-2.47zM146.17 126.21c-.68 0-1.24.55-1.24 1.24s.55 1.24 1.24 1.24 1.24-.55 1.24-1.24-.55-1.24-1.24-1.24M146.17 124.97c-1.37 0-2.47 1.11-2.47 2.47s1.11 2.47 2.47 2.47 2.47-1.11 2.47-2.47-1.11-2.47-2.47-2.47zM121.06 118.44c-.68 0-1.24.55-1.24 1.24s.55 1.24 1.24 1.24 1.24-.55 1.24-1.24-.55-1.24-1.24-1.24M121.06 117.2c-1.37 0-2.47 1.11-2.47 2.47s1.11 2.47 2.47 2.47 2.47-1.11 2.47-2.47-1.11-2.47-2.47-2.47zM111.88 118.44c-.68 0-1.24.55-1.24 1.24s.55 1.24 1.24 1.24 1.24-.55 1.24-1.24-.55-1.24-1.24-1.24M111.88 117.2c-1.37 0-2.47 1.11-2.47 2.47s1.11 2.47 2.47 2.47 2.47-1.11 2.47-2.47-1.11-2.47-2.47-2.47z" class="cls-12"/><path d="M91.06 100.16L41.86 100.16 35.23 92 15.95 92 8.55 82.89 -63.8 82.89 -63.8 81.65 9.14 81.65 16.54 90.76 35.82 90.76 42.45 98.93 91.65 98.93 108 119.06 110.2 119.06 110.2 120.29 107.42 120.29 91.06 100.16z" class="cls-12"/><path d="M99.54,116.14c-.68,0-1.24.55-1.24,1.24s.55,1.24,1.24,1.24,1.24-.55,1.24-1.24-.55-1.24-1.24-1.24M99.54,114.9c-1.37,0-2.47,1.11-2.47,2.47s1.11,2.47,2.47,2.47,2.47-1.11,2.47-2.47-1.11-2.47-2.47-2.47Z" class="cls-12"/><path d="M96.41 114.5L80.11 114.5 77.35 111.01 33.68 111.01 27.04 102.85 7.77 102.85 0.36 93.74 -71.99 93.74 -71.99 92.5 0.95 92.5 8.35 101.61 27.63 101.61 34.26 109.78 77.95 109.78 80.71 113.26 97 113.26 98.89 115.59 97.93 116.37 96.41 114.5z" class="cls-12"/><path d="M85.63,107.11c-.68,0-1.24.55-1.24,1.24s.55,1.24,1.24,1.24,1.24-.55,1.24-1.24-.55-1.24-1.24-1.24M85.63,105.88c-1.37,0-2.47,1.11-2.47,2.47s1.11,2.47,2.47,2.47,2.47-1.11,2.47-2.47-1.11-2.47-2.47-2.47Z" class="cls-12"/><path d="M82.57 105.48L38.9 105.48 32.27 97.31 12.99 97.31 5.59 88.21-66.76 88.21-66.76 86.97 6.18 86.97 13.58 96.08 32.85 96.08 39.49 104.24 83.17 104.24 85.02 106.58 84.05 107.35 82.57 105.48zM60.06 91.54c-.68 0-1.24.55-1.24 1.24s.55 1.24 1.24 1.24 1.24-.55 1.24-1.24-.55-1.24-1.24-1.24M60.06 90.3c-1.37 0-2.47 1.11-2.47 2.47s1.11 2.47 2.47 2.47 2.47-1.11 2.47-2.47-1.11-2.47-2.47-2.47z" class="cls-12"/><path d="M49.08,89.31h-6.08l-15.31-18.83H-24.51c-1.37,0-2.47-1.11-2.47-2.47s1.11-2.47,2.47-2.47h13.34c.68,0,1.24-.55,1.24-1.24s-.55-1.24-1.24-1.24h-15.76l-6.61,8.14h-34.04v-1.24h33.45l6.61-8.14H-11.16c1.37,0,2.47,1.11,2.47,2.47s-1.11,2.47-2.47,2.47h-13.34c-.68,0-1.24.55-1.24,1.24s.55,1.24,1.24,1.24H28.29l15.3,18.83h6.08l3.32,4.08h5.46v1.24h-6.05l-3.32-4.08Z" class="cls-12"/><path d="M45.49,93.19c-.68,0-1.24.55-1.24,1.24s.55,1.24,1.24,1.24,1.24-.55,1.24-1.24-.55-1.24-1.24-1.24M45.49,91.95c-1.37,0-2.47,1.11-2.47,2.47s1.11,2.47,2.47,2.47,2.47-1.11,2.47-2.47-1.11-2.47-2.47-2.47Z" class="cls-12"/><path d="M26.42 76.21L-61.8 76.21-61.8 74.97 27.01 74.97 42.32 93.81 43.92 93.81 43.92 95.04 41.73 95.04 26.42 76.21zM135.96 109.05c-.68 0-1.24.55-1.24 1.24s.55 1.24 1.24 1.24 1.24-.55 1.24-1.24-.55-1.24-1.24-1.24M135.96 107.82c-1.37 0-2.47 1.11-2.47 2.47s1.11 2.47 2.47 2.47 2.47-1.11 2.47-2.47-1.11-2.47-2.47-2.47zM15.88 54.53L-61.89 54.53-61.3 53.3 16.46 53.3 19.79 57.39 25.3 57.39 25.3 58.63 19.2 58.63 15.88 54.53zM146.17 108.7c-.68 0-1.24.55-1.24 1.24s.55 1.24 1.24 1.24 1.24-.55 1.24-1.24-.55-1.24-1.24-1.24M146.17 107.46c-1.37 0-2.47 1.11-2.47 2.47s1.11 2.47 2.47 2.47 2.47-1.11 2.47-2.47-1.11-2.47-2.47-2.47z" class="cls-12"/><path d="M62.19 77.58L72.74 77.58 79.38 85.75 100.01 85.75 116.68 106.26 129.27 106.26 132.88 101.82 136.6 101.82 142.7 109.32 144.68 109.32 144.68 110.55 142.11 110.55 136.02 103.06 133.47 103.06 129.86 107.5 116.09 107.5 99.42 86.99 78.79 86.99 72.15 78.82 61.6 78.82 45.19 58.63 22.21 58.63 22.21 57.39 45.78 57.39 62.19 77.58z" class="cls-12"/><path d="M127.2 99.55c-.68 0-1.24.55-1.24 1.24s.55 1.24 1.24 1.24 1.24-.55 1.24-1.24-.55-1.24-1.24-1.24M127.2 98.31c-1.37 0-2.47 1.11-2.47 2.47s1.11 2.47 2.47 2.47 2.47-1.11 2.47-2.47-1.11-2.47-2.47-2.47zM154.9 108.7c-.68 0-1.24.55-1.24 1.24s.55 1.24 1.24 1.24 1.24-.55 1.24-1.24-.55-1.24-1.24-1.24M154.9 107.46c-1.37 0-2.47 1.11-2.47 2.47s1.11 2.47 2.47 2.47 2.47-1.11 2.47-2.47-1.11-2.47-2.47-2.47z" class="cls-12"/><path d="M143.66 97.09L116.03 97.09 102.77 80.77 90.25 80.77 90.25 55.97 71.56 32.98 71.56 18.25 49.23-9.23 50.19-10.01 72.8 17.81 72.8 32.54 91.49 55.54 91.49 79.53 103.36 79.53 116.62 95.85 144.25 95.85 154.33 108.26 153.37 109.04 143.66 97.09zM137.71 67.08c-.68 0-1.24.55-1.24 1.24s.55 1.24 1.24 1.24 1.24-.55 1.24-1.24-.55-1.24-1.24-1.24M137.71 65.85c-1.37 0-2.47 1.11-2.47 2.47s1.11 2.47 2.47 2.47 2.47-1.11 2.47-2.47-1.11-2.47-2.47-2.47z" class="cls-12"/><path d="M84.97,24.15l17.17,21.14v19.2h11.87l13.26,16.32h27.63l8.82,10.85v51.44s5.21,6.41,5.21,6.41l-.96.78-5.48-6.75v-51.44s-8.17-10.05-8.17-10.05h-27.63l-13.26-16.32h-12.52v-20l-17.17-21.13V5.07l-23.85-29.35.96-.78,24.12,29.69v19.52ZM88.45,19.97l17.17,21.14v19.2h11.87l13.26,16.32h27.63l8.82,10.85v51.44l5.21,6.41-.96.78-5.48-6.75v-51.44l-8.17-10.05h-27.63l-13.26-16.32h-12.52v-20l-17.17-21.13V.88l-23.85-29.35.96-.78L88.45.44v19.52ZM92.29,15.78l17.17,21.14v19.2h11.87l13.26,16.32h27.63l8.82,10.85v51.44s5.21,6.41,5.21,6.41l-.96.78-5.48-6.75v-51.44s-8.17-10.05-8.17-10.05h-27.63l-13.26-16.32h-12.52v-20l-17.17-21.13V-3.31l-23.85-29.35.96-.78L92.29-3.74V15.78ZM81.73,28.51l17.17,21.13v19.2h11.87l13.26,16.32h27.63l8.82,10.85v51.44l5.21,6.41-.96.78-5.48-6.75v-51.44l-8.17-10.05h-27.63l-13.26-16.32h-12.52v-20l-17.17-21.13V9.43l-23.85-29.35.96-.78,24.12,29.69v19.52Z" class="cls-12"/><path d="M152.48 118.06c-.68 0-1.24.55-1.24 1.24s.55 1.24 1.24 1.24 1.24-.55 1.24-1.24-.55-1.24-1.24-1.24M152.48 116.82c-1.37 0-2.47 1.11-2.47 2.47s1.11 2.47 2.47 2.47 2.47-1.11 2.47-2.47-1.11-2.47-2.47-2.47zM64.86 71.22c-.68 0-1.24.55-1.24 1.24s.55 1.24 1.24 1.24 1.24-.55 1.24-1.24-.55-1.24-1.24-1.24M64.86 69.99c-1.37 0-2.47 1.11-2.47 2.47s1.11 2.47 2.47 2.47 2.47-1.11 2.47-2.47-1.11-2.47-2.47-2.47zM81.51 78.11c-.68 0-1.24.55-1.24 1.24s.55 1.24 1.24 1.24 1.24-.55 1.24-1.24-.55-1.24-1.24-1.24M81.51 76.88c-1.37 0-2.47 1.11-2.47 2.47s1.11 2.47 2.47 2.47 2.47-1.11 2.47-2.47-1.11-2.47-2.47-2.47z" class="cls-12"/><path d="M80.89 75.03L66.97 57.9 66.97 53.18 45.8 27.14-76.06 27.14-76.06 25.9 46.39 25.9 68.2 52.75 68.2 57.46 82.13 74.59 82.13 77.5 80.89 77.5 80.89 75.03zM10.6 58.95H-62.75v-1.24H10.6c1.37 0 2.47 1.11 2.47 2.47s-1.11 2.47-2.47 2.47H-2.74c-.68 0-1.24.55-1.24 1.24s.55 1.24 1.24 1.24h41.13l16.41 20.19h10.55l6.64 8.17h20.63l16.67 20.52h33.28v8.02l3.33 4.1-.96.78-3.61-4.44v-7.22h-32.63l-16.67-20.52h-20.63l-6.64-8.17h-10.55l-16.41-20.19H-2.74c-1.37 0-2.47-1.11-2.47-2.47s1.11-2.47 2.47-2.47h13.34c.68 0 1.24-.55 1.24-1.24s-.55-1.24-1.24-1.24" class="cls-12"/><path d="M50.56 55.85L25.69 55.85 20.12 49 -63.95 49 -63.95 47.77 20.71 47.77 26.27 54.61 51.15 54.61 64.26 70.74 63.3 71.52 50.56 55.85z" class="cls-12"/><path d="M54.01 51.8L27.48 51.8 21.92 44.95-62.16 44.95-62.16 43.71 22.51 43.71 28.07 50.56 54.6 50.56 64.26 62.45 63.3 63.23 54.01 51.8zM44.78 34.2L18.8 34.2 15.18 37.82-71.92 37.82-71.92 36.59 14.67 36.59 18.29 32.97 45.36 32.97 53.62 43.12 52.66 43.9 44.78 34.2z" class="cls-12"/><path d="M64.84 62.9c-.68 0-1.24.55-1.24 1.24s.55 1.24 1.24 1.24 1.24-.55 1.24-1.24-.55-1.24-1.24-1.24M64.84 61.67c-1.37 0-2.47 1.11-2.47 2.47s1.11 2.47 2.47 2.47 2.47-1.11 2.47-2.47-1.11-2.47-2.47-2.47zM37.36 39.61c-.68 0-1.24.55-1.24 1.24s.55 1.24 1.24 1.24 1.24-.55 1.24-1.24-.55-1.24-1.24-1.24M37.36 38.38c-1.37 0-2.47 1.11-2.47 2.47s1.11 2.47 2.47 2.47 2.47-1.11 2.47-2.47-1.11-2.47-2.47-2.47z" class="cls-12"/><path fill="#d7e3e3" stroke-width="0" d="M-70.54 40.23H35.66999999999999V41.47H-70.54z"/><path d="M54.16 43.53c-.68 0-1.24.55-1.24 1.24s.55 1.24 1.24 1.24 1.24-.55 1.24-1.24-.55-1.24-1.24-1.24M54.16 42.3c-1.37 0-2.47 1.11-2.47 2.47s1.11 2.47 2.47 2.47 2.47-1.11 2.47-2.47-1.11-2.47-2.47-2.47zM11.02 29.87c-.68 0-1.24.55-1.24 1.24s.55 1.24 1.24 1.24 1.24-.55 1.24-1.24-.55-1.24-1.24-1.24M11.02 28.63c-1.37 0-2.47 1.11-2.47 2.47s1.11 2.47 2.47 2.47 2.47-1.11 2.47-2.47-1.11-2.47-2.47-2.47zM72.77 53.59c-.68 0-1.24.55-1.24 1.24s.55 1.24 1.24 1.24 1.24-.55 1.24-1.24-.55-1.24-1.24-1.24M72.77 52.35c-1.37 0-2.47 1.11-2.47 2.47s1.11 2.47 2.47 2.47 2.47-1.11 2.47-2.47-1.11-2.47-2.47-2.47zM83.06 58.43c-.68 0-1.24.55-1.24 1.24s.55 1.24 1.24 1.24 1.24-.55 1.24-1.24-.55-1.24-1.24-1.24M83.06 57.19c-1.37 0-2.47 1.11-2.47 2.47s1.11 2.47 2.47 2.47 2.47-1.11 2.47-2.47-1.11-2.47-2.47-2.47z" class="cls-12"/><path d="M72.15 51.49L57.58 33.55 57.58 19.61 44 2.91 7.72 2.91 -0.16 12.61 -27.24 12.61 -30.86 8.99 -117.44 8.99 -117.44 7.75 -30.35 7.75 -26.73 11.37 -0.75 11.37 7.13 1.67 44.59 1.67 58.81 19.17 58.81 33.11 73.38 51.05 73.38 53.46 72.15 53.46 72.15 51.49z" class="cls-12"/><path d="M-1.89 5.34L-23.99 5.34-27.61 1.72-114.71 1.72-114.71 2.95-28.12 2.95-24.5 6.57-1.3 6.57 6.58-3.13 48.5-3.13 67.86 20.7 67.86 38.4 82.44 56.33 82.44 58.31 83.67 58.31 83.67 55.89 69.1 37.96 69.1 20.26 49.09-4.36 5.99-4.36-1.89 5.34zM107.63 26.47c-.68 0-1.24.55-1.24 1.24s.55 1.24 1.24 1.24 1.24-.55 1.24-1.24-.55-1.24-1.24-1.24M107.63 25.23c-1.37 0-2.47 1.11-2.47 2.47s1.11 2.47 2.47 2.47 2.47-1.11 2.47-2.47-1.11-2.47-2.47-2.47z" class="cls-12"/><path d="M100.47 10.14L114.39 27.28 114.39 31.99 124.69 44.66 124.69 46.62 113.15 32.43 113.15 27.72 99.23 10.58 99.23 7.68 100.47 7.68 100.47 10.14z" class="cls-12"/><path d="M96.38 14.84L96.38-36.11 97.62-36.11 97.62 14.4 107.03 25.99 106.07 26.76 96.38 14.84zM133.59 61.12c-.68 0-1.24.55-1.24 1.24s.55 1.24 1.24 1.24 1.24-.55 1.24-1.24-.55-1.24-1.24-1.24M133.59 59.89c-1.37 0-2.47 1.11-2.47 2.47s1.11 2.47 2.47 2.47 2.47-1.11 2.47-2.47-1.11-2.47-2.47-2.47z" class="cls-12"/><path d="M132.98,60.67V26.61c0-1.37,1.11-2.47,2.47-2.47s2.47,1.11,2.47,2.47v13.34c0,.68.55,1.24,1.24,1.24s1.24-.55,1.24-1.24v-15.76l-8.14-6.61V-16.47h1.24V16.98l8.14,6.61v16.35c0,1.37-1.11,2.47-2.47,2.47s-2.47-1.11-2.47-2.47v-13.34c0-.68-.55-1.24-1.24-1.24s-1.24.55-1.24,1.24v34.07h-1.24Z" class="cls-12"/><path d="M144.51 61.71V-11.64h1.24V61.71c0 1.37-1.11 2.47-2.47 2.47s-2.47-1.11-2.47-2.47v-13.34c0-.68-.55-1.24-1.24-1.24s-1.24.55-1.24 1.24v18.57l-1.24-.59v-17.98c0-1.37 1.11-2.47 2.47-2.47s2.47 1.11 2.47 2.47v13.34c0 .68.55 1.24 1.24 1.24s1.24-.55 1.24-1.24M125.92 44.41c-.68 0-1.24.55-1.24 1.24s.55 1.24 1.24 1.24 1.24-.55 1.24-1.24-.55-1.24-1.24-1.24M125.92 43.17c-1.37 0-2.47 1.11-2.47 2.47s1.11 2.47 2.47 2.47 2.47-1.11 2.47-2.47-1.11-2.47-2.47-2.47zM149.65 64.11L153.02 68.26 180.65 68.26 189.47 79.11 189.47 130.55 194.67 136.96 193.71 137.74 188.23 130.99 188.23 79.55 180.06 69.5 152.43 69.5 148.41 64.55 148.41-.71 149.65-.71 149.65 64.11zM129.77 28.69L129.77 2.71 126.15-.91 126.15-88 127.39-88 127.39-1.42 131.01 2.2 131.01 29.27 126.96 32.57 126.18 31.61 129.77 28.69z" class="cls-12"/><path d="M126.54 33.11c0-.68-.55-1.24-1.24-1.24s-1.24.55-1.24 1.24.55 1.24 1.24 1.24 1.24-.55 1.24-1.24M127.78 33.11c0-1.37-1.11-2.47-2.47-2.47s-2.47 1.11-2.47 2.47 1.11 2.47 2.47 2.47 2.47-1.11 2.47-2.47zM107.84 159.29L103.95 163.18 95.49 163.18 90.84 158.52 62.29 158.52 59.75 161.07 7.18 161.07-3.78 150.33-32.33 150.33-34.88 152.88-98.2 152.88-98.2 151.64-35.39 151.64-34.07 150.33-32.84 149.09-3.27 149.09 7.7 159.84 59.23 159.84 60.55 158.52 61.78 157.29 91.35 157.29 96 161.94 103.44 161.94 107.33 158.05 107.33 158.05 107.33 158.05 127 158.05 133.56 151.49 141.1 151.49 151.86 140.73 151.86 121.08 153.1 121.08 153.1 141.24 141.62 152.72 134.07 152.72 127.51 159.29 107.84 159.29zM160.78 61.39c0-.68.55-1.24 1.24-1.24s1.24.55 1.24 1.24-.55 1.24-1.24 1.24-1.24-.55-1.24-1.24M159.54 61.39c0-1.37 1.11-2.47 2.47-2.47s2.47 1.11 2.47 2.47-1.11 2.47-2.47 2.47-2.47-1.11-2.47-2.47z" class="cls-12"/><path d="M156.33,41.9l-3.89-3.89v-8.46l4.65-4.65V-3.65l-2.55-2.55v-52.56l10.75-10.96v-28.55l-2.55-2.55v-63.33h1.24v62.82l1.31,1.31,1.24,1.24v29.57l-10.75,10.97V-6.71l1.31,1.31,1.24,1.24v29.57l-4.65,4.65v7.44l3.89,3.89v14.68l3.69,3.69c-.38.18-.69.49-.87.87l-4.05-4.05v-14.68Z" class="cls-12"/><path d="M159.9,53.19c0-.68.55-1.24,1.24-1.24s1.24.55,1.24,1.24-.55,1.24-1.24,1.24-1.24-.55-1.24-1.24M158.66,53.19c0-1.37,1.11-2.47,2.47-2.47s2.47,1.11,2.47,2.47-1.11,2.47-2.47,2.47-2.47-1.11-2.47-2.47Z" class="cls-12"/><path d="M160.38 51.57L160.38 37.41 164.83 32.97 164.83 3.2 170.56-2.53 170.56-15.18 168.01-17.73 168.01-53.89 178.76-64.86 178.76-97.33 176.21-99.88 176.21-159.28 177.44-159.28 177.44-100.39 178.76-99.08 179.99-97.84 179.99-64.35 169.25-53.38 169.25-18.24 171.8-15.69 171.8-2.02 166.07 3.71 166.07 33.48 161.62 37.92 161.62 51.05 160.38 51.57zM156.79 32.98c0-.68.55-1.24 1.24-1.24s1.24.55 1.24 1.24-.55 1.24-1.24 1.24-1.24-.55-1.24-1.24M155.56 32.98c0-1.37 1.11-2.47 2.47-2.47s2.47 1.11 2.47 2.47-1.11 2.47-2.47 2.47-2.47-1.11-2.47-2.47z" class="cls-12"/><path d="M160.36 29.92V.96l5.73-5.73v-8.9l-2.55-2.55v-39.91l10.75-10.96v-28.55l-2.55-2.55v-63.33h1.24v62.82l1.31 1.31 1.24 1.24v29.57l-10.75 10.96V-16.73l2.55 2.55V-4.25l-5.73 5.73v28.96l-2.26 2.26c-.17-.39-.49-.7-.87-.87l1.9-1.9zM46.79 19.06c-.68 0-1.24.55-1.24 1.24s.55 1.24 1.24 1.24 1.24-.55 1.24-1.24-.55-1.24-1.24-1.24M46.79 17.82c-1.37 0-2.47 1.11-2.47 2.47s1.11 2.47 2.47 2.47 2.47-1.11 2.47-2.47-1.11-2.47-2.47-2.47z" class="cls-12"/><path d="M3.31 21.05L17.77 21.05 26.42 21.05 31.07 16.4 42.39 16.4 45.52 19.53 46.03 18.29 42.9 15.17 30.56 15.17 25.91 19.82 17.77 19.82 2.8 19.82 3.31 21.05zM124.89 21.13L124.89-4.85 121.27-8.47 121.27-95.56 122.5-95.56 122.5-8.98 126.12-5.36 126.12 21.72 122.07 25.01 121.29 24.05 124.89 21.13z" class="cls-12"/><path d="M121.66 25.55c0-.68-.55-1.24-1.24-1.24s-1.24.55-1.24 1.24.55 1.24 1.24 1.24 1.24-.55 1.24-1.24M122.89 25.55c0-1.37-1.11-2.47-2.47-2.47s-2.47 1.11-2.47 2.47 1.11 2.47 2.47 2.47 2.47-1.11 2.47-2.47zM120.12 13.57L120.12-12.41 116.5-16.03 116.5-103.12 117.74-103.12 117.74-16.54 121.36-12.92 121.36 14.16 117.3 17.45 116.52 16.49 120.12 13.57z" class="cls-12"/><path d="M116.89 17.99c0-.68-.55-1.24-1.24-1.24s-1.24.55-1.24 1.24.55 1.24 1.24 1.24 1.24-.55 1.24-1.24M118.13 17.99c0-1.37-1.11-2.47-2.47-2.47s-2.47 1.11-2.47 2.47 1.11 2.47 2.47 2.47 2.47-1.11 2.47-2.47zM154.9 145.19c-.68 0-1.24.55-1.24 1.24s.55 1.24 1.24 1.24 1.24-.55 1.24-1.24-.55-1.24-1.24-1.24M154.9 143.96c-1.37 0-2.47 1.11-2.47 2.47s1.11 2.47 2.47 2.47 2.47-1.11 2.47-2.47-1.11-2.47-2.47-2.47z" class="cls-12"/><path d="M108.53 162.81L104.64 166.7 94.48 166.7 89.83 162.05 61.28 162.05 58.73 164.6 6.17 164.6 -4.79 153.85 -31.24 153.85 -33.79 156.4 -99.21 156.4 -99.21 155.16 -34.3 155.16 -32.99 153.85 -31.76 152.61 -4.28 152.61 6.69 163.36 58.22 163.36 59.54 162.05 60.77 160.81 90.34 160.81 94.99 165.46 104.13 165.46 108.02 161.57 108.02 161.57 108.02 161.57 131.7 161.57 134.98 158.29 142.53 158.29 153.28 147.53 154.52 148.04 143.04 159.53 135.5 159.53 132.21 162.81 108.53 162.81z" class="cls-12"/></g><path fill="url(#linear-gradient)" fill-rule="evenodd" stroke-width="0" d="M156.17,78.5v-43.95c0-3.79-1.94-7.14-4.88-9.12-.01,0-.03-.02-.04-.03-.01,0-.03-.02-.04-.03-.01,0-.03-.02-.04-.03-.01,0-.02-.02-.04-.03-.01,0-.03-.02-.04-.03-.01,0-.03-.02-.04-.03-.01,0-.03-.02-.04-.03-.01,0-.03-.02-.04-.03-.01,0-.03-.02-.04-.03-.01,0-.03-.02-.04-.03-.01,0-.03-.02-.04-.03-.01,0-.02-.02-.04-.03-.01,0-.03-.02-.04-.03-.01,0-.03-.02-.04-.03-.01,0-.03-.02-.04-.03-.01,0-.03-.02-.04-.03-.01,0-.02-.02-.04-.03-.01,0-.03-.02-.04-.03-.01,0-.03-.02-.04-.03-.01,0-.03-.02-.04-.03-.01,0-.03-.02-.04-.03-.01,0-.03-.02-.04-.03-.01,0-.03-.02-.04-.03-.01,0-.03-.02-.04-.03-.01,0-.02-.02-.04-.03-.01,0-.03-.02-.04-.03-.01,0-.03-.02-.04-.03-.01,0-.03-.02-.04-.03-.01,0-.03-.02-.04-.03-.01,0-.02-.02-.04-.03-.01,0-.03-.02-.04-.03-.01,0-.03-.02-.04-.03-.01,0-.02-.02-.04-.03-.01,0-.03-.02-.04-.03-.01,0-.03-.02-.04-.03-.01,0-.03-.02-.04-.03-.01,0-.03-.02-.04-.03-.01,0-.02-.02-.04-.03-.01,0-.03-.02-.04-.03-.01,0-.03-.02-.04-.03-.01,0-.03-.02-.04-.03-.01,0-.03-.02-.04-.03-.01,0-.03-.02-.04-.03-.01,0-.03-.02-.04-.03-.01,0-.03-.02-.04-.03-.01,0-.02-.02-.04-.03-.01,0-.03-.02-.04-.03-.01,0-.03-.02-.04-.03-.01,0-.03-.02-.04-.03-.01,0-.03-.02-.04-.03-.01,0-.02-.02-.04-.03-.01,0-.03-.02-.04-.03-.01,0-.03-.02-.04-.03-.01,0-.03-.02-.04-.03-.01,0-.03-.02-.04-.03-.01,0-.03-.02-.04-.03-.01,0-.03-.02-.04-.03-.01,0-.03-.02-.04-.03-.01,0-.02-.02-.04-.03-.01,0-.03-.02-.04-.03-1.76-1.2-3.88-1.9-6.15-1.9h-38.46c-6.04,0-10.99,4.95-10.99,10.99v43.95l.04.02h0s.04.03.04.03h0s.04.03.04.03h0s.04.03.04.03h0s.04.03.04.03h0s.04.03.04.03h0s.04.03.04.03h0s.04.03.04.03h0s.04.03.04.03h0s.04.03.04.03h0s.04.03.04.03h0s.04.03.04.03h0s.04.03.04.03h0s.04.03.04.03h0s.04.03.04.03h0s.04.03.04.03h0s.04.03.04.03h0s.04.03.04.03h0s.04.03.04.03h0s.04.03.04.03h0s.04.03.04.03h0s.04.03.04.03h0s.04.03.04.03h0s.04.03.04.03h0s.04.03.04.03h0s.04.03.04.03h0s.04.03.04.03h0s.04.03.04.03h0s.04.03.04.03h0s.04.03.04.03h0s.04.03.04.03h0s.04.03.04.03h0s.04.03.04.03h0s.04.03.04.03h0s.04.03.04.03h0s.04.03.04.03h0s.04.03.04.03h0s.04.03.04.03h0s.04.03.04.03h0s.04.03.04.03h0s.04.03.04.03h0s.04.03.04.03h0s.04.03.04.03h0s.04.03.04.03h0s.04.03.04.03h0s.04.03.04.03h0s.04.03.04.03h0s.04.03.04.03h0s.04.03.04.03h0s.04.03.04.03h0s.04.03.04.03h0s.04.03.04.03h0s.04.03.04.03h0s.04.03.04.03h0s.04.03.04.03h0s.04.03.04.03h0s.04.03.04.03h0s.04.03.04.03h0s.04.03.04.03h0s.04.03.04.03h0s.04.03.04.03h0s47.12,27.11,47.12,27.11v37.25h-36.13v-36.06l-.04-.02h0s-.04-.03-.04-.03h0s-.04-.03-.04-.03h0s-.04-.03-.04-.03h0s-.04-.03-.04-.03h0s-.04-.03-.04-.03h0s-.04-.03-.04-.03h0s-.04-.03-.04-.03h0s-.04-.03-.04-.03h0s-.04-.03-.04-.03h0s-.04-.03-.04-.03h0s-.04-.03-.04-.03h0s-.04-.03-.04-.03h0s-.04-.03-.04-.03h0s-.04-.03-.04-.03h0s-.04-.03-.04-.03h0s-.04-.03-.04-.03h0s-.04-.03-.04-.03h0s-.04-.03-.04-.03h0s-.04-.03-.04-.03h0s-.04-.03-.04-.03h0s-.04-.03-.04-.03h0s-.04-.03-.04-.03h0s-.04-.03-.04-.03h0s-.04-.03-.04-.03h0s-.04-.03-.04-.03h0s-.04-.03-.04-.03h0s-.04-.03-.04-.03h0s-.04-.03-.04-.03h0s-.04-.03-.04-.03h0s-.04-.03-.04-.03h0s-.04-.03-.04-.03h0s-.04-.03-.04-.03h0s-.04-.03-.04-.03h0s-.04-.03-.04-.03h0s-.04-.03-.04-.03h0s-.04-.03-.04-.03h0s-.04-.03-.04-.03h0s-.04-.03-.04-.03h0s-.04-.03-.04-.03h0s-.04-.03-.04-.03h0s-.04-.03-.04-.03h0s-.04-.03-.04-.03h0s-.04-.03-.04-.03h0s-.04-.03-.04-.03h0s-.04-.03-.04-.03h0s-.04-.03-.04-.03h0s-.04-.03-.04-.03h0s-.04-.03-.04-.03h0s-.04-.03-.04-.03h0s-.04-.03-.04-.03h0s-.04-.03-.04-.03h0s-.04-.03-.04-.03h0s-.04-.03-.04-.03h0s-.04-.03-.04-.03h0s-.04-.03-.04-.03h0s-.04-.03-.04-.03h0s-.04-.03-.04-.03h0s-.04-.03-.04-.03h0s-.04-.03-.04-.03h0s-.04-.03-.04-.03h0s-10.99-6.32-10.99-6.32v43.95c0,3.78,1.94,7.14,4.88,9.12.01,0,.03.02.04.03.01,0,.03.02.04.03.01,0,.03.02.04.03.01,0,.03.02.04.03.01,0,.03.02.04.03.01,0,.03.02.04.03.01,0,.03.02.04.03.01,0,.03.02.04.03.01,0,.03.02.04.03.01,0,.03.02.04.03.01,0,.03.02.04.03.01,0,.03.02.04.03.01,0,.03.02.04.03.01,0,.03.02.04.03.01,0,.03.02.04.03.01,0,.03.02.04.03.01,0,.02.02.04.03.01,0,.03.02.04.03.01,0,.02.02.04.03.01,0,.03.02.04.03.01,0,.03.02.04.03.01,0,.03.02.04.03.01,0,.03.02.04.03.01,0,.03.02.04.03.01,0,.03.02.04.03.01,0,.03.02.04.03.01,0,.03.02.04.03.01,0,.03.02.04.03.01,0,.03.02.04.03.01,0,.03.02.04.03.01,0,.03.02.04.03.01,0,.03.02.04.03.01,0,.03.02.04.03.01,0,.03.02.04.03.01,0,.03.02.04.03.01,0,.03.02.04.03.01,0,.03.02.04.03.01,0,.03.02.04.03.01,0,.03.02.04.03.01,0,.02.02.04.03.01,0,.03.02.04.03.01,0,.03.02.04.03.01,0,.03.02.04.03.01,0,.03.02.04.03.01,0,.03.02.04.03.01,0,.03.02.04.03.01,0,.03.02.04.03.01,0,.03.02.04.03.01,0,.03.02.04.03.01,0,.03.02.04.03.01,0,.03.02.04.03.01,0,.03.02.04.03.01,0,.03.02.04.03.01,0,.03.02.04.03.01,0,.03.02.04.03.01,0,.03.02.04.03.01,0,.03.02.04.03.01,0,.03.02.04.03.01,0,.03.02.04.03.01,0,.03.02.04.03,1.76,1.2,3.88,1.9,6.15,1.9h38.46c6.04,0,10.99-4.94,10.99-10.99v-43.95l-.04-.02h0s-.04-.03-.04-.03h0s-.04-.03-.04-.03h0s-.04-.03-.04-.03h0s-.04-.03-.04-.03h0s-.04-.03-.04-.03h0s-.04-.03-.04-.03h0s-.04-.03-.04-.03h0s-.04-.03-.04-.03h0s-.04-.03-.04-.03h0s-.04-.03-.04-.03h0s-.04-.03-.04-.03h0s-.04-.03-.04-.03h0s-.04-.03-.04-.03h0s-.04-.03-.04-.03h0s-.04-.03-.04-.03h0s-.04-.03-.04-.03h0s-.04-.03-.04-.03h0s-.04-.03-.04-.03h0s-.04-.03-.04-.03h0s-.04-.03-.04-.03h0s-.04-.03-.04-.03h0s-.04-.03-.04-.03h0s-.04-.03-.04-.03h0s-.04-.03-.04-.03h0s-.04-.03-.04-.03h0s-.04-.03-.04-.03h0s-.04-.03-.04-.03h0s-.04-.03-.04-.03h0s-.04-.03-.04-.03h0s-.04-.03-.04-.03h0s-.04-.03-.04-.03h0s-.04-.03-.04-.03h0s-.04-.03-.04-.03h0s-.04-.03-.04-.03h0s-.04-.03-.04-.03h0s-.04-.03-.04-.03h0s-.04-.03-.04-.03h0s-.04-.03-.04-.03h0s-.04-.03-.04-.03h0s-.04-.03-.04-.03h0s-.04-.03-.04-.03h0s-.04-.03-.04-.03h0s-.04-.03-.04-.03h0s-.04-.03-.04-.03h0s-.04-.03-.04-.03h0s-.04-.03-.04-.03h0s-.04-.03-.04-.03h0s-.04-.03-.04-.03h0s-.04-.03-.04-.03h0s-.04-.03-.04-.03h0s-.04-.03-.04-.03h0s-.04-.03-.04-.03h0s-.04-.03-.04-.03h0s-.04-.03-.04-.03h0s-.04-.03-.04-.03h0s-.04-.03-.04-.03h0s-.04-.03-.04-.03h0s-.04-.03-.04-.03h0s-.04-.03-.04-.03h0s-.04-.03-.04-.03h0s-47.12-27.11-47.12-27.11v-37.25h36.13v36.06l.04.02h0s.04.03.04.03h0s.04.03.04.03h0s.04.03.04.03h0s.04.03.04.03h0s.04.03.04.03h0s.04.03.04.03h0s.04.03.04.03h0s.04.03.04.03h0s.04.03.04.03h0s.04.03.04.03h0s.04.03.04.03h0s.04.03.04.03h0s.04.03.04.03h0s.04.03.04.03h0s.04.03.04.03h0s.04.03.04.03h0s.04.03.04.03h0s.04.03.04.03h0s.04.03.04.03h0s.04.03.04.03h0s.04.03.04.03h0s.04.03.04.03h0s.04.03.04.03h0s.04.03.04.03h0s.04.03.04.03h0s.04.03.04.03h0s.04.03.04.03h0s.04.03.04.03h0s.04.03.04.03h0s.04.03.04.03h0s.04.03.04.03h0s.04.03.04.03h0s.04.03.04.03h0s.04.03.04.03h0s.04.03.04.03h0s.04.03.04.03h0s.04.03.04.03h0s.04.03.04.03h0s.04.03.04.03h0s.04.03.04.03h0s.04.03.04.03h0s.04.03.04.03h0s.04.03.04.03h0s.04.03.04.03h0s.04.03.04.03h0s.04.03.04.03h0s.04.03.04.03h0s.04.03.04.03h0s.04.03.04.03h0s.04.03.04.03h0s.04.03.04.03h0s.04.03.04.03h0s.04.03.04.03h0s.04.03.04.03h0s.04.03.04.03h0s.04.03.04.03h0s.04.03.04.03h0s.04.03.04.03h0s.04.03.04.03h0s.04.03.04.03h0s10.99,6.33,10.99,6.33Z"/><path fill="url(#linear-gradient-2)" fill-rule="evenodd" stroke-width="0" d="M178.14,72.18V1.58h-.04v-.03h-.04v-.03h-.04v-.03h-.04v-.03h-.04v-.03h-.04v-.03h-.04v-.03h-.04v-.03h-.04v-.03h-.04v-.03h-.04v-.03h-.04v-.03h-.04v-.03h-.04v-.03h-.04v-.03h-.04v-.03h-.04v-.03h-.04v-.03h-.04v-.03h-.04v-.03h-.04v-.03h-.04v-.03h-.04v-.03h-.04v-.03h-.04v-.03h-.04v-.03h-.04v-.03h-.04v-.03h-.04v-.03h-.04v-.03h-.04v-.03h-.04v-.03h-.04v-.03h-.04v-.03h-.04v-.03h-.04v-.03h-.04v-.03h-.04v-.03h-.04v-.03h-.04v-.03h-.04v-.03h-.04v-.03h-.04v-.03h-.04v-.03h-.04v-.03h-.04v-.03h-.04v-.03h-.04v-.03h-.04v-.03h-.04v-.03h-.04v-.03h-.04v-.03h-.04v-.03h-.04v-.03h-.04v-.03h-.04v-.03h-.04v-.03h-.04v-.03h-.04v-.03h-.04v-.03h-.04v-.03H10.99l-.02.28h0s-.02.26-.02.26h0S0,175.82,0,175.82h.04s0,.03,0,.03h.04s0,.03,0,.03h.04s0,.03,0,.03h.04s0,.03,0,.03h.04s0,.03,0,.03h.04s0,.03,0,.03h.04s0,.03,0,.03h.04s0,.03,0,.03h.04s0,.03,0,.03h.04s0,.03,0,.03h.04s0,.03,0,.03h.04s0,.03,0,.03h.04s0,.03,0,.03h.04s0,.03,0,.03h.04s0,.03,0,.03h.04s0,.03,0,.03h.04s0,.03,0,.03h.04s0,.03,0,.03h.04s0,.03,0,.03h.04s0,.03,0,.03h.04s0,.03,0,.03h.04s0,.03,0,.03h.04s0,.03,0,.03h.04s0,.03,0,.03h.04s0,.03,0,.03h.04s0,.03,0,.03h.04s0,.03,0,.03h.04s0,.03,0,.03h.04s0,.03,0,.03h.04s0,.03,0,.03h.04s0,.03,0,.03h.04s0,.03,0,.03h.04s0,.03,0,.03h.04s0,.03,0,.03h.04s0,.03,0,.03h.04s0,.03,0,.03h.04s0,.03,0,.03h.04s0,.03,0,.03h.04s0,.03,0,.03h.04s0,.03,0,.03h.04s0,.03,0,.03h.04s0,.03,0,.03h.04s0,.03,0,.03h.04s0,.03,0,.03h.04s0,.03,0,.03h.04s0,.03,0,.03h.04s0,.03,0,.03h.04s0,.03,0,.03h.04s0,.03,0,.03h.04s0,.03,0,.03h.04s0,.03,0,.03h.04s0,.03,0,.03h.04s0,.03,0,.03h.04s0,.03,0,.03h.04s0,.03,0,.03h.04s0,.03,0,.03h.04s0,.03,0,.03h.04s0,.03,0,.03h.04s0,.03,0,.03h.04s0,.03,0,.03h.04v.03s162.5,0,162.5,0c13.19.27,13.31-12.57,13.31-12.57v-51.71l-2.36-1.36.03-.22-10.99-6.32v37.64c0,12.09-9.89,21.98-21.98,21.98H32.97c-4.04,0-7.83-1.11-11.09-3.03-5.2-4.03-8.56-10.32-8.56-17.37V34.54c0-12.09,9.89-21.98,21.98-21.98h109.89c4.04,0,7.83,1.11,11.09,3.03,5.2,4.03,8.56,10.32,8.56,17.37v43.96l.04-.02v.05l.04-.02v.05l.04-.02v.05l.04-.02v.05l.04-.02v.05l.04-.02v.05l.04-.02v.05l.04-.02v.05l.04-.02v.05l.04-.02v.05l.04-.02v.05l.04-.02v.05l.04-.02v.05l.04-.02v.05l.04-.02v.05l.04-.02v.05l.04-.02v.05l.04-.02v.05l.04-.02v.05l.04-.02v.05l.04-.02v.05l.04-.02v.05l.04-.02v.05l.04-.02v.05l.04-.02v.05l.04-.02v.05l.04-.02v.05l.04-.02v.05l.04-.02v.05l.04-.02v.05l.04-.02v.05l.04-.02v.05l.04-.02v.05l.04-.02v.05l.04-.02v.05l.04-.02v.05l.04-.02v.05l.04-.02v.05l.04-.02v.05l.04-.02v.05l.04-.02v.05l.04-.02v.05l.04-.02v.05l.04-.02v.05l.04-.02v.05l.04-.02v.05l.04-.02v.05l.04-.02v.05l.04-.02v.05l.04-.02v.05l.04-.02v.05l.04-.02v.05l.04-.02v.05l.04-.02v.05l.04-.02v.05l.04-.02v.05l.04-.02v.05l.04-.02v.05l.04-.02v.05l.04-.02v.05l.04-.02v.05l10.99-6.32ZM21.98,170.33H7.82v-14.16l14.16,14.16Z"/><path fill="url(#linear-gradient-3)" fill-rule="evenodd" stroke-width="0" d="M79.87,25.43s-.03-.02-.04-.03c-.01,0-.03-.02-.04-.03-.01,0-.03-.02-.04-.03-.01,0-.03-.02-.04-.03-.01,0-.03-.02-.04-.03-.01,0-.03-.02-.04-.03-.01,0-.02-.02-.04-.03-.01,0-.03-.02-.04-.03-.01,0-.03-.02-.04-.03-.01,0-.03-.02-.04-.03-.01,0-.03-.02-.04-.03-.01,0-.02-.02-.04-.03-.01,0-.03-.02-.04-.03-.01,0-.03-.02-.04-.03-.01,0-.03-.02-.04-.03-.01,0-.03-.02-.04-.03-.01,0-.02-.02-.04-.03-.01,0-.03-.02-.04-.03-.01,0-.03-.02-.04-.03-.01,0-.02-.02-.04-.03-.01,0-.03-.02-.04-.03-.01,0-.03-.02-.04-.03-.01,0-.03-.02-.04-.03-.01,0-.03-.02-.04-.03-.01,0-.03-.02-.04-.03-.01,0-.03-.02-.04-.03-.01,0-.03-.02-.04-.03-.01,0-.02-.02-.04-.03-.01,0-.03-.02-.04-.03-.01,0-.03-.02-.04-.03-.01,0-.03-.02-.04-.03-.01,0-.03-.02-.04-.03-.01,0-.02-.02-.04-.03-.01,0-.03-.02-.04-.03-.01,0-.03-.02-.04-.03s-.03-.02-.04-.03c-.01,0-.03-.02-.04-.03-.01,0-.03-.02-.04-.03-.01,0-.03-.02-.04-.03-.01,0-.03-.02-.04-.03-.01,0-.02-.02-.04-.03-.01,0-.03-.02-.04-.03-.01,0-.02-.02-.04-.03-.01,0-.03-.02-.04-.03-.01,0-.03-.02-.04-.03-.01,0-.03-.02-.04-.03-.01,0-.03-.02-.04-.03-.01,0-.03-.02-.04-.03-.01,0-.02-.02-.04-.03-.01,0-.03-.02-.04-.03-.01,0-.02-.02-.04-.03-.01,0-.03-.02-.04-.03-.01,0-.03-.02-.04-.03-.01,0-.02-.02-.04-.03-.01,0-.03-.02-.04-.03-.01,0-.03-.02-.04-.03-.01,0-.03-.02-.04-.03-.01,0-.03-.02-.04-.03-.01,0-.03-.02-.04-.03-.01,0-.03-.02-.04-.03-1.76-1.2-3.88-1.9-6.15-1.9h-38.46c-6.04,0-10.99,4.94-10.99,10.99v109.89c0,3.79,1.94,7.14,4.88,9.12.01,0,.02.02.04.03.01,0,.03.02.04.03.01,0,.03.02.04.03s.03.02.04.03c.01,0,.03.02.04.03.01,0,.03.02.04.03.01,0,.03.02.04.03.01,0,.03.02.04.03.01,0,.02.02.04.03.01,0,.03.02.04.03.01,0,.03.02.04.03.01,0,.03.02.04.03.01,0,.03.02.04.03.01,0,.02.02.04.03.01,0,.03.02.04.03.01,0,.03.02.04.03.01,0,.02.02.04.03.01,0,.03.02.04.03.01,0,.02.02.04.03.01,0,.03.02.04.03.01,0,.03.02.04.03.01,0,.02.02.04.03.01,0,.03.02.04.03.01,0,.02.02.04.03.01,0,.03.02.04.03.01,0,.03.02.04.03s.03.02.04.03c.01,0,.03.02.04.03.01,0,.03.02.04.03.01,0,.02.02.04.03.01,0,.03.02.04.03.01,0,.02.02.04.03.01,0,.03.02.04.03.01,0,.03.02.04.03.01,0,.02.02.04.03.01,0,.03.02.04.03.01,0,.03.02.04.03.01,0,.02.02.04.03.01,0,.03.02.04.03.01,0,.02.02.04.03.01,0,.03.02.04.03.01,0,.03.02.04.03.01,0,.02.02.04.03.01,0,.03.02.04.03.01,0,.02.02.04.03.01,0,.03.02.04.03.01,0,.03.02.04.03.01,0,.02.02.04.03.01,0,.03.02.04.03.01,0,.03.02.04.03.01,0,.03.02.04.03.01,0,.03.02.04.03.01,0,.02.02.04.03.01,0,.03.02.04.03.01,0,.03.02.04.03.01,0,.02.02.04.03.01,0,.03.02.04.03.01,0,.03.02.04.03s.03.02.04.03c.01,0,.03.02.04.03,1.76,1.2,3.88,1.9,6.15,1.9h38.46c6.04,0,10.99-4.94,10.99-10.99V34.54c0-3.79-1.94-7.14-4.88-9.12ZM71.43,142.85h-36.13V34.54h36.13v108.31Z"/><path fill="url(#linear-gradient-4)" fill-rule="evenodd" stroke-width="0" d="M153.84,76.92v-43.95c0-6.04-4.95-10.99-10.99-10.99h-38.46c-6.04,0-10.99,4.95-10.99,10.99v43.95l49.45,28.44v37.49h-38.46v-37.63l-10.99-6.32v43.95c0,6.04,4.94,10.99,10.99,10.99h38.46c6.04,0,10.99-4.95,10.99-10.99v-43.95l-49.45-28.44v-37.49h38.46v37.63l10.99,6.32Z"/><path fill="url(#linear-gradient-5)" fill-rule="evenodd" stroke-width="0" d="M71.43,21.98h-38.46c-6.04,0-10.99,4.94-10.99,10.99v109.89c0,6.04,4.95,10.99,10.99,10.99h38.46c6.04,0,10.99-4.94,10.99-10.99V32.97c0-6.04-4.95-10.99-10.99-10.99ZM71.43,142.85h-38.46V32.97h38.46v109.89Z"/><path fill="url(#linear-gradient-6)" fill-rule="evenodd" stroke-width="0" d="M164.83,76.96v-.04l10.99-6.32V0H8.8C4.37.88.88,4.37,0,8.8v167.02h165.92c5.54-.68,9.83-5.39,9.83-11.11,0-.11.03-.21.06-.29v-52.88l-10.99-6.32v-.15h0s0,37.79,0,37.79c0,12.09-9.89,21.98-21.98,21.98H32.97c-12.09,0-21.98-9.89-21.98-21.98V32.97c0-12.09,9.89-21.98,21.98-21.98h109.89c12.09,0,21.98,9.89,21.98,21.98v43.99h0ZM21.98,170.33H5.49v-16.48l16.48,16.48Z"/><g clip-path="url(#clippath-1)"><path fill="url(#linear-gradient-7)" stroke-width="0" d="M-25.9,62.77s172.12,9.96,241.55,120.23c69.43,110.26-70.15,102.96-70.15,102.96l-179.35-51.15,7.96-172.04Z"/></g><path fill="url(#linear-gradient-8)" stroke-width="0" d="M74.2,186.76h-21.13s-8.45.89-9.49,8.6v16.31s1.04,8.01,8.6,8.9h22.91c7.56-.89,8.6-8.9,8.6-8.9v-16.31c-1.04-7.71-9.49-8.6-9.49-8.6ZM76.28,210.28c0,3.21-3.56,3.02-3.56,3.02h-18.17s-3.56.19-3.56-3.02v-13s.3-2.52,2.97-2.82h19.35c2.67.3,2.97,2.82,2.97,2.82v13Z"/><g stroke-width="0"><path fill="url(#linear-gradient-9)" d="M0,194.01v-7.26h24.14s7.96.84,8.93,8.09v3.49s-.98,7.54-8.09,8.37H0v-4.61l7.12-2.23h15.63s3.35.18,3.35-2.84v-.37s-.28-2.37-2.79-2.65H0Z"/><path fill="url(#linear-gradient-10)" d="M0,207.07v-7.71h25.65s8.45.89,9.49,8.6v3.71s-1.04,8.01-8.6,8.9H0v-21.2l7.56-3.41v17.35h16.61s3.56.19,3.56-3.02v-.39s-.3-2.52-2.97-2.82H0Z"/></g><path fill="url(#linear-gradient-11)" stroke-width="0" d="M101.34,206.98l-.84-7.62h17.29s8.45.89,9.49,8.6v3.71s-1.04,8.01-8.6,8.9h-26.54v-7.27h24.17s3.56.19,3.56-3.02v-.39s-.3-2.52-2.97-2.82l-15.56-.09Z"/><path fill="url(#linear-gradient-12)" stroke-width="0" d="M168.4,208.2v2.08c0,3.21-3.56,3.02-3.56,3.02h-18.17s-3.56.19-3.56-3.02v-13s.3-2.52,2.97-2.82h19.35c2.67.3,2.97,2.82,2.97,2.82v1.93h7.41v-3.86c-1.04-7.71-9.49-8.6-9.49-8.6h-21.13s-8.45.89-9.49,8.6v16.31s1.04,8.01,8.6,8.9h22.91c7.56-.89,8.6-8.9,8.6-8.9v-3.47h-7.41Z"/><path fill="url(#linear-gradient-13)" stroke-width="0" d="M113.23,199.36h-12.19c-1.62-.7-1.84-2.42-1.84-2.42v-.37c0-3.06,3.39-2.88,3.39-2.88h15.84c6.78-1.21,7.21-6.93,7.21-6.93h-25.32c-7.21.85-8.2,8.49-8.2,8.49v3.54c.99,7.36,9.05,8.2,9.05,8.2h.15l15.56.09c2.67.3,2.97,2.82,2.97,2.82v.39h0s0,0,0,0c.89-7.43-4.66-10.18-6.62-10.92Z"/></g></g></svg>