<svg xmlns="http://www.w3.org/2000/svg" xmlns:xlink="http://www.w3.org/1999/xlink" width="100" height="80.347" viewBox="0 0 100 80.347">
  <defs>
    <clipPath id="clip-path">
      <rect id="Rectangle_3" data-name="Rectangle 3" width="100" height="80.347" transform="translate(0 0)" fill="#202967"/>
    </clipPath>
  </defs>
  <g id="Groupe_124" data-name="Groupe 124" transform="translate(0 0)">
    <g id="Groupe_1" data-name="Groupe 1" transform="translate(0 0)" clip-path="url(#clip-path)">
      <path id="Tracé_1" data-name="Tracé 1" d="M41.614,72.381A12.323,12.323,0,0,1,29.305,60.071V37.053a2.888,2.888,0,1,1,5.775,0V60.071a6.534,6.534,0,0,0,13.03.71,2.888,2.888,0,0,1,5.743.617A12.283,12.283,0,0,1,41.614,72.381" transform="translate(-10.5 -12.241)" fill="#202967"/>
      <path id="Tracé_2" data-name="Tracé 2" d="M2.888,60.14A2.888,2.888,0,0,1,0,57.252V12.309a12.309,12.309,0,0,1,24.619,0,2.888,2.888,0,1,1-5.775,0,6.534,6.534,0,0,0-13.068,0V57.252A2.888,2.888,0,0,1,2.888,60.14" transform="translate(0 0)" fill="#202967"/>
      <path id="Tracé_3" data-name="Tracé 3" d="M12.125,39.457H3.067a2.567,2.567,0,0,1,0-5.134h9.058a2.567,2.567,0,1,1,0,5.134" transform="translate(-0.179 -12.298)" fill="#202967"/>
      <path id="Tracé_4" data-name="Tracé 4" d="M35.179,17.416a3,3,0,1,1-3-3,3,3,0,0,1,3,3" transform="translate(-10.454 -5.165)" fill="#008fd6"/>
      <path id="Tracé_5" data-name="Tracé 5" d="M80.979,63.487a2.928,2.928,0,0,1-.365-.022A2.889,2.889,0,0,1,78.1,60.348c.038-.78.065-6.867.065-7.64V46.065a6.535,6.535,0,0,0-12.278-3.119,2.888,2.888,0,1,1-5.072-2.763,12.311,12.311,0,0,1,23.125,5.881v6.644c0,.074-.011,7.558-.1,8.252a2.889,2.889,0,0,1-2.861,2.526M78.11,60.238c0,.021-.006.051-.01.09,0-.03.006-.06.01-.09" transform="translate(-21.662 -12.094)" fill="#202967"/>
      <path id="Tracé_6" data-name="Tracé 6" d="M100.262,85.233a12.324,12.324,0,0,1-12.31-12.309,2.888,2.888,0,1,1,5.775,0,6.535,6.535,0,0,0,13.069,0,2.888,2.888,0,1,1,5.775,0,12.324,12.324,0,0,1-12.31,12.309" transform="translate(-31.512 -25.093)" fill="#202967"/>
      <path id="Tracé_7" data-name="Tracé 7" d="M129.779,72.233a12.324,12.324,0,0,1-12.31-12.309V46.065a12.31,12.31,0,1,1,24.619,0V59.924a12.323,12.323,0,0,1-12.309,12.309m0-32.7a6.542,6.542,0,0,0-6.535,6.535V59.924a6.541,6.541,0,0,0,6.534,6.534h0a6.541,6.541,0,0,0,6.534-6.534V46.065a6.542,6.542,0,0,0-6.534-6.535" transform="translate(-42.088 -12.094)" fill="#202967"/>
      <path id="Tracé_8" data-name="Tracé 8" d="M70.99,79.459A12.323,12.323,0,0,1,58.681,67.15v-.919a12.31,12.31,0,1,1,24.619,0v.919A12.324,12.324,0,0,1,70.99,79.459m0-19.763a6.542,6.542,0,0,0-6.534,6.535v.919a6.534,6.534,0,0,0,13.068,0v-.919A6.542,6.542,0,0,0,70.99,59.7" transform="translate(-21.025 -19.319)" fill="#202967"/>
      <path id="Tracé_9" data-name="Tracé 9" d="M120.358,92.588A2.888,2.888,0,0,1,117.47,89.7V37.053a2.888,2.888,0,1,1,5.775,0V89.7a2.888,2.888,0,0,1-2.888,2.888" transform="translate(-42.089 -12.241)" fill="#202967"/>
      <path id="Tracé_10" data-name="Tracé 10" d="M48.539,115.241V104.418h4.407a3,3,0,0,1,1.6.441,3.3,3.3,0,0,1,1.152,1.2,3.5,3.5,0,0,1,0,3.371,3.427,3.427,0,0,1-1.152,1.213,2.925,2.925,0,0,1-1.6.456H50.209v4.143Zm1.67-5.752h2.706a1.284,1.284,0,0,0,.757-.239,1.779,1.779,0,0,0,.549-.634,1.839,1.839,0,0,0,.208-.874,1.793,1.793,0,0,0-.208-.866,1.734,1.734,0,0,0-.549-.619,1.318,1.318,0,0,0-.757-.232H50.209Z" transform="translate(-17.391 -37.412)" fill="#202967"/>
      <path id="Tracé_11" data-name="Tracé 11" d="M66.742,116.811a3.209,3.209,0,0,1-1.833-.557,3.984,3.984,0,0,1-1.322-1.515,4.65,4.65,0,0,1-.5-2.164,4.586,4.586,0,0,1,.5-2.172,3.847,3.847,0,0,1,1.361-1.492,3.534,3.534,0,0,1,1.925-.542,3.461,3.461,0,0,1,1.16.185,2.938,2.938,0,0,1,.92.518,2.973,2.973,0,0,1,.649.766,2.383,2.383,0,0,1,.317.928l-.355-.124v-2.1h1.608v8.118H69.571v-1.933l.371-.108a2.183,2.183,0,0,1-.379.812,3.031,3.031,0,0,1-.727.7,3.937,3.937,0,0,1-.973.495,3.4,3.4,0,0,1-1.12.185m.417-1.469a2.337,2.337,0,0,0,1.283-.355,2.459,2.459,0,0,0,.873-.982,3.136,3.136,0,0,0,.316-1.43,3.053,3.053,0,0,0-.316-1.407,2.465,2.465,0,0,0-.873-.973,2.332,2.332,0,0,0-1.283-.356,2.264,2.264,0,0,0-1.261.356,2.48,2.48,0,0,0-.865.973,3.038,3.038,0,0,0-.318,1.407,3.12,3.12,0,0,0,.318,1.43,2.474,2.474,0,0,0,.865.982,2.269,2.269,0,0,0,1.261.355" transform="translate(-22.605 -38.828)" fill="#202967"/>
      <path id="Tracé_12" data-name="Tracé 12" d="M80.127,116.657V108.54h1.608v2.551l-.155-.619a2.836,2.836,0,0,1,.579-1.067,3.153,3.153,0,0,1,.944-.758,2.359,2.359,0,0,1,1.105-.278,2.609,2.609,0,0,1,.5.047,1.808,1.808,0,0,1,.378.108l-.417,1.732a2.749,2.749,0,0,0-.41-.132,1.879,1.879,0,0,0-.441-.054,1.991,1.991,0,0,0-.8.162,2.111,2.111,0,0,0-.665.448,2.211,2.211,0,0,0-.456.665,1.991,1.991,0,0,0-.17.827v4.484Z" transform="translate(-28.709 -38.828)" fill="#202967"/>
      <path id="Tracé_13" data-name="Tracé 13" d="M91.819,104.718a1.106,1.106,0,0,1-.789-.263,1.1,1.1,0,0,1,.008-1.469,1.071,1.071,0,0,1,.781-.278,1.107,1.107,0,0,1,.789.262,1.1,1.1,0,0,1-.008,1.469,1.074,1.074,0,0,1-.781.278m-.773,1.794h1.591v8.117H91.047Z" transform="translate(-32.516 -36.799)" fill="#202967"/>
      <path id="Tracé_14" data-name="Tracé 14" d="M100.893,116.812a4.578,4.578,0,0,1-1.84-.356,3.419,3.419,0,0,1-1.361-1.051l1.083-.928a2.847,2.847,0,0,0,1.013.781,3.081,3.081,0,0,0,1.245.239,1.853,1.853,0,0,0,.517-.069,1.24,1.24,0,0,0,.418-.209.924.924,0,0,0,.271-.333.969.969,0,0,0,.092-.425.807.807,0,0,0-.293-.649,2.5,2.5,0,0,0-.488-.239,7.755,7.755,0,0,0-.857-.271,7.2,7.2,0,0,1-1.47-.526,2.783,2.783,0,0,1-.882-.665A1.96,1.96,0,0,1,98,111.47a2.558,2.558,0,0,1-.108-.766,1.968,1.968,0,0,1,.225-.936,2.342,2.342,0,0,1,.619-.742,2.843,2.843,0,0,1,.927-.487,3.717,3.717,0,0,1,1.136-.17,4.3,4.3,0,0,1,1.136.154,4.022,4.022,0,0,1,1.043.449,3.127,3.127,0,0,1,.8.7l-.912,1a3.914,3.914,0,0,0-.642-.519,3.345,3.345,0,0,0-.7-.348,2.006,2.006,0,0,0-.649-.123,2.574,2.574,0,0,0-.587.062,1.281,1.281,0,0,0-.441.185.823.823,0,0,0-.271.309.923.923,0,0,0-.092.418,1.036,1.036,0,0,0,.1.379.843.843,0,0,0,.24.3,2.472,2.472,0,0,0,.51.262,5.823,5.823,0,0,0,.865.263,7.238,7.238,0,0,1,1.276.441,2.693,2.693,0,0,1,.8.549,1.612,1.612,0,0,1,.433.68,2.828,2.828,0,0,1,.124.866,2.079,2.079,0,0,1-.395,1.244,2.651,2.651,0,0,1-1.059.859,3.489,3.489,0,0,1-1.484.309" transform="translate(-35.002 -38.828)" fill="#202967"/>
    </g>
  </g>
</svg>
