<?xml version="1.0" encoding="UTF-8" standalone="no"?>
<!-- Created with Inkscape (http://www.inkscape.org/) -->

<svg
   width="79.375mm"
   height="31.75mm"
   viewBox="0 0 79.374999 31.75"
   version="1.1"
   id="svg5"
   xml:space="preserve"
   inkscape:export-filename="bitmap.svg"
   inkscape:export-xdpi="96"
   inkscape:export-ydpi="96"
   sodipodi:docname="openhw.svg"
   inkscape:version="1.2.2 (1:1.2.2+202212051552+b0a8486541)"
   xmlns:inkscape="http://www.inkscape.org/namespaces/inkscape"
   xmlns:sodipodi="http://sodipodi.sourceforge.net/DTD/sodipodi-0.dtd"
   xmlns="http://www.w3.org/2000/svg"
   xmlns:svg="http://www.w3.org/2000/svg"><sodipodi:namedview
     id="namedview7"
     pagecolor="#ffffff"
     bordercolor="#000000"
     borderopacity="0.25"
     inkscape:showpageshadow="2"
     inkscape:pageopacity="0.0"
     inkscape:pagecheckerboard="0"
     inkscape:deskcolor="#d1d1d1"
     inkscape:document-units="mm"
     showgrid="false"
     inkscape:zoom="3.1184246"
     inkscape:cx="180.70022"
     inkscape:cy="244.67483"
     inkscape:window-width="3840"
     inkscape:window-height="2136"
     inkscape:window-x="3840"
     inkscape:window-y="0"
     inkscape:window-maximized="1"
     inkscape:current-layer="svg5" /><defs
     id="defs2" /><rect
     style="fill:#ffffff;fill-opacity:1;stroke:none;stroke-width:0.249768"
     id="rect1223"
     width="79.375"
     height="31.75"
     x="-3.5527137e-15"
     y="0" /><g
     id="g1059"
     transform="matrix(0.01782447,0,0,-0.01782447,2.1986294,24.173298)"><path
       d="m 336.176,621.016 c 6.644,-6.465 13.793,-12.356 21.363,-17.754 v 17.754 h -21.363"
       style="fill:#36af44;fill-opacity:1;fill-rule:nonzero;stroke:none"
       id="path1061" /><path
       d="m 357.539,897.656 c -1.359,-0.957 -2.676,-1.972 -3.984,-2.976 h 3.984 v 2.976"
       style="fill:#36af44;fill-opacity:1;fill-rule:nonzero;stroke:none"
       id="path1063" /><path
       d="m 357.539,829.727 v 51.093 h -20.363 c -11.957,-11.425 -22.254,-24.461 -30.723,-38.781 v -12.312 h 51.086"
       style="fill:#36af44;fill-opacity:1;fill-rule:nonzero;stroke:none"
       id="path1065" /><path
       d="m 292.598,812.891 c -5.621,-15.203 -9.289,-31.317 -10.629,-48.114 h 10.629 v 48.114"
       style="fill:#36af44;fill-opacity:1;fill-rule:nonzero;stroke:none"
       id="path1067" /><path
       d="m 306.453,699.824 h 51.086 v 51.094 h -51.086 v -51.094"
       style="fill:#36af44;fill-opacity:1;fill-rule:nonzero;stroke:none"
       id="path1069" /><path
       d="m 292.598,750.918 h -11.332 c 0,-0.156 0,-0.293 0,-0.457 0,-17.59 2.64,-34.543 7.347,-50.637 h 3.985 v 51.094"
       style="fill:#36af44;fill-opacity:1;fill-rule:nonzero;stroke:none"
       id="path1071" /><path
       d="m 422.508,926.652 c -18.242,-4.074 -35.399,-10.949 -51.113,-20.097 V 894.68 h 51.113 v 31.972"
       style="fill:#36af44;fill-opacity:1;fill-rule:nonzero;stroke:none"
       id="path1073" /><path
       d="m 357.539,634.871 v 51.098 h -51.086 v -27.082 c 5.012,-8.446 10.527,-16.524 16.789,-24.016 h 34.297"
       style="fill:#36af44;fill-opacity:1;fill-rule:nonzero;stroke:none"
       id="path1075" /><path
       d="m 487.449,815.867 h -51.078 v -51.09 h 51.078 v 51.09"
       style="fill:#36af44;fill-opacity:1;fill-rule:nonzero;stroke:none"
       id="path1077" /><path
       d="m 436.371,634.871 h 51.078 v 51.098 h -51.078 v -51.098"
       style="fill:#36af44;fill-opacity:1;fill-rule:nonzero;stroke:none"
       id="path1079" /><path
       d="m 422.508,880.82 h -51.113 v -51.093 h 51.113 v 51.093"
       style="fill:#36af44;fill-opacity:1;fill-rule:nonzero;stroke:none"
       id="path1081" /><path
       d="m 487.449,880.82 h -51.078 v -51.093 h 51.078 v 51.093"
       style="fill:#36af44;fill-opacity:1;fill-rule:nonzero;stroke:none"
       id="path1083" /><path
       d="m 487.449,750.918 h -51.078 v -51.094 h 51.078 v 51.094"
       style="fill:#36af44;fill-opacity:1;fill-rule:nonzero;stroke:none"
       id="path1085" /><path
       d="m 422.508,815.867 h -51.113 v -51.09 h 51.113 v 51.09"
       style="fill:#36af44;fill-opacity:1;fill-rule:nonzero;stroke:none"
       id="path1087" /><path
       d="m 422.508,750.918 h -51.113 v -51.094 h 51.113 v 51.094"
       style="fill:#36af44;fill-opacity:1;fill-rule:nonzero;stroke:none"
       id="path1089" /><path
       d="m 371.395,634.871 h 51.113 v 51.098 h -51.113 v -51.098"
       style="fill:#36af44;fill-opacity:1;fill-rule:nonzero;stroke:none"
       id="path1091" /><path
       d="m 357.539,815.867 h -51.086 v -51.09 h 51.086 v 51.09"
       style="fill:#36af44;fill-opacity:1;fill-rule:nonzero;stroke:none"
       id="path1093" /><path
       d="m 552.402,880.82 h -51.105 v -51.093 h 51.105 v 51.093"
       style="fill:#36af44;fill-opacity:1;fill-rule:nonzero;stroke:none"
       id="path1095" /><path
       d="m 552.402,906.555 c -15.726,9.148 -32.867,16.023 -51.105,20.097 V 894.68 h 51.105 v 11.875"
       style="fill:#36af44;fill-opacity:1;fill-rule:nonzero;stroke:none"
       id="path1097" /><path
       d="m 371.395,621.016 v -26.649 c 15.714,-9.152 32.871,-16.027 51.113,-20.097 v 46.746 h -51.113"
       style="fill:#36af44;fill-opacity:1;fill-rule:nonzero;stroke:none"
       id="path1099" /><path
       d="m 566.25,621.016 v -17.754 c 7.563,5.398 14.723,11.289 21.367,17.754 H 566.25"
       style="fill:#36af44;fill-opacity:1;fill-rule:nonzero;stroke:none"
       id="path1101" /><path
       d="m 566.25,685.969 v -51.098 h 34.305 c 6.261,7.492 11.789,15.59 16.797,24.035 v 27.063 H 566.25"
       style="fill:#36af44;fill-opacity:1;fill-rule:nonzero;stroke:none"
       id="path1103" /><path
       d="m 436.371,894.68 h 51.078 v 34.402 c -8.371,1.211 -16.863,2.031 -25.554,2.031 -8.696,0 -17.165,-0.82 -25.524,-2.031 V 894.68"
       style="fill:#36af44;fill-opacity:1;fill-rule:nonzero;stroke:none"
       id="path1105" /><path
       d="m 642.52,750.918 h -11.309 v -51.094 h 3.961 c 4.711,16.094 7.371,33.047 7.371,50.637 0,0.164 -0.023,0.301 -0.023,0.457"
       style="fill:#36af44;fill-opacity:1;fill-rule:nonzero;stroke:none"
       id="path1107" /><path
       d="m 501.297,634.871 h 51.105 v 51.098 h -51.105 v -51.098"
       style="fill:#36af44;fill-opacity:1;fill-rule:nonzero;stroke:none"
       id="path1109" /><path
       d="m 552.402,815.867 h -51.105 v -51.09 h 51.105 v 51.09"
       style="fill:#36af44;fill-opacity:1;fill-rule:nonzero;stroke:none"
       id="path1111" /><path
       d="m 552.402,750.918 h -51.105 v -51.094 h 51.105 v 51.094"
       style="fill:#36af44;fill-opacity:1;fill-rule:nonzero;stroke:none"
       id="path1113" /><path
       d="m 641.816,764.777 c -1.343,16.778 -5.011,32.879 -10.605,48.067 v -48.067 h 10.605"
       style="fill:#36af44;fill-opacity:1;fill-rule:nonzero;stroke:none"
       id="path1115" /><path
       d="m 436.371,621.016 v -49.18 c 7.656,-1.113 15.442,-1.844 23.395,-1.914 h 4.254 c 7.953,0.07 15.761,0.801 23.429,1.914 v 49.18 h -51.078"
       style="fill:#36af44;fill-opacity:1;fill-rule:nonzero;stroke:none"
       id="path1117" /><path
       d="M 617.352,815.867 H 566.25 v -51.09 h 51.102 v 51.09"
       style="fill:#36af44;fill-opacity:1;fill-rule:nonzero;stroke:none"
       id="path1119" /><path
       d="M 501.297,621.016 V 574.27 c 18.238,4.07 35.379,10.945 51.105,20.097 v 26.649 h -51.105"
       style="fill:#36af44;fill-opacity:1;fill-rule:nonzero;stroke:none"
       id="path1121" /><path
       d="m 566.25,699.824 h 51.102 v 51.094 H 566.25 v -51.094"
       style="fill:#36af44;fill-opacity:1;fill-rule:nonzero;stroke:none"
       id="path1123" /><path
       d="m 566.25,894.68 h 3.992 c -1.32,1.004 -2.64,2.019 -3.992,2.976 v -2.976"
       style="fill:#36af44;fill-opacity:1;fill-rule:nonzero;stroke:none"
       id="path1125" /><path
       d="m 617.352,842.012 c -8.465,14.316 -18.789,27.383 -30.727,38.808 H 566.25 v -51.093 h 51.102 v 12.285"
       style="fill:#36af44;fill-opacity:1;fill-rule:nonzero;stroke:none"
       id="path1127" /><path
       d="m 176.531,634.871 h 38.414 c -7.664,16.203 -13.687,33.324 -18.047,51.098 h -20.367 v -51.098"
       style="fill:#36af44;fill-opacity:1;fill-rule:nonzero;stroke:none"
       id="path1129" /><path
       d="m 176.531,375.051 h 51.114 v 51.109 h -51.114 v -51.109"
       style="fill:#36af44;fill-opacity:1;fill-rule:nonzero;stroke:none"
       id="path1131" /><path
       d="m 227.645,556.066 h -51.114 v -51.093 h 51.114 v 51.093"
       style="fill:#36af44;fill-opacity:1;fill-rule:nonzero;stroke:none"
       id="path1133" /><path
       d="m 227.645,611.027 c -1.957,3.25 -3.711,6.637 -5.528,9.989 h -45.586 v -51.094 h 51.114 v 41.105"
       style="fill:#36af44;fill-opacity:1;fill-rule:nonzero;stroke:none"
       id="path1135" /><path
       d="m 176.531,699.824 h 17.391 c -3.121,16.438 -5.043,33.293 -5.043,50.637 0,0.164 0.012,0.301 0.012,0.457 h -12.36 v -51.094"
       style="fill:#36af44;fill-opacity:1;fill-rule:nonzero;stroke:none"
       id="path1137" /><path
       d="m 201.234,829.727 c 4.086,13.156 8.75,26.054 14.633,38.32 -13.597,-8.399 -26.703,-17.5 -39.336,-27.188 v -11.132 h 24.703"
       style="fill:#36af44;fill-opacity:1;fill-rule:nonzero;stroke:none"
       id="path1139" /><path
       d="m 176.531,764.777 h 13.18 c 0.934,17.5 3.344,34.618 7.461,51.09 h -20.641 v -51.09"
       style="fill:#36af44;fill-opacity:1;fill-rule:nonzero;stroke:none"
       id="path1141" /><path
       d="M 227.645,491.113 H 176.531 V 440.02 h 51.114 v 51.093"
       style="fill:#36af44;fill-opacity:1;fill-rule:nonzero;stroke:none"
       id="path1143" /><path
       d="m 241.504,375.051 h 26.605 v 51.109 h -26.605 v -51.109"
       style="fill:#36af44;fill-opacity:1;fill-rule:nonzero;stroke:none"
       id="path1145" /><path
       d="M 1.38672,556.066 C 0.957031,553.742 0.386719,551.465 0,549.152 h 32.793 v 6.914 H 1.38672"
       style="fill:#36af44;fill-opacity:1;fill-rule:nonzero;stroke:none"
       id="path1147" /><path
       d="M 241.504,491.113 V 440.02 h 26.605 v 51.093 h -26.605"
       style="fill:#36af44;fill-opacity:1;fill-rule:nonzero;stroke:none"
       id="path1149" /><path
       d="m 267.066,556.066 h -25.562 v -51.093 h 26.605 v 44.179"
       style="fill:#36af44;fill-opacity:1;fill-rule:nonzero;stroke:none"
       id="path1151" /><path
       d="m 257.734,569.922 c -5.714,6.418 -11.129,13.105 -16.23,20.051 v -20.051 h 16.23"
       style="fill:#36af44;fill-opacity:1;fill-rule:nonzero;stroke:none"
       id="path1153" /><path
       d="m 162.684,556.066 h -51.102 v -51.093 h 51.102 v 51.093"
       style="fill:#36af44;fill-opacity:1;fill-rule:nonzero;stroke:none"
       id="path1155" /><path
       d="m 46.6563,569.922 h 51.0664 v 51.094 H 46.6563 v -51.094"
       style="fill:#36af44;fill-opacity:1;fill-rule:nonzero;stroke:none"
       id="path1157" /><path
       d="m 32.793,569.922 v 51.094 H 18.4141 C 12.7344,604.375 7.98828,587.316 4.16406,569.922 H 32.793"
       style="fill:#36af44;fill-opacity:1;fill-rule:nonzero;stroke:none"
       id="path1159" /><path
       d="M 97.7227,685.969 H 46.6563 v -51.098 h 51.0664 v 51.098"
       style="fill:#36af44;fill-opacity:1;fill-rule:nonzero;stroke:none"
       id="path1161" /><path
       d="M 97.7227,750.918 H 87.4609 C 75.2383,734.688 64.0977,717.578 54.0273,699.824 h 43.6954 v 51.094"
       style="fill:#36af44;fill-opacity:1;fill-rule:nonzero;stroke:none"
       id="path1163" /><path
       d="M 32.793,657.473 C 29.5391,650.031 26.4453,642.5 23.5547,634.871 h 9.2383 v 22.602"
       style="fill:#36af44;fill-opacity:1;fill-rule:nonzero;stroke:none"
       id="path1165" /><path
       d="M 97.7227,556.066 H 46.6563 v -6.914 h 51.0664 v 6.914"
       style="fill:#36af44;fill-opacity:1;fill-rule:nonzero;stroke:none"
       id="path1167" /><path
       d="m 111.582,375.051 h 51.102 v 51.109 h -51.102 v -51.109"
       style="fill:#36af44;fill-opacity:1;fill-rule:nonzero;stroke:none"
       id="path1169" /><path
       d="M 162.684,491.113 H 111.582 V 440.02 h 51.102 v 51.093"
       style="fill:#36af44;fill-opacity:1;fill-rule:nonzero;stroke:none"
       id="path1171" /><path
       d="m 162.684,750.918 h -51.102 v -51.094 h 51.102 v 51.094"
       style="fill:#36af44;fill-opacity:1;fill-rule:nonzero;stroke:none"
       id="path1173" /><path
       d="m 162.684,764.777 v 51.09 h -15.84 c -12.383,-11.238 -24.145,-23.14 -35.262,-35.664 v -15.426 h 51.102"
       style="fill:#36af44;fill-opacity:1;fill-rule:nonzero;stroke:none"
       id="path1175" /><path
       d="m 162.684,621.016 h -51.102 v -51.094 h 51.102 v 51.094"
       style="fill:#36af44;fill-opacity:1;fill-rule:nonzero;stroke:none"
       id="path1177" /><path
       d="m 162.684,685.969 h -51.102 v -51.098 h 51.102 v 51.098"
       style="fill:#36af44;fill-opacity:1;fill-rule:nonzero;stroke:none"
       id="path1179" /><path
       d="m 812.203,361.191 h -35.41 l 12.219,-51.074 h 23.191 v 51.074"
       style="fill:#36af44;fill-opacity:1;fill-rule:nonzero;stroke:none"
       id="path1181" /><path
       d="m 761.113,504.973 h 51.09 v 51.093 h -51.09 v -51.093"
       style="fill:#36af44;fill-opacity:1;fill-rule:nonzero;stroke:none"
       id="path1183" /><path
       d="m 761.113,764.777 h 51.09 v 15.45 c -11.105,12.5 -22.871,24.402 -35.25,35.64 h -15.84 v -51.09"
       style="fill:#36af44;fill-opacity:1;fill-rule:nonzero;stroke:none"
       id="path1185" /><path
       d="m 761.113,634.871 h 51.09 v 51.098 h -51.09 v -51.098"
       style="fill:#36af44;fill-opacity:1;fill-rule:nonzero;stroke:none"
       id="path1187" /><path
       d="m 761.113,569.922 h 51.09 v 51.094 h -51.09 v -51.094"
       style="fill:#36af44;fill-opacity:1;fill-rule:nonzero;stroke:none"
       id="path1189" /><path
       d="m 812.203,750.918 h -51.09 v -51.094 h 51.09 v 51.094"
       style="fill:#36af44;fill-opacity:1;fill-rule:nonzero;stroke:none"
       id="path1191" /><path
       d="m 792.336,296.262 7.625,-31.789 c 1.754,-7.012 3.094,-13.496 4.141,-19.309 h 7.191 c 0.25,1.875 0.59,3.949 0.91,5.949 v 45.149 h -19.867"
       style="fill:#36af44;fill-opacity:1;fill-rule:nonzero;stroke:none"
       id="path1193" /><path
       d="m 809.695,231.309 h -3.457 c 1.141,-9.121 1.344,-14.59 1.344,-14.59 h 1.301 c 0,0 0,5.469 0.812,14.59"
       style="fill:#36af44;fill-opacity:1;fill-rule:nonzero;stroke:none"
       id="path1195" /><path
       d="m 826.063,440.02 h 27.011 l 11.223,51.093 H 826.063 V 440.02"
       style="fill:#36af44;fill-opacity:1;fill-rule:nonzero;stroke:none"
       id="path1197" /><path
       d="m 891.016,549.152 h 32.793 c -0.391,2.313 -0.957,4.59 -1.391,6.914 h -31.402 v -6.914"
       style="fill:#36af44;fill-opacity:1;fill-rule:nonzero;stroke:none"
       id="path1199" /><path
       d="m 826.063,569.922 h 51.089 v 51.094 h -51.089 v -51.094"
       style="fill:#36af44;fill-opacity:1;fill-rule:nonzero;stroke:none"
       id="path1201" /><path
       d="m 877.152,685.969 h -51.089 v -51.098 h 51.089 v 51.098"
       style="fill:#36af44;fill-opacity:1;fill-rule:nonzero;stroke:none"
       id="path1203" /><path
       d="m 826.063,375.051 h 12.789 l 11.195,51.109 h -23.984 v -51.109"
       style="fill:#36af44;fill-opacity:1;fill-rule:nonzero;stroke:none"
       id="path1205" /><path
       d="m 826.063,699.824 h 43.718 c -10.086,17.754 -21.211,34.864 -33.433,51.094 h -10.285 v -51.094"
       style="fill:#36af44;fill-opacity:1;fill-rule:nonzero;stroke:none"
       id="path1207" /><path
       d="m 742.383,504.973 h 4.867 v 51.093 h -51.09 v -6.914 h 35.641 l 10.582,-44.179"
       style="fill:#36af44;fill-opacity:1;fill-rule:nonzero;stroke:none"
       id="path1209" /><path
       d="M 812.203,375.051 V 426.16 H 761.25 l 12.242,-51.109 h 38.711"
       style="fill:#36af44;fill-opacity:1;fill-rule:nonzero;stroke:none"
       id="path1211" /><path
       d="m 745.703,491.113 1.547,-6.484 v 6.484 z"
       style="fill:#36af44;fill-opacity:1;fill-rule:nonzero;stroke:none"
       id="path1213" /><path
       d="m 652.508,556.066 c -2.293,-2.277 -4.434,-4.738 -6.844,-6.914 h 36.637 v 6.914 h -29.793"
       style="fill:#36af44;fill-opacity:1;fill-rule:nonzero;stroke:none"
       id="path1215" /><path
       d="m 826.063,361.191 v -44.445 l 9.738,44.445 z"
       style="fill:#36af44;fill-opacity:1;fill-rule:nonzero;stroke:none"
       id="path1217" /><path
       d="m 891.016,634.871 h 9.238 c -2.891,7.629 -5.961,15.16 -9.238,22.578 v -22.578"
       style="fill:#36af44;fill-opacity:1;fill-rule:nonzero;stroke:none"
       id="path1219" /><path
       d="m 826.063,556.066 v -51.093 h 41.261 l 9.692,44.179 h 0.136 v 6.914 h -51.089"
       style="fill:#36af44;fill-opacity:1;fill-rule:nonzero;stroke:none"
       id="path1221" /><path
       d="m 891.016,621.016 v -51.094 h 28.629 c -3.825,17.394 -8.559,34.453 -14.274,51.094 h -14.355"
       style="fill:#36af44;fill-opacity:1;fill-rule:nonzero;stroke:none"
       id="path1223" /><path
       d="m 747.25,840.859 c -12.625,9.688 -25.711,18.789 -39.324,27.188 5.871,-12.266 10.535,-25.164 14.633,-38.32 h 24.691 v 11.132"
       style="fill:#36af44;fill-opacity:1;fill-rule:nonzero;stroke:none"
       id="path1225" /><path
       d="m 747.25,815.867 h -20.641 c 4.121,-16.472 6.536,-33.59 7.469,-51.09 h 13.172 v 51.09"
       style="fill:#36af44;fill-opacity:1;fill-rule:nonzero;stroke:none"
       id="path1227" /><path
       d="m 747.25,750.918 h -12.359 c 0,-0.156 0.027,-0.293 0.027,-0.457 0,-17.344 -1.91,-34.199 -5.031,-50.637 h 17.363 v 51.094"
       style="fill:#36af44;fill-opacity:1;fill-rule:nonzero;stroke:none"
       id="path1229" /><path
       d="m 747.25,685.969 h -20.367 c -4.344,-17.774 -10.375,-34.895 -18.047,-51.098 h 38.414 v 51.098"
       style="fill:#36af44;fill-opacity:1;fill-rule:nonzero;stroke:none"
       id="path1231" /><path
       d="m 747.25,569.922 v 51.094 h -45.578 c -1.824,-3.352 -3.578,-6.719 -5.512,-9.969 v -41.125 h 51.09"
       style="fill:#36af44;fill-opacity:1;fill-rule:nonzero;stroke:none"
       id="path1233" /><path
       d="m 761.113,440.02 h 51.09 v 51.093 h -51.09 V 440.02"
       style="fill:#36af44;fill-opacity:1;fill-rule:nonzero;stroke:none"
       id="path1235" /><path
       d="m 682.301,589.973 c -5.098,-6.946 -10.539,-13.633 -16.227,-20.051 h 16.227 v 20.051"
       style="fill:#36af44;fill-opacity:1;fill-rule:nonzero;stroke:none"
       id="path1237" /><path
       d="m 566.25,375.051 h 32.906 l 12.586,51.109 H 566.25 v -51.109"
       style="fill:#36af44;fill-opacity:1;fill-rule:nonzero;stroke:none"
       id="path1239" /><path
       d="m 552.402,310.117 v 51.074 h -14.566 l 10.285,-51.074 h 4.281"
       style="fill:#36af44;fill-opacity:1;fill-rule:nonzero;stroke:none"
       id="path1241" /><path
       d="M 552.402,426.16 H 524.75 l 10.309,-51.109 h 17.343 v 51.109"
       style="fill:#36af44;fill-opacity:1;fill-rule:nonzero;stroke:none"
       id="path1243" /><path
       d="m 631.211,536.875 v -31.602 l 9.742,39.571 c -3.164,-2.754 -6.465,-5.352 -9.742,-7.969"
       style="fill:#36af44;fill-opacity:1;fill-rule:nonzero;stroke:none"
       id="path1245" /><path
       d="m 617.352,526.574 c -11.586,-8.105 -23.758,-15.363 -36.551,-21.601 h 36.551 v 21.601"
       style="fill:#36af44;fill-opacity:1;fill-rule:nonzero;stroke:none"
       id="path1247" /><path
       d="m 566.25,310.117 h 16.941 l 12.563,51.074 H 566.25 v -51.074"
       style="fill:#36af44;fill-opacity:1;fill-rule:nonzero;stroke:none"
       id="path1249" /><path
       d="M 579.781,296.262 H 566.25 v -51.098 h 1.559 c 1.043,5.813 2.386,12.297 4.14,19.309 l 7.832,31.789"
       style="fill:#36af44;fill-opacity:1;fill-rule:nonzero;stroke:none"
       id="path1251" /><path
       d="M 566.25,491.113 V 440.02 h 48.891 l 2.211,8.925 v 42.168 H 566.25"
       style="fill:#36af44;fill-opacity:1;fill-rule:nonzero;stroke:none"
       id="path1253" /><path
       d="m 550.922,296.262 1.48,-7.324 v 7.324 z"
       style="fill:#36af44;fill-opacity:1;fill-rule:nonzero;stroke:none"
       id="path1255" /><path
       d="m 521.973,440.02 h 30.429 v 51.093 h -5.839 c -10.762,-3.554 -21.813,-6.484 -33.137,-8.652 l 8.547,-42.441"
       style="fill:#36af44;fill-opacity:1;fill-rule:nonzero;stroke:none"
       id="path1257" /><path
       d="m 162.684,231.309 h -51.102 v -51.094 h 51.102 v 51.094"
       style="fill:#0e2b58;fill-opacity:1;fill-rule:nonzero;stroke:none"
       id="path1259" /><path
       d="m 162.684,166.359 h -51.102 v -8.781 c 13.301,-14.949 27.445,-29.16 42.543,-42.305 h 8.559 v 51.086"
       style="fill:#0e2b58;fill-opacity:1;fill-rule:nonzero;stroke:none"
       id="path1261" /><path
       d="m 412.758,426.16 h -33.203 v -51.109 h 42.953 v 11.035 l -9.75,40.074"
       style="fill:#0e2b58;fill-opacity:1;fill-rule:nonzero;stroke:none"
       id="path1263" /><path
       d="m 227.645,231.309 h -51.114 v -51.094 h 51.114 v 51.094"
       style="fill:#0e2b58;fill-opacity:1;fill-rule:nonzero;stroke:none"
       id="path1265" /><path
       d="m 176.531,115.273 h 51.114 v 51.086 h -51.114 v -51.086"
       style="fill:#0e2b58;fill-opacity:1;fill-rule:nonzero;stroke:none"
       id="path1267" /><path
       d="M 176.531,101.406 V 96.9531 C 192.758,84.4727 209.863,73.1445 227.645,62.8633 V 101.406 H 176.531"
       style="fill:#0e2b58;fill-opacity:1;fill-rule:nonzero;stroke:none"
       id="path1269" /><path
       d="m 227.645,245.164 v 26.953 h -51.114 v -26.953 h 51.114"
       style="fill:#0e2b58;fill-opacity:1;fill-rule:nonzero;stroke:none"
       id="path1271" /><path
       d="M 422.508,36.4531 H 371.395 V 8.89844 C 388.133,5.64453 405.18,3.25391 422.508,1.81641 V 36.4531"
       style="fill:#0e2b58;fill-opacity:1;fill-rule:nonzero;stroke:none"
       id="path1273" /><path
       d="M 357.539,36.4531 H 306.453 V 26.4258 c 16.629,-5.8516 33.684,-10.7891 51.086,-14.7461 v 24.7734"
       style="fill:#0e2b58;fill-opacity:1;fill-rule:nonzero;stroke:none"
       id="path1275" /><path
       d="m 292.598,50.3242 v 43.4844 h -24.489 v 7.5974 H 241.504 V 55.0508 c 3.074,-1.6133 6.191,-3.1641 9.297,-4.7266 h 41.797"
       style="fill:#0e2b58;fill-opacity:1;fill-rule:nonzero;stroke:none"
       id="path1277" /><path
       d="m 162.684,272.117 h -51.102 v -26.953 h 51.102 v 26.953"
       style="fill:#0e2b58;fill-opacity:1;fill-rule:nonzero;stroke:none"
       id="path1279" /><path
       d="m 422.508,361.191 h -42.953 v -51.074 h 42.953 v 51.074"
       style="fill:#0e2b58;fill-opacity:1;fill-rule:nonzero;stroke:none"
       id="path1281" /><path
       d="m 268.109,245.164 v 26.953 h -26.605 v -26.953 h 26.605"
       style="fill:#0e2b58;fill-opacity:1;fill-rule:nonzero;stroke:none"
       id="path1283" /><path
       d="m 422.508,166.359 h -42.953 v -51.086 h 42.953 v 51.086"
       style="fill:#0e2b58;fill-opacity:1;fill-rule:nonzero;stroke:none"
       id="path1285" /><path
       d="m 398.387,485.215 c -6.36,1.504 -12.688,3.008 -18.832,4.961 V 440.02 h 29.824 l -10.992,45.195"
       style="fill:#0e2b58;fill-opacity:1;fill-rule:nonzero;stroke:none"
       id="path1287" /><path
       d="m 422.508,231.309 h -42.953 v -51.094 h 42.953 v 51.094"
       style="fill:#0e2b58;fill-opacity:1;fill-rule:nonzero;stroke:none"
       id="path1289" /><path
       d="m 422.508,296.262 h -42.953 v -51.098 h 42.953 v 51.098"
       style="fill:#0e2b58;fill-opacity:1;fill-rule:nonzero;stroke:none"
       id="path1291" /><path
       d="m 241.504,180.215 h 26.605 v 51.094 h -26.605 v -51.094"
       style="fill:#0e2b58;fill-opacity:1;fill-rule:nonzero;stroke:none"
       id="path1293" /><path
       d="m 422.508,50.3242 v 51.0818 h -42.953 v -7.5974 h -8.16 V 50.3242 h 51.113"
       style="fill:#0e2b58;fill-opacity:1;fill-rule:nonzero;stroke:none"
       id="path1295" /><path
       d="m 241.504,115.273 h 26.605 v 51.086 h -26.605 v -51.086"
       style="fill:#0e2b58;fill-opacity:1;fill-rule:nonzero;stroke:none"
       id="path1297" /><path
       d="M 357.539,50.3242 V 93.8086 H 306.453 V 50.3242 h 51.086"
       style="fill:#0e2b58;fill-opacity:1;fill-rule:nonzero;stroke:none"
       id="path1299" /><path
       d="m 292.598,36.4531 h -12.016 c 3.957,-1.6562 8.012,-3.1992 12.016,-4.7734 v 4.7734"
       style="fill:#0e2b58;fill-opacity:1;fill-rule:nonzero;stroke:none"
       id="path1301" /><path
       d="m 436.371,180.215 h 36.242 l -12.453,51.094 h -23.789 v -51.094"
       style="fill:#0e2b58;fill-opacity:1;fill-rule:nonzero;stroke:none"
       id="path1303" /><path
       d="M 487.449,101.406 H 436.371 V 50.3242 h 51.078 v 51.0818"
       style="fill:#0e2b58;fill-opacity:1;fill-rule:nonzero;stroke:none"
       id="path1305" /><path
       d="m 436.371,115.273 h 51.078 v 3.973 l -11.469,47.113 h -39.609 v -51.086"
       style="fill:#0e2b58;fill-opacity:1;fill-rule:nonzero;stroke:none"
       id="path1307" /><path
       d="m 440.977,310.117 -4.606,19.035 v -19.035 z"
       style="fill:#0e2b58;fill-opacity:1;fill-rule:nonzero;stroke:none"
       id="path1309" /><path
       d="M 617.352,36.4531 H 566.25 V 12.0625 c 17.371,3.9844 34.52,8.5547 51.102,14.3828 v 10.0078"
       style="fill:#0e2b58;fill-opacity:1;fill-rule:nonzero;stroke:none"
       id="path1311" /><path
       d="M 552.402,36.4531 H 501.297 V 1.69141 c 17.355,1.42578 34.332,4.08984 51.105,7.39062 V 36.4531"
       style="fill:#0e2b58;fill-opacity:1;fill-rule:nonzero;stroke:none"
       id="path1313" /><path
       d="m 631.211,36.4531 v -4.4804 c 3.754,1.457 7.484,2.9375 11.195,4.4804 h -11.195"
       style="fill:#0e2b58;fill-opacity:1;fill-rule:nonzero;stroke:none"
       id="path1315" /><path
       d="M 487.449,36.4531 H 436.371 V 0.703125 C 444.824,0.253906 453.336,0 461.895,0 c 8.597,0 17.046,0.617188 25.554,1.09375 V 36.4531"
       style="fill:#0e2b58;fill-opacity:1;fill-rule:nonzero;stroke:none"
       id="path1317" /><path
       d="M 747.25,101.406 H 696.16 V 63.0859 c 17.774,10.3125 34.891,21.6211 51.09,34.0938 v 4.2263"
       style="fill:#0e2b58;fill-opacity:1;fill-rule:nonzero;stroke:none"
       id="path1319" /><path
       d="M 631.211,101.406 V 50.3242 h 41.148 c 3.293,1.6602 6.664,3.2305 9.942,4.9571 v 46.1247 h -51.09"
       style="fill:#0e2b58;fill-opacity:1;fill-rule:nonzero;stroke:none"
       id="path1321" /><path
       d="m 698.891,310.117 -2.731,10.996 v -10.996 z"
       style="fill:#0e2b58;fill-opacity:1;fill-rule:nonzero;stroke:none"
       id="path1323" /><path
       d="m 747.25,116.133 -12.516,50.226 H 696.16 v -51.086 h 51.09 v 0.86"
       style="fill:#0e2b58;fill-opacity:1;fill-rule:nonzero;stroke:none"
       id="path1325" /><path
       d="m 436.371,245.164 h 20.434 l -12.45,51.098 h -7.984 v -51.098"
       style="fill:#0e2b58;fill-opacity:1;fill-rule:nonzero;stroke:none"
       id="path1327" /><path
       d="m 696.16,180.215 h 35.113 l -12.718,51.094 H 696.16 v -51.094"
       style="fill:#0e2b58;fill-opacity:1;fill-rule:nonzero;stroke:none"
       id="path1329" /><path
       d="m 682.301,231.309 h -28.946 l -12.746,-51.094 h 41.692 v 51.094"
       style="fill:#0e2b58;fill-opacity:1;fill-rule:nonzero;stroke:none"
       id="path1331" /><path
       d="m 696.16,296.262 v -51.098 h 18.914 l -12.722,51.098 h -6.192"
       style="fill:#0e2b58;fill-opacity:1;fill-rule:nonzero;stroke:none"
       id="path1333" /><path
       d="m 682.301,166.359 h -45.129 l -5.961,-23.918 v -27.168 h 51.09 v 51.086"
       style="fill:#0e2b58;fill-opacity:1;fill-rule:nonzero;stroke:none"
       id="path1335" /><path
       d="M 552.402,93.8086 H 501.297 V 50.3242 h 51.105 v 43.4844"
       style="fill:#0e2b58;fill-opacity:1;fill-rule:nonzero;stroke:none"
       id="path1337" /><path
       d="m 682.301,296.262 h -12.746 l -12.719,-51.098 h 25.465 v 51.098"
       style="fill:#0e2b58;fill-opacity:1;fill-rule:nonzero;stroke:none"
       id="path1339" /><path
       d="M 617.352,50.3242 V 93.8086 H 566.25 V 50.3242 h 51.102"
       style="fill:#0e2b58;fill-opacity:1;fill-rule:nonzero;stroke:none"
       id="path1341" /><path
       d="m 682.301,353.547 c -1.344,-8.555 -3.278,-18.848 -5.895,-29.836 l -3.39,-13.594 h 9.285 v 43.43"
       style="fill:#0e2b58;fill-opacity:1;fill-rule:nonzero;stroke:none"
       id="path1343" /><path
       d="m 1465.1,385.676 c 12.96,4.355 23.22,10.332 30.89,17.937 7.67,7.578 13.02,16.504 16.05,26.778 3.02,10.265 4.51,21.289 4.51,33.125 0,11.797 -1.49,22.851 -4.51,33.105 -3.03,10.285 -8.38,19.199 -16.05,26.785 -7.67,7.61 -17.93,13.559 -30.89,17.934 -12.94,4.355 -29.34,6.543 -49.18,6.543 h -112.69 c -20.13,0 -36.65,-2.188 -49.57,-6.543 -12.98,-4.375 -23.25,-10.324 -30.92,-17.934 -7.66,-7.586 -13.01,-16.5 -16.03,-26.785 -3.03,-10.254 -4.5,-21.308 -4.5,-33.105 0,-11.836 1.47,-22.86 4.5,-33.125 3.02,-10.274 8.37,-19.2 16.03,-26.778 7.67,-7.605 17.94,-13.582 30.92,-17.937 12.92,-4.348 29.32,-6.535 49.15,-6.535 h 113.11 c 19.84,0 36.24,2.187 49.18,6.535 z m -241.24,-62.004 c -21.74,8 -39.45,18.84 -53.16,32.473 -13.69,13.64 -23.66,29.675 -29.97,48.093 -6.26,18.399 -9.38,38.184 -9.38,59.278 0,21.074 3.12,40.839 9.38,59.257 6.31,18.418 16.28,34.465 29.97,48.079 13.71,13.652 31.42,24.492 53.16,32.515 21.74,8.02 47.94,12.004 78.6,12.004 h 113.81 c 30.69,0 56.86,-3.984 78.6,-12.004 21.75,-8.023 39.45,-18.863 53.13,-32.515 13.72,-13.614 23.7,-29.661 30.01,-48.079 6.25,-18.418 9.38,-38.183 9.38,-59.257 0,-21.094 -3.13,-40.879 -9.38,-59.278 -6.31,-18.418 -16.29,-34.453 -30.01,-48.093 -13.68,-13.633 -31.38,-24.473 -53.13,-32.473 -21.74,-8.016 -47.91,-12.031 -78.6,-12.031 h -113.81 c -30.66,0 -56.86,4.015 -78.6,12.031"
       style="fill:#0e2b58;fill-opacity:1;fill-rule:nonzero;stroke:none"
       id="path1345" /><path
       d="m 1714.05,480.391 h 217.1 c 9.32,0 16.88,0.851 22.81,2.519 5.9,1.68 10.4,3.945 13.6,6.738 3.12,2.825 5.25,6.153 6.37,9.942 1.13,3.789 1.71,7.922 1.71,12.441 0,4.199 -0.58,8.293 -1.71,12.227 -1.12,3.937 -3.25,7.316 -6.37,10.137 -3.2,2.793 -7.7,5.05 -13.6,6.75 -5.93,1.679 -13.49,2.507 -22.81,2.507 h -217.1 z m 218.63,130.754 c 20.33,0 37.59,-2.598 51.81,-7.778 14.22,-5.203 25.76,-12.32 34.7,-21.316 8.9,-9.016 15.42,-19.559 19.59,-31.641 4.13,-12.109 6.19,-24.89 6.19,-38.379 0,-14.07 -2.06,-27.07 -6.19,-39.035 -4.17,-11.949 -10.69,-22.43 -19.59,-31.441 -8.94,-8.977 -20.48,-15.996 -34.7,-21.075 -14.22,-5.058 -31.48,-7.589 -51.81,-7.589 h -218.63 v -97.012 h -66.35 v 295.266 h 284.98"
       style="fill:#0e2b58;fill-opacity:1;fill-rule:nonzero;stroke:none"
       id="path1347" /><path
       d="m 2469.38,611.145 v -67.493 h -313.95 v -49.773 h 275.55 V 433.117 H 2155.43 V 383.34 h 313.95 V 315.879 H 2089.1 v 295.266 h 380.28"
       style="fill:#0e2b58;fill-opacity:1;fill-rule:nonzero;stroke:none"
       id="path1349" /><path
       d="m 2597.91,315.879 h -66.33 v 295.266 h 62.96 l 276.67,-208.379 v 208.379 h 66.33 V 315.879 h -62.96 L 2597.91,524.258 V 315.879"
       style="fill:#0e2b58;fill-opacity:1;fill-rule:nonzero;stroke:none"
       id="path1351" /><path
       d="M 3079.62,429.766 V 315.879 h -66.32 v 295.266 h 66.32 V 497.258 h 271.77 v 113.887 h 66.38 V 315.879 h -66.38 v 113.887 h -271.77"
       style="fill:#36af44;fill-opacity:1;fill-rule:nonzero;stroke:none"
       id="path1353" /><path
       d="m 3608.89,315.879 -150.76,295.266 h 79.9 l 96.06,-202.485 98.42,202.485 h 49.03 l 98.36,-202.485 96.12,202.485 h 79.89 L 3905.15,315.879 h -49.03 l -99.08,202.473 -99.18,-202.473 h -48.97"
       style="fill:#36af44;fill-opacity:1;fill-rule:nonzero;stroke:none"
       id="path1355" /><path
       d="m 1670.79,180.234 v 25.313 c 0,1.269 -0.46,2.383 -1.38,3.301 -0.92,0.918 -2.02,1.386 -3.3,1.386 h -57.61 c -1.27,0 -2.37,-0.468 -3.29,-1.386 -0.92,-0.918 -1.38,-2.032 -1.38,-3.301 v -25.313 c 0,-1.289 0.46,-2.363 1.38,-3.242 0.92,-0.879 2.02,-1.328 3.29,-1.328 h 57.61 c 1.28,0 2.38,0.449 3.3,1.328 0.92,0.879 1.38,1.953 1.38,3.242 z m -76.68,39.707 h 72 c 4,0 7.39,-1.386 10.2,-4.199 2.8,-2.793 4.2,-6.191 4.2,-10.195 v -25.313 c 0,-4.004 -1.4,-7.402 -4.2,-10.214 -2.81,-2.793 -6.2,-4.2 -10.2,-4.2 h -57.61 c -0.71,0 -2.28,0.176 -4.67,0.489 v -32.637 h -9.72 v 86.269"
       style="fill:#656263;fill-opacity:1;fill-rule:nonzero;stroke:none"
       id="path1357" /><path
       d="m 1722.5,175.664 h 57.6 c 1.28,0 2.36,0.449 3.24,1.328 0.88,0.879 1.32,1.953 1.32,3.242 v 25.313 c 0,1.269 -0.44,2.383 -1.32,3.301 -0.88,0.918 -1.96,1.386 -3.24,1.386 h -57.6 c -1.28,0 -2.38,-0.468 -3.3,-1.386 -0.92,-0.918 -1.38,-2.032 -1.38,-3.301 v -25.313 c 0,-1.289 0.46,-2.363 1.38,-3.242 0.92,-0.879 2.02,-1.328 3.3,-1.328 z m 72,29.883 v -25.313 c 0,-4.004 -1.4,-7.402 -4.2,-10.214 -2.8,-2.793 -6.2,-4.2 -10.2,-4.2 h -13.2 l 27.12,-32.148 h -12.84 l -27,32.148 h -31.68 c -0.72,0 -2.28,0.176 -4.68,0.489 v -32.637 h -9.72 v 86.269 h 72 c 4,0 7.4,-1.386 10.2,-4.199 2.8,-2.793 4.2,-6.191 4.2,-10.195"
       style="fill:#656263;fill-opacity:1;fill-rule:nonzero;stroke:none"
       id="path1359" /><path
       d="m 1840.58,143.379 h 57.6 c 1.28,0 2.38,0.469 3.3,1.387 0.92,0.918 1.38,2.011 1.38,3.3 v 57.598 c 0,1.289 -0.46,2.383 -1.38,3.301 -0.92,0.918 -2.02,1.387 -3.3,1.387 h -57.6 c -1.28,0 -2.38,-0.469 -3.31,-1.387 -0.91,-0.918 -1.37,-2.012 -1.37,-3.301 v -57.598 c 0,-1.289 0.46,-2.382 1.37,-3.3 0.93,-0.918 2.03,-1.387 3.31,-1.387 z m 0,76.68 h 57.6 c 4,0 7.4,-1.387 10.2,-4.2 2.8,-2.793 4.2,-6.191 4.2,-10.195 v -57.598 c 0,-4.003 -1.4,-7.402 -4.2,-10.195 -2.8,-2.812 -6.2,-4.199 -10.2,-4.199 h -57.6 c -4,0 -7.4,1.387 -10.2,4.199 -2.8,2.793 -4.2,6.192 -4.2,10.195 v 57.598 c 0,4.004 1.4,7.402 4.2,10.195 2.8,2.813 6.2,4.2 10.2,4.2"
       style="fill:#656263;fill-opacity:1;fill-rule:nonzero;stroke:none"
       id="path1361" /><path
       d="m 1998.13,143.145 44.16,76.914 h 11.4 l -49.92,-86.387 h -11.28 l -50.04,86.387 h 11.4 l 44.28,-76.914"
       style="fill:#656263;fill-opacity:1;fill-rule:nonzero;stroke:none"
       id="path1363" /><path
       d="m 2163.61,220.059 v -9.707 h -69.12 v -28.575 h 55.56 v -9.824 h -55.56 v -28.574 h 69.12 v -9.707 h -78.84 v 86.387 h 78.84"
       style="fill:#656263;fill-opacity:1;fill-rule:nonzero;stroke:none"
       id="path1365" /><path
       d="m 2272.32,144.707 v 75.352 h 9.72 v -86.387 h -13.32 l -63.36,75.351 v -75.351 h -9.72 v 86.387 h 13.32 l 63.36,-75.352"
       style="fill:#656263;fill-opacity:1;fill-rule:nonzero;stroke:none"
       id="path1367" /><path
       d="m 2443.18,180.234 v 25.313 c 0,1.269 -0.45,2.383 -1.36,3.301 -0.93,0.918 -2.03,1.386 -3.3,1.386 h -57.61 c -1.28,0 -2.37,-0.468 -3.29,-1.386 -0.93,-0.918 -1.39,-2.032 -1.39,-3.301 v -25.313 c 0,-1.289 0.46,-2.363 1.39,-3.242 0.92,-0.879 2.01,-1.328 3.29,-1.328 h 57.61 c 1.27,0 2.37,0.449 3.3,1.328 0.91,0.879 1.36,1.953 1.36,3.242 z m -76.68,39.707 h 72.02 c 3.99,0 7.39,-1.386 10.19,-4.199 2.79,-2.793 4.2,-6.191 4.2,-10.195 v -25.313 c 0,-4.004 -1.41,-7.402 -4.2,-10.214 -2.8,-2.793 -6.2,-4.2 -10.19,-4.2 h -57.61 c -0.71,0 -2.28,0.176 -4.68,0.489 v -32.637 h -9.73 v 86.269"
       style="fill:#656263;fill-opacity:1;fill-rule:nonzero;stroke:none"
       id="path1369" /><path
       d="m 2494.9,175.664 h 57.6 c 1.29,0 2.36,0.449 3.24,1.328 0.88,0.879 1.33,1.953 1.33,3.242 v 25.313 c 0,1.269 -0.45,2.383 -1.33,3.301 -0.88,0.918 -1.95,1.386 -3.24,1.386 h -57.6 c -1.27,0 -2.38,-0.468 -3.3,-1.386 -0.92,-0.918 -1.38,-2.032 -1.38,-3.301 v -25.313 c 0,-1.289 0.46,-2.363 1.38,-3.242 0.92,-0.879 2.03,-1.328 3.3,-1.328 z m 72,29.883 v -25.313 c 0,-4.004 -1.39,-7.402 -4.19,-10.214 -2.81,-2.793 -6.21,-4.2 -10.21,-4.2 h -13.19 l 27.11,-32.148 h -12.84 l -27,32.148 h -31.68 c -0.72,0 -2.27,0.176 -4.68,0.489 v -32.637 h -9.71 v 86.269 h 71.99 c 4,0 7.4,-1.386 10.21,-4.199 2.8,-2.793 4.19,-6.191 4.19,-10.195"
       style="fill:#656263;fill-opacity:1;fill-rule:nonzero;stroke:none"
       id="path1371" /><path
       d="m 2612.98,143.379 h 57.61 c 1.26,0 2.37,0.469 3.3,1.387 0.91,0.918 1.36,2.011 1.36,3.3 v 57.598 c 0,1.289 -0.45,2.383 -1.36,3.301 -0.93,0.918 -2.04,1.387 -3.3,1.387 h -57.61 c -1.28,0 -2.38,-0.469 -3.3,-1.387 -0.92,-0.918 -1.38,-2.012 -1.38,-3.301 v -57.598 c 0,-1.289 0.46,-2.382 1.38,-3.3 0.92,-0.918 2.02,-1.387 3.3,-1.387 z m 0,76.68 h 57.61 c 3.99,0 7.39,-1.387 10.19,-4.2 2.79,-2.793 4.2,-6.191 4.2,-10.195 v -57.598 c 0,-4.003 -1.41,-7.402 -4.2,-10.195 -2.8,-2.812 -6.2,-4.199 -10.19,-4.199 h -57.61 c -4,0 -7.39,1.387 -10.21,4.199 -2.79,2.793 -4.2,6.192 -4.2,10.195 v 57.598 c 0,4.004 1.41,7.402 4.2,10.195 2.82,2.813 6.21,4.2 10.21,4.2"
       style="fill:#656263;fill-opacity:1;fill-rule:nonzero;stroke:none"
       id="path1373" /><path
       d="m 2803.53,210.352 h -71.75 c -1.28,0 -2.39,-0.469 -3.3,-1.387 -0.92,-0.918 -1.38,-2.012 -1.38,-3.301 v -57.598 c 0,-1.289 0.46,-2.382 1.38,-3.3 0.91,-0.918 2.02,-1.387 3.3,-1.387 h 71.75 v -9.707 h -71.75 c -4.01,0 -7.4,1.387 -10.2,4.199 -2.8,2.793 -4.2,6.192 -4.2,10.195 v 57.598 c 0,4.004 1.4,7.402 4.2,10.195 2.8,2.813 6.19,4.2 10.2,4.2 h 71.75 v -9.707"
       style="fill:#656263;fill-opacity:1;fill-rule:nonzero;stroke:none"
       id="path1375" /><path
       d="m 2914.3,220.059 v -9.707 h -69.13 v -28.575 h 55.56 v -9.824 h -55.56 v -28.574 h 69.13 v -9.707 h -78.85 v 86.387 h 78.85"
       style="fill:#656263;fill-opacity:1;fill-rule:nonzero;stroke:none"
       id="path1377" /><path
       d="m 3032.13,205.664 v -3.359 h -9.73 v 3.359 c 0,1.289 -0.45,2.383 -1.37,3.301 -0.92,0.918 -2.03,1.387 -3.3,1.387 h -57.6 c -1.28,0 -2.38,-0.469 -3.29,-1.387 -0.93,-0.918 -1.39,-2.012 -1.39,-3.301 v -19.316 c 0,-1.289 0.46,-2.364 1.39,-3.243 0.91,-0.878 2.01,-1.328 3.29,-1.328 h 57.6 c 4,0 7.4,-1.386 10.2,-4.199 2.79,-2.793 4.2,-6.191 4.2,-10.195 v -19.317 c 0,-4.003 -1.41,-7.402 -4.2,-10.195 -2.8,-2.812 -6.2,-4.199 -10.2,-4.199 h -57.6 c -4,0 -7.4,1.387 -10.2,4.199 -2.8,2.793 -4.21,6.192 -4.21,10.195 v 3.36 h 9.73 v -3.36 c 0,-1.289 0.46,-2.382 1.39,-3.3 0.91,-0.918 2.01,-1.387 3.29,-1.387 h 57.6 c 1.27,0 2.38,0.469 3.3,1.387 0.92,0.918 1.37,2.011 1.37,3.3 v 19.317 c 0,1.289 -0.45,2.363 -1.37,3.242 -0.92,0.879 -2.03,1.328 -3.3,1.328 h -57.6 c -4,0 -7.4,1.387 -10.2,4.199 -2.8,2.793 -4.21,6.192 -4.21,10.196 v 19.316 c 0,4.004 1.41,7.402 4.21,10.195 2.8,2.813 6.2,4.2 10.2,4.2 h 57.6 c 4,0 7.4,-1.387 10.2,-4.2 2.79,-2.793 4.2,-6.191 4.2,-10.195"
       style="fill:#656263;fill-opacity:1;fill-rule:nonzero;stroke:none"
       id="path1379" /><path
       d="m 3149.96,205.664 v -3.359 h -9.73 v 3.359 c 0,1.289 -0.45,2.383 -1.36,3.301 -0.93,0.918 -2.03,1.387 -3.3,1.387 h -57.61 c -1.28,0 -2.37,-0.469 -3.29,-1.387 -0.93,-0.918 -1.39,-2.012 -1.39,-3.301 v -19.316 c 0,-1.289 0.46,-2.364 1.39,-3.243 0.92,-0.878 2.01,-1.328 3.29,-1.328 h 57.61 c 3.99,0 7.39,-1.386 10.19,-4.199 2.79,-2.793 4.2,-6.191 4.2,-10.195 v -19.317 c 0,-4.003 -1.41,-7.402 -4.2,-10.195 -2.8,-2.812 -6.2,-4.199 -10.19,-4.199 h -57.61 c -4,0 -7.39,1.387 -10.2,4.199 -2.8,2.793 -4.21,6.192 -4.21,10.195 v 3.36 h 9.73 v -3.36 c 0,-1.289 0.46,-2.382 1.39,-3.3 0.92,-0.918 2.01,-1.387 3.29,-1.387 h 57.61 c 1.27,0 2.37,0.469 3.3,1.387 0.91,0.918 1.36,2.011 1.36,3.3 v 19.317 c 0,1.289 -0.45,2.363 -1.36,3.242 -0.93,0.879 -2.03,1.328 -3.3,1.328 h -57.61 c -4,0 -7.39,1.387 -10.2,4.199 -2.8,2.793 -4.21,6.192 -4.21,10.196 v 19.316 c 0,4.004 1.41,7.402 4.21,10.195 2.81,2.813 6.2,4.2 10.2,4.2 h 57.61 c 3.99,0 7.39,-1.387 10.19,-4.2 2.79,-2.793 4.2,-6.191 4.2,-10.195"
       style="fill:#656263;fill-opacity:1;fill-rule:nonzero;stroke:none"
       id="path1381" /><path
       d="m 3196.15,143.379 h 57.61 c 1.28,0 2.37,0.469 3.3,1.387 0.92,0.918 1.38,2.011 1.38,3.3 v 57.598 c 0,1.289 -0.46,2.383 -1.38,3.301 -0.93,0.918 -2.02,1.387 -3.3,1.387 h -57.61 c -1.27,0 -2.37,-0.469 -3.3,-1.387 -0.92,-0.918 -1.37,-2.012 -1.37,-3.301 v -57.598 c 0,-1.289 0.45,-2.382 1.37,-3.3 0.93,-0.918 2.03,-1.387 3.3,-1.387 z m 0,76.68 h 57.61 c 3.99,0 7.39,-1.387 10.2,-4.2 2.8,-2.793 4.2,-6.191 4.2,-10.195 v -57.598 c 0,-4.003 -1.4,-7.402 -4.2,-10.195 -2.81,-2.812 -6.21,-4.199 -10.2,-4.199 h -57.61 c -3.99,0 -7.39,1.387 -10.19,4.199 -2.8,2.793 -4.2,6.192 -4.2,10.195 v 57.598 c 0,4.004 1.4,7.402 4.2,10.195 2.8,2.813 6.2,4.2 10.19,4.2"
       style="fill:#656263;fill-opacity:1;fill-rule:nonzero;stroke:none"
       id="path1383" /><path
       d="m 3314.83,175.664 h 57.6 c 1.28,0 2.35,0.449 3.24,1.328 0.88,0.879 1.32,1.953 1.32,3.242 v 25.313 c 0,1.269 -0.44,2.383 -1.32,3.301 -0.89,0.918 -1.96,1.386 -3.24,1.386 h -57.6 c -1.28,0 -2.38,-0.468 -3.3,-1.386 -0.93,-0.918 -1.37,-2.032 -1.37,-3.301 v -25.313 c 0,-1.289 0.44,-2.363 1.37,-3.242 0.92,-0.879 2.02,-1.328 3.3,-1.328 z m 72.01,29.883 v -25.313 c 0,-4.004 -1.41,-7.402 -4.2,-10.214 -2.81,-2.793 -6.22,-4.2 -10.21,-4.2 h -13.19 l 27.11,-32.148 h -12.83 l -27.01,32.148 h -31.68 c -0.72,0 -2.27,0.176 -4.67,0.489 v -32.637 h -9.73 v 86.269 h 72 c 3.99,0 7.4,-1.386 10.21,-4.199 2.79,-2.793 4.2,-6.191 4.2,-10.195"
       style="fill:#656263;fill-opacity:1;fill-rule:nonzero;stroke:none"
       id="path1385" /><path
       d="m 3470.7,133.672 v 86.387 h 9.72 v -86.387 h -9.72"
       style="fill:#656263;fill-opacity:1;fill-rule:nonzero;stroke:none"
       id="path1387" /><path
       d="m 3592.86,180.234 v 25.313 c 0,1.269 -0.46,2.383 -1.38,3.301 -0.91,0.918 -2.02,1.386 -3.3,1.386 h -57.59 c -1.29,0 -2.39,-0.468 -3.31,-1.386 -0.91,-0.918 -1.38,-2.032 -1.38,-3.301 v -25.313 c 0,-1.289 0.47,-2.363 1.38,-3.242 0.92,-0.879 2.02,-1.328 3.31,-1.328 h 57.59 c 1.28,0 2.39,0.449 3.3,1.328 0.92,0.879 1.38,1.953 1.38,3.242 z m -76.68,39.707 h 72 c 4.01,0 7.41,-1.386 10.2,-4.199 2.8,-2.793 4.2,-6.191 4.2,-10.195 v -25.313 c 0,-4.004 -1.4,-7.402 -4.2,-10.214 -2.79,-2.793 -6.19,-4.2 -10.2,-4.2 h -57.59 c -0.73,0 -2.29,0.176 -4.69,0.489 v -32.637 h -9.72 v 86.269"
       style="fill:#656263;fill-opacity:1;fill-rule:nonzero;stroke:none"
       id="path1389" /><path
       d="m 3474.18,710.469 v -55.703 h -77.26 c -9.35,0 -17.32,1.211 -23.88,3.632 -6.57,2.422 -11.94,5.723 -16.11,9.903 -4.16,4.179 -7.2,9.082 -9.14,14.707 -1.92,5.644 -2.89,11.621 -2.89,17.949 0,6.348 0.97,12.324 2.89,17.969 1.94,5.625 4.98,10.527 9.14,14.707 4.17,4.18 9.54,7.48 16.11,9.902 6.56,2.422 14.53,3.633 23.88,3.633 h 70.78 v -21.133 h -70.66 c -5.98,0 -10.89,-0.644 -14.75,-1.972 -3.84,-1.309 -6.89,-3.106 -9.14,-5.352 -2.23,-2.227 -3.81,-4.902 -4.71,-7.969 -0.91,-3.086 -1.36,-6.347 -1.36,-9.785 0,-3.418 0.45,-6.68 1.36,-9.766 0.9,-3.066 2.48,-5.742 4.71,-7.968 2.25,-2.246 5.3,-4.043 9.14,-5.352 3.86,-1.328 8.77,-1.973 14.75,-1.973 h 56.86 v 15.567 h -39.52 v 19.004 h 59.8"
       style="fill:#0e2b58;fill-opacity:1;fill-rule:nonzero;stroke:none"
       id="path1391" /><path
       d="m 3516.38,705.859 h 66.4 c 2.91,0 5.31,0.254 7.2,0.782 1.88,0.527 3.36,1.25 4.41,2.187 1.07,0.918 1.8,1.992 2.19,3.223 0.39,1.23 0.59,2.558 0.59,3.965 0,1.308 -0.2,2.597 -0.59,3.828 -0.39,1.23 -1.12,2.304 -2.19,3.222 -1.05,0.938 -2.53,1.661 -4.41,2.188 -1.89,0.527 -4.29,0.781 -7.2,0.781 h -66.4 z m 67.22,41.309 c 6.3,0 11.66,-0.82 16.11,-2.441 4.44,-1.641 8.07,-3.829 10.9,-6.602 2.84,-2.773 4.92,-6.016 6.25,-9.707 1.34,-3.691 2.02,-7.656 2.02,-11.875 0,-3.965 -0.56,-7.676 -1.65,-11.152 -1.11,-3.477 -2.85,-6.563 -5.26,-9.239 -2.39,-2.695 -5.46,-4.882 -9.2,-6.601 -3.73,-1.719 -8.19,-2.832 -13.39,-3.36 l 43.76,-31.425 h -34.19 l -41.06,30.761 h -41.51 v -30.761 h -20.77 v 92.402 h 87.99"
       style="fill:#0e2b58;fill-opacity:1;fill-rule:nonzero;stroke:none"
       id="path1393" /><path
       d="m 3742.17,676.621 c 4.04,1.367 7.26,3.223 9.67,5.606 2.4,2.382 4.07,5.175 5,8.378 0.95,3.204 1.42,6.661 1.42,10.352 0,3.711 -0.47,7.168 -1.42,10.371 -0.93,3.203 -2.6,5.996 -5,8.379 -2.41,2.383 -5.63,4.238 -9.67,5.606 -4.06,1.367 -9.19,2.05 -15.4,2.05 h -35.27 c -6.29,0 -11.46,-0.683 -15.5,-2.05 -4.06,-1.368 -7.28,-3.223 -9.68,-5.606 -2.4,-2.383 -4.07,-5.176 -5.01,-8.379 -0.95,-3.203 -1.42,-6.66 -1.42,-10.371 0,-3.691 0.47,-7.148 1.42,-10.352 0.94,-3.203 2.61,-5.996 5.01,-8.378 2.4,-2.383 5.62,-4.239 9.68,-5.606 4.04,-1.367 9.17,-2.051 15.39,-2.051 h 35.38 c 6.21,0 11.34,0.684 15.4,2.051 z m -75.49,-19.414 c -6.81,2.52 -12.35,5.898 -16.63,10.176 -4.29,4.258 -7.41,9.277 -9.39,15.039 -1.96,5.762 -2.95,11.953 -2.95,18.535 0,6.602 0.99,12.793 2.95,18.555 1.98,5.761 5.1,10.781 9.39,15.039 4.28,4.277 9.82,7.656 16.63,10.176 6.8,2.5 15,3.75 24.59,3.75 h 35.61 c 9.6,0 17.8,-1.25 24.6,-3.75 6.8,-2.52 12.35,-5.899 16.63,-10.176 4.29,-4.258 7.42,-9.278 9.38,-15.039 1.96,-5.762 2.95,-11.953 2.95,-18.555 0,-6.582 -0.99,-12.773 -2.95,-18.535 -1.96,-5.762 -5.09,-10.781 -9.38,-15.039 -4.28,-4.278 -9.83,-7.656 -16.63,-10.176 -6.8,-2.5 -15,-3.75 -24.6,-3.75 h -35.61 c -9.59,0 -17.79,1.25 -24.59,3.75"
       style="fill:#0e2b58;fill-opacity:1;fill-rule:nonzero;stroke:none"
       id="path1395" /><path
       d="m 3818.92,688.223 c 0.83,-2.774 2.34,-5.157 4.54,-7.188 2.2,-2.031 5.17,-3.613 8.9,-4.746 3.73,-1.152 8.52,-1.719 14.33,-1.719 h 28.19 c 5.82,0 10.6,0.567 14.34,1.719 3.73,1.133 6.7,2.715 8.91,4.746 2.19,2.031 3.71,4.414 4.54,7.188 0.82,2.773 1.23,5.84 1.23,9.179 v 49.766 h 20.76 v -49.766 c 0,-6.328 -0.82,-12.207 -2.48,-17.617 -1.65,-5.41 -4.42,-10.058 -8.31,-13.926 -3.9,-3.867 -9.01,-6.914 -15.34,-9.101 -6.32,-2.207 -14.18,-3.301 -23.53,-3.301 h -28.43 c -9.35,0 -17.19,1.094 -23.52,3.301 -6.33,2.187 -11.45,5.234 -15.34,9.101 -3.89,3.868 -6.67,8.516 -8.32,13.926 -1.65,5.41 -2.48,11.289 -2.48,17.617 v 49.766 h 20.76 v -49.766 c 0,-3.339 0.42,-6.406 1.25,-9.179"
       style="fill:#0e2b58;fill-opacity:1;fill-rule:nonzero;stroke:none"
       id="path1397" /><path
       d="m 3967.45,706.25 h 67.94 c 2.91,0 5.28,0.254 7.14,0.781 1.85,0.528 3.26,1.231 4.24,2.11 0.98,0.898 1.65,1.914 2.01,3.105 0.35,1.192 0.53,2.5 0.53,3.906 0,1.309 -0.18,2.598 -0.53,3.828 -0.36,1.231 -1.03,2.286 -2.01,3.165 -0.98,0.878 -2.39,1.582 -4.24,2.109 -1.86,0.527 -4.23,0.781 -7.14,0.781 h -67.94 z m 68.41,40.918 c 6.37,0 11.78,-0.82 16.22,-2.441 4.44,-1.641 8.06,-3.848 10.85,-6.68 2.79,-2.813 4.83,-6.113 6.13,-9.883 1.3,-3.789 1.94,-7.793 1.94,-12.012 0,-4.414 -0.64,-8.476 -1.94,-12.207 -1.3,-3.75 -3.34,-7.031 -6.13,-9.843 -2.79,-2.813 -6.41,-5.02 -10.85,-6.602 -4.44,-1.582 -9.85,-2.363 -16.22,-2.363 h -68.41 v -30.371 h -20.76 v 92.402 h 89.17"
       style="fill:#0e2b58;fill-opacity:1;fill-rule:nonzero;stroke:none"
       id="path1399" /><path
       d="m 1131.35,170.723 h 396.37"
       style="fill:#656263;fill-opacity:1;fill-rule:nonzero;stroke:none"
       id="path1401" /><path
       d="m 1131.35,170.723 h 396.37"
       style="fill:none;stroke:#656263;stroke-width:10;stroke-linecap:butt;stroke-linejoin:miter;stroke-miterlimit:10;stroke-dasharray:none;stroke-opacity:1"
       id="path1403" /><path
       d="m 3659.53,170.723 h 396.38"
       style="fill:#656263;fill-opacity:1;fill-rule:nonzero;stroke:none"
       id="path1405" /><path
       d="m 3659.53,170.723 h 396.38"
       style="fill:none;stroke:#656263;stroke-width:10;stroke-linecap:butt;stroke-linejoin:miter;stroke-miterlimit:10;stroke-dasharray:none;stroke-opacity:1"
       id="path1407" /><path
       d="m 4126.9,546.16 h 8.63 c 10.52,0 16.45,3.231 16.45,12.133 0,7.277 -5.13,11.055 -17,11.055 h -8.08 z m 40.71,12.406 c 0,-11.605 -7.54,-18.609 -18.06,-21.582 l 23.19,-31.816 h -17.8 l -20.22,29.391 h -7.82 v -29.391 h -15.1 v 76.047 h 22.92 c 22.11,0 32.89,-7.828 32.89,-22.649 z m -83.32,-16.183 c 0,-31.012 23.19,-55.551 54.2,-55.551 31.01,0 53.93,24.539 53.93,55.551 0,31.004 -22.92,56.09 -53.93,56.09 -31.01,0 -54.2,-25.086 -54.2,-56.09 z m 122.16,0 c 0,-37.754 -30.21,-68.231 -67.96,-68.231 -37.75,0 -68.23,30.477 -68.23,68.231 0,37.746 30.48,68.762 68.23,68.762 37.75,0 67.96,-31.016 67.96,-68.762"
       style="fill:#0e2b58;fill-opacity:1;fill-rule:nonzero;stroke:none"
       id="path1409" /></g></svg>
