<?xml version="1.0" encoding="UTF-8" standalone="no"?>
<svg
   id="Layer_1"
   data-name="Layer 1"
   viewBox="0 0 249.99999 100"
   version="1.1"
   sodipodi:docname="tii.svg"
   width="250"
   height="100"
   inkscape:version="1.2.2 (1:1.2.2+202212051552+b0a8486541)"
   xmlns:inkscape="http://www.inkscape.org/namespaces/inkscape"
   xmlns:sodipodi="http://sodipodi.sourceforge.net/DTD/sodipodi-0.dtd"
   xmlns="http://www.w3.org/2000/svg"
   xmlns:svg="http://www.w3.org/2000/svg">
  <sodipodi:namedview
     id="namedview73"
     pagecolor="#ffffff"
     bordercolor="#666666"
     borderopacity="1.0"
     inkscape:showpageshadow="2"
     inkscape:pageopacity="0.0"
     inkscape:pagecheckerboard="0"
     inkscape:deskcolor="#d1d1d1"
     showgrid="false"
     inkscape:zoom="3.0502266"
     inkscape:cx="286.86393"
     inkscape:cy="158.18497"
     inkscape:window-width="3840"
     inkscape:window-height="2111"
     inkscape:window-x="0"
     inkscape:window-y="25"
     inkscape:window-maximized="1"
     inkscape:current-layer="Layer_1" />
  <defs
     id="defs4">
    <style
       id="style2">.cls-1{fill:#6400ff;}</style>
  </defs>
  <g
     id="g4756"
     transform="matrix(0.30408787,0,0,0.30408787,38.067907,2.0898849)">
    <polygon
       class="cls-1"
       points="23.3,128.7 23.3,216.4 60.2,216.4 60.2,128.7 83.5,128.7 83.5,99.6 0,99.6 0,128.7 "
       id="polygon6" />
    <rect
       class="cls-1"
       x="95.400002"
       y="99.599998"
       width="36.900002"
       height="116.8"
       id="rect8" />
    <rect
       class="cls-1"
       x="156.2"
       y="99.599998"
       width="36.900002"
       height="116.8"
       id="rect10" />
    <path
       class="cls-1"
       d="M 95.4,315.9 V 302 c 39.6,0 73.8,-14.2 101.8,-42.2 28,-28 42.2,-62.2 42.2,-101.8 0,-39.6 -14.2,-73.8 -42.2,-101.8 C 169.2,28.2 134.9,14 95.4,14 V 0.1 c 43.3,0 80.9,15.6 111.6,46.3 30.7,30.7 46.3,68.3 46.3,111.6 0,43.3 -15.6,81 -46.3,111.6 -30.7,30.6 -68.2,46.3 -111.6,46.3 z"
       id="path12" />
    <path
       class="cls-1"
       d="M 282.9,84.9 H 270 v -4 h 30.2 v 4 h -12.9 v 34.5 h -4.4 V 84.9 Z"
       id="path14" />
    <path
       class="cls-1"
       d="m 297.8,105.3 v -0.1 c 0,-8.2 5.8,-14.8 13.6,-14.8 8.4,0 13.2,6.7 13.2,15 a 6.6,6.6 0 0 1 -0.1,1.4 H 302 c 0.6,6.2 5,9.6 10,9.6 a 12,12 0 0 0 9,-4 l 2.6,2.4 a 14.4,14.4 0 0 1 -11.7,5.3 c -7.7,0 -14.1,-6 -14.1,-14.8 z m 22.6,-1.7 c -0.4,-5.2 -3.4,-9.7 -9.1,-9.7 -5,0 -8.7,4.1 -9.2,9.7 z"
       id="path16" />
    <path
       class="cls-1"
       d="m 329.2,105.3 v -0.1 a 14.77,14.77 0 0 1 14.8,-14.8 14.61,14.61 0 0 1 11.2,5.1 l -2.8,3 c -2.2,-2.4 -4.8,-4.3 -8.6,-4.3 -5.8,0 -10.2,4.9 -10.2,11 v 0.1 c 0,6.2 4.5,11.1 10.5,11.1 3.6,0 6.4,-1.8 8.7,-4.2 l 2.7,2.5 c -2.9,3.2 -6.3,5.5 -11.6,5.5 a 14.62,14.62 0 0 1 -14.6,-14.6 c -0.1,-0.2 -0.1,-0.2 -0.1,-0.3 z"
       id="path18" />
    <path
       class="cls-1"
       d="m 361.3,79.3 h 4.2 V 96 a 10.81,10.81 0 0 1 9.7,-5.6 c 6.9,0 10.9,4.6 10.9,11.4 v 17.7 h -4.2 v -16.6 c 0,-5.3 -2.9,-8.6 -7.9,-8.6 -5,0 -8.5,3.6 -8.5,8.9 v 16.3 h -4.2 z"
       id="path20" />
    <path
       class="cls-1"
       d="m 394.1,91 h 4.2 v 5 a 10.81,10.81 0 0 1 9.7,-5.6 c 6.9,0 10.9,4.6 10.9,11.4 v 17.6 h -4.2 v -16.6 c 0,-5.3 -2.9,-8.6 -7.9,-8.6 -5,0 -8.5,3.6 -8.5,8.9 v 16.3 h -4.2 z"
       id="path22" />
    <path
       class="cls-1"
       d="m 425.1,105.3 v -0.1 a 14.850084,14.850084 0 0 1 29.7,-0.1 v 0.1 a 14.77,14.77 0 0 1 -14.7,14.9 h -0.2 a 14.6,14.6 0 0 1 -14.7,-14.4 0.6,0.6 0 0 1 -0.1,-0.4 z m 25.3,0 v -0.1 A 10.78,10.78 0 0 0 439.8,94.1 c -6.2,0 -10.4,5 -10.4,11 v 0.1 c 0,6.1 4.5,11.1 10.5,11.1 6.2,0 10.5,-5 10.5,-11 z"
       id="path24" />
    <path
       class="cls-1"
       d="m 461.7,79.3 h 4.2 v 40.1 h -4.2 z"
       id="path26" />
    <path
       class="cls-1"
       d="m 472.9,105.3 v -0.1 a 14.850084,14.850084 0 1 1 29.7,-0.1 v 0.1 a 14.83,14.83 0 0 1 -14.7,14.9 h -0.2 a 14.53,14.53 0 0 1 -14.7,-14.4 0.6,0.6 0 0 1 -0.1,-0.4 z m 25.3,0 v -0.1 A 10.78,10.78 0 0 0 487.6,94.1 c -6.1,0 -10.4,5 -10.4,11 v 0.1 c 0,6.1 4.5,11.1 10.5,11.1 6.2,0 10.5,-5 10.5,-11 z"
       id="path28" />
    <path
       class="cls-1"
       d="m 508.8,124.3 1.9,-3.3 a 18,18 0 0 0 10.9,3.6 c 6.3,0 10.3,-3.5 10.3,-10.1 v -3.3 c -2.5,3.3 -5.9,6 -11.2,6 a 13.11,13.11 0 0 1 -13.4,-12.9 v -0.5 a 13.19,13.19 0 0 1 13,-13.4 h 0.4 a 13.26,13.26 0 0 1 11.1,5.7 V 91 h 4.2 v 23.5 c 0,4.4 -1.3,7.8 -3.6,10.1 -2.5,2.5 -6.3,3.8 -10.8,3.8 a 21.69,21.69 0 0 1 -12.8,-4.1 z m 23.3,-20.5 v -0.1 c 0,-5.8 -5.1,-9.6 -10.5,-9.6 -5.4,0 -9.8,3.7 -9.8,9.6 v 0.1 a 9.75,9.75 0 0 0 9.6,9.7 h 0.3 c 5.3,0 10.4,-3.9 10.4,-9.7 z"
       id="path30" />
    <path
       class="cls-1"
       d="m 565.8,91 h 4.5 l -11.9,29.3 c -2.4,5.9 -5.2,8 -9.5,8 a 13.9,13.9 0 0 1 -6,-1.4 l 1.4,-3.4 a 8.75,8.75 0 0 0 4.5,1 c 2.5,0 4.1,-1.3 5.8,-5.3 L 541.6,91 h 4.7 l 10.3,23.7 z"
       id="path32" />
    <path
       class="cls-1"
       d="m 283,134.3 h 4.4 v 38.5 H 283 Z"
       id="path34" />
    <path
       class="cls-1"
       d="m 296.8,144.4 h 4.2 v 4.9 a 10.81,10.81 0 0 1 9.7,-5.6 c 6.9,0 10.9,4.6 10.9,11.4 v 17.7 h -4.2 v -16.6 c 0,-5.3 -2.9,-8.6 -7.9,-8.6 -5,0 -8.5,3.6 -8.5,8.9 v 16.3 h -4.2 z"
       id="path36" />
    <path
       class="cls-1"
       d="m 329.6,144.4 h 4.2 v 4.9 a 10.81,10.81 0 0 1 9.7,-5.6 c 6.9,0 10.9,4.6 10.9,11.4 v 17.7 h -4.2 v -16.6 c 0,-5.3 -2.9,-8.6 -7.9,-8.6 -5,0 -8.5,3.6 -8.5,8.9 v 16.3 h -4.2 z"
       id="path38" />
    <path
       class="cls-1"
       d="m 360.6,158.7 v -0.1 a 14.850084,14.850084 0 1 1 29.7,-0.1 v 0.1 a 14.77,14.77 0 0 1 -14.7,14.9 h -0.2 a 14.53,14.53 0 0 1 -14.7,-14.4 0.6,0.6 0 0 1 -0.1,-0.4 z m 25.3,0 v -0.1 a 10.78,10.78 0 0 0 -10.6,-11.1 c -6.2,0 -10.4,5 -10.4,11 v 0.1 c 0,6.1 4.5,11.1 10.5,11.1 6.2,0 10.5,-5 10.5,-11 z"
       id="path40" />
    <path
       class="cls-1"
       d="m 392.4,144.4 h 4.6 l 9.6,23.6 9.6,-23.6 h 4.6 L 408.4,173 h -3.7 z"
       id="path42" />
    <path
       class="cls-1"
       d="m 422.8,164.6 v -0.1 c 0,-6 5,-9.2 12.2,-9.2 a 31.51,31.51 0 0 1 8.7,1.2 v -1 c 0,-5.1 -3.1,-7.8 -8.5,-7.8 a 18.52,18.52 0 0 0 -8.6,2.1 l -1.3,-3.5 a 21.85,21.85 0 0 1 10.3,-2.3 c 4,0 7.1,1.1 9.2,3.1 1.9,1.9 2.9,4.7 2.9,8.3 v 17.4 h -4.1 v -4.3 a 12.51,12.51 0 0 1 -10.3,4.9 c -5.1,0 -10.5,-3 -10.5,-8.8 z m 21,-2.2 v -2.8 a 29.41,29.41 0 0 0 -8.4,-1.2 c -5.3,0 -8.3,2.3 -8.3,5.9 v 0.1 c 0,3.6 3.3,5.7 7.1,5.7 5.3,0 9.6,-3.2 9.6,-7.7 z"
       id="path44" />
    <path
       class="cls-1"
       d="m 456.9,165.3 v -17.2 h -4 v -3.7 h 4 v -8.6 h 4.2 v 8.6 h 9 v 3.7 h -9 v 16.6 c 0,3.5 1.9,4.7 4.8,4.7 a 8.3,8.3 0 0 0 4.1,-1 v 3.6 a 11.25,11.25 0 0 1 -5.1,1.2 c -4.5,0.1 -8,-2.2 -8,-7.9 z"
       id="path46" />
    <path
       class="cls-1"
       d="m 476.7,133.5 h 4.8 v 4.7 h -4.8 z m 0.2,10.9 h 4.2 v 28.4 h -4.2 z"
       id="path48" />
    <path
       class="cls-1"
       d="m 488.2,158.7 v -0.1 a 14.850084,14.850084 0 1 1 29.7,-0.1 v 0 0.1 a 14.77,14.77 0 0 1 -14.7,14.9 H 503 a 14.6,14.6 0 0 1 -14.7,-14.4 0.76,0.76 0 0 1 -0.1,-0.4 z m 25.3,0 v -0.1 a 10.78,10.78 0 0 0 -10.6,-11.1 c -6.2,0 -10.4,5 -10.4,11 v 0.1 c 0,6.1 4.5,11.1 10.5,11.1 6.2,0 10.5,-5 10.5,-11 z"
       id="path50" />
    <path
       class="cls-1"
       d="m 524.3,144.4 h 4.2 v 4.9 a 10.81,10.81 0 0 1 9.7,-5.6 c 6.9,0 10.9,4.6 10.9,11.4 v 17.7 H 545 v -16.6 c 0,-5.3 -2.8,-8.6 -7.9,-8.6 -5.1,0 -8.5,3.6 -8.5,8.9 v 16.3 h -4.2 z"
       id="path52" />
    <path
       class="cls-1"
       d="m 283,188.3 h 4.4 v 38.5 H 283 Z"
       id="path54" />
    <path
       class="cls-1"
       d="m 296.8,198.4 h 4.2 v 4.9 a 10.81,10.81 0 0 1 9.7,-5.6 c 6.9,0 10.9,4.6 10.9,11.4 v 17.7 h -4.2 v -16.6 c 0,-5.3 -2.9,-8.6 -7.9,-8.6 -5,0 -8.5,3.6 -8.5,8.9 v 16.3 h -4.2 z"
       id="path56" />
    <path
       class="cls-1"
       d="m 327.2,223.2 2.1,-3 a 16.84,16.84 0 0 0 9.8,3.6 c 3.4,0 5.9,-1.8 5.9,-4.5 v -0.1 c 0,-2.9 -3.4,-4 -7.1,-5 -4.5,-1.3 -9.4,-2.8 -9.4,-8 V 206 c 0,-4.9 4.1,-8.1 9.7,-8.1 a 20.33,20.33 0 0 1 10.2,3.1 l -1.9,3.2 a 16.82,16.82 0 0 0 -8.4,-2.8 c -3.4,0 -5.5,1.8 -5.5,4.1 v 0.1 c 0,2.7 3.5,3.7 7.3,4.9 4.4,1.3 9.1,3 9.1,8.1 v 0.1 c 0,5.4 -4.5,8.5 -10.1,8.5 a 18.64,18.64 0 0 1 -11.7,-4 z"
       id="path58" />
    <path
       class="cls-1"
       d="m 356.8,219.3 v -17.2 h -4 v -3.7 h 4 v -8.6 h 4.2 v 8.6 h 9 v 3.7 h -9 v 16.6 c 0,3.5 1.9,4.7 4.8,4.7 a 8.3,8.3 0 0 0 4.1,-1 v 3.6 a 11.25,11.25 0 0 1 -5.1,1.2 c -4.5,0.1 -8,-2.2 -8,-7.9 z"
       id="path60" />
    <path
       class="cls-1"
       d="m 376.6,187.5 h 4.8 v 4.7 h -4.8 z m 0.2,10.9 h 4.2 v 28.4 h -4.2 z"
       id="path62" />
    <path
       class="cls-1"
       d="m 391.3,219.3 v -17.2 h -4 v -3.7 h 4 v -8.6 h 4.2 v 8.6 h 9 v 3.7 h -9 v 16.6 c 0,3.5 1.9,4.7 4.8,4.7 a 8.57,8.57 0 0 0 4.1,-1 v 3.6 a 11.25,11.25 0 0 1 -5.1,1.2 c -4.5,0.1 -8,-2.2 -8,-7.9 z"
       id="path64" />
    <path
       class="cls-1"
       d="m 410.5,216 v -17.6 h 4.2 V 215 c 0,5.3 2.9,8.6 7.9,8.6 4.8,0 8.5,-3.6 8.5,-8.9 v -16.3 h 4.2 v 28.4 h -4.2 v -5 a 10.93,10.93 0 0 1 -9.7,5.6 c -6.9,0 -10.9,-4.6 -10.9,-11.4 z"
       id="path66" />
    <path
       class="cls-1"
       d="m 445.2,219.3 v -17.2 h -4 v -3.7 h 4 v -8.6 h 4.2 v 8.6 h 9 v 3.7 h -9 v 16.6 c 0,3.5 1.9,4.7 4.8,4.7 a 8.57,8.57 0 0 0 4.1,-1 v 3.6 a 11.25,11.25 0 0 1 -5.1,1.2 c -4.5,0.1 -8,-2.2 -8,-7.9 z"
       id="path68" />
    <path
       class="cls-1"
       d="m 462.3,212.7 v -0.1 c 0,-8.2 5.8,-14.8 13.6,-14.8 8.4,0 13.3,6.7 13.3,15 a 6.6,6.6 0 0 1 -0.1,1.4 h -22.5 c 0.6,6.2 5,9.6 10,9.6 a 12,12 0 0 0 9,-4 l 2.6,2.4 a 14.4,14.4 0 0 1 -11.7,5.3 c -7.9,0 -14.2,-6 -14.2,-14.8 z m 22.6,-1.7 c -0.4,-5.2 -3.4,-9.7 -9.1,-9.7 -5,0 -8.7,4.1 -9.2,9.7 z"
       id="path70" />
  </g>
</svg>
