<?xml version="1.0" encoding="UTF-8" standalone="no"?>
<!-- Created with Inkscape (http://www.inkscape.org/) -->

<svg
   width="1272"
   height="394.99997"
   viewBox="0 0 336.54999 104.51041"
   version="1.1"
   id="svg5"
   inkscape:version="1.3.2 (1:1.3.2+202311252150+091e20ef0f)"
   sodipodi:docname="banner-placeholder.svg"
   inkscape:export-filename="/home/wallento/Sync+Share/HM/RISC-V/Europe/summit-website-development/summit/2024/media/banners/banner-placeholder.png"
   inkscape:export-xdpi="96"
   inkscape:export-ydpi="96"
   xmlns:inkscape="http://www.inkscape.org/namespaces/inkscape"
   xmlns:sodipodi="http://sodipodi.sourceforge.net/DTD/sodipodi-0.dtd"
   xmlns="http://www.w3.org/2000/svg"
   xmlns:svg="http://www.w3.org/2000/svg">
  <sodipodi:namedview
     id="namedview7"
     pagecolor="#ffffff"
     bordercolor="#000000"
     borderopacity="0.25"
     inkscape:pageshadow="2"
     inkscape:pageopacity="0.0"
     inkscape:pagecheckerboard="0"
     inkscape:document-units="mm"
     showgrid="false"
     inkscape:zoom="0.3296877"
     inkscape:cx="313.93346"
     inkscape:cy="-28.815148"
     inkscape:window-width="1920"
     inkscape:window-height="1031"
     inkscape:window-x="0"
     inkscape:window-y="25"
     inkscape:window-maximized="1"
     inkscape:current-layer="g867"
     fit-margin-top="0"
     fit-margin-left="0"
     fit-margin-right="0"
     fit-margin-bottom="0"
     units="px"
     inkscape:showpageshadow="2"
     inkscape:deskcolor="#d1d1d1" />
  <defs
     id="defs2" />
  <g
     inkscape:label="Layer 1"
     inkscape:groupmode="layer"
     id="layer1"
     transform="translate(52.199947,7.4555035)">
    <rect
       style="fill:#003262;fill-opacity:1;stroke-width:3.60368"
       id="rect64773-60"
       width="336.54999"
       height="104.51041"
       x="-52.199947"
       y="-7.4555035" />
    <g
       id="g71220"
       transform="matrix(0.0795021,0,0,0.0795021,-40.56994,11.956922)">
      <g
         id="g71198">
        <path
           class="st0"
           d="m 532,188.2 c 0,83.2 -50.4,158.9 -148.8,171.9 L 522,524 534.6,511 787.7,156.8 V 9.1 H 378.2 v 0 C 481.6,19.2 532,105 532,188.2 Z"
           id="path71194" />
        <path
           class="st1"
           d="m 602.7,556.3 185,-258.5 v 279 h -201 z M 247.1,289 h 95.8 c 70.6,0 105.9,-50.4 105.9,-100.9 0,-50.5 -35.3,-98.3 -105.9,-98.3 H 216.8 v 0 h -5 V 576.9 H 456.4 L 247.1,329.4 Z"
           id="path71196" />
      </g>
      <g
         id="g71218">
        <g
           id="g71212">
          <rect
             x="224.3"
             y="634.79999"
             class="st1"
             width="29.1"
             height="136.5"
             id="rect71200" />
          <path
             class="st1"
             d="m 426.5,741.4 -151.1,-0.1 v 30 h 152.3 c 11.4,0 21.1,-4.4 29.1,-12.3 7.9,-7.9 12.3,-17.6 12.3,-29 0,-11.4 -4.4,-21.1 -12.3,-29.1 -7.9,-7.9 -17.6,-12.3 -29.1,-12.3 l -110.8,-0.8 c -6.5,0 -11.8,-5.3 -11.9,-11.9 v 0 0 c 0,-6.6 5.4,-11.9 11.9,-11.9 L 469,663.9 V 634.8 H 316.7 c -11.5,0 -21.1,4.4 -29,12.3 -7.9,7.9 -12.3,17.6 -12.3,29.1 0,11.5 4.4,21.1 12.3,29 7.9,7.9 17.6,11.4 29,11.4 h 110.6 c 6.6,0 11.9,5.3 11.9,11.9 v 0 0 c 0.1,7.2 -5.7,12.9 -12.7,12.9 z"
             id="path71202" />
          <path
             class="st1"
             d="m 550.8,634.8 h 125.9 v 29.1 H 550.8 c -10.5,0 -19.3,3.5 -27.3,11.4 -7.9,7.9 -11.4,16.7 -11.4,27.3 0,10.5 3.5,19.3 11.4,27.3 8,7.9 16.8,11.4 27.3,11.4 h 125.9 v 30 H 550.9 c -18.5,0 -34.4,-7.1 -47.6,-20.3 -13.2,-13.2 -19.3,-29.1 -19.3,-47.5 0,-18.5 6.1,-34.3 19.3,-47.5 13.2,-14.1 29,-21.2 47.5,-21.2 z"
             id="path71204" />
          <path
             class="st1"
             d="M 160.1,689.6 38.6,689.4 v -24.6 l 122.7,-0.2 c 6.6,0 12,5.3 12,11.9 v 0 0 c 0,7.2 -6,13.1 -13.2,13.1 z m 43.1,81.7 -38.7,-53.7 c 10.5,-0.9 19.3,-4.4 26.4,-12.3 7.9,-7.9 12.3,-17.6 12.3,-29 0,-11.4 -4.4,-21.2 -12.3,-29.1 -7.9,-7.9 -17.6,-12.3 -29.1,-12.3 H 9.5 v 136.5 h 29.1 v -53.7 h 89.8 l 38.7,53.7 h 36.1 z"
             id="path71206" />
          <polygon
             class="st0"
             points="776.3,634.8 838.7,743.1 901,634.8 934.6,634.8 855.4,771.3 821.9,771.3 742.2,634.8 "
             id="polygon71208" />
          <rect
             x="694.29999"
             y="690.29999"
             class="st0"
             width="57.200001"
             height="26.4"
             id="rect71210" />
        </g>
        <g
           id="g71216">
          <path
             class="st1"
             d="m 990.5,656.6 c 0,11.9 -9.3,21.2 -21.5,21.2 -12,0 -21.6,-9.3 -21.6,-21.2 0,-11.6 9.6,-20.9 21.6,-20.9 12.2,-0.1 21.5,9.3 21.5,20.9 z m -37.7,0 c 0,9.3 6.9,16.7 16.3,16.7 9.2,0 16,-7.4 16,-16.6 0,-9.3 -6.8,-16.8 -16.1,-16.8 -9.3,-0.1 -16.2,7.5 -16.2,16.7 z m 12.9,11 h -4.8 v -20.9 c 1.9,-0.4 4.6,-0.6 8,-0.6 4,0 5.8,0.6 7.3,1.5 1.2,0.9 2,2.5 2,4.6 0,2.3 -1.8,4.1 -4.3,4.8 v 0.3 c 2,0.8 3.2,2.3 3.8,5.1 0.6,3.2 1,4.5 1.5,5.2 H 974 c -0.6,-0.8 -1,-2.7 -1.7,-5.1 -0.4,-2.3 -1.7,-3.3 -4.3,-3.3 h -2.3 z m 0.1,-11.9 h 2.3 c 2.7,0 4.8,-0.9 4.8,-3.1 0,-1.9 -1.4,-3.2 -4.5,-3.2 -1.3,0 -2.2,0.1 -2.7,0.2 v 6.1 z"
             id="path71214" />
        </g>
      </g>
    </g>
    <g
       id="g867"
       transform="matrix(1.2391966,0,0,1.2391966,-16.199676,-10.571379)">
      <path
         style="font-style:italic;font-weight:bold;font-size:28.3757px;font-family:'Open Sans';-inkscape-font-specification:'Open Sans Bold Italic';text-align:center;letter-spacing:0px;word-spacing:0px;text-anchor:middle;fill:#fdb515;stroke-width:7.3123"
         d="m 59.883229,41.068895 q 0,2.895762 -2.050588,4.586111 -2.050588,1.676494 -5.555984,1.676494 -3.062027,0 -4.932495,-1.246979 v -3.796358 q 2.674077,1.496375 4.960205,1.496375 1.551796,0 2.424682,-0.581924 0.872885,-0.595779 0.872885,-1.621073 0,-0.595778 -0.193974,-1.039149 -0.18012,-0.457225 -0.526503,-0.845174 -0.346383,-0.387949 -1.71806,-1.413243 -1.912034,-1.371677 -2.687932,-2.715643 -0.775898,-1.343967 -0.775898,-2.895763 0,-1.787336 0.85903,-3.186724 0.85903,-1.413243 2.438536,-2.189141 1.593363,-0.789753 3.657806,-0.789753 3.006604,0 5.500562,1.371677 l -1.51023,3.22829 q -2.16143,-1.025294 -3.990332,-1.025294 -1.149992,0 -1.884324,0.623489 -0.734332,0.62349 -0.734332,1.648784 0,0.845175 0.457225,1.482519 0.457226,0.62349 2.050588,1.662639 1.676494,1.108426 2.507813,2.452392 0.83132,1.330111 0.83132,3.117448 z m 21.794422,-14.270982 -2.78492,13.107134 q -0.789753,3.685516 -3.02046,5.555985 -2.230707,1.870468 -5.80538,1.870468 -2.937329,0 -4.627678,-1.565651 -1.676494,-1.579507 -1.676494,-4.267439 0,-0.997584 0.20783,-1.912035 l 2.715643,-12.788462 h 4.225873 l -2.687932,12.733041 q -0.235541,1.025294 -0.235541,1.731915 0,2.466247 2.618656,2.466247 1.704205,0 2.701788,-1.053004 0.997583,-1.06686 1.440954,-3.172869 l 2.687932,-12.70533 z M 93.025159,41.94178 100.65944,26.797913 h 5.8608 l -4.28129,20.256481 h -3.879491 l 2.009021,-9.587883 q 0.73433,-3.422265 1.45481,-6.110197 h -0.0693 l -7.883676,15.69808 h -3.893345 l -0.845175,-15.69808 h -0.05542 q -0.152409,1.219268 -0.526503,3.200579 -0.374093,1.981311 -2.590945,12.497501 h -3.810214 l 4.281295,-20.256481 h 5.59755 l 0.942162,15.143867 z m 24.967291,0 7.63428,-15.143867 h 5.86081 l -4.2813,20.256481 h -3.87949 l 2.00902,-9.587883 q 0.73434,-3.422265 1.45481,-6.110197 h -0.0693 l -7.88368,15.69808 h -3.89335 l -0.84517,-15.69808 h -0.0554 q -0.15241,1.219268 -0.52651,3.200579 -0.37409,1.981311 -2.59094,12.497501 h -3.81022 l 4.2813,-20.256481 h 5.59755 l 0.94216,15.143867 z m 14.09087,5.112614 4.32286,-20.256481 h 4.22587 l -4.32286,20.256481 z m 16.30771,0 h -4.22588 l 3.51926,-16.681808 h -4.87708 l 0.76205,-3.574673 h 13.99387 l -0.76204,3.574673 h -4.89093 z"
         id="text2630"
         transform="matrix(0.97207395,-0.06848842,0.0676396,1.0239627,0,0)"
         aria-label="SUMMIT" />
      <path
         style="font-style:italic;font-weight:bold;font-size:27.5076px;font-family:'Open Sans';-inkscape-font-specification:'Open Sans Bold Italic';text-align:center;letter-spacing:0px;word-spacing:0px;text-anchor:middle;fill:#fdb515;stroke-width:7.0886"
         d="M 143.20609,75.593849 H 132.2326 l 4.15032,-19.636773 h 10.98692 l -0.7253,3.411587 h -6.8769 l -0.8999,4.311494 h 6.4068 l -0.73873,3.411587 h -6.4068 l -1.07452,5.063655 h 6.8769 z m 22.48424,-19.636773 -2.69972,12.706147 q -0.76559,3.572765 -2.92805,5.38601 -2.16246,1.813245 -5.62778,1.813245 -2.84746,0 -4.4861,-1.517753 -1.6252,-1.531185 -1.6252,-4.136886 0,-0.967064 0.20147,-1.853539 l 2.63256,-12.397224 h 4.09659 l -2.6057,12.343498 q -0.22833,0.993927 -0.22833,1.678931 0,2.390797 2.53854,2.390797 1.65207,0 2.61913,-1.02079 0.96707,-1.034221 1.39687,-3.075801 l 2.6057,-12.316635 z m 6.86347,8.717008 h 1.04765 q 1.75952,0 2.74002,-0.765593 0.98049,-0.765592 0.98049,-2.337071 0,-1.101379 -0.64471,-1.652068 -0.63127,-0.550689 -2.00128,-0.550689 h -0.99393 z m -0.71187,3.384724 -1.59834,7.535041 H 166.147 l 4.15032,-19.636773 h 4.82189 q 3.18325,0 4.78159,1.370007 1.59834,1.370007 1.59834,4.016002 0,2.122169 -1.11481,3.653354 -1.11481,1.517753 -3.21011,2.256482 l 3.50561,8.340928 h -4.45924 l -2.78031,-7.535041 z m 29.57605,-5.063655 q 0,3.801099 -1.32971,6.809743 -1.32972,2.995212 -3.63992,4.526397 -2.31021,1.531185 -5.31886,1.531185 -3.43845,0 -5.37257,-1.974422 -1.9207,-1.987854 -1.9207,-5.506893 0,-3.559333 1.32971,-6.541114 1.32971,-2.995213 3.66679,-4.593555 2.33707,-1.598342 5.39944,-1.598342 3.42502,0 5.30542,1.934129 1.8804,1.934128 1.8804,5.412872 z m -7.52161,-3.881688 q -1.6252,0 -2.98178,1.235693 -1.35658,1.222262 -2.1356,3.371293 -0.76559,2.149031 -0.76559,4.660712 0,1.974422 0.88647,2.981781 0.89991,1.007358 2.52512,1.007358 1.6252,0 2.95491,-1.168536 1.34315,-1.168535 2.09531,-3.304135 0.75216,-2.1356 0.75216,-4.795026 0,-1.907266 -0.87304,-2.941487 -0.87305,-1.047653 -2.45796,-1.047653 z m 15.379,6.084445 h 0.75217 q 1.90726,0 2.99521,-0.92677 1.10138,-0.926769 1.10138,-2.484817 0,-2.41766 -2.61914,-2.41766 h -0.99392 z m 8.97221,-3.519039 q 0,3.236979 -2.28335,5.090518 -2.26991,1.840108 -6.27248,1.840108 h -1.1551 l -1.46403,6.984352 h -4.09659 l 4.15031,-19.636773 h 4.53983 q 3.25041,0 4.91591,1.437164 1.6655,1.423734 1.6655,4.284631 z m 11.6585,13.914978 h -10.97349 l 4.15031,-19.636773 h 10.98692 l -0.72529,3.411587 h -6.8769 l -0.89991,4.311494 h 6.4068 l -0.73873,3.411587 h -6.4068 l -1.07452,5.063655 h 6.8769 z"
         id="text2630-3"
         transform="matrix(0.97207395,-0.06848842,0.0676396,1.0239627,0,0)"
         aria-label="EUROPE" />
      <path
         style="font-style:italic;font-weight:bold;font-size:27.5076px;font-family:'Open Sans';-inkscape-font-specification:'Open Sans Bold Italic';text-align:center;letter-spacing:0px;word-spacing:0px;text-anchor:middle;fill:#c2a6e1;stroke-width:7.0886"
         d="m 175.40447,46.749298 h -12.92105 l 0.57755,-2.860898 6.4068,-5.694933 q 2.41766,-2.1356 3.331,-3.411587 0.92677,-1.289419 0.92677,-2.41766 0,-1.007359 -0.55069,-1.531185 -0.55069,-0.537258 -1.47746,-0.537258 -0.88647,0 -1.82668,0.456669 -0.92677,0.443238 -2.29677,1.584911 l -1.96099,-2.726584 q 1.77295,-1.504322 3.38472,-2.135599 1.61177,-0.64471 3.35786,-0.64471 2.55198,0 4.04287,1.316282 1.49089,1.316281 1.49089,3.478744 0,1.437165 -0.55069,2.699721 -0.55069,1.262556 -1.65207,2.525112 -1.08795,1.262556 -3.57276,3.290704 l -3.61306,2.981781 v 0.134314 h 7.62906 z m 17.79667,-13.592623 q 0,6.31278 -2.26992,10.087016 -2.25648,3.774236 -6.33964,3.774236 -2.65943,0 -4.04287,-1.638636 -1.37,-1.638637 -1.37,-4.902478 0,-3.989139 1.12824,-7.212686 1.12824,-3.223547 3.06237,-4.835321 1.93413,-1.625205 4.47267,-1.625205 5.35915,0 5.35915,6.353074 z m -5.7218,-2.995212 q -1.07452,0 -2.01472,1.39687 -0.92677,1.39687 -1.57148,4.056297 -0.64471,2.659426 -0.64471,4.942772 0,1.544616 0.36265,2.337071 0.37608,0.779024 1.31629,0.779024 1.08794,0 2.01471,-1.423733 0.9402,-1.423733 1.55805,-4.042865 0.63128,-2.619132 0.63128,-5.184538 0,-1.490891 -0.41638,-2.175895 -0.40294,-0.685003 -1.23569,-0.685003 z m 18.22647,16.587835 h -12.92105 l 0.57755,-2.860898 6.4068,-5.694933 q 2.41766,-2.1356 3.331,-3.411587 0.92677,-1.289419 0.92677,-2.41766 0,-1.007359 -0.55069,-1.531185 -0.55069,-0.537258 -1.47746,-0.537258 -0.88647,0 -1.82667,0.456669 -0.92677,0.443238 -2.29678,1.584911 l -1.96099,-2.726584 q 1.77295,-1.504322 3.38472,-2.135599 1.61178,-0.64471 3.35786,-0.64471 2.55198,0 4.04287,1.316282 1.49089,1.316281 1.49089,3.478744 0,1.437165 -0.55069,2.699721 -0.55069,1.262556 -1.65207,2.525112 -1.08794,1.262556 -3.57276,3.290704 l -3.61306,2.981781 v 0.134314 h 7.62906 z M 222.4011,42.67957 h -2.28335 l -0.84618,4.069728 h -3.93541 l 0.84618,-4.069728 h -7.92455 l 0.6447,-3.142958 10.34222,-12.424088 h 4.17718 l -2.61913,12.343499 h 2.28334 z m -5.53376,-3.223547 0.77903,-3.330998 q 0.16117,-0.779024 0.53725,-2.202758 0.37608,-1.423733 0.56412,-1.893833 h -0.0806 q -0.47011,0.846181 -1.77296,2.431091 l -4.20404,4.996498 z"
         id="text2630-3-6"
         transform="matrix(0.97207395,-0.06848842,0.0676396,1.0239627,0,0)"
         aria-label="2024" />
      <g
         id="g88458"
         transform="matrix(1.3794819,0,0,1.3794819,-49.493771,-7.8083845)">
        <path
           style="font-style:italic;font-weight:bold;font-size:7.76597px;font-family:'Open Sans';-inkscape-font-specification:'Open Sans Bold Italic';text-align:center;letter-spacing:-0.450876px;word-spacing:0px;text-anchor:middle;fill:#c2a6e1;stroke-width:2.09791"
           d="m 88.358388,54.154808 h -3.647882 l 0.163055,-0.807691 1.808773,-1.607799 q 0.682556,-0.602924 0.940411,-0.963162 0.261646,-0.36403 0.261646,-0.682556 0,-0.284398 -0.155471,-0.432285 -0.155471,-0.15168 -0.417118,-0.15168 -0.25027,0 -0.515709,0.128928 -0.261646,0.125135 -0.648428,0.447453 l -0.553629,-0.769771 q 0.500542,-0.424702 0.955579,-0.602925 0.455037,-0.182015 0.947994,-0.182015 0.720476,0 1.141386,0.371614 0.420909,0.371614 0.420909,0.982122 0,0.405742 -0.155471,0.762188 -0.155471,0.356446 -0.466413,0.712892 -0.30715,0.356445 -1.008666,0.929034 l -1.020042,0.841819 v 0.03792 h 2.153843 z m 4.262553,-1.148969 h -0.644637 l -0.238894,1.148969 h -1.11105 l 0.238895,-1.148969 h -2.237267 l 0.182015,-0.887323 2.919823,-3.507579 h 1.179305 l -0.739436,3.484827 h 0.644636 z m -1.562295,-0.910075 0.219934,-0.94041 q 0.0455,-0.219935 0.15168,-0.621885 0.106175,-0.401949 0.159263,-0.534668 h -0.02275 q -0.13272,0.238894 -0.500541,0.686347 l -1.186889,1.410616 z m 3.212544,0.451246 0.200975,-0.947995 h 1.986996 l -0.200975,0.947995 z m 6.9211,1.607798 h -3.647885 l 0.163055,-0.807691 1.808774,-1.607799 q 0.682556,-0.602924 0.940406,-0.963162 0.26165,-0.36403 0.26165,-0.682556 0,-0.284398 -0.15547,-0.432285 -0.15547,-0.15168 -0.41712,-0.15168 -0.250269,0 -0.515707,0.128928 -0.261647,0.125135 -0.648428,0.447453 l -0.553629,-0.769771 q 0.500541,-0.424702 0.955578,-0.602925 0.455038,-0.182015 0.947996,-0.182015 0.72047,0 1.14138,0.371614 0.42091,0.371614 0.42091,0.982122 0,0.405742 -0.15547,0.762188 -0.15547,0.356446 -0.46641,0.712892 -0.30715,0.356445 -1.00867,0.929034 l -1.020039,0.841819 v 0.03792 h 2.153839 z m 3.09841,-5.631087 q 0.46642,0 0.81528,0.159263 0.35265,0.159263 0.53467,0.447454 0.1858,0.28819 0.1858,0.659804 0,0.508125 -0.30715,0.887323 -0.30336,0.375405 -0.87215,0.572588 0.82286,0.534669 0.82286,1.384072 0,0.462621 -0.24269,0.830443 -0.23889,0.36403 -0.68635,0.565005 -0.44366,0.200975 -1.03521,0.200975 -0.81148,0 -1.27789,-0.379198 -0.46262,-0.379198 -0.46262,-1.023834 0,-1.130009 1.3196,-1.615383 -0.62567,-0.500541 -0.62567,-1.133801 0,-0.451245 0.21993,-0.803899 0.21994,-0.356446 0.63705,-0.553629 0.41712,-0.197183 0.97454,-0.197183 z m -0.52708,3.192845 q -0.43987,0.170639 -0.65601,0.405742 -0.21615,0.235103 -0.21615,0.580173 0,0.30715 0.1896,0.489165 0.1896,0.178223 0.51192,0.178223 0.35265,0 0.55742,-0.200975 0.20856,-0.204767 0.20856,-0.527085 0,-0.276814 -0.14031,-0.496749 -0.13651,-0.223727 -0.45503,-0.428494 z m 0.4247,-2.33965 q -0.28819,0 -0.45883,0.178223 -0.17064,0.174431 -0.17064,0.451245 0,0.500542 0.46641,0.762188 0.70152,-0.273022 0.70152,-0.838027 0,-0.257855 -0.15168,-0.405742 -0.14789,-0.147887 -0.38678,-0.147887 z m 2.24938,6.408442 q -0.35645,0 -0.7091,-0.102383 v -0.95937 q 0.33369,0.07584 0.62188,0.07584 0.37541,0 0.60672,-0.23131 0.2351,-0.227519 0.34128,-0.724268 l 1.11105,-5.232929 h 1.15655 l -1.14897,5.395984 q -0.19718,0.929034 -0.66739,1.353736 -0.46641,0.424701 -1.31202,0.424701 z m 8.0697,-7.174421 -0.76219,3.587211 q -0.21614,1.008666 -0.82665,1.520583 -0.61051,0.511917 -1.58884,0.511917 -0.8039,0 -1.26652,-0.428494 -0.45883,-0.432285 -0.45883,-1.167929 0,-0.273022 0.0569,-0.523293 l 0.74323,-3.499995 h 1.15655 l -0.73564,3.484827 q -0.0645,0.280607 -0.0645,0.473997 0,0.674972 0.71669,0.674972 0.46641,0 0.73943,-0.28819 0.27303,-0.291982 0.39437,-0.868363 l 0.73564,-3.477243 z m 4.20567,5.543871 h -1.29686 l -1.34994,-4.193927 h -0.0228 l -0.0152,0.121343 q -0.12134,0.819067 -0.25027,1.463703 l -0.54984,2.608881 h -1.04279 l 1.17172,-5.543871 h 1.35374 l 1.28927,4.08396 h 0.0152 q 0.0455,-0.288191 0.14788,-0.82286 0.10239,-0.534668 0.68256,-3.2611 h 1.039 z m 3.98195,0 h -3.09805 l 1.17172,-5.543871 h 3.10184 l -0.20477,0.963162 h -1.94149 l -0.25406,1.217225 h 1.80877 l -0.20856,0.963162 h -1.80877 l -0.30336,1.429576 h 1.94149 z"
           id="text2630-3-7"
           transform="matrix(0.97207395,-0.06848842,0.0676396,1.0239627,0,0)"
           aria-label="24 - 28 JUNE " />
        <path
           style="font-style:italic;font-weight:bold;font-size:8.46667px;font-family:'Open Sans';-inkscape-font-specification:'Open Sans Bold Italic';text-align:center;letter-spacing:1.06593px;word-spacing:0px;text-anchor:middle;fill:#c2a6e1;stroke-width:5.51332"
           d="m 86.841577,61.241868 2.277898,-4.518589 h 1.748732 l -1.277442,6.044078 h -1.157553 l 0.599447,-2.860809 q 0.219108,-1.021126 0.434082,-1.823145 h -0.02067 l -2.352313,4.683954 h -1.161686 l -0.252181,-4.683954 h -0.01654 q -0.04547,0.363802 -0.157096,0.954981 -0.111621,0.591179 -0.77308,3.728973 h -1.136882 l 1.277442,-6.044078 h 1.670183 l 0.28112,4.518589 z m 10.979541,-4.518589 -0.830957,3.910874 q -0.235645,1.099675 -0.901237,1.657781 -0.665593,0.558105 -1.732195,0.558105 -0.876433,0 -1.380795,-0.467155 -0.500228,-0.471289 -0.500228,-1.273308 0,-0.297656 0.06201,-0.570508 l 0.810287,-3.815789 h 1.260905 l -0.802018,3.799253 q -0.07028,0.305924 -0.07028,0.516764 0,0.735873 0.781348,0.735873 0.508496,0 0.806152,-0.314193 0.297657,-0.318327 0.429948,-0.946712 l 0.802019,-3.790985 z m 6.142622,6.044078 h -1.41387 l -1.47174,-4.572333 h -0.0248 l -0.0165,0.132292 q -0.13229,0.892969 -0.27285,1.595769 l -0.59945,2.844272 h -1.136882 l 1.277442,-6.044078 h 1.47588 l 1.4056,4.452443 h 0.0165 q 0.0496,-0.314193 0.16123,-0.897103 0.11162,-0.58291 0.74414,-3.55534 h 1.13274 z m 2.52114,0 1.28985,-6.044078 h 1.2609 l -1.28984,6.044078 z m 7.31258,-5.072561 q -0.5457,0 -0.98392,0.334864 -0.43408,0.334863 -0.69866,0.988053 -0.26459,0.649057 -0.26459,1.397332 0,0.690397 0.28112,1.025261 0.28526,0.334863 0.90537,0.334863 0.60358,0 1.39733,-0.318327 v 1.07487 q -0.82268,0.318327 -1.65364,0.318327 -1.05007,0 -1.63298,-0.615983 -0.58291,-0.620118 -0.58291,-1.752865 0,-1.083139 0.42995,-1.992644 0.42995,-0.91364 1.14928,-1.384929 0.71934,-0.475424 1.65365,-0.475424 0.51677,0 0.91777,0.09508 0.40101,0.09095 0.8599,0.338997 l -0.48782,1.03353 q -0.43822,-0.243913 -0.72348,-0.322462 -0.28525,-0.07855 -0.56637,-0.07855 z m 7.19683,5.072561 h -1.26504 l 0.55397,-2.608627 h -1.94717 l -0.55397,2.608627 h -1.26091 l 1.27745,-6.044078 h 1.26503 l -0.50022,2.368849 h 1.94717 l 0.50022,-2.368849 h 1.26091 z"
           id="text2630-3-7-3"
           transform="matrix(0.97207395,-0.06848842,0.0676396,1.0239627,0,0)"
           aria-label="MUNICH" />
      </g>
    </g>
  </g>
  <style
     type="text/css"
     id="style70341">
	.st0{fill:#1DCAD3;}
	.st1{fill:#36B0C9;}
	.st2{fill:#231F20;}
	.st3{fill:#FFFFFF;}
	.st4{fill:#9164CC;}
	.st5{clip-path:url(#SVGID_2_);fill:url(#SVGID_3_);}
	.st6{fill:#201747;}
	.st7{fill-rule:evenodd;clip-rule:evenodd;fill:#10CFC9;}
	.st8{clip-path:url(#SVGID_5_);fill:#231F20;}
	.st9{fill-rule:evenodd;clip-rule:evenodd;fill:#231F20;}
	.st10{clip-path:url(#SVGID_7_);fill:#FFFFFF;}
	.st11{fill-rule:evenodd;clip-rule:evenodd;fill:#FFFFFF;}
	.st12{fill:#8CCEAF;}
	.st13{fill:#008476;}
	.st14{fill:#25BCBD;}
	.st15{fill:#004D70;}
	.st16{fill:#20BBBB;}
	.st17{fill:#024D70;}
	.st18{fill-rule:evenodd;clip-rule:evenodd;fill:#F58B1F;}
	.st19{fill-rule:evenodd;clip-rule:evenodd;fill:#18335B;}
	.st20{clip-path:url(#SVGID_9_);}
	.st21{clip-path:url(#SVGID_11_);}
	.st22{fill:#18335B;}
	.st23{fill:#F58B1F;}
	.st24{clip-path:url(#SVGID_15_);}
	.st25{clip-path:url(#SVGID_17_);}
	.st26{clip-path:url(#SVGID_21_);}
	.st27{clip-path:url(#SVGID_23_);}
	.st28{clip-path:url(#SVGID_27_);}
	.st29{clip-path:url(#SVGID_29_);}
	.st30{clip-path:url(#SVGID_33_);}
	.st31{clip-path:url(#SVGID_35_);}
	.st32{clip-path:url(#SVGID_39_);}
	.st33{clip-path:url(#SVGID_41_);}
	.st34{fill:#416BA9;}
	.st35{fill:#73C3D5;}
	.st36{opacity:0.8;}
	.st37{fill:#3A3A3A;}
	.st38{fill:url(#SVGID_44_);}
	.st39{fill:none;stroke:#000000;stroke-width:6.3384;}
	.st40{fill:none;stroke:#000000;stroke-width:3.1692;}
	.st41{fill:#48494B;}
	.st42{fill:#C1986C;}
	.st43{fill:url(#SVGID_63_);}
	.st44{fill:url(#SVGID_64_);}
	.st45{fill:url(#SVGID_65_);}
	.st46{fill:url(#SVGID_66_);}
	.st47{fill:url(#SVGID_67_);}
	.st48{fill:#4D4E4E;}
	.st49{fill:#27B373;}
	.st50{fill:#5DC4CD;}
	.st51{fill:#1E8756;}
	.st52{fill:#3D1152;}
	.st53{fill:#922C48;}
	.st54{fill-rule:evenodd;clip-rule:evenodd;fill:#922C48;}
	.st55{fill:#404041;}
	.st56{fill:#EC1C24;}
	.st57{fill:#373A36;}
	.st58{fill:#808184;}
	.st59{fill:#262261;}
	.st60{fill:#6FCBDC;}
	.st61{fill:#2F3436;}
	.st62{fill:#5F97D0;}
	.st63{fill:#132428;}
	.st64{fill:#85C041;}
	.st65{fill:#677784;}
	.st66{fill:url(#SVGID_68_);}
	.st67{opacity:0.2;clip-path:url(#SVGID_70_);}
	.st68{fill:#FFFEFA;}
	.st69{opacity:0.1;}
	.st70{fill:url(#SVGID_71_);}
	.st71{opacity:0.3;}
	.st72{opacity:0.08;}
	.st73{opacity:0.1;fill:url(#Wordmark_1_);}
	.st74{fill:url(#SVGID_104_);}
	.st75{opacity:0.6;fill:url(#SVGID_107_);}
	.st76{opacity:0.4;}
	.st77{fill:url(#SVGID_110_);}
	.st78{opacity:0.6;fill:url(#SVGID_113_);}
	.st79{fill:url(#SVGID_116_);}
	.st80{opacity:0.6;fill:url(#SVGID_119_);}
	.st81{fill:url(#SVGID_122_);}
	.st82{opacity:0.6;fill:url(#SVGID_125_);}
	.st83{fill:url(#SVGID_128_);}
	.st84{opacity:0.6;fill:url(#SVGID_131_);}
	.st85{fill:#221F1F;}
	.st86{fill:none;}
	.st87{fill:#00416B;}
	.st88{opacity:0.8;fill:url(#XMLID_323_);}
	.st89{fill:#4197CB;}
	.st90{fill:#003E52;}
	.st91{fill:#3F96B4;}
	.st92{fill:#B9DBE5;}
	.st93{opacity:0.3;fill:#231F20;}
	.st94{opacity:0.3;fill:#FFFFFF;}
	.st95{fill:#050013;}
	.st96{fill:#E87200;}
	.st97{fill:#FCB813;}
	.st98{fill:#3D3935;}
	.st99{fill:#FFB600;}
	.st100{fill:#FCB814;}
	.st101{fill:#F48120;}
	.st102{fill:#EF4E25;}
	.st103{fill:#ED3024;}
	.st104{fill:#E0592A;}
	.st105{fill:#00ADBB;}
	.st106{fill:#00829B;}
	.st107{fill:#93D500;}
	.st108{fill:#4D5A31;}
	.st109{fill:#6BA43A;}
	.st110{fill:#424143;}
	.st111{fill-rule:evenodd;clip-rule:evenodd;fill:#C7E6B4;}
	.st112{fill-rule:evenodd;clip-rule:evenodd;fill:#5A9891;}
	.st113{fill-rule:evenodd;clip-rule:evenodd;fill:#127870;}
	.st114{fill-rule:evenodd;clip-rule:evenodd;fill:#5CCFD5;}
	.st115{fill-rule:evenodd;clip-rule:evenodd;fill:#ACD5CD;}
	.st116{fill-rule:evenodd;clip-rule:evenodd;fill:#B5ECC9;}
	.st117{fill-rule:evenodd;clip-rule:evenodd;fill:#A1D683;}
	.st118{fill-rule:evenodd;clip-rule:evenodd;fill:#DEF0D3;}
	.st119{fill-rule:evenodd;clip-rule:evenodd;fill:#91B9B4;}
	.st120{fill-rule:evenodd;clip-rule:evenodd;fill:#006860;}
	.st121{fill-rule:evenodd;clip-rule:evenodd;fill:#00ADBB;}
	.st122{fill-rule:evenodd;clip-rule:evenodd;fill:#B4E7E9;}
	.st123{fill-rule:evenodd;clip-rule:evenodd;fill:#007565;}
	.st124{fill-rule:evenodd;clip-rule:evenodd;fill:#00CE7C;}
	.st125{fill-rule:evenodd;clip-rule:evenodd;fill:#5FD896;}
	.st126{fill:#007DA5;}
	.st127{fill:#313032;}
	.st128{fill:#24272A;}
	.st129{fill:#00AFAA;}
	.st130{fill:#66C9BA;}
	.st131{fill:#0069A7;}
	.st132{fill:#002F87;}
	.st133{fill:#8BC53F;}
	.st134{fill:#1A1A1A;}
	.st135{fill:#0095D6;}
	.st136{fill:#003F5F;}
	.st137{fill:#2D317C;}
	.st138{fill:#41BFBF;}
	.st139{fill:#293C97;}
	.st140{fill:#52C2BD;}
	.st141{fill:url(#SVGID_134_);}
	.st142{fill:url(#SVGID_135_);}
	.st143{fill:url(#SVGID_136_);}
	.st144{fill:#0DBEEA;}
	.st145{fill:#097EC2;}
	.st146{fill:#133C63;}
	.st147{fill:#3B91CF;}
	.st148{fill:#C8DEE8;}
	.st149{fill:#629BBA;}
	.st150{fill:#F8BE19;}
	.st151{fill:url(#SVGID_137_);}
	.st152{fill:url(#SVGID_138_);}
	.st153{fill:url(#SVGID_139_);}
	.st154{fill:#00233B;}
	.st155{fill:url(#SVGID_140_);}
	.st156{fill:url(#SVGID_141_);}
	.st157{fill:url(#SVGID_142_);}
	.st158{fill:url(#SVGID_143_);}
	.st159{fill:url(#SVGID_144_);}
	.st160{fill:url(#SVGID_145_);}
	.st161{fill:url(#SVGID_146_);}
	.st162{fill:url(#SVGID_147_);}
	.st163{fill:url(#SVGID_148_);}
	.st164{fill:url(#SVGID_149_);}
	.st165{fill:url(#SVGID_150_);}
	.st166{fill:url(#SVGID_151_);}
	.st167{fill:url(#SVGID_152_);}
	.st168{fill:url(#SVGID_153_);}
	.st169{fill:url(#SVGID_154_);}
	.st170{fill:url(#SVGID_155_);}
	.st171{fill:url(#SVGID_156_);}
	.st172{fill:url(#SVGID_157_);}
	.st173{fill:url(#SVGID_158_);}
	.st174{fill:url(#SVGID_159_);}
	.st175{fill:url(#SVGID_160_);}
	.st176{fill:url(#SVGID_161_);}
	.st177{fill:url(#SVGID_162_);}
	.st178{fill:url(#SVGID_163_);}
	.st179{fill:url(#SVGID_164_);}
	.st180{fill:url(#SVGID_165_);}
	.st181{fill:url(#SVGID_166_);}
	.st182{fill:url(#SVGID_167_);}
	.st183{fill:url(#SVGID_168_);}
	.st184{fill:url(#SVGID_169_);}
	.st185{fill:url(#SVGID_170_);}
	.st186{fill:url(#SVGID_171_);}
	.st187{fill:url(#SVGID_172_);}
	.st188{fill:url(#SVGID_173_);}
	.st189{fill:url(#SVGID_174_);}
	.st190{fill:url(#SVGID_175_);}
	.st191{fill:url(#SVGID_176_);}
	.st192{fill:url(#SVGID_177_);}
	.st193{fill:url(#SVGID_178_);}
	.st194{fill:#C31230;}
	.st195{fill:#807F82;}
	.st196{fill-rule:evenodd;clip-rule:evenodd;fill:#C31230;}
	.st197{fill-rule:evenodd;clip-rule:evenodd;fill:#807F82;}
	.st198{fill:#2D2D2D;}
	.st199{display:none;fill:#2D2D2D;}
	.st200{fill:#D11F3C;}
	.st201{fill:#E42C4C;stroke:#E42C4C;stroke-width:1.0503;stroke-miterlimit:10;}
	.st202{display:none;fill:#231F20;}
	.st203{display:none;fill:#FFFFFF;}
	.st204{fill:#FF7F30;}
	.st205{opacity:0.3;fill:#FF7F30;}
	.st206{opacity:0.6;fill:#FF7F30;}
	.st207{opacity:0.7;fill:#FF7F30;}
	.st208{fill:#221C35;}
	.st209{fill:#1B98D5;}
	.st210{fill:#173963;}
	.st211{fill:#009ADE;}
	.st212{fill:#003764;}
	.st213{fill:#2A7DE1;}
	.st214{opacity:0.4;clip-path:url(#XMLID_324_);fill:#221F1F;}
	.st215{fill:#002A3A;}
	.st216{fill:#0033A1;}
	.st217{fill:url(#SVGID_179_);}
	.st218{fill:url(#SVGID_180_);}
	.st219{fill:url(#SVGID_181_);}
	.st220{fill:url(#SVGID_182_);}
	.st221{fill:#007EC4;}
	.st222{fill-rule:evenodd;clip-rule:evenodd;fill:url(#SVGID_183_);}
	.st223{fill-rule:evenodd;clip-rule:evenodd;fill:#E6E7E8;}
	.st224{fill:#009345;}
	.st225{fill:#BBBCB8;}
	.st226{fill:#72C0EB;}
	.st227{fill:#939598;}
	.st228{fill-rule:evenodd;clip-rule:evenodd;fill:#2CB8EB;}
	.st229{fill:#2CB8EB;}
	.st230{fill:#81B83A;}
	.st231{fill-rule:evenodd;clip-rule:evenodd;fill:#81B83A;}
	.st232{enable-background:new    ;}
	.st233{fill:#FF6F3E;}
	.st234{fill:#12143D;}
	.st235{fill:url(#SVGID_184_);}
	.st236{fill:url(#SVGID_185_);}
	.st237{fill:url(#SVGID_186_);}
	.st238{fill:url(#SVGID_187_);}
	.st239{fill:url(#SVGID_188_);}
	.st240{fill:url(#SVGID_189_);}
	.st241{fill:url(#SVGID_190_);}
	.st242{fill:url(#SVGID_191_);}
	.st243{fill:url(#SVGID_192_);}
	.st244{fill:#7C51A0;}
	.st245{fill:#9F66A9;}
	.st246{fill:#9F80B9;}
	.st247{fill:url(#SVGID_193_);}
	.st248{fill:url(#SVGID_194_);}
	.st249{fill:url(#SVGID_195_);}
	.st250{fill:url(#SVGID_196_);}
	.st251{fill:#2D3136;}
	.st252{fill:#76777A;}
	.st253{fill:#A7A8A9;}
	.st254{fill:#0082CA;}
	.st255{fill:#FFB259;}
	.st256{fill:#385CAD;}
	.st257{fill:#7BA0C4;}
	.st258{fill:#EBA900;}
	.st259{fill:#929497;}
	.st260{opacity:0.7;fill:#FFFFFF;}
	.st261{fill:#016BAF;}
	.st262{fill:#343432;}
	.st263{fill:#6D6E70;}
	.st264{fill:#F4B01B;}
	.st265{fill:#293271;}
	.st266{fill:#A1D33C;}
	.st267{fill:#212322;}
	.st268{fill:#0047BA;}
	.st269{fill:#969CDE;}
	.st270{fill:#047BC1;}
	.st271{fill:url(#SVGID_197_);}
	.st272{fill:url(#SVGID_198_);}
	.st273{fill:url(#SVGID_199_);}
	.st274{fill:url(#SVGID_200_);}
	.st275{fill:url(#SVGID_201_);}
	.st276{fill:url(#SVGID_202_);}
	.st277{fill:url(#SVGID_203_);}
	.st278{fill:#13517C;}
	.st279{fill:#0077A6;}
	.st280{fill:none;stroke:#231F20;stroke-width:5.9036;stroke-miterlimit:10;}
	.st281{fill:#00A94F;}
	.st282{fill:none;stroke:#231F20;stroke-width:3.2172;stroke-miterlimit:10;}
	.st283{fill:#59595C;}
	.st284{opacity:0.349;fill:#F9AE19;}
	.st285{opacity:0.349;fill:#E99F22;}
	.st286{opacity:0.349;fill:#E47D25;}
	.st287{fill:#F9AE19;}
	.st288{fill:#E99F22;}
	.st289{fill:#F09B20;}
	.st290{fill:#E47D25;}
	.st291{fill:#E89223;}
	.st292{opacity:0.651;fill:#F9AE19;}
	.st293{fill:#E68825;}
	.st294{opacity:0.651;fill:#E99F22;}
	.st295{fill:#EB8D23;}
	.st296{opacity:0.7725;fill:#EF9B21;}
	.st297{opacity:0.651;fill:#E47D25;}
	.st298{opacity:0.7725;fill:#EA9622;}
	.st299{fill:url(#SVGID_204_);}
	.st300{fill:#55575B;}
	.st301{fill:#EE424E;}
	.st302{fill:#34424B;}
</style>
  <style
     type="text/css"
     id="style70385">
	.st0{fill:#E6AC2C;}
	.st1{fill:#2C356D;}
</style>
  <style
     type="text/css"
     id="style70429">
	.st0{fill:#FFFFFF;}
</style>
  <style
     type="text/css"
     id="style70473">
	.st0{fill:#F4B01B;}
	.st1{fill:#FFFFFF;}
</style>
  <style
     type="text/css"
     id="style70757">
	.st0{fill:#F4B01B;}
	.st1{fill:#FFFFFF;}
</style>
  <style
     type="text/css"
     id="style70801">
	.st0{fill:#FFFFFF;}
</style>
  <style
     type="text/css"
     id="style71148">
	.st0{fill:#F4B01B;}
	.st1{fill:#FFFFFF;}
</style>
  <style
     type="text/css"
     id="style71192">
	.st0{fill:#F4B01B;}
	.st1{fill:#FFFFFF;}
</style>
  <style
     type="text/css"
     id="style125003">
	.st0{fill:#F4B01B;}
	.st1{fill:#FFFFFF;}
</style>
</svg>
