<?xml version="1.0" encoding="UTF-8" standalone="no"?>
<svg
   role="img"
   viewBox="257.04 90.54 300.00001 119.99999"
   version="1.1"
   id="svg102"
   sodipodi:docname="beijing-institute-of-open-source-chip.svg"
   width="300"
   height="120"
   inkscape:version="1.3.2 (1:1.3.2+202311252150+091e20ef0f)"
   xmlns:inkscape="http://www.inkscape.org/namespaces/inkscape"
   xmlns:sodipodi="http://sodipodi.sourceforge.net/DTD/sodipodi-0.dtd"
   xmlns:xlink="http://www.w3.org/1999/xlink"
   xmlns="http://www.w3.org/2000/svg"
   xmlns:svg="http://www.w3.org/2000/svg">
  <defs
     id="defs102" />
  <sodipodi:namedview
     id="namedview102"
     pagecolor="#ffffff"
     bordercolor="#000000"
     borderopacity="0.25"
     inkscape:showpageshadow="2"
     inkscape:pageopacity="0.0"
     inkscape:pagecheckerboard="0"
     inkscape:deskcolor="#d1d1d1"
     inkscape:zoom="2.2204202"
     inkscape:cx="258.95999"
     inkscape:cy="144.79241"
     inkscape:window-width="1920"
     inkscape:window-height="1151"
     inkscape:window-x="0"
     inkscape:window-y="25"
     inkscape:window-maximized="1"
     inkscape:current-layer="svg102" />
  <style
     id="style1">svg {enable-background:new 0 0 1030.96 484}</style>
  <style
     id="style2">.st0{fill:#3e3a39}</style>
  <g
     id="g102"
     transform="matrix(0.43714391,0,0,0.43714391,178.37252,47.853726)">
    <g
       id="g6">
      <g
         id="g3">
        <g
           id="g2">
          <path
             d="m 283.33,293.42 8.37,0.83 c -0.11,0.78 -0.5,1.39 -2.05,1.61 v 45.81 c 0,0.61 -2.72,1.94 -5.1,1.94 h -1.22 v -16.36 c -2.72,2.33 -6.32,5.16 -10.93,8.43 -0.17,0.72 -0.72,1.39 -1.39,1.55 l -3.72,-7.99 c 2.77,-0.61 9.26,-2.44 16.03,-4.49 v -14.92 h -13.7 l -0.5,-1.61 h 14.2 v -14.8 z m 34.22,41.54 c 1.83,0.83 2.33,1.61 2.33,2.77 0,2.88 -2.61,4.05 -11.37,4.05 h -5.05 c -5.49,0 -7.15,-1.33 -7.15,-6.16 v -42.15 l 8.38,0.89 c -0.06,0.72 -0.56,1.33 -1.94,1.55 v 18.97 c 3.77,-4.33 7.21,-9.43 9.21,-12.92 l 7.93,5.1 c -0.44,0.61 -1.33,0.78 -2.44,0.33 -3.22,3 -8.6,6.6 -14.7,9.48 v 16.86 c 0,1.28 0.44,1.77 2.27,1.77 h 4.1 c 1.55,0 2.88,-0.06 3.61,-0.11 0.61,-0.06 1.05,-0.22 1.5,-0.78 0.55,-1 1.55,-4.33 2.55,-7.76 h 0.55 z m 25.46,-5.21 c -0.28,0.5 -0.78,0.83 -2.05,0.61 -3.99,4.05 -10.65,8.6 -17.8,11.09 l -0.5,-0.55 c 5.27,-4.16 10.43,-10.87 12.76,-15.59 z m 24.9,-34.39 c 0,0 4.38,3.33 6.93,5.6 -0.17,0.61 -0.78,0.89 -1.61,0.89 h -49.42 l -0.44,-1.61 h 24.74 l -0.22,-0.11 c -0.94,-3.11 -3.72,-6.43 -6.16,-8.38 l 0.39,-0.33 c 12.59,-0.44 13.37,6.77 10.04,8.82 h 11.92 z m -15.36,26.34 v 14.31 c 0,4.33 -1.11,7.21 -8.82,7.76 -0.17,-2.05 -0.44,-3.55 -1.22,-4.49 -0.83,-0.94 -2.11,-1.72 -5.1,-2.16 v -0.72 c 0,0 5.88,0.39 7.1,0.39 0.94,0 1.22,-0.33 1.22,-1 V 321.7 h -6.38 v 1.22 c 0,0.61 -3.05,2.11 -5.88,2.11 h -0.94 v -19.8 l 7.21,2.77 h 18.36 l 3.16,-3.38 6.54,4.94 c -0.33,0.44 -1.11,0.94 -2.27,1.17 v 12.04 c -0.06,0.39 -3.38,1.77 -5.66,1.77 h -1.22 v -2.83 h -6.1 z m 6.1,-1.61 v -10.48 h -19.3 v 10.48 z m -2.16,6.49 c 20.63,3.77 17.03,17.25 10.09,13.53 -2.05,-4.49 -6.82,-9.76 -10.59,-13.15 z m 68.22,-15.97 c 0,0 3.88,3.55 5.99,5.82 -0.17,0.61 -0.72,0.89 -1.5,0.89 h -12.98 v 24.18 c 0,0.44 -2.11,1.94 -5.66,1.94 h -1.28 v -26.12 h -9.71 c -0.33,10.48 -3.27,20.63 -20.69,26.34 l -0.44,-0.5 c 11.48,-6.99 13.98,-15.64 14.25,-25.85 h -13.64 l -0.44,-1.61 h 14.14 v -0.72 -16.47 h -11.37 l -0.5,-1.61 h 37.94 l 3.33,-4.33 c 0,0 3.77,2.99 6.05,5.05 -0.17,0.61 -0.78,0.89 -1.55,0.89 h -10.43 v 17.19 h 5.16 z m -15.42,5.1 v -17.19 h -9.65 v 16.36 0.83 z m 24.63,-10.54 c 14.25,1.05 9.26,11.48 3.72,7.71 -0.5,-2.61 -2.44,-5.55 -4.16,-7.32 z m 15.64,-4.21 c -1.83,6.93 -4.99,19.8 -5.6,22.91 -0.44,1.94 -0.72,3.94 -0.67,5.27 0.11,3.05 2.33,5.1 2.11,10.04 -0.11,2.77 -1.83,4.66 -4.44,4.66 -1.28,0 -2.55,-0.78 -2.94,-2.94 1,-5.71 0.78,-11.04 -0.5,-11.87 -0.78,-0.55 -1.66,-0.78 -2.83,-0.89 v -1.11 h 2.44 c 0.78,0 1,0 1.55,-1.16 1.05,-2.11 1.05,-2.11 10.04,-25.18 z m -12.15,-8.65 c 15.03,1.44 9.87,12.42 4.1,8.49 -0.61,-2.94 -2.72,-6.1 -4.55,-8.15 z m 42.6,-0.17 c 0,0 3.88,3.05 6.16,5.16 -0.11,0.61 -0.72,0.89 -1.5,0.89 h -15.09 l 5.71,1.33 c -0.22,0.72 -0.89,1.22 -2.05,1.28 -1.33,1.44 -2.94,3 -4.55,4.16 h 7.71 l 2.72,-2.88 5.71,4.33 c -0.28,0.39 -1,0.78 -2,1 v 15.53 c -0.06,0.39 -3,1.5 -4.94,1.5 h -1 v -2.05 h -2.88 v 13.7 c 0,4.21 -1,7.15 -7.54,7.71 -0.06,-2 -0.33,-3.49 -1,-4.44 -0.61,-0.94 -1.72,-1.61 -4.1,-2.05 v -0.72 c 0,0 4.55,0.28 5.55,0.28 0.78,0 1,-0.33 1,-0.94 V 322.4 h -3.16 v 0.83 c 0,0.5 -2.44,1.83 -4.88,1.83 h -0.83 v -22.52 l 5.99,2.44 h 1.5 c 0.28,-1.83 0.5,-4.33 0.61,-6.77 h -10.93 v 11.7 c 0,10.15 -0.5,24.4 -10.7,33.72 l -0.67,-0.39 c 4.88,-9.98 5.27,-22.46 5.27,-33.33 v -15.86 l 7.04,2.61 h 19.47 z m -13.04,36.55 c -0.22,0.61 -0.72,0.89 -2,0.78 -2.5,3.88 -6.6,8.65 -11.65,11.59 l -0.55,-0.61 c 3.44,-4.16 6.16,-10.65 7.27,-14.98 z m -2.22,-22.13 v 6.49 h 12.15 v -6.49 z m 12.15,14.2 v -6.1 h -12.15 v 6.1 z m -1.44,5.71 c 15.09,5.77 10.37,16.58 5.05,12.37 -0.67,-3.99 -3.38,-8.82 -5.66,-12.04 z m 27.34,-26.51 v -7.93 l 8.32,0.72 c -0.06,0.72 -0.5,1.28 -1.94,1.5 v 5.71 h 12.2 v -7.93 l 8.49,0.72 c -0.11,0.72 -0.55,1.28 -2,1.5 v 5.71 h 4.16 l 3.49,-4.71 c 0,0 3.99,3.22 6.21,5.38 -0.17,0.61 -0.78,0.89 -1.55,0.89 h -12.31 v 5.66 c 0,0.61 -2.5,1.55 -5.44,1.55 h -1.05 v -7.21 h -12.2 v 5.99 c 0,0.61 -2.66,1.55 -5.38,1.55 h -1 v -7.54 h -13.09 l -0.39,-1.55 h 13.48 z m -5.05,16.36 c 6.71,23.96 -12.59,21.3 -7.04,12.98 2.94,-2.5 5.6,-7.1 6.38,-13.03 z m 13.65,-2.77 c -0.11,0.72 -0.61,1.28 -1.83,1.44 v 19.25 c 0,1.11 0.44,1.39 2.61,1.39 h 6.49 c 2.38,0 4.44,0 5.38,-0.06 0.89,-0.06 1.28,-0.28 1.72,-0.89 0.67,-1.05 1.66,-3.88 2.83,-7.54 h 0.56 l 0.22,7.82 c 1.94,0.72 2.44,1.5 2.44,2.72 0,2.94 -2.72,4.22 -13.7,4.22 h -6.99 c -6.32,0 -8.04,-1.11 -8.04,-5.93 v -23.13 z m 6.88,10.21 c -0.78,-4.77 -3.55,-10.21 -5.99,-14.2 l 0.55,-0.28 c 17.19,6.71 11.7,19.63 5.44,14.48 z m 16.41,8.92 c -0.22,-5.6 -2.88,-12.04 -5.71,-16.69 l 0.56,-0.33 c 17.96,8.54 11.75,23.13 5.15,17.02 z m 55.47,-30.17 c 0,0 4.1,3.33 6.49,5.66 -0.11,0.61 -0.72,0.89 -1.55,0.89 h -34.72 v 4.05 c 0,1.94 -0.11,3.94 -0.28,5.88 h 14.86 l 3.11,-3.38 6.54,4.94 c -0.39,0.44 -1.16,0.94 -2.39,1.22 v 20.35 c -0.06,0.39 -3.38,1.55 -5.55,1.55 h -1.11 V 320.6 h -15.7 c -1.22,9.37 -4.99,17.97 -14.75,23.13 l -0.5,-0.5 c 7.82,-7.93 9.32,-18.91 9.32,-30.12 v -19.97 l 8.43,0.83 c -0.11,0.78 -0.55,1.33 -2,1.55 v 11.92 h 11.81 V 291.7 l 8.82,0.72 c -0.11,0.78 -0.5,1.33 -2.11,1.61 v 13.42 h 7.6 z m 58.07,8.49 c 0,0 3.38,3.16 5.16,5.27 -0.11,0.61 -0.67,0.89 -1.44,0.89 h -6.77 v 24.74 c 0,0.44 -1.94,1.77 -5.16,1.77 h -1.17 v -26.51 h -5.49 c -0.17,10.21 -2,20.41 -16.03,26.73 l -0.5,-0.5 c 8.82,-7.15 10.32,-16.14 10.43,-26.23 h -5.32 l -0.44,-1.61 h 5.77 v -17.08 h -4.38 l -0.06,-0.11 h -8.99 c -0.78,4.99 -1.94,9.65 -3.66,13.92 l 0.94,0.39 h 3.49 l 2.77,-2.88 5.49,4.27 c -0.28,0.33 -0.94,0.78 -1.83,0.94 v 21.02 c -0.06,0.39 -2.94,1.55 -4.88,1.55 h -1 v -3.99 h -4.77 v 5.16 c 0,0.44 -1.77,1.77 -4.71,1.77 h -0.94 v -18.19 c -1.33,1.89 -2.77,3.66 -4.38,5.32 l -0.72,-0.55 c 4.27,-7.82 6.43,-18.47 7.54,-28.73 h -6.38 l -0.44,-1.61 H 615 l 3.38,-4.27 c 0,0 3.05,2.38 5.32,4.38 h 18.91 l 3.33,-4.44 c 0,0 3.72,3.05 5.99,5.16 -0.17,0.61 -0.78,0.89 -1.55,0.89 h -5.21 v 17.08 h 0.22 z m -37.83,3.27 v 17.75 h 4.77 v -17.75 z m 28.45,1.28 v -17.08 h -5.49 v 17.08 z m 24.79,-14.53 c 0.61,4.05 -0.67,6.93 -2.55,8.1 -1.83,1.17 -4.27,0.67 -5.05,-1.33 -0.61,-1.94 0.55,-3.49 2.27,-4.38 1.72,-1.22 3.38,-4.27 2.83,-7.54 l 0.78,-0.06 c 0.61,1.28 1.05,2.5 1.39,3.66 h 17.53 c -0.61,-0.17 -1.16,-0.5 -1.77,-0.94 0,-2.55 -1.28,-5.27 -2.66,-6.82 l 0.39,-0.28 c 11.26,0.44 10.21,6.88 6.49,8.04 h 15.31 l 3.27,-3.38 5.88,5.6 c -0.39,0.44 -1,0.56 -2.11,0.61 -1.61,1.72 -4.16,3.99 -6.38,5.55 6.21,4.49 3.94,10.37 -0.83,8.6 -2.94,-4.49 -9.37,-9.71 -14.53,-12.54 l 0.39,-0.55 c 6.27,0.5 10.7,1.94 13.7,3.66 0.39,-1.83 0.78,-4.16 1.05,-5.99 h -35.4 z m 42.16,34.6 c 1.66,0.72 2,1.44 2,2.61 0,2.61 -2.44,3.61 -9.59,3.61 h -4.16 c -5.16,0 -6.05,-1.33 -6.05,-5.38 v -14.92 h -7.71 c -1.33,9.1 -5.6,16.86 -23.85,22.13 l -0.5,-0.72 c 13.09,-6.05 16.58,-13.14 17.58,-21.41 h -11.54 l -0.5,-1.61 h 12.2 c 0.22,-2.66 0.22,-5.49 0.28,-8.38 l 8.82,0.72 c -0.11,0.83 -0.61,1.33 -1.89,1.5 -0.11,2.11 -0.22,4.16 -0.44,6.16 h 6.93 l 3.22,-3.61 5.99,4.83 c -0.39,0.44 -0.89,0.72 -1.94,0.94 v 13.09 c 0,0.72 0.22,0.89 1.39,0.89 h 3 c 0.94,0 2,0 2.44,-0.06 0.55,0 0.83,-0.11 1.16,-0.67 0.55,-0.83 1.44,-3.33 2.44,-6.27 h 0.55 z m -48.31,-18.74 c 4.66,-3.11 12.87,-10.98 15.86,-14.59 l 7.15,5.1 c -0.39,0.67 -1.33,1.05 -3.05,0.83 -4.6,2.77 -12.76,6.82 -19.63,9.21 z m 77.04,-14.64 c 1.72,10.04 -10.04,6.88 -4.94,0.61 1.39,-0.78 2.39,-2.44 2.72,-4.71 -0.44,0.5 -1.17,0.67 -2.44,0.67 -1.83,3.49 -5.1,9.43 -7.71,12.92 5.49,3.77 7.82,9.04 7.88,13.64 0,5.49 -1.94,8.49 -7.88,8.65 0,-1.66 -0.17,-3.83 -0.61,-4.66 -0.39,-0.56 -1.16,-0.94 -2.27,-1.28 v 13.81 c 0,0.39 -1.83,1.89 -4.83,1.89 H 713.4 V 293.2 l 6.6,2.55 h 3.27 l 3.16,-3.05 5.88,5.44 0.06,-0.55 h 0.72 c 0.5,1.11 0.83,2.16 1.11,3.11 h 10.37 c -0.55,-0.17 -1.17,-0.55 -1.77,-1.05 0.06,-2.72 -1.11,-5.77 -2.5,-7.65 l 0.44,-0.33 c 10.48,1.72 9.43,7.93 5.99,9.04 h 9.04 l 2.94,-2.94 5.27,4.99 c -0.44,0.39 -1,0.5 -2.11,0.55 -1.55,1.28 -4.27,3 -6.1,4.1 1.05,0.94 2.27,2 3.22,2.88 -0.11,0.61 -0.72,0.89 -1.5,0.89 h -24.9 l -0.44,-1.55 H 750 l 3.22,-4.27 1.72,1.39 c 0.39,-1.22 0.78,-3.05 1.11,-4.49 h -21.52 z m -12.32,25.12 c 0.5,0 0.83,-0.06 1.16,-0.28 0.72,-0.5 1.11,-1.5 1.11,-3.27 0,-3.99 -1,-8.21 -3.66,-11.92 0.94,-3.66 2.22,-10.21 2.88,-14.59 h -4.44 v 30.06 z m 39.72,8.76 c 1.44,0.72 1.77,1.5 1.77,2.66 0,2.38 -2,3.72 -8.26,3.72 h -3.38 c -4.6,0 -5.27,-1.28 -5.27,-5.27 v -17.47 h -4.27 c -0.72,9.21 -3.05,17.8 -17.97,23.63 L 724,342.67 c 10.76,-6.93 11.54,-14.86 11.76,-22.91 h -5.49 l -0.44,-1.61 h 24.13 l 3.27,-4.49 c 0,0 3.83,3.05 6.1,5.21 -0.17,0.61 -0.78,0.89 -1.55,0.89 h -8.87 v 0.44 15.42 c 0,0.67 0.11,0.89 1.05,0.89 h 2.16 1.89 c 0.44,0 0.72,-0.11 1.05,-0.61 0.44,-0.78 1.28,-3.38 2.11,-6.1 h 0.61 z"
             class="st0"
             id="path2" />
        </g>
      </g>
      <g
         id="g5">
        <g
           id="g4">
          <path
             d="m 269.66,351.94 h 5.56 c 3.68,0 6.34,1.17 6.34,4.41 0,1.71 -0.95,3.34 -2.56,3.88 v 0.12 c 2.05,0.44 3.53,1.83 3.53,4.26 0,3.56 -2.9,5.26 -6.87,5.26 h -6 z m 5.24,7.48 c 2.73,0 3.88,-1.02 3.88,-2.71 0,-1.88 -1.27,-2.58 -3.8,-2.58 h -2.49 v 5.29 z m 0.43,8.24 c 2.8,0 4.41,-1 4.41,-3.19 0,-2.02 -1.56,-2.9 -4.41,-2.9 h -2.85 v 6.09 z m 10.58,-15.72 h 10.6 v 2.36 h -7.77 v 5 h 6.58 v 2.39 h -6.58 v 5.8 h 8.04 v 2.39 h -10.87 z m 14.63,0 h 2.83 v 17.94 h -2.83 z m 5.89,15.28 1.97,-1.44 c 0.76,1.39 1.73,1.95 2.9,1.95 1.8,0 2.71,-0.98 2.71,-3.61 v -12.19 h 2.83 v 12.45 c 0,3.22 -1.56,5.8 -5.22,5.8 -2.41,0.01 -4.06,-0.99 -5.19,-2.96 z m 15.04,-15.28 h 2.83 v 17.94 h -2.83 z m 7.53,0 h 2.9 l 5.95,10.53 1.88,3.8 h 0.12 c -0.15,-1.85 -0.37,-4.02 -0.37,-5.97 v -8.36 h 2.68 v 17.94 h -2.9 l -5.95,-10.58 -1.88,-3.75 h -0.12 c 0.15,1.85 0.37,3.92 0.37,5.87 v 8.46 H 329 Z m 16.92,9.01 c 0,-5.85 3.61,-9.36 8.36,-9.36 2.53,0 4.24,1.12 5.34,2.27 l -1.54,1.8 c -0.88,-0.9 -1.97,-1.61 -3.7,-1.61 -3.34,0 -5.56,2.58 -5.56,6.8 0,4.27 1.97,6.87 5.68,6.87 1.1,0 2.19,-0.32 2.83,-0.88 v -4.22 h -3.56 v -2.31 h 6.12 v 7.77 c -1.19,1.19 -3.22,2.1 -5.68,2.1 -4.81,0.01 -8.29,-3.35 -8.29,-9.23 z m 23.54,-9.01 h 2.83 v 17.94 h -2.83 z m 7.53,0 h 2.9 l 5.95,10.53 1.88,3.8 h 0.12 c -0.15,-1.85 -0.37,-4.02 -0.37,-5.97 v -8.36 h 2.68 v 17.94 h -2.9 l -5.95,-10.58 -1.88,-3.75 h -0.12 c 0.15,1.85 0.37,3.92 0.37,5.87 v 8.46 h -2.68 z m 16.63,15.62 1.66,-1.95 c 1.29,1.29 3.05,2.12 4.78,2.12 2.17,0 3.39,-1.02 3.39,-2.53 0,-1.63 -1.22,-2.15 -2.88,-2.88 l -2.49,-1.07 c -1.73,-0.73 -3.66,-2.1 -3.66,-4.7 0,-2.83 2.49,-4.95 5.9,-4.95 2.1,0 4.07,0.88 5.43,2.27 l -1.49,1.8 c -1.12,-1 -2.36,-1.61 -3.95,-1.61 -1.83,0 -3.02,0.88 -3.02,2.31 0,1.54 1.44,2.12 2.9,2.71 l 2.46,1.05 c 2.12,0.9 3.66,2.22 3.66,4.85 0,2.88 -2.39,5.22 -6.31,5.22 -2.46,-0.01 -4.75,-0.98 -6.38,-2.64 z m 19.2,-13.26 h -5.26 v -2.36 h 13.38 v 2.36 h -5.29 v 15.57 h -2.83 z m 11.21,-2.36 h 2.83 v 17.94 h -2.83 z m 11.19,2.36 h -5.26 v -2.36 h 13.38 v 2.36 h -5.29 v 15.57 h -2.83 z m 11.11,7.87 v -10.24 h 2.83 v 10.43 c 0,4.05 1.61,5.36 3.85,5.36 2.27,0 3.92,-1.32 3.92,-5.36 v -10.43 h 2.73 v 10.24 c 0,5.85 -2.68,8.02 -6.65,8.02 -3.97,0 -6.68,-2.17 -6.68,-8.02 z m 21.62,-7.87 h -5.26 v -2.36 h 13.38 v 2.36 h -5.29 v 15.57 h -2.83 z m 11.21,-2.36 h 10.6 v 2.36 h -7.77 v 5 h 6.58 v 2.39 h -6.58 v 5.8 h 8.04 v 2.39 h -10.87 z m 19.14,8.89 c 0,-5.78 3.19,-9.24 7.8,-9.24 4.61,0 7.82,3.46 7.82,9.24 0,5.78 -3.22,9.36 -7.82,9.36 -4.61,0 -7.8,-3.58 -7.8,-9.36 z m 12.72,0 c 0,-4.22 -1.95,-6.78 -4.92,-6.78 -2.97,0 -4.9,2.56 -4.9,6.78 0,4.22 1.93,6.9 4.9,6.9 2.97,0 4.92,-2.68 4.92,-6.9 z m 6.63,-8.89 h 10.63 v 2.36 h -7.8 v 5.48 h 6.63 v 2.36 h -6.63 v 7.73 h -2.83 z m 18.3,8.89 c 0,-5.78 3.19,-9.24 7.8,-9.24 4.61,0 7.82,3.46 7.82,9.24 0,5.78 -3.22,9.36 -7.82,9.36 -4.6,0 -7.8,-3.58 -7.8,-9.36 z m 12.73,0 c 0,-4.22 -1.95,-6.78 -4.92,-6.78 -2.97,0 -4.9,2.56 -4.9,6.78 0,4.22 1.93,6.9 4.9,6.9 2.97,0 4.92,-2.68 4.92,-6.9 z m 6.63,-8.89 h 5.43 c 4,0 6.85,1.36 6.85,5.41 0,3.92 -2.85,5.73 -6.75,5.73 h -2.71 v 6.8 h -2.83 v -17.94 z m 5.26,8.87 c 2.88,0 4.24,-1.1 4.24,-3.46 0,-2.36 -1.49,-3.14 -4.34,-3.14 h -2.34 v 6.6 z m 10.51,-8.87 h 10.6 v 2.36 h -7.77 v 5 h 6.58 v 2.39 h -6.58 v 5.8 h 8.04 v 2.39 h -10.87 z m 14.62,0 h 2.9 l 5.95,10.53 1.88,3.8 h 0.12 c -0.15,-1.85 -0.37,-4.02 -0.37,-5.97 v -8.36 h 2.68 v 17.94 h -2.9 l -5.95,-10.58 -1.88,-3.75 h -0.12 c 0.15,1.85 0.37,3.92 0.37,5.87 v 8.46 h -2.68 z m 22.11,15.62 1.66,-1.95 c 1.29,1.29 3.05,2.12 4.78,2.12 2.17,0 3.39,-1.02 3.39,-2.53 0,-1.63 -1.22,-2.15 -2.88,-2.88 l -2.49,-1.07 c -1.73,-0.73 -3.66,-2.1 -3.66,-4.7 0,-2.83 2.49,-4.95 5.9,-4.95 2.1,0 4.07,0.88 5.43,2.27 l -1.49,1.8 c -1.12,-1 -2.36,-1.61 -3.95,-1.61 -1.83,0 -3.02,0.88 -3.02,2.31 0,1.54 1.44,2.12 2.9,2.71 l 2.46,1.05 c 2.12,0.9 3.66,2.22 3.66,4.85 0,2.88 -2.39,5.22 -6.31,5.22 -2.46,-0.01 -4.75,-0.98 -6.38,-2.64 z m 15.11,-6.73 c 0,-5.78 3.19,-9.24 7.8,-9.24 4.61,0 7.82,3.46 7.82,9.24 0,5.78 -3.22,9.36 -7.82,9.36 -4.61,0 -7.8,-3.58 -7.8,-9.36 z m 12.72,0 c 0,-4.22 -1.95,-6.78 -4.92,-6.78 -2.97,0 -4.9,2.56 -4.9,6.78 0,4.22 1.93,6.9 4.9,6.9 2.97,0 4.92,-2.68 4.92,-6.9 z m 6.53,1.34 V 351.93 H 645 v 10.43 c 0,4.05 1.61,5.36 3.85,5.36 2.27,0 3.92,-1.32 3.92,-5.36 v -10.43 h 2.73 v 10.24 c 0,5.85 -2.68,8.02 -6.65,8.02 -3.97,0 -6.68,-2.17 -6.68,-8.02 z m 27.76,7.7 -4.07,-7.24 h -2.9 v 7.24 h -2.83 V 351.93 H 666 c 3.7,0 6.48,1.32 6.48,5.19 0,2.78 -1.49,4.44 -3.75,5.14 l 4.39,7.6 h -3.19 z m -6.97,-9.5 h 2.71 c 2.61,0 4.02,-1.07 4.02,-3.24 0,-2.17 -1.41,-2.92 -4.02,-2.92 h -2.71 z m 12.16,0.58 c 0,-5.85 3.56,-9.36 8.09,-9.36 2.24,0 4,1.07 5.09,2.27 l -1.54,1.8 c -0.93,-0.95 -2.05,-1.61 -3.51,-1.61 -3.1,0 -5.24,2.58 -5.24,6.8 0,4.27 2,6.87 5.17,6.87 1.63,0 2.9,-0.73 3.97,-1.9 l 1.51,1.78 c -1.44,1.66 -3.27,2.58 -5.58,2.58 -4.49,0.01 -7.96,-3.35 -7.96,-9.23 z m 16.72,-9.01 h 10.6 v 2.36 h -7.77 v 5 h 6.58 v 2.39 h -6.58 v 5.8 h 8.04 v 2.39 h -10.87 z m 19.14,9.01 c 0,-5.85 3.56,-9.36 8.09,-9.36 2.24,0 4,1.07 5.09,2.27 l -1.54,1.8 c -0.93,-0.95 -2.05,-1.61 -3.51,-1.61 -3.1,0 -5.24,2.58 -5.24,6.8 0,4.27 2,6.87 5.17,6.87 1.63,0 2.9,-0.73 3.97,-1.9 l 1.51,1.78 c -1.44,1.66 -3.27,2.58 -5.58,2.58 -4.5,0.01 -7.96,-3.35 -7.96,-9.23 z m 16.72,-9.01 h 2.83 v 7.31 h 7.68 v -7.31 h 2.83 v 17.94 h -2.83 v -8.16 h -7.68 v 8.16 h -2.83 z m 18.03,0 h 2.83 v 17.94 h -2.83 z m 7.53,0 h 5.43 c 4,0 6.85,1.36 6.85,5.41 0,3.92 -2.85,5.73 -6.75,5.73 h -2.71 v 6.8 h -2.83 v -17.94 z m 5.27,8.87 c 2.88,0 4.24,-1.1 4.24,-3.46 0,-2.36 -1.49,-3.14 -4.34,-3.14 h -2.34 v 6.6 z"
             class="st0"
             id="path3" />
        </g>
      </g>
    </g>
    <g
       id="g101">
      <g
         id="g51">
        <defs
           id="defs6">
          <path
             id="SVGID_1_"
             d="m 472.98,109.2 h 84.67 c 9.31,0 16.93,7.62 16.93,16.93 v 84.67 c 0,9.31 -7.62,16.93 -16.93,16.93 h -84.67 c -9.31,0 -16.93,-7.62 -16.93,-16.93 v -84.67 c 0,-9.31 7.62,-16.93 16.93,-16.93" />
        </defs>
        <clipPath
           id="SVGID_00000060741299025699031570000002186381545257400982_">
          <use
             overflow="visible"
             xlink:href="#SVGID_1_"
             id="use6" />
        </clipPath>
        <path
           fill="#d7e3e3"
           fill-rule="evenodd"
           d="m 545.69,214.87 c -0.53,0 -0.95,-0.43 -0.95,-0.95 0,-0.53 0.43,-0.95 0.95,-0.95 0.53,0 0.95,0.43 0.95,0.95 0.01,0.52 -0.42,0.95 -0.95,0.95 m 0,0.95 c -1.05,0 -1.91,-0.85 -1.91,-1.91 0,-1.05 0.85,-1.91 1.91,-1.91 1.05,0 1.9,0.85 1.9,1.91 0.01,1.06 -0.84,1.91 -1.9,1.91 z"
           clip-path="url(#SVGID_00000060741299025699031570000002186381545257400982_)"
           clip-rule="evenodd"
           id="path6" />
        <path
           fill="#d7e3e3"
           fill-rule="evenodd"
           d="m 530.67,218.3 -3,3 h -6.52 l -3.58,-3.58 h -21.99 l -1.96,1.96 h -40.5 l -8.45,-8.28 h -21.99 l -1.96,1.96 h -48.79 v -0.95 h 48.4 l 1.01,-1.01 0.95,-0.95 h 22.78 l 8.45,8.28 h 39.71 l 1.01,-1.01 0.95,-0.95 h 22.78 l 3.58,3.58 h 5.73 l 3,-3 h 11.31 l 2.84,-2.84 c 0.14,0.3 0.38,0.54 0.67,0.67 l -3.12,3.12 z"
           clip-path="url(#SVGID_00000060741299025699031570000002186381545257400982_)"
           clip-rule="evenodd"
           id="path7" />
        <path
           fill="#d7e3e3"
           fill-rule="evenodd"
           d="m 538.86,214.71 c -0.53,0 -0.95,-0.43 -0.95,-0.95 0,-0.53 0.43,-0.95 0.95,-0.95 0.53,0 0.95,0.43 0.95,0.95 0,0.53 -0.42,0.95 -0.95,0.95 m 0,0.95 c -1.05,0 -1.91,-0.85 -1.91,-1.91 0,-1.06 0.85,-1.91 1.91,-1.91 1.05,0 1.91,0.85 1.91,1.91 0,1.06 -0.86,1.91 -1.91,1.91 z"
           clip-path="url(#SVGID_00000060741299025699031570000002186381545257400982_)"
           clip-rule="evenodd"
           id="path8" />
        <path
           fill="#d7e3e3"
           fill-rule="evenodd"
           d="m 536.17,211.74 h -1.34 l -3.43,3.43 h -4.18 l -3.43,-3.43 h -22.93 l -4.41,-4.41 h -9.75 l -1.96,1.96 h -27.86 l -8.45,-8.28 H 423.4 l -1.96,1.96 h -45.77 v -0.95 h 45.38 l 1.01,-1.01 0.95,-0.95 h 25.81 l 8.45,8.28 h 27.08 l 1.96,-1.96 h 10.54 l 4.41,4.41 h 22.93 l 3.43,3.43 h 3.4 l 3.43,-3.43 h 2.13 l 1.74,1.74 c -0.3,0.13 -0.54,0.38 -0.67,0.67 z"
           clip-path="url(#SVGID_00000060741299025699031570000002186381545257400982_)"
           clip-rule="evenodd"
           id="path9" />
        <path
           fill="#d7e3e3"
           fill-rule="evenodd"
           d="m 529.31,211.94 c -0.53,0 -0.95,-0.43 -0.95,-0.95 0,-0.53 0.43,-0.95 0.95,-0.95 0.53,0 0.95,0.43 0.95,0.95 0,0.53 -0.42,0.95 -0.95,0.95 m 0,0.96 c -1.05,0 -1.91,-0.85 -1.91,-1.91 0,-1.05 0.85,-1.91 1.91,-1.91 1.05,0 1.91,0.85 1.91,1.91 0,1.05 -0.86,1.91 -1.91,1.91 z"
           clip-path="url(#SVGID_00000060741299025699031570000002186381545257400982_)"
           clip-rule="evenodd"
           id="path10" />
        <path
           fill="#d7e3e3"
           fill-rule="evenodd"
           d="m 526.96,209.2 c -10.02,0 -11.94,0 -24.96,0 l -4.41,-4.41 H 484.5 l -1.96,1.96 h -23.43 l -8.45,-8.28 h -29.29 l -1.96,1.96 H 376.8 v -0.95 h 42.22 l 1.01,-1.01 0.95,-0.95 h 30.07 l 8.45,8.28 h 22.64 l 1.96,-1.96 h 13.86 l 4.41,4.41 c 13.28,0 14.68,0 24.96,0 l 1.74,1.74 c -0.3,0.13 -0.54,0.38 -0.67,0.67 z m -3.16,8.74 c -0.53,0 -0.95,-0.43 -0.95,-0.95 0,-0.53 0.43,-0.95 0.95,-0.95 0.53,0 0.95,0.43 0.95,0.95 0,0.52 -0.42,0.95 -0.95,0.95 m 0,0.95 c -1.05,0 -1.91,-0.85 -1.91,-1.91 0,-1.05 0.85,-1.91 1.91,-1.91 1.06,0 1.91,0.85 1.91,1.91 0,1.05 -0.86,1.91 -1.91,1.91 z"
           clip-path="url(#SVGID_00000060741299025699031570000002186381545257400982_)"
           clip-rule="evenodd"
           id="path11" />
        <path
           fill="#d7e3e3"
           fill-rule="evenodd"
           d="m 521.45,215.19 c -10.02,0 -9.28,0 -22.31,0 l -4.41,-4.41 h -6.86 l -1.96,1.96 h -30.75 l -8.45,-8.28 H 424.7 l -1.96,1.96 h -48.79 v -0.95 h 48.4 l 1.01,-1.01 0.95,-0.95 h 22.78 l 8.45,8.28 h 29.97 l 1.96,-1.96 h 7.65 l 4.41,4.41 c 13.28,0 12.02,0 22.31,0 l 1.74,1.74 c -0.3,0.13 -0.54,0.38 -0.67,0.67 z"
           clip-path="url(#SVGID_00000060741299025699031570000002186381545257400982_)"
           clip-rule="evenodd"
           id="path12" />
        <path
           fill="#d7e3e3"
           fill-rule="evenodd"
           d="m 491.3,215.73 c -0.53,0 -0.95,-0.43 -0.95,-0.95 0,-0.53 0.43,-0.95 0.95,-0.95 0.53,0 0.95,0.43 0.95,0.95 0,0.52 -0.43,0.95 -0.95,0.95 m 0,0.95 c -1.05,0 -1.91,-0.85 -1.91,-1.91 0,-1.05 0.85,-1.91 1.91,-1.91 1.05,0 1.91,0.85 1.91,1.91 -0.01,1.06 -0.86,1.91 -1.91,1.91 z m 61.25,-9.72 c -0.53,0 -0.95,-0.43 -0.95,-0.95 0,-0.53 0.43,-0.95 0.95,-0.95 0.53,0 0.95,0.43 0.95,0.95 0.01,0.52 -0.42,0.95 -0.95,0.95 m 0,0.95 c -1.05,0 -1.91,-0.85 -1.91,-1.91 0,-1.05 0.85,-1.91 1.91,-1.91 1.05,0 1.9,0.85 1.9,1.91 0.01,1.06 -0.85,1.91 -1.9,1.91 z m 7.66,-2.86 c -0.53,0 -0.95,0.43 -0.95,0.95 0,0.53 0.43,0.95 0.95,0.95 0.53,0 0.95,-0.43 0.95,-0.95 0,-0.52 -0.43,-0.95 -0.95,-0.95 m 0,-0.95 c -1.05,0 -1.91,0.85 -1.91,1.91 0,1.05 0.85,1.91 1.91,1.91 1.05,0 1.91,-0.85 1.91,-1.91 -0.01,-1.06 -0.86,-1.91 -1.91,-1.91 z"
           clip-path="url(#SVGID_00000060741299025699031570000002186381545257400982_)"
           clip-rule="evenodd"
           id="path13" />
        <path
           fill="#d7e3e3"
           fill-rule="evenodd"
           d="m 435.77,191.92 h -2.34 -52.2 v -0.95 h 52.2 2.34 2.73 l 3.74,3.68 h 8.14 3.01 2.06 l 7.79,7.73 h 5.38 5.76 5.38 l 1.56,-1.5 h 2.86 2.2 14.8 l 3.09,3.03 h 11.14 2.1 l 1.54,1.51 h 11.14 6.67 l 3.58,3.58 h 8.72 l 2.41,-2.41 0.39,0.96 -2.4,2.41 h -9.51 l -3.59,-3.59 h -6.27 -11.53 l -1.55,-1.51 h -1.7 -11.54 l -3.08,-3.02 h -14.41 -2.2 -2.47 l -1.56,1.49 h -5.77 -5.76 -5.77 l -7.79,-7.73 h -1.67 -3.01 -8.53 l -3.74,-3.68 z"
           clip-path="url(#SVGID_00000060741299025699031570000002186381545257400982_)"
           clip-rule="evenodd"
           id="path14" />
        <path
           fill="#d7e3e3"
           fill-rule="evenodd"
           d="m 435.77,188.75 h -1.03 -53.51 v -0.95 h 53.51 1.03 4.04 l 3.75,3.68 h 8.62 2.52 2.55 l 7.79,7.73 h 2.9 8.24 2.91 l 1.55,-1.5 h 3.54 2.2 14.8 l 3.09,3.03 h 1.84 9.3 2.89 l 2.09,2.03 h 5.5 5.64 8 l 2.9,2.87 h 3.94 0.27 l 3.58,-3.58 h 6.99 l 2.35,2.34 -0.4,0.96 -2.34,-2.35 h -6.21 l -3.58,3.58 h -0.66 -4.33 l -2.91,-2.87 h -7.6 -5.64 -5.89 l -2.1,-2.03 h -2.49 -9.3 -2.24 l -3.08,-3.02 h -14.41 -2.2 -3.14 l -1.56,1.49 h -3.3 -8.24 -3.29 l -7.79,-7.73 h -2.16 -2.52 -9.02 l -3.74,-3.68 z m 116.57,9.22 c -0.53,0 -0.95,0.43 -0.95,0.95 0,0.53 0.43,0.95 0.95,0.95 0.52,0 0.95,-0.43 0.95,-0.95 0,-0.52 -0.43,-0.95 -0.95,-0.95 m 0,-0.95 c -1.05,0 -1.9,0.85 -1.9,1.9 0,1.05 0.85,1.91 1.9,1.91 1.05,0 1.91,-0.85 1.91,-1.91 -0.01,-1.05 -0.86,-1.9 -1.91,-1.9 z"
           clip-path="url(#SVGID_00000060741299025699031570000002186381545257400982_)"
           clip-rule="evenodd"
           id="path15" />
        <path
           fill="#d7e3e3"
           fill-rule="evenodd"
           d="m 548.46,199.4 -3.3,3.29 h -2.4 l -1.87,-2.3 h -18.75 l -2.44,-3 h -15.67 l -2.7,-3.32 h -34.32 l -5.53,-6.81 h -15.35 l -3.7,-4.55 h -53.21 v -0.95 h 53.66 l 3.71,4.55 h 15.34 l 5.53,6.8 h 34.32 l 2.71,3.33 h 15.66 l 2.44,3 h 18.76 l 1.86,2.3 h 1.56 l 3.29,-3.29 h 2.99 v 0.95 z"
           clip-path="url(#SVGID_00000060741299025699031570000002186381545257400982_)"
           clip-rule="evenodd"
           id="path16" />
        <path
           fill="#d7e3e3"
           fill-rule="evenodd"
           d="m 548.46,193.42 -3.67,3.66 h -21.07 l -2.61,-3.21 h -15.08 l -3.27,-4.02 H 469.7 l -5.28,-6.5 h -16.6 l -4.47,-5.5 h -53.22 v -0.95 h 53.67 l 4.47,5.5 h 16.61 l 5.27,6.49 h 33.07 l 3.27,4.03 h 15.07 l 2.61,3.21 h 20.23 l 3.66,-3.67 h 3.07 v 0.96 z"
           clip-path="url(#SVGID_00000060741299025699031570000002186381545257400982_)"
           clip-rule="evenodd"
           id="path17" />
        <path
           fill="#d7e3e3"
           fill-rule="evenodd"
           d="m 552.34,191.99 c -0.53,0 -0.95,0.43 -0.95,0.95 0,0.53 0.43,0.95 0.95,0.95 0.52,0 0.95,-0.43 0.95,-0.95 0,-0.53 -0.43,-0.95 -0.95,-0.95 m 0,-0.96 c -1.05,0 -1.9,0.85 -1.9,1.91 0,1.05 0.85,1.91 1.9,1.91 1.05,0 1.91,-0.85 1.91,-1.91 -0.01,-1.05 -0.86,-1.91 -1.91,-1.91 z m 7.87,6.94 c -0.53,0 -0.95,0.43 -0.95,0.95 0,0.53 0.43,0.95 0.95,0.95 0.53,0 0.95,-0.43 0.95,-0.95 0,-0.52 -0.43,-0.95 -0.95,-0.95 m 0,-0.95 c -1.05,0 -1.91,0.85 -1.91,1.9 0,1.05 0.85,1.91 1.91,1.91 1.05,0 1.91,-0.85 1.91,-1.91 -0.01,-1.05 -0.86,-1.9 -1.91,-1.9 z m -19.36,-5.03 c -0.53,0 -0.95,0.43 -0.95,0.95 0,0.53 0.43,0.95 0.95,0.95 0.53,0 0.95,-0.43 0.95,-0.95 0.01,-0.53 -0.42,-0.95 -0.95,-0.95 m 0,-0.96 c -1.05,0 -1.91,0.85 -1.91,1.91 0,1.05 0.85,1.91 1.91,1.91 1.05,0 1.91,-0.85 1.91,-1.91 0,-1.05 -0.85,-1.91 -1.91,-1.91 z m -7.07,0.96 c -0.53,0 -0.95,0.43 -0.95,0.95 0,0.53 0.43,0.95 0.95,0.95 0.53,0 0.95,-0.43 0.95,-0.95 0.01,-0.53 -0.42,-0.95 -0.95,-0.95 m 0,-0.96 c -1.05,0 -1.9,0.85 -1.9,1.91 0,1.05 0.85,1.91 1.9,1.91 1.05,0 1.91,-0.85 1.91,-1.91 0,-1.05 -0.85,-1.91 -1.91,-1.91 z"
           clip-path="url(#SVGID_00000060741299025699031570000002186381545257400982_)"
           clip-rule="evenodd"
           id="path18" />
        <path
           fill="#d7e3e3"
           fill-rule="evenodd"
           d="m 517.74,177.91 h -37.9 l -5.12,-6.3 h -14.85 l -5.7,-7.01 h -55.75 v -0.96 h 56.2 l 5.71,7.02 h 14.85 l 5.11,6.29 h 37.9 l 12.61,15.51 h 1.69 v 0.96 h -2.15 z"
           clip-path="url(#SVGID_00000060741299025699031570000002186381545257400982_)"
           clip-rule="evenodd"
           id="path19" />
        <path
           fill="#d7e3e3"
           fill-rule="evenodd"
           d="m 524.28,190.21 c -0.53,0 -0.95,0.43 -0.95,0.95 0,0.53 0.43,0.95 0.95,0.95 0.53,0 0.95,-0.43 0.95,-0.95 0,-0.52 -0.43,-0.95 -0.95,-0.95 m 0,-0.95 c -1.05,0 -1.91,0.85 -1.91,1.91 0,1.05 0.85,1.91 1.91,1.91 1.06,0 1.91,-0.85 1.91,-1.91 -0.01,-1.06 -0.86,-1.91 -1.91,-1.91 z"
           clip-path="url(#SVGID_00000060741299025699031570000002186381545257400982_)"
           clip-rule="evenodd"
           id="path20" />
        <path
           fill="#d7e3e3"
           fill-rule="evenodd"
           d="M 521.87,188.95 H 509.3 l -2.12,-2.69 h -33.65 l -5.12,-6.29 h -14.85 l -5.7,-7.02 H 392.11 V 172 h 56.2 l 5.71,7.02 h 14.85 l 5.11,6.29 h 33.66 l 2.12,2.69 h 12.56 l 1.46,1.79 -0.74,0.6 z"
           clip-path="url(#SVGID_00000060741299025699031570000002186381545257400982_)"
           clip-rule="evenodd"
           id="path21" />
        <path
           fill="#d7e3e3"
           fill-rule="evenodd"
           d="m 513.56,183.26 c -0.53,0 -0.95,0.43 -0.95,0.95 0,0.53 0.43,0.95 0.95,0.95 0.53,0 0.95,-0.43 0.95,-0.95 0,-0.52 -0.42,-0.95 -0.95,-0.95 m 0,-0.95 c -1.05,0 -1.91,0.85 -1.91,1.91 0,1.05 0.85,1.91 1.91,1.91 1.05,0 1.91,-0.85 1.91,-1.91 0,-1.06 -0.86,-1.91 -1.91,-1.91 z"
           clip-path="url(#SVGID_00000060741299025699031570000002186381545257400982_)"
           clip-rule="evenodd"
           id="path22" />
        <path
           fill="#d7e3e3"
           fill-rule="evenodd"
           d="m 511.2,182 h -33.65 l -5.11,-6.29 h -14.85 l -5.7,-7.02 h -55.75 v -0.95 h 56.2 l 5.7,7.02 h 14.85 l 5.12,6.29 h 33.66 l 1.42,1.8 -0.75,0.59 z m -17.35,-10.74 c -0.53,0 -0.95,0.43 -0.95,0.95 0,0.53 0.43,0.95 0.95,0.95 0.53,0 0.95,-0.43 0.95,-0.95 0.01,-0.52 -0.42,-0.95 -0.95,-0.95 m 0,-0.95 c -1.05,0 -1.91,0.85 -1.91,1.91 0,1.05 0.85,1.91 1.91,1.91 1.05,0 1.91,-0.85 1.91,-1.91 0,-1.06 -0.85,-1.91 -1.91,-1.91 z"
           clip-path="url(#SVGID_00000060741299025699031570000002186381545257400982_)"
           clip-rule="evenodd"
           id="path23" />
        <path
           fill="#d7e3e3"
           fill-rule="evenodd"
           d="m 485.4,169.54 h -4.69 L 468.92,155.03 H 428.7 c -1.05,0 -1.9,-0.85 -1.9,-1.91 0,-1.05 0.85,-1.91 1.9,-1.91 h 10.28 c 0.53,0 0.95,-0.43 0.95,-0.95 0,-0.53 -0.43,-0.95 -0.95,-0.95 h -4.01 -6.27 -1.86 l -5.1,6.27 h -26.23 v -0.95 h 25.77 l 5.1,-6.27 h 2.32 5.81 4.47 c 1.05,0 1.91,0.85 1.91,1.91 0,1.05 -0.85,1.91 -1.91,1.91 H 428.7 c -0.53,0 -0.95,0.43 -0.95,0.95 0,0.53 0.43,0.95 0.95,0.95 h 40.68 l 11.79,14.51 h 4.69 l 2.56,3.15 h 4.21 v 0.95 h -4.66 z"
           clip-path="url(#SVGID_00000060741299025699031570000002186381545257400982_)"
           clip-rule="evenodd"
           id="path24" />
        <path
           fill="#d7e3e3"
           fill-rule="evenodd"
           d="m 482.63,172.53 c -0.53,0 -0.95,0.43 -0.95,0.95 0,0.53 0.43,0.95 0.95,0.95 0.53,0 0.95,-0.43 0.95,-0.95 0,-0.52 -0.43,-0.95 -0.95,-0.95 m 0,-0.95 c -1.05,0 -1.91,0.85 -1.91,1.91 0,1.05 0.85,1.91 1.91,1.91 1.05,0 1.91,-0.85 1.91,-1.91 -0.01,-1.06 -0.86,-1.91 -1.91,-1.91 z"
           clip-path="url(#SVGID_00000060741299025699031570000002186381545257400982_)"
           clip-rule="evenodd"
           id="path25" />
        <path
           fill="#d7e3e3"
           fill-rule="evenodd"
           d="m 467.94,159.45 h -67.98 v -0.96 h 68.43 l 11.79,14.52 h 1.24 v 0.95 h -1.69 z m 84.4,25.3 c -0.53,0 -0.95,0.43 -0.95,0.95 0,0.53 0.43,0.95 0.95,0.95 0.52,0 0.95,-0.43 0.95,-0.95 0,-0.52 -0.43,-0.95 -0.95,-0.95 m 0,-0.95 c -1.05,0 -1.9,0.85 -1.9,1.91 0,1.05 0.85,1.9 1.9,1.9 1.05,0 1.91,-0.85 1.91,-1.9 -0.01,-1.06 -0.86,-1.91 -1.91,-1.91 z M 459.81,142.75 H 399.9 l 0.45,-0.96 h 59.92 l 2.56,3.16 h 4.24 v 0.95 h -4.69 z m 100.4,41.73 c -0.53,0 -0.95,0.43 -0.95,0.95 0,0.53 0.43,0.95 0.95,0.95 0.53,0 0.95,-0.43 0.95,-0.95 0,-0.52 -0.43,-0.95 -0.95,-0.95 m 0,-0.95 c -1.05,0 -1.91,0.85 -1.91,1.91 0,1.05 0.85,1.9 1.91,1.9 1.05,0 1.91,-0.85 1.91,-1.9 -0.01,-1.06 -0.86,-1.91 -1.91,-1.91 z"
           clip-path="url(#SVGID_00000060741299025699031570000002186381545257400982_)"
           clip-rule="evenodd"
           id="path26" />
        <path
           fill="#d7e3e3"
           fill-rule="evenodd"
           d="m 495.5,160.51 h 8.13 l 5.11,6.29 h 15.9 l 12.84,15.81 h 9.7 l 2.79,-3.43 h 2.86 l 4.7,5.78 h 1.53 v 0.95 h -1.98 l -4.7,-5.78 h -1.96 l -2.78,3.43 h -10.61 l -12.85,-15.81 h -15.89 l -5.12,-6.29 h -8.13 L 482.4,145.9 h -17.71 v -0.95 h 18.16 z"
           clip-path="url(#SVGID_00000060741299025699031570000002186381545257400982_)"
           clip-rule="evenodd"
           id="path27" />
        <path
           fill="#d7e3e3"
           fill-rule="evenodd"
           d="m 545.59,177.43 c -0.53,0 -0.95,0.43 -0.95,0.95 0,0.53 0.43,0.95 0.95,0.95 0.53,0 0.95,-0.43 0.95,-0.95 0,-0.52 -0.42,-0.95 -0.95,-0.95 m 0,-0.95 c -1.05,0 -1.9,0.85 -1.9,1.91 0,1.05 0.85,1.91 1.9,1.91 1.05,0 1.91,-0.85 1.91,-1.91 0,-1.06 -0.86,-1.91 -1.91,-1.91 z m 21.34,8 c -0.53,0 -0.95,0.43 -0.95,0.95 0,0.53 0.43,0.95 0.95,0.95 0.53,0 0.95,-0.43 0.95,-0.95 0,-0.52 -0.42,-0.95 -0.95,-0.95 m 0,-0.95 c -1.05,0 -1.91,0.85 -1.91,1.91 0,1.05 0.85,1.9 1.91,1.9 1.05,0 1.91,-0.85 1.91,-1.9 -0.01,-1.06 -0.86,-1.91 -1.91,-1.91 z"
           clip-path="url(#SVGID_00000060741299025699031570000002186381545257400982_)"
           clip-rule="evenodd"
           id="path28" />
        <path
           fill="#d7e3e3"
           fill-rule="evenodd"
           d="m 558.27,175.54 h -21.29 l -10.21,-12.58 h -9.65 v -19.1 l -14.4,-17.72 v -11.35 l -17.21,-21.17 0.74,-0.61 17.42,21.44 v 11.35 l 14.4,17.72 v 18.49 h 9.15 l 10.22,12.57 h 21.29 l 7.76,9.57 -0.73,0.6 z m -4.58,-23.12 c -0.53,0 -0.95,0.43 -0.95,0.95 0,0.53 0.43,0.95 0.95,0.95 0.53,0 0.95,-0.43 0.95,-0.95 0,-0.53 -0.43,-0.95 -0.95,-0.95 m 0,-0.96 c -1.05,0 -1.91,0.85 -1.91,1.91 0,1.05 0.85,1.91 1.91,1.91 1.06,0 1.91,-0.85 1.91,-1.91 -0.01,-1.05 -0.86,-1.91 -1.91,-1.91 z"
           clip-path="url(#SVGID_00000060741299025699031570000002186381545257400982_)"
           clip-rule="evenodd"
           id="path29" />
        <path
           fill="#d7e3e3"
           fill-rule="evenodd"
           d="m 513.05,119.34 13.23,16.28 v 14.79 h 9.15 l 10.22,12.58 h 21.29 l 6.79,8.36 v 39.64 l 4.01,4.94 -0.74,0.6 -4.22,-5.2 v -39.64 l -6.3,-7.75 h -21.29 l -10.22,-12.58 h -9.65 v -15.41 l -13.23,-16.28 v -15.04 l -18.37,-22.61 0.74,-0.6 18.59,22.87 z m 2.68,-3.23 13.23,16.28 v 14.79 h 9.15 l 10.22,12.58 h 21.29 l 6.79,8.36 v 39.64 l 4.01,4.94 -0.74,0.6 -4.22,-5.2 v -39.64 l -6.3,-7.75 H 547.87 L 537.65,148.13 H 528 V 132.72 L 514.77,116.44 V 101.4 l -18.36,-22.6 0.74,-0.6 18.59,22.87 v 15.04 z m 2.96,-3.22 13.23,16.28 v 14.79 h 9.15 l 10.22,12.58 h 21.29 l 6.79,8.36 v 39.64 l 4.01,4.94 -0.74,0.6 -4.22,-5.2 v -39.64 l -6.3,-7.75 h -21.29 l -10.22,-12.58 h -9.65 V 129.5 L 517.73,113.22 V 98.18 l -18.37,-22.61 0.74,-0.6 18.59,22.87 z m -8.14,9.81 13.23,16.28 v 14.79 h 9.15 l 10.22,12.58 h 21.29 l 6.79,8.36 v 39.64 l 4.01,4.94 -0.74,0.6 -4.22,-5.2 v -39.64 l -6.3,-7.75 H 542.7 l -10.22,-12.58 h -9.65 V 139.31 L 509.6,123.03 v -15.04 l -18.37,-22.61 0.74,-0.6 18.59,22.87 v 15.05 z"
           clip-path="url(#SVGID_00000060741299025699031570000002186381545257400982_)"
           clip-rule="evenodd"
           id="path30" />
        <path
           fill="#d7e3e3"
           fill-rule="evenodd"
           d="m 565.07,191.69 c -0.53,0 -0.95,0.43 -0.95,0.95 0,0.53 0.43,0.95 0.95,0.95 0.53,0 0.95,-0.43 0.95,-0.95 0,-0.52 -0.43,-0.95 -0.95,-0.95 m 0,-0.95 c -1.05,0 -1.91,0.85 -1.91,1.91 0,1.05 0.85,1.91 1.91,1.91 1.05,0 1.91,-0.85 1.91,-1.91 -0.01,-1.06 -0.86,-1.91 -1.91,-1.91 z m -67.52,-35.13 c -0.53,0 -0.95,0.43 -0.95,0.95 0,0.53 0.43,0.95 0.95,0.95 0.53,0 0.95,-0.43 0.95,-0.95 0.01,-0.53 -0.42,-0.95 -0.95,-0.95 m 0,-0.96 c -1.05,0 -1.91,0.85 -1.91,1.91 0,1.05 0.85,1.91 1.91,1.91 1.05,0 1.9,-0.85 1.9,-1.91 0.01,-1.05 -0.84,-1.91 -1.9,-1.91 z m 12.83,6.27 c -0.53,0 -0.95,0.43 -0.95,0.95 0,0.53 0.43,0.95 0.95,0.95 0.53,0 0.95,-0.43 0.95,-0.95 0.01,-0.53 -0.42,-0.95 -0.95,-0.95 m 0,-0.96 c -1.05,0 -1.91,0.85 -1.91,1.91 0,1.05 0.85,1.91 1.91,1.91 1.06,0 1.91,-0.85 1.91,-1.91 0,-1.05 -0.85,-1.91 -1.91,-1.91 z"
           clip-path="url(#SVGID_00000060741299025699031570000002186381545257400982_)"
           clip-rule="evenodd"
           id="path31" />
        <path
           fill="#d7e3e3"
           fill-rule="evenodd"
           d="m 509.91,158.54 -10.73,-13.2 v -3.63 l -16.31,-20.07 h -93.9 v -0.95 h 94.35 l 16.81,20.68 V 145 l 10.73,13.2 v 2.24 h -0.95 z m -54.16,-12.39 h -56.52 v -0.95 h 56.52 c 1.05,0 1.91,0.85 1.91,1.91 0,1.05 -0.85,1.9 -1.91,1.9 h -10.28 c -0.53,0 -0.95,0.43 -0.95,0.95 0,0.53 0.43,0.95 0.95,0.95 h 31.69 l 12.64,15.56 h 8.13 l 5.11,6.29 h 15.9 l 12.85,15.81 h 25.64 v 6.18 l 2.57,3.16 -0.74,0.6 -2.78,-3.42 v -5.57 h -25.14 l -12.85,-15.81 h -15.9 l -5.11,-6.29 h -8.13 l -12.64,-15.56 h -31.24 c -1.05,0 -1.91,-0.85 -1.91,-1.91 0,-1.05 0.85,-1.91 1.91,-1.91 h 10.28 c 0.53,0 0.95,-0.43 0.95,-0.95 0,-0.52 -0.43,-0.94 -0.95,-0.94"
           clip-path="url(#SVGID_00000060741299025699031570000002186381545257400982_)"
           clip-rule="evenodd"
           id="path32" />
        <path
           fill="#d7e3e3"
           fill-rule="evenodd"
           d="m 486.54,143.76 h -19.17 l -4.29,-5.27 H 398.3 v -0.96 h 65.24 l 4.28,5.28 h 19.17 l 10.1,12.43 -0.74,0.6 z"
           clip-path="url(#SVGID_00000060741299025699031570000002186381545257400982_)"
           clip-rule="evenodd"
           id="path33" />
        <path
           fill="#d7e3e3"
           fill-rule="evenodd"
           d="m 489.2,140.64 h -20.44 l -4.29,-5.28 h -64.78 v -0.95 h 65.23 l 4.29,5.28 h 20.44 l 7.45,9.16 -0.74,0.6 z m -7.12,-13.56 h -20.02 l -2.79,2.79 h -67.1 v -0.95 h 66.71 l 2.79,-2.79 h 20.86 l 6.36,7.82 -0.74,0.6 z"
           clip-path="url(#SVGID_00000060741299025699031570000002186381545257400982_)"
           clip-rule="evenodd"
           id="path34" />
        <path
           fill="#d7e3e3"
           fill-rule="evenodd"
           d="m 497.54,149.2 c -0.53,0 -0.95,0.43 -0.95,0.95 0,0.53 0.43,0.95 0.95,0.95 0.53,0 0.95,-0.43 0.95,-0.95 0,-0.53 -0.43,-0.95 -0.95,-0.95 m 0,-0.96 c -1.05,0 -1.91,0.85 -1.91,1.91 0,1.05 0.85,1.9 1.91,1.9 1.05,0 1.91,-0.85 1.91,-1.9 -0.01,-1.05 -0.86,-1.91 -1.91,-1.91 z m -21.17,-16.99 c -0.53,0 -0.95,0.43 -0.95,0.95 0,0.53 0.43,0.95 0.95,0.95 0.53,0 0.95,-0.43 0.95,-0.95 0,-0.52 -0.42,-0.95 -0.95,-0.95 m 0,-0.95 c -1.05,0 -1.91,0.85 -1.91,1.91 0,1.05 0.85,1.91 1.91,1.91 1.05,0 1.91,-0.85 1.91,-1.91 -0.01,-1.06 -0.86,-1.91 -1.91,-1.91 z"
           clip-path="url(#SVGID_00000060741299025699031570000002186381545257400982_)"
           clip-rule="evenodd"
           id="path35" />
        <path
           fill="#d7e3e3"
           fill-rule="evenodd"
           d="m 393.23,131.73 h 81.83 v 0.95 h -81.83 z m 96.08,2.54 c -0.53,0 -0.95,0.43 -0.95,0.95 0,0.53 0.43,0.95 0.95,0.95 0.53,0 0.95,-0.43 0.95,-0.95 0,-0.52 -0.42,-0.95 -0.95,-0.95 m 0,-0.95 c -1.05,0 -1.91,0.85 -1.91,1.91 0,1.05 0.85,1.91 1.91,1.91 1.05,0 1.91,-0.85 1.91,-1.91 0,-1.06 -0.86,-1.91 -1.91,-1.91 z m -33.24,-9.58 c -0.53,0 -0.95,0.43 -0.95,0.95 0,0.53 0.43,0.95 0.95,0.95 0.53,0 0.95,-0.43 0.95,-0.95 0.01,-0.52 -0.42,-0.95 -0.95,-0.95 m 0,-0.95 c -1.05,0 -1.91,0.85 -1.91,1.91 0,1.06 0.85,1.91 1.91,1.91 1.05,0 1.9,-0.85 1.9,-1.91 0,-1.06 -0.84,-1.91 -1.9,-1.91 z m 47.58,19.23 c -0.53,0 -0.95,0.43 -0.95,0.95 0,0.53 0.43,0.95 0.95,0.95 0.53,0 0.95,-0.43 0.95,-0.95 0,-0.53 -0.43,-0.95 -0.95,-0.95 m 0,-0.96 c -1.05,0 -1.91,0.85 -1.91,1.91 0,1.05 0.85,1.91 1.91,1.91 1.05,0 1.91,-0.85 1.91,-1.91 -0.01,-1.05 -0.86,-1.91 -1.91,-1.91 z m 7.92,4.69 c -0.53,0 -0.95,0.43 -0.95,0.95 0,0.53 0.43,0.95 0.95,0.95 0.53,0 0.95,-0.43 0.95,-0.95 0.01,-0.53 -0.42,-0.95 -0.95,-0.95 m 0,-0.96 c -1.05,0 -1.91,0.85 -1.91,1.91 0,1.05 0.85,1.91 1.91,1.91 1.05,0 1.91,-0.85 1.91,-1.91 0,-1.05 -0.85,-1.91 -1.91,-1.91 z"
           clip-path="url(#SVGID_00000060741299025699031570000002186381545257400982_)"
           clip-rule="evenodd"
           id="path36" />
        <path
           fill="#d7e3e3"
           fill-rule="evenodd"
           d="m 503.17,140.4 -11.23,-13.82 v -10.74 l -10.45,-12.87 h -27.96 l -6.08,7.47 h -20.86 l -2.79,-2.79 h -66.71 v -0.95 h 67.1 l 2.79,2.79 H 447 l 6.07,-7.47 h 28.87 l 10.95,13.48 v 10.74 l 11.23,13.82 v 1.86 h -0.95 z"
           clip-path="url(#SVGID_00000060741299025699031570000002186381545257400982_)"
           clip-rule="evenodd"
           id="path37" />
        <path
           fill="#d7e3e3"
           fill-rule="evenodd"
           d="m 446.13,104.84 h -17.04 l -2.79,-2.79 H 359.2 V 103 h 66.71 l 2.79,2.79 h 17.88 l 6.07,-7.47 h 32.3 l 14.92,18.36 v 13.63 l 11.23,13.82 v 1.52 h 0.95 v -1.86 L 500.82,129.97 V 116.34 L 485.41,97.37 H 452.2 Z m 84.38,16.28 c -0.53,0 -0.95,0.43 -0.95,0.95 0,0.53 0.43,0.95 0.95,0.95 0.53,0 0.95,-0.43 0.95,-0.95 0.01,-0.52 -0.42,-0.95 -0.95,-0.95 m 0,-0.95 c -1.05,0 -1.91,0.85 -1.91,1.91 0,1.05 0.85,1.91 1.91,1.91 1.05,0 1.91,-0.85 1.91,-1.91 0,-1.06 -0.86,-1.91 -1.91,-1.91 z"
           clip-path="url(#SVGID_00000060741299025699031570000002186381545257400982_)"
           clip-rule="evenodd"
           id="path38" />
        <path
           fill="#d7e3e3"
           fill-rule="evenodd"
           d="m 524.99,108.54 10.73,13.21 v 3.63 l 7.93,9.76 v 1.51 l -8.88,-10.93 v -3.63 l -10.73,-13.21 v -2.24 h 0.95 z"
           clip-path="url(#SVGID_00000060741299025699031570000002186381545257400982_)"
           clip-rule="evenodd"
           id="path39" />
        <path
           fill="#d7e3e3"
           fill-rule="evenodd"
           d="M 521.84,112.16 V 72.9 h 0.96 v 38.92 l 7.25,8.93 -0.74,0.6 z m 28.68,35.66 c -0.53,0 -0.95,0.43 -0.95,0.95 0,0.53 0.43,0.95 0.95,0.95 0.53,0 0.95,-0.43 0.95,-0.95 0,-0.52 -0.43,-0.95 -0.95,-0.95 m 0,-0.95 c -1.05,0 -1.91,0.85 -1.91,1.91 0,1.05 0.85,1.91 1.91,1.91 1.05,0 1.91,-0.85 1.91,-1.91 -0.01,-1.06 -0.86,-1.91 -1.91,-1.91 z"
           clip-path="url(#SVGID_00000060741299025699031570000002186381545257400982_)"
           clip-rule="evenodd"
           id="path40" />
        <path
           fill="#d7e3e3"
           fill-rule="evenodd"
           d="m 550.04,147.48 v -26.25 c 0,-1.05 0.85,-1.91 1.91,-1.91 1.05,0 1.91,0.85 1.91,1.91 v 10.28 c 0,0.53 0.43,0.95 0.95,0.95 0.53,0 0.95,-0.43 0.95,-0.95 v -4.01 -6.27 -1.86 l -6.27,-5.1 V 88.04 h 0.95 v 25.77 l 6.27,5.1 v 2.32 5.81 4.47 c 0,1.05 -0.85,1.91 -1.91,1.91 -1.06,0 -1.91,-0.85 -1.91,-1.91 v -10.28 c 0,-0.53 -0.43,-0.95 -0.95,-0.95 -0.53,0 -0.95,0.43 -0.95,0.95 v 26.25 z"
           clip-path="url(#SVGID_00000060741299025699031570000002186381545257400982_)"
           clip-rule="evenodd"
           id="path41" />
        <path
           fill="#d7e3e3"
           fill-rule="evenodd"
           d="M 558.92,148.28 V 91.76 h 0.95 v 56.52 c 0,1.05 -0.85,1.91 -1.9,1.91 -1.05,0 -1.91,-0.85 -1.91,-1.91 V 138 c 0,-0.53 -0.43,-0.95 -0.95,-0.95 -0.53,0 -0.95,0.43 -0.95,0.95 v 14.31 l -0.95,-0.45 V 138 c 0,-1.05 0.85,-1.91 1.91,-1.91 1.06,0 1.91,0.85 1.91,1.91 v 10.28 c 0,0.53 0.43,0.95 0.95,0.95 0.52,0 0.94,-0.43 0.94,-0.95 M 544.6,134.94 c -0.53,0 -0.95,0.43 -0.95,0.95 0,0.53 0.43,0.95 0.95,0.95 0.53,0 0.95,-0.43 0.95,-0.95 0.01,-0.52 -0.42,-0.95 -0.95,-0.95 m 0,-0.95 c -1.05,0 -1.91,0.85 -1.91,1.91 0,1.05 0.85,1.91 1.91,1.91 1.05,0 1.91,-0.85 1.91,-1.91 0,-1.06 -0.85,-1.91 -1.91,-1.91 z m 18.29,16.14 2.59,3.19 h 21.29 l 6.8,8.36 v 39.64 l 4.01,4.94 -0.74,0.6 -4.23,-5.2 v -39.64 l -6.29,-7.74 h -21.29 l -3.1,-3.82 v -50.28 h 0.96 z m -15.32,-27.3 v -20.01 l -2.79,-2.79 V 32.92 h 0.95 v 66.71 l 2.79,2.79 v 20.86 l -3.12,2.54 -0.6,-0.74 z"
           clip-path="url(#SVGID_00000060741299025699031570000002186381545257400982_)"
           clip-rule="evenodd"
           id="path42" />
        <path
           fill="#d7e3e3"
           fill-rule="evenodd"
           d="m 545.08,126.24 c 0,-0.53 -0.43,-0.95 -0.95,-0.95 -0.53,0 -0.95,0.43 -0.95,0.95 0,0.53 0.43,0.95 0.95,0.95 0.53,0 0.95,-0.42 0.95,-0.95 m 0.95,0 c 0,-1.05 -0.85,-1.91 -1.91,-1.91 -1.06,0 -1.91,0.85 -1.91,1.91 0,1.05 0.85,1.91 1.91,1.91 1.06,0 1.91,-0.86 1.91,-1.91 z m -15.36,97.22 -2.99,3 h -6.52 l -3.59,-3.59 h -21.99 l -1.97,1.97 h -40.49 l -8.45,-8.28 h -22 l -1.96,1.96 h -48.8 v -0.95 h 48.4 l 1.02,-1.01 0.95,-0.96 h 22.78 l 8.45,8.28 h 39.71 l 1.01,-1.01 0.95,-0.95 h 22.79 l 3.58,3.58 h 5.73 l 3,-2.99 v 0 0 h 15.15 l 5.06,-5.06 h 5.81 l 8.29,-8.29 v -15.14 h 0.95 v 15.54 l -8.84,8.84 h -5.82 l -5.05,5.06 z m 40.79,-75.43 c 0,-0.53 0.43,-0.95 0.95,-0.95 0.53,0 0.95,0.43 0.95,0.95 0,0.53 -0.43,0.95 -0.95,0.95 -0.52,0 -0.95,-0.42 -0.95,-0.95 m -0.95,0 c 0,-1.05 0.85,-1.91 1.91,-1.91 1.05,0 1.91,0.85 1.91,1.91 0,1.05 -0.85,1.9 -1.91,1.9 -1.06,0 -1.91,-0.85 -1.91,-1.9 z"
           clip-path="url(#SVGID_00000060741299025699031570000002186381545257400982_)"
           clip-rule="evenodd"
           id="path43" />
        <path
           fill="#d7e3e3"
           fill-rule="evenodd"
           d="m 568.03,133.01 -3,-3 v -6.52 l 3.58,-3.58 v -22 l -1.96,-1.96 V 55.45 L 574.93,47 V 25.01 l -1.96,-1.96 v -48.79 h 0.95 v 48.4 l 1.01,1.01 0.95,0.95 V 47.4 l -8.28,8.45 v 39.71 l 1.01,1.01 0.95,0.95 v 22.78 l -3.58,3.58 v 5.73 l 3,3 v 11.31 l 2.84,2.84 c -0.3,0.14 -0.54,0.38 -0.67,0.67 l -3.12,-3.12 z"
           clip-path="url(#SVGID_00000060741299025699031570000002186381545257400982_)"
           clip-rule="evenodd"
           id="path44" />
        <path
           fill="#d7e3e3"
           fill-rule="evenodd"
           d="m 570.78,141.71 c 0,-0.53 0.43,-0.95 0.95,-0.95 0.53,0 0.95,0.43 0.95,0.95 0,0.53 -0.43,0.95 -0.95,0.95 -0.52,0 -0.95,-0.42 -0.95,-0.95 m -0.95,0 c 0,-1.05 0.85,-1.91 1.91,-1.91 1.05,0 1.9,0.85 1.9,1.91 0,1.05 -0.85,1.91 -1.9,1.91 -1.06,-0.01 -1.91,-0.86 -1.91,-1.91 z"
           clip-path="url(#SVGID_00000060741299025699031570000002186381545257400982_)"
           clip-rule="evenodd"
           id="path45" />
        <path
           fill="#d7e3e3"
           fill-rule="evenodd"
           d="m 571.16,140.46 v -10.9 l 3.42,-3.43 V 103.19 L 579,98.78 v -9.75 l -1.97,-1.96 V 59.2 l 8.28,-8.45 V 25.74 l -1.96,-1.97 V -22 h 0.95 v 45.38 l 1.01,1.01 0.96,0.95 v 25.81 l -8.28,8.45 v 27.07 l 1.96,1.97 v 10.53 l -4.41,4.42 v 22.93 l -3.43,3.43 v 10.12 z m -2.77,-14.32 c 0,-0.53 0.43,-0.95 0.95,-0.95 0.53,0 0.95,0.43 0.95,0.95 0,0.53 -0.43,0.95 -0.95,0.95 -0.52,0 -0.95,-0.43 -0.95,-0.95 m -0.95,0 c 0,-1.05 0.85,-1.91 1.91,-1.91 1.05,0 1.91,0.85 1.91,1.91 0,1.05 -0.85,1.91 -1.91,1.91 -1.06,-0.01 -1.91,-0.86 -1.91,-1.91 z"
           clip-path="url(#SVGID_00000060741299025699031570000002186381545257400982_)"
           clip-rule="evenodd"
           id="path46" />
        <path
           fill="#d7e3e3"
           fill-rule="evenodd"
           d="m 571.14,123.78 c 0,-10.02 0,-9.28 0,-22.31 l 4.41,-4.41 V 90.2 l -1.96,-1.96 V 57.48 l 8.28,-8.45 V 27.04 l -1.96,-1.96 v -48.79 h 0.95 v 48.4 l 1.01,1.01 0.95,0.95 v 22.78 l -8.28,8.45 v 29.97 l 1.96,1.96 v 7.65 l -4.41,4.41 c 0,13.28 0,12.02 0,22.31 l -1.74,1.74 c -0.13,-0.3 -0.38,-0.54 -0.67,-0.67 z m -87.51,-8.37 c -0.53,0 -0.95,0.43 -0.95,0.95 0,0.53 0.43,0.95 0.95,0.95 0.53,0 0.95,-0.43 0.95,-0.95 0.01,-0.52 -0.42,-0.95 -0.95,-0.95 m 0,-0.95 c -1.05,0 -1.91,0.85 -1.91,1.91 0,1.05 0.85,1.91 1.91,1.91 1.05,0 1.9,-0.85 1.9,-1.91 0.01,-1.06 -0.84,-1.91 -1.9,-1.91 z"
           clip-path="url(#SVGID_00000060741299025699031570000002186381545257400982_)"
           clip-rule="evenodd"
           id="path47" />
        <path
           fill="#d7e3e3"
           fill-rule="evenodd"
           d="m 450.13,116.95 h 11.14 6.67 l 3.58,-3.58 h 8.72 l 2.41,2.41 0.4,-0.96 -2.41,-2.41 h -9.51 l -3.59,3.59 h -6.27 -11.53 z m 93.68,0.06 V 96.99 L 541.02,94.2 V 27.1 h 0.95 v 66.71 l 2.79,2.79 v 20.86 l -3.12,2.54 -0.6,-0.74 z"
           clip-path="url(#SVGID_00000060741299025699031570000002186381545257400982_)"
           clip-rule="evenodd"
           id="path48" />
        <path
           fill="#d7e3e3"
           fill-rule="evenodd"
           d="m 541.32,120.42 c 0,-0.53 -0.43,-0.95 -0.95,-0.95 -0.53,0 -0.95,0.43 -0.95,0.95 0,0.53 0.43,0.95 0.95,0.95 0.52,0 0.95,-0.43 0.95,-0.95 m 0.95,0 c 0,-1.05 -0.85,-1.91 -1.91,-1.91 -1.06,0 -1.91,0.85 -1.91,1.91 0,1.06 0.85,1.91 1.91,1.91 1.06,0 1.91,-0.86 1.91,-1.91 z m -2.14,-9.24 V 91.17 l -2.79,-2.79 V 21.27 h 0.96 v 66.71 l 2.79,2.79 v 20.87 l -3.13,2.53 -0.6,-0.74 z"
           clip-path="url(#SVGID_00000060741299025699031570000002186381545257400982_)"
           clip-rule="evenodd"
           id="path49" />
        <path
           fill="#d7e3e3"
           fill-rule="evenodd"
           d="m 537.64,114.59 c 0,-0.53 -0.43,-0.95 -0.95,-0.95 -0.53,0 -0.95,0.43 -0.95,0.95 0,0.53 0.43,0.95 0.95,0.95 0.53,0 0.95,-0.42 0.95,-0.95 m 0.96,0 c 0,-1.05 -0.85,-1.91 -1.9,-1.91 -1.05,0 -1.91,0.85 -1.91,1.91 0,1.05 0.85,1.91 1.91,1.91 1.04,0 1.9,-0.86 1.9,-1.91 z m 28.33,98.01 c -0.53,0 -0.95,0.43 -0.95,0.95 0,0.53 0.43,0.95 0.95,0.95 0.53,0 0.95,-0.43 0.95,-0.95 0,-0.52 -0.42,-0.95 -0.95,-0.95 m 0,-0.95 c -1.05,0 -1.91,0.85 -1.91,1.91 0,1.05 0.85,1.91 1.91,1.91 1.05,0 1.91,-0.85 1.91,-1.91 0,-1.06 -0.86,-1.91 -1.91,-1.91 z"
           clip-path="url(#SVGID_00000060741299025699031570000002186381545257400982_)"
           clip-rule="evenodd"
           id="path50" />
        <path
           fill="#d7e3e3"
           fill-rule="evenodd"
           d="m 531.21,226.17 -3,3 h -7.83 l -3.59,-3.58 H 494.8 l -1.96,1.96 h -40.5 l -8.45,-8.28 h -20.38 l -1.97,1.96 h -50.41 v -0.95 h 50.02 l 1.01,-1.01 0.95,-0.95 h 21.17 l 8.45,8.28 h 39.71 l 1.01,-1.01 0.96,-0.96 h 22.78 l 3.58,3.59 h 7.04 l 3,-3 v 0 0 h 18.25 l 2.53,-2.53 h 5.81 l 8.29,-8.29 0.95,0.4 -8.85,8.85 h -5.81 l -2.53,2.52 z"
           clip-path="url(#SVGID_00000060741299025699031570000002186381545257400982_)"
           clip-rule="evenodd"
           id="path51" />
      </g>
      <linearGradient
         id="SVGID_00000041271511051493780250000003716225558067901096_"
         x1="544.01398"
         x2="539.66302"
         y1="170.765"
         y2="144.953"
         gradientUnits="userSpaceOnUse">
        <stop
           offset="0"
           stop-color="#62c0b4"
           id="stop51" />
        <stop
           offset="1"
           stop-color="#008698"
           id="stop52" />
      </linearGradient>
      <path
         fill="url(#SVGID_00000041271511051493780250000003716225558067901096_)"
         fill-rule="evenodd"
         d="m 567.91,161.21 v -33.87 c 0,-2.92 -1.5,-5.5 -3.76,-7.03 -0.01,-0.01 -0.02,-0.01 -0.03,-0.02 -0.01,-0.01 -0.02,-0.01 -0.03,-0.02 -0.01,-0.01 -0.02,-0.01 -0.03,-0.02 -0.01,-0.01 -0.02,-0.01 -0.03,-0.02 -0.01,-0.01 -0.02,-0.01 -0.03,-0.02 -0.01,-0.01 -0.02,-0.01 -0.03,-0.02 -0.01,-0.01 -0.02,-0.01 -0.03,-0.02 -0.01,-0.01 -0.02,-0.01 -0.03,-0.02 -0.01,-0.01 -0.02,-0.01 -0.03,-0.02 -0.01,-0.01 -0.02,-0.01 -0.03,-0.02 -0.01,-0.01 -0.02,-0.01 -0.03,-0.02 -0.01,-0.01 -0.02,-0.01 -0.03,-0.02 -0.01,-0.01 -0.02,-0.01 -0.03,-0.02 -0.01,-0.01 -0.02,-0.01 -0.03,-0.02 -0.01,-0.01 -0.02,-0.01 -0.03,-0.02 -0.01,-0.01 -0.02,-0.01 -0.03,-0.02 -0.01,-0.01 -0.02,-0.01 -0.03,-0.02 -0.01,-0.01 -0.02,-0.01 -0.03,-0.02 -0.01,-0.01 -0.02,-0.01 -0.03,-0.02 -0.01,-0.01 -0.02,-0.01 -0.03,-0.02 -0.01,-0.01 -0.02,-0.01 -0.03,-0.02 -0.01,-0.01 -0.02,-0.01 -0.03,-0.02 -0.01,-0.01 -0.02,-0.01 -0.03,-0.02 -0.01,-0.01 -0.02,-0.01 -0.03,-0.02 -0.01,-0.01 -0.02,-0.01 -0.03,-0.02 -0.01,-0.01 -0.02,-0.01 -0.03,-0.02 -0.01,-0.01 -0.02,-0.01 -0.03,-0.02 -0.01,-0.01 -0.02,-0.01 -0.03,-0.02 -0.01,-0.01 -0.02,-0.01 -0.03,-0.02 -0.01,-0.01 -0.02,-0.01 -0.03,-0.02 -0.01,-0.01 -0.02,-0.01 -0.03,-0.02 -0.01,-0.01 -0.02,-0.01 -0.03,-0.02 -0.01,-0.01 -0.02,-0.01 -0.03,-0.02 -0.01,-0.01 -0.02,-0.01 -0.03,-0.02 -0.01,-0.01 -0.02,-0.01 -0.03,-0.02 -0.01,-0.01 -0.02,-0.01 -0.03,-0.02 -0.01,-0.01 -0.02,-0.01 -0.03,-0.02 -0.01,-0.01 -0.02,-0.01 -0.03,-0.02 -0.01,-0.01 -0.02,-0.01 -0.03,-0.02 -0.01,-0.01 -0.02,-0.01 -0.03,-0.02 -0.01,-0.01 -0.02,-0.01 -0.03,-0.02 -0.01,-0.01 -0.02,-0.01 -0.03,-0.02 -0.01,-0.01 -0.02,-0.01 -0.03,-0.02 -0.01,-0.01 -0.02,-0.01 -0.03,-0.02 -0.01,-0.01 -0.02,-0.01 -0.03,-0.02 -0.01,-0.01 -0.02,-0.01 -0.03,-0.02 -0.01,-0.01 -0.02,-0.01 -0.03,-0.02 -0.01,-0.01 -0.02,-0.01 -0.03,-0.02 -0.01,-0.01 -0.02,-0.01 -0.03,-0.02 -0.01,-0.01 -0.02,-0.01 -0.03,-0.02 -0.01,-0.01 -0.02,-0.01 -0.03,-0.02 -0.01,-0.01 -0.02,-0.01 -0.03,-0.02 -0.01,-0.01 -0.02,-0.01 -0.03,-0.02 -0.01,-0.01 -0.02,-0.01 -0.03,-0.02 -0.01,-0.01 -0.02,-0.01 -0.03,-0.02 -0.01,-0.01 -0.02,-0.01 -0.03,-0.02 -0.01,-0.01 -0.02,-0.01 -0.03,-0.02 -0.01,-0.01 -0.02,-0.01 -0.03,-0.02 -0.01,-0.01 -0.02,-0.01 -0.03,-0.02 -0.01,-0.01 -0.02,-0.01 -0.03,-0.02 -1.35,-0.92 -2.99,-1.46 -4.74,-1.46 h -29.63 c -4.65,0 -8.47,3.81 -8.47,8.47 V 160 l 0.03,0.02 v 0 l 0.03,0.02 v 0 l 0.03,0.02 v 0 l 0.03,0.02 v 0 l 0.03,0.02 v 0 l 0.03,0.02 v 0 l 0.03,0.02 v 0 l 0.03,0.02 v 0 l 0.03,0.02 v 0 l 0.03,0.02 v 0 l 0.03,0.02 v 0 l 0.03,0.02 v 0 l 0.03,0.02 v 0 l 0.03,0.02 v 0 l 0.03,0.02 v 0 l 0.03,0.02 v 0 l 0.03,0.02 v 0 l 0.03,0.02 v 0 l 0.03,0.02 v 0 l 0.03,0.02 v 0 l 0.03,0.02 v 0 l 0.03,0.02 v 0 l 0.03,0.02 v 0 l 0.03,0.02 v 0 l 0.03,0.02 v 0 l 0.03,0.02 v 0 l 0.03,0.02 v 0 l 0.03,0.02 v 0 l 0.03,0.02 v 0 l 0.03,0.02 v 0 l 0.03,0.02 v 0 l 0.03,0.02 v 0 l 0.03,0.02 v 0 l 0.03,0.02 v 0 l 0.03,0.02 v 0 l 0.03,0.02 v 0 l 0.03,0.02 v 0 l 0.03,0.02 v 0 l 0.03,0.02 v 0 l 0.03,0.02 v 0 l 0.03,0.02 v 0 l 0.03,0.02 v 0 l 0.03,0.02 v 0 l 0.03,0.02 v 0 l 0.03,0.02 v 0 l 0.03,0.02 v 0 l 0.03,0.02 v 0 l 0.03,0.02 v 0 l 0.03,0.02 v 0 l 0.03,0.02 v 0 l 0.03,0.02 v 0 l 0.03,0.02 v 0 l 0.03,0.02 v 0 l 0.03,0.02 v 0 l 0.03,0.02 v 0 l 0.03,0.02 v 0 l 0.03,0.02 v 0 l 0.03,0.02 v 0 l 0.03,0.02 v 0 l 0.03,0.02 v 0 l 0.03,0.02 v 0 l 36.31,20.89 v 28.7 h -27.84 v -27.78 l -0.03,-0.02 v 0 l -0.03,-0.02 v 0 l -0.03,-0.02 v 0 l -0.03,-0.02 v 0 l -0.03,-0.02 v 0 l -0.03,-0.02 v 0 l -0.03,-0.02 v 0 l -0.03,-0.02 v 0 l -0.03,-0.02 v 0 l -0.03,-0.02 v 0 l -0.03,-0.02 v 0 l -0.03,-0.02 v 0 l -0.03,-0.02 v 0 l -0.03,-0.02 v 0 l -0.03,-0.02 v 0 l -0.03,-0.02 v 0 l -0.03,-0.02 v 0 l -0.03,-0.02 v 0 l -0.03,-0.02 v 0 l -0.03,-0.02 v 0 l -0.03,-0.02 v 0 l -0.03,-0.02 v 0 l -0.03,-0.02 v 0 l -0.03,-0.02 v 0 l -0.03,-0.02 v 0 l -0.03,-0.02 v 0 L 529,182.49 v 0 l -0.03,-0.02 v 0 l -0.03,-0.02 v 0 l -0.03,-0.02 v 0 l -0.03,-0.02 v 0 l -0.03,-0.02 v 0 l -0.03,-0.02 v 0 l -0.03,-0.02 v 0 l -0.03,-0.02 v 0 l -0.03,-0.02 v 0 l -0.03,-0.02 v 0 l -0.03,-0.02 v 0 l -0.03,-0.02 v 0 l -0.03,-0.02 v 0 l -0.03,-0.02 v 0 l -0.03,-0.02 v 0 l -0.03,-0.02 v 0 l -0.03,-0.02 v 0 l -0.03,-0.02 v 0 l -0.03,-0.02 v 0 l -0.03,-0.02 v 0 l -0.03,-0.02 v 0 l -0.03,-0.02 v 0 l -0.03,-0.02 v 0 l -0.03,-0.02 v 0 l -0.03,-0.02 v 0 l -0.03,-0.02 v 0 l -0.03,-0.02 v 0 l -0.03,-0.02 v 0 l -0.03,-0.02 v 0 l -0.03,-0.02 v 0 l -0.03,-0.02 v 0 l -0.03,-0.02 v 0 l -0.03,-0.02 v 0 l -0.03,-0.02 v 0 l -8.47,-4.87 v 33.87 c 0,2.92 1.5,5.5 3.76,7.02 0.01,0.01 0.02,0.01 0.03,0.02 0.01,0.01 0.02,0.01 0.03,0.02 0.01,0.01 0.02,0.01 0.03,0.02 0.01,0.01 0.02,0.01 0.03,0.02 0.01,0.01 0.02,0.01 0.03,0.02 0.01,0.01 0.02,0.01 0.03,0.02 0.01,0.01 0.02,0.01 0.03,0.02 0.01,0.01 0.02,0.01 0.03,0.02 0.01,0.01 0.02,0.01 0.03,0.02 0.01,0.01 0.02,0.01 0.03,0.02 0.01,0.01 0.02,0.01 0.03,0.02 0.01,0.01 0.02,0.01 0.03,0.02 0.01,0.01 0.02,0.01 0.03,0.02 0.01,0.01 0.02,0.01 0.03,0.02 0.01,0.01 0.02,0.01 0.03,0.02 0.01,0.01 0.02,0.01 0.03,0.02 0.01,0.01 0.02,0.01 0.03,0.02 0.01,0.01 0.02,0.01 0.03,0.02 0.01,0.01 0.02,0.01 0.03,0.02 0.01,0.01 0.02,0.01 0.03,0.02 0.01,0.01 0.02,0.01 0.03,0.02 0.01,0.01 0.02,0.01 0.03,0.02 0.01,0.01 0.02,0.01 0.03,0.02 0.01,0.01 0.02,0.01 0.03,0.02 0.01,0.01 0.02,0.01 0.03,0.02 0.01,0.01 0.02,0.01 0.03,0.02 0.01,0.01 0.02,0.01 0.03,0.02 0.01,0.01 0.02,0.01 0.03,0.02 0.01,0.01 0.02,0.01 0.03,0.02 0.01,0.01 0.02,0.01 0.03,0.02 0.01,0.01 0.02,0.01 0.03,0.02 0.01,0.01 0.02,0.01 0.03,0.02 0.01,0.01 0.02,0.01 0.03,0.02 0.01,0.01 0.02,0.01 0.03,0.02 0.01,0.01 0.02,0.01 0.03,0.02 0.01,0.01 0.02,0.01 0.03,0.02 0.01,0.01 0.02,0.01 0.03,0.02 0.01,0.01 0.02,0.01 0.03,0.02 0.01,0.01 0.02,0.01 0.03,0.02 0.01,0.01 0.02,0.01 0.03,0.02 0.01,0.01 0.02,0.01 0.03,0.02 0.01,0.01 0.02,0.01 0.03,0.02 0.01,0.01 0.02,0.01 0.03,0.02 0.01,0.01 0.02,0.01 0.03,0.02 0.01,0.01 0.02,0.01 0.03,0.02 0.01,0.01 0.02,0.01 0.03,0.02 0.01,0.01 0.02,0.01 0.03,0.02 0.01,0.01 0.02,0.01 0.03,0.02 0.01,0.01 0.02,0.01 0.03,0.02 0.01,0.01 0.02,0.01 0.03,0.02 0.01,0.01 0.02,0.01 0.03,0.02 0.01,0.01 0.02,0.01 0.03,0.02 0.01,0.01 0.02,0.01 0.03,0.02 0.01,0.01 0.02,0.01 0.03,0.02 0.01,0.01 0.02,0.01 0.03,0.02 0.01,0.01 0.02,0.01 0.03,0.02 0.01,0.01 0.02,0.01 0.03,0.02 0.01,0.01 0.02,0.01 0.03,0.02 0.01,0.01 0.02,0.01 0.03,0.02 0.01,0.01 0.02,0.01 0.03,0.02 1.35,0.92 2.99,1.46 4.74,1.46 h 29.63 c 4.66,0 8.47,-3.81 8.47,-8.47 v -33.87 l -0.03,-0.02 v 0 l -0.03,-0.02 v 0 l -0.03,-0.02 v 0 l -0.03,-0.02 v 0 l -0.03,-0.02 v 0 l -0.03,-0.02 v 0 l -0.03,-0.02 v 0 l -0.03,-0.02 v 0 l -0.03,-0.02 v 0 l -0.03,-0.02 v 0 l -0.03,-0.02 v 0 l -0.03,-0.02 v 0 l -0.03,-0.02 v 0 l -0.03,-0.02 v 0 l -0.03,-0.02 v 0 l -0.03,-0.02 v 0 l -0.03,-0.02 v 0 l -0.03,-0.02 v 0 l -0.03,-0.02 v 0 l -0.03,-0.02 v 0 l -0.03,-0.02 v 0 l -0.03,-0.02 v 0 l -0.03,-0.02 v 0 l -0.03,-0.02 v 0 l -0.03,-0.02 v 0 l -0.03,-0.02 v 0 l -0.03,-0.02 v 0 l -0.03,-0.02 v 0 l -0.03,-0.02 v 0 l -0.03,-0.02 v 0 l -0.03,-0.02 v 0 l -0.03,-0.02 v 0 l -0.03,-0.02 v 0 l -0.03,-0.02 v 0 l -0.03,-0.02 v 0 l -0.03,-0.02 v 0 l -0.03,-0.02 v 0 l -0.03,-0.02 v 0 l -0.03,-0.02 v 0 l -0.03,-0.02 v 0 l -0.03,-0.02 v 0 l -0.03,-0.02 v 0 l -0.03,-0.02 v 0 l -0.03,-0.02 v 0 l -0.03,-0.02 v 0 l -0.03,-0.02 v 0 l -0.03,-0.02 v 0 l -0.03,-0.02 v 0 l -0.03,-0.02 v 0 l -0.03,-0.02 v 0 l -0.03,-0.02 v 0 l -0.03,-0.02 v 0 l -0.03,-0.02 v 0 l -0.03,-0.02 v 0 l -0.03,-0.02 v 0 l -0.03,-0.02 v 0 l -0.03,-0.02 v 0 l -0.03,-0.02 v 0 l -0.03,-0.02 v 0 l -0.03,-0.02 v 0 l -0.03,-0.02 v 0 l -36.31,-20.89 v -28.7 h 27.84 v 27.78 l 0.03,0.02 v 0 l 0.03,0.02 v 0 l 0.03,0.02 v 0 l 0.03,0.02 v 0 l 0.03,0.02 v 0 l 0.03,0.02 v 0 l 0.03,0.02 v 0 l 0.03,0.02 v 0 l 0.03,0.02 v 0 l 0.03,0.02 v 0 l 0.03,0.02 v 0 l 0.03,0.02 v 0 l 0.03,0.02 v 0 l 0.03,0.02 v 0 l 0.03,0.02 v 0 l 0.03,0.02 v 0 l 0.03,0.02 v 0 l 0.03,0.02 v 0 l 0.03,0.02 v 0 l 0.03,0.02 v 0 l 0.03,0.02 v 0 l 0.03,0.02 v 0 l 0.03,0.02 v 0 l 0.03,0.02 v 0 l 0.03,0.02 v 0 l 0.03,0.02 v 0 l 0.03,0.02 v 0 l 0.03,0.02 v 0 l 0.03,0.02 v 0 l 0.03,0.02 v 0 l 0.03,0.02 v 0 l 0.03,0.02 v 0 l 0.03,0.02 v 0 l 0.03,0.02 v 0 l 0.03,0.02 v 0 l 0.03,0.02 v 0 l 0.03,0.02 v 0 l 0.03,0.02 v 0 l 0.03,0.02 v 0 l 0.03,0.02 v 0 l 0.03,0.02 v 0 l 0.03,0.02 v 0 l 0.03,0.02 v 0 l 0.03,0.02 v 0 l 0.03,0.02 v 0 l 0.03,0.02 v 0 l 0.03,0.02 v 0 l 0.03,0.02 v 0 l 0.03,0.02 v 0 l 0.03,0.02 v 0 l 0.03,0.02 v 0 l 0.03,0.02 v 0 l 0.03,0.02 v 0 l 0.03,0.02 v 0 l 0.03,0.02 v 0 l 0.03,0.02 v 0 l 0.03,0.02 v 0 l 0.03,0.02 v 0 l 0.03,0.02 v 0 l 0.03,0.02 v 0 l 0.03,0.02 v 0 z"
         clip-rule="evenodd"
         id="path52"
         style="fill:url(#SVGID_00000041271511051493780250000003716225558067901096_)" />
      <linearGradient
         id="SVGID_00000076561279180292396050000008463569371680490149_"
         x1="522.46198"
         x2="465.61801"
         y1="177.522"
         y2="100.667"
         gradientUnits="userSpaceOnUse">
        <stop
           offset="0"
           stop-color="#009dda"
           id="stop53" />
        <stop
           offset=".154"
           stop-color="#0693d2"
           id="stop54" />
        <stop
           offset=".459"
           stop-color="#1e79bb"
           id="stop55" />
        <stop
           offset=".883"
           stop-color="#2b4f98"
           id="stop56" />
        <stop
           offset="1"
           stop-color="#2d4390"
           id="stop57" />
      </linearGradient>
      <path
         fill="url(#SVGID_00000076561279180292396050000008463569371680490149_)"
         fill-rule="evenodd"
         d="m 584.84,156.34 v -54.4 h -0.03 v -0.02 h -0.03 v -0.02 h -0.03 v -0.02 h -0.03 v -0.02 h -0.03 v -0.02 h -0.03 v -0.02 h -0.03 v -0.02 h -0.03 v -0.02 h -0.03 v -0.02 h -0.03 v -0.02 h -0.03 v -0.02 h -0.03 v -0.02 h -0.03 v -0.02 h -0.03 v -0.02 h -0.03 v -0.02 h -0.03 v -0.02 h -0.03 v -0.02 h -0.03 v -0.02 h -0.03 v -0.02 h -0.03 v -0.02 h -0.03 v -0.02 h -0.03 v -0.02 h -0.03 v -0.02 h -0.03 v -0.02 h -0.03 v -0.02 h -0.03 v -0.02 h -0.03 V 101.4 H 584 v -0.02 h -0.03 v -0.02 h -0.03 v -0.02 h -0.03 v -0.02 h -0.03 v -0.02 h -0.03 v -0.02 h -0.03 v -0.02 h -0.03 v -0.02 h -0.03 v -0.02 h -0.03 v -0.02 h -0.03 v -0.02 h -0.03 v -0.02 h -0.03 v -0.02 h -0.03 v -0.02 h -0.03 v -0.02 h -0.03 v -0.02 h -0.03 v -0.02 h -0.03 v -0.02 h -0.03 v -0.02 h -0.03 V 101 h -0.03 v -0.02 h -0.03 v -0.02 h -0.03 v -0.02 h -0.03 v -0.02 h -0.03 v -0.02 h -0.03 v -0.02 h -0.03 v -0.02 h -0.03 v -0.02 h -0.03 v -0.02 h -0.03 v -0.02 h -0.03 v -0.02 h -0.03 v -0.02 h -0.03 v -0.02 h -0.03 v -0.02 h -127 l -0.01,0.22 v 0 l -0.01,0.2 v 0 l -8.44,135.05 h 0.03 v 0.02 h 0.03 v 0.02 h 0.03 v 0.02 h 0.03 v 0.02 h 0.03 v 0.02 h 0.03 v 0.02 h 0.03 v 0.02 h 0.03 v 0.02 h 0.03 v 0.02 h 0.03 v 0.02 h 0.03 v 0.02 h 0.03 v 0.02 h 0.03 v 0.02 h 0.03 v 0.02 H 448 v 0.02 h 0.03 v 0.02 h 0.03 v 0.02 h 0.03 v 0.02 h 0.03 v 0.02 h 0.03 v 0.02 h 0.03 v 0.02 h 0.03 v 0.02 h 0.03 v 0.02 h 0.03 v 0.02 h 0.03 v 0.02 h 0.03 v 0.02 h 0.03 v 0.02 h 0.03 v 0.02 h 0.03 v 0.02 h 0.03 v 0.02 h 0.03 v 0.02 h 0.03 v 0.02 h 0.03 v 0.02 h 0.03 v 0.02 h 0.03 v 0.02 h 0.03 v 0.02 h 0.03 v 0.02 h 0.03 v 0.02 h 0.03 v 0.02 h 0.03 v 0.02 h 0.03 v 0.02 h 0.03 v 0.02 h 0.03 v 0.02 h 0.03 v 0.02 h 0.03 v 0.02 h 0.03 v 0.02 h 0.03 v 0.02 h 0.03 v 0.02 h 0.03 v 0.02 h 0.03 v 0.02 h 0.03 v 0.02 h 0.03 v 0.02 h 0.03 v 0.02 h 0.03 v 0.02 h 0.03 v 0.02 h 0.03 v 0.02 h 0.03 v 0.02 h 0.03 v 0.02 h 0.03 v 0.02 h 0.03 v 0.02 h 0.03 v 0.02 h 125.21 c 10.16,0.21 10.26,-9.68 10.26,-9.68 v -39.85 l -1.82,-1.05 0.03,-0.17 -8.47,-4.87 v 29 c 0,9.31 -7.62,16.93 -16.93,16.93 h -84.67 c -3.11,0 -6.03,-0.85 -8.55,-2.34 -4,-3.1 -6.6,-7.95 -6.6,-13.38 v -84.67 c 0,-9.31 7.62,-16.93 16.93,-16.93 h 84.67 c 3.11,0 6.03,0.85 8.55,2.34 4,3.1 6.6,7.95 6.6,13.38 V 160 l 0.03,-0.02 v 0.04 l 0.03,-0.02 v 0.04 l 0.03,-0.02 v 0.04 l 0.03,-0.02 v 0.04 l 0.03,-0.02 v 0.04 l 0.03,-0.02 v 0.04 l 0.03,-0.02 v 0.04 l 0.03,-0.02 v 0.04 l 0.03,-0.02 v 0.04 l 0.03,-0.02 v 0.04 l 0.03,-0.02 v 0.04 l 0.03,-0.02 v 0.04 l 0.03,-0.02 v 0.04 l 0.03,-0.02 v 0.04 l 0.03,-0.02 v 0.04 l 0.03,-0.02 v 0.04 l 0.03,-0.02 v 0.04 l 0.03,-0.02 v 0.04 l 0.03,-0.02 v 0.04 l 0.03,-0.02 v 0.04 l 0.03,-0.02 v 0.04 l 0.03,-0.02 v 0.04 l 0.03,-0.02 v 0.04 l 0.03,-0.02 v 0.04 l 0.03,-0.02 v 0.04 l 0.03,-0.02 v 0.04 l 0.03,-0.02 v 0.04 l 0.03,-0.02 v 0.04 l 0.03,-0.02 v 0.04 l 0.03,-0.02 v 0.04 l 0.03,-0.02 v 0.04 l 0.03,-0.02 v 0.04 l 0.03,-0.02 v 0.04 l 0.03,-0.02 v 0.04 l 0.03,-0.02 v 0.04 l 0.03,-0.02 v 0.04 l 0.03,-0.02 v 0.04 l 0.03,-0.02 v 0.04 l 0.03,-0.02 v 0.04 l 0.03,-0.02 v 0.04 l 0.03,-0.02 v 0.04 l 0.03,-0.02 v 0.04 l 0.03,-0.02 v 0.04 l 0.03,-0.02 v 0.04 l 0.03,-0.02 v 0.04 l 0.03,-0.02 v 0.04 L 576,160.9 v 0.04 l 0.03,-0.02 v 0.04 l 0.03,-0.02 v 0.04 l 0.03,-0.02 V 161 l 0.03,-0.02 v 0.04 l 0.03,-0.02 v 0.04 l 0.03,-0.02 v 0.04 l 0.03,-0.02 v 0.04 l 0.03,-0.02 v 0.04 l 0.03,-0.02 v 0.04 l 0.03,-0.02 v 0.04 l 0.03,-0.02 v 0.04 l 0.03,-0.02 v 0.04 l 0.03,-0.02 v 0.04 l 0.03,-0.02 v 0.04 z M 464.51,231.97 H 453.6 v -10.91 z"
         clip-rule="evenodd"
         id="path57"
         style="fill:url(#SVGID_00000076561279180292396050000008463569371680490149_)" />
      <linearGradient
         id="SVGID_00000098220769820683002870000015184023905895911605_"
         x1="490.49899"
         x2="486.14899"
         y1="179.784"
         y2="153.97301"
         gradientUnits="userSpaceOnUse">
        <stop
           offset="0"
           stop-color="#62c0b4"
           id="stop58" />
        <stop
           offset="1"
           stop-color="#008698"
           id="stop59" />
      </linearGradient>
      <path
         fill="url(#SVGID_00000098220769820683002870000015184023905895911605_)"
         fill-rule="evenodd"
         d="m 509.12,120.32 c -0.01,-0.01 -0.02,-0.01 -0.03,-0.02 -0.01,-0.01 -0.02,-0.01 -0.03,-0.02 -0.01,-0.01 -0.02,-0.01 -0.03,-0.02 -0.01,-0.01 -0.02,-0.01 -0.03,-0.02 -0.01,-0.01 -0.02,-0.01 -0.03,-0.02 -0.01,-0.01 -0.02,-0.01 -0.03,-0.02 -0.01,-0.01 -0.02,-0.01 -0.03,-0.02 -0.01,-0.01 -0.02,-0.01 -0.03,-0.02 -0.01,-0.01 -0.02,-0.01 -0.03,-0.02 -0.01,-0.01 -0.02,-0.01 -0.03,-0.02 -0.01,-0.01 -0.02,-0.01 -0.03,-0.02 -0.01,-0.01 -0.02,-0.01 -0.03,-0.02 -0.01,-0.01 -0.02,-0.01 -0.03,-0.02 -0.01,-0.01 -0.02,-0.01 -0.03,-0.02 -0.01,-0.01 -0.02,-0.01 -0.03,-0.02 -0.01,-0.01 -0.02,-0.01 -0.03,-0.02 -0.01,-0.01 -0.02,-0.01 -0.03,-0.02 -0.01,-0.01 -0.02,-0.01 -0.03,-0.02 -0.01,-0.01 -0.02,-0.01 -0.03,-0.02 -0.01,-0.01 -0.02,-0.01 -0.03,-0.02 -0.01,-0.01 -0.02,-0.01 -0.03,-0.02 -0.01,-0.01 -0.02,-0.01 -0.03,-0.02 -0.01,-0.01 -0.02,-0.01 -0.03,-0.02 -0.01,-0.01 -0.02,-0.01 -0.03,-0.02 -0.01,-0.01 -0.02,-0.01 -0.03,-0.02 -0.01,-0.01 -0.02,-0.01 -0.03,-0.02 -0.01,-0.01 -0.02,-0.01 -0.03,-0.02 -0.01,-0.01 -0.02,-0.01 -0.03,-0.02 -0.01,-0.01 -0.02,-0.01 -0.03,-0.02 -0.01,-0.01 -0.02,-0.01 -0.03,-0.02 -0.01,-0.01 -0.02,-0.01 -0.03,-0.02 -0.01,-0.01 -0.02,-0.01 -0.03,-0.02 -0.01,-0.01 -0.02,-0.01 -0.03,-0.02 -0.01,-0.01 -0.02,-0.01 -0.03,-0.02 -0.01,-0.01 -0.02,-0.01 -0.03,-0.02 -0.01,-0.01 -0.02,-0.01 -0.03,-0.02 -0.01,-0.01 -0.02,-0.01 -0.03,-0.02 -0.01,-0.01 -0.02,-0.01 -0.03,-0.02 -0.01,-0.01 -0.02,-0.01 -0.03,-0.02 -0.01,-0.01 -0.02,-0.01 -0.03,-0.02 -0.01,-0.01 -0.02,-0.01 -0.03,-0.02 -0.01,-0.01 -0.02,-0.01 -0.03,-0.02 -0.01,-0.01 -0.02,-0.01 -0.03,-0.02 -0.01,-0.01 -0.02,-0.01 -0.03,-0.02 -0.01,-0.01 -0.02,-0.01 -0.03,-0.02 -0.01,-0.01 -0.02,-0.01 -0.03,-0.02 -0.01,-0.01 -0.02,-0.01 -0.03,-0.02 -0.01,-0.01 -0.02,-0.01 -0.03,-0.02 -0.01,-0.01 -0.02,-0.01 -0.03,-0.02 -0.01,-0.01 -0.02,-0.01 -0.03,-0.02 -0.01,-0.01 -0.02,-0.01 -0.03,-0.02 -0.01,-0.01 -0.02,-0.01 -0.03,-0.02 -0.01,-0.01 -0.02,-0.01 -0.03,-0.02 -0.01,-0.01 -0.02,-0.01 -0.03,-0.02 -0.01,-0.01 -0.02,-0.01 -0.03,-0.02 -0.01,-0.01 -0.02,-0.01 -0.03,-0.02 -0.01,-0.01 -0.02,-0.01 -0.03,-0.02 -0.01,-0.01 -0.02,-0.01 -0.03,-0.02 -0.01,-0.01 -0.02,-0.01 -0.03,-0.02 -0.01,-0.01 -0.02,-0.01 -0.03,-0.02 -1.35,-0.92 -2.99,-1.46 -4.74,-1.46 h -29.63 c -4.66,0 -8.47,3.81 -8.47,8.47 v 84.67 c 0,2.92 1.5,5.5 3.76,7.02 0.01,0.01 0.02,0.01 0.03,0.02 0.01,0.01 0.02,0.01 0.03,0.02 0.01,0.01 0.02,0.01 0.03,0.02 0.01,0.01 0.02,0.01 0.03,0.02 0.01,0.01 0.02,0.01 0.03,0.02 0.01,0.01 0.02,0.01 0.03,0.02 0.01,0.01 0.02,0.01 0.03,0.02 0.01,0.01 0.02,0.01 0.03,0.02 0.01,0.01 0.02,0.01 0.03,0.02 0.01,0.01 0.02,0.01 0.03,0.02 0.01,0.01 0.02,0.01 0.03,0.02 0.01,0.01 0.02,0.01 0.03,0.02 0.01,0.01 0.02,0.01 0.03,0.02 0.01,0.01 0.02,0.01 0.03,0.02 0.01,0.01 0.02,0.01 0.03,0.02 0.01,0.01 0.02,0.01 0.03,0.02 0.01,0.01 0.02,0.01 0.03,0.02 0.01,0.01 0.02,0.01 0.03,0.02 0.01,0.01 0.02,0.01 0.03,0.02 0.01,0.01 0.02,0.01 0.03,0.02 0.01,0.01 0.02,0.01 0.03,0.02 0.01,0.01 0.02,0.01 0.03,0.02 0.01,0.01 0.02,0.01 0.03,0.02 0.01,0.01 0.02,0.01 0.03,0.02 0.01,0.01 0.02,0.01 0.03,0.02 0.01,0.01 0.02,0.01 0.03,0.02 0.01,0.01 0.02,0.01 0.03,0.02 0.01,0.01 0.02,0.01 0.03,0.02 0.01,0.01 0.02,0.01 0.03,0.02 0.01,0.01 0.02,0.01 0.03,0.02 0.01,0.01 0.02,0.01 0.03,0.02 0.01,0.01 0.02,0.01 0.03,0.02 0.01,0.01 0.02,0.01 0.03,0.02 0.01,0.01 0.02,0.01 0.03,0.02 0.01,0.01 0.02,0.01 0.03,0.02 0.01,0.01 0.02,0.01 0.03,0.02 0.01,0.01 0.02,0.01 0.03,0.02 0.01,0.01 0.02,0.01 0.03,0.02 0.01,0.01 0.02,0.01 0.03,0.02 0.01,0.01 0.02,0.01 0.03,0.02 0.01,0.01 0.02,0.01 0.03,0.02 0.01,0.01 0.02,0.01 0.03,0.02 0.01,0.01 0.02,0.01 0.03,0.02 0.01,0.01 0.02,0.01 0.03,0.02 0.01,0.01 0.02,0.01 0.03,0.02 0.01,0.01 0.02,0.01 0.03,0.02 0.01,0.01 0.02,0.01 0.03,0.02 0.01,0.01 0.02,0.01 0.03,0.02 0.01,0.01 0.02,0.01 0.03,0.02 0.01,0.01 0.02,0.01 0.03,0.02 0.01,0.01 0.02,0.01 0.03,0.02 0.01,0.01 0.02,0.01 0.03,0.02 0.01,0.01 0.02,0.01 0.03,0.02 0.01,0.01 0.02,0.01 0.03,0.02 0.01,0.01 0.02,0.01 0.03,0.02 0.01,0.01 0.02,0.01 0.03,0.02 0.01,0.01 0.02,0.01 0.03,0.02 0.01,0.01 0.02,0.01 0.03,0.02 0.01,0.01 0.02,0.01 0.03,0.02 0.01,0.01 0.02,0.01 0.03,0.02 1.35,0.92 2.99,1.46 4.74,1.46 h 29.63 c 4.66,0 8.47,-3.81 8.47,-8.47 v -84.67 c -0.01,-2.91 -1.5,-5.5 -3.76,-7.02 z m -6.51,90.48 h -27.84 v -83.45 h 27.84 z"
         clip-rule="evenodd"
         id="path59"
         style="fill:url(#SVGID_00000098220769820683002870000015184023905895911605_)" />
      <linearGradient
         id="SVGID_00000178904740874547539770000000323810174648413354_"
         x1="525.17297"
         x2="545.185"
         y1="117.406"
         y2="175.26401"
         gradientUnits="userSpaceOnUse">
        <stop
           offset="0"
           stop-color="#62c0b4"
           id="stop60" />
        <stop
           offset="1"
           stop-color="#008698"
           id="stop61" />
      </linearGradient>
      <path
         fill="url(#SVGID_00000178904740874547539770000000323810174648413354_)"
         fill-rule="evenodd"
         d="m 566.12,160 v -33.87 c 0,-4.66 -3.81,-8.47 -8.47,-8.47 h -29.63 c -4.65,0 -8.47,3.81 -8.47,8.47 V 160 l 38.1,21.92 v 28.88 h -29.63 v -29 l -8.47,-4.87 v 33.87 c 0,4.65 3.81,8.47 8.47,8.47 h 29.63 c 4.66,0 8.47,-3.81 8.47,-8.47 v -33.87 l -38.1,-21.92 v -28.89 h 29.63 v 29 z"
         clip-rule="evenodd"
         id="path61"
         style="fill:url(#SVGID_00000178904740874547539770000000323810174648413354_)" />
      <linearGradient
         id="SVGID_00000141450701560891538970000010079809326530608768_"
         x1="476.01901"
         x2="496.03"
         y1="134.40601"
         y2="192.265"
         gradientUnits="userSpaceOnUse">
        <stop
           offset="0"
           stop-color="#62c0b4"
           id="stop62" />
        <stop
           offset="1"
           stop-color="#008698"
           id="stop63" />
      </linearGradient>
      <path
         fill="url(#SVGID_00000141450701560891538970000010079809326530608768_)"
         fill-rule="evenodd"
         d="m 502.62,117.66 h -29.63 c -4.66,0 -8.47,3.81 -8.47,8.47 v 84.67 c 0,4.66 3.81,8.47 8.47,8.47 h 29.63 c 4.66,0 8.47,-3.81 8.47,-8.47 v -84.67 c -0.01,-4.66 -3.82,-8.47 -8.47,-8.47 z m 0,93.14 h -29.63 v -84.67 h 29.63 z"
         clip-rule="evenodd"
         id="path63"
         style="fill:url(#SVGID_00000141450701560891538970000010079809326530608768_)" />
      <g
         id="g70">
        <g
           id="g69">
          <g
             id="g68">
            <linearGradient
               id="SVGID_00000123417823402284631610000000711642758551877274_"
               x1="608.172"
               x2="658.41498"
               y1="158.73599"
               y2="214.85201"
               gradientTransform="translate(-127.136,-28.558)"
               gradientUnits="userSpaceOnUse">
              <stop
                 offset="0"
                 stop-color="#2c9ccf"
                 id="stop64" />
              <stop
                 offset=".159"
                 stop-color="#2a92c7"
                 id="stop65" />
              <stop
                 offset=".475"
                 stop-color="#2777b3"
                 id="stop66" />
              <stop
                 offset=".913"
                 stop-color="#274c95"
                 id="stop67" />
              <stop
                 offset="1"
                 stop-color="#27438f"
                 id="stop68" />
            </linearGradient>
            <path
               fill="url(#SVGID_00000123417823402284631610000000711642758551877274_)"
               fill-rule="evenodd"
               d="M 574.58,160.03 V 160 l 8.47,-4.87 v -54.4 H 454.36 c -3.42,0.68 -6.1,3.37 -6.78,6.78 V 236.2 h 127.84 c 4.27,-0.52 7.58,-4.15 7.58,-8.56 0,-0.09 0.02,-0.16 0.05,-0.22 v -40.74 l -8.47,-4.87 v -0.12 0 29.12 c 0,9.31 -7.62,16.93 -16.93,16.93 h -84.67 c -9.31,0 -16.93,-7.62 -16.93,-16.93 v -84.67 c 0,-9.31 7.62,-16.93 16.93,-16.93 h 84.67 c 9.31,0 16.93,7.62 16.93,16.93 z m -110.07,71.94 h -12.7 v -12.7 z"
               clip-rule="evenodd"
               id="path68"
               style="fill:url(#SVGID_00000123417823402284631610000000711642758551877274_)" />
          </g>
        </g>
      </g>
      <g
         id="g71">
        <defs
           id="defs70">
          <path
             id="SVGID_00000183244938331703034190000015815935284109348527_"
             d="m 566.12,160 v -33.87 c 0,-4.66 -3.81,-8.47 -8.47,-8.47 h -29.63 c -4.65,0 -8.47,3.81 -8.47,8.47 V 160 l 38.1,21.92 v 28.88 h -29.63 v -29 l -8.47,-4.87 v 33.87 c 0,4.65 3.81,8.47 8.47,8.47 h 29.63 c 4.66,0 8.47,-3.81 8.47,-8.47 v -33.87 l -38.1,-21.92 v -28.89 h 29.63 v 29 z m -93.14,-41.73 c -4.66,0 -8.47,3.81 -8.47,8.47 v 84.67 c 0,4.66 3.81,8.47 8.47,8.47 h 29.63 c 4.66,0 8.47,-3.81 8.47,-8.47 v -84.67 c 0,-4.66 -3.81,-8.47 -8.47,-8.47 z m 29.64,93.14 h -29.63 v -84.67 h 29.63 z m 71.96,-51.38 V 160 l 8.47,-4.87 v -54.4 H 454.36 c -3.42,0.68 -6.1,3.37 -6.78,6.78 V 236.2 h 127.84 c 4.27,-0.52 7.58,-4.15 7.58,-8.56 0,-0.09 0.02,-0.16 0.05,-0.22 v -40.74 l -8.47,-4.87 v -0.12 0 29.12 c 0,9.31 -7.62,16.93 -16.93,16.93 h -84.67 c -9.31,0 -16.93,-7.62 -16.93,-16.93 v -84.67 c 0,-9.31 7.62,-16.93 16.93,-16.93 h 84.67 c 9.31,0 16.93,7.62 16.93,16.93 z m -110.07,71.94 h -12.7 v -12.7 z" />
        </defs>
        <clipPath
           id="SVGID_00000132086586872030947390000011644236263396139196_">
          <use
             overflow="visible"
             xlink:href="#SVGID_00000183244938331703034190000015815935284109348527_"
             id="use70" />
        </clipPath>
        <linearGradient
           id="SVGID_00000052794934183224587720000016777315585156833448_"
           x1="550.31097"
           x2="537.24902"
           y1="153.545"
           y2="191.88901"
           gradientUnits="userSpaceOnUse">
          <stop
             offset="0"
             stop-color="#fff"
             id="stop70" />
          <stop
             offset="1"
             stop-color="#fff"
             stop-opacity="0"
             id="stop71" />
        </linearGradient>
        <path
           fill="url(#SVGID_00000052794934183224587720000016777315585156833448_)"
           d="m 427.62,149.1 c 0,0 132.62,7.68 186.11,92.64 53.49,84.96 -54.05,79.33 -54.05,79.33 L 421.49,281.66 Z"
           clip-path="url(#SVGID_00000132086586872030947390000011644236263396139196_)"
           id="path71"
           style="fill:url(#SVGID_00000052794934183224587720000016777315585156833448_)" />
      </g>
      <linearGradient
         id="SVGID_00000113333399035846241310000016320164802112763828_"
         x1="484.81299"
         x2="499.168"
         y1="231.789"
         y2="263.10999"
         gradientUnits="userSpaceOnUse">
        <stop
           offset="0"
           stop-color="#009dda"
           id="stop72" />
        <stop
           offset=".154"
           stop-color="#0693d2"
           id="stop73" />
        <stop
           offset=".459"
           stop-color="#1e79bb"
           id="stop74" />
        <stop
           offset=".883"
           stop-color="#2b4f98"
           id="stop75" />
        <stop
           offset="1"
           stop-color="#2d4390"
           id="stop76" />
      </linearGradient>
      <path
         fill="url(#SVGID_00000113333399035846241310000016320164802112763828_)"
         d="m 504.75,244.63 h -16.28 c 0,0 -6.51,0.69 -7.31,6.63 v 12.57 c 0,0 0.8,6.17 6.63,6.86 h 17.65 c 5.83,-0.69 6.63,-6.86 6.63,-6.86 v -12.57 c -0.8,-5.95 -7.32,-6.63 -7.32,-6.63 z m 1.6,18.12 c 0,2.47 -2.74,2.33 -2.74,2.33 h -14 c 0,0 -2.74,0.15 -2.74,-2.33 v -10.01 c 0,0 0.23,-1.94 2.29,-2.17 h 14.91 c 2.06,0.23 2.29,2.17 2.29,2.17 v 10.01 z"
         id="path76"
         style="fill:url(#SVGID_00000113333399035846241310000016320164802112763828_)" />
      <g
         id="g86">
        <linearGradient
           id="SVGID_00000090989119523165628120000013997999595010771644_"
           x1="455.76199"
           x2="470.11801"
           y1="245.104"
           y2="276.42499"
           gradientUnits="userSpaceOnUse">
          <stop
             offset="0"
             stop-color="#009dda"
             id="stop77" />
          <stop
             offset=".154"
             stop-color="#0693d2"
             id="stop78" />
          <stop
             offset=".459"
             stop-color="#1e79bb"
             id="stop79" />
          <stop
             offset=".883"
             stop-color="#2b4f98"
             id="stop80" />
          <stop
             offset="1"
             stop-color="#2d4390"
             id="stop81" />
        </linearGradient>
        <path
           fill="url(#SVGID_00000090989119523165628120000013997999595010771644_)"
           d="m 447.58,250.22 v -5.59 h 18.6 c 0,0 6.13,0.65 6.88,6.24 v 2.69 c 0,0 -0.75,5.81 -6.24,6.45 h -19.25 v -3.55 l 5.48,-1.72 v 0 h 12.04 c 0,0 2.58,0.14 2.58,-2.19 v -0.28 c 0,0 -0.22,-1.83 -2.15,-2.04 h -17.94 z"
           id="path81"
           style="fill:url(#SVGID_00000090989119523165628120000013997999595010771644_)" />
        <linearGradient
           id="SVGID_00000013887461829990393220000004084930268843937922_"
           x1="452.495"
           x2="466.85101"
           y1="246.60201"
           y2="277.922"
           gradientUnits="userSpaceOnUse">
          <stop
             offset="0"
             stop-color="#009dda"
             id="stop82" />
          <stop
             offset=".154"
             stop-color="#0693d2"
             id="stop83" />
          <stop
             offset=".459"
             stop-color="#1e79bb"
             id="stop84" />
          <stop
             offset=".883"
             stop-color="#2b4f98"
             id="stop85" />
          <stop
             offset="1"
             stop-color="#2d4390"
             id="stop86" />
        </linearGradient>
        <path
           fill="url(#SVGID_00000013887461829990393220000004084930268843937922_)"
           d="m 447.58,260.28 v -5.94 h 19.77 c 0,0 6.51,0.69 7.31,6.63 v 2.86 c 0,0 -0.8,6.17 -6.63,6.86 h -20.45 v -16.34 l 5.83,-2.63 v 13.37 h 12.8 c 0,0 2.74,0.15 2.74,-2.33 v -0.3 c 0,0 -0.23,-1.94 -2.29,-2.17 h -19.08 z"
           id="path86"
           style="fill:url(#SVGID_00000013887461829990393220000004084930268843937922_)" />
      </g>
      <g
         id="g91">
        <linearGradient
           id="SVGID_00000154400703109813941520000001131348052276197563_"
           x1="511.15701"
           x2="525.513"
           y1="219.715"
           y2="251.035"
           gradientUnits="userSpaceOnUse">
          <stop
             offset="0"
             stop-color="#009dda"
             id="stop87" />
          <stop
             offset=".154"
             stop-color="#0693d2"
             id="stop88" />
          <stop
             offset=".459"
             stop-color="#1e79bb"
             id="stop89" />
          <stop
             offset=".883"
             stop-color="#2b4f98"
             id="stop90" />
          <stop
             offset="1"
             stop-color="#2d4390"
             id="stop91" />
        </linearGradient>
        <path
           fill="url(#SVGID_00000154400703109813941520000001131348052276197563_)"
           d="m 525.66,260.21 -0.65,-5.87 h 13.32 c 0,0 6.51,0.69 7.31,6.63 v 2.86 c 0,0 -0.8,6.17 -6.63,6.86 h -20.45 v -5.6 h 5.83 v 0 h 12.8 c 0,0 2.74,0.15 2.74,-2.33 v -0.3 c 0,0 -0.23,-1.94 -2.29,-2.17 z"
           id="path91"
           style="fill:url(#SVGID_00000154400703109813941520000001131348052276197563_)" />
      </g>
      <linearGradient
         id="SVGID_00000111179860151386544150000004291136966984467852_"
         x1="543.47498"
         x2="557.83099"
         y1="204.903"
         y2="236.22301"
         gradientUnits="userSpaceOnUse">
        <stop
           offset="0"
           stop-color="#009dda"
           id="stop92" />
        <stop
           offset=".154"
           stop-color="#0693d2"
           id="stop93" />
        <stop
           offset=".459"
           stop-color="#1e79bb"
           id="stop94" />
        <stop
           offset=".883"
           stop-color="#2b4f98"
           id="stop95" />
        <stop
           offset="1"
           stop-color="#2d4390"
           id="stop96" />
      </linearGradient>
      <path
         fill="url(#SVGID_00000111179860151386544150000004291136966984467852_)"
         d="m 577.34,261.15 v 1.61 c 0,2.47 -2.74,2.33 -2.74,2.33 h -14 c 0,0 -2.74,0.15 -2.74,-2.33 v -10.01 c 0,0 0.23,-1.94 2.29,-2.17 h 14.91 c 2.06,0.23 2.29,2.17 2.29,2.17 v 1.49 h 5.71 v -2.97 c -0.8,-5.94 -7.31,-6.63 -7.31,-6.63 h -16.28 c 0,0 -6.51,0.69 -7.31,6.63 v 12.57 c 0,0 0.8,6.17 6.63,6.86 h 17.65 c 5.83,-0.69 6.63,-6.86 6.63,-6.86 v -2.68 h -5.73 z"
         id="path96"
         style="fill:url(#SVGID_00000111179860151386544150000004291136966984467852_)" />
      <linearGradient
         id="SVGID_00000163056107310866487820000002882828601751341980_"
         x1="528.16901"
         x2="534.30701"
         y1="243.813"
         y2="254.862"
         gradientUnits="userSpaceOnUse">
        <stop
           offset="0"
           stop-color="#eddc44"
           id="stop97" />
        <stop
           offset=".153"
           stop-color="#ead042"
           id="stop98" />
        <stop
           offset=".457"
           stop-color="#e0b03d"
           id="stop99" />
        <stop
           offset=".878"
           stop-color="#d17934"
           id="stop100" />
        <stop
           offset=".995"
           stop-color="#cd6832"
           id="stop101" />
      </linearGradient>
      <path
         fill="url(#SVGID_00000163056107310866487820000002882828601751341980_)"
         d="m 534.83,254.34 h -9.4 c -1.25,-0.54 -1.42,-1.86 -1.42,-1.86 v -0.29 c 0,-2.36 2.62,-2.22 2.62,-2.22 h 12.21 c 5.22,-0.93 5.56,-5.34 5.56,-5.34 h -19.51 c -5.56,0.65 -6.32,6.54 -6.32,6.54 v 2.72 c 0.76,5.67 6.98,6.32 6.98,6.32 h 0.12 l 11.99,0.07 c 2.06,0.23 2.29,2.17 2.29,2.17 v 0.3 0 0 c 0.67,-5.73 -3.61,-7.84 -5.12,-8.41 z"
         id="path101"
         style="fill:url(#SVGID_00000163056107310866487820000002882828601751341980_)" />
    </g>
  </g>
</svg>
