<?xml version="1.0" encoding="UTF-8" standalone="no"?>
<svg
   version="1.1"
   id="Calque_1"
   x="0px"
   y="0px"
   width="250px"
   height="100px"
   viewBox="0 0 250 100"
   enable-background="new 0 0 800 652.681"
   sodipodi:docname="cea.svg"
   xml:space="preserve"
   inkscape:version="1.3.2 (1:1.3.2+202311252150+091e20ef0f)"
   xmlns:inkscape="http://www.inkscape.org/namespaces/inkscape"
   xmlns:sodipodi="http://sodipodi.sourceforge.net/DTD/sodipodi-0.dtd"
   xmlns="http://www.w3.org/2000/svg"
   xmlns:svg="http://www.w3.org/2000/svg"><defs
     id="defs10" /><sodipodi:namedview
     id="namedview10"
     pagecolor="#ffffff"
     bordercolor="#000000"
     borderopacity="0.25"
     inkscape:showpageshadow="2"
     inkscape:pageopacity="0.0"
     inkscape:pagecheckerboard="0"
     inkscape:deskcolor="#d1d1d1"
     inkscape:zoom="4.6"
     inkscape:cx="110.65217"
     inkscape:cy="45.326087"
     inkscape:window-width="1920"
     inkscape:window-height="1151"
     inkscape:window-x="0"
     inkscape:window-y="25"
     inkscape:window-maximized="1"
     inkscape:current-layer="Calque_1" /><g
     id="Calque_1-3"
     transform="translate(17,-46)">
</g><g
     id="_x32_.2"
     transform="matrix(0.49987502,0,0,0.49987502,75,0)">
	<rect
   class="st0"
   width="200.05"
   height="200.05"
   id="rect1"
   style="fill:#e60019"
   x="0"
   y="0" />
	<g
   id="g2">
		<path
   class="st1"
   d="m 59.33,113.55 c 11.94,0 22.08,-6.55 23.93,-7.75 1.28,2.24 6.36,7.75 17.35,7.75 8.7,0 18.35,-4.33 21.57,-6.41 1.97,2.64 6.01,6.42 18.33,6.42 8.14,0 13.3,-2.82 16.54,-6.71 0.06,2.05 0.14,4.04 0.23,5.57 l 4.93,0.76 c -0.16,-5.14 -0.03,-22.94 -0.03,-23.21 0,-22.36 -17,-23.94 -20.56,-23.94 -5.53,0 -10.86,1.15 -16.47,3.36 l -0.4,5.89 c 2.18,-1.02 9.18,-4.03 16.16,-4.03 5.49,0 9.72,1.84 12.59,5.48 -18.9,9.94 -30.18,17.94 -31.88,24.57 -4.84,3.27 -13.36,7.05 -20.95,7.05 -8.08,0 -11.56,-3.49 -13.07,-5.52 20.74,-13.95 31.49,-22 30.17,-28.36 -1.18,-5.73 -9.7,-8.42 -17.34,-8.42 -7.81,0 -13.18,3.37 -15.72,5.99 -4.08,4.21 -6.03,10.45 -5.78,18.55 0.11,3.54 0.81,7.23 1.98,10.46 -3.18,2.07 -11.85,7.31 -21.8,7.31 -11.82,0 -16.68,-9.23 -16.68,-18.55 0,-9.03 4.54,-18.56 16.68,-18.56 6.83,0 13.68,2.88 16.02,3.96 l -0.39,-5.88 c -4.41,-1.72 -10.21,-3.28 -15.23,-3.28 -20.1,0 -21.76,16.87 -21.66,23.74 -0.09,6.89 1.75,23.76 21.48,23.76 z m 96.54,-32.4 c 0.64,1.61 1.18,3.69 1.51,5.65 0.02,0.1 1.38,10.56 -4.19,16.95 -2.88,3.31 -7.22,4.76 -12.73,4.8 -12.57,0.11 -13.79,-4.66 -13.79,-4.66 -1.31,-2.92 2.93,-8.82 29.2,-22.74 z M 87.92,75.86 c 2.88,-3.31 7.15,-4.98 12.66,-4.98 5.94,0 10.93,2.07 11.44,4.45 0.38,1.78 -1.3,4.06 -8.98,10.22 -0.08,0.07 -7.84,6.65 -17.86,12.6 -0.63,-1.6 -1.12,-3.4 -1.45,-5.34 -0.02,-0.11 -1.38,-10.56 4.19,-16.95 z"
   id="path1"
   style="fill:#ffffff" />
		<rect
   x="42.73"
   y="129.14999"
   class="st1"
   width="114.58"
   height="4.8800001"
   id="rect2"
   style="fill:#ffffff" />
	</g>
</g></svg>
