<?xml version="1.0" encoding="UTF-8" standalone="no"?>
<svg
   version="1.1"
   viewBox="0 0 225.00001 89.999999"
   width="300"
   height="120"
   id="svg22"
   sodipodi:docname="LowRISC_logo.svg"
   inkscape:version="1.3.2 (1:1.3.2+202311252150+091e20ef0f)"
   xmlns:inkscape="http://www.inkscape.org/namespaces/inkscape"
   xmlns:sodipodi="http://sodipodi.sourceforge.net/DTD/sodipodi-0.dtd"
   xmlns="http://www.w3.org/2000/svg"
   xmlns:svg="http://www.w3.org/2000/svg"
   xmlns:rdf="http://www.w3.org/1999/02/22-rdf-syntax-ns#"
   xmlns:cc="http://creativecommons.org/ns#"
   xmlns:dc="http://purl.org/dc/elements/1.1/">
  <metadata
     id="metadata28">
    <rdf:RDF>
      <cc:Work
         rdf:about="">
        <dc:format>image/svg+xml</dc:format>
        <dc:type
           rdf:resource="http://purl.org/dc/dcmitype/StillImage" />
      </cc:Work>
    </rdf:RDF>
  </metadata>
  <defs
     id="defs26" />
  <sodipodi:namedview
     pagecolor="#ffffff"
     bordercolor="#666666"
     borderopacity="1"
     objecttolerance="10"
     gridtolerance="10"
     guidetolerance="10"
     inkscape:pageopacity="0"
     inkscape:pageshadow="2"
     inkscape:window-width="1920"
     inkscape:window-height="1151"
     id="namedview24"
     showgrid="false"
     inkscape:zoom="0.44296875"
     inkscape:cx="809.31217"
     inkscape:cy="100.45855"
     inkscape:window-x="0"
     inkscape:window-y="25"
     inkscape:window-maximized="1"
     inkscape:current-layer="svg22"
     inkscape:showpageshadow="2"
     inkscape:pagecheckerboard="0"
     inkscape:deskcolor="#d1d1d1"
     inkscape:document-units="pt" />
  <g
     id="g1"
     transform="matrix(0.17648274,0,0,0.17648274,-0.3170515,10.994281)">
    <path
       d="m 210.96,38.44 c 42.24,8.48 79.95,35.89 101.34,73.25 6.68,11.42 12.13,23.8 15.36,36.65 -38.86,39 -77.82,77.9 -116.78,116.79 -4.92,-2.16 -9.39,-4.46 -14.87,-4.9 -9.63,-0.73 -19.75,3.37 -25.57,11.22 -8.44,10.44 -7.96,27.12 0.97,37.12 8.82,10.52 25.37,12.8 37.08,5.94 7.68,-4.33 12.79,-12.28 13.98,-20.98 1.32,-7.65 -1.08,-14.6 -4.88,-21.14 12.77,-13.16 25.92,-25.96 38.81,-39 24.67,-24.53 49.11,-49.29 73.89,-73.71 8.28,40.75 -1.5,84.23 -25.6,117.98 -18.33,25.6 -44.38,45.47 -74.17,55.8 -20.84,7.46 -43.48,9.99 -65.49,7.96 -26.55,-2.44 -52.58,-12.06 -74.18,-27.72 3.89,-4.4 8.14,-8.41 12.26,-12.59 37.84,-37.82 75.68,-75.65 113.51,-113.49 2.9,-2.98 6.38,-5.89 8.59,-9.44 2.57,-3.85 1.49,-9.71 1.69,-14.18 0.16,-15.11 -0.4,-30.27 0.36,-45.36 7.59,-1.96 14.53,-5.82 18.95,-12.45 7.14,-10.02 6.79,-24.9 -0.93,-34.5 -3.94,-5.34 -10,-8.91 -16.36,-10.55 -9.84,-2.45 -20.69,0.78 -27.68,8.1 -3.94,3.99 -6.59,9.08 -7.84,14.53 -1.84,8.85 0.69,18.37 6.77,25.07 4.49,5.28 10.52,8.09 17.08,9.9 -0.01,16.73 0.01,33.57 0,50.29 0.21,5.13 -3.32,7.43 -6.47,10.76 -39.2,39.13 -78.34,78.32 -117.52,117.47 -3.44,3.48 -6.91,6.93 -10.48,10.28 -12.11,-9.68 -22.51,-21.3 -31.14,-34.17 -2.25,-3.23 -4.22,-6.58 -5.8,-10.19 9.97,-9.79 19.8,-19.75 29.68,-29.64 1.02,-0.9 2.09,-2.23 3.46,-2.5 4.84,1.38 8.75,4.09 14.01,4.16 8.64,0.85 17.07,-1.79 23.29,-7.91 8.12,-7.8 11.07,-20.24 7.18,-30.82 -3.22,-9.62 -11.74,-16.89 -21.66,-18.81 -6.84,-1.26 -14.01,-0.41 -20.12,3.02 -10.14,5.36 -15.98,16.99 -14.85,28.34 0.15,5.42 2.8,9.41 4.81,14.19 -1.42,2.23 -3.62,4.08 -5.46,5.97 -8.46,8.28 -16.61,16.88 -25.25,24.98 -9.9,-20.81 -15.32,-44.09 -14.84,-67.17 0.18,-2.06 -0.19,-3.87 1.45,-5.42 11.89,-12.03 24.07,-24.02 35.98,-36.05 1.83,-1.81 3.62,-3.82 5.71,-5.32 1.84,-1.32 4.6,-1.29 6.77,-1.38 11.86,0.01 23.73,0.11 35.59,-0.04 1.92,5.21 3.51,10.09 7.25,14.34 7.32,8.56 19.4,12.1 30.21,8.97 10.65,-3.01 18.85,-12.22 20.77,-23.09 1.37,-9.11 -1.03,-18.62 -7.47,-25.36 -9.89,-10.5 -27.39,-11.83 -38.87,-3.14 -6.18,4.54 -9.61,11.07 -11.6,18.34 -12.63,0.22 -25.26,0.05 -37.89,0.09 -2.93,0.02 -5.74,0.3 -8.37,1.7 -3.03,1.61 -5.53,4.63 -7.96,7.02 -9.9,9.87 -19.7,19.81 -29.71,29.55 0.43,-3.93 0.83,-7.85 1.72,-11.72 C 34.89,132.77 45.13,110.96 59.78,92.81 73.82,75.22 91.71,60.82 111.9,50.9 142.26,35.86 177.82,31.39 210.96,38.44 Z"
       fill="#ed1457"
       id="path4"
       style="fill:#e0384f;fill-opacity:1" />
    <path
       d="m 386,95.6 c 6.83,-0.19 13.93,-0.31 20.66,0.9 0.47,21.49 0.14,43.03 -0.12,64.53 -0.57,25.17 -0.65,50.33 -1.65,75.48 -0.16,12.46 -0.65,24.9 -1.18,37.36 -11.09,-0.15 -22.35,0.41 -33.37,-0.77 -0.35,-3.36 -0.6,-6.72 -0.64,-10.1 -0.93,-43.99 -0.65,-88.02 0.17,-132.01 0.53,-9.92 0.35,-20.13 1.45,-30 0.42,-1.63 -0.16,-3.31 1.81,-3.91 4.04,-1.26 8.67,-1.32 12.87,-1.48 z"
       fill="#4d4d4d"
       id="path6" />
    <path
       d="m 1035,106.48 c 12.84,0.77 26.36,3.04 38.16,8.33 3.17,1.6 7.15,3.2 9.39,6.03 -0.25,4.42 -2.13,8.9 -3.71,13.01 -2.69,6.4 -5.6,13.02 -9.62,18.72 -13.66,-6.49 -27.94,-10.81 -43.21,-10.32 -4.79,0.26 -10.46,1.32 -14.17,4.58 -3.97,3.31 -5.09,9.44 -2.65,13.97 1.71,2.88 5.21,4.59 8.19,5.83 9,3.6 18.59,4.9 28.14,7.85 11.56,3.53 23.83,8.75 31.92,18.06 5.11,5.45 7.93,12.25 9.49,19.48 2.26,11.73 0.63,24.04 -5.58,34.34 -5.39,8.54 -13.15,15.43 -22.34,19.64 -14.99,7.1 -32.72,8.17 -49,6.46 -15.63,-2.02 -31.64,-6.93 -44.84,-15.71 0.42,-5.16 2.05,-9.96 3.78,-14.8 2.4,-6.5 4.85,-13.21 8.87,-18.86 8.08,5.11 16.74,10.34 25.91,13.17 9.11,3.03 19.02,3.94 28.4,1.7 3.67,-0.93 7.63,-2.82 9.69,-6.15 2.36,-3.93 2.65,-9.62 -0.24,-13.36 -2.41,-3.05 -6.02,-5.07 -9.59,-6.46 -9.63,-3.69 -19.19,-4.83 -29.14,-7.84 -7.15,-2.07 -14.01,-5.51 -20.01,-9.91 -7.13,-5.61 -12.44,-13.59 -14.51,-22.46 -2.62,-10.42 -2.82,-22.24 1.11,-32.36 4.05,-11.28 13.46,-20.63 24.1,-25.87 12.75,-6.41 27.38,-7.9 41.46,-7.07 z"
       fill="#4d4d4d"
       id="path8" />
    <path
       d="m 1218.48,110.51 c 7.72,2.48 16.01,5.71 22.15,11.14 -2.03,8.8 -5.59,17.29 -9.58,25.37 -1.63,3.42 -3.68,6.48 -6.07,9.4 -13.77,-7.6 -29.3,-13.03 -45.21,-10.53 -14.38,2.43 -26.37,12.79 -31.57,26.31 -4.68,12.28 -4.39,25.86 -0.49,38.31 2.29,7.59 7.17,14.5 13.42,19.34 8.01,6.09 17.94,8.29 27.88,7.55 12.52,-0.8 23.24,-6.27 33.15,-13.61 8.32,8.53 13.82,20.15 19.27,30.65 -5.91,6.17 -13.12,10.76 -20.91,14.2 -17.13,7.73 -35.95,9.66 -54.5,7.3 -13.84,-2.1 -26.9,-7.17 -37.54,-16.42 -12.44,-10.57 -20.24,-25.31 -24.1,-41.02 -3.17,-13.15 -4.4,-27.01 -2.81,-40.48 2.02,-16.31 8.25,-31.88 19.2,-44.25 12.52,-14.36 30.03,-23.06 48.72,-26.08 16.08,-2.56 33.3,-1.6 48.99,2.82 z"
       fill="#4d4d4d"
       id="path10" />
    <path
       style="fill:#4d4d4d;stroke-width:1.33333"
       d="m 1069.334,144.29297 c -24.0267,0.26667 -48.3215,0.65406 -72.21486,3.41406 -2.17333,28.96 -1.612,57.95899 -2.63867,86.95899 -0.26667,32.89333 -0.50807,65.77463 -0.44141,98.66796 0.26667,10.05334 -0.27974,20.43844 0.9336,30.39844 5.96004,1.13334 12.32134,0.74771 18.36134,0.73438 11.44,-0.34667 23.0794,-0.20097 34.4394,-1.6543 1.9334,-19.33333 0.9459,-38.13219 1.5059,-57.49219 0.2133,-5.06666 0.2536,-10.12049 0.2402,-15.17383 6.8134,0.32 13.5871,0.40024 20.4004,0.24024 17.6134,22.94666 33.6935,47.33388 49.4668,71.56055 1.4,2 2.7474,4.43924 4.7207,5.89257 5.6534,0.04 11.6253,-2.29273 16.9453,-4.05273 10.7734,-3.90667 21.8281,-8.34763 31.4414,-14.6543 -1.5066,-3.37333 -3.2005,-6.63976 -5.1738,-9.75976 -12.76,-20.26667 -26.7745,-39.73331 -41.8945,-58.30664 11.92,-5.2 22.4669,-12.34586 29.5469,-23.50586 8.1866,-12.53334 10.4278,-28.18787 9.8945,-42.89453 -0.8133,-14.78667 -4.9882,-30.69237 -14.5215,-42.34571 -8.7333,-11.05333 -21.6527,-18.25364 -34.9727,-22.32031 -15.0666,-4.66667 -30.3457,-5.78703 -46.039,-5.70703 z m 2.2988,48.12109 c 8.3412,-0.0734 16.6492,0.6475 23.8867,4 8.4667,3.61334 12.9875,11.91857 13.4942,20.86524 0.96,9.89333 -1.8928,19.61367 -10.7461,25.01367 -12.9867,7.82667 -31.2013,5.25372 -45.668,4.40039 0.12,-17.85333 0.12,-35.6932 0,-53.5332 6.0375,-0.15167 12.5456,-0.68902 19.0332,-0.7461 z"
       transform="scale(0.75000002)"
       id="path12" />
    <path
       d="m 931,108.63 c 3.65,0.04 7.25,0.42 10.85,0.95 1.53,16.55 0.61,32.85 1.24,49.41 0.09,14.67 0.02,29.34 0.03,44.01 -0.62,23.25 0.09,46.47 -1.45,69.7 -6.5,2.14 -13.84,1.98 -20.66,1.99 -7.09,-0.29 -13.8,-0.11 -20.77,-1.42 -1.27,-45.83 -1.17,-91.74 -0.67,-137.58 0.06,-8.58 0.45,-17.13 0.88,-25.71 10.13,-1.82 20.24,-1.55 30.55,-1.35 z"
       fill="#4d4d4d"
       id="path14" />
    <path
       d="m 695.94,154.17 c 11.34,1.63 22.91,4.34 33.86,7.77 -2.1,8.03 -4.59,15.94 -7.23,23.81 -8.73,26.37 -17.85,52.62 -27.25,78.76 -1.18,3.03 -2.13,6.31 -3.78,9.12 -1.73,1.11 -4.53,0.87 -6.54,1.05 -10.03,-0.06 -20.17,-0.53 -30.09,-2.03 -6.07,-17.81 -11.18,-35.91 -15.85,-54.14 -2.01,4.7 -3.48,9.48 -5.25,14.25 -4.73,13.05 -9.87,25.94 -15.28,38.73 -0.68,1.19 -0.85,2.6 -2.47,2.73 -2.63,0.47 -5.38,0.49 -8.05,0.47 -9.16,-0.25 -18.26,-0.53 -27.33,-1.93 -7.45,-25.2 -14.78,-50.43 -21.75,-75.76 -3.12,-11.93 -6.86,-23.84 -8.89,-36 11.13,-3.29 22.79,-5.12 34.3,-6.46 1.87,4.73 3.27,9.59 4.54,14.51 5.48,20.55 9.85,41.34 14.76,62.01 5.44,-16.85 12.62,-32.97 18.72,-49.56 0.75,-2.37 1.96,-4.49 1.09,-6.99 -1.59,-5.49 -4.08,-10.41 -4.53,-16.22 7.78,-2.13 16.04,-2.98 24.07,-3.44 2.48,-0.03 5.32,-0.36 7.7,0.41 1.58,1.79 2.14,4.73 2.93,6.96 6.75,22.71 12.69,45.68 18.65,68.61 7.61,-24.12 14.3,-48.53 22.01,-72.63 0.46,-1.36 0.97,-2.76 1.66,-4.03 z"
       fill="#4d4d4d"
       id="path18" />
    <path
       d="m 484,156.21 c 13.17,0.13 26,4.12 36.56,12.07 -7.78,7.98 -15.72,15.8 -23.58,23.69 -3.92,-1.66 -7.66,-3.21 -11.98,-3.44 -8.85,-0.6 -17.82,3.13 -23.47,9.99 -3.94,4.6 -6.16,10.43 -6.65,16.44 -0.58,9.71 4.11,19.47 12.16,24.96 8.91,6.27 21.56,6.66 30.82,0.91 9.8,-5.75 15.17,-17.69 13.19,-28.86 -0.64,-3.99 -2.37,-7.33 -4.16,-10.88 7.75,-7.68 15.36,-15.49 23.13,-23.14 10.51,13.96 13.85,31.77 11.44,48.86 -1.53,8.86 -4.68,17.33 -10.13,24.55 -7.24,10.16 -18.13,17.59 -30.13,20.9 -15.22,4.36 -32.34,3.28 -46.53,-3.93 -10.75,-5.36 -19.5,-14.67 -24.68,-25.46 -6.04,-13.87 -8,-29.98 -3.75,-44.65 3.52,-12.9 11.86,-24.54 22.9,-32.08 10.23,-6.99 22.54,-10.18 34.86,-9.93 z"
       fill="#4d4d4d"
       id="path20" />
  </g>
</svg>
