<?xml version="1.0" encoding="UTF-8" standalone="no"?>
<svg
   id="Layer_2"
   viewBox="0 0 150 60"
   version="1.1"
   sodipodi:docname="MIPS_Logo_v2.0_Final_Primary.svg"
   width="150"
   height="60"
   inkscape:version="1.1.2 (0a00cf5339, 2022-02-04)"
   xmlns:inkscape="http://www.inkscape.org/namespaces/inkscape"
   xmlns:sodipodi="http://sodipodi.sourceforge.net/DTD/sodipodi-0.dtd"
   xmlns="http://www.w3.org/2000/svg"
   xmlns:svg="http://www.w3.org/2000/svg">
  <defs
     id="defs28" />
  <sodipodi:namedview
     id="namedview26"
     pagecolor="#ffffff"
     bordercolor="#000000"
     borderopacity="0.25"
     inkscape:pageshadow="2"
     inkscape:pageopacity="0.0"
     inkscape:pagecheckerboard="0"
     showgrid="false"
     width="150px"
     inkscape:zoom="3.5175623"
     inkscape:cx="193.45784"
     inkscape:cy="58.136852"
     inkscape:window-width="3840"
     inkscape:window-height="2111"
     inkscape:window-x="0"
     inkscape:window-y="25"
     inkscape:window-maximized="1"
     inkscape:current-layer="Layer_2" />
  <g
     id="Layer_1-2"
     transform="matrix(0.38109245,0,0,0.38109245,7.2386782e-4,8)"
     style="stroke-width:2.62404">
    <polygon
       points="191.97,27.04 171.61,27.04 141.56,67.57 110.88,27.04 90.52,27.04 90.52,114.5 113.26,114.5 113.26,69.39 135.62,95.88 146.62,95.88 169.14,68.1 169.36,114.5 192.1,114.5 "
       style="fill:#101820;stroke-width:0px"
       id="polygon2" />
    <path
       d="M 201.31,114.5 V 27.04 h 24.74 v 87.47 h -24.74 z"
       style="fill:#101820;stroke-width:0px"
       id="path4" />
    <path
       d="m 309.35,42.09 c -3.12,-4.87 -7.6,-8.6 -13.43,-11.18 -5.83,-2.58 -12.74,-3.87 -20.74,-3.87 h -39.86 v 87.47 h 24.74 V 91.64 h 15.12 c 8,0 14.91,-1.31 20.74,-3.94 5.83,-2.62 10.31,-6.33 13.43,-11.12 3.12,-4.79 4.68,-10.56 4.68,-17.31 0,-6.75 -1.56,-12.31 -4.68,-17.18 z M 285.3,68.7 c -2.58,2.21 -6.46,3.31 -11.62,3.31 H 260.06 V 46.52 h 13.62 c 5.16,0 9.04,1.15 11.62,3.44 2.58,2.29 3.87,5.39 3.87,9.31 0,3.92 -1.29,7.23 -3.87,9.43 z"
       style="fill:#101820;stroke-width:0px"
       id="path6" />
    <path
       d="m 352.32,116.25 c -7.25,0 -14.18,-0.9 -20.8,-2.69 -6.62,-1.79 -11.98,-4.06 -16.06,-6.81 l 8.12,-18.37 c 3.91,2.5 8.43,4.56 13.56,6.19 5.12,1.62 10.22,2.44 15.31,2.44 3.5,0 6.27,-0.29 8.31,-0.87 2.04,-0.58 3.54,-1.42 4.5,-2.5 0.96,-1.08 1.44,-2.37 1.44,-3.87 0,-1.91 -0.92,-3.44 -2.75,-4.56 -1.83,-1.12 -4.23,-2.08 -7.18,-2.87 -2.96,-0.79 -6.16,-1.54 -9.62,-2.25 -3.46,-0.71 -6.98,-1.64 -10.56,-2.81 -3.58,-1.17 -6.83,-2.7 -9.75,-4.62 -2.92,-1.91 -5.27,-4.41 -7.06,-7.5 -1.79,-3.08 -2.69,-6.95 -2.69,-11.62 0,-5.16 1.42,-9.87 4.25,-14.12 2.83,-4.25 7.12,-7.66 12.87,-10.25 5.75,-2.58 12.91,-3.87 21.49,-3.87 5.75,0 11.39,0.65 16.93,1.94 5.54,1.29 10.43,3.23 14.68,5.81 l -7.5,18.24 c -4.16,-2.33 -8.29,-4.04 -12.37,-5.12 -4.08,-1.08 -8.04,-1.62 -11.87,-1.62 -3.42,0 -6.16,0.37 -8.24,1.12 -2.08,0.75 -3.58,1.71 -4.5,2.87 -0.92,1.17 -1.37,2.42 -1.37,3.75 0,2 0.91,3.56 2.75,4.69 1.83,1.12 4.21,2.04 7.12,2.75 2.91,0.71 6.14,1.44 9.68,2.19 3.54,0.75 7.06,1.69 10.56,2.81 3.5,1.12 6.73,2.62 9.68,4.5 2.96,1.87 5.35,4.33 7.19,7.37 1.83,3.04 2.75,6.85 2.75,11.43 0,5.08 -1.44,9.77 -4.31,14.06 -2.87,4.29 -7.18,7.73 -12.93,10.31 -5.75,2.58 -12.95,3.87 -21.62,3.87 z"
       style="fill:#101820;stroke-width:0px"
       id="path8" />
    <polygon
       points="90.52,0.03 106.68,21.37 90.52,21.37 "
       style="fill:#e60a95;stroke-width:0px"
       id="polygon10" />
    <polygon
       points="85.52,0 85.52,58.18 56.43,29.09 "
       style="fill:#101820;stroke-width:0px"
       id="polygon12" />
    <polygon
       points="36.57,69.18 36.57,108.9 56.43,89.04 "
       style="fill:#101820;stroke-width:0px"
       id="polygon14" />
    <rect
       x="29.01"
       y="11.82"
       width="5.4000001"
       height="84.290001"
       transform="rotate(-45,31.712692,53.964173)"
       style="fill:#e60a95;stroke-width:0px"
       id="rect16" />
    <rect
       x="35.529999"
       y="5.3000002"
       width="5.4000001"
       height="84.290001"
       transform="rotate(-45,38.231881,47.443837)"
       style="fill:#e60a95;stroke-width:0px"
       id="rect18" />
    <rect
       x="42.060001"
       y="-1.23"
       width="5.4000001"
       height="84.290001"
       transform="rotate(-45,44.751069,40.9235)"
       style="fill:#e60a95;stroke-width:0px"
       id="rect20" />
    <rect
       x="48.580002"
       y="-7.75"
       width="5.4000001"
       height="84.290001"
       transform="rotate(-45,51.275257,34.391093)"
       style="fill:#e60a95;stroke-width:0px"
       id="rect22" />
  </g>
</svg>
