<?xml version="1.0" encoding="UTF-8" standalone="no"?>
<svg
   viewBox="0 0 200.00001 80"
   class="Logo"
   id="Qualcomm"
   version="1.1"
   sodipodi:docname="Qualcomm-Logo.svg"
   width="200"
   height="80"
   inkscape:version="1.1.2 (0a00cf5339, 2022-02-04)"
   xmlns:inkscape="http://www.inkscape.org/namespaces/inkscape"
   xmlns:sodipodi="http://sodipodi.sourceforge.net/DTD/sodipodi-0.dtd"
   xmlns="http://www.w3.org/2000/svg"
   xmlns:svg="http://www.w3.org/2000/svg">
  <defs
     id="defs7" />
  <sodipodi:namedview
     id="namedview5"
     pagecolor="#ffffff"
     bordercolor="#000000"
     borderopacity="0.25"
     inkscape:pageshadow="2"
     inkscape:pageopacity="0.0"
     inkscape:pagecheckerboard="0"
     showgrid="false"
     inkscape:zoom="1.739038"
     inkscape:cx="152.09559"
     inkscape:cy="-4.025214"
     inkscape:window-width="1918"
     inkscape:window-height="2110"
     inkscape:window-x="0"
     inkscape:window-y="25"
     inkscape:window-maximized="0"
     inkscape:current-layer="Qualcomm" />
  <path
     style="fill:#3253dc;fill-opacity:1;stroke-width:0.999999"
     d="m 53.790742,32.503819 c 0.534093,0 0.991886,0.43236 0.991886,0.991886 v 18.947566 c 0,0.534093 -0.483226,0.966453 -0.991886,0.966453 h -2.56873 c -0.483227,0 -0.966453,-0.381495 -0.966453,-0.915587 v -1.754875 c -1.297082,1.907473 -3.535184,3.229988 -6.790605,3.229988 -5.442656,0 -8.799809,-3.611483 -8.799809,-8.977841 v -11.54657 c 0,-0.534093 0.483226,-0.966453 0.991886,-0.966453 h 2.56873 c 0.534093,0 0.966453,0.43236 0.966453,0.966453 v 10.809014 c 0,3.484318 1.831175,5.798718 5.442657,5.798718 3.535184,0 5.620688,-2.390699 5.620688,-5.747852 v -10.85988 c 0,-0.534093 0.483226,-0.966453 0.966453,-0.966453 h 2.56873 M 15.895609,22 C 7.0958,22 0,28.84147 0,37.971908 c 0,9.155871 7.0958,15.971909 15.895609,15.971909 1.500546,0 2.950225,-0.203464 4.323606,-0.584959 l 1.729442,4.450771 c 0.178031,0.483226 0.534093,0.788422 1.169917,0.788422 h 2.746762 c 0.661257,0 1.144483,-0.432361 0.839288,-1.271649 L 24.466522,51.502251 C 28.866427,48.730057 31.791219,43.821493 31.791219,37.946475 31.791219,28.84147 24.695419,22 15.895609,22 m 6.91777,25.254944 -2.009205,-5.21376 c -0.178031,-0.43236 -0.534093,-0.839288 -1.297082,-0.839288 h -2.619597 c -0.661257,0 -1.169916,0.432361 -0.864721,1.271649 l 2.64503,6.84147 c -0.864721,0.228897 -1.805742,0.330629 -2.772195,0.330629 -6.4345423,0 -11.0124778,-5.061162 -11.0124778,-11.673736 0,-6.612573 4.5779355,-11.673735 11.0124778,-11.673735 6.434543,0 11.012479,5.061162 11.012479,11.673735 0,3.865813 -1.551412,7.172099 -4.094709,9.283036 m 176.403111,5.086595 c 0.2289,0.534093 -0.0509,1.042752 -0.68669,1.042752 h -2.87392 c -0.5341,0 -0.96646,-0.25433 -1.14449,-0.788422 l -5.31549,-14.293332 -5.39179,14.293332 c -0.2289,0.559525 -0.61039,0.788422 -1.14448,0.788422 h -2.56873 c -0.5341,0 -0.91559,-0.228897 -1.14449,-0.788422 l -5.44265,-14.369631 -5.36636,14.369631 c -0.2289,0.534092 -0.61039,0.788422 -1.14449,0.788422 h -2.69589 c -0.53409,0 -0.91559,-0.25433 -1.14449,-0.788422 l -5.31549,-14.369631 -5.49352,14.369631 c -0.2289,0.559525 -0.61039,0.788422 -1.14448,0.788422 h -2.56873 c -0.5341,0 -0.91559,-0.228897 -1.14449,-0.788422 l -5.36636,-14.369631 -5.36635,14.369631 c -0.17803,0.534092 -0.61039,0.788422 -1.14449,0.788422 H 132.811 c -0.66126,0 -0.91559,-0.534092 -0.68669,-1.042752 l 7.27383,-19.023865 c 0.22889,-0.559526 0.61039,-0.839288 1.14448,-0.839288 h 3.12826 c 0.53409,0 0.91558,0.254329 1.14448,0.839288 l 5.23919,13.886404 5.18833,-13.886404 c 0.2289,-0.559526 0.61039,-0.839288 1.14448,-0.839288 h 3.07739 c 0.5341,0 0.91559,0.254329 1.14449,0.839288 l 5.13746,13.886404 5.13746,-13.886404 c 0.2289,-0.559526 0.61039,-0.839288 1.14448,-0.839288 h 3.10283 c 0.53409,0 0.91558,0.254329 1.14448,0.839288 l 5.21376,13.886404 5.08659,-13.886404 c 0.2289,-0.559526 0.6104,-0.839288 1.14449,-0.839288 h 3.12825 c 0.5341,0 0.91559,0.254329 1.14449,0.839288 l 7.22296,19.023865 M 78.689625,32.503819 h -2.568731 c -0.534092,0 -0.991886,0.43236 -0.991886,0.991886 v 1.729442 c -1.297082,-1.958339 -3.840379,-3.357153 -6.84147,-3.357153 -5.671554,0 -10.529252,4.476204 -10.529252,11.012478 0,6.612574 4.883131,11.063345 10.503819,11.063345 3.051957,0 5.518955,-1.398814 6.892336,-3.357153 v 1.831174 c 0,0.534093 0.483227,0.966453 0.991886,0.966453 h 2.568731 c 0.534092,0 0.966453,-0.43236 0.966453,-0.966453 V 33.495705 c -0.02543,-0.559526 -0.457794,-0.991886 -0.991886,-0.991886 m -9.918861,17.26899 c -3.738647,0 -6.409109,-3.051957 -6.409109,-6.841471 0,-3.840379 2.645029,-6.790604 6.409109,-6.790604 3.713215,0 6.40911,2.950225 6.40911,6.790604 -0.02543,3.814947 -2.721328,6.841471 -6.40911,6.841471 m 40.565596,0.661257 c 0.55952,0.68669 0.0763,1.220783 -0.2289,1.44968 -1.78031,1.347947 -4.14557,2.085504 -6.7143,2.085504 -6.485411,0 -10.809017,-4.755967 -10.809017,-11.012479 0,-6.256511 4.323606,-11.063344 10.809017,-11.063344 2.56873,0 4.90856,0.737557 6.7143,2.085504 0.3052,0.228897 0.73756,0.686691 0.2289,1.44968 l -1.22078,1.704009 c -0.48323,0.661257 -1.04276,0.483227 -1.52598,0.178031 -1.14449,-0.68669 -2.49243,-1.271649 -4.04384,-1.271649 -3.789518,0 -6.307383,3.051957 -6.307383,6.917769 0,3.865813 2.517865,6.892337 6.307383,6.892337 1.57684,0 2.82306,-0.610392 3.96754,-1.271649 0.48323,-0.25433 0.99189,-0.483227 1.52598,0.228897 z m 12.1061,-18.515206 c -6.10392,0 -10.96162,4.7814 -10.96162,11.012478 0,6.281945 4.88313,11.012479 10.96162,11.012479 6.10391,0 10.96161,-4.755967 10.96161,-11.012479 0.0254,-6.205645 -4.8577,-11.012478 -10.96161,-11.012478 m 0,17.828516 c -3.73865,0 -6.40911,-3.001091 -6.40911,-6.790605 0,-3.840379 2.64503,-6.790604 6.40911,-6.790604 3.73864,0 6.40911,2.950225 6.40911,6.790604 0,3.789514 -2.64503,6.790605 -6.40911,6.790605 M 87.692898,22.559525 c 0.559525,0 0.966453,0.483227 0.966453,0.991887 v 28.840993 c 0,0.534093 -0.381495,0.991886 -0.966453,0.991886 h -2.568731 c -0.534092,0 -0.991886,-0.483226 -0.991886,-0.991886 v -28.81556 c 0,-0.534093 0.483227,-0.991887 0.991886,-0.991887 h 2.568731"
     id="path2" />
</svg>
