<?xml version="1.0" encoding="UTF-8" standalone="no"?>
<svg
   id="Layer_1"
   data-name="Layer 1"
   viewBox="0 0 150 60.000002"
   version="1.1"
   sodipodi:docname="Quintauris Logo RGB Black.svg"
   width="150"
   height="60"
   inkscape:version="1.1.2 (0a00cf5339, 2022-02-04)"
   xmlns:inkscape="http://www.inkscape.org/namespaces/inkscape"
   xmlns:sodipodi="http://sodipodi.sourceforge.net/DTD/sodipodi-0.dtd"
   xmlns="http://www.w3.org/2000/svg"
   xmlns:svg="http://www.w3.org/2000/svg">
  <sodipodi:namedview
     id="namedview39"
     pagecolor="#ffffff"
     bordercolor="#000000"
     borderopacity="0.25"
     inkscape:pageshadow="2"
     inkscape:pageopacity="0.0"
     inkscape:pagecheckerboard="0"
     showgrid="false"
     inkscape:zoom="1.4323668"
     inkscape:cx="31.06746"
     inkscape:cy="520.11816"
     inkscape:window-width="1918"
     inkscape:window-height="2110"
     inkscape:window-x="0"
     inkscape:window-y="25"
     inkscape:window-maximized="0"
     inkscape:current-layer="Layer_1" />
  <defs
     id="defs4">
    <style
       id="style2">
      .cls-1 {
        fill: none;
      }

      .cls-1, .cls-2 {
        stroke-width: 0px;
      }

      .cls-2 {
        fill: #2d2d2d;
      }
    </style>
  </defs>
  <rect
     class="cls-1"
     x="468.28201"
     y="0.229"
     width="100"
     height="100"
     id="rect6" />
  <rect
     class="cls-1"
     x="468.28201"
     y="190.21899"
     width="100"
     height="100"
     id="rect8" />
  <rect
     class="cls-1"
     x="957.55701"
     y="100.458"
     width="100"
     height="100"
     id="rect10" />
  <rect
     class="cls-1"
     y="100.458"
     width="100"
     height="100"
     id="rect12"
     x="0" />
  <g
     id="g36"
     transform="matrix(0.16782024,0,0,0.16782024,-13.660036,4.4104224)"
     style="stroke-width:5.95875">
    <path
       class="cls-2"
       d="M 116.679,153.564 H 100 v -16.679 h 16.679 z"
       id="path14" />
    <polygon
       class="cls-2"
       points="877.648,100.458 877.648,107.69 856.157,107.69 856.157,182.756 877.648,182.756 877.648,189.99 827.433,189.99 827.433,182.756 848.925,182.756 848.925,107.69 827.433,107.69 827.433,100.458 "
       id="polygon16" />
    <path
       class="cls-2"
       d="m 682.824,189.99 h -12.137 c -11.091,0 -20.114,-9.08 -20.114,-20.241 v -69.291 h 7.233 v 69.291 c 0,7.103 5.778,12.881 12.881,12.881 h 12.137 c 7.102,0 12.88,-5.778 12.88,-12.881 v -69.291 h 7.234 v 69.291 c 0,11.16 -9.024,20.241 -20.114,20.241 z"
       id="path18" />
    <polygon
       class="cls-2"
       points="482.89,107.69 482.89,100.458 533.106,100.458 533.106,107.69 511.615,107.69 511.615,189.99 504.381,189.99 504.381,107.69 "
       id="polygon20" />
    <polygon
       class="cls-2"
       points="404.155,189.99 396.922,189.99 396.922,100.458 410.958,100.458 411.08,100.807 439.53,182.756 441.296,182.756 441.296,100.458 448.528,100.458 448.528,189.99 434.493,189.99 434.371,189.641 405.921,107.69 404.155,107.69 "
       id="polygon22" />
    <polygon
       class="cls-2"
       points="358.588,100.458 358.588,107.69 337.097,107.69 337.097,182.756 358.588,182.756 358.588,189.99 308.372,189.99 308.372,182.756 329.864,182.756 329.864,107.69 308.372,107.69 308.372,100.458 "
       id="polygon24" />
    <path
       class="cls-2"
       d="m 251.944,189.99 h -12.136 c -11.09,0 -20.114,-9.08 -20.114,-20.241 v -69.291 h 7.233 v 69.291 c 0,7.103 5.778,12.881 12.881,12.881 h 12.136 c 7.103,0 12.881,-5.778 12.881,-12.881 v -69.291 h 7.233 v 69.291 c 0,11.16 -9.023,20.241 -20.114,20.241 z"
       id="path26" />
    <path
       class="cls-2"
       d="m 612.057,189.99 h -7.233 v -24.398 h -37.773 v 24.398 h -7.233 l 0.03,-29.52 21.615,-60.012 h 8.947 l 21.645,60.188 v 29.343 z m -43.775,-31.505 h 35.311 l -17.325,-48.139 h -0.66 z"
       id="path28" />
    <path
       class="cls-2"
       d="m 796.14,189.99 h -7.969 l -18.962,-41.845 h -16.34 v 41.845 h -7.233 v -89.532 h 30.229 c 11.208,0 19.987,8.835 19.987,20.114 v 7.585 c 0,10.689 -8.203,19.31 -18.817,19.955 l 19.105,41.879 z m -43.271,-49.079 h 22.996 c 7.153,0 12.754,-5.602 12.754,-12.754 v -7.585 c 0,-7.223 -5.602,-12.882 -12.754,-12.882 h -22.996 z"
       id="path30" />
    <path
       class="cls-2"
       d="m 933.43,138.908 c -9.048,-6.575 -17.591,-12.786 -17.591,-20.105 0,-6.855 5.176,-11.113 13.513,-11.113 h 5.94 c 4.641,0 8.735,2.339 11.201,5.888 h 0.018 l 3.707,5.172 5.915,-4.141 -3.561,-5.132 -0.073,0.05 c -3.786,-5.452 -10.052,-9.069 -17.208,-9.069 h -5.94 c -12.29,0 -20.873,7.544 -20.873,18.345 0,11.298 10.949,19.293 21.539,27.024 10.377,7.576 20.179,14.732 20.179,24.554 0,7.171 -5.736,12.375 -13.64,12.375 h -8.47 c -4.51,0 -8.485,-2.263 -10.943,-5.701 h -0.046 l -3.704,-5.172 -5.918,4.142 3.564,5.132 0.061,-0.043 c 3.783,5.344 9.957,8.875 16.986,8.875 h 8.47 c 11.974,0 21,-8.431 21,-19.609 0,-13.935 -12.819,-23.252 -24.127,-31.473 z"
       id="path32" />
    <path
       class="cls-2"
       d="m 187.204,196.316 -9.026,-12.89 c 3.297,-3.606 5.33,-8.401 5.33,-13.676 v -49.051 c 0,-11.16 -9.023,-20.241 -20.114,-20.241 h -12.136 c -11.09,0 -20.113,9.08 -20.113,20.241 v 15.647 h 7.232 v -15.647 c 0,-7.103 5.778,-12.881 12.881,-12.881 h 12.136 c 7.103,0 12.881,5.778 12.881,12.881 v 49.051 c 0,7.103 -5.778,12.881 -12.881,12.881 h -12.136 c -7.103,0 -12.881,-5.778 -12.881,-12.881 v -15.668 h -7.232 v 15.668 c 0,11.16 9.023,20.241 20.113,20.241 h 12.136 c 3.252,0 6.315,-0.798 9.036,-2.183 l 8.858,12.651 5.916,-4.142 z"
       id="path34" />
  </g>
</svg>
