<?xml version="1.0" encoding="UTF-8" standalone="no"?>
<!-- Created with Inkscape (http://www.inkscape.org/) -->

<svg
   version="1.1"
   id="svg2"
   xml:space="preserve"
   width="200"
   height="80"
   viewBox="0 0 200 80.000001"
   sodipodi:docname="realintent.svg"
   inkscape:version="1.1.2 (0a00cf5339, 2022-02-04)"
   xmlns:inkscape="http://www.inkscape.org/namespaces/inkscape"
   xmlns:sodipodi="http://sodipodi.sourceforge.net/DTD/sodipodi-0.dtd"
   xmlns="http://www.w3.org/2000/svg"
   xmlns:svg="http://www.w3.org/2000/svg"><defs
     id="defs6" /><sodipodi:namedview
     id="namedview4"
     pagecolor="#ffffff"
     bordercolor="#000000"
     borderopacity="0.25"
     inkscape:pageshadow="2"
     inkscape:pageopacity="0.0"
     inkscape:pagecheckerboard="0"
     showgrid="false"
     inkscape:zoom="1.8612504"
     inkscape:cx="221.6252"
     inkscape:cy="190.19472"
     inkscape:window-width="1918"
     inkscape:window-height="2110"
     inkscape:window-x="0"
     inkscape:window-y="25"
     inkscape:window-maximized="0"
     inkscape:current-layer="g8" /><g
     id="g8"
     inkscape:groupmode="layer"
     inkscape:label="ink_ext_XXXXXX"
     transform="matrix(1.3333333,0,0,-1.3333333,0,110.01333)"><g
       id="g10"
       transform="matrix(0.04314574,0,0,0.04314574,1.0971458,37.908931)"
       style="stroke-width:2.31773"><path
         d="m 208.063,513.301 c 127.136,239.804 484.757,307.578 798.757,151.418 101.37,-50.406 185.7,-118.02 249.27,-194.496 l 20.64,14.773 C 1205.26,582.789 1109.24,670.586 985.473,732.172 624.977,911.461 208.953,823.414 56.2695,535.512 -29.7227,373.301 -13.7461,182.344 80.9922,14.4258 H 278.52 C 160.02,170.547 126.098,358.754 208.063,513.301"
         style="fill:#4871c1;fill-opacity:1;fill-rule:nonzero;stroke:none;stroke-width:2.31773"
         id="path12" /><path
         d="M 541.305,395.898 C 478.457,277.379 536.27,122.219 671.113,14.4258 H 820.227 C 658.809,102.449 578.938,263.477 641.266,380.969 692.867,478.418 826.637,516.27 966.547,483.215 l 4.18,22.984 C 790.18,565.027 608.313,522.227 541.305,395.898"
         style="fill:#4871c1;fill-opacity:1;fill-rule:nonzero;stroke:none;stroke-width:2.31773"
         id="path14" /><path
         d="M 317.371,464.926 C 242.887,324.516 277.23,152.668 390.012,14.4258 H 547.168 C 412.266,141.551 359.945,311.684 430.574,444.977 c 93.289,175.863 365.332,220.746 607.676,100.214 28.74,-14.293 55.66,-30.339 80.79,-47.687 l 10.34,23.238 c -36.87,29.629 -78.07,56.25 -123.36,78.778 C 736.262,733.68 427.93,673.461 317.371,464.926"
         style="fill:#4871c1;fill-opacity:1;fill-rule:nonzero;stroke:none;stroke-width:2.31773"
         id="path16" /><path
         d="m 2093.66,11.8438 h -29.28 l 57.27,262.7692 h 29.29 L 2093.66,11.8438"
         style="fill:#4f4c4c;fill-opacity:1;fill-rule:nonzero;stroke:none;stroke-width:2.31773"
         id="path18" /><path
         d="m 2243.28,285.777 158.15,-214.6754 44.38,203.5114 h 29.26 L 2415.2,0 2257,214.352 2212.85,11.8438 h -29.29 l 59.72,273.9332"
         style="fill:#4f4c4c;fill-opacity:1;fill-rule:nonzero;stroke:none;stroke-width:2.31773"
         id="path20" /><path
         d="m 2577.04,11.8438 h -29.29 l 51.37,235.6052 h -63.44 l 5.91,27.164 h 156.85 l -5.91,-27.164 h -64.12 L 2577.04,11.8438"
         style="fill:#4f4c4c;fill-opacity:1;fill-rule:nonzero;stroke:none;stroke-width:2.31773"
         id="path22" /><path
         d="m 2763.25,274.613 h 136.28 l -5.94,-27.164 H 2786.6 l -17.03,-78.074 h 103.87 l -5.89,-27.156 H 2763.63 L 2741.15,39.0117 h 107.01 l -5.92,-27.1679 h -136.29 l 57.3,262.7692"
         style="fill:#4f4c4c;fill-opacity:1;fill-rule:nonzero;stroke:none;stroke-width:2.31773"
         id="path24" /><path
         d="m 2988.38,285.777 158.14,-214.6754 44.36,203.5114 h 29.27 L 3160.31,0 3002.1,214.352 2957.92,11.8438 h -29.29 l 59.75,273.9332"
         style="fill:#4f4c4c;fill-opacity:1;fill-rule:nonzero;stroke:none;stroke-width:2.31773"
         id="path26" /><path
         d="m 3322.12,11.8438 h -29.29 l 51.36,235.6052 h -63.44 l 5.94,27.164 h 156.85 l -5.93,-27.164 h -64.13 L 3322.12,11.8438"
         style="fill:#4f4c4c;fill-opacity:1;fill-rule:nonzero;stroke:none;stroke-width:2.31773"
         id="path28" /><path
         d="m 1161.02,199.578 c -5.46,-25.086 -22.65,-35.699 -59.04,-36.25 l 15.03,68.942 h 0.68 c 17.53,0 34.67,-1.118 41.25,-9.293 3.75,-4.633 4.47,-12.532 2.08,-23.399 z m -17.28,75.035 h -63.28 L 1023.78,14.6094 h 45.77 l 21.2,97.2456 45.82,-97.2456 h 53.71 L 1135.7,125.438 c 35.5,7.871 62.62,35.062 70.7,72.179 4.91,22.504 2.03,40.586 -8.58,53.735 -10.55,13.105 -28.43,20.726 -54.08,23.261"
         style="fill:#4f4c4c;fill-opacity:1;fill-rule:nonzero;stroke:none;stroke-width:2.31773"
         id="path30" /><path
         d="m 1569.38,126.941 41.39,64.122 12.76,-64.122 z M 1616.47,274.613 1445.2,14.6094 h 51.64 l 44.33,68.8867 h 91.17 l 13.65,-68.8867 h 48.79 l -54.95,260.0036 h -23.36"
         style="fill:#4f4c4c;fill-opacity:1;fill-rule:nonzero;stroke:none;stroke-width:2.31773"
         id="path32" /><path
         d="m 1441.96,232.27 9.24,42.343 H 1306.52 L 1249.84,14.6094 h 144.68 l 9.47,43.4179 h -98.88 l 16.8,76.9927 h 95.97 l 9.47,43.441 h -95.99 l 11.73,53.809 h 98.87"
         style="fill:#4f4c4c;fill-opacity:1;fill-rule:nonzero;stroke:none;stroke-width:2.31773"
         id="path34" /><path
         d="M 1852.49,274.613 H 1806.7 L 1750.02,14.6094 h 154.47 l 9.47,43.4179 h -108.68 l 47.21,216.5857"
         style="fill:#4f4c4c;fill-opacity:1;fill-rule:nonzero;stroke:none;stroke-width:2.31773"
         id="path36" /></g></g></svg>
