<?xml version="1.0" encoding="UTF-8" standalone="no"?>
<svg
   id="svg109"
   viewBox="0 0 300 120"
   version="1.1"
   sodipodi:docname="semidynamics.svg"
   width="300"
   height="120"
   inkscape:version="1.2.2 (1:1.2.2+202212051552+b0a8486541)"
   xmlns:inkscape="http://www.inkscape.org/namespaces/inkscape"
   xmlns:sodipodi="http://sodipodi.sourceforge.net/DTD/sodipodi-0.dtd"
   xmlns="http://www.w3.org/2000/svg"
   xmlns:svg="http://www.w3.org/2000/svg">
  <sodipodi:namedview
     id="namedview8994"
     pagecolor="#ffffff"
     bordercolor="#666666"
     borderopacity="1.0"
     inkscape:showpageshadow="2"
     inkscape:pageopacity="0.0"
     inkscape:pagecheckerboard="0"
     inkscape:deskcolor="#d1d1d1"
     showgrid="false"
     inkscape:zoom="5.2522523"
     inkscape:cx="184.96827"
     inkscape:cy="111.57118"
     inkscape:window-width="3840"
     inkscape:window-height="2136"
     inkscape:window-x="3840"
     inkscape:window-y="0"
     inkscape:window-maximized="1"
     inkscape:current-layer="svg109" />
  <defs
     id="defs8984">
    <style
       id="style8982">
      .cls-1 {
        fill: #fff;
      }

      .cls-2 {
        fill: #bd596e;
        fill-rule: evenodd;
      }
    </style>
  </defs>
  <g
     id="g2092"
     transform="matrix(0.88492839,0,0,0.88492839,2.6594235,27.25765)">
    <g
       id="layer1">
      <rect
         id="rect1905"
         class="cls-1"
         width="333"
         height="74"
         x="0"
         y="0" />
    </g>
    <path
       id="path27"
       d="M 65.43,37.99 H 48.67 c 0.06,2.64 0.77,4.69 2.13,6.14 1.36,1.44 3.23,2.15 5.61,2.15 2.67,0 5.13,-0.89 7.37,-2.66 v 3.57 c -2.09,1.5 -4.84,2.25 -8.27,2.25 -3.43,0 -5.99,-1.07 -7.9,-3.22 -1.92,-2.16 -2.87,-5.2 -2.87,-9.11 0,-3.69 1.04,-6.7 3.13,-9.01 2.1,-2.32 4.7,-3.48 7.81,-3.48 3.11,0 5.51,1 7.21,3.01 1.7,2.01 2.55,4.8 2.55,8.37 v 1.99 z m -3.89,-3.22 c -0.01,-2.19 -0.55,-3.9 -1.6,-5.12 -1.04,-1.22 -2.48,-1.83 -4.33,-1.83 -1.79,0 -3.31,0.64 -4.56,1.92 -1.25,1.28 -2.02,2.96 -2.32,5.03 z m 43.38,14.14 h -3.8 V 35.28 c 0,-2.63 -0.41,-4.53 -1.23,-5.7 -0.82,-1.17 -2.18,-1.76 -4.08,-1.76 -1.64,0 -3.02,0.74 -4.15,2.22 -1.13,1.48 -1.69,3.26 -1.69,5.33 V 48.9 h -3.8 V 34.81 c 0,-4.67 -1.8,-7 -5.4,-7 -1.67,0 -3.04,0.7 -4.13,2.11 -1.08,1.39 -1.62,3.21 -1.62,5.44 v 13.53 h -3.8 V 25.16 h 3.8 v 3.75 h 0.09 c 1.68,-2.87 4.14,-4.31 7.37,-4.31 1.64,0 3.05,0.46 4.24,1.37 1.2,0.9 2.03,2.08 2.48,3.55 1.77,-3.27 4.4,-4.91 7.88,-4.91 5.22,0 7.83,3.22 7.83,9.66 v 14.62 z m 8.88,-29.75 c -0.68,0 -1.26,-0.23 -1.74,-0.7 -0.48,-0.46 -0.72,-1.05 -0.72,-1.76 0,-0.71 0.24,-1.3 0.72,-1.76 0.48,-0.48 1.06,-0.72 1.74,-0.72 0.68,0 1.27,0.24 1.76,0.72 0.49,0.46 0.74,1.05 0.74,1.76 0,0.68 -0.25,1.26 -0.74,1.74 -0.48,0.48 -1.06,0.72 -1.76,0.72 z m 1.85,23.13 c 0,2.18 0.84,3.27 2.53,3.27 0.68,0 1.29,-0.09 1.83,-0.26 v 3.43 c -0.29,0.08 -0.69,0.15 -1.18,0.21 -0.48,0.08 -0.99,0.12 -1.53,0.12 -0.76,0 -1.47,-0.12 -2.13,-0.37 -0.66,-0.25 -1.24,-0.62 -1.74,-1.14 -0.48,-0.51 -0.86,-1.14 -1.16,-1.9 -0.28,-0.77 -0.42,-1.67 -0.42,-2.69 V 25.19 h 3.8 z m 30.96,6.63 h -7.33 v -3.27 h -0.09 c -1.67,2.56 -4.12,3.85 -7.37,3.85 -2.97,0 -5.35,-1.04 -7.16,-3.13 -1.81,-2.1 -2.71,-5.03 -2.71,-8.78 0,-3.75 1,-7.06 2.99,-9.41 1.99,-2.36 4.6,-3.55 7.83,-3.55 3.06,0 5.19,1.1 6.4,3.29 h 0.09 V 13.81 h 7.33 l 0.02,35.12 z M 139.45,37.38 V 35.6 c 0,-1.55 -0.45,-2.83 -1.34,-3.85 -0.9,-1.02 -2.06,-1.53 -3.48,-1.53 -1.64,0 -2.9,0.64 -3.8,1.92 -0.91,1.27 -1.37,3.01 -1.37,5.24 0,2.09 0.44,3.69 1.32,4.82 0.88,1.13 2.11,1.69 3.68,1.69 1.48,0 2.69,-0.59 3.62,-1.78 0.95,-1.19 1.43,-2.76 1.43,-4.71 z m 35.95,-12.19 -9.62,25.63 c -2.32,6.17 -5.81,9.25 -10.48,9.25 -1.78,0 -3.24,-0.2 -4.38,-0.6 v -5.84 c 0.97,0.57 2.03,0.86 3.18,0.86 1.89,0 3.2,-0.89 3.94,-2.66 l 1.25,-2.94 -9.62,-23.68 h 8.11 l 4.43,14.44 c 0.28,0.9 0.49,1.95 0.65,3.18 h 0.09 c 0.14,-0.9 0.39,-1.94 0.77,-3.13 l 4.47,-14.48 h 7.21 z m 25.91,23.72 h -7.3 V 35.74 c 0,-3.68 -1.31,-5.51 -3.94,-5.51 -1.27,0 -2.31,0.49 -3.13,1.46 -0.82,0.97 -1.23,2.21 -1.23,3.71 v 13.53 h -7.33 V 25.18 h 7.33 v 3.75 h 0.09 c 1.75,-2.89 4.29,-4.33 7.62,-4.33 5.25,0 7.88,3.26 7.88,9.78 v 14.53 z m 25.56,0 h -6.93 V 45.5 h -0.09 c -1.59,2.66 -3.95,3.99 -7.07,3.99 -2.3,0 -4.12,-0.65 -5.44,-1.94 -1.31,-1.31 -1.97,-3.06 -1.97,-5.24 0,-4.6 2.73,-7.26 8.18,-7.97 l 6.44,-0.86 c 0,-2.6 -1.41,-3.89 -4.22,-3.89 -2.81,0 -5.51,0.84 -8.06,2.53 v -5.51 c 1.02,-0.53 2.41,-0.99 4.17,-1.39 1.78,-0.4 3.39,-0.6 4.84,-0.6 6.77,0 10.15,3.38 10.15,10.13 v 14.18 z m -6.89,-9.62 v -1.6 l -4.31,0.56 c -2.38,0.31 -3.57,1.38 -3.57,3.22 0,0.83 0.29,1.52 0.86,2.06 0.59,0.53 1.37,0.79 2.36,0.79 1.38,0 2.5,-0.48 3.36,-1.43 0.86,-0.96 1.3,-2.16 1.3,-3.62 z m 50.4,9.62 h -7.3 V 35.37 c 0,-3.45 -1.27,-5.17 -3.8,-5.17 -1.2,0 -2.19,0.52 -2.94,1.56 -0.76,1.04 -1.14,2.33 -1.14,3.89 v 13.3 h -7.33 V 35.28 c 0,-3.35 -1.24,-5.03 -3.73,-5.03 -1.25,0 -2.26,0.49 -3.01,1.48 -0.74,0.99 -1.11,2.33 -1.11,4.03 v 13.19 h -7.33 V 25.18 h 7.33 v 3.71 h 0.09 c 0.76,-1.27 1.82,-2.3 3.18,-3.08 1.38,-0.82 2.87,-1.23 4.5,-1.23 3.35,0 5.65,1.48 6.88,4.43 1.81,-2.95 4.46,-4.43 7.97,-4.43 5.16,0 7.74,3.18 7.74,9.55 v 14.79 z m 9.34,-27.49 c -1.24,0 -2.25,-0.36 -3.04,-1.09 -0.79,-0.74 -1.18,-1.65 -1.18,-2.71 0,-1.06 0.39,-1.99 1.18,-2.69 0.79,-0.68 1.8,-1.02 3.04,-1.02 1.24,0 2.26,0.34 3.04,1.02 0.79,0.68 1.18,1.58 1.18,2.69 0,1.11 -0.39,2.02 -1.18,2.73 -0.77,0.71 -1.78,1.06 -3.04,1.06 v 0 z m 3.55,19.45 c 0,1 0.24,1.77 0.72,2.29 0.48,0.51 1.12,0.77 1.92,0.77 0.4,0 0.81,-0.04 1.23,-0.12 0.4,-0.08 0.81,-0.15 1.23,-0.23 v 5.14 c -0.88,0.23 -1.82,0.42 -2.8,0.56 -0.97,0.15 -1.99,0.23 -3.06,0.23 -0.97,0 -1.86,-0.16 -2.66,-0.49 -0.79,-0.32 -1.47,-0.79 -2.04,-1.39 -0.56,-0.62 -0.99,-1.36 -1.3,-2.22 -0.31,-0.86 -0.46,-1.84 -0.46,-2.92 V 25.18 h 7.28 l -0.05,15.69 z m 26.1,7.16 c -1.65,0.96 -4.04,1.44 -7.16,1.44 -3.65,0 -6.6,-1.1 -8.85,-3.31 -2.25,-2.21 -3.38,-5.06 -3.38,-8.55 0,-4.03 1.21,-7.21 3.62,-9.53 2.43,-2.32 5.66,-3.48 9.71,-3.48 2.8,0 4.82,0.37 6.07,1.11 v 6.21 c -1.53,-1.14 -3.24,-1.71 -5.12,-1.71 -2.1,0 -3.77,0.62 -5.01,1.85 -1.22,1.22 -1.83,2.91 -1.83,5.07 0,2.16 0.59,3.75 1.76,4.96 1.17,1.19 2.79,1.78 4.84,1.78 1.82,0 3.61,-0.57 5.35,-1.71 z" />
    <path
       id="path101"
       d="M 309.19,31.83 V 25.9 c 1.23,0.73 2.41,0.96 3.6,1.32 1.1,0.34 2.25,0.52 3.41,0.53 1.3,0 2.32,-0.18 3.06,-0.53 0.76,-0.36 1.14,-0.9 1.14,-1.62 0,-0.44 -0.18,-0.87 -0.51,-1.16 -0.39,-0.34 -0.84,-0.62 -1.32,-0.81 -0.53,-0.23 -1.11,-0.44 -1.74,-0.63 L 315,22.37 c -0.94,-0.36 -1.78,-0.74 -2.5,-1.14 -0.71,-0.42 -1.31,-0.9 -1.81,-1.44 -0.49,-0.55 -0.86,-1.19 -1.11,-1.88 -0.25,-0.71 -0.37,-1.56 -0.37,-2.53 0,-1.33 0.29,-2.47 0.86,-3.43 0.58,-0.95 1.37,-1.75 2.32,-2.34 1.02,-0.64 2.14,-1.09 3.31,-1.34 1.25,-0.29 2.55,-0.44 3.89,-0.44 1.05,0 2.12,0.09 3.2,0.26 1.08,0.15 2.15,0.39 3.2,0.7 v 5.65 c -0.93,-0.54 -1.94,-0.95 -2.99,-1.21 -1.05,-0.28 -2.09,-0.42 -3.11,-0.42 -0.46,0 -0.92,0.04 -1.37,0.14 -0.42,0.08 -0.79,0.2 -1.11,0.37 -0.31,0.14 -0.57,0.35 -0.77,0.63 -0.19,0.25 -0.28,0.55 -0.28,0.86 0,0.41 0.14,0.8 0.42,1.11 0.28,0.31 0.64,0.58 1.09,0.81 0.48,0.23 0.98,0.43 1.48,0.6 l 1.65,0.53 c 0.9,0.31 1.79,0.68 2.64,1.11 0.74,0.37 1.42,0.84 2.02,1.41 0.57,0.53 1.01,1.18 1.3,1.9 0.31,0.73 0.46,1.59 0.46,2.59 0,1.41 -0.31,2.61 -0.93,3.62 -0.61,0.99 -1.44,1.83 -2.43,2.43 -1.02,0.62 -2.17,1.06 -3.48,1.34 -1.31,0.29 -2.66,0.44 -4.1,0.44 -2.61,0 -4.91,0 -7.14,-0.8 l -0.14,-0.09 z" />
    <path
       id="path103"
       class="cls-2"
       d="M 42.1,70.85 C 29.06,70.85 17.01,64.38 10.48,53.88 3.96,43.38 3.96,30.44 10.48,19.94 17,9.45 29.06,3 42.1,3" />
    <path
       id="path105"
       class="cls-1"
       d="m 24.78,48.32 v -4.09 c 2.14,1.53 4.51,2.29 7.08,2.29 3.46,0 5.19,-1.11 5.19,-3.33 0,-0.63 -0.15,-1.16 -0.46,-1.6 -0.27,-0.45 -0.67,-0.84 -1.2,-1.18 -0.5,-0.34 -1.09,-0.64 -1.78,-0.9 -0.67,-0.28 -1.4,-0.56 -2.19,-0.86 -1.09,-0.42 -2.05,-0.83 -2.88,-1.23 -0.82,-0.43 -1.5,-0.91 -2.05,-1.43 -0.55,-0.54 -0.95,-1.15 -1.23,-1.83 -0.27,-0.68 -0.41,-1.47 -0.41,-2.38 0,-1.11 0.26,-2.09 0.79,-2.94 0.53,-0.86 1.23,-1.58 2.11,-2.15 0.88,-0.59 1.88,-1.03 3,-1.32 1.14,-0.29 2.3,-0.44 3.51,-0.44 2.13,0 4.03,0.35 5.72,1.06 v 3.84 c -1.81,-1.14 -3.89,-1.71 -6.24,-1.71 -0.74,0 -1.4,0.08 -1.99,0.25 -0.59,0.15 -1.1,0.38 -1.53,0.67 -0.42,0.29 -0.74,0.65 -0.98,1.06 -0.22,0.4 -0.34,0.85 -0.34,1.34 0,0.62 0.11,1.13 0.34,1.55 0.24,0.42 0.58,0.79 1.03,1.11 0.45,0.32 0.99,0.62 1.63,0.88 0.64,0.26 1.37,0.55 2.19,0.86 1.09,0.4 2.07,0.81 2.93,1.23 0.86,0.42 1.6,0.89 2.21,1.43 0.61,0.52 1.07,1.13 1.39,1.83 0.34,0.68 0.5,1.5 0.5,2.46 0,1.17 -0.27,2.19 -0.82,3.05 -0.53,0.86 -1.24,1.58 -2.14,2.15 -0.9,0.57 -1.93,0.99 -3.1,1.27 -1.17,0.28 -2.39,0.42 -3.67,0.42 -2.53,0 -4.72,-0.48 -6.58,-1.43 l -0.05,0.06 z" />
  </g>
</svg>
