<?xml version="1.0" encoding="UTF-8" standalone="no"?><!DOCTYPE svg PUBLIC "-//W3C//DTD SVG 1.1//EN" "http://www.w3.org/Graphics/SVG/1.1/DTD/svg11.dtd"><svg width="100%" height="100%" viewBox="0 0 7863 2618" version="1.1" xmlns="http://www.w3.org/2000/svg" xmlns:xlink="http://www.w3.org/1999/xlink" xml:space="preserve" xmlns:serif="http://www.serif.com/" style="fill-rule:evenodd;clip-rule:evenodd;stroke-linecap:round;stroke-linejoin:round;stroke-miterlimit:1.5;"><rect id="Artboard1" x="0" y="0" width="7862.76" height="2617.71" style="fill:none;"/><ellipse cx="1236.9" cy="1269.28" rx="1127.77" ry="1117.4" style="fill:none;stroke:#555574;stroke-width:62.5px;"/><ellipse cx="1238.51" cy="1368.09" rx="1050.26" ry="1019.11" style="fill:none;stroke:#555574;stroke-width:62.5px;"/><ellipse cx="1238.2" cy="1459.64" rx="942.626" ry="927.551" style="fill:none;stroke:#555574;stroke-width:62.5px;"/><path d="M805.671,1088.19l861.62,0l-861.62,0Z" style="fill:none;stroke:#9d2626;stroke-width:62.5px;"/><path d="M809.834,1362.86l861.62,-0l-861.62,-0Z" style="fill:none;stroke:#9d2626;stroke-width:62.5px;"/><path d="M806.709,1664.67l861.62,-0l-861.62,-0Z" style="fill:none;stroke:#9d2626;stroke-width:62.5px;"/><path d="M1200.01,2397.46l28.549,-22.195l1833.39,-0l-83.42,-122.349l405.977,139.033l-405.977,139.033l83.42,-122.349l-1861.94,-11.173Z" style="fill:#555574;stroke:#555574;stroke-width:38.89px;"/><g transform="matrix(3.125,0,0,3.125,-755.254,-3144.94)"><text x="1149.73px" y="1570.19px" style="font-family:'Leelawadee', sans-serif;font-size:400px;fill:#323232;">axiom</text><text x="2217.11px" y="1570.19px" style="font-family:'Leelawadee', sans-serif;font-size:400px;fill:#9d2626;">i</text><text x="2318.48px" y="1570.19px" style="font-family:'Leelawadee', sans-serif;font-size:400px;fill:#323232;">se</text></g><g transform="matrix(1,0,-0.267949,1,-944.431,0)"><text x="5063.75px" y="2465.05px" style="font-family:'Leelawadee', sans-serif;font-size:312.5px;fill:#323232;">pr<tspan x="5351.99px 5515.41px " y="2465.05px 2465.05px ">ed</tspan>ictable for<tspan x="7088.75px 7357.91px " y="2465.05px 2465.05px ">ma</tspan>l v<tspan x="7829.56px 7992.98px " y="2465.05px 2465.05px ">er</tspan>iﬁcation</text></g><g transform="matrix(0.920341,0,0,1,-418.352,-1.42109e-14)"><text x="8753.23px" y="1102.05px" style="font-family:'ArialMT', 'Arial', sans-serif;font-size:266.21px;">®</text></g></svg>