<?xml version="1.0" encoding="UTF-8" standalone="no"?>
<svg
   id="Layer_1"
   viewBox="0 0 300.00001 119.99999"
   version="1.1"
   sodipodi:docname="Codasip.svg"
   width="300"
   height="120"
   inkscape:version="1.2.2 (1:1.2.2+202212051552+b0a8486541)"
   xmlns:inkscape="http://www.inkscape.org/namespaces/inkscape"
   xmlns:sodipodi="http://sodipodi.sourceforge.net/DTD/sodipodi-0.dtd"
   xmlns="http://www.w3.org/2000/svg"
   xmlns:svg="http://www.w3.org/2000/svg">
  <sodipodi:namedview
     id="namedview35"
     pagecolor="#ffffff"
     bordercolor="#666666"
     borderopacity="1.0"
     inkscape:showpageshadow="2"
     inkscape:pageopacity="0.0"
     inkscape:pagecheckerboard="0"
     inkscape:deskcolor="#d1d1d1"
     showgrid="false"
     inkscape:zoom="1.4021839"
     inkscape:cx="599.0655"
     inkscape:cy="108.40233"
     inkscape:window-width="3840"
     inkscape:window-height="2136"
     inkscape:window-x="3840"
     inkscape:window-y="0"
     inkscape:window-maximized="1"
     inkscape:current-layer="Layer_1" />
  <defs
     id="defs4">
    <style
       id="style2">.cls-1{fill:none;}</style>
  </defs>
  <rect
     style="fill:#ffffff;fill-opacity:1;stroke:none;stroke-width:0.944006"
     id="rect4143"
     width="300"
     height="120"
     x="0"
     y="0" />
  <rect
     style="fill:#ffffff;fill-opacity:1;stroke:none;stroke-width:0.944006"
     id="rect1223"
     width="300"
     height="120"
     x="0"
     y="0" />
  <g
     id="g4141"
     transform="matrix(0.26452566,0,0,0.26452566,-17.331879,3.749401)">
    <circle
       cx="309.17001"
       cy="98.213173"
       r="61.830002"
       id="circle6" />
    <circle
       class="cls-1"
       cx="309.17001"
       cy="-25.456825"
       r="61.830002"
       id="circle8" />
    <circle
       class="cls-1"
       cx="309.17001"
       cy="469.22318"
       r="61.830002"
       id="circle10" />
    <circle
       cx="185.5"
       cy="221.88319"
       r="61.830002"
       id="circle12" />
    <circle
       class="cls-1"
       cx="1185.5"
       cy="221.88319"
       r="61.830002"
       id="circle14" />
    <circle
       class="cls-1"
       cx="61.830002"
       cy="221.88319"
       r="61.830002"
       id="circle16" />
    <circle
       cx="309.17001"
       cy="345.55316"
       r="61.830002"
       id="circle18" />
    <path
       d="m 485.48,287.69317 c -15.73,0 -28.19,-4.45 -37.41,-13.36 -9.21,-8.91 -13.82,-21.77 -13.82,-38.6 v -30.22 c 0,-16.83 4.61,-29.69 13.82,-38.6 9.21,-8.91 21.68,-13.36 37.41,-13.36 15.73,0 27.42,4.3 35.84,12.9 8.41,8.6 12.62,20.33 12.62,35.19 v 1.11 h -19.71 v -1.66 c 0,-8.72 -2.37,-15.85 -7.09,-21.37 -4.73,-5.53 -11.95,-8.29 -21.65,-8.29 -9.7,0 -17.5,2.98 -23.03,8.94 -5.53,5.96 -8.29,14.22 -8.29,24.78 v 30.96 c 0,10.44 2.76,18.67 8.29,24.69 5.53,6.02 13.2,9.03 23.03,9.03 9.83,0 16.92,-2.79 21.65,-8.38 4.73,-5.59 7.09,-12.68 7.09,-21.28 v -3.13 h 19.71 v 2.58 c 0,14.86 -4.21,26.6 -12.62,35.19 -8.42,8.6 -20.36,12.9 -35.84,12.9 z"
       id="path20" />
    <path
       d="m 599.16,287.69317 c -9.09,0 -17.17,-1.87 -24.23,-5.62 -7.07,-3.75 -12.62,-9.12 -16.68,-16.12 -4.05,-7 -6.08,-15.29 -6.08,-24.88 v -2.76 c 0,-9.58 2.03,-17.84 6.08,-24.78 4.05,-6.94 9.61,-12.31 16.68,-16.12 7.06,-3.81 15.14,-5.71 24.23,-5.71 9.09,0 17.2,1.91 24.32,5.71 7.12,3.81 12.71,9.19 16.77,16.12 4.05,6.94 6.08,15.2 6.08,24.78 v 2.76 c 0,9.58 -2.03,17.87 -6.08,24.88 -4.05,7 -9.64,12.38 -16.77,16.12 -7.13,3.75 -15.23,5.62 -24.32,5.62 z m 0,-16.95 c 8.35,0 15.14,-2.67 20.36,-8.01 5.22,-5.34 7.83,-12.74 7.83,-22.2 v -1.66 c 0,-9.45 -2.58,-16.86 -7.74,-22.2 -5.16,-5.34 -11.98,-8.01 -20.45,-8.01 -8.47,0 -14.96,2.67 -20.18,8.01 -5.22,5.34 -7.83,12.75 -7.83,22.2 v 1.66 c 0,9.46 2.61,16.86 7.83,22.2 5.22,5.34 11.94,8.01 20.18,8.01 z"
       id="path22" />
    <path
       d="m 704.72,287.69317 c -7.5,0 -14.44,-1.84 -20.82,-5.53 -6.39,-3.69 -11.52,-9 -15.38,-15.94 -3.87,-6.94 -5.8,-15.32 -5.8,-25.15 v -2.76 c 0,-9.7 1.9,-18.05 5.71,-25.06 3.81,-7 8.91,-12.34 15.29,-16.03 6.39,-3.69 13.39,-5.53 21.01,-5.53 5.9,0 10.84,0.74 14.83,2.21 3.99,1.48 7.28,3.35 9.86,5.62 2.58,2.28 4.54,4.64 5.9,7.09 h 2.95 v -50.49 h 18.98 v 128.98 h -18.61 v -12.9 h -2.95 c -2.33,3.93 -5.87,7.49 -10.59,10.69 -4.73,3.19 -11.52,4.79 -20.36,4.79 z m 5.34,-16.58 c 8.23,0 15.02,-2.64 20.36,-7.92 5.34,-5.28 8.02,-12.83 8.02,-22.66 v -1.66 c 0,-9.7 -2.64,-17.19 -7.92,-22.48 -5.28,-5.28 -12.1,-7.92 -20.45,-7.92 -8.35,0 -14.83,2.64 -20.18,7.92 -5.34,5.28 -8.02,12.78 -8.02,22.48 v 1.66 c 0,9.83 2.67,17.38 8.02,22.66 5.34,5.29 12.07,7.92 20.18,7.92 z"
       id="path24" />
    <path
       d="m 810.64,287.69317 c -6.51,0 -12.32,-1.11 -17.41,-3.32 -5.1,-2.21 -9.15,-5.46 -12.16,-9.76 -3.01,-4.3 -4.51,-9.52 -4.51,-15.66 0,-6.14 1.5,-11.45 4.51,-15.57 3.01,-4.11 7.12,-7.21 12.34,-9.31 5.22,-2.08 11.15,-3.13 17.78,-3.13 h 27.64 v -5.9 c 0,-5.28 -1.6,-9.52 -4.79,-12.71 -3.2,-3.19 -8.11,-4.79 -14.74,-4.79 -6.63,0 -11.49,1.54 -14.92,4.61 -3.44,3.07 -5.71,7.07 -6.82,11.98 l -17.69,-5.71 c 1.47,-4.91 3.84,-9.37 7.09,-13.36 3.25,-3.99 7.58,-7.21 12.99,-9.67 5.4,-2.46 11.91,-3.69 19.53,-3.69 11.79,0 21.06,3.01 27.82,9.03 6.76,6.02 10.13,14.55 10.13,25.61 v 37.4 c 0,3.69 1.72,5.53 5.16,5.53 h 7.74 v 15.85 h -14.19 c -4.3,0 -7.8,-1.11 -10.5,-3.32 -2.7,-2.21 -4.05,-5.22 -4.05,-9.03 v -0.55 h -2.76 c -0.98,1.84 -2.46,3.99 -4.42,6.45 -1.97,2.46 -4.85,4.58 -8.66,6.36 -3.81,1.78 -8.84,2.67 -15.11,2.67 z m 2.76,-15.66 c 7.61,0 13.75,-2.18 18.43,-6.54 4.67,-4.36 7,-10.35 7,-17.96 v -1.84 H 812.3 c -5.04,0 -9.09,1.08 -12.16,3.23 -3.07,2.15 -4.61,5.31 -4.61,9.49 0,4.18 1.6,7.49 4.79,9.95 3.19,2.46 7.56,3.69 13.08,3.69 z"
       id="path26" />
    <path
       d="m 925.25,287.69317 c -11.55,0 -21.13,-2.58 -28.74,-7.74 -7.62,-5.16 -12.28,-12.96 -14,-23.4 l 17.69,-4.24 c 0.98,5.04 2.64,9.03 4.97,11.98 2.33,2.95 5.25,5.04 8.75,6.26 3.5,1.23 7.28,1.84 11.33,1.84 6.02,0 10.66,-1.17 13.91,-3.5 3.25,-2.33 4.88,-5.34 4.88,-9.03 0,-3.69 -1.54,-6.39 -4.61,-8.11 -3.07,-1.72 -7.62,-3.13 -13.63,-4.24 l -6.26,-1.11 c -6.14,-1.11 -11.73,-2.7 -16.77,-4.79 -5.04,-2.09 -9.03,-4.98 -11.98,-8.66 -2.95,-3.69 -4.42,-8.41 -4.42,-14.19 0,-8.6 3.19,-15.26 9.58,-19.99 6.39,-4.73 14.86,-7.09 25.43,-7.09 10.57,0 18.58,2.3 25.15,6.91 6.57,4.61 10.84,10.84 12.81,18.7 l -17.69,4.97 c -1.11,-5.53 -3.44,-9.43 -7,-11.7 -3.56,-2.27 -7.98,-3.41 -13.27,-3.41 -5.29,0 -9.21,0.95 -12.16,2.86 -2.95,1.91 -4.42,4.58 -4.42,8.02 0,3.69 1.44,6.39 4.33,8.11 2.88,1.72 6.79,3.01 11.7,3.87 l 6.45,1.11 c 6.51,1.11 12.47,2.64 17.87,4.61 5.4,1.97 9.67,4.79 12.81,8.48 3.13,3.69 4.7,8.6 4.7,14.74 0,9.09 -3.38,16.16 -10.13,21.19 -6.76,5.03 -15.85,7.56 -27.27,7.56 z"
       id="path28" />
    <path
       d="m 994.34,181.92317 c -3.69,0 -6.79,-1.2 -9.31,-3.59 -2.52,-2.4 -3.78,-5.5 -3.78,-9.3 0,-3.8 1.26,-6.91 3.78,-9.31 2.52,-2.4 5.62,-3.59 9.31,-3.59 3.69,0 6.94,1.2 9.4,3.59 2.46,2.4 3.69,5.5 3.69,9.31 0,3.81 -1.23,6.91 -3.69,9.3 -2.46,2.4 -5.59,3.59 -9.4,3.59 z m -9.58,103.18 v -90.84 h 18.98 v 90.84 z"
       id="path30" />
    <path
       d="m 1029.14,321.96317 v -127.69 h 18.61 v 13.08 h 2.95 c 2.33,-4.05 5.87,-7.67 10.59,-10.87 4.73,-3.19 11.52,-4.79 20.36,-4.79 7.62,0 14.59,1.84 20.91,5.53 6.32,3.69 11.42,9 15.29,15.94 3.87,6.94 5.8,15.32 5.8,25.15 v 2.76 c 0,9.83 -1.91,18.21 -5.71,25.15 -3.81,6.94 -8.91,12.25 -15.29,15.94 -6.39,3.69 -13.39,5.53 -21.01,5.53 -5.9,0 -10.87,-0.74 -14.92,-2.21 -4.05,-1.47 -7.31,-3.35 -9.77,-5.62 -2.46,-2.27 -4.42,-4.63 -5.9,-7.09 h -2.95 v 49.2 h -18.98 z m 46.99,-50.86 c 8.35,0 15.17,-2.64 20.45,-7.92 5.28,-5.28 7.92,-12.83 7.92,-22.66 v -1.66 c 0,-9.7 -2.67,-17.19 -8.02,-22.48 -5.34,-5.28 -12.13,-7.92 -20.36,-7.92 -8.23,0 -14.83,2.64 -20.18,7.92 -5.34,5.28 -8.01,12.78 -8.01,22.48 v 1.66 c 0,9.83 2.67,17.38 8.01,22.66 5.34,5.29 12.07,7.92 20.18,7.92 z"
       id="path32" />
  </g>
</svg>
