<?xml version="1.0" encoding="UTF-8" standalone="no"?>
<svg
   role="img"
   viewBox="11.37 44.37 199.99999 80"
   version="1.1"
   id="svg40"
   sodipodi:docname="E4.svg"
   inkscape:version="1.2.2 (1:1.2.2+202212051552+b0a8486541)"
   width="200"
   height="80"
   xml:space="preserve"
   xmlns:inkscape="http://www.inkscape.org/namespaces/inkscape"
   xmlns:sodipodi="http://sodipodi.sourceforge.net/DTD/sodipodi-0.dtd"
   xmlns="http://www.w3.org/2000/svg"
   xmlns:svg="http://www.w3.org/2000/svg"
   xmlns:rdf="http://www.w3.org/1999/02/22-rdf-syntax-ns#"
   xmlns:cc="http://creativecommons.org/ns#"
   xmlns:dc="http://purl.org/dc/elements/1.1/"><defs
     id="defs44"><style
       id="style18453">.b{fill:#fff;}.c{fill:#e35530;}.d{fill:#303030;}</style></defs><sodipodi:namedview
     id="namedview42"
     pagecolor="#ffffff"
     bordercolor="#666666"
     borderopacity="1.0"
     inkscape:showpageshadow="2"
     inkscape:pageopacity="0.0"
     inkscape:pagecheckerboard="0"
     inkscape:deskcolor="#d1d1d1"
     showgrid="false"
     inkscape:zoom="1.9216862"
     inkscape:cx="290.1098"
     inkscape:cy="124.63013"
     inkscape:window-width="1871"
     inkscape:window-height="1251"
     inkscape:window-x="5763"
     inkscape:window-y="15"
     inkscape:window-maximized="0"
     inkscape:current-layer="svg40" /><title
     id="title2">Andes Logo.svg</title><style
     id="style4">svg {enable-background:new 0 0 400 245}</style><style
     id="style6">.st1{fill:#1c2e6c}</style><metadata
     id="metadata148"><rdf:RDF><cc:Work
         rdf:about=""><dc:title>Andes Logo.svg</dc:title></cc:Work></rdf:RDF></metadata><style
     type="text/css"
     id="style16209">
	.st0{fill:#E60019;}
	.st1{fill:#FFFFFF;}
</style><g
     id="g23419"
     transform="matrix(0.69567954,0,0,0.69567954,73.063081,45.581346)">
	<g
   id="g23411">
		<path
   d="m 11.996,89.954 c -0.22,-0.146 -0.499,-0.123 -0.722,0.056 -0.827,0.624 -1.503,1.065 -2.687,1.065 -2.143,0 -3.887,-1.798 -3.887,-4.008 0,-2.218 1.744,-4.022 3.887,-4.022 0.911,0 1.91,0.394 2.654,1.037 0.143,0.143 0.286,0.213 0.437,0.213 0.109,0 0.271,-0.039 0.395,-0.197 l 0.407,-0.406 c 0.237,-0.237 0.23,-0.616 -0.034,-0.878 -1.195,-1.02 -2.38,-1.475 -3.844,-1.475 -3.167,0 -5.744,2.577 -5.744,5.744 0,3.15 2.577,5.713 5.744,5.713 1.491,0 2.83,-0.535 3.877,-1.551 0.125,-0.125 0.196,-0.314 0.183,-0.494 -0.011,-0.157 -0.083,-0.292 -0.18,-0.363 z"
   id="path23373" />
		<path
   d="m 28.732,87.083 c 0,-3.167 -2.57,-5.744 -5.729,-5.744 -3.151,0 -5.714,2.577 -5.714,5.744 0,3.204 2.51,5.713 5.714,5.713 3.212,0 5.729,-2.509 5.729,-5.713 z m -5.729,4.038 c -2.227,0 -4.038,-1.812 -4.038,-4.038 0,-2.243 1.812,-4.068 4.038,-4.068 2.234,0 4.052,1.825 4.052,4.068 0.001,2.226 -1.817,4.038 -4.052,4.038 z"
   id="path23375" />
		<path
   d="m 43.771,92.21 c 0.071,0.248 0.316,0.436 0.57,0.436 h 0.602 c 0.196,0 0.363,-0.072 0.471,-0.205 0.111,-0.139 0.148,-0.327 0.106,-0.525 L 43.575,81.785 C 43.511,81.527 43.269,81.34 43.002,81.34 h -0.241 c -0.242,0 -0.479,0.163 -0.549,0.373 l -2.681,7.574 -2.72,-7.569 C 36.739,81.503 36.502,81.34 36.26,81.34 h -0.241 c -0.268,0 -0.508,0.188 -0.577,0.463 l -1.94,10.106 c -0.044,0.205 -0.007,0.394 0.104,0.532 0.107,0.133 0.274,0.205 0.471,0.205 h 0.602 c 0.277,0 0.542,-0.219 0.578,-0.47 l 1.128,-6.679 2.438,6.92 c 0.078,0.234 0.346,0.379 0.551,0.379 h 0.271 c 0.205,0 0.473,-0.145 0.55,-0.374 l 2.414,-6.926 z"
   id="path23377" />
		<path
   d="m 58.661,85.126 c 0,-2.005 -1.652,-3.636 -3.682,-3.636 h -3.326 c -0.33,0 -0.598,0.267 -0.598,0.597 v 9.962 c 0,0.329 0.268,0.597 0.598,0.597 h 0.572 c 0.324,0 0.597,-0.272 0.597,-0.597 v -3.226 h 2.171 c 2.023,0 3.668,-1.658 3.668,-3.697 z M 56.88,85.097 c 0,1.098 -0.887,1.991 -1.976,1.991 h -2.082 v -3.833 h 2.082 c 1.089,0 1.976,0.826 1.976,1.842 z"
   id="path23379" />
		<path
   d="m 71.728,81.49 h -0.572 c -0.329,0 -0.597,0.267 -0.597,0.597 v 6.305 c 0,1.623 -1.024,2.714 -2.548,2.714 -1.507,0 -2.518,-1.103 -2.518,-2.744 v -6.274 c 0,-0.33 -0.269,-0.597 -0.598,-0.597 h -0.572 c -0.324,0 -0.597,0.272 -0.597,0.597 v 6.365 c 0,2.518 1.802,4.344 4.284,4.344 2.499,0 4.313,-1.826 4.313,-4.344 V 82.088 C 72.324,81.763 72.051,81.49 71.728,81.49 Z"
   id="path23381" />
		<path
   d="m 84.634,82.523 v -0.437 c 0,-0.33 -0.269,-0.597 -0.598,-0.597 h -6.381 c -0.329,0 -0.597,0.267 -0.597,0.597 v 0.437 c 0,0.329 0.268,0.597 0.597,0.597 h 2.308 v 8.929 c 0,0.324 0.273,0.597 0.598,0.597 h 0.571 c 0.324,0 0.598,-0.272 0.598,-0.597 V 83.12 h 2.307 c 0.328,0 0.597,-0.267 0.597,-0.597 z"
   id="path23383" />
		<path
   d="m 90.101,92.646 h 5.929 c 0.329,0 0.598,-0.268 0.598,-0.597 v -0.437 c 0,-0.329 -0.269,-0.597 -0.598,-0.597 H 91.286 V 87.8 h 4.007 c 0.33,0 0.598,-0.269 0.598,-0.598 v -0.437 c 0,-0.323 -0.273,-0.597 -0.598,-0.597 h -4.007 v -3.05 h 4.744 c 0.329,0 0.598,-0.268 0.598,-0.597 v -0.437 c 0,-0.33 -0.269,-0.597 -0.598,-0.597 h -5.929 c -0.329,0 -0.598,0.267 -0.598,0.597 v 9.962 c 0,0.332 0.268,0.6 0.598,0.6 z"
   id="path23385" />
		<path
   d="m 102.847,92.646 h 0.587 c 0.323,0 0.597,-0.272 0.597,-0.597 v -3.526 h 2.371 l 1.915,3.814 c 0.074,0.149 0.249,0.309 0.52,0.309 h 0.768 c 0.222,0 0.417,-0.106 0.523,-0.284 0.108,-0.182 0.111,-0.416 0.006,-0.611 l -1.902,-3.527 c 1.308,-0.647 2.105,-1.854 2.105,-3.217 0,-1.939 -1.611,-3.516 -3.592,-3.516 h -3.897 c -0.329,0 -0.598,0.267 -0.598,0.597 v 9.962 c -0.001,0.328 0.268,0.596 0.597,0.596 z m 1.214,-5.739 V 83.21 h 2.608 c 0.988,0 1.855,0.847 1.855,1.811 0,1.041 -0.832,1.887 -1.855,1.887 h -2.608 z"
   id="path23387" />
		<path
   d="M 10.152,97.572 H 4.224 c -0.33,0 -0.598,0.268 -0.598,0.597 v 9.962 c 0,0.33 0.268,0.598 0.598,0.598 h 5.929 c 0.33,0 0.598,-0.268 0.598,-0.598 v -0.437 c 0,-0.329 -0.268,-0.597 -0.598,-0.597 H 5.408 v -3.215 h 4.007 c 0.33,0 0.598,-0.268 0.598,-0.598 v -0.436 c 0,-0.324 -0.274,-0.598 -0.598,-0.598 H 5.408 V 99.2 h 4.745 c 0.33,0 0.598,-0.268 0.598,-0.597 V 98.166 C 10.75,97.84 10.482,97.572 10.152,97.572 Z"
   id="path23389" />
		<path
   d="m 21.782,97.572 h -0.527 c -0.329,0 -0.597,0.268 -0.597,0.597 v 7.173 l -6.356,-7.92 h -0.525 c -0.329,0 -0.597,0.261 -0.597,0.582 v 10.127 c 0,0.324 0.273,0.598 0.597,0.598 h 0.527 c 0.329,0 0.597,-0.268 0.597,-0.598 v -7.318 l 6.461,8.066 h 0.42 c 0.329,0 0.597,-0.261 0.597,-0.582 V 98.169 c 0,-0.323 -0.274,-0.597 -0.597,-0.597 z"
   id="path23391" />
		<path
   d="m 34.012,103.29 h -2.604 c -0.335,0 -0.597,0.263 -0.597,0.598 v 0.557 c 0,0.326 0.262,0.582 0.597,0.582 h 1.419 v 1.607 c -0.333,0.16 -1.196,0.509 -2.397,0.509 -2.135,0 -3.872,-1.812 -3.872,-4.037 0,-2.21 1.737,-4.009 3.872,-4.009 0.871,0 1.887,0.421 2.65,1.094 0.11,0.1 0.246,0.202 0.425,0.202 0.219,0 0.36,-0.158 0.408,-0.211 0.077,-0.086 0.172,-0.178 0.266,-0.269 l 0.143,-0.14 c 0.237,-0.237 0.23,-0.615 -0.033,-0.878 -1.195,-1.02 -2.38,-1.474 -3.844,-1.474 -3.167,0 -5.744,2.576 -5.744,5.743 0,3.15 2.577,5.714 5.744,5.714 2.248,0 3.82,-1.001 3.903,-1.055 0.138,-0.103 0.246,-0.318 0.246,-0.49 v -3.446 c 0,-0.328 -0.261,-0.597 -0.582,-0.597 z"
   id="path23393" />
		<path
   d="m 38.327,97.572 h -0.602 c -0.324,0 -0.598,0.273 -0.598,0.597 v 9.962 c 0,0.324 0.274,0.598 0.598,0.598 h 0.602 c 0.324,0 0.597,-0.273 0.597,-0.598 v -9.962 c 0,-0.323 -0.273,-0.597 -0.597,-0.597 z"
   id="path23395" />
		<path
   d="m 50.62,97.572 h -0.527 c -0.329,0 -0.597,0.268 -0.597,0.597 v 7.173 l -6.356,-7.92 h -0.525 c -0.329,0 -0.597,0.261 -0.597,0.582 v 10.127 c 0,0.324 0.273,0.598 0.597,0.598 h 0.527 c 0.329,0 0.597,-0.268 0.597,-0.598 v -7.318 l 6.461,8.066 h 0.42 c 0.329,0 0.597,-0.261 0.597,-0.582 V 98.169 c 0,-0.323 -0.274,-0.597 -0.597,-0.597 z"
   id="path23397" />
		<path
   d="m 60.833,97.572 h -5.929 c -0.33,0 -0.598,0.268 -0.598,0.597 v 9.962 c 0,0.33 0.268,0.598 0.598,0.598 h 5.929 c 0.329,0 0.598,-0.268 0.598,-0.598 v -0.437 c 0,-0.329 -0.269,-0.597 -0.598,-0.597 h -4.745 v -3.215 h 4.007 c 0.329,0 0.598,-0.268 0.598,-0.598 v -0.436 c 0,-0.324 -0.273,-0.598 -0.598,-0.598 H 56.088 V 99.2 h 4.745 c 0.329,0 0.598,-0.268 0.598,-0.597 v -0.437 c 0,-0.326 -0.269,-0.594 -0.598,-0.594 z"
   id="path23399" />
		<path
   d="m 70.386,97.572 h -5.93 c -0.329,0 -0.597,0.268 -0.597,0.597 v 9.962 c 0,0.33 0.268,0.598 0.597,0.598 h 5.93 c 0.329,0 0.597,-0.268 0.597,-0.598 v -0.437 c 0,-0.329 -0.268,-0.597 -0.597,-0.597 h -4.745 v -3.215 h 4.008 c 0.329,0 0.598,-0.268 0.598,-0.598 v -0.436 c 0,-0.324 -0.274,-0.598 -0.598,-0.598 H 65.641 V 99.2 h 4.745 c 0.329,0 0.597,-0.268 0.597,-0.597 V 98.166 C 70.982,97.84 70.715,97.572 70.386,97.572 Z"
   id="path23401" />
		<path
   d="m 81.498,101.088 c 0,-1.938 -1.61,-3.516 -3.592,-3.516 H 74.01 c -0.33,0 -0.599,0.268 -0.599,0.597 v 9.962 c 0,0.33 0.269,0.598 0.599,0.598 h 0.586 c 0.324,0 0.598,-0.273 0.598,-0.598 v -3.525 h 2.37 l 1.915,3.814 c 0.074,0.149 0.25,0.309 0.521,0.309 h 0.767 c 0.222,0 0.418,-0.106 0.524,-0.285 0.108,-0.182 0.11,-0.415 0.006,-0.611 l -1.903,-3.526 c 1.306,-0.649 2.104,-1.855 2.104,-3.219 z m -1.81,0.016 c 0,1.04 -0.833,1.886 -1.856,1.886 h -2.607 v -3.696 h 2.607 c 0.988,-10e-4 1.856,0.845 1.856,1.81 z"
   id="path23403" />
		<path
   d="M 85.202,97.572 H 84.6 c -0.324,0 -0.598,0.273 -0.598,0.597 v 9.962 c 0,0.324 0.273,0.598 0.598,0.598 h 0.603 c 0.323,0 0.597,-0.273 0.597,-0.598 v -9.962 c -10e-4,-0.323 -0.275,-0.597 -0.598,-0.597 z"
   id="path23405" />
		<path
   d="m 97.494,97.572 h -0.527 c -0.329,0 -0.597,0.268 -0.597,0.597 v 7.173 l -6.356,-7.92 h -0.525 c -0.33,0 -0.598,0.261 -0.598,0.582 v 10.127 c 0,0.324 0.274,0.598 0.598,0.598 h 0.526 c 0.329,0 0.598,-0.268 0.598,-0.598 v -7.318 l 6.461,8.066 h 0.421 c 0.329,0 0.598,-0.261 0.598,-0.582 V 98.169 c -0.001,-0.323 -0.275,-0.597 -0.599,-0.597 z"
   id="path23407" />
		<path
   d="m 109.725,103.29 h -2.604 c -0.335,0 -0.598,0.263 -0.598,0.598 v 0.557 c 0,0.326 0.263,0.582 0.598,0.582 h 1.419 v 1.607 c -0.333,0.16 -1.196,0.509 -2.397,0.509 -2.135,0 -3.872,-1.812 -3.872,-4.037 0,-2.21 1.737,-4.009 3.872,-4.009 0.871,0 1.888,0.421 2.65,1.094 0.109,0.1 0.246,0.202 0.425,0.202 0.219,0 0.361,-0.158 0.408,-0.211 0.076,-0.086 0.172,-0.178 0.266,-0.269 l 0.144,-0.14 c 0.236,-0.237 0.23,-0.615 -0.034,-0.878 -1.194,-1.02 -2.38,-1.474 -3.843,-1.474 -3.168,0 -5.744,2.576 -5.744,5.743 0,3.15 2.576,5.714 5.744,5.714 2.248,0 3.819,-1.001 3.902,-1.055 0.138,-0.103 0.246,-0.318 0.246,-0.49 v -3.446 c 0,-0.328 -0.262,-0.597 -0.582,-0.597 z"
   id="path23409" />
	</g>
	<rect
   x="3.6689999"
   y="67.111"
   fill-rule="evenodd"
   clip-rule="evenodd"
   width="106.48"
   height="3.5320001"
   id="rect23413" />
	<path
   d="M 52.645,15.986 V 5.069 H 17.714 V 5.065 H 11.773 V 5.073 C 7.391,5.114 3.85,8.657 3.811,13.039 H 3.807 V 46.99 h 0.009 c -0.003,0.088 -0.009,0.176 -0.009,0.265 0,4.441 3.601,8.042 8.042,8.042 0.023,0 0.046,-0.003 0.069,-0.004 v 0.004 h 3.751 2.213 34.763 V 44.38 H 16.452 v -8.74 h 33.14 V 24.725 h -33.14 v -8.739 z"
   id="path23415" />
	<path
   d="m 110.149,37.181 h -6.38 V 12.42 h -0.007 c -0.079,-4.373 -3.643,-7.895 -8.035,-7.895 -2.07,0 -3.952,0.789 -5.377,2.074 l -0.004,-0.004 -30.277,27.683 0.003,0.003 c -1.51,1.462 -2.451,3.506 -2.451,5.773 0,4.441 3.6,8.042 8.042,8.042 0.077,0 0.153,-0.009 0.23,-0.012 v 0.012 h 1.337 23.901 v 7.109 h 0.009 c -0.001,0.031 -0.001,0.061 -0.002,0.091 h 12.631 v -7.2 h 6.38 z m -36.983,0 C 73.158,37.16 73.151,37.138 73.143,37.117 L 91.132,20.67 V 37.182 H 73.166 Z"
   id="path23417" />
</g></svg>
